<svg xmlns="http://www.w3.org/2000/svg" viewBox="0 0 72 72"><title>m_065_brand_thin</title><path d="M35.85,8A28.32,28.32,0,1,0,64.17,36.36,28.32,28.32,0,0,0,35.85,8Zm9,37.21a11.54,11.54,0,0,1-.14,11.85,13.3,13.3,0,0,1-3.66,4.07l-.25,0V40.85a13.28,13.28,0,0,1,4.07,4.41Zm-4-4.61V20.11q5.57,4,5.57,10.12a11.88,11.88,0,0,1-1.83,6.41,12,12,0,0,1-3.75,4Zm13,13.55a17.13,17.13,0,0,0,.26-2.88A20.4,20.4,0,0,0,51,40.71a18.75,18.75,0,0,0,3.07-10.44,17.34,17.34,0,0,0-3.4-10.42H33.21V61.54a25.35,25.35,0,1,1,20.6-7.35Z" fill="gray"/></svg>