<svg xmlns="http://www.w3.org/2000/svg" viewBox="0 0 72 72"><title>m_116_brand_console</title><ellipse cx="30.04" cy="31.24" rx="2.72" ry="2.17" transform="translate(-4.85 5.53) rotate(-9.74)" fill="gray"/><path d="M21.46,41.73a3.22,3.22,0,0,1-3-1.65c-.82-1.62.1-3.74,2-4.72a4.39,4.39,0,0,1,2.85-.43,2.93,2.93,0,0,1,2.15,4.24,4.4,4.4,0,0,1-2,2A4.54,4.54,0,0,1,21.46,41.73Zm1.12-5.48a3.16,3.16,0,0,0-1.42.35c-1.26.64-1.9,1.91-1.42,2.84s1.88,1.17,3.13.53a3,3,0,0,0,1.39-1.38,1.66,1.66,0,0,0,0-1.46h0a1.66,1.66,0,0,0-1.19-.83,2.6,2.6,0,0,0-.49,0Z" fill="gray"/><path d="M34.37,56.69a4.5,4.5,0,0,1-2.66-.75c-2.2-1.54-2-4.72-1.75-7.53.12-1.61.28-3.81-.28-4.42a1,1,0,0,0-.75-.21,12.31,12.31,0,0,0-3.49,1.62h-.06c-4.06,2.06-8.7,1-10.79-2.35a9.16,9.16,0,0,1-.22-8C16,31.3,22.46,26.4,27.75,23.86,37,19.39,49.2,19.36,54.69,28A13.67,13.67,0,0,1,56.1,39.38c-1.89,6.32-7.55,12-15.53,15.59A16,16,0,0,1,34.37,56.69ZM28.93,40.78a3.85,3.85,0,0,1,3,1.17c1.45,1.56,1.26,4.17,1.07,6.68-.14,1.91-.32,4.29.48,4.85.29.2,1.56.7,5.91-1.25C46.58,49,51.64,44,53.27,38.52a10.57,10.57,0,0,0-1.06-9c-3.45-5.39-12.49-8.16-23.11-3-5.2,2.52-10.79,7.06-12,9.72a6.19,6.19,0,0,0,0,5.26c1.26,2,4.2,2.59,6.85,1.26C26.21,41.51,27.74,40.78,28.93,40.78Z" fill="gray"/><ellipse cx="37.93" cy="28.36" rx="2.71" ry="2.16" transform="translate(-4.16 6.66) rotate(-9.51)" fill="gray"/><ellipse cx="46.47" cy="30.24" rx="2.72" ry="2.17" transform="translate(-4.45 8.3) rotate(-9.74)" fill="gray"/><ellipse cx="48.71" cy="37.2" rx="2.72" ry="2.17" transform="translate(-5.59 8.78) rotate(-9.74)" fill="gray"/><ellipse cx="44.32" cy="43.59" rx="2.71" ry="2.16" transform="translate(-6.59 7.92) rotate(-9.51)" fill="gray"/><path d="M62.92,8.26H8.85a1,1,0,0,0-1,1V62.68a1,1,0,0,0,1,1H62.92a1,1,0,0,0,1-1V9.26A1,1,0,0,0,62.92,8.26Zm-1,2v4.81H9.85V10.26ZM9.86,61.68h0V17.07H61.92V61.68Z" fill="gray"/></svg>