<svg xmlns="http://www.w3.org/2000/svg" viewBox="0 0 72 72"><title>m_117_brand_settings</title><ellipse cx="31.12" cy="30.4" rx="2.71" ry="2.16" transform="matrix(0.99, -0.17, 0.17, 0.99, -4.6, 5.56)" fill="gray"/><path d="M24.72,34.08a4.57,4.57,0,0,0-4.88,2.48A2.93,2.93,0,0,0,22,40.8a4,4,0,0,0,.8.08,4.57,4.57,0,0,0,2.06-.51c1.94-1,2.86-3.1,2-4.72A3,3,0,0,0,24.72,34.08Zm-.51,5a3,3,0,0,1-1.94.3,1.54,1.54,0,0,1-1.16-2.29,3,3,0,0,1,1.39-1.38,3.16,3.16,0,0,1,1.42-.35,2.6,2.6,0,0,1,.52,0,1.66,1.66,0,0,1,1.2.83,2.35,2.35,0,0,1-1.43,2.88Z" fill="gray"/><path d="M57.62,37.77h5.45a1,1,0,0,0,1-1V8.63a1,1,0,0,0-1-1H37a1,1,0,0,0-1,1v12a30.3,30.3,0,0,0-5,1.53V8.63a1,1,0,0,0-1-1H9a1,1,0,0,0-1,1V36.77a1,1,0,0,0,1,1h5.88a8.29,8.29,0,0,0,1,4.46,4.15,4.15,0,0,0,.24.34H9a1,1,0,0,0-1,1V63a1,1,0,0,0,1,1H63.07a1,1,0,0,0,1-1V43.57a1,1,0,0,0-1-1H55.65a18.73,18.73,0,0,0,1.78-4C57.51,38.27,57.55,38,57.62,37.77ZM38,9.63H62.07V35.77H58a13.27,13.27,0,0,0-2-8.69c-3.84-6-11-7.8-18.08-6.8V9.63Zm2.72,41.74c-4.35,2-5.62,1.45-5.91,1.25-.8-.56-.62-2.94-.48-4.85.19-2.52.38-5.12-1.07-6.68a3.85,3.85,0,0,0-3-1.17c-1.19,0-2.72.73-4.94,2-2.65,1.33-5.59.79-6.85-1.26a6.19,6.19,0,0,1,0-5.26c1.17-2.65,6.75-7.19,12-9.72C41,20.53,50,23.3,53.5,28.7a10.57,10.57,0,0,1,1.06,9c-1.64,5.44-6.7,10.44-13.89,13.67ZM10,9.63H28.94V23.06c-5.26,2.58-11.63,7.42-13.26,11.14a9.44,9.44,0,0,0-.52,1.59H10ZM62.07,44.57V62H10V44.57h8.32a8.77,8.77,0,0,0,8.38,0h.06A12.33,12.33,0,0,1,30.25,43a1,1,0,0,1,.75.21c.56.6.4,2.81.28,4.42-.21,2.81-.45,6,1.75,7.53a4.5,4.5,0,0,0,2.66.75,16,16,0,0,0,6.2-1.72A31.26,31.26,0,0,0,54.32,44.6h7.74Z" fill="gray"/><ellipse cx="39.26" cy="27.5" rx="2.71" ry="2.16" transform="translate(-4 6.87) rotate(-9.51)" fill="gray"/><ellipse cx="47.5" cy="29.49" rx="2.71" ry="2.16" transform="translate(-4.22 8.25) rotate(-9.51)" fill="gray"/><ellipse cx="49.68" cy="36.43" rx="2.71" ry="2.16" transform="translate(-5.34 8.71) rotate(-9.51)" fill="gray"/><ellipse cx="45.66" cy="42.73" rx="2.71" ry="2.16" transform="translate(-6.43 8.13) rotate(-9.51)" fill="gray"/></svg>