<svg xmlns="http://www.w3.org/2000/svg" viewBox="0 0 72 72"><title>m_138_cloud</title><path d="M15.74,53.46a10.84,10.84,0,0,1,.21-21.68,10.69,10.69,0,0,1,2.43.28,18.26,18.26,0,0,1,33.93-5.69,11.58,11.58,0,0,1,1.63-.11c7.11,0,12.92,6.1,12.92,13.6,0,7.34-5.43,13.31-12.36,13.58h-7a2,2,0,0,1,0-4h6.88c4.7-.18,8.44-4.39,8.44-9.58s-4-9.61-8.91-9.61a6.93,6.93,0,0,0-1.47.14A3.08,3.08,0,0,1,49,28.77a14.26,14.26,0,0,0-26.86,4.8,3.08,3.08,0,0,1-4.09,2.56,6.55,6.55,0,0,0-2.16-.36,6.84,6.84,0,0,0-.17,13.68h19.7a2,2,0,0,1,0,4Zm3.69-21.1Z" fill="gray"/></svg>