<svg xmlns="http://www.w3.org/2000/svg" viewBox="0 0 72 72"><title>m_046_control_fast_forward_thick</title><path d="M62,30,38.73,15.79a6.71,6.71,0,0,0-6.84-.13,7.29,7.29,0,0,0-3.67,6.4v3.61L16.66,18.61a6,6,0,0,0-6.11-.12,6.51,6.51,0,0,0-3.27,5.7V48.37a6.5,6.5,0,0,0,3.27,5.7A6,6,0,0,0,16.67,54l11.56-7.06V50.5a7.31,7.31,0,0,0,3.67,6.4,6.67,6.67,0,0,0,6.84-.13L62,42.55A7.42,7.42,0,0,0,62,30ZM14.58,50.54a2,2,0,0,1-2.07,0,2.48,2.48,0,0,1-1.23-2.21V24.19A2.48,2.48,0,0,1,12.51,22a2.14,2.14,0,0,1,1-.27,2,2,0,0,1,1.06.31l13.64,8.34V42.21ZM32.22,32.81l2.14,1.31a2.61,2.61,0,0,1,0,4.34l-2.14,1.31Zm27.69,6.33L36.64,53.36a2.69,2.69,0,0,1-2.79.06,3.26,3.26,0,0,1-1.63-2.91V44.45l4.22-2.58a6.61,6.61,0,0,0,0-11.16l-4.22-2.58V22.07a3.26,3.26,0,0,1,1.63-2.91,2.76,2.76,0,0,1,1.35-.36,2.73,2.73,0,0,1,1.44.42L59.91,33.44a3.29,3.29,0,0,1,1.53,2.86A3.26,3.26,0,0,1,59.91,39.14Z" fill="gray"/></svg>