<svg xmlns="http://www.w3.org/2000/svg" viewBox="0 0 72 72"><title>m_045_control_rewind_thick</title><path d="M45.37,57.78a6.76,6.76,0,0,1-3.53-1L18.57,42.55a7.43,7.43,0,0,1,0-12.54L41.84,15.79a6.71,6.71,0,0,1,6.84-.13,7.29,7.29,0,0,1,3.67,6.4V50.5a7.31,7.31,0,0,1-3.67,6.4A6.7,6.7,0,0,1,45.37,57.78Zm0-39a2.73,2.73,0,0,0-1.44.42L20.66,33.43a3.44,3.44,0,0,0,0,5.72L43.93,53.37a2.69,2.69,0,0,0,2.79.06,3.26,3.26,0,0,0,1.63-2.91V22.08a3.26,3.26,0,0,0-1.63-2.91A2.58,2.58,0,0,0,45.37,18.79Z" fill="gray"/></svg>