<svg xmlns="http://www.w3.org/2000/svg" viewBox="0 0 72 72"><title>m_046_control_fast_forward_thin</title><path d="M62.23,30.41,39,16.12A6.19,6.19,0,0,0,32.63,16a6.81,6.81,0,0,0-3.42,6v4.53L16.91,19a5.48,5.48,0,0,0-5.61-.11,6,6,0,0,0-3,5.27V48.34a6,6,0,0,0,3,5.27,5.45,5.45,0,0,0,5.6-.11L29.21,46v4.47a6.81,6.81,0,0,0,3.42,6A6.29,6.29,0,0,0,39,56.32L62.23,42.1a6.93,6.93,0,0,0,0-11.69ZM15.34,51a2.49,2.49,0,0,1-2.58,0,3,3,0,0,1-1.48-2.66V24.16a3,3,0,0,1,1.49-2.65,2.49,2.49,0,0,1,2.56,0L29.21,30V42.46ZM32.21,31.88l2.9,1.77a3.12,3.12,0,0,1,0,5.2l-2.9,1.77Zm28.45,7.65L37.39,53.75a3.19,3.19,0,0,1-3.3.07,3.76,3.76,0,0,1-1.88-3.35V44.14l4.46-2.73a6.11,6.11,0,0,0,0-10.32l-4.46-2.73V22a3.76,3.76,0,0,1,1.89-3.32,3.16,3.16,0,0,1,3.3.07L60.66,33a3.93,3.93,0,0,1,0,6.57Z" fill="gray"/></svg>