<svg xmlns="http://www.w3.org/2000/svg" viewBox="0 0 72 72"><title>m_101_help_thin</title><path d="M35.44,63.84A28.32,28.32,0,1,1,63.71,35.47v0A28.35,28.35,0,0,1,35.44,63.84Zm0-53.64A25.32,25.32,0,1,0,60.71,35.57v0A25.35,25.35,0,0,0,35.44,10.2Z" fill="gray"/><path d="M33.14,44.19,33,42.79c-.32-2.92.65-6.1,3.35-9.34,2.43-2.86,3.78-5,3.78-7.4,0-2.75-1.73-4.59-5.13-4.64a9.6,9.6,0,0,0-5.45,1.67l-1.3-3.4A14.16,14.16,0,0,1,36,17.52c6.21,0,9,3.83,9,7.94,0,3.67-2,6.32-4.64,9.4C38,37.67,37.12,40,37.28,42.8l0,1.4ZM32,51.75a3.19,3.19,0,0,1,3-3.39h.27A3.38,3.38,0,1,1,32,51.87S32,51.79,32,51.75Z" fill="gray"/></svg>