<svg xmlns="http://www.w3.org/2000/svg" viewBox="0 0 72 72"><title>m_101_help_thick</title><path d="M36,64.72A28.82,28.82,0,1,1,64.87,35.9,28.82,28.82,0,0,1,36,64.72Zm0-53.64A24.82,24.82,0,1,0,60.87,35.9h0A24.85,24.85,0,0,0,36,11.08Z" fill="gray"/><path d="M33.8,44.52l-.11-1.4c-.32-2.86.65-6.1,3.35-9.29,2.43-2.92,3.78-5,3.78-7.45,0-2.75-1.73-4.59-5.13-4.64a9.6,9.6,0,0,0-5.45,1.67L28.94,20a14.3,14.3,0,0,1,7.72-2.16c6.21,0,9,3.83,9,7.94,0,3.67-2,6.37-4.64,9.4-2.38,2.81-3.24,5.24-3.08,8L38,44.52Zm1.94,11a3.15,3.15,0,0,1-3.14-3.16q0-.09,0-.19a3.19,3.19,0,0,1,3-3.39h.27a3.38,3.38,0,0,1,0,6.75Z" fill="gray"/></svg>