<?xml version="1.0" encoding="UTF-8"?>
<svg xmlns="http://www.w3.org/2000/svg" width="72" height="72" viewBox="0 0 72 72">
  <g id="SVG_icons" data-name="SVG icons">
    <path d="M63.71,41.25l-9.02-15.46c.48-.25.81-.75.81-1.32,0-.83-.67-1.5-1.5-1.5-1.86,0-3.33-.99-5.19-2.24-2.51-1.69-5.57-3.74-10.73-4.17v-5.85c0-1.1-.9-2-2-2s-2,.9-2,2v5.85c-5.16.43-8.22,2.48-10.73,4.17-1.86,1.25-3.33,2.24-5.19,2.24-.83,0-1.5.67-1.5,1.5,0,.58.33,1.07.81,1.32l-9.02,15.46c-.28.49-.26,1.07.01,1.52.25.66.88,1.12,1.63,1.12h17.97c.56,0,1.05-.27,1.37-.68.62-.45.81-1.29.42-1.96l-9.15-15.69c1.57-.5,2.92-1.4,4.32-2.34,2.27-1.53,4.81-3.24,9.06-3.65v39.11h-8.97c-1.1,0-2,.9-2,2s.9,2,2,2h22c1.1,0,2-.9,2-2s-.9-2-2-2h-9.03V19.56c4.24.41,6.78,2.12,9.06,3.65,1.4.94,2.76,1.84,4.32,2.34l-9.15,15.69c-.39.67-.2,1.52.42,1.96.32.41.81.68,1.37.68h17.97c.75,0,1.38-.47,1.63-1.12.27-.45.3-1.03.01-1.52ZM12.43,40.39l6.73-11.54,6.73,11.54h-13.46ZM59.74,40.39h-13.46l6.73-11.54,6.73,11.54Z"/>
  </g>
  <g id="Rectangles">
    <rect x=".36" y=".36" width="71.28" height="71.28" fill="none"/>
  </g>
</svg>