<?xml version="1.0" encoding="UTF-8"?>
<svg xmlns="http://www.w3.org/2000/svg" viewBox="0 0 72 72">
    <path d="M62.92,27.36c-.28,0-.5-.22-.5-.5v-10.66c0-3.77-3.07-6.84-6.84-6.84h-10.76c-.28,0-.5-.22-.5-.5s.22-.5,.5-.5h10.76c4.33,0,7.84,3.52,7.84,7.84v10.66c0,.28-.22,.5-.5,.5Z" />
    <path d="M55.53,63.41h-10.66c-.28,0-.5-.22-.5-.5s.22-.5,.5-.5h10.66c3.77,0,6.84-3.07,6.84-6.84v-10.76c0-.28,.22-.5,.5-.5s.5,.22,.5,.5v10.76c0,4.33-3.52,7.84-7.84,7.84Z" />
    <path d="M8.72,27.36c-.28,0-.5-.22-.5-.5v-10.66c0-4.33,3.52-7.84,7.84-7.84h10.76c.28,0,.5,.22,.5,.5s-.22,.5-.5,.5h-10.76c-3.77,0-6.84,3.07-6.84,6.84v10.66c0,.28-.22,.5-.5,.5Z" />
    <path d="M26.77,63.41h-10.66c-4.33,0-7.84-3.52-7.84-7.84v-10.76c0-.28,.22-.5,.5-.5s.5,.22,.5,.5v10.76c0,3.77,3.07,6.84,6.84,6.84h10.66c.28,0,.5,.22,.5,.5s-.22,.5-.5,.5Z" />
    <path d="M28.51,28.63H13.77V13.89h14.75v14.74Zm-12.65-2.1h10.55V15.99H15.87v10.55Z" />
    <rect x="18.43" y="18.55" width="5.06" height="5.06" />
      <rect x="38.32" y="13.71" width="2.73" height="2.73" />
      <path d="M21.42,33.37h-4.91v-2.41h-2.73v10.13h5.14v-2.5h2.11v2.5h2.73v-2.73h-2.34v-5Zm-4.91,5v-2.27h2.18v2.27h-2.18Z" />
      <path d="M58.33,36.19v-2.73h-4.95v-2.5h-2.73v2.5h-2.11v-2.5h-2.73v2.5h-2.5v2.53h-2.35v-5.03h-7.5v-2.27h2.5v-2.5h4.94v-2.25h.06v-2.73h-2.5v-2.5h-2.5v-2.5h-2.5v-2.5h-2.73v2.73h2.5v2.27h-2.5v2.73h2.5v2.02h-2.5v2.73h2.5v2.27h-2.5v2.5h-2.34v2.41h-2.14v-2.41h-2.73v2.73h2.37v2.41h2.5v2.27h-2.5v2.73h2.73v-2.5h2.11v2.5h2.5v2.23h-2.5v2.73h2.5v7.02h-2.5v2.73h2.5v2.5h2.73v-7.25h2.27v2.5h2.65v2.5h5.14v-2.5h2.11v2.5h2.73v-2.5h2.14v2.5h2.5v2.5h2.73v-2.73h-2.5v-2.22h2.5v-10.01s0-2.73,0-2.73h-4.85v-2.41h-4.84v-2.27h9.79Zm-14.73,17.14h-2.65v-2.27h4.83v2.27h-2.18Zm2.21-17.14v2.27h-2.35v-2.27h2.35Zm-14.69-.09h2.11v2.27h-2.11v-2.27Zm2.11-2.73h-2.11v-2.18h2.11v2.18Zm2.73,14.96v-4.71h2.36v2.44h2.56v4.77h-2.42v-2.5h-2.5Zm12.55,5v-5h-4.91v-2.41h-2.56v-2.6h-2.59v-2.44l-5-.02v-2.27h2.5v-4.89h2.27v5.02h5.08v2.47h2.5v2.41h2.73v-2.41h2.11v2.41h4.84v4.73h-2.14v-2.41h-2.73v2.73h2.36v2.18h-2.36v2.5h-2.11Zm4.84,0v-2.27h2.14v2.27h-2.14Zm-15.12-29.86h-2.27v-2.02h2.27v2.02Zm-4.77-4.52h2.27v2.27h-2.27v-2.27Z" />
    <path d="M58.23,28.63h-14.74V13.89h14.74v14.74Zm-12.65-2.1h10.55V15.99h-10.55v10.55Z" />
    <rect x="48.15" y="18.55" width="5.06" height="5.06" />
    <path d="M28.51,58.13H13.77v-14.74h14.75v14.74Zm-12.65-2.1h10.55v-10.55H15.87v10.55Z" />
    <rect x="18.43" y="48.05" width="5.06" height="5.06" />
    <rect x=".36" y=".36" width="71.28" height="71.28" fill="none"/>
</svg>