<svg xmlns="http://www.w3.org/2000/svg" viewBox="0 0 72 72"><title>1-icons_special</title><path d="M63.08,58.1H42.58a2,2,0,0,1,0-4h18.5V17.92H42.58a2,2,0,0,1,0-4h20.5a2,2,0,0,1,2,2V56.1A2,2,0,0,1,63.08,58.1Z" fill="gray"/><path d="M27.75,62.11a2,2,0,0,1-2-2v-13H9a2,2,0,0,1-2-2V27a2,2,0,0,1,2-2h16.8V11.6a2,2,0,0,1,3.41-1.41L53.42,34.44a2,2,0,0,1,0,2.83L29.17,61.53A2,2,0,0,1,27.75,62.11ZM11,43.15h16.8a2,2,0,0,1,2,2V55.28L49.18,35.85,29.75,16.42V27a2,2,0,0,1-2,2H11Z" fill="gray"/><rect x="0.36" y="0.36" width="71.28" height="71.28" fill="none"/></svg>