<svg xmlns="http://www.w3.org/2000/svg" viewBox="0 0 72 72"><title>1-icons_special</title><path d="M46.5,63.71H25.38v-3H34.5V55.83H9.07a1.5,1.5,0,0,1-1.5-1.5V10.7a1.5,1.5,0,0,1,1.5-1.5h54a1.5,1.5,0,0,1,1.5,1.5V54.33a1.5,1.5,0,0,1-1.5,1.5H37.5v4.88h9ZM36,52.83H61.57V12.2h-51V52.83Z" fill="gray"/><path d="M58.8,42.57a.71.71,0,1,0,.72.71A.72.72,0,0,0,58.8,42.57Zm0,1.28a.57.57,0,1,1,.58-.57A.57.57,0,0,1,58.79,43.85Z" fill="gray"/><path d="M27.71,38.49,24.43,38c-.56-.09-.85-.37-.85-.82a.73.73,0,0,1,.72-.72h5.32v-2H24.31A2.76,2.76,0,0,0,23.93,40l3.28.48c.57.09.85.37.85.83a.72.72,0,0,1-.72.72H23.45a1.69,1.69,0,0,0-1.62,1.81V44h5.49a2.76,2.76,0,0,0,.38-5.51Z" fill="gray"/><path d="M48.95,37.19v4.1A2.75,2.75,0,0,0,51.79,44h5.75v-.18A1.69,1.69,0,0,0,55.93,42H51.78a.73.73,0,0,1-.72-.72.79.79,0,0,1,.85-.83h1.8a2.73,2.73,0,0,0,2.78-2.09H52.16a1.28,1.28,0,0,0-1.11.62V37.19a.73.73,0,0,1,.72-.72h4.15a1.69,1.69,0,0,0,1.62-1.81v-.17H51.79A2.75,2.75,0,0,0,48.95,37.19Z" fill="gray"/><path d="M59.11,43.15c0-.14-.1-.22-.27-.22h-.3v.68h.15v-.22h.12l.15.22h.18L59,43.36A.21.21,0,0,0,59.11,43.15Zm-.27.11h-.15v-.2h.15c.07,0,.12,0,.12.1S58.91,43.26,58.83,43.26Z" fill="gray"/><path d="M45.94,38.49,42.66,38c-.56-.09-.85-.37-.85-.82a.73.73,0,0,1,.72-.72h5.32v-2h-5.3A2.76,2.76,0,0,0,42.16,40l3.28.48c.57.09.85.37.85.83a.72.72,0,0,1-.72.72H40.25v2h5.3a2.76,2.76,0,0,0,.38-5.51Z" fill="gray"/><path d="M37,40.14a2.14,2.14,0,1,1-4.28,0V34.48H30.69V40a4.2,4.2,0,1,0,8.4,0V34.48H37Z" fill="gray"/><path d="M37.08,27.41a1.09,1.09,0,1,0,.07-2.17,1.08,1.08,0,0,0-1.12,1A1.09,1.09,0,0,0,37.08,27.41Zm.25-1.63c.27,0,.48.14.48.32s-.22.32-.48.32-.48-.15-.48-.32S37.06,25.79,37.33,25.79Z" fill="gray"/><path d="M39.71,27.82s.18-.12.15-.24a9.26,9.26,0,0,0-1-2.54,1.67,1.67,0,0,0-.4-.35,20.49,20.49,0,0,0-5.35-1.46,0,0,0,0,0,0,0s0,.76,0,.84A22.62,22.62,0,0,0,27.43,23,14.6,14.6,0,0,0,18.2,25.4l-.12.08a9.56,9.56,0,0,0-4,4.46,5.2,5.2,0,0,0-.22,3,4.57,4.57,0,0,0,.68,1.48,4.44,4.44,0,0,0,3.23,1.84A3.3,3.3,0,0,0,21.49,34a3,3,0,0,0-1.3-3.43,2.72,2.72,0,0,0-2.87-.06,1.92,1.92,0,0,0-.89,1.62,1.79,1.79,0,0,0,1.72,1.77,2.07,2.07,0,0,0,.65-.11,1,1,0,0,0,.25-.11l0,0h0a.58.58,0,0,0-.43-1.06h0l-.05,0-.08,0a1.35,1.35,0,0,1-.31,0,.58.58,0,0,1-.5-.58h0a.69.69,0,0,1,.11-.34,1,1,0,0,1,1-.35,1.59,1.59,0,0,1,1.36,1,1.67,1.67,0,0,1-.18,1.75,2.09,2.09,0,0,1-2,.61,2.78,2.78,0,0,1-2.2-4,3.26,3.26,0,0,1,3.66-1.58,5.69,5.69,0,0,1,4.24,4.32h1.9c-.24-.72-.37-2.83,1.77-2.83,2.35,0,2.64,1.65,3.31,2.83h2a3.41,3.41,0,0,1-.78-2.31c.17-1,1-1,2.16-.82.38,0,.81.09,1.25.1a8,8,0,0,0,3.18-.58,4.22,4.22,0,0,0,1.08-.58.63.63,0,0,0,.16-.28l0-.07c0-.09.08-.28.11-.38s-.13-.1-.13-.1a4.83,4.83,0,0,1-2.11.64A10.49,10.49,0,0,1,34.17,28l0,0-.44-1a8.91,8.91,0,0,0,3.74,1.64A3.44,3.44,0,0,0,39.71,27.82Zm-4.16-1.53a1.56,1.56,0,1,1,1.5,1.61A1.56,1.56,0,0,1,35.55,26.29Z" fill="gray"/><rect x="0.36" y="0.36" width="71.28" height="71.28" fill="none"/></svg>