<?xml version="1.0" encoding="utf-8"?>
<!-- Generator: Adobe Illustrator 25.4.4, SVG Export Plug-In . SVG Version: 6.00 Build 0)  -->
<svg version="1.1" id="Layer_1" xmlns="http://www.w3.org/2000/svg" xmlns:xlink="http://www.w3.org/1999/xlink" x="0px" y="0px"
	 viewBox="0 0 72 72" style="enable-background:new 0 0 72 72;" xml:space="preserve">
<style type="text/css">
	.st0{fill:#808080;}
</style>
<path class="st0" d="M62.2,60.8L45.2,43c7-8,6.2-20.1-1.8-27.1s-20.1-6.2-27.1,1.8s-6.2,20.1,1.8,27.1c7.1,6.2,17.7,6.3,24.9,0.3
	l17,17.7L62.2,60.8z M14.2,30.3c0-9.1,7.4-16.5,16.5-16.5s16.5,7.4,16.5,16.5s-7.4,16.5-16.5,16.5C21.6,46.8,14.2,39.5,14.2,30.3
	C14.2,30.3,14.1,30.3,14.2,30.3L14.2,30.3z"/>
</svg>
