<svg xmlns="http://www.w3.org/2000/svg" viewBox="0 0 72 72"><title>m_040_comment_user_thin</title><path d="M28.07,67.52a1.5,1.5,0,0,1-1.5-1.5V56.43H12.22a5.15,5.15,0,0,1-5.16-5.14s0-.08,0-.12V12.83a5.15,5.15,0,0,1,5-5.26H59.42a5.24,5.24,0,0,1,5.21,5.26V51.17a5.24,5.24,0,0,1-5.21,5.26H43.34L29,67.22A1.5,1.5,0,0,1,28.07,67.52ZM12.22,10.58a2.18,2.18,0,0,0-2.16,2.2V51.17a2.18,2.18,0,0,0,2.1,2.26H28c1.5,0,1.51,1,1.51,3.23V63l12.37-9.29a1.5,1.5,0,0,1,.9-.3H59.42a2.21,2.21,0,0,0,2.21-2.21s0,0,0-.05V12.83a2.21,2.21,0,0,0-2.16-2.26H12.22Z" fill="gray"/><path d="M49.17,45.62H22.79a.5.5,0,0,1-.5-.5h0c0-.86.14-5.18.21-5.62v-.11a2.24,2.24,0,0,1,1.25-1.86,26.3,26.3,0,0,1,4.73-1.88,12.48,12.48,0,0,0,2.81-1.11,7.32,7.32,0,0,0,.7-2.91.66.66,0,0,0-.24-.33A2.25,2.25,0,0,1,31,29.75l-.13-.12a2.54,2.54,0,0,1-.51-.53,4,4,0,0,1-.77-2.15,2.94,2.94,0,0,1,.09-.8,2.78,2.78,0,0,0,.08-.78V25.2a12.79,12.79,0,0,1,.54-3.8,4.79,4.79,0,0,1,1.86-2.61,1.64,1.64,0,0,1,1.25-.3,7.84,7.84,0,0,0,2.72-.28,5.78,5.78,0,0,1,4.4,1.34,3.7,3.7,0,0,1,1.63,2.59,10.65,10.65,0,0,0,.2,2.43c0,.18.08.38.12.67a1.35,1.35,0,0,0,.12.43,2,2,0,0,1,.18,1A5.17,5.17,0,0,1,42,29.06a3.71,3.71,0,0,0-.46,1.07,1.91,1.91,0,0,1-.91,1.51c-.17.12-.17.12-.17.17a7.34,7.34,0,0,0,.68,2.66h0A13.47,13.47,0,0,0,44,35.71a32.63,32.63,0,0,1,4.23,1.81,2.36,2.36,0,0,1,1.27,1.93c.07.49.19,4.8.22,5.66a.5.5,0,0,1-.49.51Z" fill="gray"/></svg>