<?xml version="1.0" encoding="UTF-8"?>
<svg xmlns="http://www.w3.org/2000/svg" viewBox="0 0 72 72">
  <path d="M28.07,67.52c-.83,0-1.5-.67-1.5-1.5v-9.59h-14.35c-2.84,0-5.15-2.3-5.16-5.14h0V12.83c-.06-2.83,2.17-5.18,5-5.26h47.36c2.89.02,5.22,2.37,5.21,5.26v38.34c.01,2.89-2.32,5.24-5.21,5.26h-16.08l-14.34,10.79c-.27.2-.6.31-.93.3ZM12.22,10.58c-1.2.01-2.17,1-2.16,2.2,0,0,0,0,0,0v38.39c-.04,1.2.89,2.21,2.1,2.26,0,0,0,0,0,0h15.84c1.5,0,1.51,1,1.51,3.23v6.34l12.37-9.29c.26-.19.58-.3.9-.3h16.64c1.22,0,2.21-.99,2.21-2.21V12.83c.03-1.22-.94-2.23-2.16-2.26,0,0,0,0,0,0H12.22Z"/>
  <path d="M49.06,39.19c-.09-.51-.25-1.59-1.52-2.3-1.28-.69-2.46-1.24-3.51-1.7-1.13-.51-2.11-.96-2.66-1.36-.25-.43-.6-1.98-.58-2.39.02-.11.18-.64,1.42-2.48l.09-.14c.34-.5.87-1.7.87-2.75,0-.41-.09-.83-.21-1.38-.18-.81-.39-1.82-.43-3.24-.02-1.01-.67-2.07-1.84-2.99s-3.14-1.84-4.87-1.45c-1.68.37-2.3.32-2.66.28-.51-.05-.89-.05-1.56.37-.94.6-1.82,1.84-2.11,2.94-.57,2.32-.57,3.06-.57,4v.18c0,.43-.04.55-.07.69-.05.23-.11.46-.11.92,0,1.03.5,1.9.87,2.44.07.09.19.25.34.46.28.39,1.19,1.59,1.28,1.93.05.53-.35,2.23-.62,2.66-.51.37-1.38.74-2.37,1.19-1.06.46-2.37,1.05-3.76,1.82-1.29.73-1.43,1.74-1.51,2.23v.11c-.09.46-.19,4-.23,5.07,0,.25.09.51.27.69s.43.28.67.28h24.66c.25,0,.5-.11.67-.28s.27-.43.27-.69c-.04-1.08-.16-4.61-.23-5.12l.02.02ZM24.63,43.4h.02c.07-1.86.14-3.65.18-3.88v-.12c.07-.35.11-.57.58-.85,1.29-.73,2.5-1.26,3.58-1.74,1.2-.53,2.16-.94,2.83-1.45.9-.69,1.36-3.53,1.29-4.27-.05-.67-.62-1.54-1.65-2.91-.12-.16-.23-.3-.28-.37-.27-.39-.55-.89-.55-1.4,0-.27.02-.35.05-.5.05-.27.11-.53.11-1.13v-.18c0-.87,0-1.45.51-3.54.16-.64.73-1.47,1.28-1.81.12-.09.19-.11.19-.11h.19c.48.05,1.29.12,3.26-.32.87-.19,2.23.25,3.31,1.1.78.6,1.13,1.22,1.13,1.54.04,1.61.28,2.76.48,3.61.09.41.18.78.18.97,0,.58-.37,1.42-.55,1.72l-.09.12c-1.22,1.81-1.7,2.76-1.74,3.42-.04.5.35,3.26,1.28,3.99.71.55,1.74,1.01,3.05,1.59,1.01.46,2.18.99,3.38,1.65.46.25.5.53.57.97.04.25.11,2.04.18,3.88h-22.78Z"/>
</svg>