<svg xmlns="http://www.w3.org/2000/svg" viewBox="0 0 72 72"><title>m_047_control_fast_rewind_thin</title><path d="M61.11,18.89A5.49,5.49,0,0,0,55.5,19L43.42,26.38V22.06a6.81,6.81,0,0,0-3.42-6,6.19,6.19,0,0,0-6.31.13L10.42,30.4a6.93,6.93,0,0,0,0,11.69L33.73,56.32a6.19,6.19,0,0,0,6.27.15,6.81,6.81,0,0,0,3.42-6V46.12L55.5,53.5a5.47,5.47,0,0,0,5.61.11,6,6,0,0,0,3-5.27V24.16A6,6,0,0,0,61.11,18.89ZM40.43,50.48a3.76,3.76,0,0,1-1.88,3.35,3.18,3.18,0,0,1-3.3-.07L12,39.57A3.93,3.93,0,0,1,12,33L35.29,18.74a3.22,3.22,0,0,1,3.26-.09A3.76,3.76,0,0,1,40.43,22v6.21l-4.71,2.88a6.11,6.11,0,0,0,0,10.32l4.71,2.88Zm0-18.75v9l-3.14-1.92a3.11,3.11,0,0,1,0-5.2ZM61.14,48.34A3,3,0,0,1,59.65,51a2.49,2.49,0,0,1-2.58,0L43.42,42.6V29.91l13.65-8.34a2.5,2.5,0,0,1,2.58-.06,3,3,0,0,1,1.49,2.65Z" fill="gray"/></svg>