<svg xmlns="http://www.w3.org/2000/svg" viewBox="0 0 72 72"><title>m_044_control_play_thick</title><path d="M27.47,57.78a6.73,6.73,0,0,1-3.31-.88,7.31,7.31,0,0,1-3.67-6.4V22.06a7.31,7.31,0,0,1,3.67-6.4,6.71,6.71,0,0,1,6.84.13L54.27,30a7.42,7.42,0,0,1,0,12.54L31,56.77A6.67,6.67,0,0,1,27.47,57.78Zm0-39a2.76,2.76,0,0,0-1.35.36,3.26,3.26,0,0,0-1.63,2.91V50.5a3.26,3.26,0,0,0,1.63,2.91,2.69,2.69,0,0,0,2.79-.06L52.18,39.13a3.44,3.44,0,0,0,0-5.72L28.91,19.19A2.9,2.9,0,0,0,27.47,18.79Z" fill="gray"/></svg>