<svg xmlns="http://www.w3.org/2000/svg" viewBox="0 0 72 72"><title>m_047_control_fast_rewind_thick</title><path d="M61.58,18.49a6,6,0,0,0-6.11.12l-11.3,6.91V22.06a7.31,7.31,0,0,0-3.67-6.4,6.71,6.71,0,0,0-6.84.13L10.39,30a7.43,7.43,0,0,0,0,12.54L33.66,56.77a6.67,6.67,0,0,0,6.84.13,7.31,7.31,0,0,0,3.67-6.4V47l11.3,6.91a6,6,0,0,0,6.12.12,6.51,6.51,0,0,0,3.27-5.7V24.19A6.52,6.52,0,0,0,61.58,18.49Zm-21.41,32a3.26,3.26,0,0,1-1.63,2.91,2.69,2.69,0,0,1-2.79-.06L12.48,39.14a3.44,3.44,0,0,1,0-5.72L35.75,19.2a2.69,2.69,0,0,1,2.79-.06,3.26,3.26,0,0,1,1.63,2.91V28L35.7,30.68a6.61,6.61,0,0,0,0,11.16l4.47,2.73Zm0-17.86v7.26l-2.39-1.46a2.61,2.61,0,0,1,0-4.34ZM60.86,48.37a2.48,2.48,0,0,1-1.23,2.21,2,2,0,0,1-2.07,0L44.17,42.36V30.21L57.56,22a2,2,0,0,1,2.07,0,2.48,2.48,0,0,1,1.23,2.21Z" fill="gray"/></svg>