<svg xmlns="http://www.w3.org/2000/svg" viewBox="0 0 72 72"><title>m_049_control_goto_start_thick</title><path d="M55.13,57.78a6.76,6.76,0,0,1-3.53-1L28.33,42.55a7.42,7.42,0,0,1,0-12.54L51.6,15.79a6.71,6.71,0,0,1,6.84-.13,7.29,7.29,0,0,1,3.67,6.4V50.5a7.31,7.31,0,0,1-3.67,6.4A6.73,6.73,0,0,1,55.13,57.78Zm-1.45-4.42a2.69,2.69,0,0,0,2.79.06,3.26,3.26,0,0,0,1.63-2.91V22.07a3.26,3.26,0,0,0-1.63-2.91,2.69,2.69,0,0,0-2.79.06L30.41,33.44a3.44,3.44,0,0,0,0,5.72Z" fill="gray"/><path d="M19.31,56H12.06a2,2,0,0,1-2-2V18a2,2,0,0,1,2-2h7.25a2,2,0,0,1,2,2V54A2,2,0,0,1,19.31,56Zm-5.25-4h3.25V20H14.06Z" fill="gray"/></svg>