<?xml version="1.0" encoding="UTF-8"?>
<svg xmlns="http://www.w3.org/2000/svg" viewBox="0 0 72 72">
    <rect x="25.73" y="24.04" width="13.52" height="3" stroke-width="0"/>
    <rect x="25.73" y="31.62" width="17.31" height="3" stroke-width="0"/>
    <rect x="25.73" y="39.27" width="28.03" height="3" stroke-width="0"/>
    <path d="m50.91,16.45h-25.3v3h25.3v-3Z" stroke-width="0"/>
    <path d="m58.33,61.54c0,.83.67,1.5,1.5,1.5s1.5-.67,1.5-1.5V10.96c0-1.93-1.57-3.5-3.5-3.5H14.12c-1.93,0-3.5,1.57-3.5,3.5v50.58c0,.83.67,1.5,1.5,1.5s1.5-.67,1.5-1.5V10.96c0-.28.22-.5.5-.5h43.71c.28,0,.5.22.5.5v50.58Z" stroke-width="0"/>
    <rect x="25.73" y="46.8" width="20.94" height="3" stroke-width="0"/>
    <path d="m18.12,20.8c-.28,0-.5-.23-.49-.51,0-.13.05-.25.14-.34l2.23-2.23-2.23-2.23c-.2-.2-.2-.51,0-.71.2-.2.51-.2.71,0h0l2.59,2.59c.2.19.2.51,0,.71,0,0,0,0,0,0l-2.59,2.59c-.1.09-.23.14-.36.13Z" stroke-width="0"/>
    <path d="m18.12,28.47c-.28,0-.5-.23-.49-.51,0-.13.05-.25.14-.34l2.23-2.23-2.23-2.23c-.2-.2-.2-.51,0-.71s.51-.2.71,0h0l2.59,2.59c.2.19.2.51,0,.71,0,0,0,0,0,0l-2.6,2.54c-.09.11-.21.17-.35.18Z" stroke-width="0"/>
    <path d="m18.12,36.15c-.28,0-.51-.21-.51-.49,0-.14.05-.28.15-.37l2.23-2.23-2.23-2.23c-.2-.2-.2-.51,0-.71s.51-.2.71,0l2.59,2.59c.2.19.2.51,0,.71,0,0,0,0,0,0l-2.59,2.59c-.09.09-.22.14-.35.14Z" stroke-width="0"/>
    <path d="m18.12,43.82c-.28,0-.5-.23-.49-.51,0-.13.05-.25.14-.34l2.23-2.23-2.23-2.23c-.2-.2-.2-.51,0-.71s.51-.2.71,0l2.59,2.59c.2.19.2.51,0,.71,0,0,0,0,0,0l-2.59,2.59c-.1.09-.23.14-.36.13Z" stroke-width="0"/>
    <path d="m18.12,51.5c-.28,0-.5-.23-.49-.51,0-.13.05-.25.14-.34l2.23-2.23-2.23-2.23c-.2-.2-.2-.51,0-.71s.51-.2.71,0l2.59,2.59c.2.19.2.51,0,.71,0,0,0,0,0,0l-2.59,2.59c-.1.09-.23.14-.36.13Z" stroke-width="0"/>
    <rect x="25.73" y="54.3" width="10.25" height="3" stroke-width="0"/>
    <path d="m18.12,59c-.28,0-.5-.23-.49-.51,0-.13.05-.25.14-.34l2.23-2.23-2.23-2.23c-.2-.2-.2-.51,0-.71s.51-.2.71,0l2.59,2.59c.2.19.2.51,0,.71,0,0,0,0,0,0l-2.59,2.59c-.1.09-.23.14-.36.13Z" stroke-width="0"/>
    <rect x=".5" y=".36" width="71.28" height="71.28" fill="none" stroke-width="0"/>
</svg>