<?xml version="1.0" encoding="UTF-8"?>
<svg id="Layer_1" xmlns="http://www.w3.org/2000/svg" version="1.1" viewBox="0 0 72 72">
  <!-- Generator: Adobe Illustrator 29.0.1, SVG Export Plug-In . SVG Version: 2.1.0 Build 192)  -->
  <rect x="27.5" y="24.7" width="3" height="28.2"/>
  <rect x="41.6" y="24.7" width="3" height="28.2"/>
  <path d="M60.8,13.1h-14.3v-5.2c0-.8-.7-1.5-1.5-1.5h-18c-.8,0-1.5.7-1.5,1.5v5.2h-14.2v3.9h2.7l2,44.9v.2c0,1.1.9,2,2,2h36.3c1.1,0,2-1,1.9-2.1,0,0,0,0,0,0l2-45h2.5v-3.9ZM28.5,9.4h15v3.7h-15v-3.7ZM52.4,60.2H19.7l-2-43.3h36.7l-2,43.3Z"/>
</svg>