<svg xmlns="http://www.w3.org/2000/svg" viewBox="0 0 72 72"><title>m_069_delete_thin</title><rect x="25.52" y="23.66" width="3" height="32.24" fill="gray"/><rect x="34.45" y="23.66" width="3" height="32.24" fill="gray"/><rect x="43.6" y="23.66" width="3" height="32.24" fill="gray"/><path d="M60.77,14.07H46.5V8.88A1.5,1.5,0,0,0,45,7.38H27a1.5,1.5,0,0,0-1.49,1.5v5.19H11.28v3.85H14V62.85q0,.08,0,.16a2,2,0,0,0,2,2H56.34a2,2,0,0,0,1.92-2.08v-45h2.51Zm-32.26-3.7h15v3.7h-15Zm25.9,50.81H17.7V17.92H54.41Z" fill="gray"/></svg>