<?xml version="1.0" encoding="UTF-8"?>
<svg id="Layer_1" data-name="Layer 1" xmlns="http://www.w3.org/2000/svg" width="72" height="72" viewBox="0 0 72 72">
  <rect x="24.48" y="16.63" width="18.15" height="3"/>
  <rect x="24.6" y="24.15" width="18.02" height="3"/>
  <path d="M61.51,56.7l-4.85-10.86c3.24-3.9,2.7-9.69-1.2-12.93-.71-.59-1.48-1.05-2.29-1.39V11.13c0-1.93-1.57-3.5-3.5-3.5H17.49c-1.93,0-3.5,1.57-3.5,3.5v49.79c0,1.93,1.57,3.5,3.5,3.5h24.47c.83,0,1.5-.67,1.5-1.5s-.67-1.5-1.5-1.5h-24.47c-.28,0-.5-.22-.5-.5V11.13c0-.28.22-.5.5-.5h32.16c.28,0,.5.22.5.5v19.68c-2.82-.17-5.69.95-7.63,3.29-2.74,3.31-2.83,8.07-.21,11.47l-4.98,11.11c-.1.21-.05.46.12.62.18.16.44.19.65.08l4.28-2.36,1.03,4.74c.04.26.27.46.54.45.21,0,.4-.12.49-.32l4.81-10.73h.33l4.77,10.71c.1.23.34.37.59.33.24-.02.43-.2.48-.43l1.09-4.77,4.21,2.45c.21.13.47.1.65-.07.21-.17.27-.47.14-.7ZM49.58,47.12c-3.93,0-7.12-3.19-7.12-7.12,0-3.93,3.19-7.11,7.12-7.12,3.93,0,7.12,3.19,7.12,7.12s-3.19,7.12-7.12,7.12Z"/>
</svg>