<svg xmlns="http://www.w3.org/2000/svg" viewBox="0 0 72 72"><title>m_069_delete_thick</title><path d="M60.07,14.12h-13V8.92a2,2,0,0,0-2-2h-18a2,2,0,0,0-2,2v5.2H11.93v4h4v45a2,2,0,0,0,2,2H54.07a2,2,0,0,0,2-2v-45h4Zm-31-3.2h14v3.2h-14Zm23,50.16H19.9v-43H52.07Z" fill="gray"/><rect x="25.08" y="23.7" width="4" height="32.24" fill="gray"/><rect x="34" y="23.7" width="4" height="32.24" fill="gray"/><rect x="43.15" y="23.7" width="4" height="32.24" fill="gray"/><rect x="0.36" y="0.36" width="71.28" height="71.28" fill="none"/></svg>