<svg xmlns="http://www.w3.org/2000/svg" viewBox="0 0 72 72"><title>m_070_signout_thin</title><path d="M32.81,57.27H9.86a1.5,1.5,0,0,1-1.5-1.5V15.59a1.5,1.5,0,0,1,1.5-1.5H32.81a1.5,1.5,0,0,1,0,3H11.36V54.27H32.81a1.5,1.5,0,0,1,0,3Z" fill="gray"/><path d="M39.74,61.28a1.5,1.5,0,0,1-1.5-1.5V46.32H20.94a1.5,1.5,0,0,1-1.5-1.5V26.72a1.5,1.5,0,0,1,1.5-1.5h17.3v-14a1.5,1.5,0,0,1,2.56-1.06L65,34.46a1.5,1.5,0,0,1,0,2.12L40.8,60.84A1.5,1.5,0,0,1,39.74,61.28Zm-17.3-18h17.3a1.5,1.5,0,0,1,1.5,1.5V56.16L61.87,35.52,41.24,14.88V26.72a1.5,1.5,0,0,1-1.5,1.5H22.44Z" fill="gray"/></svg>