<svg xmlns="http://www.w3.org/2000/svg" viewBox="0 0 72 72">
  <title>Artboard 1</title>
  <g>
    <path d="M34.87,52.15V54H24.46a3.41,3.41,0,0,1,.23-1.34A7.09,7.09,0,0,1,26,50.57a19.92,19.92,0,0,1,2.53-2.38A21.42,21.42,0,0,0,32,44.85a4,4,0,0,0,.9-2.33,2.58,2.58,0,0,0-.9-1.94,3.34,3.34,0,0,0-4.37,0A3.17,3.17,0,0,0,26.81,43l-2-.2a4.89,4.89,0,0,1,1.54-3.39,5.24,5.24,0,0,1,3.58-1.17,5,5,0,0,1,3.59,1.26,4.13,4.13,0,0,1,1.32,3.12,4.72,4.72,0,0,1-.39,1.86,7.21,7.21,0,0,1-1.28,1.92,31.27,31.27,0,0,1-3,2.77,28,28,0,0,0-2.23,2,6.38,6.38,0,0,0-.82,1Z" fill="gray"/>
    <path d="M39.92,45.47a3.64,3.64,0,0,1-1.78-1.26,3.29,3.29,0,0,1-.58-2,3.82,3.82,0,0,1,1.24-2.89,4.58,4.58,0,0,1,3.29-1.17,4.61,4.61,0,0,1,3.32,1.2,3.88,3.88,0,0,1,1.26,2.92,3.21,3.21,0,0,1-.57,1.91,3.62,3.62,0,0,1-1.75,1.25A4.24,4.24,0,0,1,46.54,47a4.19,4.19,0,0,1,.76,2.51,4.52,4.52,0,0,1-1.43,3.39,5.19,5.19,0,0,1-3.76,1.38,5.18,5.18,0,0,1-3.76-1.38,4.59,4.59,0,0,1-1.43-3.44,4.16,4.16,0,0,1,.78-2.57A3.9,3.9,0,0,1,39.92,45.47Zm-1,4a3.49,3.49,0,0,0,.39,1.6,2.77,2.77,0,0,0,1.17,1.2,3.4,3.4,0,0,0,1.67.42,3.12,3.12,0,0,0,2.29-.89,3.05,3.05,0,0,0,.9-2.27,3.1,3.1,0,0,0-.93-2.31,3.19,3.19,0,0,0-2.33-.91,3.08,3.08,0,0,0-3.16,3Q38.92,49.39,38.92,49.47Zm.62-7.27a2.45,2.45,0,0,0,.71,1.8,2.55,2.55,0,0,0,1.87.71A2.5,2.5,0,0,0,44,44a2.33,2.33,0,0,0,.71-1.72A2.41,2.41,0,0,0,44,40.49a2.7,2.7,0,0,0-3.67,0,2.28,2.28,0,0,0-.77,1.7Z" fill="gray"/>
  </g>
  <path d="M57.79,11.48H47.33v-4a2.5,2.5,0,1,0-5,0v4h-13v-4a2.5,2.5,0,0,0-5,0v4H14a4.88,4.88,0,0,0-4.87,4.88V60.24A4.88,4.88,0,0,0,14,65.11H57.79a4.88,4.88,0,0,0,4.87-4.88V16.35A4.88,4.88,0,0,0,57.79,11.48Zm.87,48.75a.89.89,0,0,1-.87.87H14a.89.89,0,0,1-.87-.87V29H58.66Zm0-35.26H13.13V16.35a.89.89,0,0,1,.87-.87H24.34v4.28a2.5,2.5,0,0,0,5,0V15.48h13v4.27a2.5,2.5,0,0,0,5,0V15.49H57.79a.89.89,0,0,1,.87.87Z" fill="gray"/>
</svg>
