<?xml version="1.0" encoding="utf-8"?>
<!-- Generator: Adobe Illustrator 25.4.4, SVG Export Plug-In . SVG Version: 6.00 Build 0)  -->
<svg version="1.1" id="SVG_icons" xmlns="http://www.w3.org/2000/svg" xmlns:xlink="http://www.w3.org/1999/xlink" x="0px" y="0px"
	 viewBox="0 0 72 72" style="enable-background:new 0 0 72 72;" xml:space="preserve">
<style type="text/css">
	.st0{fill:#808080;}
</style>
<path class="st0" d="M59.6,13.9H12.5c-2.9,0-5.3,2.4-5.3,5.3v33.5c0,2.9,2.4,5.3,5.3,5.3h47.2c2.9,0,5.3-2.3,5.3-5.3V19.2
	C64.9,16.2,62.6,13.9,59.6,13.9z M12.5,17.9h47.2c0.7,0,1.3,0.6,1.3,1.3v1.7l-25,21.3L11.1,21.1v-1.9C11.1,18.4,11.7,17.9,12.5,17.9
	z M59.6,54H12.5c-0.7,0-1.3-0.6-1.3-1.3V26.3l23.5,20c0.4,0.3,0.8,0.5,1.3,0.5c0.5,0,1-0.2,1.3-0.5l23.7-20.2v26.6
	C60.9,53.4,60.4,54,59.6,54z"/>
</svg>
