<svg xmlns="http://www.w3.org/2000/svg" viewBox="0 0 72 72"><title>m_099_shortcut_thin</title><path d="M35.13,65.62a1.5,1.5,0,0,1-.61-.13C33.87,65.2,18.68,58.33,16,45.17c-1.52-7.54,1.42-15.47,8.73-23.61L14.22,11A1.5,1.5,0,0,1,15.3,8.46h0l39,.07A1.5,1.5,0,0,1,55.8,10V49A1.5,1.5,0,0,1,53.24,50L42.38,39.17c-1.83.82-6.17,3.21-8.09,7.94-1.81,4.47-1.08,10,2.18,16.32a1.5,1.5,0,0,1-1.33,2.18ZM18.91,11.46l9,9a1.5,1.5,0,0,1,0,2.09c-7.32,7.76-10.33,15.17-9,22,1.57,7.82,8.54,13.32,13,16.1-2-5.5-2.18-10.43-.44-14.71,3-7.32,10.42-9.86,10.74-10a1.5,1.5,0,0,1,1.53.36l9,9V11.52Z" fill="gray"/></svg>