<svg xmlns="http://www.w3.org/2000/svg" viewBox="0 0 72 72"><title>m_102_reset_thin</title><path d="M47.35,18.54a54.41,54.41,0,0,0-8.49-4.08l10.86-4,.21-.07a1.5,1.5,0,1,0-1.21-2.75L34.28,12.94a1.5,1.5,0,0,0-.89,1.92L38.74,29.5a1.5,1.5,0,0,0,1.41,1h0a1.5,1.5,0,0,0,1.41-2L37.41,17.13a51.1,51.1,0,0,1,8.36,3.95C58.5,29.19,64.37,42.84,58.85,51.5c-2.6,4.11-7.45,6.51-13.6,6.76a34.46,34.46,0,0,1-19.56-5.79c-6.25-4-11.06-9.42-13.48-15.29C9.84,31.5,10,26.11,12.59,22l0-.07a1.5,1.5,0,0,0-2.57-1.54c-3.16,5-3.38,11.34-.62,18C12.1,44.76,17.31,50.68,24.08,55a38.09,38.09,0,0,0,20.11,6.28l1.16,0c7.16-.29,12.84-3.14,16-8.14C67.76,43.05,61.48,27.54,47.35,18.54Z" fill="gray"/></svg>