<?xml version="1.0" encoding="UTF-8"?>
<svg id="Layer_1" data-name="Layer 1" xmlns="http://www.w3.org/2000/svg" width="72" height="72" viewBox="0 0 72 72">
  <path d="M68.41,45.35c-.1-1.3-.8-2.3-1.8-2.9-1.5-.8-2.9-1.5-4.1-2.1-1.2-.5-2.4-1.2-3.6-1.9-.5-1-.7-2.1-.8-3.3,0-.2.2-.9,1.9-3.3l.1-.2c.6-1,1-2.2,1.1-3.4,0-.5-.1-1-.3-1.4-.1-.2-.1-.3-.1-.5-.1-.4-.1-.7-.2-.9-.2-1.1-.3-2.1-.3-3.2-.2-1.5-1-2.9-2.3-3.7-1.5-1.1-4-2.3-6.1-1.9-1.1.3-2.3.4-3.5.4-.7-.1-1.3.1-1.9.5-1.3.9-2.2,2.2-2.6,3.7-.5,1.7-.7,3.4-.7,5.1v.2c0,.3,0,.7-.1,1-.1.4-.1.8-.1,1.1.1,1.1.4,2.2,1.1,3l.4.6c.7.8,1.2,1.7,1.7,2.6-.1,1.2-.3,2.4-.8,3.6-.2.2-1.5.8-2.5,1.4-1.5.8-3.2,1.7-4.3,2.3-1.1-.4-2.1-1-3-1.6-.6-1.4-.9-2.9-1-4.4,0-.2.2-1.1,2.5-4.4l.2-.2c.8-1.3,1.3-2.8,1.4-4.4,0-.6-.1-1.2-.3-1.8-.1-.2-.2-.4-.2-.6-.1-.5-.2-.9-.2-1.2-.3-1.4-.4-2.8-.3-4.1,0-1.6-1.1-3.3-3-4.8-1.9-1.5-5.1-3-8-2.4-1.5.4-3.1.6-4.6.5-.8-.2-1.7,0-2.4.5-1.7,1.1-2.9,2.8-3.4,4.8-.6,2.2-1,4.4-.9,6.7v.3c0,.4,0,.8-.1,1.3-.1.5-.2,1-.2,1.5.1,1.4.6,2.8,1.4,4,.1.1.3.4.6.8.9,1.1,1.6,2.2,2.2,3.4-.1,1.6-.4,3.3-1.1,4.8-1.3.8-2.7,1.5-4.2,2.1-2.2.9-4.3,1.9-6.3,3-1.4.7-2.3,2-2.4,3.5v.2c-.25.95-.44,7.4-.54,9.4,0,.7.5,1.3,1.2,1.3h41.64c.3,0,.7-.1.9-.4.2-.2.4-.6.3-.9-.1-2-.2-8.5-.4-9.3-.1-1.5-1-2.9-2.4-3.6-1.9-1-3.7-1.9-5.3-2.6.9-.5,2-1.1,3-1.6s1.9-1,2.8-1.6c1-.8,1.7-4.3,1.6-5.4-.1-.8-.8-1.9-2.1-3.6l-.4-.8c-.4-.6-.7-1.2-.8-1.9,0-.2,0-.5.1-.7.1-.5.2-.9.1-1.4v-.2c0-1.6.2-3.1.7-4.7.3-1,.9-1.9,1.8-2.5.2-.1.4-.2.6-.1,1.4.1,2.8,0,4.2-.4,1.6-.1,3.2.4,4.5,1.5.8.5,1.3,1.3,1.5,2.2,0,1.2.1,2.4.3,3.6,0,.2.1.4.1.8,0,.3.1.7.3,1,.1.2.1.4.1.6-.1.8-.3,1.6-.8,2.3l-.1.2c-1.5,2.3-2.2,3.5-2.2,4.3,0,.6.4,4.2,1.6,5,1.2.8,2.5,1.6,3.9,2.2,1.2.6,2.5,1.2,4,2,.5.2.8.7.8,1.3v.1c0,.3.2,3.1.2,5.8h-11.2c-.6,0-1,.4-1,1s.4,1,1,1h12.3c.3,0,.5-.1.7-.3.2-.2.3-.5.3-.7,0-1.6-.2-6.6-.2-7.2ZM45.11,48.35c.7.4,1.1,1.1,1.1,1.9.1.5.2,4.1.3,7.6H7.41c.1-3.6.2-7.5.3-7.9v-.2c0-.8.5-1.4,1.2-1.7,2-1.1,4-2.1,6.1-2.9,1.7-.6,3.2-1.4,4.7-2.4,1.4-1,2.1-5.7,2-6.9-.1-1-1-2.5-2.7-4.7l-.5-.6c-.6-.7-.9-1.6-1-2.6,0-.3,0-.6.1-.9.1-.6.2-1.2.2-1.8v-.3c0-2.1.3-4.1.9-6.1.4-1.3,1.2-2.5,2.3-3.2.2-.2.5-.3.8-.2,1.8.1,3.6,0,5.4-.5,1.6-.4,4,.4,5.9,1.9,1,.7,1.7,1.7,2,2.9,0,1.6.1,3.1.4,4.6.1.3.1.6.2,1,.1.5.2.9.4,1.3.1.3.1.5.1.8-.1,1.1-.4,2.1-1,3.1l-.2.2c-2,3-2.8,4.6-2.9,5.6,0,.8.6,5.4,2,6.5,1.6,1.1,3.4,2,5.2,2.7,1.7.8,3.7,1.7,5.8,2.8Z"/>
</svg>