<?xml version="1.0" encoding="UTF-8"?>
<svg id="Layer_1" xmlns="http://www.w3.org/2000/svg" version="1.1" viewBox="0 0 72 72">
  <!-- Generator: Adobe Illustrator 29.0.1, SVG Export Plug-In . SVG Version: 2.1.0 Build 192)  -->
  <path d="M62.5,36.4c-2.7-6.5-8-12.5-14.8-16.9-2.2-1.4-4.6-2.7-7.1-3.6l9.7-3.5c1-.4,1.5-1.6,1.1-2.6-.4-1-1.5-1.5-2.5-1.2l-14.4,5.3c-1,.4-1.6,1.5-1.2,2.6,0,0,0,0,0,0h0l5.4,14.6c.4,1,1.5,1.6,2.6,1.2,1-.4,1.6-1.5,1.2-2.6h0l-3.8-10.4c.1,0,.2.1.3.2,2.3.9,4.5,2,6.6,3.4,6.2,3.9,10.9,9.3,13.3,15,2.2,5.5,2.2,10.8-.4,14.7-5.4,8.4-19.9,8.8-32.5.8S7.6,32,12.9,23.6c.6-.9.3-2.2-.6-2.8-.9-.6-2-.3-2.7.5h0c-6.6,10.4-.2,26.3,14.2,35.4,6.1,4,13.1,6.2,20.4,6.3,7.5,0,14.1-2.8,17.6-8.4,3.2-5.1,3.5-11.6.7-18.4Z"/>
</svg>