<svg xmlns="http://www.w3.org/2000/svg" viewBox="0 0 72 72"><title>m_102_reset_thick</title><path d="M62.45,36.37c-2.71-6.51-8-12.5-14.84-16.87a42.63,42.63,0,0,0-7.09-3.64l9.66-3.54a2,2,0,0,0-1.39-3.75L34.36,13.86a2,2,0,0,0-1.19,2.57h0l5.37,14.64a2,2,0,0,0,3.76-1.38L38.49,19.31a2,2,0,0,0,.33.17,38.72,38.72,0,0,1,6.64,3.39c6.17,3.93,10.9,9.27,13.3,15,2.24,5.55,2.16,10.77-.37,14.7C53,61,38.45,61.37,25.92,53.39S7.57,32,12.92,23.62a2,2,0,0,0-3.29-2.27l-.08.12C3,31.8,9.38,47.63,23.77,56.8a38.52,38.52,0,0,0,20.35,6.32c7.55,0,14.11-2.82,17.64-8.36C65,49.65,65.26,43.12,62.45,36.37Z" fill="gray"/></svg>