<?xml version="1.0" encoding="UTF-8"?>
<svg id="Layer_1" xmlns="http://www.w3.org/2000/svg" version="1.1" viewBox="0 0 72 72">
  <!-- Generator: Adobe Illustrator 29.0.1, SVG Export Plug-In . SVG Version: 2.1.0 Build 192)  -->
  <path d="M26.4,41.7l-2.6,5.5c-.1.3,0,.7.4.8,0,0,.1,0,.2,0h.2l5.6-2.5c.1,0,.2,0,.3-.2L63.2,12.7c.2-.2.2-.6,0-.9l-3-3.1c-.1-.1-.3-.2-.4-.2-.2,0-.3,0-.4.2l-6.3,6.3H13.5c-2.2,0-4,1.8-4,4v42.2c0,2.2,1.8,4,4,4h40.9c2.2,0,4-1.8,4-4V25.8l-4,4.1v31.4H13.6V19h35.5l-22.5,22.5c0,0-.1.1-.1.2Z"/>
</svg>