<svg xmlns="http://www.w3.org/2000/svg" viewBox="0 0 72 72">
  <path d="M63,63.28H9.06A1.5,1.5,0,0,1,8,62.82a1.47,1.47,0,0,1-.43-1.08c.07-2.48.3-10.65.44-11.54L8,50a5,5,0,0,1,2.8-4.16,53.44,53.44,0,0,1,9.75-3.89,27.43,27.43,0,0,0,5.53-2.14,15.19,15.19,0,0,0,1.31-5.58c-.13-.73-2-3.21-2.6-4-.3-.4-.54-.72-.66-.91a8.61,8.61,0,0,1-1.67-4.66,6.48,6.48,0,0,1,.2-1.75,5.48,5.48,0,0,0,.14-1.47v-.35A26.54,26.54,0,0,1,24,13.19a10.17,10.17,0,0,1,4-5.63,3.82,3.82,0,0,1,2.87-.69,15.74,15.74,0,0,0,5.41-.56c3.33-.75,7.13,1.06,9.39,2.83s3.48,3.77,3.52,5.65a21.15,21.15,0,0,0,.4,4.87c.08.39.17.79.25,1.4a2.17,2.17,0,0,0,.22.76,4.51,4.51,0,0,1,.4,2.14,10.85,10.85,0,0,1-1.66,5.26l-.18.28c-2.59,3.82-2.87,4.87-2.9,5.11a15.67,15.67,0,0,0,1.25,5,29,29,0,0,0,5.57,2.44,66.88,66.88,0,0,1,8.72,3.72A5.31,5.31,0,0,1,64,50.1c.15,1,.38,9.16.45,11.63A1.5,1.5,0,0,1,63,63.28Zm-52.39-3H61.45c-.13-4.51-.29-9.08-.36-9.63l0-.1a2.35,2.35,0,0,0-1.3-2.1,63.86,63.86,0,0,0-8.32-3.54,27.71,27.71,0,0,1-6.34-2.86c-1.75-1.25-2.48-6.68-2.43-7.61.06-1.23,1-3.15,3.4-6.62l.18-.26A8.26,8.26,0,0,0,47.41,24a1.75,1.75,0,0,0-.14-.92,5.38,5.38,0,0,1-.45-1.56,11.34,11.34,0,0,0-.22-1.19,24.15,24.15,0,0,1-.46-5.44c0-.93-.93-2.21-2.38-3.35-2.21-1.74-5-2.67-6.88-2.27a18,18,0,0,1-6.35.63,1,1,0,0,0-1,.24,7.22,7.22,0,0,0-2.7,3.8,24,24,0,0,0-1,7.15v.36a8.32,8.32,0,0,1-.22,2.17,3.46,3.46,0,0,0-.12,1.05,5.72,5.72,0,0,0,1.16,3c.11.16.31.43.57.77,2,2.66,3.09,4.34,3.19,5.58.12,1.45-.81,6.93-2.41,8.15-1.28,1-3.58,1.72-6.5,2.67a52.12,52.12,0,0,0-9.2,3.64,2.15,2.15,0,0,0-1.3,2l0,.26C10.89,51.2,10.73,55.77,10.6,60.28ZM46.72,39.53Z" />
</svg>
