<svg xmlns="http://www.w3.org/2000/svg" viewBox="0 0 72 72">
  <g>
    <path d="M36.1,59.36A4.34,4.34,0,1,1,40.46,55,4.36,4.36,0,0,1,36.1,59.36Zm0-7.07A2.73,2.73,0,1,0,38.85,55,2.74,2.74,0,0,0,36.1,52.29Z" />
    <path d="M44.44,56.52a1.53,1.53,0,0,0-1.14,1,7.27,7.27,0,0,1-.34.81,1.51,1.51,0,0,0,.1,1.51l1.44,2.09L43,63.38l-2.1-1.44a1.53,1.53,0,0,0-.85-.25,1.52,1.52,0,0,0-.66.15,8.33,8.33,0,0,1-.82.34,1.54,1.54,0,0,0-1,1.13l-.47,2.53H35.07l-.47-2.53a1.51,1.51,0,0,0-1-1.13,7.43,7.43,0,0,1-.82-.34,1.56,1.56,0,0,0-.67-.15,1.5,1.5,0,0,0-.84.25l-2.09,1.43-1.47-1.46,1.43-2.08a1.49,1.49,0,0,0,.1-1.5c-.12-.27-.24-.54-.34-.82a1.51,1.51,0,0,0-1.14-1L25,56.06V54l2.73-.46a1.53,1.53,0,0,0,1.14-1,8.33,8.33,0,0,1,.34-.82,1.49,1.49,0,0,0-.1-1.5L27.68,48.1l1.47-1.46,2.13,1.46a1.51,1.51,0,0,0,.84.26,1.56,1.56,0,0,0,.67-.15,6.71,6.71,0,0,1,.82-.34,1.53,1.53,0,0,0,1-1.14l.47-2.67h2.07l.47,2.67a1.53,1.53,0,0,0,1,1.14,6.71,6.71,0,0,1,.82.34,1.56,1.56,0,0,0,.67.15,1.49,1.49,0,0,0,.84-.26l2.14-1.47,1.47,1.46-1.48,2.13a1.52,1.52,0,0,0-.1,1.5,8.33,8.33,0,0,1,.34.82,1.55,1.55,0,0,0,1.14,1L47,54v2.06Zm3.3-4.17-2.48-.49a8.73,8.73,0,0,0-.43-1l1.4-2.09a1.61,1.61,0,0,0-.2-2l-1.56-1.55a1.6,1.6,0,0,0-1.14-.47,1.66,1.66,0,0,0-.9.27l-2.1,1.39c-.34-.16-.69-.3-1-.43l-.49-2.46a1.63,1.63,0,0,0-1.59-1.3H35a1.62,1.62,0,0,0-1.58,1.3l-.5,2.46c-.36.13-.7.27-1,.43L29.77,45a1.6,1.6,0,0,0-.89-.27,1.64,1.64,0,0,0-1.15.47L26.18,46.7a1.59,1.59,0,0,0-.2,2l1.4,2.09a9.47,9.47,0,0,0-.43,1l-2.48.49a1.61,1.61,0,0,0-1.3,1.58v2.18a1.61,1.61,0,0,0,1.3,1.58l2.47.5c.13.35.28.7.44,1L26,61.32a1.6,1.6,0,0,0,.2,2l1.55,1.54a1.64,1.64,0,0,0,1.15.47,1.53,1.53,0,0,0,.89-.27l2.11-1.39a9.47,9.47,0,0,0,1,.43l.5,2.46A1.61,1.61,0,0,0,35,67.89h2.2a1.62,1.62,0,0,0,1.59-1.3l.5-2.46a10.36,10.36,0,0,0,1-.43l2.1,1.39a1.58,1.58,0,0,0,.9.27,1.6,1.6,0,0,0,1.14-.47L46,63.35a1.61,1.61,0,0,0,.2-2l-1.4-2.1a8.73,8.73,0,0,0,.43-1l2.48-.49A1.61,1.61,0,0,0,49,56.11V53.93A1.61,1.61,0,0,0,47.74,52.35Z"  fill-rule="evenodd"/>
  </g>
  <path d="M63,63.39H51.19v-3H61.46c-.13-4.51-.29-9.08-.36-9.63l0-.1a2.37,2.37,0,0,0-1.3-2.09A63.94,63.94,0,0,0,51.46,45a28.09,28.09,0,0,1-6.35-2.85c-1.74-1.26-2.47-6.68-2.42-7.61.06-1.24,1.05-3.15,3.4-6.62l.18-.27a8.26,8.26,0,0,0,1.15-3.6,1.72,1.72,0,0,0-.15-.92,5.35,5.35,0,0,1-.44-1.55c-.07-.52-.15-.86-.22-1.19A24.28,24.28,0,0,1,46.15,15c0-.91-.95-2.23-2.38-3.35-2.22-1.74-5.05-2.67-6.88-2.26a18.13,18.13,0,0,1-6.35.62,1,1,0,0,0-1,.24A7.28,7.28,0,0,0,26.87,14a23.56,23.56,0,0,0-1,7.15v.35a7.74,7.74,0,0,1-.23,2.17,3.93,3.93,0,0,0-.11,1,5.72,5.72,0,0,0,1.16,3l.57.78c2,2.65,3.09,4.33,3.19,5.57.12,1.45-.82,6.93-2.42,8.15-1.27,1-3.57,1.72-6.49,2.67a52.12,52.12,0,0,0-9.2,3.64,2.14,2.14,0,0,0-1.3,2l0,.26c-.07.55-.23,5.11-.36,9.62H20.92v3H9.07a1.5,1.5,0,0,1-1.5-1.54c.07-2.48.3-10.64.44-11.54l0-.21a5.07,5.07,0,0,1,2.79-4.16,53.77,53.77,0,0,1,9.76-3.88,27.32,27.32,0,0,0,5.53-2.15,15.14,15.14,0,0,0,1.31-5.57c-.14-.73-2-3.21-2.6-4-.3-.4-.54-.72-.66-.9a8.54,8.54,0,0,1-1.67-4.67A6.48,6.48,0,0,1,22.7,23a5.37,5.37,0,0,0,.14-1.47v-.35c0-1.91,0-3.29,1.12-7.87a10.15,10.15,0,0,1,4-5.62A3.8,3.8,0,0,1,30.82,7a15.65,15.65,0,0,0,5.42-.57c3.32-.74,7.13,1.06,9.38,2.83s3.49,3.77,3.53,5.66a21.42,21.42,0,0,0,.39,4.86,13.88,13.88,0,0,1,.26,1.4,2.17,2.17,0,0,0,.22.76,4.54,4.54,0,0,1,.4,2.14,11,11,0,0,1-1.66,5.27l-.19.28c-2.59,3.82-2.86,4.87-2.89,5.1a15.66,15.66,0,0,0,1.24,5.05,28.2,28.2,0,0,0,5.58,2.44,67.57,67.57,0,0,1,8.71,3.72,5.33,5.33,0,0,1,2.84,4.29c.15,1,.38,9.15.45,11.63A1.49,1.49,0,0,1,63,63.39ZM46.73,39.64Z" />
</svg>
