<?xml version="1.0" encoding="UTF-8"?>
<svg id="Layer_1" data-name="Layer 1" xmlns="http://www.w3.org/2000/svg" width="72" height="72" viewBox="0 0 72 72">
  <path d="M60.26,6.81H11.66c-2.58,0-4.66,2.09-4.66,4.67v41.6c0,2.58,2.09,4.67,4.67,4.67h22.35v7.33h4V30.52l10.61,10.61,2.83-2.83-15.44-15.44-15.31,15.32,2.83,2.83,10.48-10.49v23.23H11.67c-.37,0-.66-.3-.66-.67V11.48c0-.37.29-.66.66-.67h48.61c.37,0,.66.3.66.67v41.6c0,.37-.29.66-.66.67h-9.85v4h9.85c2.57-.02,4.64-2.1,4.64-4.67V11.48c0-2.58-2.08-4.66-4.66-4.67Z"/>
</svg>