<?xml version="1.0" encoding="utf-8"?>
<!-- Generator: Adobe Illustrator 21.0.0, SVG Export Plug-In . SVG Version: 6.00 Build 0)  -->
<svg version="1.1" id="Layer_1" xmlns="http://www.w3.org/2000/svg" xmlns:xlink="http://www.w3.org/1999/xlink" x="0px" y="0px"
	 viewBox="0 0 72 72" style="enable-background:new 0 0 72 72;" xml:space="preserve">
<path d="M62.9,8.3h-54c-0.6,0-1,0.4-1,1v53.4c0,0.6,0.4,1,1,1H63c0.6,0,1-0.4,1-1V9.3C63.9,8.7,63.5,8.3,62.9,8.3z M61.9,10.3v4.8
	h-52v-4.8H61.9z M9.9,61.7L9.9,61.7V17.1H62v44.6C62,61.7,9.9,61.7,9.9,61.7z"/>
<path d="M35,58.2c-1,0-1.9-0.2-2.8-0.8c-2.2-1.5-2-4.9-1.8-7.8c0.1-1.8,0.3-4.1-0.3-4.7c-0.1-0.1-0.2-0.2-0.9-0.2
	c-0.4,0-1.8,0.6-3.7,1.8l0,0c-4.2,2.1-9,1.1-11.1-2.4c-1.3-2.6-1.4-5.6-0.2-8.4c1.8-3.9,8.4-8.9,14-11.6c5.7-2.8,11.5-3.7,16.8-2.9
	c5,0.9,8.9,3.4,11.2,7.1c2.2,3.5,2.8,7.9,1.4,11.9c-2,6.6-7.8,12.5-16.2,16.2C38.7,57.5,36.6,58.2,35,58.2z M29.1,41.7
	c1.2-0.1,2.3,0.3,3.1,1.2c1.5,1.7,1.3,4.4,1.1,7.1c-0.1,2.1-0.3,4.6,0.6,5.3c0.4,0.3,1.9,0.8,6.4-1.3c7.7-3.4,13.1-8.8,14.9-14.7
	c1.1-3.2,0.7-6.7-1.1-9.7c-4.9-7.6-16.2-7.4-24.8-3.3c-5.6,2.8-11.5,7.5-12.8,10.4c-0.9,1.8-0.8,3.9,0,5.7c1.3,2.2,4.5,2.9,7.4,1.4
	C26.3,42.5,27.9,41.7,29.1,41.7L29.1,41.7z"/>
<ellipse cx="45.4" cy="44.5" rx="3.1" ry="2.3"/>
<ellipse cx="49.4" cy="37.9" rx="3.1" ry="2.3"/>
<ellipse cx="47.1" cy="30.9" rx="3.1" ry="2.3"/>
<ellipse cx="38.5" cy="28.8" rx="3.1" ry="2.3"/>
<ellipse cx="30" cy="31.6" rx="3.1" ry="2.3"/>
<path d="M21.5,42.1c-2,0-3.6-1.3-3.6-2.9s1.7-2.9,3.6-2.9s3.6,1.3,3.6,2.9C25.2,40.8,23.5,42.1,21.5,42.1z M21.5,37.5
	c-1.3,0-2.4,0.8-2.4,1.8c0,1,1.1,1.8,2.5,1.8c1.4,0,2.5-0.8,2.5-1.8C24.1,38.3,23,37.5,21.5,37.5z"/>
</svg>
