<svg xmlns="http://www.w3.org/2000/svg" viewBox="0 0 72 72">
  <path d="M32.89,66.44A1.68,1.68,0,0,1,31.72,66l-6.43-6.44a1.65,1.65,0,0,1,2.33-2.33l5.27,5.27L45.22,50.13a1.65,1.65,0,0,1,2.33,2.33L34.06,66A1.68,1.68,0,0,1,32.89,66.44Z" />
  <path d="M62.93,63.39H51.12v-3H61.39c-.13-4.51-.29-9.08-.36-9.63l0-.1a2.37,2.37,0,0,0-1.3-2.09A63.94,63.94,0,0,0,51.39,45,28.09,28.09,0,0,1,45,42.17c-1.74-1.26-2.47-6.68-2.42-7.61.06-1.24,1.05-3.15,3.4-6.62l.17-.27a8.13,8.13,0,0,0,1.16-3.6,1.72,1.72,0,0,0-.15-.92,5.45,5.45,0,0,1-.44-1.55c-.07-.52-.15-.86-.22-1.19A24.28,24.28,0,0,1,46.08,15c0-.91-.95-2.23-2.38-3.35-2.22-1.74-5.05-2.67-6.88-2.26a18.13,18.13,0,0,1-6.35.62,1,1,0,0,0-1,.24A7.24,7.24,0,0,0,26.8,14a23.56,23.56,0,0,0-1,7.15v.35a7.74,7.74,0,0,1-.23,2.17,3.93,3.93,0,0,0-.11,1,5.72,5.72,0,0,0,1.16,3c.11.16.31.43.57.77,2,2.66,3.09,4.34,3.19,5.58.12,1.45-.82,6.93-2.42,8.15-1.27,1-3.57,1.72-6.49,2.67a52.12,52.12,0,0,0-9.2,3.64,2.14,2.14,0,0,0-1.3,2l0,.26c-.07.55-.23,5.11-.36,9.62H20.85v3H9a1.5,1.5,0,0,1-1.5-1.54c.07-2.48.3-10.64.44-11.54l0-.21a5.07,5.07,0,0,1,2.79-4.16,53.77,53.77,0,0,1,9.76-3.88,27.32,27.32,0,0,0,5.53-2.15,15.14,15.14,0,0,0,1.31-5.57c-.14-.73-2-3.21-2.6-4-.3-.4-.54-.72-.66-.9a8.54,8.54,0,0,1-1.67-4.67,6.48,6.48,0,0,1,.2-1.75,5.37,5.37,0,0,0,.14-1.47v-.35c0-1.91,0-3.29,1.12-7.87a10.15,10.15,0,0,1,4-5.62A3.8,3.8,0,0,1,30.75,7a15.65,15.65,0,0,0,5.42-.57c3.32-.74,7.13,1.06,9.38,2.83S49,13,49.08,14.91a20.48,20.48,0,0,0,.4,4.86c.08.39.17.8.25,1.4a2.17,2.17,0,0,0,.22.76,4.54,4.54,0,0,1,.4,2.14,11,11,0,0,1-1.66,5.27l-.19.28c-2.59,3.82-2.86,4.87-2.89,5.1a15.66,15.66,0,0,0,1.24,5.05,28.2,28.2,0,0,0,5.58,2.44,67.57,67.57,0,0,1,8.71,3.72A5.33,5.33,0,0,1,64,50.22c.15,1,.38,9.15.45,11.63a1.5,1.5,0,0,1-1.5,1.54ZM46.66,39.64Z" />
</svg>
