<svg xmlns="http://www.w3.org/2000/svg" viewBox="0 0 72 72"><title>m_124_upload_cloud</title><path d="M53.88,21.84a11.51,11.51,0,0,0-1.63.11,18.26,18.26,0,0,0-34,5.69,10.71,10.71,0,0,0-2.43-.28A10.84,10.84,0,0,0,15.65,49H34.2V63.58h4V31.87l9.46,9.46,2.83-2.83L36.2,24.21,21.88,38.53l2.83,2.83,9.49-9.49V45H15.72a6.84,6.84,0,0,1,.17-13.68,6.57,6.57,0,0,1,2.17.36,3.08,3.08,0,0,0,4.09-2.56A14.26,14.26,0,0,1,49,24.36,3.08,3.08,0,0,0,52.42,26a7,7,0,0,1,1.47-.14c4.92,0,8.91,4.31,8.91,9.61S59.06,44.84,54.36,45H47.48v4h7c6.93-.27,12.36-6.23,12.36-13.58S61,21.84,53.88,21.84Z" fill="gray"/></svg>