<?xml version="1.0" encoding="UTF-8"?>
<svg id="Layer_2" data-name="Layer 2" xmlns="http://www.w3.org/2000/svg" viewBox="0 0 72 72">
  <path d="M36.42,6.9c-15.68,0-28.43,12.75-28.43,28.43s12.75,28.43,28.43,28.43,28.43-12.75,28.43-28.43S52.09,6.9,36.42,6.9ZM61.79,33.68h-11.66c.04-1.36.1-2.92.12-3.13,0,0,.01-.1.01-.1.04-.27.05-.4.39-.59.95-.54,1.86-.94,2.66-1.28.9-.39,1.61-.7,2.11-1.09.68-.52,1.02-2.65.98-3.22-.04-.51-.45-1.14-1.23-2.18-.09-.12-.17-.22-.21-.28-.12-.18-.4-.6-.4-1.02,0-.2.01-.25.04-.35.05-.2.09-.41.09-.86v-.13c0-.48,0-.84.15-1.61,3.98,4.19,6.54,9.72,6.94,15.84ZM61.85,35.33c0,2.13-.27,4.2-.76,6.19-.88-.55-2.08-.98-3.16-.75-1.24.28-1.69.23-1.97.21-.38-.04-.68-.04-1.19.29-.71.45-1.38,1.38-1.58,2.22-.43,1.73-.42,2.29-.42,2.99v.13c0,.31-.02.4-.05.51-.04.18-.08.35-.08.7,0,.78.37,1.43.66,1.85.05.07.14.19.25.34.22.29.87,1.16.94,1.41.03.4-.28,1.7-.39,1.9-.36.28-1.03.57-1.8.91-.79.35-1.78.78-2.8,1.35-.99.56-1.09,1.33-1.15,1.77,0,.04-.02.12-.04.46-2.02,1.07-4.21,1.88-6.51,2.38-.01-.39-.08-.59-.16-.78-.03-.07-.05-.11-.07-.23-.03-.23-.07-.39-.1-.53-.07-.3-.12-.56-.14-1.79-.01-.76-.51-1.57-1.39-2.26-.88-.69-2.36-1.38-3.67-1.1-1.24.28-1.69.24-1.97.21-.38-.04-.68-.04-1.19.29-.71.45-1.37,1.38-1.58,2.22-.43,1.73-.43,2.29-.42,2.99v.13c0,.31-.02.4-.05.51-.02.1-.05.21-.06.34-1.99-.44-3.9-1.1-5.69-1.98-.06-1.66-.08-1.83-.1-1.94-.05-.36-.18-1.21-1.16-1.74-.95-.52-1.84-.92-2.62-1.27-.83-.37-1.54-.7-1.95-1-.18-.32-.44-1.45-.42-1.74.02-.09.13-.48,1.05-1.83l.07-.11c.25-.38.65-1.28.65-2.07,0-.46-.08-.67-.17-.88-.03-.07-.05-.11-.07-.23-.03-.23-.07-.39-.1-.54-.07-.3-.12-.56-.14-1.78-.01-.76-.51-1.57-1.39-2.26-.88-.69-2.36-1.38-3.67-1.1-1.24.28-1.69.23-1.97.21-.38-.04-.68-.04-1.19.29-.2.13-.39.29-.57.48-.37-1.73-.57-3.53-.57-5.37,0-.25.01-.49.02-.74h14.1c.2,0,.4-.08.54-.23s.22-.34.21-.54c-.03-1.12-.11-3.75-.17-4.12-.05-.36-.18-1.21-1.16-1.74-.95-.52-1.84-.92-2.62-1.27-.83-.37-1.54-.7-1.95-.99-.18-.32-.44-1.45-.42-1.74.02-.09.13-.48,1.05-1.83l.07-.11c.25-.38.65-1.28.65-2.07,0-.46-.08-.67-.17-.88-.03-.07-.05-.11-.07-.23-.03-.23-.07-.39-.1-.54-.07-.3-.12-.56-.14-1.78,0-.34-.11-.69-.3-1.03,1.85-1.48,3.9-2.71,6.12-3.64-.05.48-.13,2.94-.16,4.02,0,.2.07.4.21.54s.34.23.54.23h18.33c.2,0,.4-.08.54-.23s.22-.34.21-.54c-.03-1.06-.11-3.45-.16-4.02,2.75,1.15,5.26,2.76,7.42,4.75-.39,1.63-.39,2.18-.39,2.86v.13c0,.31-.02.4-.05.51-.04.18-.08.35-.08.7,0,.87.48,1.58.65,1.85.05.07.14.19.25.35.21.29.87,1.16.94,1.41.03.4-.28,1.7-.39,1.9-.36.28-1.03.57-1.8.91-.79.35-1.78.78-2.8,1.35-.99.56-1.09,1.33-1.15,1.77-.05.34-.13,2.97-.17,4.08,0,.2.07.4.21.54s.33.23.54.23h12.49s0,.1,0,.15ZM23.76,57.37c-1.87-1.08-3.59-2.38-5.12-3.88.53.37,1.25.71,2.16,1.12.76.34,1.62.73,2.52,1.22.32.17.35.36.4.68,0,.03.02.18.05.86ZM43.44,10.89c.28.14.56.27.85.43.32.17.35.36.39.68.03.22.08,1.77.13,3.13h-16.78c.04-1.36.1-2.92.12-3.13,0,0,.01-.1.01-.1.04-.27.05-.4.39-.59.28-.16.54-.28.81-.42,2.24-.65,4.6-1,7.05-1s4.79.35,7.02.99ZM19.33,16.51s0,.02,0,.03c.03,1.37.1,1.69.18,2.07.03.12.05.24.08.43.04.31.11.48.18.63.03.06.04.09.04.27,0,.42-.26,1.03-.4,1.24l-.07.1c-.91,1.35-1.28,2.07-1.3,2.57-.01.28.22,2.43.97,3,.53.41,1.3.76,2.28,1.2.76.34,1.62.73,2.52,1.22.32.17.35.36.4.68.03.21.08,1.77.13,3.14h-13.24c.58-6.55,3.64-12.4,8.24-16.58ZM12.06,42.64c.16-.44.52-.94.87-1.17.08-.05.12-.07.12-.07.04-.02.08,0,.13,0,.36.03.96.09,2.43-.24.62-.14,1.64.2,2.42.81.56.44.81.87.82,1.11.03,1.37.1,1.7.18,2.07.03.12.05.24.08.43.04.31.11.48.18.63.03.07.04.09.04.27,0,.42-.26,1.03-.4,1.24l-.07.1c-.91,1.35-1.28,2.07-1.3,2.57-.01.24.16,1.87.69,2.68-2.84-2.9-4.99-6.47-6.19-10.45ZM32.47,60.45c0-.12.01-.2.03-.27.05-.2.09-.41.09-.86v-.13c0-.65,0-1.07.38-2.63.11-.46.54-1.06.93-1.31.08-.05.12-.07.12-.07.03,0,.08,0,.13,0,.36.04.96.09,2.43-.24.63-.14,1.64.2,2.42.81.56.44.81.87.82,1.11.03,1.37.1,1.7.18,2.07.03.12.05.24.08.43.04.31.11.48.18.63.03.07.04.09.04.27,0,.06-.01.13-.02.19-1.26.19-2.54.29-3.85.29s-2.66-.11-3.94-.31ZM55.98,51.56c0-.11,0-.2,0-.27-.04-.51-.45-1.14-1.23-2.19-.09-.12-.17-.22-.2-.28-.12-.18-.4-.6-.4-1.02,0-.2.01-.25.04-.35.05-.2.09-.41.09-.86v-.13c0-.65,0-1.07.38-2.63.11-.46.54-1.06.93-1.31.08-.05.12-.07.12-.07.04-.03.08,0,.13,0,.36.03.96.09,2.43-.24.63-.14,1.63.2,2.4.8-1,3.15-2.61,6.04-4.67,8.53Z"/>
  <path d="M47.32,39.56c-1.17-.64-2.27-1.13-3.23-1.57-1.01-.46-1.89-.85-2.38-1.21-.21-.4-.52-1.75-.5-2.08.02-.11.17-.58,1.28-2.22l.09-.14c.32-.48.82-1.6.82-2.6,0-.58-.1-.86-.21-1.11-.04-.08-.05-.12-.07-.27-.04-.29-.08-.48-.12-.67-.08-.37-.15-.69-.18-2.19-.02-.97-.64-1.98-1.74-2.85-1.09-.86-2.95-1.73-4.59-1.37-1.52.34-2.07.29-2.4.26-.48-.05-.87-.05-1.52.37-.89.56-1.73,1.73-1.98,2.78-.53,2.15-.53,2.84-.53,3.71v.16c0,.37-.02.48-.06.61-.05.23-.1.45-.1.88,0,.98.47,1.8.82,2.32.06.09.17.24.31.43.26.35,1.06,1.41,1.14,1.7.04.45-.3,1.93-.53,2.34-.46.32-1.24.66-2.13,1.06-.98.43-2.2.96-3.46,1.67-1.25.71-1.38,1.68-1.46,2.24-.06.42-.17,3.67-.21,5.05,0,.27.09.53.28.73.19.19.45.3.72.3h22.63c.27,0,.53-.11.72-.3.19-.19.29-.46.28-.73-.04-1.38-.14-4.63-.21-5.1-.07-.46-.23-1.53-1.47-2.2ZM26.4,45.88c.06-1.81.12-3.54.15-3.78l.02-.13c.04-.32.06-.46.45-.68,1.18-.66,2.29-1.15,3.28-1.58,1.11-.49,1.99-.87,2.62-1.35.88-.67,1.3-3.31,1.24-4.04-.05-.65-.56-1.43-1.54-2.74-.11-.15-.2-.27-.25-.34-.15-.22-.48-.73-.48-1.21,0-.23.02-.3.04-.41.06-.25.11-.51.11-1.08v-.16c0-.79,0-1.31.47-3.23.13-.55.65-1.28,1.11-1.57.08-.05.12-.07.12-.08.04,0,.08,0,.13.01.45.04,1.2.11,3.03-.29.75-.17,1.98.25,2.92.99.67.52.97,1.05.98,1.31.03,1.58.1,2.03.22,2.57.03.15.07.3.1.53.06.39.14.61.25.86,0,0,.01.05.01.24,0,.5-.32,1.24-.48,1.49l-.08.12c-1.13,1.67-1.58,2.57-1.62,3.21-.02.35.28,3.04,1.23,3.76.67.51,1.62.94,2.83,1.49.93.42,1.99.9,3.1,1.5.36.2.39.4.45.78.03.27.1,2.13.15,3.79h-20.57Z"/>
</svg>