<?xml version="1.0" encoding="utf-8"?>
<svg version="1.1" id="Layer_1" xmlns="http://www.w3.org/2000/svg" xmlns:xlink="http://www.w3.org/1999/xlink" viewBox="0 0 72 72">
<ellipse transform="matrix(0.9863 -0.1652 0.1652 0.9863 -5.8827 6.9131)" class="st0" cx="38.6" cy="38.8" rx="2.7" ry="2.2"/>
<path class="st0" d="M32.2,42.5c-1-0.2-2,0-2.9,0.4c-2,1-2.9,3.1-2,4.7c0.6,1.1,1.8,1.7,3,1.7c0.7,0,1.4-0.2,2-0.5
	c0.9-0.4,1.6-1.1,2-2c0.7-1.4,0.2-3.2-1.2-4C32.8,42.7,32.5,42.6,32.2,42.5L32.2,42.5z M33.1,46.2c-0.3,0.6-0.8,1.1-1.4,1.4
	c-1.3,0.6-2.7,0.4-3.1-0.5s0.2-2.2,1.4-2.8c0.4-0.2,0.9-0.3,1.4-0.3c0.2,0,0.3,0,0.5,0c0.8,0.1,1.4,0.9,1.4,1.7
	C33.3,45.7,33.2,45.9,33.1,46.2L33.1,46.2z"/>
<path class="st0" d="M63.5,35.5c-5.1-7.9-15.8-8.5-24.7-5.1c-0.1-0.3-0.2-0.6-0.2-0.9l0.1-0.1c1-0.6,1.6-1.6,1.7-2.8
	c0.2-0.6,0.4-1.1,0.7-1.6c0.8-1.3,1.3-2.7,1.3-4.3c0-0.6-0.1-1.2-0.3-1.7c-0.1-0.2-0.1-0.4-0.1-0.6c-0.1-0.5-0.1-0.8-0.2-1.1
	c-0.3-1.3-0.4-2.6-0.3-3.9c0-1.5-1-3.2-2.8-4.6S33.7,6,31,6.6C29.6,7,28.1,7.1,26.6,7c-0.8-0.1-1.7,0.1-2.3,0.6
	c-1.6,1.1-2.8,2.7-3.3,4.6c-0.6,2.1-0.9,4.2-0.9,6.4v0.3c0,0.4,0,0.8-0.1,1.2c-0.1,0.5-0.2,0.9-0.2,1.4c0.1,1.4,0.5,2.7,1.4,3.8
	c0.3,0.4,0.6,0.7,0.9,1l0.1,0.1c0.1,1,0.6,2,1.3,2.6l0.3,0.3c-0.1,1.6-0.4,3.1-1.1,4.5c-1.4,0.7-2.9,1.3-4.5,1.7
	c-2.7,0.8-5.4,1.8-7.9,3.2c-1.3,0.6-2.2,1.9-2.3,3.4v0.2c-0.1,0.7-0.3,7.3-0.3,9.3c0,0.7,0.6,1.2,1.2,1.2h16.3
	c2.7,1.7,6.1,1.8,8.9,0.3h0.1c1.1-0.7,2.2-1.3,3.5-1.6c0.3,0,0.5,0,0.8,0.2c0.6,0.6,0.4,2.8,0.3,4.4c-0.2,2.8-0.5,6,1.8,7.5
	c0.8,0.5,1.7,0.8,2.7,0.8c2.2-0.1,4.3-0.7,6.2-1.7C57.4,59,63,53.3,64.9,47C66.2,43.1,65.7,38.9,63.5,35.5z M10.5,42.5v-0.2
	c0-0.7,0.4-1.3,1.1-1.6c2.4-1.2,4.9-2.2,7.4-3c1.8-0.5,3.6-1.2,5.3-2.2c1.3-1,2.1-5.4,2-6.6c-0.1-0.7-0.4-1.4-1-1.8
	c-0.4-0.3-0.7-0.8-0.7-1.4c-0.1-0.6-0.4-1.2-0.9-1.5c-0.2-0.1-0.3-0.3-0.5-0.5c-0.5-0.7-0.9-1.5-0.9-2.4c0-0.3,0-0.6,0.1-0.9
	c0.1-0.6,0.2-1.2,0.2-1.8v-0.2c0-2,0.3-3.9,0.8-5.8c0.4-1.2,1.1-2.3,2.2-3.1c0.2-0.2,0.5-0.3,0.8-0.2c1.7,0.1,3.5,0,5.1-0.5
	c1.5-0.3,3.8,0.4,5.6,1.8c1,0.6,1.7,1.6,1.9,2.7c0,1.5,0.1,3,0.4,4.4c0.1,0.3,0.1,0.7,0.2,1c0.1,0.4,0.2,0.9,0.4,1.3
	c0.1,0.2,0.1,0.5,0.1,0.8c-0.1,1-0.4,2-0.9,2.9c-0.5,0.8-0.9,1.7-1.1,2.6c0,0.4-0.2,0.9-0.6,1.1c-0.7,0.4-1.1,1.1-1.2,1.9
	c0,0.7,0.1,1.4,0.4,2l0,0c-5.3,2.6-11.8,7.5-13.4,11.2c-1.1,2.4-1.1,5.2,0,7.7h-13C10.3,46.6,10.5,42.9,10.5,42.5L10.5,42.5z
	 M62,46.1c-1.6,5.5-6.7,10.5-13.9,13.7c-4.3,2-5.6,1.5-5.9,1.2c-0.8-0.6-0.6-3-0.5-4.8c0.2-2.5,0.4-5.1-1.1-6.7
	c-0.8-0.8-1.9-1.2-3-1.2c-1.2,0-2.7,0.7-5,2c-2.6,1.3-5.6,0.8-6.8-1.3c-0.8-1.7-0.8-3.6,0-5.2c1-2.4,6.2-6.9,11.9-9.7
	c10.7-5.1,19.8-2.4,23.2,3C62.7,39.8,63,43.1,62,46.1z"/>
<ellipse transform="matrix(0.9863 -0.1652 0.1652 0.9863 -5.2905 8.2193)" class="st0" cx="46.8" cy="35.9" rx="2.7" ry="2.2"/>
<ellipse transform="matrix(0.9863 -0.1652 0.1652 0.9863 -5.5063 9.6073)" class="st0" cx="55" cy="37.9" rx="2.7" ry="2.2"/>
<ellipse transform="matrix(0.9863 -0.1652 0.1652 0.9863 -6.6236 10.0643)" class="st0" cx="57.2" cy="44.8" rx="2.7" ry="2.2"/>
<ellipse transform="matrix(0.9863 -0.1652 0.1652 0.9863 -7.7194 9.4858)" class="st0" cx="53.2" cy="51.1" rx="2.7" ry="2.2"/>
</svg>
