<svg xmlns="http://www.w3.org/2000/svg" viewBox="0 0 72 72">
  <path d="M34.65,61.75a6.29,6.29,0,0,1-3.71-1c-3.07-2.15-2.73-6.65-2.44-10.63.18-2.45.41-5.51-.43-6.42-.08-.08-.32-.34-1.18-.34-.63,0-2.34.79-5.06,2.34h-.09C16,48.61,9.45,47.19,6.5,42.39A12.94,12.94,0,0,1,6.19,31c2.34-5.29,11.53-12.25,19.07-15.9C33.08,11.31,41,10,48.12,11.23c6.73,1.19,12.21,4.63,15.44,9.68a19.38,19.38,0,0,1,2,16.22c-2.68,9-10.74,17.07-22.11,22.18C39.81,60.94,36.92,61.75,34.65,61.75Zm-8-22.37A5.47,5.47,0,0,1,30.9,41c2.07,2.23,1.79,6,1.52,9.63-.21,2.82-.47,6.33.76,7.19.56.39,2.52,1,8.75-1.81,10.51-4.69,17.91-12,20.31-20a15.55,15.55,0,0,0-1.56-13.2C54,12.34,38.59,12.64,26.82,18.35,19.09,22.1,11.08,28.61,9.33,32.58a9.17,9.17,0,0,0,.06,7.8c1.88,3,6.24,3.86,10.17,1.89,3.23-1.83,5.44-2.89,7.14-2.89Z" fill="gray"/>
  <ellipse cx="48.95" cy="43.12" rx="4.15" ry="3.12" fill="gray"/>
  <ellipse cx="54.45" cy="34.12" rx="4.15" ry="3.12" fill="gray"/>
  <ellipse cx="51.28" cy="24.52" rx="4.15" ry="3.12" fill="gray"/>
  <ellipse cx="39.45" cy="21.65" rx="4.15" ry="3.12" fill="gray"/>
  <ellipse cx="27.95" cy="25.48" rx="4.15" ry="3.12" fill="gray"/>
  <path d="M16.37,39.85c-2.7,0-4.9-1.74-4.9-3.87s2.2-3.87,4.9-3.87,4.9,1.74,4.9,3.87S19.07,39.85,16.37,39.85Zm0-6.24C14.53,33.61,13,34.7,13,36s1.56,2.37,3.4,2.37,3.4-1.08,3.4-2.37S18.21,33.61,16.37,33.61Z" fill="gray"/>
</svg>
