<?xml version="1.0" encoding="UTF-8"?>
<svg id="Layer_1" data-name="Layer 1" xmlns="http://www.w3.org/2000/svg" viewBox="0 0 72 72">
  <path d="M62.7,29.6c.7-.1,1.2-.8,1.2-1.5V10.2c0-.8-.7-1.5-1.5-1.5h-.3l-21.2,4c-.7.1-1.2.8-1.2,1.5v8.2l-7.7,1.5v-7.8c0-.8-.7-1.5-1.5-1.5h-.3l-21.2,4c-.7.1-1.2.8-1.2,1.5v17.9c0,.8.7,1.5,1.5,1.5h.3l21.2-4c.7-.1,1.2-.8,1.2-1.5v-8l7.7-1.5v7.5c0,.8.7,1.5,1.5,1.5h.3l9.9-1.9v7.8l-10.5,2c-.7.1-1.2.7-1.2,1.4v17.9c0,.8.7,1.5,1.5,1.5h.3l21.2-4c.7-.1,1.2-.7,1.2-1.4v-18c0-.8-.7-1.5-1.5-1.5h-.3l-8.8,1.6v-7.8l9.3-1.7.1.2ZM29,32.9l-18.2,3.4v-14.9l18.2-3.4v14.9ZM60.9,55.7l-18.2,3.4v-14.9l18.2-3.4s0,14.9,0,14.9ZM42.7,15.4l18.2-3.4v14.9l-18.2,3.4v-14.9Z"/>
  <path d="M22.6,26.8c0,1.5-1.1,2.7-2.6,2.9-1.3.2-2.4-.7-2.6-2v-.4c0-1.5,1.1-2.7,2.6-2.9,1.3-.2,2.4.7,2.6,2v.4Z"/>
  <path d="M55,20.8c0,1.5-1.1,2.7-2.6,2.9-1.3.2-2.4-.7-2.6-2v-.4c0-1.5,1.1-2.7,2.6-2.9,1.3-.2,2.4.7,2.6,2v.4Z"/>
  <path d="M55,49.4c0,1.5-1.1,2.7-2.6,2.9-1.3.2-2.4-.7-2.6-1.9v-.4c0-1.5,1.1-2.7,2.6-2.9,1.3-.2,2.4.7,2.6,2v.4-.1Z"/>
</svg>