<?xml version="1.0" encoding="UTF-8"?>
<svg id="Layer_1" xmlns="http://www.w3.org/2000/svg" version="1.1" viewBox="0 0 72 72">
  <!-- Generator: Adobe Illustrator 29.0.1, SVG Export Plug-In . SVG Version: 2.1.0 Build 192)  -->
  <path d="M34.7,61.8c-1.3,0-2.6-.3-3.7-1-3.1-2.2-2.7-6.7-2.4-10.6.2-2.5.4-5.5-.4-6.4,0,0-.3-.3-1.2-.3s-2.3.8-5.1,2.3h0c-5.7,2.9-12.3,1.5-15.2-3.3-1.9-3.5-2-7.7-.3-11.4,2.3-5.3,11.5-12.2,19.1-15.9,7.8-3.8,15.7-5.1,22.9-3.9,6.7,1.2,12.2,4.6,15.4,9.7,3,4.8,3.8,10.8,2,16.2-2.7,9-10.7,17.1-22.1,22.2-3.6,1.6-6.5,2.4-8.8,2.4ZM26.7,39.4c1.6-.1,3.1.5,4.2,1.6,2.1,2.2,1.8,6,1.5,9.6-.2,2.8-.5,6.3.8,7.2.6.4,2.5,1,8.8-1.8,10.5-4.7,17.9-12,20.3-20,1.5-4.4.9-9.3-1.6-13.2-6.7-10.5-22.1-10.2-33.9-4.5-7.7,3.8-15.7,10.3-17.5,14.2-1.1,2.5-1.1,5.3,0,7.8,1.9,3,6.2,3.9,10.2,1.9,3.2-1.8,5.4-2.9,7.1-2.9h0Z"/>
  <ellipse cx="49" cy="43.1" rx="4.2" ry="3.1"/>
  <ellipse cx="54.5" cy="34.1" rx="4.2" ry="3.1"/>
  <ellipse cx="51.3" cy="24.5" rx="4.2" ry="3.1"/>
  <ellipse cx="39.5" cy="21.6" rx="4.2" ry="3.1"/>
  <ellipse cx="28" cy="25.5" rx="4.2" ry="3.1"/>
  <path d="M16.4,39.8c-2.7,0-4.9-1.7-4.9-3.9s2.2-3.9,4.9-3.9,4.9,1.7,4.9,3.9-2.2,3.9-4.9,3.9ZM16.4,33.6c-1.8,0-3.4,1.1-3.4,2.4s1.6,2.4,3.4,2.4,3.4-1.1,3.4-2.4-1.6-2.4-3.4-2.4Z"/>
</svg>