<?xml version="1.0" encoding="UTF-8"?>
<svg id="Layer_1" xmlns="http://www.w3.org/2000/svg" version="1.1" viewBox="0 0 72 72">
  <!-- Generator: Adobe Illustrator 29.0.1, SVG Export Plug-In . SVG Version: 2.1.0 Build 192)  -->
  <ellipse cx="29.6" cy="36.6" rx="2" ry="1.5"/>
  <ellipse cx="32.2" cy="32.3" rx="2" ry="1.5"/>
  <ellipse cx="30.7" cy="27.9" rx="2" ry="1.5"/>
  <ellipse cx="25.2" cy="26.5" rx="2" ry="1.5"/>
  <ellipse cx="19.7" cy="28.3" rx="2" ry="1.5"/>
  <path d="M15.2,34.8c-1.1.6-2.4.3-2.9-.6s.1-2.1,1.2-2.7,2.4-.3,2.9.6c.5.9,0,2.1-1.2,2.7ZM13.6,32c-.9.5-1.4,1.4-1,2.1s1.4.9,2.4.4,1.4-1.4,1.1-2.1-1.4-.9-2.4-.3Z"/>
  <path d="M48.3,27.5h-5.9c-.3,0-.5-.2-.5-.5v-5.9c0-.3.2-.5.5-.5h5.9c.3,0,.5.2.5.5v5.9c0,.3-.2.5-.5.5ZM42.9,26.5h4.9v-4.9h-4.9v4.9Z"/>
  <path d="M57,27.5h-5.9c-.3,0-.5-.2-.5-.5v-5.9c0-.3.2-.5.5-.5h5.9c.3,0,.5.2.5.5v5.9c0,.3-.2.5-.5.5ZM51.6,26.5h4.9v-4.9h-4.9v4.9Z"/>
  <path d="M48.3,36h-5.9c-.3,0-.5-.2-.5-.5v-5.9c0-.3.2-.5.5-.5h5.9c.3,0,.5.2.5.5v5.9c0,.3-.2.5-.5.5ZM42.9,35h4.9v-4.9h-4.9v4.9Z"/>
  <path d="M57,36h-5.9c-.3,0-.5-.2-.5-.5v-5.9c0-.3.2-.5.5-.5h5.9c.3,0,.5.2.5.5v5.9c0,.3-.2.5-.5.5ZM51.6,35h4.9v-4.9h-4.9v4.9Z"/>
  <path d="M48.3,44.4h-5.9c-.3,0-.5-.2-.5-.5v-5.9c0-.3.2-.5.5-.5h5.9c.3,0,.5.2.5.5v5.9c0,.3-.2.5-.5.5ZM42.9,43.5h4.9v-4.9h-4.9v4.9Z"/>
  <path d="M57,44.4h-5.9c-.3,0-.5-.2-.5-.5v-5.9c0-.3.2-.5.5-.5h5.9c.3,0,.5.2.5.5v5.9c0,.3-.2.5-.5.5ZM51.6,43.5h4.9v-4.9h-4.9v4.9Z"/>
  <path d="M63,9.8H9c-.8,0-1.5.7-1.5,1.5v42.5c0,.8.7,1.5,1.5,1.5h25.4v6.4h-9.1c-.8,0-1.5.7-1.5,1.5s.7,1.5,1.5,1.5h21.1c.8,0,1.5-.7,1.5-1.5s-.7-1.5-1.5-1.5h-9v-6.4h25.6c.8,0,1.5-.7,1.5-1.5V11.3c0-.8-.7-1.5-1.5-1.5ZM61.5,52.3H10.5v-15.1c1.5,1.5,4.1,1.8,6.4.7,1.2-.8,2.1-1.2,2.4-1.2.4,0,.5,0,.6.1.4.4.3,1.9.2,3-.1,1.9-.3,4,1.2,5,.6.4,1.2.5,1.8.5,1,0,2.4-.4,4.1-1.2,5.4-2.4,9.1-6.1,10.4-10.4.9-2.6.5-5.4-.9-7.6-1.5-2.4-4-4-7.2-4.5-3.4-.5-7.1,0-10.8,1.9-3,1.4-6.4,3.9-8.1,6.1V12.8h51v39.5ZM21.2,35.5c-.5-.6-1.2-.8-2-.8-.8,0-1.8.5-3.3,1.3-1.9,1-3.9.5-4.7-.9-.7-1.2-.6-2.5,0-3.6.8-1.9,4.6-4.9,8.2-6.7,5.5-2.6,12.7-2.8,15.9,2.1,1.2,1.9,1.4,4.2.7,6.2-1.2,3.8-4.6,7.2-9.5,9.4-2.9,1.3-3.8,1-4.1.8-.6-.4-.4-2-.4-3.4.1-1.7.3-3.5-.7-4.5Z"/>
</svg>