<?xml version="1.0" encoding="utf-8"?>
<svg version="1.1" id="Layer_1" xmlns="http://www.w3.org/2000/svg" xmlns:xlink="http://www.w3.org/1999/xlink" viewBox="0 0 72 72">
<g>
	<path class="st0" d="M57.5,37.8h5.6c0.6,0,1-0.4,1-1V8.6c0-0.6-0.4-1-1-1H37c-0.6,0-1,0.4-1,1v12.1c-1.7,0.4-3.3,0.9-5,1.6V8.6
		c0-0.6-0.4-1-1-1H9c-0.6,0-1,0.4-1,1v28.1c0,0.6,0.4,1,1,1h6.2c0,1.5,0.3,3,1,4.3c0.1,0.2,0.2,0.3,0.3,0.5H9c-0.6,0-1,0.4-1,1V63
		c0,0.6,0.4,1,1,1h54.1c0.6,0,1-0.4,1-1V43.6c0-0.6-0.4-1-1-1h-7.6c0.8-1.3,1.4-2.7,1.8-4.1C57.4,38.2,57.4,38,57.5,37.8z M10,35.8
		V9.6h18.9v13.7c-5.2,2.6-11.3,7.3-12.9,10.9c-0.2,0.5-0.4,1.1-0.5,1.6H10z M62.1,44.6L62.1,44.6l0,17.4H10V44.6h9
		c2.3,1.2,5.2,1.2,7.9-0.2h0.1c1.9-1.1,3.1-1.6,3.5-1.6c0.6,0,0.8,0.2,0.8,0.2c0.6,0.6,0.4,2.8,0.3,4.5c-0.2,2.8-0.4,5.9,1.7,7.4
		c0.8,0.5,1.7,0.7,2.6,0.7c1.6,0,3.6-0.6,6.1-1.7c5.2-2.3,9.4-5.5,12.2-9.2H62.1z M55,37.6c-1.7,5.6-6.8,10.6-14.1,13.9
		c-4.3,2-5.7,1.5-6.1,1.3c-0.9-0.6-0.7-3-0.5-5c0.2-2.5,0.4-5.1-1.1-6.7c-0.8-0.8-1.8-1.2-2.9-1.1c-1.2,0-2.7,0.7-4.9,2
		c-2.7,1.4-5.8,0.8-7.1-1.3c-0.8-1.7-0.8-3.7,0-5.4c1.2-2.8,6.8-7.3,12.2-9.9c8.2-4,18.9-4.2,23.5,3.1C55.6,31.2,56,34.6,55,37.6z
		 M45.2,20.4c-2.3-0.4-4.8-0.4-7.3,0V9.6H38h24.1v26.1h-4.2c0.3-3-0.3-6-1.9-8.6C53.7,23.6,49.9,21.3,45.2,20.4z"/>
	<path class="st0" d="M30.3,40C30.3,40,30.3,40,30.3,40C30.3,40,30.3,40,30.3,40L30.3,40z"/>
</g>
<ellipse class="st0" cx="45.8" cy="42.6" rx="2.9" ry="2.2"/>
<ellipse class="st0" cx="49.6" cy="36.3" rx="2.9" ry="2.2"/>
<ellipse class="st0" cx="47.4" cy="29.7" rx="2.9" ry="2.2"/>
<ellipse class="st0" cx="39.2" cy="27.7" rx="2.9" ry="2.2"/>
<ellipse class="st0" cx="31.2" cy="30.3" rx="2.9" ry="2.2"/>
<g>
	<path class="st0" d="M23.1,40.3c-1.9,0-3.4-1.2-3.4-2.7c0-1.5,1.5-2.7,3.4-2.7s3.4,1.2,3.4,2.7C26.5,39.1,25,40.3,23.1,40.3z
		 M23.1,36c-1.3,0-2.4,0.8-2.4,1.6c0,0.9,1.1,1.6,2.4,1.6c1.3,0,2.4-0.8,2.4-1.6C25.5,36.7,24.4,36,23.1,36z"/>
</g>
</svg>
