<svg xmlns="http://www.w3.org/2000/svg" viewBox="0 0 72 72">
<path class="st0" d="M46.5,63.7H25.4v-3h9.1v-4.9H9.1c-0.8,0-1.5-0.7-1.5-1.5V10.7c0-0.8,0.7-1.5,1.5-1.5h54c0.8,0,1.5,0.7,1.5,1.5
	v43.6c0,0.8-0.7,1.5-1.5,1.5H37.5v4.9h9V63.7z M36,52.8h25.6V12.2h-51v40.6H36z"/>
<path class="st0" d="M27.7,38.5L24.4,38c-0.6-0.1-0.9-0.4-0.9-0.8c0-0.4,0.3-0.7,0.7-0.7h5.3v-2h-5.3c-1.5-0.1-2.9,1.1-3,2.6
	c-0.1,1.5,1.1,2.9,2.6,3l3.3,0.5c0.6,0.1,0.9,0.4,0.9,0.8c0,0.4-0.3,0.7-0.7,0.7l0,0h-3.9c-0.9,0-1.7,0.8-1.6,1.8c0,0,0,0,0,0.1V44
	h5.5c1.5,0.1,2.8-1,2.9-2.6C30.4,39.9,29.2,38.6,27.7,38.5L27.7,38.5z"/>
<path class="st0" d="M49,37.2v4.1c0,1.5,1.3,2.7,2.8,2.7c0,0,0,0,0.1,0h5.8v-0.2c0.1-0.9-0.6-1.7-1.6-1.8c0,0,0,0-0.1,0h-4.2
	c-0.4,0-0.7-0.3-0.7-0.7c0-0.4,0.3-0.8,0.7-0.8c0,0,0.1,0,0.1,0h1.8c1.3,0.1,2.5-0.8,2.8-2.1h-4.3c-0.5,0-0.9,0.2-1.1,0.6v-1.8
	c0-0.4,0.3-0.7,0.7-0.7h4.2c0.9,0,1.7-0.8,1.6-1.8c0,0,0,0,0-0.1v-0.2h-5.8C50.3,34.4,49,35.6,49,37.2C49,37.2,49,37.2,49,37.2z"/>
<path class="st0" d="M45.9,38.5L42.7,38c-0.6-0.1-0.8-0.4-0.8-0.8c0-0.4,0.3-0.7,0.7-0.7h5.3v-2h-5.3c-1.5-0.1-2.9,1-3,2.6
	c-0.1,1.5,1,2.9,2.6,3l3.3,0.5c0.6,0.1,0.8,0.4,0.8,0.8c0,0.4-0.3,0.7-0.7,0.7c0,0,0,0,0,0h-5.3v2h5.3c1.5,0.1,2.8-1,2.9-2.6
	S47.5,38.6,45.9,38.5L45.9,38.5z"/>
<path class="st0" d="M37,40.1c0,1.2-1,2.1-2.1,2.1s-2.1-1-2.1-2.1c0,0,0,0,0,0v-5.7h-2V40c0,2.3,1.9,4.2,4.2,4.2s4.2-1.9,4.2-4.2
	v-5.5H37V40.1z"/>
<path class="st0" d="M37.1,27.4c0.6,0.1,1.1-0.4,1.2-0.9c0.1-0.6-0.4-1.1-0.9-1.2c-0.1,0-0.1,0-0.2,0c-0.6,0-1.1,0.4-1.1,1
	C36,26.8,36.4,27.4,37.1,27.4C37.1,27.4,37.1,27.4,37.1,27.4z M37.3,25.8c0.3,0,0.5,0.1,0.5,0.3s-0.2,0.3-0.5,0.3s-0.5-0.1-0.5-0.3
	S37.1,25.8,37.3,25.8L37.3,25.8z"/>
<path class="st0" d="M39.7,27.8c0,0,0.2-0.1,0.2-0.2c-0.2-0.9-0.5-1.7-1-2.5c-0.1-0.1-0.2-0.3-0.4-0.4c-1.7-0.7-3.5-1.2-5.3-1.5l0,0
	c0,0,0,0.8,0,0.8c-1.8-0.6-3.7-1-5.7-1.1c-3.3-0.3-6.5,0.6-9.2,2.4l-0.1,0.1c-1.8,1-3.2,2.6-4,4.5c-0.4,1-0.4,2-0.2,3
	c0.1,0.5,0.4,1,0.7,1.5c0.8,1.1,1.9,1.7,3.2,1.8c1.6,0.3,3.2-0.7,3.7-2.3c0.4-1.3-0.1-2.7-1.3-3.4c-0.9-0.6-2-0.6-2.9-0.1
	c-0.6,0.4-0.9,1-0.9,1.6c0,1,0.8,1.7,1.7,1.8c0.2,0,0.4,0,0.6-0.1c0.1,0,0.2-0.1,0.2-0.1l0,0l0,0c0.3-0.2,0.4-0.5,0.2-0.8
	c-0.1-0.2-0.4-0.3-0.6-0.3l0,0h0h-0.1c-0.1,0-0.2,0-0.3,0c-0.3,0-0.5-0.3-0.5-0.6l0,0c0-0.1,0-0.2,0.1-0.3c0.2-0.3,0.6-0.4,1-0.4
	c0.6,0,1.1,0.4,1.4,1c0.3,0.6,0.2,1.2-0.2,1.8c-0.5,0.5-1.3,0.8-2,0.6c-1.5-0.2-2.6-1.5-2.5-3.1c0-0.3,0.1-0.6,0.3-0.9
	c0.7-1.3,2.2-1.9,3.7-1.6c2.1,0.5,3.8,2.2,4.2,4.3h1.9c-0.2-0.7-0.4-2.8,1.8-2.8c2.4,0,2.6,1.6,3.3,2.8h2c-0.5-0.6-0.8-1.5-0.8-2.3
	c0.2-1,1-1,2.2-0.8c0.4,0,0.8,0.1,1.2,0.1c1.1,0,2.2-0.2,3.2-0.6c0.4-0.1,0.8-0.3,1.1-0.6c0.1-0.1,0.1-0.2,0.2-0.3v-0.1
	c0-0.1,0.1-0.3,0.1-0.4s-0.1-0.1-0.1-0.1c-0.6,0.4-1.4,0.6-2.1,0.6c-1.2-0.2-2.3-0.5-3.4-1.1l0,0l-0.4-1c1.1,0.8,2.4,1.4,3.7,1.6
	C38.3,28.6,39.1,28.4,39.7,27.8z M35.5,26.3c0-0.9,0.7-1.5,1.6-1.5c0.9,0,1.5,0.7,1.5,1.6c0,0.9-0.7,1.5-1.6,1.5c0,0,0,0,0,0
	C36.2,27.9,35.5,27.1,35.5,26.3z"/>
<rect x="0.4" y="0.4" class="st1" width="71.3" height="71.3"/>
</svg>
