<svg xmlns="http://www.w3.org/2000/svg" viewBox="0 0 72 72">
  <defs>
    <style>
      .st0 {
        fill: none;
      }
    </style>
  </defs>
  <path d="M67.6,8.3c-.3-.7-1-1.2-1.8-1.2H6.4c-1.1,0-2,.9-2,2,0,.5.2.9.5,1.3l22,26.9v26.1c0,1.1.9,2,2,2,.3,0,.5,0,.8-.2l13.3-5.7c.7-.3,1.2-1,1.2-1.8v-7.7h17.1c1.3,0,2.3-1.1,2.3-2.3v-24.9c0-1.3-1.1-2.4-2.3-2.4h-3.2l9.1-10.1c.5-.6.7-1.4.3-2.1ZM52.5,20.6h-14.5l-3.7-3.7c0,0-.2-.1-.3-.1,0,0-.2,0-.3.1l-1.8,1.9c-.1.1-.1.4,0,.5,0,0,0,0,0,0l19.3,19.2s0,0,.2,0l3.3,1.5h0c.2,0,.4-.2.4-.4,0,0,0,0,0-.1l-1.5-3.3s0,0,0-.1l-13.3-13.2h20.9v24.8h-24.1v-17.6l-2.4-2.4v20c0,1.3,1.1,2.3,2.3,2.3h3v6.4l-9.3,4v-23.8c0-.5-.2-.9-.5-1.3L10.6,11.1h50.6l-8.7,9.4Z"/>
  <rect class="st0" x=".4" y=".4" width="71.3" height="71.3"/>
</svg>