<?xml version="1.0" encoding="UTF-8"?>
<svg xmlns="http://www.w3.org/2000/svg" viewBox="0 0 72 72">
  <path d="M28.14,67.87c-1.1,0-2-.9-2-2v-9.09h-13.85c-3.12,0-5.65-2.53-5.65-5.65,0-.04,0-.09,0-.13V12.68c-.06-3.12,2.42-5.7,5.54-5.76.04,0,.08,0,.12,0h47.2c3.17.02,5.72,2.59,5.71,5.76v38.32c.01,3.17-2.54,5.74-5.71,5.76h-15.92l-14.24,10.71c-.35.26-.77.4-1.2.4ZM12.29,10.93c-.92,0-1.67.76-1.66,1.68,0,.03,0,.05,0,.08v38.31c-.05.92.66,1.71,1.58,1.76.03,0,.05,0,.08,0h15.83c2,0,2,1.65,2,3.73v5.36l11.57-8.69c.35-.26.77-.4,1.2-.4h16.6c.94,0,1.71-.76,1.71-1.71,0-.02,0-.03,0-.05V12.68c.03-.94-.72-1.73-1.66-1.76-.02,0-.03,0-.05,0H12.29Z"/>
  <path d="M49.06,39.62c-.09-.51-.25-1.59-1.52-2.3-1.28-.69-2.46-1.24-3.51-1.7-1.13-.51-2.11-.96-2.66-1.36-.25-.43-.6-1.98-.58-2.39.02-.11.18-.64,1.42-2.48l.09-.14c.34-.5.87-1.7.87-2.75,0-.41-.09-.83-.21-1.38-.18-.81-.39-1.82-.43-3.24-.02-1.01-.67-2.07-1.84-2.99-1.17-.92-3.14-1.84-4.87-1.45-1.68.37-2.3.32-2.66.28-.51-.05-.89-.05-1.56.37-.94.6-1.82,1.84-2.11,2.94-.57,2.32-.57,3.06-.57,4v.18c0,.43-.04.55-.07.69-.05.23-.11.46-.11.92,0,1.03.5,1.9.87,2.44.07.09.19.25.34.46.28.39,1.19,1.59,1.28,1.93.05.53-.35,2.23-.62,2.66-.51.37-1.38.74-2.37,1.19-1.06.46-2.37,1.05-3.76,1.82-1.29.73-1.43,1.74-1.51,2.23v.11c-.09.46-.19,4-.23,5.07,0,.25.09.51.27.69s.43.28.67.28h24.66c.25,0,.5-.11.67-.28s.27-.43.27-.69c-.04-1.08-.16-4.61-.23-5.12l.02.02ZM24.63,43.84h.02c.07-1.86.14-3.65.18-3.88v-.12c.07-.35.11-.57.58-.85,1.29-.73,2.5-1.26,3.58-1.74,1.2-.53,2.16-.94,2.83-1.45.9-.69,1.36-3.53,1.29-4.27-.05-.67-.62-1.54-1.65-2.91-.12-.16-.23-.3-.28-.37-.27-.39-.55-.89-.55-1.4,0-.27.02-.35.05-.5.05-.27.11-.53.11-1.13v-.18c0-.87,0-1.45.51-3.54.16-.64.73-1.47,1.28-1.81.12-.09.19-.11.19-.11h.19c.48.05,1.29.12,3.26-.32.87-.19,2.23.25,3.31,1.1.78.6,1.13,1.22,1.13,1.54.04,1.61.28,2.76.48,3.61.09.41.18.78.18.97,0,.58-.37,1.42-.55,1.72l-.09.12c-1.22,1.81-1.7,2.76-1.74,3.42-.04.5.35,3.26,1.28,3.99.71.55,1.74,1.01,3.05,1.59,1.01.46,2.18.99,3.38,1.65.46.25.5.53.57.97.04.25.11,2.04.18,3.88h-22.78Z"/>
</svg>