<svg xmlns="http://www.w3.org/2000/svg" viewBox="0 0 72 72">
  <path d="M46.5,63.7H25.4v-3h9.1V55.8H9.1a1.54,1.54,0,0,1-1.5-1.5V10.7A1.54,1.54,0,0,1,9.1,9.2h54a1.54,1.54,0,0,1,1.5,1.5V54.3a1.54,1.54,0,0,1-1.5,1.5H37.5v4.9h9ZM36,52.8H61.6V12.2h-51V52.8Z"/>
  <path d="M27.7,38.5,24.4,38c-.6-.1-.9-.4-.9-.8a.68.68,0,0,1,.7-.7h5.3v-2H24.2a2.81,2.81,0,1,0-.4,5.6l3.3.5c.6.1.9.4.9.8a.68.68,0,0,1-.7.7H23.4a1.63,1.63,0,0,0-1.6,1.8V44h5.5a2.71,2.71,0,0,0,2.9-2.6,2.63,2.63,0,0,0-2.5-2.9Z"/>
  <path d="M49,37.2v4.1A2.78,2.78,0,0,0,51.8,44h5.9v-.2A1.68,1.68,0,0,0,56.1,42H51.8a.68.68,0,0,1-.7-.7.77.77,0,0,1,.7-.8h1.9a2.7,2.7,0,0,0,2.8-2.1H52.2a1.15,1.15,0,0,0-1.1.6V37.2a.68.68,0,0,1,.7-.7H56a1.63,1.63,0,0,0,1.6-1.8v-.3H51.8A2.8,2.8,0,0,0,49,37.2Z"/>
  <path d="M45.9,38.5,42.7,38c-.6-.1-.8-.4-.8-.8a.68.68,0,0,1,.7-.7h5.3v-2H42.6a2.81,2.81,0,0,0-.4,5.6l3.3.5c.6.1.8.4.8.8a.68.68,0,0,1-.7.7H40.3v2h5.3a2.71,2.71,0,0,0,2.9-2.6,2.74,2.74,0,0,0-2.6-3Z"/>
  <path d="M37,40.1a2.11,2.11,0,0,1-2.1,2.1,2.18,2.18,0,0,1-2.1-2.1h0V34.4h-2V40a4.2,4.2,0,0,0,8.4,0V34.5H37Z"/>
  <path d="M37.1,27.4a1.06,1.06,0,1,0,.3-2.1h-.2a1,1,0,0,0-1.1,1,1,1,0,0,0,1,1.1Zm.2-1.6c.3,0,.5.1.5.3s-.2.3-.5.3-.5-.1-.5-.3.3-.3.5-.3Z"/>
  <path d="M39.7,27.8s.2-.1.2-.2a7.71,7.71,0,0,0-1-2.5c-.1-.1-.2-.3-.4-.4a24.62,24.62,0,0,0-5.3-1.5h0V24a21.34,21.34,0,0,0-5.7-1.1,14.21,14.21,0,0,0-9.2,2.4l-.1.1a9.23,9.23,0,0,0-4,4.5,5.15,5.15,0,0,0-.2,3,5.07,5.07,0,0,0,.7,1.5,4.23,4.23,0,0,0,3.2,1.8,3.29,3.29,0,0,0,3.7-2.3,2.91,2.91,0,0,0-1.3-3.4,2.76,2.76,0,0,0-2.9-.1,1.92,1.92,0,0,0-.9,1.6,1.84,1.84,0,0,0,1.7,1.8,1.27,1.27,0,0,0,.6-.1.35.35,0,0,0,.2-.1h0a.54.54,0,0,0,.2-.8.71.71,0,0,0-.6-.3h-.4a.56.56,0,0,1-.5-.6h0a.37.37,0,0,1,.1-.3,1.16,1.16,0,0,1,1-.4,1.61,1.61,0,0,1,1.4,1A1.7,1.7,0,0,1,20,34a2.13,2.13,0,0,1-2,.6,2.89,2.89,0,0,1-2.5-3.1,1.61,1.61,0,0,1,.3-.9A3.37,3.37,0,0,1,19.5,29a5.6,5.6,0,0,1,4.2,4.3h1.9c-.2-.7-.4-2.8,1.8-2.8,2.4,0,2.6,1.6,3.3,2.8h2a3.78,3.78,0,0,1-.8-2.3c.2-1,1-1,2.2-.8.4,0,.8.1,1.2.1a8.66,8.66,0,0,0,3.2-.6,2.38,2.38,0,0,0,1.1-.6c.1-.1.1-.2.2-.3v-.1c0-.1.1-.3.1-.4a.1.1,0,0,0-.1-.1,3.94,3.94,0,0,1-2.1.6,10.42,10.42,0,0,1-3.4-1.1h0l-.4-1a8.71,8.71,0,0,0,3.7,1.6A1.89,1.89,0,0,0,39.7,27.8Zm-4.2-1.5A1.55,1.55,0,1,1,37,27.9h0A1.63,1.63,0,0,1,35.5,26.3Z"/>
</svg>
