<svg xmlns="http://www.w3.org/2000/svg" viewBox="0 0 72 72">
  <title>app - thick</title>
  <path d="M53.33,65.51H19.15a12,12,0,0,1-12-12V19.34a12,12,0,0,1,12-12H53.33a12,12,0,0,1,12,12V53.51A12,12,0,0,1,53.33,65.51ZM19.15,11.34a8,8,0,0,0-8,8V53.51a8,8,0,0,0,8,8H53.33a8,8,0,0,0,8-8V19.34a8,8,0,0,0-8-8Z" fill="gray"/>
  <path d="M55.67,23.64a1.5,1.5,0,0,0-.45-1.06l-6-5.8a1.5,1.5,0,0,0-2.11,0l-7.06,7.12a24.9,24.9,0,0,0-12.75-3.79V17.9a.5.5,0,0,0-.5-.5H23.42a.5.5,0,0,0-.5.5V41.22L21.19,43a1.51,1.51,0,0,0-.32.48l-4.19,10a1.5,1.5,0,0,0,2,2L28.79,51.2a1.5,1.5,0,0,0,.49-.33l1.61-1.63H54.27a.5.5,0,0,0,.5-.5V45.33a.5.5,0,0,0-.5-.5H52a24.89,24.89,0,0,0-3.92-12.95l7.11-7.17A1.5,1.5,0,0,0,55.67,23.64Zm-9.89-1.21L48.23,20,52,23.67l-2.45,2.47Zm2.4,5.13-20.82,21-6.51,2.68,2.67-6.36,20.85-21ZM27.34,26.07a19.1,19.1,0,0,1,8.43,2.2l-8.43,8.5ZM46.1,44.83H35.28l8.54-8.6A19.09,19.09,0,0,1,46.1,44.83Z" fill="gray"/>
</svg>
