<svg xmlns="http://www.w3.org/2000/svg" viewBox="0 0 72 72">
  <path d="M45.78,53.79H38.31V46.32a1.5,1.5,0,1,0-3,0v7.47H27.84a1.5,1.5,0,1,0,0,3h7.47v7.47a1.5,1.5,0,0,0,3,0V56.79h7.47a1.5,1.5,0,0,0,0-3Z" />
  <path d="M62.93,63.38H51.12v-3H61.39c-.13-4.51-.29-9.08-.36-9.63l0-.1a2.39,2.39,0,0,0-1.3-2.1A65.26,65.26,0,0,0,51.39,45,28,28,0,0,1,45,42.15c-1.74-1.25-2.47-6.68-2.42-7.6.06-1.24,1.05-3.15,3.4-6.62l.17-.27a8.13,8.13,0,0,0,1.16-3.6,1.72,1.72,0,0,0-.15-.92,5.45,5.45,0,0,1-.44-1.55c-.07-.52-.15-.86-.22-1.19A24.28,24.28,0,0,1,46.08,15c0-.93-.93-2.21-2.38-3.35-2.22-1.74-5.05-2.68-6.88-2.27a18,18,0,0,1-6.35.63,1,1,0,0,0-1,.24A7.22,7.22,0,0,0,26.8,14a23.65,23.65,0,0,0-1,7.16v.35a7.79,7.79,0,0,1-.23,2.17,3.93,3.93,0,0,0-.11,1.05,5.72,5.72,0,0,0,1.16,3c.11.16.31.43.57.77,2,2.66,3.09,4.34,3.19,5.58.12,1.45-.82,6.93-2.42,8.15-1.27,1-3.57,1.72-6.49,2.67a52.12,52.12,0,0,0-9.2,3.64,2.14,2.14,0,0,0-1.3,2l0,.26c-.07.54-.23,5.11-.36,9.62H20.85v3H9a1.5,1.5,0,0,1-1.07-.46,1.47,1.47,0,0,1-.43-1.08c.07-2.48.3-10.64.44-11.54l0-.21a5.05,5.05,0,0,1,2.79-4.16,53.77,53.77,0,0,1,9.76-3.88,27.94,27.94,0,0,0,5.53-2.15,15.15,15.15,0,0,0,1.31-5.58c-.14-.73-2-3.21-2.6-4-.3-.4-.54-.72-.66-.91a8.5,8.5,0,0,1-1.67-4.66,6.48,6.48,0,0,1,.2-1.75,5.43,5.43,0,0,0,.14-1.47v-.35c0-1.91,0-3.29,1.12-7.87a10.11,10.11,0,0,1,4-5.62A3.77,3.77,0,0,1,30.75,7a15.24,15.24,0,0,0,5.42-.56c3.32-.74,7.13,1.06,9.39,2.83S49,13,49.08,14.9a20.48,20.48,0,0,0,.4,4.86c.08.39.17.79.25,1.4a2.17,2.17,0,0,0,.22.76,4.54,4.54,0,0,1,.4,2.14,11,11,0,0,1-1.66,5.26l-.19.29c-2.59,3.82-2.86,4.87-2.89,5.1a15.66,15.66,0,0,0,1.24,5,28.2,28.2,0,0,0,5.58,2.44,66.19,66.19,0,0,1,8.71,3.72A5.3,5.3,0,0,1,64,50.2c.15,1,.38,9.16.45,11.64A1.47,1.47,0,0,1,64,62.92,1.5,1.5,0,0,1,62.93,63.38ZM46.66,39.63Z" />
</svg>
