<svg xmlns="http://www.w3.org/2000/svg" viewBox="0 0 72 72">
  <path d="M53,64.5H18.8c-6.4,0-11.5-5.2-11.5-11.5,0,0,0,0,0,0V18.9c0-6.3,5.2-11.5,11.5-11.5h34.2c6.3,0,11.5,5.2,11.5,11.5v34.1c0,6.4-5.1,11.5-11.5,11.5,0,0,0,0,0,0ZM18.8,10.4c-4.7,0-8.5,3.8-8.5,8.5v34.1c0,4.7,3.8,8.5,8.5,8.5h34.2c4.7,0,8.5-3.8,8.5-8.5V18.9c0-4.7-3.8-8.5-8.5-8.5H18.8Z"/>
  <path d="M54.1,44.4h-2.2c0-5-1.7-9.9-4.6-14l6.9-7c.4-.4.4-1,0-1.4,0,0,0,0,0,0l-4.8-4.7c-.4-.4-1-.4-1.4,0l-6.9,6.9c-4.1-2.9-8.9-4.4-13.9-4.5v-2.2c0-.3-.2-.5-.5-.5h-3.4c-.3,0-.5.2-.5.5v25.2l-2.4,2.4c0,0-.2.2-.2.3l-3.4,8.1c-.2.5,0,1.1.6,1.3.2,0,.5,0,.7,0l8.2-3.4c.1,0,.2-.1.3-.2l2.3-2.3h25.2c.3,0,.5-.2.5-.5v-3.4c0-.3-.2-.5-.5-.5ZM48.6,19.4l3.4,3.3-2.2,2.2-3.4-3.3,2.2-2.2ZM27.1,25.6c3.4,0,6.7,1.1,9.6,2.9l-9.6,9.7v-12.6ZM25.3,49.6l-5.8,2.4,2.4-5.7,23.5-23.7,3.4,3.3-23.5,23.6ZM33.3,44.4l9.7-9.8c1.8,2.9,2.9,6.3,2.9,9.7h-12.6Z"/>
</svg>