<svg xmlns="http://www.w3.org/2000/svg" viewBox="0 0 72 72"><title>1-icons_special</title><path d="M36.32,64.35A28.32,28.32,0,1,1,64.64,36,28.35,28.35,0,0,1,36.32,64.35Zm0-53.64A25.32,25.32,0,1,0,61.64,36,25.35,25.35,0,0,0,36.32,10.71Z" fill="gray"/><path d="M46.87,51.16h-21a12.55,12.55,0,0,1,1.85-6.69,16.9,16.9,0,0,1,4.93-5q1.5-1.1,3.12-2.13a24.74,24.74,0,0,0,3-2.22A11.87,11.87,0,0,0,41,32.57a6.11,6.11,0,0,0,.92-3.19,8.73,8.73,0,0,0-.2-1.78,4.72,4.72,0,0,0-.77-1.76,4.54,4.54,0,0,0-1.58-1.36,5.52,5.52,0,0,0-2.64-.55,4.76,4.76,0,0,0-2.49.59,4.45,4.45,0,0,0-1.58,1.63,8.13,8.13,0,0,0-.88,2.44,17.67,17.67,0,0,0-.33,3h-5a15.75,15.75,0,0,1,.68-4.73,10.49,10.49,0,0,1,2-3.76,9.65,9.65,0,0,1,3.32-2.49,10.79,10.79,0,0,1,4.55-.9,10.7,10.7,0,0,1,4.71.92A9.06,9.06,0,0,1,44.78,23a8.54,8.54,0,0,1,1.65,3.06,11.16,11.16,0,0,1,.48,3.15,9.31,9.31,0,0,1-.57,3.34A10.77,10.77,0,0,1,44.8,35.3a15.63,15.63,0,0,1-2.2,2.31q-1.23,1.06-2.55,2t-2.64,1.76Q36.09,42.18,35,43a14.36,14.36,0,0,0-2,1.74,4.93,4.93,0,0,0-1.14,1.91h15Z" fill="gray"/></svg>