<svg xmlns="http://www.w3.org/2000/svg" viewBox="0 0 72 72"><title>1-icons_special</title><path d="M44.78,48H24.38a19.24,19.24,0,0,1-19-19.39,19.24,19.24,0,0,1,19-19.39H55.75v3H24.38c-8.7,0-16,7.5-16,16.39S15.69,45,24.38,45h20.4Z" fill="gray"/><path d="M23.65,33.77a5.2,5.2,0,1,1,5.2-5.2A5.2,5.2,0,0,1,23.65,33.77Zm0-8.39a3.2,3.2,0,1,0,3.2,3.2A3.2,3.2,0,0,0,23.65,25.38Z" fill="gray"/><path d="M51.67,33.77a5.2,5.2,0,1,1,5.2-5.2A5.2,5.2,0,0,1,51.67,33.77Zm0-8.39a3.2,3.2,0,1,0,3.2,3.2A3.2,3.2,0,0,0,51.67,25.38Z" fill="gray"/><path d="M37.59,33.77a5.2,5.2,0,1,1,5.2-5.2A5.2,5.2,0,0,1,37.59,33.77Zm0-8.39a3.2,3.2,0,1,0,3.2,3.2A3.2,3.2,0,0,0,37.59,25.38Z" fill="gray"/><path d="M57.41,52.92,63,47.37a1.5,1.5,0,0,0-2.12-2.12L55.29,50.8l-5.55-5.55a1.5,1.5,0,0,0-2.12,2.12l5.55,5.55-5.55,5.55a1.5,1.5,0,1,0,2.12,2.12L55.29,55l5.55,5.55A1.5,1.5,0,0,0,63,58.47Z" fill="gray"/><rect x="0.36" y="0.36" width="71.28" height="71.28" fill="none"/></svg>