<svg xmlns="http://www.w3.org/2000/svg" viewBox="0 0 72 72"><title>1-icons_special</title><path d="M46,55.27H38.51V47.8a1.5,1.5,0,0,0-3,0v7.47H28a1.5,1.5,0,0,0,0,3h7.47v7.47a1.5,1.5,0,0,0,3,0V58.27H46a1.5,1.5,0,1,0,0-3Z" fill="gray"/><path d="M63.31,63.32H51.5v-3H61.77c-.13-4.51-.29-9.08-.36-9.63l0-.1a2.37,2.37,0,0,0-1.3-2.1A64.79,64.79,0,0,0,51.77,45a27.86,27.86,0,0,1-6.34-2.86c-1.74-1.25-2.47-6.68-2.43-7.61a2.84,2.84,0,0,1,1.45-2.3,1.45,1.45,0,0,0,.78-1.32,9.69,9.69,0,0,1,1.34-3.26A8.22,8.22,0,0,0,47.73,24a1.75,1.75,0,0,0-.15-.92,5.23,5.23,0,0,1-.44-1.55c-.07-.52-.15-.86-.22-1.19a23.67,23.67,0,0,1-.47-5.44c0-.92-1-2.23-2.38-3.35C41.86,9.8,39,8.87,37.2,9.27a18.19,18.19,0,0,1-6.35.63,1,1,0,0,0-1,.24,7.2,7.2,0,0,0-2.7,3.8,23.87,23.87,0,0,0-1,7.15v.35a8.14,8.14,0,0,1-.22,2.17,3.63,3.63,0,0,0-.11,1.05,5.71,5.71,0,0,0,1.16,3,3,3,0,0,0,.57.56,2.64,2.64,0,0,1,1.16,1.89,2.14,2.14,0,0,0,.82,1.67A3.48,3.48,0,0,1,30.73,34c.12,1.45-.82,6.93-2.42,8.15-1.27,1-3.58,1.72-6.49,2.67a51.88,51.88,0,0,0-9.2,3.64,2.15,2.15,0,0,0-1.3,2l0,.26c-.07.55-.23,5.11-.36,9.62H21.23v3H9.38a1.5,1.5,0,0,1-1.5-1.54c.07-2.48.3-10.64.44-11.54l0-.21a5.06,5.06,0,0,1,2.8-4.16A54.08,54.08,0,0,1,20.89,42a27.28,27.28,0,0,0,5.53-2.15,15.13,15.13,0,0,0,1.31-5.57s-.22-.23-.35-.37a5.08,5.08,0,0,1-1.66-3.27l-.12-.1a5.65,5.65,0,0,1-1.13-1.19,8.68,8.68,0,0,1-1.66-4.66,6.52,6.52,0,0,1,.2-1.75,5.19,5.19,0,0,0,.14-1.47V21.1a26.51,26.51,0,0,1,1.12-7.87,10.17,10.17,0,0,1,4-5.62,3.8,3.8,0,0,1,2.86-.69,15.57,15.57,0,0,0,5.41-.57c3.32-.74,7.13,1.06,9.39,2.84s3.49,3.76,3.52,5.65a21.41,21.41,0,0,0,.4,4.87c.08.38.17.79.26,1.4a2.3,2.3,0,0,0,.21.76A4.53,4.53,0,0,1,50.73,24a11,11,0,0,1-1.66,5.27,7.34,7.34,0,0,0-.87,2,4.32,4.32,0,0,1-2.07,3.41l-.15.1a15.94,15.94,0,0,0,1.24,4.94,28.4,28.4,0,0,0,5.58,2.44,67.13,67.13,0,0,1,8.71,3.72,5.31,5.31,0,0,1,2.83,4.29c.15,1,.38,9.15.45,11.63a1.5,1.5,0,0,1-1.5,1.54ZM47,39.57h0Z" fill="gray"/><rect x="0.36" y="0.36" width="71.28" height="71.28" fill="none"/></svg>