<svg xmlns="http://www.w3.org/2000/svg" viewBox="0 0 72 72"><title>1-icons_special</title><path d="M36.22,64.35A28.32,28.32,0,1,1,64.54,36,28.35,28.35,0,0,1,36.22,64.35Zm0-53.64A25.32,25.32,0,1,0,61.54,36,25.35,25.35,0,0,0,36.22,10.71Z" fill="gray"/><path d="M40.94,28.15a4.8,4.8,0,0,0-1.34-3.06,4.25,4.25,0,0,0-3.15-1.17,4.94,4.94,0,0,0-4,1.85,7,7,0,0,0-1.1,1.91,15.66,15.66,0,0,0-.68,2.27,19.16,19.16,0,0,0-.37,2.35q-.11,1.17-.2,2.18l.09.09A6.49,6.49,0,0,1,33,31.82a8.42,8.42,0,0,1,3.85-.9,10.1,10.1,0,0,1,4.09.79A8.89,8.89,0,0,1,44,33.89a9.45,9.45,0,0,1,1.91,3.28,12.34,12.34,0,0,1,.66,4.09,11.64,11.64,0,0,1-.73,4.16,9.87,9.87,0,0,1-2.09,3.34A9.54,9.54,0,0,1,40.46,51a10.72,10.72,0,0,1-4.18.79,11,11,0,0,1-5.57-1.25,9.18,9.18,0,0,1-3.43-3.43A15.07,15.07,0,0,1,25.54,42a38.66,38.66,0,0,1-.48-6.31,27.06,27.06,0,0,1,.59-5.59,16.87,16.87,0,0,1,2-5.13,11.28,11.28,0,0,1,3.59-3.76,9.81,9.81,0,0,1,5.48-1.45,9.75,9.75,0,0,1,3.48.62A9.37,9.37,0,0,1,43,22.07a8.86,8.86,0,0,1,2,2.64A8.26,8.26,0,0,1,46,28.15ZM36.1,47.59A4.91,4.91,0,0,0,38.48,47a5.35,5.35,0,0,0,1.69-1.43,5.94,5.94,0,0,0,1-2,8.77,8.77,0,0,0,.33-2.4,8.54,8.54,0,0,0-.33-2.38,5.74,5.74,0,0,0-1-2,5.24,5.24,0,0,0-1.69-1.39,5.07,5.07,0,0,0-2.38-.53,5.4,5.4,0,0,0-2.4.51A5.13,5.13,0,0,0,32,36.75a5.81,5.81,0,0,0-1.06,2,8.51,8.51,0,0,0,0,4.84,6.3,6.3,0,0,0,1.06,2,5.13,5.13,0,0,0,1.74,1.43A5.21,5.21,0,0,0,36.1,47.59Z" fill="gray"/></svg>