<svg xmlns="http://www.w3.org/2000/svg" viewBox="0 0 72 72">
  <title>app - thin</title>
  <path d="M53,64.54H18.81A11.51,11.51,0,0,1,7.31,53V18.86a11.51,11.51,0,0,1,11.5-11.5H53a11.51,11.51,0,0,1,11.5,11.5V53A11.51,11.51,0,0,1,53,64.54ZM18.81,10.36a8.51,8.51,0,0,0-8.5,8.5V53a8.51,8.51,0,0,0,8.5,8.5H53a8.51,8.51,0,0,0,8.5-8.5V18.86a8.51,8.51,0,0,0-8.5-8.5Z" fill="gray"/>
  <path d="M54.07,44.4H51.85a24.93,24.93,0,0,0-4.61-14l6.92-7a1,1,0,0,0,0-1.42l-4.83-4.7a1,1,0,0,0-1.41,0L41,24.22A24.94,24.94,0,0,0,27.15,19.7V17.47a.5.5,0,0,0-.5-.5H23.23a.5.5,0,0,0-.5.5V42.65l-2.4,2.41a1,1,0,0,0-.21.32l-3.39,8.08A1,1,0,0,0,18,54.77l8.22-3.39a1,1,0,0,0,.33-.22l2.33-2.35H54.07a.5.5,0,0,0,.5-.5V44.9A.5.5,0,0,0,54.07,44.4Zm-5.44-25L52,22.73l-2.18,2.19-3.39-3.3ZM27.15,25.64a19.12,19.12,0,0,1,9.63,2.88L27.15,38.2Zm-1.84,24L19.51,52l2.38-5.67L45.4,22.68,48.79,26Zm8-5.21L43,34.68a19.11,19.11,0,0,1,2.94,9.72Z" fill="gray"/>
</svg>
