<svg xmlns="http://www.w3.org/2000/svg" viewBox="0 0 72 72"><title>1-icons_special</title><path d="M36,64.35A28.32,28.32,0,1,1,64.32,36,28.35,28.35,0,0,1,36,64.35Zm0-53.64A25.32,25.32,0,1,0,61.32,36,25.35,25.35,0,0,0,36,10.71Z" fill="gray"/><path d="M36,51.77a13.74,13.74,0,0,1-4.33-.66,10,10,0,0,1-3.45-1.91A8.72,8.72,0,0,1,26,46.14a9.73,9.73,0,0,1-.81-4,7.79,7.79,0,0,1,1.52-4.88,7.27,7.27,0,0,1,4.11-2.64v-.09A6.56,6.56,0,0,1,27.57,32a6.75,6.75,0,0,1-1.12-3.89A7.86,7.86,0,0,1,28.94,22q2.49-2.22,7.11-2.22T43.15,22a7.86,7.86,0,0,1,2.49,6.18A6.75,6.75,0,0,1,44.51,32a6.56,6.56,0,0,1-3.23,2.44v.09a7.27,7.27,0,0,1,4.11,2.64,7.79,7.79,0,0,1,1.52,4.88,9.74,9.74,0,0,1-.81,4,8.72,8.72,0,0,1-2.27,3.06,10,10,0,0,1-3.45,1.91A13.76,13.76,0,0,1,36,51.77Zm0-4a6,6,0,0,0,4.18-1.5,5.37,5.37,0,0,0,1.67-4.22,5,5,0,0,0-1.67-4A6.21,6.21,0,0,0,36,36.68a6.21,6.21,0,0,0-4.18,1.43,5,5,0,0,0-1.67,4,5.37,5.37,0,0,0,1.67,4.22A6,6,0,0,0,36,47.81ZM36,23.7a5.09,5.09,0,0,0-3.43,1.21,4.36,4.36,0,0,0-1.41,3.5,4.18,4.18,0,0,0,1.36,3.37A5.16,5.16,0,0,0,36,32.94a5.16,5.16,0,0,0,3.48-1.17,4.18,4.18,0,0,0,1.36-3.37,4.36,4.36,0,0,0-1.41-3.5A5.09,5.09,0,0,0,36,23.7Z" fill="gray"/></svg>