<svg xmlns="http://www.w3.org/2000/svg" viewBox="0 0 72 72"><title>1-icons_special</title><path d="M36.28,64.35A28.32,28.32,0,1,1,64.6,36,28.35,28.35,0,0,1,36.28,64.35Zm0-53.64A25.32,25.32,0,1,0,61.6,36,25.35,25.35,0,0,0,36.28,10.71Z" fill="gray"/><path d="M25.62,20.36H46.7v4.18a54.84,54.84,0,0,0-4.4,5.65,41.28,41.28,0,0,0-3.45,6.2,42,42,0,0,0-2.4,6.93,45.54,45.54,0,0,0-1.23,7.83h-5.5A36.79,36.79,0,0,1,31,43.94,44.29,44.29,0,0,1,33.52,37a47.59,47.59,0,0,1,3.63-6.42,54.52,54.52,0,0,1,4.44-5.76h-16Z" fill="gray"/></svg>