<svg xmlns="http://www.w3.org/2000/svg" viewBox="0 0 72 72"><title>1-icons_special</title><path d="M44.77,48.37H25.61A19.74,19.74,0,0,1,6.07,28.49,19.74,19.74,0,0,1,25.61,8.6H57.47v4H25.61c-8.42,0-15.54,7.27-15.54,15.89s7.12,15.89,15.54,15.89H44.77Z" fill="gray"/><path d="M24.88,33.69a5.2,5.2,0,1,1,5.2-5.2A5.2,5.2,0,0,1,24.88,33.69Zm0-8.39a3.2,3.2,0,1,0,3.2,3.2A3.2,3.2,0,0,0,24.88,25.3Z" fill="gray"/><path d="M52.89,33.69a5.2,5.2,0,1,1,5.2-5.2A5.2,5.2,0,0,1,52.89,33.69Zm0-8.39a3.2,3.2,0,1,0,3.2,3.2A3.2,3.2,0,0,0,52.89,25.3Z" fill="gray"/><path d="M38.81,33.69A5.2,5.2,0,1,1,44,28.5,5.2,5.2,0,0,1,38.81,33.69Zm0-8.39A3.2,3.2,0,1,0,42,28.5,3.2,3.2,0,0,0,38.81,25.3Z" fill="gray"/><path d="M58.66,52.92l5.2-5.2A2,2,0,0,0,61,44.9l-5.2,5.2-5.2-5.2a2,2,0,0,0-2.83,2.83l5.2,5.2-5.2,5.2a2,2,0,1,0,2.83,2.83l5.2-5.2,5.2,5.2a2,2,0,0,0,2.83-2.83Z" fill="gray"/><rect x="0.36" y="0.36" width="71.28" height="71.28" fill="none"/></svg>