<svg xmlns="http://www.w3.org/2000/svg" viewBox="0 0 72 72">
  <title>queue-list-add</title>
  <path d="M52.46,47.26H19.68a1.5,1.5,0,0,1,0-3H52.46a1.5,1.5,0,0,1,0,3Z" fill="gray"/>
  <path d="M52.46,55.67H19.68a1.5,1.5,0,1,1,0-3H52.46a1.5,1.5,0,0,1,0,3Z" fill="gray"/>
  <path d="M11.11,17.73v43a.67.67,0,0,0,.66.67h48.6a.67.67,0,0,0,.66-.67v-43h4v43a4.67,4.67,0,0,1-4.66,4.67H11.77a4.67,4.67,0,0,1-4.66-4.67v-43Z" fill="gray"/>
  <path d="M51,19.95H37.86V6.84a2,2,0,0,0-4,0V19.95H20.75a2,2,0,1,0,0,4H33.86V37.06a2,2,0,0,0,4,0V23.95H51a2,2,0,0,0,0-4Z" fill="gray"/>
</svg>
