<svg xmlns="http://www.w3.org/2000/svg" viewBox="0 0 72 72">
  <path d="M37.57,7.14A28.32,28.32,0,0,0,25.31,61l.09,0v2a3,3,0,0,0,3,3H46.82a3,3,0,0,0,3-3V61l.24-.09A28.32,28.32,0,0,0,37.57,7.14Zm14.06,38.3h5.08a3,3,0,0,0,2.12-5.12L55.47,37h7.37a25.26,25.26,0,0,1-2.71,10H51.32C51.43,46.52,51.54,46,51.63,45.45ZM15.73,43.6a3,3,0,0,0,2.77,1.85h5.22c.1.54.2,1.07.31,1.56h-9a25.28,25.28,0,0,1-2.77-10h7.44l-3.36,3.36A3,3,0,0,0,15.73,43.6Zm-.68-19.68h9.12a52.85,52.85,0,0,0-1.44,10H12.3A25.12,25.12,0,0,1,15.05,23.92Zm12.19,0h5.55L26,30.72A48.14,48.14,0,0,1,27.24,23.92Zm12.12-3-.28-.18V10.39c3.09,1,6,5,7.9,10.53ZM36.07,10.39V20.78l-.22.14H28.15C30.08,15.35,32.95,11.37,36.07,10.39ZM47.89,23.92a47.75,47.75,0,0,1,1.25,6.72l-6.72-6.72Zm4.57,10-.05-.05s0,0,0-.06A52.06,52.06,0,0,0,51,23.92H60.1a25.13,25.13,0,0,1,2.75,10Zm5.81-13H50.11a29.18,29.18,0,0,0-4.93-9.6A25.42,25.42,0,0,1,58.28,20.92ZM29.9,11.33A29,29,0,0,0,25,20.92H16.87A25.42,25.42,0,0,1,29.9,11.33ZM16.89,50h8c.16.5.34,1,.52,1.52v6.13A25.33,25.33,0,0,1,16.89,50ZM46.82,63H28.4V51.06h0V42.45H18.5l19.1-19.1,19.1,19.1H46.82Zm3-5.38V51.91c.23-.66.45-1.28.65-1.9h7.85A25.28,25.28,0,0,1,49.82,57.62Z" />
</svg>
