<svg xmlns="http://www.w3.org/2000/svg" viewBox="0 0 72 72"><title>1-icons_special</title><path d="M36,64.35A28.32,28.32,0,1,1,64.34,36,28.35,28.35,0,0,1,36,64.35Zm0-53.64A25.32,25.32,0,1,0,61.34,36,25.35,25.35,0,0,0,36,10.71Z" fill="gray"/><path d="M31.63,43.37A4.8,4.8,0,0,0,33,46.43a4.25,4.25,0,0,0,3.15,1.17,4.68,4.68,0,0,0,3.23-1.08,7.19,7.19,0,0,0,1.87-2.68,13.74,13.74,0,0,0,.9-3.43q.24-1.83.37-3.37l-.09-.09a6.86,6.86,0,0,1-2.77,2.75,8,8,0,0,1-3.87.95,10.18,10.18,0,0,1-4-.75,8.93,8.93,0,0,1-3.06-2.09,9.33,9.33,0,0,1-2-3.26,12.35,12.35,0,0,1-.7-4.29,11.94,11.94,0,0,1,.7-4.16,9.56,9.56,0,0,1,2.07-3.34,9.35,9.35,0,0,1,3.34-2.22,12,12,0,0,1,4.49-.79A10.39,10.39,0,0,1,42,21a9,9,0,0,1,3.32,3.43A15.76,15.76,0,0,1,47,29.55a38.89,38.89,0,0,1,.48,6.29,27,27,0,0,1-.59,5.59,16.86,16.86,0,0,1-2,5.13,11.29,11.29,0,0,1-3.59,3.76,9.81,9.81,0,0,1-5.48,1.45,9.73,9.73,0,0,1-3.48-.62,9.32,9.32,0,0,1-2.88-1.72,8.85,8.85,0,0,1-2-2.64,8.23,8.23,0,0,1-.88-3.43Zm4.8-19.45a5.26,5.26,0,0,0-2.38.51,4.66,4.66,0,0,0-1.67,1.39,6.19,6.19,0,0,0-1,2,8.54,8.54,0,0,0-.33,2.38,8.93,8.93,0,0,0,.33,2.44,6.15,6.15,0,0,0,1,2,5.1,5.1,0,0,0,1.67,1.43,4.9,4.9,0,0,0,2.38.55,5.44,5.44,0,0,0,2.46-.53,4.87,4.87,0,0,0,1.74-1.43,6.54,6.54,0,0,0,1-2.07A8.41,8.41,0,0,0,42,30.21a8,8,0,0,0-.35-2.38,6,6,0,0,0-1-2,5.1,5.1,0,0,0-1.74-1.39A5.45,5.45,0,0,0,36.43,23.92Z" fill="gray"/></svg>