<svg xmlns="http://www.w3.org/2000/svg" viewBox="0 0 72 72">
  <title>sync</title>
  <g>
    <path d="M10,38.22a2,2,0,0,0,2-2A24.07,24.07,0,0,1,27.89,13.42a24.33,24.33,0,0,1,28.57,9.72H47a2,2,0,0,0,0,4H61.17a2,2,0,0,0,2-2v-14a2,2,0,1,0-4,0V20A28.23,28.23,0,0,0,26.54,9.66,28.07,28.07,0,0,0,8,36.23a2,2,0,0,0,2,2Z" />
    <path d="M62,33.86h0a2,2,0,0,0-2,2A24.07,24.07,0,0,1,44.11,58.65a24.32,24.32,0,0,1-28.57-9.72H25a2,2,0,1,0,0-4H10.82a2,2,0,0,0-2,2v14a2,2,0,0,0,4,0V52a28.18,28.18,0,0,0,23.2,12A28,28,0,0,0,64,35.85,2,2,0,0,0,62,33.86Z" />
  </g>
</svg>
