<?xml version="1.0" encoding="UTF-8"?>
<svg xmlns="http://www.w3.org/2000/svg" viewBox="0 0 72 72">
  <defs>
    <style>
      .cls-1 {
        fill: none;
      }
    </style>
  </defs>
    <path d="M63.80761719,35.85058594c0-15.40039062-12.52880859-27.92919922-27.92919922-27.92919922S7.94921875,20.45019531,7.94921875,35.85058594c0,11.45361328,7.46392822,21.98852539,18.57958984,26.24523926v1.76013184c0,.96630859.78369141,1.75,1.75,1.75s1.75-.78369141,1.75-1.75v-23.72216797c0-.96630859-.78369141-1.75-1.75-1.75h-6.82666016l14.4609375-14.49902344,14.46142578,14.49902344h-6.89404297c-.96630859,0-1.75.78369141-1.75,1.75v23.72216797c0,.96630859.78369141,1.75,1.75,1.75s1.75-.78369141,1.75-1.75v-1.68615723c11.11578369-3.94958496,18.57714844-14.50769043,18.57714844-26.31921387ZM61.28222656,34.85058594h-8.20916748c-.08129883-3.6428833-.60333252-7.10644531-1.48345947-10.26074219h7.0803833c1.54541016,3.11499023,2.46936035,6.58862305,2.61224365,10.26074219ZM55.83105469,38.89794922l-2.04205322-2.04736328h7.47912598c-.16314697,4.14208984-1.32580566,8.08581543-3.29785156,11.5546875h-6.75836182c.64990234-2.05615234,1.13848877-4.24664307,1.45477295-6.52148438h1.92510986c.70751953,0,1.34521484-.42578125,1.61621094-1.07910156.27148438-.65332031.12255859-1.40576172-.37695312-1.90673828ZM57.56640625,22.58984375h-6.59277344c-1.51843262-4.43994141-3.77563477-8.13598633-6.5022583-10.67077637,5.47943115,1.97357178,10.09161377,5.77679443,13.09503174,10.67077637ZM34.67382812,20.17089844l-2.41265869,2.41894531h-9.47979736c2.21002197-6.1517334,5.90856934-10.62359619,10.24938965-12.00488281.6229248-.06976318,1.25262451-.11547852,1.88818359-.13922119v9.527771c-.08679199.0579834-.17004395.12219238-.24511719.1973877ZM10.49145508,36.85058594h7.54620361l-2.04205322,2.04736328c-.49951172.50097656-.6484375,1.25341797-.37695312,1.90673828.27099609.65332031.90869141,1.07910156,1.61621094,1.07910156h1.85858154c.31762695,2.27288818.80950928,4.46295166,1.46087646,6.52148438h-6.53912354c-2.09576416-3.5213623-3.34460449-7.48797607-3.52374268-11.5546875ZM13.1104126,24.54388428c.07513428.01806641.14678955.04595947.22747803.04595947h6.8293457c-.88012695,3.15429688-1.40216064,6.61785889-1.48345947,10.26074219h-8.20916748c.14361572-3.69030762,1.07659912-7.17980957,2.63580322-10.30670166ZM22.13372803,24.58984375h8.13269043l-9.64746094,9.67266846c.12567139-3.45068359.65606689-6.71948242,1.51477051-9.67266846ZM37.15234375,20.17089844c-.09466553-.0947876-.20184326-.17193604-.31445312-.23944092v-9.48571777c.63555908.02374268,1.26525879.06945801,1.88818359.13922119,4.34082031,1.38128662,8.03936768,5.85314941,10.24938965,12.00488281h-9.41040039l-2.41271973-2.41894531ZM27.28546143,11.91906738c-2.72662354,2.53479004-4.98382568,6.23083496-6.5022583,10.67077637h-6.59277344c3.00341797-4.89398193,7.61560059-8.69720459,13.09503174-10.67077637ZM15.32781982,50.40527344h5.92663574c1.32391357,3.44989014,3.11407471,6.4317627,5.27435303,8.67388916v.3026123c-4.5333252-1.93585205-8.39971924-5.10162354-11.20098877-8.97650146ZM26.52880859,56.14447021c-1.25384521-1.64013672-2.33856201-3.57983398-3.22540283-5.73919678h3.22540283v5.73919678ZM26.52880859,41.88378906v6.52148438h-3.96716309c-.68414307-2.04003906-1.20050049-4.23309326-1.5335083-6.52148438h5.50067139ZM41.55987549,24.58984375h8.06323242c.8526001,2.93218994,1.38092041,6.17584229,1.51147461,9.59942627l-9.57470703-9.59942627ZM50.73132324,41.88378906c-.33166504,2.29156494-.84796143,4.4831543-1.53106689,6.52148438h-3.9697876v-6.52148438h5.50085449ZM48.46569824,50.40527344c-.88696289,2.15991211-1.9786377,4.09088135-3.23522949,5.73193359v-5.73193359h3.23522949ZM45.23046875,59.48394775v-.40093994c2.16534424-2.246521,3.95465088-5.22930908,5.27832031-8.67773438h6.21002197c-2.80126953,4.01379395-6.75860596,7.20672607-11.48834229,9.07867432Z"/>
    <rect class="cls-1" x=".36" y=".36" width="71.28" height="71.28"/>
</svg>