<svg xmlns="http://www.w3.org/2000/svg" viewBox="0 0 72 72">
  <g>
    <circle cx="24.75" cy="28.03" r="4.2" />
    <circle cx="52.77" cy="28.03" r="4.2" />
    <circle cx="38.69" cy="28.03" r="4.2" />
    <path d="M58.82,36H39.89a4.74,4.74,0,0,0-5,5v3.4H25.48c-8.7,0-16-7.5-16-16.39s7.35-16.39,16-16.39H56.85v-3H25.48A19.24,19.24,0,0,0,6.44,28a19.24,19.24,0,0,0,19,19.39h9.39V59.27a1,1,0,0,0,1,1h5.85a1,1,0,0,0,1-1c0-1.58.1-3.35.13-3.66,0,0,0-.12,0-.13a.45.45,0,0,1,.12-.09,23,23,0,0,1,2.18-1.05,9.11,9.11,0,0,0,1.84-1c.77-.59,1-2.58,1-3a1.61,1.61,0,0,0-.53-1,.33.33,0,0,1-.1-.17,1.33,1.33,0,0,0-.55-1l-.08-.06a1.42,1.42,0,0,1-.27-.64.64.64,0,0,1,0-.2,3.07,3.07,0,0,0,.08-.8v-.11a7,7,0,0,1,.31-2.1,1.77,1.77,0,0,1,.6-.85,6.38,6.38,0,0,0,2.12-.21,2.3,2.3,0,0,1,1.55.5,1.69,1.69,0,0,1,.68.74,8.1,8.1,0,0,0,.16,1.8c0,.09,0,.19.06.33a4.08,4.08,0,0,0,.18.69,2.07,2.07,0,0,1-.27.83,3.72,3.72,0,0,0-.52,1.28,1.41,1.41,0,0,0-.68,1.13s.1,2.16,1,2.81a10.48,10.48,0,0,0,2,1c.63.28,1.33.6,2.07,1,.1.06.1.06.13.27s.08,2,.12,3.59a1,1,0,0,0,1,1h5.87a1,1,0,0,0,1-1V41A4.74,4.74,0,0,0,58.82,36Zm3,22.26h-3.9c0-1.32-.08-2.62-.12-2.87a2.19,2.19,0,0,0-1.15-1.72c-.8-.44-1.54-.77-2.2-1.07A12.41,12.41,0,0,1,53,51.88a5.51,5.51,0,0,1-.24-.93,1.84,1.84,0,0,0,.65-1.24,1.87,1.87,0,0,1,.19-.43,4,4,0,0,0,.61-1.93,2.32,2.32,0,0,0-.2-1c0-.21-.06-.34-.09-.47a6.22,6.22,0,0,1-.11-1.41,3,3,0,0,0-1.3-2.17,4.39,4.39,0,0,0-3.37-1,4.39,4.39,0,0,1-1.52.17,1.7,1.7,0,0,0-1.23.3,3.7,3.7,0,0,0-1.48,2.07,8.83,8.83,0,0,0-.36,2.58v.11a1.13,1.13,0,0,1,0,.33,2.59,2.59,0,0,0-.08.67A3.21,3.21,0,0,0,45,49.3a2,2,0,0,0,.34.38A2.14,2.14,0,0,0,46,50.75a5.43,5.43,0,0,1-.28,1.17,11,11,0,0,1-1.31.63A25.16,25.16,0,0,0,42,53.69a2.13,2.13,0,0,0-1.15,1.74c0,.22-.08,1.52-.12,2.84H36.87V41a2.77,2.77,0,0,1,3-3H58.82a2.77,2.77,0,0,1,3,3Z" />
    <path d="M47.72,65.19A1,1,0,0,1,47,64.9l-2.58-2.58a1,1,0,0,1,1.41-1.41l1.88,1.88L52.46,58a1,1,0,0,1,1.41,1.41L48.43,64.9A1,1,0,0,1,47.72,65.19Z" />
  </g>
</svg>
