<?xml version="1.0" encoding="UTF-8"?>
<svg id="Layer_1" xmlns="http://www.w3.org/2000/svg" version="1.1" viewBox="0 0 72 72">
  <!-- Generator: Adobe Illustrator 29.0.1, SVG Export Plug-In . SVG Version: 2.1.0 Build 192)  -->
  <path d="M63.9,35.9c0-15.4-12.6-27.9-28-27.9S6.8,20.5,7.9,35.9c1.1,15.2,8.1,21.8,18.6,26.2v1.8c0,1,.8,1.8,1.8,1.8s1.8-.8,1.8-1.8v-23.7c0-1-.8-1.8-1.8-1.8h-6.8l14.5-14.5,14.5,14.5h-6.9c-1,0-1.8.8-1.8,1.8v23.7c0,1,.8,1.8,1.8,1.8s1.8-.8,1.8-1.8v-1.7c11.1-3.9,18.5-14.5,18.5-26.3h0ZM61.3,34.9h-8.2c0-3.6-.6-7.1-1.5-10.3h7.1c1.5,3.1,2.5,6.6,2.6,10.3ZM55.8,38.9l-2-2h7.5c-.2,4.1-1.3,8.1-3.3,11.6h-6.8c.6-2.1,1.1-4.2,1.5-6.5h1.9c.7,0,1.3-.4,1.6-1.1.3-.7,0-1.4-.4-1.9h0ZM57.6,22.6h-6.6c-1.5-4.4-3.8-8.1-6.5-10.7,5.5,2,10.1,5.8,13.1,10.7ZM34.7,20.2l-2.4,2.4h-9.5c2.2-6.2,5.9-10.6,10.2-12,.6,0,1.3-.1,1.9-.1v9.5s-.2.1-.2.2ZM10.5,36.9h7.5l-2,2c-.5.5-.6,1.3-.4,1.9.3.7.9,1.1,1.6,1.1h1.9c.3,2.3.8,4.5,1.5,6.5h-6.5c-2.1-3.5-3.3-7.5-3.5-11.6h-.1ZM13.1,24.5h7c-.9,3.2-1.4,6.6-1.5,10.3h-8.2c.1-3.7,1.1-7.2,2.6-10.3h.1ZM22.1,24.6h8.1l-9.6,9.7c.1-3.5.7-6.7,1.5-9.7ZM37.2,20.2s-.2-.2-.3-.2v-9.5c.6,0,1.3,0,1.9.1,4.3,1.4,8,5.9,10.2,12h-9.4s-2.4-2.4-2.4-2.4ZM27.3,11.9c-2.7,2.5-5,6.2-6.5,10.7h-6.6c3-4.9,7.6-8.7,13.1-10.7ZM15.3,50.4h5.9c1.3,3.4,3.1,6.4,5.3,8.7v.3c-4.5-1.9-8.4-5.1-11.2-9ZM26.5,56.1c-1.3-1.6-2.3-3.6-3.2-5.7h3.2v5.7ZM26.5,41.9v6.5h-4c-.7-2-1.2-4.2-1.5-6.5h5.5ZM41.6,24.6h8.1c.9,2.9,1.4,6.2,1.5,9.6l-9.6-9.6ZM50.7,41.9c-.3,2.3-.8,4.5-1.5,6.5h-4v-6.5h5.5ZM48.5,50.4c-.9,2.2-2,4.1-3.2,5.7v-5.7h3.2ZM45.2,59.5v-.4c2.2-2.2,4-5.2,5.3-8.7h6.2c-2.8,4-6.8,7.2-11.5,9.1Z"/>
</svg>