<svg xmlns="http://www.w3.org/2000/svg" viewBox="0 0 72 72"><title>1-icons_special</title><path d="M52.36,38.72H19.58a1.5,1.5,0,0,1,0-3H52.36a1.5,1.5,0,0,1,0,3Z" fill="gray"/><path d="M52.36,47.13H19.58a1.5,1.5,0,0,1,0-3H52.36a1.5,1.5,0,0,1,0,3Z" fill="gray"/><path d="M52.36,55.53H19.58a1.5,1.5,0,0,1,0-3H52.36a1.5,1.5,0,0,1,0,3Z" fill="gray"/><path d="M11,17.59v43a.67.67,0,0,0,.66.67h48.6a.67.67,0,0,0,.66-.67v-43h4v43a4.67,4.67,0,0,1-4.66,4.67H11.67A4.67,4.67,0,0,1,7,60.55v-43Z" fill="gray"/></svg>