<svg xmlns="http://www.w3.org/2000/svg" viewBox="0 0 72 72">
  <g>
    <path d="M35,44.62H25.71c-8.7,0-16-7.5-16-16.39s7.35-16.39,16-16.39H57.08v-3H25.71a19.24,19.24,0,0,0-19,19.39,19.24,19.24,0,0,0,19,19.39H35" />
    <circle cx="24.98" cy="28.24" r="4.2" />
    <circle cx="53" cy="28.24" r="4.2" />
    <circle cx="38.92" cy="28.24" r="4.2" />
    <g>
      <path d="M49.69,54.16a4.5,4.5,0,1,1,4.52-4.5A4.52,4.52,0,0,1,49.69,54.16Zm0-7.63a3.13,3.13,0,1,0,3.15,3.13A3.15,3.15,0,0,0,49.69,46.53Z" />
      <path d="M58.34,51.21a1.58,1.58,0,0,0-1.18,1,8,8,0,0,1-.35.84,1.56,1.56,0,0,0,.11,1.56l1.49,2.17-1.52,1.51L54.7,56.84a1.59,1.59,0,0,0-1.57-.11,8,8,0,0,1-.85.35,1.57,1.57,0,0,0-1,1.18l-.49,2.62H48.62l-.48-2.62a1.57,1.57,0,0,0-1-1.18,8.07,8.07,0,0,1-.85-.35,1.59,1.59,0,0,0-1.57.11l-2.17,1.48L41,56.8l1.48-2.16a1.57,1.57,0,0,0,.11-1.56,7.92,7.92,0,0,1-.35-.85,1.58,1.58,0,0,0-1.18-1l-2.83-.48V48.59L41,48.11a1.58,1.58,0,0,0,1.18-1,7.81,7.81,0,0,1,.35-.85,1.56,1.56,0,0,0-.11-1.56L41,42.48,42.48,41l2.21,1.51a1.59,1.59,0,0,0,1.57.11,8,8,0,0,1,.85-.35,1.57,1.57,0,0,0,1-1.18l.49-2.77h2.15l.48,2.77a1.57,1.57,0,0,0,1,1.18,7.89,7.89,0,0,1,.85.35,1.59,1.59,0,0,0,1.57-.11L56.92,41l1.52,1.51-1.53,2.21a1.57,1.57,0,0,0-.11,1.56,7.91,7.91,0,0,1,.36.85,1.58,1.58,0,0,0,1.18,1l2.62.48v2.14ZM61.19,47l-2.46-.49a9.58,9.58,0,0,0-.43-1l1.39-2.07a1.58,1.58,0,0,0-.2-2L58,39.91a1.6,1.6,0,0,0-2-.2l-2.08,1.38a9.69,9.69,0,0,0-1-.43l-.49-2.43A1.6,1.6,0,0,0,50.78,37H48.6A1.59,1.59,0,0,0,47,38.23l-.49,2.43a9.69,9.69,0,0,0-1,.43l-2.08-1.38a1.6,1.6,0,0,0-2,.2l-1.54,1.53a1.58,1.58,0,0,0-.2,2l1.39,2.07a9.49,9.49,0,0,0-.43,1L38.2,47a1.6,1.6,0,0,0-1.28,1.56v2.15a1.59,1.59,0,0,0,1.28,1.56l2.46.49a9.58,9.58,0,0,0,.43,1l-1.38,2.07a1.58,1.58,0,0,0,.2,2l1.54,1.53a1.6,1.6,0,0,0,2,.2l2.08-1.38a9.45,9.45,0,0,0,1,.43L47,61.09a1.6,1.6,0,0,0,1.57,1.28h2.18a1.59,1.59,0,0,0,1.56-1.28l.49-2.43a9.69,9.69,0,0,0,1-.43l2.08,1.38a1.6,1.6,0,0,0,2-.2l1.54-1.53a1.58,1.58,0,0,0,.2-2l-1.39-2.07a9.42,9.42,0,0,0,.43-1l2.46-.49a1.59,1.59,0,0,0,1.28-1.56V48.58A1.59,1.59,0,0,0,61.19,47Z" fill-rule="evenodd"/>
    </g>
  </g>
</svg>
