<svg xmlns="http://www.w3.org/2000/svg" viewBox="0 0 72 72">
  <title>partner</title>
  <path d="M42.38,35.83c0-3.61-2.61-5.1-5.17-6.09C34.49,28.69,34,28,34,26.86c0-.94.72-2,2.75-2a6.6,6.6,0,0,1,3.16.79.72.72,0,0,0,1-.4l.66-1.94a.72.72,0,0,0-.33-.86,8.82,8.82,0,0,0-4.08-1V18.24a1.26,1.26,0,1,0-2.52,0v3.44a5.64,5.64,0,0,0-4.51,5.45c0,2.7,1.75,4.63,5.33,5.9,2.53,1,3,1.8,3,3,0,1.52-1.17,2.43-3.14,2.43a7.73,7.73,0,0,1-3.89-1.1.72.72,0,0,0-1.07.41l-.6,2a.72.72,0,0,0,.29.81,9.94,9.94,0,0,0,4.57,1.31v3.29a1.26,1.26,0,1,0,2.52,0V41.69A5.93,5.93,0,0,0,42.38,35.83Z" fill="gray"/>
  <path d="M67.34,57a3.2,3.2,0,0,0-1.7-2.55,34.82,34.82,0,0,0-4.52-1.93,17.3,17.3,0,0,1-2.65-1.12,9,9,0,0,1-.51-2,2.67,2.67,0,0,0,1.11-2,3.43,3.43,0,0,1,.37-.83,6.16,6.16,0,0,0,.93-3,2.8,2.8,0,0,0-.25-1.29.73.73,0,0,1-.07-.26c0-.33-.09-.54-.14-.75a10.45,10.45,0,0,1-.19-2.4A4.28,4.28,0,0,0,58,36l2.59-4.32a1.75,1.75,0,0,0,0-1.81L48.38,9.54a1.75,1.75,0,0,0-1.5-.85H25.25a1.75,1.75,0,0,0-1.5.85L11.51,29.84a1.75,1.75,0,0,0,0,1.81L14,35.83A5.69,5.69,0,0,0,12.84,38a14.27,14.27,0,0,0-.59,4.15v.17a2.28,2.28,0,0,1-.06.64,3.78,3.78,0,0,0-.11,1A4.84,4.84,0,0,0,13,46.66a3.13,3.13,0,0,0,.59.64,3.08,3.08,0,0,0,1,1.76l0,0a8.65,8.65,0,0,1-.55,2.32,17.39,17.39,0,0,1-2.62,1,28,28,0,0,0-5.08,2,3.06,3.06,0,0,0-1.67,2.48V57c-.07.46-.17,3.93-.23,6a1.25,1.25,0,0,0,1.25,1.28H33.3A1.25,1.25,0,0,0,34.55,63c-.06-2-.16-5.51-.24-6a3.2,3.2,0,0,0-1.7-2.55,34.82,34.82,0,0,0-4.52-1.93,17.3,17.3,0,0,1-2.65-1.12,9,9,0,0,1-.51-2,2.67,2.67,0,0,0,1.11-2,3.41,3.41,0,0,1,.37-.83,6.18,6.18,0,0,0,.93-3,2.8,2.8,0,0,0-.25-1.29.73.73,0,0,1-.07-.26c0-.33-.09-.54-.14-.75a10.6,10.6,0,0,1-.19-2.4,4.5,4.5,0,0,0-2-3.26,6.78,6.78,0,0,0-5.21-1.54,9,9,0,0,1-2.33.3l.08-.05L15,30.74l11.2-18.55H45.89l11.2,18.55L55,34.29a5,5,0,0,0-2.44-.13,7.51,7.51,0,0,1-2.62.28,2.43,2.43,0,0,0-1.77.43A5.74,5.74,0,0,0,45.87,38a14.27,14.27,0,0,0-.59,4.15v.17a2.28,2.28,0,0,1-.06.64,3.78,3.78,0,0,0-.11,1A4.84,4.84,0,0,0,46,46.66a3.13,3.13,0,0,0,.59.64,3.08,3.08,0,0,0,1,1.76l0,0a8.61,8.61,0,0,1-.56,2.32,17.27,17.27,0,0,1-2.62,1,28.07,28.07,0,0,0-5.08,2,3.06,3.06,0,0,0-1.67,2.48V57c-.07.46-.17,3.93-.23,6a1.25,1.25,0,0,0,1.25,1.28H66.32A1.25,1.25,0,0,0,67.57,63C67.52,61,67.41,57.48,67.34,57ZM15.27,38.63A3.23,3.23,0,0,1,16.44,37l.1-.06h.1a9.79,9.79,0,0,0,3.4-.33,4.37,4.37,0,0,1,3.12,1.07c.75.59,1,1.13,1,1.35a12.9,12.9,0,0,0,.25,2.88c0,.16.07.32.11.57a3.2,3.2,0,0,0,.28,1,1.22,1.22,0,0,1,0,.23,3.75,3.75,0,0,1-.51,1.58,5.34,5.34,0,0,0-.76,1.87.77.77,0,0,1-.06.24l-.13.1a1.93,1.93,0,0,0-1,1.55c0,.25.26,3.41,1.42,4.29h0a14.26,14.26,0,0,0,3.39,1.54,32.8,32.8,0,0,1,4.2,1.79c.34.18.36.35.42.76s.11,2.28.17,4.39H7c.06-1.93.13-4.08.16-4.37l0-.14a.64.64,0,0,1,.42-.65,26.24,26.24,0,0,1,4.63-1.83,12.83,12.83,0,0,0,3.47-1.44c1.08-.83,1.48-3.89,1.42-4.6a2.25,2.25,0,0,0-.76-1.44c-.22-.23-.27-.28-.28-.54a1.81,1.81,0,0,0-.77-1.31,1.65,1.65,0,0,1-.2-.19A2.58,2.58,0,0,1,14.58,44a1.43,1.43,0,0,1,0-.43,4.58,4.58,0,0,0,.13-1.23v-.18A11.82,11.82,0,0,1,15.27,38.63ZM40,61.77c.06-1.93.13-4.08.16-4.37l0-.14a.64.64,0,0,1,.42-.65,26.23,26.23,0,0,1,4.62-1.83,12.85,12.85,0,0,0,3.47-1.44c1.08-.83,1.48-3.89,1.43-4.6a2.25,2.25,0,0,0-.76-1.44c-.22-.23-.27-.28-.28-.54a1.81,1.81,0,0,0-.77-1.31,1.65,1.65,0,0,1-.2-.19A2.58,2.58,0,0,1,47.61,44a1.43,1.43,0,0,1,0-.43,4.58,4.58,0,0,0,.13-1.23v-.18a11.82,11.82,0,0,1,.51-3.55A3.23,3.23,0,0,1,49.46,37l.1-.06h.1a9.79,9.79,0,0,0,3.4-.33,4.37,4.37,0,0,1,3.12,1.07c.75.59,1,1.13,1,1.35a12.79,12.79,0,0,0,.25,2.88c0,.16.07.32.11.57a3.2,3.2,0,0,0,.28,1,1.22,1.22,0,0,1,0,.23,3.73,3.73,0,0,1-.51,1.58,5.36,5.36,0,0,0-.76,1.87.77.77,0,0,1-.06.24l-.13.1a1.93,1.93,0,0,0-1,1.55c0,.25.26,3.41,1.42,4.29h0a14.26,14.26,0,0,0,3.39,1.54,32.8,32.8,0,0,1,4.2,1.79c.34.18.36.35.42.76s.11,2.28.17,4.39Z" fill="gray"/>
</svg>
