<svg xmlns="http://www.w3.org/2000/svg" viewBox="0 0 72 72">
  <path d="M54.71,28A10.14,10.14,0,1,0,44.49,17.86a10.05,10.05,0,0,0,.18,1.85L25.73,27.26A10.22,10.22,0,1,0,24.57,40l15.53,10a10.24,10.24,0,1,0,2.17-3.36l-15.53-10A10.1,10.1,0,0,0,27.27,31l18.9-7.53A10.23,10.23,0,0,0,54.71,28ZM49.59,47.61a6.22,6.22,0,1,1-6.22,6.22A6.22,6.22,0,0,1,49.59,47.61ZM17.25,39.16a6.22,6.22,0,1,1,6.21-6.22A6.22,6.22,0,0,1,17.25,39.16ZM54.71,11.72a6.14,6.14,0,1,1-6.22,6.14A6.18,6.18,0,0,1,54.71,11.72Z" fill="gray"/>
</svg>
