<svg xmlns="http://www.w3.org/2000/svg" viewBox="0 0 72 72">
  <circle cx="25.13" cy="28" r="4.2" fill="gray"/>
  <circle cx="53.15" cy="28" r="4.2" fill="gray"/>
  <circle cx="39.07" cy="28" r="4.2" fill="gray"/>
  <path d="M51.83,50.44H62a1.1,1.1,0,0,0,1.1-1.1v-7a1.1,1.1,0,0,0-1.1-1.1H51.83a1.11,1.11,0,0,0-1.11,1.1V44.8H45.87l-5.59-5.59a1.14,1.14,0,0,0-1.56,0l-5.16,5.17h-7.7c-8.69,0-16-7.51-16-16.39s7.35-16.38,16-16.38H57.23v-3H25.86A19.23,19.23,0,0,0,6.82,28a19.24,19.24,0,0,0,19,19.39H33.5l4.9,4.9v6.57A1.11,1.11,0,0,0,39.51,60H50.72v2.3a1.11,1.11,0,0,0,1.11,1.1H62a1.1,1.1,0,0,0,1.1-1.1v-7A1.11,1.11,0,0,0,62,54.18H51.83a1.11,1.11,0,0,0-1.11,1.11v2.46H40.61V52.27L45.87,47h4.85v2.33A1.11,1.11,0,0,0,51.83,50.44Zm1.1-7h8v4.77h-8Zm0,12.92h8v4.77h-8ZM39.5,50.26l-4.35-4.35,4.35-4.36,4.35,4.36Z" fill="gray"/>
</svg>
