<svg xmlns="http://www.w3.org/2000/svg" viewBox="0 0 72 72">
  <path d="M18.88,34.56a18.16,18.16,0,0,0,17.92,18c9.61,0,17.4-7,17.4-17,0-7.14-3.6-14.87-12.8-14.87H28.48s-.09,10.46,0,13.91,3.59,6.65,6.08,6.65c.2,0,0-14.13,0-14.13l5.76-.09c5.2,0,7.5,4,7.5,8.53,0,6.3-4.94,10.36-11,10.36A11.66,11.66,0,0,1,25.26,34.56C25.26,31.11,18.88,30.92,18.88,34.56Z" fill="gray"/>
  <ellipse cx="22.11" cy="25.74" rx="3.68" ry="3.73" fill="gray"/>
  <path d="M56.31,64.55H16a8.29,8.29,0,0,1-8.27-8.28V15.79A8.29,8.29,0,0,1,16,7.51H56.31a8.29,8.29,0,0,1,8.27,8.28V56.27A8.29,8.29,0,0,1,56.31,64.55ZM16,10.51a5.28,5.28,0,0,0-5.27,5.28V56.27A5.28,5.28,0,0,0,16,61.55H56.31a5.29,5.29,0,0,0,5.27-5.28V15.79a5.29,5.29,0,0,0-5.27-5.28Z" fill="gray"/>
</svg>
