<?xml version="1.0" encoding="utf-8"?>
<!-- Generator: Adobe Illustrator 27.9.0, SVG Export Plug-In . SVG Version: 6.00 Build 0)  -->
<svg version="1.1" id="Layer_1" xmlns="http://www.w3.org/2000/svg" xmlns:xlink="http://www.w3.org/1999/xlink" x="0px" y="0px"
	 viewBox="0 0 72 72" style="enable-background:new 0 0 72 72;" xml:space="preserve">
<circle cx="25.1" cy="28" r="4.2"/>
<circle cx="53.2" cy="28" r="4.2"/>
<circle cx="39.1" cy="28" r="4.2"/>
<path d="M37.2,44.4H25.9c-8.7,0-16-7.5-16-16.4s7.4-16.4,16-16.4h31.4v-3H25.9C15.3,8.7,6.7,17.4,6.8,28c-0.1,10.6,8.4,19.3,19,19.4
	h11.3L37.2,44.4z M35.2,45.9"/>
<path d="M57.4,53.4v-3c0-0.4-0.4-0.8-0.8-0.8h-7.2v-2.4c2.5-0.4,4.4-2.5,4.4-5.1c0-2.8-2.3-5.2-5.2-5.2c-2.8,0-5.2,2.3-5.2,5.2
	c0,2.6,1.9,4.7,4.4,5.1v2.4h-7.2c-0.4,0-0.8,0.4-0.8,0.8v3c-2.5,0.4-4.3,2.5-4.3,5.1c0,2.8,2.3,5.2,5.2,5.2s5.2-2.3,5.2-5.2
	c0-2.6-1.9-4.7-4.4-5.1v-2.2h14.3v2.2c-2.4,0.4-4.3,2.5-4.3,5.1c0,2.8,2.3,5.2,5.2,5.2c2.8,0,5.2-2.3,5.2-5.2
	C61.8,55.9,59.9,53.7,57.4,53.4z M45,42.1c0-2,1.6-3.6,3.6-3.6c2,0,3.6,1.6,3.6,3.6c0,2-1.6,3.6-3.6,3.6C46.6,45.7,45,44.1,45,42.1z
	 M44.3,58.5c0,2-1.6,3.6-3.6,3.6s-3.6-1.6-3.6-3.6s1.6-3.6,3.6-3.6S44.3,56.5,44.3,58.5z M56.7,62.1c-2,0-3.6-1.6-3.6-3.6
	s1.6-3.6,3.6-3.6s3.6,1.6,3.6,3.6S58.6,62.1,56.7,62.1z"/>
</svg>
