<?xml version="1.0" encoding="UTF-8"?>
<svg id="Layer_1" xmlns="http://www.w3.org/2000/svg" version="1.1" viewBox="0 0 72 72">
  <path d="M64.6,7.9h-14.8c-.6,0-1,.4-1,1v5.1h-5.1v-5.1c0-.6-.4-1-1-1h-14.8c-.6,0-1,.4-1,1v5.1h-12.2c-.6,0-1,.4-1,1v14.9h-6.4c-.6,0-1,.4-1,1v12c0,.6.4,1,1,1h6.4v2.1h-2.9v1.6h7.7v-1.6h-2.8v-2.1h6.4c.6,0,1-.4,1-1v-4.7h6.9v16.9c0,.8.7,1.5,1.5,1.5h13.3v3.3h-6.2v3h15.4v-3h-6.2v-3.3h13.4c.8,0,1.5-.7,1.5-1.5v-24c0-.8-.7-1.5-1.5-1.5h-29.7c-.8,0-1.5.7-1.5,1.5v5.1h-6.9v-5.3c0-.6-.4-1-1-1h-6.5v-13.9h11.2v4.9c0,.6.4,1,1,1h6.4v2.1h-2.9v1.6h7.7v-1.6h-2.8v-2.1h6.5c.6,0,1-.4,1-1v-4.9h5.1v4.9c0,.6.4,1,1,1h6.4v2.1h-2.9v1.6h7.7v-1.6h-2.8v-2.1h6.4c.6,0,1-.4,1-1v-12c0-.6-.4-1-1-1ZM33,32.6h26.7v21h-26.7v-21ZM21.1,41.9h-12.9v-10h12.9v10ZM41.6,19.9h-12.8v-10h12.8v10ZM63.6,19.9h-12.9v-10h12.8v10Z"/>
</svg>