<svg xmlns="http://www.w3.org/2000/svg" viewBox="0 0 72 72">
  <path d="M62.93,27.44a.5.5,0,0,1-.5-.5V16.28a6.85,6.85,0,0,0-6.84-6.84H44.83a.5.5,0,0,1-.5-.5.5.5,0,0,1,.5-.5H55.59a7.85,7.85,0,0,1,7.84,7.84V26.94A.5.5,0,0,1,62.93,27.44Z" fill="gray"/>
  <path d="M8.73,27.44a.5.5,0,0,1-.5-.5V16.28a7.85,7.85,0,0,1,7.84-7.84H26.83a.5.5,0,0,1,.5.5.5.5,0,0,1-.5.5H16.07a6.85,6.85,0,0,0-6.84,6.84V26.94A.5.5,0,0,1,8.73,27.44Z" fill="gray"/>
  <g>
    <path d="M65.61,35.13H50.54a7,7,0,0,0,.1-1.11,4.67,4.67,0,0,0-.42-2.21A2.51,2.51,0,0,1,50,31c-.09-.63-.18-1.05-.26-1.45a22.37,22.37,0,0,1-.42-5.08c0-1.95-1.33-4-3.64-5.84s-5.9-3.52-9.2-3V6.1a.51.51,0,0,0-.5-.5.5.5,0,0,0-.5.5v9.7a15.6,15.6,0,0,1-5.18.49,3.91,3.91,0,0,0-2.94.71,10.52,10.52,0,0,0-4.15,5.82A27.71,27.71,0,0,0,22,31v.36a5.38,5.38,0,0,1-.15,1.55,6.94,6.94,0,0,0-.2,1.81c0,.14,0,.27,0,.41H6.6a.5.5,0,0,0-.5.5.51.51,0,0,0,.5.5H21.86a10.15,10.15,0,0,0,1.55,3.41,5.83,5.83,0,0,0,1.17,1.23l.15.12a4.92,4.92,0,0,0,2.32,3.53c.17.13.39.3.5.4a23,23,0,0,1-1.42,6.84,37.12,37.12,0,0,1-6.35,2.59,74.94,74.94,0,0,0-10,4.06,6.77,6.77,0,0,1-.54-2.67V44.89a.5.5,0,0,0-1,0V55.64a7.85,7.85,0,0,0,7.84,7.85H26.78a.5.5,0,0,0,.5-.5.5.5,0,0,0-.5-.5H16.12a6.85,6.85,0,0,1-4.52-1.72,75,75,0,0,1,9.17-3.69C24.1,55.91,26.72,55,28,54c1.7-1.3,2.61-8.11,2.49-9.51A3.41,3.41,0,0,0,28.84,42c-.75-.56-1.11-.87-1.14-1.63a2.69,2.69,0,0,0-1.19-1.92,3.06,3.06,0,0,1-.6-.59,6,6,0,0,1-1.22-3.16,3.84,3.84,0,0,1,.12-1.11A8.33,8.33,0,0,0,25,31.36V31a24.85,24.85,0,0,1,1.08-7.46,7.51,7.51,0,0,1,2.83-4A1.12,1.12,0,0,1,30,19.28a17.06,17.06,0,0,0,5.47-.42v2.89a.5.5,0,0,0,.5.5.5.5,0,0,0,.5-.5v-3.1l.13,0c1.92-.43,4.89.54,7.21,2.37,1.53,1.2,2.48,2.55,2.5,3.54a24.72,24.72,0,0,0,.48,5.65A12,12,0,0,1,47,31.44a5.57,5.57,0,0,0,.46,1.6,1.78,1.78,0,0,1,.16,1,8.55,8.55,0,0,1-1.22,3.78A10.27,10.27,0,0,0,45,41.17c-.1.82-.42,1-1.11,1.33A2.9,2.9,0,0,0,42,44.94a23.08,23.08,0,0,0,.62,4.56c.73,3.31,1.37,4.08,1.93,4.43,1.37,1,3.88,1.93,7.05,3.1a77.84,77.84,0,0,1,8.65,3.57,6.79,6.79,0,0,1-4.7,1.89H44.88a.5.5,0,0,0-.5.5.5.5,0,0,0,.5.5H55.54a7.85,7.85,0,0,0,7.84-7.85V44.89a.5.5,0,0,0-1,0V55.64a6.89,6.89,0,0,1-.46,2.46,78.73,78.73,0,0,0-9.29-3.89,34.86,34.86,0,0,1-6.29-2.68A23.67,23.67,0,0,1,45,45.32l.29-.15A4.37,4.37,0,0,0,48,41.56a7.56,7.56,0,0,1,.91-2.09,12.22,12.22,0,0,0,1.42-3.34H65.61a.5.5,0,0,0,.5-.5A.5.5,0,0,0,65.61,35.13Z" fill="gray"/>
    <path d="M36,50.09a.5.5,0,0,0-.5.5V65.65a.5.5,0,0,0,.5.5.5.5,0,0,0,.5-.5V50.59A.5.5,0,0,0,36,50.09Z" fill="gray"/>
  </g>
</svg>
