<svg xmlns="http://www.w3.org/2000/svg" viewBox="0 0 72 72">
  <g>
    <path d="M63,63.43H51.19v-3H61.46c-.13-4.51-.29-9.08-.36-9.63l0-.1a2.39,2.39,0,0,0-1.3-2.1,65.26,65.26,0,0,0-8.32-3.54,27.59,27.59,0,0,1-6.35-2.86c-1.74-1.25-2.47-6.68-2.42-7.6.06-1.24,1.05-3.15,3.4-6.62l.18-.27a8.26,8.26,0,0,0,1.15-3.6,1.72,1.72,0,0,0-.15-.92,5.45,5.45,0,0,1-.44-1.55c-.07-.52-.15-.86-.22-1.19A24.28,24.28,0,0,1,46.15,15c0-.91-.95-2.23-2.38-3.35C41.55,9.91,38.72,9,36.89,9.39a18.13,18.13,0,0,1-6.35.62,1,1,0,0,0-1,.24,7.28,7.28,0,0,0-2.69,3.81,23.56,23.56,0,0,0-1,7.15v.35a7.74,7.74,0,0,1-.23,2.17,3.93,3.93,0,0,0-.11,1.05,5.72,5.72,0,0,0,1.16,3c.11.16.31.43.57.77,2,2.66,3.09,4.34,3.19,5.58.12,1.45-.82,6.93-2.42,8.15-1.27,1-3.57,1.72-6.49,2.67a51.82,51.82,0,0,0-9.2,3.64,2.14,2.14,0,0,0-1.3,2l0,.26c-.07.55-.23,5.11-.36,9.62H20.92v3H9.07A1.49,1.49,0,0,1,8,63a1.51,1.51,0,0,1-.43-1.09c.07-2.48.3-10.64.44-11.54l0-.21A5.07,5.07,0,0,1,10.83,46a54,54,0,0,1,9.75-3.88A27.22,27.22,0,0,0,26.12,40a15.14,15.14,0,0,0,1.31-5.57c-.14-.74-2-3.21-2.6-4-.3-.4-.54-.72-.66-.91a8.47,8.47,0,0,1-1.67-4.66A6.48,6.48,0,0,1,22.7,23a5.43,5.43,0,0,0,.14-1.47v-.35c0-1.91,0-3.29,1.12-7.87a10.15,10.15,0,0,1,4-5.62A3.86,3.86,0,0,1,30.82,7a15.24,15.24,0,0,0,5.42-.56c3.32-.74,7.13,1.06,9.39,2.83s3.48,3.77,3.52,5.66a21.42,21.42,0,0,0,.39,4.86,13.35,13.35,0,0,1,.26,1.4A2.17,2.17,0,0,0,50,22a4.54,4.54,0,0,1,.4,2.14,11,11,0,0,1-1.66,5.27l-.19.28c-2.59,3.82-2.86,4.87-2.89,5.1a15.66,15.66,0,0,0,1.24,5.05,28.2,28.2,0,0,0,5.58,2.44A66.19,66.19,0,0,1,61.21,46a5.33,5.33,0,0,1,2.84,4.29c.15,1,.38,9.15.45,11.63A1.5,1.5,0,0,1,63,63.43ZM46.73,39.68Z" />
    <path d="M44.69,46.4a7.09,7.09,0,0,0-7,5.83H20a1.27,1.27,0,1,0,0,2.54H22.6V59h2.57V54.77H27.6V59h2.57V54.77h7.55a7.09,7.09,0,1,0,7-8.37Zm0,11.54a4.5,4.5,0,1,1,4.55-4.5A4.53,4.53,0,0,1,44.69,57.94Z" />
  </g>
  <rect x="0.36" y="0.36" width="71.28" height="71.28" fill="none"/>
</svg>
