<?xml version="1.0" encoding="utf-8"?>
<!-- Generator: Adobe Illustrator 24.1.0, SVG Export Plug-In . SVG Version: 6.00 Build 0)  -->
<svg version="1.1" id="Layer_1" xmlns="http://www.w3.org/2000/svg" xmlns:xlink="http://www.w3.org/1999/xlink" x="0px" y="0px"
	 viewBox="0 0 72 72" style="enable-background:new 0 0 72 72;" xml:space="preserve">
<style type="text/css">
	.st0{fill:none;}
</style>
<g>
	<path d="M63,63.4H51.2v-3h10.3c-0.1-4.5-0.3-9.1-0.4-9.6v-0.1c0-0.9-0.5-1.7-1.3-2.1c-2.7-1.4-5.5-2.6-8.3-3.5
		c-2.2-0.7-4.4-1.6-6.3-2.9c-1.7-1.2-2.5-6.7-2.4-7.6c0.1-1.2,1-3.1,3.4-6.6l0.2-0.3c0.7-1.1,1.1-2.3,1.2-3.6c0-0.3,0-0.6-0.2-0.9
		c-0.2-0.5-0.4-1-0.4-1.5c-0.1-0.5-0.2-0.9-0.2-1.2c-0.4-1.8-0.5-3.6-0.5-5.5c0-0.9-1-2.2-2.4-3.4c-2.2-1.7-5-2.6-6.9-2.3
		c-2.1,0.6-4.2,0.8-6.4,0.6c-0.4-0.1-0.7,0-1,0.2c-1.3,0.9-2.2,2.3-2.7,3.8c-0.7,2.3-1,4.7-1,7.1v0.4c0,0.7-0.1,1.5-0.2,2.2
		c-0.1,0.3-0.1,0.7-0.1,1c0.1,1.1,0.5,2.1,1.2,3c0.1,0.2,0.3,0.4,0.6,0.8c2,2.7,3.1,4.3,3.2,5.6c0.1,1.5-0.8,6.9-2.4,8.2
		c-1.3,1-3.6,1.7-6.5,2.7c-3.2,0.9-6.3,2.1-9.2,3.6c-0.8,0.3-1.3,1.1-1.3,2v0.3c-0.1,0.5-0.2,5.1-0.4,9.6h10.3v3H9.1
		c-0.4,0-0.8-0.2-1.1-0.5c-0.3-0.3-0.4-0.7-0.4-1.1C7.6,59.4,7.9,51.3,8,50.4v-0.2c0.1-1.8,1.2-3.4,2.8-4.2c3.1-1.6,6.4-2.9,9.8-3.9
		c1.9-0.5,3.8-1.2,5.5-2.1c0.8-1.8,1.2-3.6,1.3-5.6c-0.1-0.7-2-3.2-2.6-4c-0.3-0.4-0.5-0.7-0.7-0.9c-1-1.4-1.6-3-1.7-4.7
		c0-0.6,0-1.3,0.2-1.9c0.1-0.5,0.2-1,0.1-1.5v-0.4c0-1.9,0-3.3,1.1-7.9C24.6,11,26,9,28,7.7c0.8-0.6,1.9-0.8,2.9-0.7
		c1.8,0.1,3.7,0,5.4-0.6c3.3-0.7,7.1,1.1,9.4,2.8s3.5,3.8,3.5,5.7c-0.1,1.6,0.1,3.3,0.4,4.9c0.1,0.5,0.2,0.9,0.3,1.4
		c0,0.3,0.1,0.6,0.2,0.8c0.3,0.7,0.4,1.4,0.4,2.1c-0.1,1.9-0.7,3.7-1.7,5.3l-0.2,0.3c-2.6,3.8-2.9,4.9-2.9,5.1
		c0.1,1.7,0.5,3.4,1.2,5c1.8,1,3.6,1.8,5.6,2.4c3,1,5.9,2.3,8.7,3.7c1.6,0.8,2.7,2.5,2.8,4.3c0.2,1,0.4,9.2,0.4,11.6
		C64.5,62.7,63.8,63.4,63,63.4C63,63.4,63,63.4,63,63.4z"/>
	<path d="M44.4,47.1c-3.2,0-6,2.2-6.7,5.4H21.6c-0.8,0-1.5,0.7-1.5,1.5s0.7,1.5,1.5,1.5h2.4v3.8h2.4v-3.8h2.2v3.8H31v-3.8h6.7
		c0.8,3.7,4.5,6,8.2,5.2c3.7-0.8,6-4.5,5.2-8.2C50.4,49.3,47.6,47.1,44.4,47.1L44.4,47.1z M44.4,58.1c-2.3,0-4.2-1.9-4.2-4.2
		c0-2.3,1.9-4.2,4.2-4.2c2.3,0,4.2,1.9,4.2,4.2C48.6,56.2,46.7,58.1,44.4,58.1z"/>
</g>
<rect x="0.4" y="0.4" class="st0" width="71.3" height="71.3"/>
</svg>
