<svg xmlns="http://www.w3.org/2000/svg" viewBox="0 0 72 72">
  <g>
    <path d="M44.94,16.35H28.54l-1.83,12.5c1,0,4.88.08,5.63-1.47,1.11-2.27-2-2.07-1.63-4.17.26-1.6,1.86-3,4.78-3,3.39.05,4,2.35,3,4-.77,1.23-3.31,1.89-2.28,3.66.46.79,1.65.87,2.91.87,2.07,0,3.18.07,3.18.07,3.33,0,7.11.83,7.11,6.62,0,5.11-3.65,8.75-9.73,8.75l-1.8,11.87C57.72,57.26,64,42.13,64,32.19,64,18.89,50.71,16.35,44.94,16.35ZM20.46,26.77c.31-2.13,1.84-2.09,2.4-3,.75-1.2.32-2.44-2.15-2.47-2.12,0-3.31,1-3.47,1.81C17,24.64,19.38,24.25,19,26.74c-.46,2.74-2.85,3.14-7,3.14L7.83,56H22.25l4.11-26.18S19.88,30.69,20.46,26.77Z" fill="gray"/>
    <path d="M44.94,16.35H28.54l-1.83,12.5c1,0,4.88.08,5.63-1.47,1.11-2.27-2-2.07-1.63-4.17.26-1.6,1.86-3,4.78-3,3.39.05,4,2.35,3,4-.77,1.23-3.31,1.89-2.28,3.66.46.79,1.65.87,2.91.87,2.07,0,3.18.07,3.18.07,3.33,0,7.11.83,7.11,6.62,0,5.11-3.65,8.75-9.73,8.75l-1.8,11.87C57.72,57.26,64,42.13,64,32.19,64,18.89,50.71,16.35,44.94,16.35ZM20.46,26.77c.31-2.13,1.84-2.09,2.4-3,.75-1.2.32-2.44-2.15-2.47-2.12,0-3.31,1-3.47,1.81C17,24.64,19.38,24.25,19,26.74c-.46,2.74-2.85,3.14-7,3.14L7.83,56H22.25l4.11-26.18S19.88,30.69,20.46,26.77Z" fill="none" stroke="#fff" stroke-miterlimit="10" stroke-width="0.12"/>
  </g>
</svg>
