<svg id="Layer_1" xmlns="http://www.w3.org/2000/svg" version="1.1" viewBox="0 0 72 72">
  <path d="M59,29.6c-2.5-1.4-5.1-2.5-7.9-3.4v-4.2c0-8.5-6.9-15.4-15.4-15.4s-15.4,6.9-15.4,15.4v4.2c-2.7.8-5.3,1.9-7.8,3.3-.5.3-.9.9-.9,1.5v27.3c0,.6.3,1.2.9,1.5,6.2,3.5,14.4,5.5,23.2,5.5s17.1-2,23.3-5.5c.5-.3.9-.9.9-1.5v-27.2c0-.6-.3-1.2-.9-1.5ZM23.8,22c0-6.6,5.3-11.9,11.9-11.9,6.6,0,11.9,5.3,11.9,11.9v3.3c-7.9-1.7-16-1.7-23.8,0v-3.3ZM56.4,57.2c-5.6,3-12.9,4.6-20.7,4.6s-15-1.6-20.6-4.5v-25.2c5.6-2.9,12.8-4.5,20.6-4.5s15.1,1.6,20.7,4.6v25.1Z"/>
  <path d="M24.3,56.1c-.4,0-.6-.3-.6-.6,0,0,0,0,0,0,0-1.1.1-4.5.2-4.9h0c0-.8.5-1.5,1.2-1.9,1.3-.7,2.7-1.2,4.2-1.7.8-.2,1.6-.5,2.4-.9.3-.7.5-2,.6-2.8,0-.3-.9-1.4-1.1-1.7-.1-.2-.2-.3-.3-.4-.4-.6-.7-1.3-.7-2,0-.3,0-.5,0-.7,0-.2,0-.4,0-.6h0c0-1,0-1.6.5-3.5.3-1,.9-1.8,1.7-2.4.4-.3.8-.4,1.2-.3.8,0,1.6,0,2.3-.2,1.4-.3,3,.5,4,1.2s1.5,1.6,1.5,2.4c0,.7,0,1.4.2,2.1,0,.2,0,.3.1.6,0,.1,0,.2,0,.3.1.3.2.6.2.9,0,.8-.3,1.6-.7,2.2h0c-1.1,1.7-1.2,2.2-1.2,2.3,0,.7.2,1.9.5,2.6.8.4,1.6.8,2.4,1,1.3.4,2.5,1,3.7,1.6.7.4,1.2,1,1.2,1.8,0,.4.2,3.9.2,5,0,.4-.3.6-.6.7,0,0,0,0,0,0h0s-23,0-23,0Z"/>
</svg>