<svg xmlns="http://www.w3.org/2000/svg" viewBox="0 0 72 72">
  <path d="M22.53,49.15l-.06-.82a7.23,7.23,0,0,1,2-5.47c1.43-1.71,2.22-3,2.22-4.38,0-1.62-1-2.7-3-2.73a5.57,5.57,0,0,0-3.2,1l-.77-2a8.36,8.36,0,0,1,4.55-1.28c3.65,0,5.3,2.26,5.3,4.67,0,2.16-1.21,3.75-2.73,5.53A6.31,6.31,0,0,0,25,48.36l0,.79Zm1.15,6.45a2,2,0,1,1,1.93-2,1.86,1.86,0,0,1-1.93,2Z" fill="gray"/>
  <path d="M59.25,29.45a38.21,38.21,0,0,0-7.88-3.35V21.89a15.42,15.42,0,1,0-30.84,0V26.1a37.9,37.9,0,0,0-7.77,3.29,1.74,1.74,0,0,0-.89,1.52V58.2a1.77,1.77,0,0,0,.89,1.53C19,63.26,27.19,65.2,36,65.2s17.09-2,23.3-5.54a1.76,1.76,0,0,0,.88-1.52V31A1.76,1.76,0,0,0,59.25,29.45ZM24,21.89a11.92,11.92,0,1,1,23.84,0V25.2A54.71,54.71,0,0,0,36,23.91,55.34,55.34,0,0,0,24,25.19Zm32.6,35.22C51,60.08,43.74,61.7,36,61.7s-15-1.6-20.58-4.53V32C21,29,28.21,27.41,36,27.41S51,29,56.63,32Z" fill="gray"/>
  <rect x="33.49" y="33.76" width="13.26" height="2.5" fill="gray"/>
  <rect x="33.49" y="39.96" width="16.42" height="2.5" fill="gray"/>
  <rect x="33.49" y="46.16" width="19.26" height="2.5" fill="gray"/>
  <rect x="33.49" y="52.35" width="12.59" height="2.5" fill="gray"/>
</svg>
