<svg xmlns="http://www.w3.org/2000/svg" viewBox="0 0 72 72">
  <title>1-icons_special</title>
  <path d="M49.2,24.84H22.59a1.75,1.75,0,0,1,0-3.5H49.2a1.75,1.75,0,0,1,0,3.5Z" fill="gray"/>
  <path d="M49.2,32.7H22.59a1.75,1.75,0,0,1,0-3.5H49.2a1.75,1.75,0,0,1,0,3.5Z" fill="gray"/>
  <path d="M49.2,40.55H22.59a1.75,1.75,0,0,1,0-3.5H49.2a1.75,1.75,0,0,1,0,3.5Z" fill="gray"/>
  <path d="M49.2,48.4H22.59a1.75,1.75,0,0,1,0-3.5H49.2a1.75,1.75,0,0,1,0,3.5Z" fill="gray"/>
  <g>
    <path d="M36.05,7.54A28.32,28.32,0,1,0,64.37,35.86,28.35,28.35,0,0,0,36.05,7.54Zm1.49,53.59a2,2,0,1,0-2.72,0,25.34,25.34,0,1,1,2.72,0Z" fill="gray"/>
    <circle cx="36.18" cy="53.17" r="2.04" fill="gray"/>
  </g>
</svg>
