<svg xmlns="http://www.w3.org/2000/svg" viewBox="0 0 72 72">
  <path d="M51.8,29.32a1.5,1.5,0,0,0-1.5,1.5v2.82a14.37,14.37,0,1,1-28.73,0V31.19a1.5,1.5,0,0,0-3,0v2.45A17.37,17.37,0,0,0,34.3,50.92v9.32H26.92v3H45v-3H37.3v-9.3a17.39,17.39,0,0,0,16-17.3V30.82A1.5,1.5,0,0,0,51.8,29.32Z" fill="gray"/>
  <path d="M35.93,7.91A10.89,10.89,0,0,0,25.05,18.8V34a10.89,10.89,0,1,0,21.77,0V18.8A10.9,10.9,0,0,0,35.93,7.91Zm0,34A7.89,7.89,0,0,1,28.05,34V31h4a1.5,1.5,0,0,0,0-3h-4v-2.6h4a1.5,1.5,0,0,0,0-3h-4V19.79h4a1.5,1.5,0,0,0,0-3H28.31a7.87,7.87,0,0,1,15.24,0H39.71a1.5,1.5,0,0,0,0,3h4.11V22.4H39.71a1.5,1.5,0,0,0,0,3h3.93l.18,0V28l-.18,0H39.71a1.5,1.5,0,0,0,0,3h3.93l.18,0V34A7.9,7.9,0,0,1,35.93,41.89Z" fill="gray"/>
</svg>
