<svg xmlns="http://www.w3.org/2000/svg" viewBox="0 0 72 72">
  <path d="M59.05,29.57a38.22,38.22,0,0,0-7.88-3.36V22a15.42,15.42,0,0,0-30.84,0v4.21a37.9,37.9,0,0,0-7.77,3.29A1.74,1.74,0,0,0,11.68,31v27.3a1.74,1.74,0,0,0,.88,1.52c6.2,3.53,14.43,5.48,23.19,5.48s17.09-2,23.3-5.55a1.75,1.75,0,0,0,.88-1.51V31.08A1.75,1.75,0,0,0,59.05,29.57ZM23.83,22a11.92,11.92,0,0,1,23.84,0v3.31a55.72,55.72,0,0,0-23.84,0Zm32.6,35.23c-5.59,3-12.88,4.59-20.68,4.59s-15-1.61-20.57-4.54V32.06c5.57-2.93,12.83-4.54,20.57-4.54s15.09,1.63,20.68,4.59Z" fill="gray"/>
  <path d="M47.58,55.41H23.77a.44.44,0,0,1-.45-.46c0-.78.13-4,.19-4.35a2.08,2.08,0,0,1,1.14-1.78,24.31,24.31,0,0,1,4.27-1.69,16.35,16.35,0,0,0,2.89-1,10.78,10.78,0,0,0,.64-3.34c0-.08-.07-.14-.22-.3s-1-.63-1-1.39L31.07,41a2.13,2.13,0,0,1-.46-.48,3.66,3.66,0,0,1-.7-1.94,2.5,2.5,0,0,1,.08-.72,2.34,2.34,0,0,0,.07-.7V37a11.61,11.61,0,0,1,.49-3.42,4.29,4.29,0,0,1,1.67-2.36,1.5,1.5,0,0,1,1.14-.27,7,7,0,0,0,2.45-.26,5.21,5.21,0,0,1,4,1.22,3.35,3.35,0,0,1,1.48,2.33,8.71,8.71,0,0,0,.18,2.19c0,.17.07.34.11.6a1,1,0,0,0,.11.39,1.85,1.85,0,0,1,.16.86,4.65,4.65,0,0,1-.7,2.21,3,3,0,0,0-.41,1c-.12.87-.92,1.18-1.19,1.36s-.15.1-.15.15A11.44,11.44,0,0,0,40,46.08s0,0,0,0h0a17.66,17.66,0,0,0,2.88,1.11,30.19,30.19,0,0,1,3.82,1.63,2.14,2.14,0,0,1,1.15,1.74c.07.44.17,3.61.2,4.39a.51.51,0,0,1-.13.33A.44.44,0,0,1,47.58,55.41ZM31.19,41Z" fill="gray"/>
</svg>
