<svg xmlns="http://www.w3.org/2000/svg" viewBox="0 0 72 72">
  <path d="M64.6,7.88H49.75a1,1,0,0,0-1,1V14H43.64V8.88a1,1,0,0,0-1-1H27.79a1,1,0,0,0-1,1V14H14.59a1,1,0,0,0-1,1V29.91H7.23a1,1,0,0,0-1,1v12a1,1,0,0,0,1,1h6.41V46H10.77v1.64h7.7V46H15.64V43.91h6.44a1,1,0,0,0,1-1V38.24H30V55.12a1.5,1.5,0,0,0,1.5,1.5H44.83v3.31h-6.2v3H54v-3H47.83V56.62H61.22a1.5,1.5,0,0,0,1.5-1.5v-24a1.5,1.5,0,0,0-1.5-1.5H31.52a1.5,1.5,0,0,0-1.5,1.5v5.12H23.08V30.91a1,1,0,0,0-1-1H15.59V16h11.2v4.89a1,1,0,0,0,1,1h6.4V24H31.32v1.64H39V24H36.19V21.88h6.45a1,1,0,0,0,1-1V16h5.11v4.89a1,1,0,0,0,1,1h6.4V24H53.28v1.64H61V24H58.15V21.88H64.6a1,1,0,0,0,1-1v-12A1,1,0,0,0,64.6,7.88ZM33,32.62h26.7v21H33ZM21.08,41.91H8.23v-10H21.08Zm20.56-22H28.79v-10H41.64Zm22,0H50.75v-10H63.6Z" fill="gray"/>
</svg>
