<svg xmlns="http://www.w3.org/2000/svg" viewBox="0 0 72 72">
  <path d="M59.38,43.49,36.88,21a3.3,3.3,0,0,0-4.65,0l-.68.69-8.19-8.19a2.06,2.06,0,0,0-1.46-.61h0a2.06,2.06,0,0,0-1.47.61L14,19.94a2.07,2.07,0,0,0,0,2.93l8.19,8.19-.69.69a3.28,3.28,0,0,0,0,4.64L44,58.89a3.27,3.27,0,0,0,2.32,1h0a3.27,3.27,0,0,0,2.32-1L59.38,48.14A3.3,3.3,0,0,0,59.38,43.49Zm-44-22a.09.09,0,0,1,0-.1l6.46-6.46a.09.09,0,0,1,.1,0l8.18,8.19-6.55,6.56ZM57.26,46,46.51,56.77a.27.27,0,0,1-.2.08.28.28,0,0,1-.21-.08L23.6,34.27a.27.27,0,0,1-.08-.2.26.26,0,0,1,.08-.2L34.36,23.11a.26.26,0,0,1,.2-.08.27.27,0,0,1,.2.08l22.5,22.5A.3.3,0,0,1,57.26,46Z" fill="gray"/>
  <path d="M46.24,50.37a4.9,4.9,0,1,1,4.9-4.9A4.9,4.9,0,0,1,46.24,50.37Zm0-7.8a2.9,2.9,0,1,0,2.9,2.9A2.9,2.9,0,0,0,46.24,42.57Z" fill="gray"/>
</svg>
