<svg xmlns="http://www.w3.org/2000/svg" viewBox="0 0 72 72">
  <path d="M54.94,7.05H17.09C11.23,7.05,7.3,11,7.3,16.83V55.15c0,5.82,3.94,9.73,9.79,9.73H54.94c5.86,0,9.79-3.91,9.79-9.73V16.83C64.74,11,60.8,7.05,54.94,7.05ZM10.8,55.15V16.83c0-3.87,2.41-6.27,6.29-6.27h21a13.29,13.29,0,0,0-3.87,9.77V33c-1-.52-1.91-.95-2.73-1.32a15.23,15.23,0,0,1-2.19-1.11,7.16,7.16,0,0,1-.46-1.88,8.19,8.19,0,0,1,1.18-2l.09-.13A5.12,5.12,0,0,0,30.85,24,2.3,2.3,0,0,0,30.65,23a.67.67,0,0,1-.06-.23c0-.27-.08-.45-.12-.62a9,9,0,0,1-.16-2,3.74,3.74,0,0,0-1.65-2.7,5.67,5.67,0,0,0-4.34-1.29,6.43,6.43,0,0,1-2.22.24,2,2,0,0,0-1.46.35,4.77,4.77,0,0,0-1.88,2.63,11.8,11.8,0,0,0-.49,3.47v.15a1.93,1.93,0,0,1-.05.55,3.15,3.15,0,0,0-.09.84,4,4,0,0,0,.78,2.2l.29.4a12.45,12.45,0,0,1,1.05,1.55,6.73,6.73,0,0,1-.48,2.13,13.27,13.27,0,0,1-2,1,34.19,34.19,0,0,0-3.23,1.56,2.57,2.57,0,0,0-1.39,2.13c-.06.38-.15,3.44-.19,5.23a1,1,0,0,0,1,1H34.18V51.8c0,5.81-3.73,9.57-9.51,9.57H17.09C13.15,61.37,10.8,59,10.8,55.15Zm32.62-19-.23-.31a2.22,2.22,0,0,1-.44-1.09,1.22,1.22,0,0,1,0-.37,3.82,3.82,0,0,0,.11-1v-.15a10,10,0,0,1,.43-3,2.78,2.78,0,0,1,1-1.42c.05,0,.09-.06.06-.06s.08,0,.14,0a8.17,8.17,0,0,0,2.84-.28A3.72,3.72,0,0,1,50,29.4a2.07,2.07,0,0,1,.89,1.17A10.79,10.79,0,0,0,51.13,33c0,.13.06.28.09.49a2.68,2.68,0,0,0,.24.81,1.08,1.08,0,0,1,0,.21A3.23,3.23,0,0,1,51,35.83l-.07.11c-1.06,1.57-1.49,2.42-1.52,3,0,.21.22,2.84,1.17,3.56h0a14.35,14.35,0,0,0,2.65,1.39c.87.39,1.86.84,2.89,1.4.31.17.33.33.38.67s.09,2.08.14,4h-19V48.38c0-1.22.07-2.19.09-2.36l0-.12a.59.59,0,0,1,.38-.58,32.12,32.12,0,0,1,3.05-1.47,12.34,12.34,0,0,0,2.46-1.27c.84-.64,1.23-3.14,1.18-3.82A6.06,6.06,0,0,0,43.42,36.18ZM20.8,25.73l-.23-.31a2.21,2.21,0,0,1-.44-1.09,1.23,1.23,0,0,1,0-.37,3.81,3.81,0,0,0,.11-1v-.15a10,10,0,0,1,.43-3,2.78,2.78,0,0,1,1-1.42c.05,0,.09-.06.06-.06s.08,0,.14,0A8.16,8.16,0,0,0,24.75,18a3.72,3.72,0,0,1,2.67.91,2.07,2.07,0,0,1,.89,1.17,10.77,10.77,0,0,0,.21,2.41c0,.13.06.27.09.49a2.69,2.69,0,0,0,.24.81,1.08,1.08,0,0,1,0,.21,3.21,3.21,0,0,1-.44,1.35l-.08.12c-1.06,1.57-1.49,2.42-1.52,3,0,.21.22,2.84,1.17,3.57h0a14.33,14.33,0,0,0,2.65,1.39c.87.39,1.85.84,2.89,1.4.31.17.33.33.38.67s.09,2.08.14,4H15c.05-1.88.11-3.7.14-3.95l0-.12a.59.59,0,0,1,.38-.58,32.13,32.13,0,0,1,3-1.47,12.36,12.36,0,0,0,2.46-1.27c.84-.64,1.23-3.14,1.18-3.82A6.06,6.06,0,0,0,20.8,25.73ZM61.24,55.15c0,3.9-2.35,6.23-6.29,6.23H34A13,13,0,0,0,37.68,52h20a1,1,0,0,0,1-1c0-1.79-.13-4.85-.2-5.27a2.64,2.64,0,0,0-1.4-2.1c-1.1-.6-2.12-1.06-3-1.46A15.19,15.19,0,0,1,51.89,41a7.15,7.15,0,0,1-.46-1.88,8.19,8.19,0,0,1,1.19-2.05l.08-.12a5.14,5.14,0,0,0,.77-2.46,2.31,2.31,0,0,0-.21-1.07.66.66,0,0,1-.06-.23c0-.27-.08-.45-.11-.63a8.91,8.91,0,0,1-.16-2,3.74,3.74,0,0,0-1.65-2.7,5.66,5.66,0,0,0-4.34-1.29,6.41,6.41,0,0,1-2.22.24,2,2,0,0,0-1.45.35,4.76,4.76,0,0,0-1.88,2.63,11.8,11.8,0,0,0-.49,3.47v.15a1.93,1.93,0,0,1-.05.55,3.15,3.15,0,0,0-.09.84,4.07,4.07,0,0,0,.78,2.2l.29.4a12.46,12.46,0,0,1,1.05,1.55,6.71,6.71,0,0,1-.48,2.13,13.28,13.28,0,0,1-2,1c-.79.34-1.74.77-2.74,1.3v-23c0-5.85,3.85-9.77,9.57-9.77h7.69c3.88,0,6.29,2.4,6.29,6.27Z" />
</svg>
