<svg xmlns="http://www.w3.org/2000/svg" viewBox="0 0 72 72">
  <g>
    <path d="M63,64.17H51.17v-3H61.44c-.13-4.52-.28-9.08-.36-9.63v-.1a2.38,2.38,0,0,0-1.3-2.1,64.57,64.57,0,0,0-8.33-3.54,27.92,27.92,0,0,1-6.34-2.86c-1.74-1.25-2.47-6.68-2.43-7.61A2.85,2.85,0,0,1,44.13,33a1.47,1.47,0,0,0,.78-1.32,9.64,9.64,0,0,1,1.34-3.26,8.13,8.13,0,0,0,1.16-3.6,1.79,1.79,0,0,0-.15-.93,5.25,5.25,0,0,1-.44-1.55c-.07-.51-.15-.86-.22-1.18a24,24,0,0,1-.47-5.45c0-.91-1-2.23-2.37-3.35-2.22-1.74-5-2.68-6.88-2.27a18,18,0,0,1-6.35.63,1,1,0,0,0-1,.24,7.15,7.15,0,0,0-2.69,3.8,24.1,24.1,0,0,0-1,7.15v.35a8.35,8.35,0,0,1-.22,2.18,3.55,3.55,0,0,0-.11,1.05,5.72,5.72,0,0,0,1.16,3,3.28,3.28,0,0,0,.56.56A2.62,2.62,0,0,1,28.38,31a2.07,2.07,0,0,0,.82,1.67,3.52,3.52,0,0,1,1.21,2.24c.12,1.45-.82,6.93-2.42,8.15-1.27,1-3.58,1.72-6.49,2.67a51.82,51.82,0,0,0-9.2,3.64,2.11,2.11,0,0,0-1.3,2l0,.26c-.07.55-.23,5.12-.36,9.63H20.91v3H9.06a1.5,1.5,0,0,1-1.5-1.55C7.62,60.15,7.85,52,8,51.09l0-.21a5,5,0,0,1,2.8-4.16,54,54,0,0,1,9.75-3.89,27.08,27.08,0,0,0,5.53-2.15,14.9,14.9,0,0,0,1.32-5.57l-.36-.37a5,5,0,0,1-1.65-3.27l-.13-.1a5.7,5.7,0,0,1-1.13-1.19,8.7,8.7,0,0,1-1.66-4.66,6.56,6.56,0,0,1,.19-1.75,5.11,5.11,0,0,0,.14-1.48V22a26.9,26.9,0,0,1,1.12-7.87,10.19,10.19,0,0,1,4-5.63,3.79,3.79,0,0,1,2.86-.69,15.73,15.73,0,0,0,5.41-.56c3.32-.75,7.14,1.06,9.39,2.83s3.49,3.76,3.52,5.65a21.81,21.81,0,0,0,.4,4.87c.09.39.17.79.26,1.4a2.46,2.46,0,0,0,.21.76,4.48,4.48,0,0,1,.41,2.14,11,11,0,0,1-1.66,5.26,7.41,7.41,0,0,0-.87,2,4.28,4.28,0,0,1-2.07,3.41.71.71,0,0,0-.14.1,15.93,15.93,0,0,0,1.24,4.94A29.16,29.16,0,0,0,52.49,43a66.19,66.19,0,0,1,8.71,3.72A5.33,5.33,0,0,1,64,51c.15,1,.38,9.16.45,11.63a1.52,1.52,0,0,1-.43,1.09A1.5,1.5,0,0,1,63,64.17ZM46.71,40.42h0Z" fill="gray"/>
    <path d="M45.24,47.72a7.08,7.08,0,0,0-7,5.83H20.53a1.27,1.27,0,1,0,0,2.54h2.63v4.24h2.57V56.09h2.43v4.24h2.57V56.09h7.54a7.09,7.09,0,1,0,7-8.37Zm0,11.55a4.51,4.51,0,1,1,4.56-4.51A4.54,4.54,0,0,1,45.24,59.27Z" fill="gray"/>
  </g>
  <rect x="0.36" y="0.36" width="71.28" height="71.28" fill="none"/>
</svg>
