<svg xmlns="http://www.w3.org/2000/svg" viewBox="0 0 72 72">
  <path d="M42.17,64.38A4.49,4.49,0,0,1,39,63.07l-30-30a4.48,4.48,0,0,1,0-6.33L26.91,8.8a4.47,4.47,0,0,1,6.33,0l30,30a4.49,4.49,0,0,1,0,6.33L45.33,63.07A4.47,4.47,0,0,1,42.17,64.38ZM29,10.92,11.1,28.84a1.48,1.48,0,0,0,0,2.09l30,30a1.47,1.47,0,0,0,2.08,0L61.14,43a1.49,1.49,0,0,0,0-2.09l-30-30a1.46,1.46,0,0,0-2.08,0Z" fill="gray"/>
  <path d="M40.19,28.77,29.24,17.83a2.33,2.33,0,0,0-1.66-.69h0a2.34,2.34,0,0,0-1.67.69l-7.6,7.6a2.34,2.34,0,0,0-.69,1.66,2.3,2.3,0,0,0,.69,1.66l11,11a2.34,2.34,0,0,0,3.32,0l7.61-7.6A2.37,2.37,0,0,0,40.19,28.77Zm-12.71-9a.72.72,0,0,1,1,0L33,24.26l-1.86,1.86-1.66-1.66-1-1A.77.77,0,0,0,28.3,23l-2-2Zm-1.59,7.1-2.19.36-2.56-2.56,3.36-3.36,2.55,2.55.17,1.69Zm-5.15,1.38a.73.73,0,0,1,.21-.52l.57-.56,1.4,1.39a.75.75,0,0,0,.53.22h.12L26,28.36l1.44,1.43-2.72,2.72L21,28.76A.74.74,0,0,1,20.74,28.23ZM31,37.78a.76.76,0,0,1-1.05,0l-4.2-4.21,2.72-2.72,1.45,1.46.2,1.85a.77.77,0,0,0,.22.45l1.91,1.91Zm3.72-2.35L32.33,33l-.17-1.5,1.25-1.24,1.68.17,2.32,2.31Zm3.52-4.9-.48.48L36,29.2a.77.77,0,0,0-.46-.22l-2.31-.23a.72.72,0,0,0-.6.22L30.66,30.9l-3.35-3.35,1.85-1.85,1.75,1.75a.75.75,0,0,0,.53.22.79.79,0,0,0,.53-.22l2.12-2.13,4.17,4.17A.73.73,0,0,1,38.26,30.53Z" fill="gray"/>
</svg>
