<svg xmlns="http://www.w3.org/2000/svg" viewBox="0 0 72 72">
  <g>
    <rect x="23.55" y="33.08" width="25.14" height="2.76" fill="gray"/>
    <rect x="23.55" y="41.18" width="25.14" height="2.76" fill="gray"/>
    <rect x="23.55" y="16.92" width="11.16" height="10.64" fill="gray"/>
    <polygon points="39.78 27.38 39.78 24.79 48.69 24.79 48.69 27.38 39.78 27.38 39.78 27.38" fill="gray"/>
    <polygon points="39.78 19.72 39.78 17.13 48.69 17.13 48.69 19.72 39.78 19.72 39.78 19.72" fill="gray"/>
    <polygon points="23.55 51.95 23.55 49.36 48.69 49.36 48.69 51.95 23.55 51.95 23.55 51.95" fill="gray"/>
    <path d="M53.41,64.72H18.52a4.37,4.37,0,0,1-4.37-4.37V11.51a4.37,4.37,0,0,1,4.37-4.36H53.41a4.36,4.36,0,0,1,4.36,4.36V60.35A4.37,4.37,0,0,1,53.41,64.72ZM18.52,10.65a.86.86,0,0,0-.87.86V60.35a.87.87,0,0,0,.87.87H53.41a.87.87,0,0,0,.86-.87V11.51a.86.86,0,0,0-.86-.86Z" fill="gray"/>
  </g>
</svg>
