<svg xmlns="http://www.w3.org/2000/svg" viewBox="0 0 72 72">
  <polygon points="32.6 33.1 23.4 23.9 26.2 21 32.6 27.4 45.7 14.3 48.5 17.2 32.6 33.1"/>
  <path d="M51.3,64.7h-31c-5.7,0-9.5-3.8-9.5-9.5V17.2c0-5.7,3.8-9.5,9.5-9.5h31c5.7,0,9.5,3.8,9.5,9.5v38c0,5.7-3.8,9.5-9.5,9.5ZM20.3,10.6c-4,0-6.5,2.5-6.5,6.5v38c0,4,2.5,6.5,6.5,6.5h31c4,0,6.5-2.5,6.5-6.5V17.2c0-4-2.5-6.5-6.5-6.5h-31Z"/>
  <rect x="24.9" y="37.8" width="21.8" height="3"/>
  <rect x="24.9" y="44.6" width="21.8" height="3"/>
  <rect x="24.9" y="51.5" width="21.8" height="3"/>
</svg>