<svg xmlns="http://www.w3.org/2000/svg" viewBox="0 0 72 72">
  <path d="M51.18,17.51a16.59,16.59,0,0,0-11.5-10C30.69,5.27,21.42,10.4,19,19a14.87,14.87,0,0,0-.46,2.3A16.07,16.07,0,0,0,12.37,30a15.51,15.51,0,0,0,1.54,12,16.62,16.62,0,0,0,10.47,7.79,17.5,17.5,0,0,0,4.31.55c.3,0,.59,0,.89,0V61.08l-2.39,0a2,2,0,0,0,0,4h0l4.37,0a2,2,0,0,0,2-2v-21a2,2,0,0,0-1.1-1.79l-5-2.5a2,2,0,0,0-1.8,3.58l3.87,1.94v3.53a14.09,14.09,0,0,1-4.34-.39,13.18,13.18,0,0,1-8.3-6.16A11.94,11.94,0,0,1,15.75,31a12.65,12.65,0,0,1,5.42-7.22l.74-.47.06-.88a11.31,11.31,0,0,1,.42-2.46c1.9-6.77,9.27-10.8,16.43-9a13.06,13.06,0,0,1,9.31,8.44l.26.77.75.3a12.53,12.53,0,0,1,7.75,14.88C55.12,41.62,48.64,45.54,42,44.61V41.17l2.47-2.64a2,2,0,1,0-2.93-2.73l-3,3.21A2,2,0,0,0,38,40.38V63.05a2,2,0,0,0,2,2l4.37,0h0a2,2,0,0,0,0-4l-2.39,0v-13c8.19.91,16.08-4,18.28-11.85A16,16,0,0,0,51.18,17.51Z" fill="gray"/>
</svg>
