<svg xmlns="http://www.w3.org/2000/svg" viewBox="0 0 72 72">
  <path d="M21.32,17h-6a1,1,0,0,1,0-2h6a1,1,0,0,1,0,2Z" fill="gray"/>
  <path d="M21.32,37h-6a1,1,0,0,1,0-2h6a1,1,0,0,1,0,2Z" fill="gray"/>
  <path d="M21.32,57.13h-6a1,1,0,0,1,0-2h6a1,1,0,0,1,0,2Z" fill="gray"/>
  <path d="M61.63,24.45h.15a3.5,3.5,0,0,0,3.5-3.5V11.13a3.5,3.5,0,0,0-3.5-3.5H9.69a3.5,3.5,0,0,0-3.5,3.5V21a3.5,3.5,0,0,0,3.5,3.5h9.09a12.08,12.08,0,0,0-.07,1.35,13.38,13.38,0,0,0,.13,1.8H9.69a3.5,3.5,0,0,0-3.5,3.5v9.83a3.5,3.5,0,0,0,3.5,3.5H32.25v-3H9.69a.5.5,0,0,1-.5-.5V31.1a.5.5,0,0,1,.5-.5H19.6a13.51,13.51,0,0,0,20.9,5.92L54,50.54v0h7.82a.5.5,0,0,1,.5.5v9.83a.5.5,0,0,1-.45.5h-.22l-51.92,0a.5.5,0,0,1-.5-.5V51.08a.5.5,0,0,1,.5-.5H32.25v-3H9.69a3.5,3.5,0,0,0-3.5,3.5v9.83a3.5,3.5,0,0,0,3.5,3.5l51.85,0h.24a3.5,3.5,0,0,0,3.5-3.5V51.08a3.5,3.5,0,0,0-3.5-3.5h-6.5l-3-3.16h9.53a3.5,3.5,0,0,0,3.5-3.5V31.1a3.5,3.5,0,0,0-3.5-3.5H45.67a15.25,15.25,0,0,0,.13-1.8c0-.46,0-.91-.07-1.35h15.9ZM32.25,36.34A10.55,10.55,0,1,1,42.8,25.8,10.55,10.55,0,0,1,32.25,36.34ZM61.78,30.6a.5.5,0,0,1,.5.5v9.83a.49.49,0,0,1-.45.5H49.37l-6.7-7a13.82,13.82,0,0,0,2.24-3.85ZM32.25,12.25a13.57,13.57,0,0,0-12.82,9.2H9.69a.5.5,0,0,1-.5-.5V11.13a.5.5,0,0,1,.5-.5H61.78a.5.5,0,0,1,.5.5V21a.5.5,0,0,1-.45.5H45.07A13.57,13.57,0,0,0,32.25,12.25Z" fill="gray"/>
</svg>
