<svg xmlns="http://www.w3.org/2000/svg" viewBox="0 0 72 72">
  <path d="M35.76,65A28.82,28.82,0,1,1,64.58,36.22,28.85,28.85,0,0,1,35.76,65Zm0-53.64A24.82,24.82,0,1,0,60.58,36.22,24.86,24.86,0,0,0,35.76,11.4Z" fill="gray"/>
  <g>
    <path d="M40.63,29a.5.5,0,0,0-.71,0l-13.4,13.5a.42.42,0,0,0-.11.16l-2,4.81a.51.51,0,0,0,.11.55.47.47,0,0,0,.35.15.58.58,0,0,0,.19,0l4.89-2A.45.45,0,0,0,30.1,46l13.4-13.5a.5.5,0,0,0,0-.71Z" fill="gray"/>
    <path d="M47.64,27.67l-2.87-2.79a.52.52,0,0,0-.36-.14.47.47,0,0,0-.35.15L41.85,27.2a.5.5,0,0,0,0,.71l2.87,2.79a.52.52,0,0,0,.35.14h0a.47.47,0,0,0,.35-.15l2.21-2.31A.5.5,0,0,0,47.64,27.67Z" fill="gray"/>
  </g>
</svg>
