<svg xmlns="http://www.w3.org/2000/svg" viewBox="0 0 72 72">
  <polygon points="22.1 27 17.1 21.9 19.1 19.9 22.1 22.9 28.6 16.5 30.6 18.5 22.1 27"/>
  <polygon points="28.5 32.6 26.5 30.5 23.3 33.7 20.1 30.5 18.1 32.6 21.3 35.8 18.1 38.9 20.1 41 23.3 37.8 26.5 41 28.5 38.9 25.4 35.8 28.5 32.6"/>
  <polygon points="22.1 54.2 17.1 49.2 19.1 47.1 22.1 50.1 28.6 43.7 30.6 45.7 22.1 54.2"/>
  <path d="M51.2,64.6h-31c-5.7,0-9.6-3.8-9.6-9.5V17c0-5.7,3.8-9.5,9.6-9.5h31c5.7,0,9.5,3.8,9.5,9.5v38.1c0,5.7-3.8,9.5-9.5,9.5ZM20.2,10.5c-4,0-6.6,2.5-6.6,6.5v38.1c0,4,2.5,6.5,6.6,6.5h31c4,0,6.5-2.5,6.5-6.5V17c0-4-2.5-6.5-6.5-6.5h-31Z"/>
  <rect x="33" y="20.5" width="20.7" height="4"/>
  <rect x="33" y="33.5" width="20.7" height="4"/>
  <rect x="33" y="47.4" width="20.7" height="4"/>
</svg>