<svg xmlns="http://www.w3.org/2000/svg" viewBox="0 0 72 72">
  <circle cx="24.81" cy="28.08" r="4.2" fill="gray"/>
  <circle cx="52.83" cy="28.08" r="4.2" fill="gray"/>
  <circle cx="38.75" cy="28.08" r="4.2" fill="gray"/>
  <path d="M63.64,56.52,54.17,40.33a4.52,4.52,0,0,0-7.64,0l-2.42,4.13H25.54c-8.69,0-16-7.51-16-16.39s7.35-16.38,16-16.38H56.91v-3H25.54a19.23,19.23,0,0,0-19,19.38,19.24,19.24,0,0,0,19,19.39H42.36l-5.29,9A4.07,4.07,0,0,0,37,60.64a4.45,4.45,0,0,0,3.9,2.23H59.82a4.47,4.47,0,0,0,3.9-2.21A4.07,4.07,0,0,0,63.64,56.52Zm-1.53,3.2a2.57,2.57,0,0,1-2.3,1.3H40.9a2.59,2.59,0,0,1-2.3-1.3,2.18,2.18,0,0,1,0-2.27L48.1,41.29a2.68,2.68,0,0,1,4.48,0l9.48,16.18A2.18,2.18,0,0,1,62.11,59.72Z" fill="gray"/>
  <rect x="49.38" y="44.36" width="1.84" height="10.31" fill="gray"/>
  <rect x="49.38" y="56.67" width="1.84" height="2.23" fill="gray"/>
</svg>
