<svg xmlns="http://www.w3.org/2000/svg" viewBox="0 0 72 72">
  <polygon points="22.14 26.95 17.11 21.92 19.15 19.89 22.14 22.88 28.57 16.45 30.6 18.49 22.14 26.95" fill="gray"/>
  <polygon points="28.53 32.57 26.49 30.54 23.31 33.72 20.13 30.54 18.09 32.57 21.27 35.76 18.09 38.94 20.13 40.97 23.31 37.79 26.49 40.97 28.53 38.94 25.35 35.76 28.53 32.57" fill="gray"/>
  <polygon points="22.14 54.19 17.11 49.16 19.15 47.13 22.14 50.12 28.57 43.69 30.6 45.73 22.14 54.19" fill="gray"/>
  <path d="M51.2,64.6h-31c-5.71,0-9.55-3.82-9.55-9.51V17c0-5.68,3.84-9.5,9.55-9.5h31c5.71,0,9.55,3.82,9.55,9.5V55.09C60.75,60.78,56.91,64.6,51.2,64.6Zm-31-54.06c-4,0-6.55,2.49-6.55,6.5V55.09c0,4,2.51,6.51,6.55,6.51h31c4,0,6.55-2.5,6.55-6.51V17c0-4-2.51-6.5-6.55-6.5Z" fill="gray"/>
  <rect x="32.99" y="20.47" width="20.69" height="4" fill="gray"/>
  <rect x="32.99" y="33.45" width="20.69" height="4" fill="gray"/>
  <rect x="32.99" y="47.37" width="20.69" height="4" fill="gray"/>
</svg>
