<svg xmlns="http://www.w3.org/2000/svg" viewBox="0 0 72 72">
  <path d="M62.83,15.45H55.76a7.42,7.42,0,0,0-14,0H8.93v5H41.79a7.41,7.41,0,0,0,14,0h7Zm-14,7A4.43,4.43,0,1,1,53.21,18,4.44,4.44,0,0,1,48.78,22.41Z" fill="gray"/>
  <path d="M62.83,33.47H29.11a7.43,7.43,0,0,0-14.15,0h-6v5h6.2a7.42,7.42,0,0,0,13.8,0h33.9ZM22,40.16a4.43,4.43,0,1,1,4.43-4.43A4.44,4.44,0,0,1,22,40.16Z" fill="gray"/>
  <path d="M62.83,52.07H46.05a7.42,7.42,0,0,0-14,0H8.93v5H32.08a7.41,7.41,0,0,0,13.9,0H62.83ZM39,58.91a4.43,4.43,0,1,1,4.43-4.43A4.44,4.44,0,0,1,39,58.91Z" fill="gray"/>
</svg>
