<svg xmlns="http://www.w3.org/2000/svg" viewBox="0 0 72 72">
  <path d="M51.17,64.68h-31c-5.71,0-9.55-3.82-9.55-9.51v-38c0-5.68,3.84-9.5,9.55-9.5h31c5.71,0,9.55,3.82,9.55,9.5V55.17C60.72,60.86,56.88,64.68,51.17,64.68Zm-31-54.06c-4,0-6.55,2.49-6.55,6.5V55.17c0,4,2.51,6.51,6.55,6.51h31c4,0,6.55-2.5,6.55-6.51v-38c0-4-2.51-6.5-6.55-6.5Z" fill="gray"/>
  <rect x="24.78" y="37.76" width="21.82" height="3" fill="gray"/>
  <rect x="24.78" y="44.62" width="21.82" height="3" fill="gray"/>
  <rect x="24.78" y="51.47" width="21.82" height="3" fill="gray"/>
  <path d="M44.77,32.44l-3.53-7.9a6.68,6.68,0,1,0-10.43-.19l-3.62,8.08a.38.38,0,0,0,.09.45.41.41,0,0,0,.47.06l3.11-1.72.75,3.45A.39.39,0,0,0,32,35h0a.4.4,0,0,0,.36-.23l3.5-7.8.24,0h0l3.47,7.79A.4.4,0,0,0,40,35h0a.4.4,0,0,0,.35-.31l.79-3.47L44.2,33a.39.39,0,0,0,.47-.05A.4.4,0,0,0,44.77,32.44ZM36.1,15.11a5.18,5.18,0,1,1-5.18,5.18A5.19,5.19,0,0,1,36.1,15.11Z" fill="gray"/>
</svg>
