<svg xmlns="http://www.w3.org/2000/svg" viewBox="0 0 72 72">
  <rect x="23.5" y="33.1" width="25.1" height="2.8"/>
  <rect x="23.5" y="41.2" width="25.1" height="2.8"/>
  <rect x="23.5" y="16.9" width="11.2" height="10.6"/>
  <polygon points="39.8 27.4 39.8 24.8 48.7 24.8 48.7 27.4 39.8 27.4 39.8 27.4"/>
  <polygon points="39.8 19.7 39.8 17.1 48.7 17.1 48.7 19.7 39.8 19.7 39.8 19.7"/>
  <polygon points="23.5 52 23.5 49.4 48.7 49.4 48.7 52 23.5 52 23.5 52"/>
  <path d="M53.4,64.7H18.5c-2.4,0-4.4-2-4.4-4.4V11.5c0-2.4,2-4.4,4.4-4.4h34.9c2.4,0,4.4,2,4.4,4.4h0v48.8c0,2.4-2,4.4-4.4,4.4ZM18.5,10.6c-.5,0-.9.4-.9.8,0,0,0,0,0,0v48.8c0,.5.4.9.9.9h34.9c.5,0,.9-.4.9-.9V11.5c0-.5-.4-.9-.9-.9H18.5Z"/>
</svg>