<svg xmlns="http://www.w3.org/2000/svg" viewBox="0 0 72 72">
  <polygon points="27 37.3 27 34.7 44.9 34.7 44.9 37.3 27 37.3 27 37.3"/>
  <polygon points="27 29.7 27 27.1 44.9 27.1 44.9 29.6 27 29.6 27 29.7"/>
  <polygon points="27 44.7 27 42.1 44.9 42.1 44.9 44.7 27 44.7 27 44.7"/>
  <rect x="22.8" y="16.5" width="15.4" height="2.8"/>
  <path d="M53.4,64.7H18.5c-2.4,0-4.4-2-4.4-4.4V11.5c0-2.4,2-4.4,4.4-4.4h34.9c2.4,0,4.4,2,4.4,4.4h0v48.8c0,2.4-2,4.4-4.4,4.4ZM18.5,10.6c-.5,0-.9.4-.9.8,0,0,0,0,0,0v48.8c0,.5.4.9.9.9h34.9c.5,0,.9-.4.9-.9V11.5c0-.5-.4-.9-.9-.9H18.5Z"/>
</svg>