<svg xmlns="http://www.w3.org/2000/svg" viewBox="0 0 72 72">
  <path d="M62.8,15.4h-7.1c-1.4-3.9-5.6-5.9-9.5-4.5-2.1.7-3.8,2.4-4.5,4.5H8.9v5h32.9c1.3,3.9,5.6,5.9,9.4,4.6,2.1-.7,3.8-2.4,4.6-4.6h7v-5ZM48.8,22.5c-2.4,0-4.5-1.9-4.5-4.4,0-2.4,1.9-4.5,4.4-4.5,2.4,0,4.5,1.9,4.5,4.4,0,0,0,0,0,0,0,2.4-2,4.4-4.4,4.4h0Z"/>
  <path d="M62.8,33.5H29.1c-1.3-3.9-5.4-6.1-9.3-4.8-2.3.7-4.1,2.5-4.8,4.8h-6v5h6.2c1.5,3.8,5.8,5.7,9.6,4.2,1.9-.8,3.4-2.3,4.2-4.2h33.9v-5ZM22,40.2c-2.4,0-4.4-2-4.4-4.4,0-2.4,2-4.4,4.4-4.4,2.4,0,4.4,2,4.4,4.4,0,2.4-2,4.4-4.4,4.4Z"/>
  <path d="M62.8,52.1h-16.8c-1.4-3.9-5.6-5.9-9.5-4.5-2.1.7-3.8,2.4-4.5,4.5H8.9v5h23.2c1.4,3.8,5.7,5.8,9.5,4.4,2-.8,3.6-2.4,4.4-4.4h16.8v-5ZM39,58.9c-2.4,0-4.4-2-4.4-4.4s2-4.4,4.4-4.4,4.4,2,4.4,4.4c0,2.4-2,4.4-4.4,4.4Z"/>
</svg>