<svg xmlns="http://www.w3.org/2000/svg" viewBox="0 0 72 72">
  <path d="M35.66,65A28.82,28.82,0,1,1,64.48,36.22,28.85,28.85,0,0,1,35.66,65Zm0-53.64A24.82,24.82,0,1,0,60.48,36.22,24.86,24.86,0,0,0,35.66,11.4Z" fill="gray"/>
  <path d="M48,33.09a.52.52,0,0,0-.4-.12l-8.88,1.18,5.65-7.44a.5.5,0,0,0,.09-.41.48.48,0,0,0-.24-.33l-4-2.24a.44.44,0,0,0-.4,0,.45.45,0,0,0-.3.27l-3.64,8.35L32.17,24a.5.5,0,0,0-.3-.27.51.51,0,0,0-.4,0l-4,2.31a.53.53,0,0,0-.24.34.51.51,0,0,0,.09.4l5.58,7.24L24.26,33a.52.52,0,0,0-.4.12.5.5,0,0,0-.17.38V38a.5.5,0,0,0,.17.38.51.51,0,0,0,.39.12l8.68-1.12-5.64,7.24a.52.52,0,0,0-.09.4.45.45,0,0,0,.22.33l3.76,2.38a.56.56,0,0,0,.27.08l.14,0a.53.53,0,0,0,.32-.27L35.79,39l3.58,8.35a.55.55,0,0,0,.3.28.53.53,0,0,0,.41,0l4.16-2.38a.5.5,0,0,0,.24-.34.51.51,0,0,0-.1-.41l-5.69-7.11,8.87,1.06a.5.5,0,0,0,.56-.5V33.47A.49.49,0,0,0,48,33.09Z" fill="gray"/>
</svg>
