<svg xmlns="http://www.w3.org/2000/svg" viewBox="0 0 72 72">
  <polygon points="32.58 33.07 23.38 23.86 26.2 21.03 32.58 27.41 45.66 14.34 48.48 17.16 32.58 33.07" fill="gray"/>
  <path d="M51.27,64.68h-31c-5.71,0-9.54-3.82-9.54-9.51v-38c0-5.68,3.83-9.5,9.54-9.5h31c5.71,0,9.55,3.82,9.55,9.5V55.17C60.82,60.86,57,64.68,51.27,64.68Zm-31-54.06c-4,0-6.54,2.49-6.54,6.5V55.17c0,4,2.5,6.51,6.54,6.51h31c4,0,6.55-2.5,6.55-6.51v-38c0-4-2.51-6.5-6.55-6.5Z" fill="gray"/>
  <rect x="24.88" y="37.76" width="21.82" height="3" fill="gray"/>
  <rect x="24.88" y="44.62" width="21.82" height="3" fill="gray"/>
  <rect x="24.88" y="51.47" width="21.82" height="3" fill="gray"/>
</svg>
