<svg xmlns="http://www.w3.org/2000/svg" viewBox="0 0 72 72">
  <g>
    <path d="M63,63.21H51.19v-3H61.46c-.13-4.51-.29-9.08-.36-9.63l0-.09a2.38,2.38,0,0,0-1.3-2.1,65.34,65.34,0,0,0-8.32-3.55A28.09,28.09,0,0,1,45.11,42c-1.74-1.26-2.47-6.68-2.42-7.61.06-1.23,1.05-3.15,3.4-6.62l.18-.27a8.26,8.26,0,0,0,1.15-3.6,1.72,1.72,0,0,0-.15-.92,5.35,5.35,0,0,1-.44-1.55c-.07-.52-.15-.86-.22-1.19a24.23,24.23,0,0,1-.46-5.44c0-.93-.93-2.22-2.38-3.36-2.22-1.74-5.05-2.67-6.88-2.26a18.13,18.13,0,0,1-6.35.62,1,1,0,0,0-1,.24,7.28,7.28,0,0,0-2.69,3.81,23.59,23.59,0,0,0-1,7.15v.35a7.74,7.74,0,0,1-.23,2.17,3.93,3.93,0,0,0-.11,1,5.72,5.72,0,0,0,1.16,3l.57.78c2,2.65,3.09,4.33,3.19,5.57.12,1.45-.82,6.93-2.42,8.16-1.27,1-3.57,1.72-6.49,2.66a52.16,52.16,0,0,0-9.2,3.65A2.12,2.12,0,0,0,11,50.33l0,.26c-.07.55-.23,5.11-.36,9.62H20.92v3H9.07a1.5,1.5,0,0,1-1.5-1.54c.07-2.48.3-10.64.44-11.54l0-.21a5.07,5.07,0,0,1,2.79-4.16,53.77,53.77,0,0,1,9.76-3.88,27.32,27.32,0,0,0,5.53-2.15,15.14,15.14,0,0,0,1.31-5.57c-.14-.73-2-3.21-2.6-4-.3-.4-.54-.72-.66-.9a8.54,8.54,0,0,1-1.67-4.67,6.54,6.54,0,0,1,.2-1.75,5.37,5.37,0,0,0,.14-1.47V21A26.21,26.21,0,0,1,24,13.12,10.15,10.15,0,0,1,28,7.5a3.8,3.8,0,0,1,2.86-.69,15.65,15.65,0,0,0,5.42-.57c3.32-.74,7.13,1.06,9.39,2.84s3.48,3.76,3.52,5.65a21.63,21.63,0,0,0,.39,4.87A13.1,13.1,0,0,1,49.8,21a2.17,2.17,0,0,0,.22.76,4.54,4.54,0,0,1,.4,2.14,11,11,0,0,1-1.66,5.27l-.19.28c-2.59,3.82-2.86,4.87-2.89,5.1a15.6,15.6,0,0,0,1.24,5.05A28.2,28.2,0,0,0,52.5,42a67.57,67.57,0,0,1,8.71,3.72A5.33,5.33,0,0,1,64.05,50c.15,1,.38,9.15.45,11.63A1.49,1.49,0,0,1,63,63.21ZM46.73,39.87Z" />
    <path d="M36.19,45.3a10,10,0,0,0-1.1.08l1.82-1.82a1,1,0,0,0,0-1.41,1,1,0,0,0-1.42,0l-3.68,3.68a1,1,0,0,0,0,1.41L35.55,51a1,1,0,0,0,.7.29A1,1,0,0,0,37,51a1,1,0,0,0,0-1.42l-2.14-2.14a8.94,8.94,0,0,1,1.37-.12A8.75,8.75,0,1,1,29,51l6.46,6.46A1,1,0,0,0,36.86,56l-7.24-7.25a1,1,0,0,0-.72-.29,1,1,0,0,0-.72.33,10.72,10.72,0,0,0,8,18,10.74,10.74,0,1,0,0-21.48Z" />
  </g>
  <rect x="0.36" y="0.36" width="71.28" height="71.28" fill="none"/>
</svg>
