<svg xmlns="http://www.w3.org/2000/svg" viewBox="0 0 72 72">
  <path d="M63,64.14H51.21v-3H61.48c-.13-4.52-.28-9.08-.36-9.63v-.1a2.38,2.38,0,0,0-1.3-2.1,64.57,64.57,0,0,0-8.33-3.54,27.71,27.71,0,0,1-6.34-2.86c-1.74-1.25-2.47-6.68-2.43-7.61A2.85,2.85,0,0,1,44.17,33,1.47,1.47,0,0,0,45,31.68a9.64,9.64,0,0,1,1.34-3.26,8.13,8.13,0,0,0,1.16-3.6,1.79,1.79,0,0,0-.15-.93,5.25,5.25,0,0,1-.44-1.55c-.07-.51-.15-.86-.22-1.18a24,24,0,0,1-.47-5.45c0-.91-1-2.23-2.37-3.35-2.22-1.74-5-2.68-6.88-2.27a18,18,0,0,1-6.35.63,1,1,0,0,0-1,.24,7.15,7.15,0,0,0-2.69,3.8,24.1,24.1,0,0,0-1,7.15v.35a8.35,8.35,0,0,1-.22,2.18,3.55,3.55,0,0,0-.11,1,5.72,5.72,0,0,0,1.16,3,3,3,0,0,0,.57.56,2.64,2.64,0,0,1,1.16,1.88,2.09,2.09,0,0,0,.82,1.67,3.52,3.52,0,0,1,1.21,2.24c.12,1.45-.82,6.93-2.42,8.15-1.27,1-3.58,1.72-6.49,2.67a51.07,51.07,0,0,0-9.2,3.64,2.11,2.11,0,0,0-1.3,2l0,.26c-.07.55-.23,5.12-.36,9.63H21v3H9.1A1.5,1.5,0,0,1,7.6,62.6C7.66,60.12,7.89,52,8,51.06l0-.21a5,5,0,0,1,2.8-4.16,54,54,0,0,1,9.75-3.89,27.08,27.08,0,0,0,5.53-2.15,14.9,14.9,0,0,0,1.32-5.57l-.36-.37a5,5,0,0,1-1.65-3.27l-.13-.1a5.7,5.7,0,0,1-1.13-1.19,8.58,8.58,0,0,1-1.66-4.66,6.56,6.56,0,0,1,.19-1.75,5.11,5.11,0,0,0,.14-1.48v-.34A26.9,26.9,0,0,1,24,14.05a10.19,10.19,0,0,1,4-5.63,3.79,3.79,0,0,1,2.86-.69,15.73,15.73,0,0,0,5.41-.56c3.32-.74,7.14,1.06,9.39,2.83s3.49,3.77,3.52,5.65a21.81,21.81,0,0,0,.4,4.87c.09.39.17.79.26,1.4a2.46,2.46,0,0,0,.21.76,4.48,4.48,0,0,1,.41,2.14,11,11,0,0,1-1.66,5.26,7.41,7.41,0,0,0-.87,2,4.3,4.3,0,0,1-2.06,3.41.78.78,0,0,0-.15.1A15.93,15.93,0,0,0,47,40.52,29.16,29.16,0,0,0,52.53,43a66.19,66.19,0,0,1,8.71,3.72A5.33,5.33,0,0,1,64.08,51c.15,1,.38,9.16.45,11.63a1.52,1.52,0,0,1-.43,1.09A1.5,1.5,0,0,1,63,64.14ZM46.75,40.39h0Z" fill="gray"/>
  <path d="M36.21,45.24c-.36,0-.72,0-1.08.07l1.79-1.8a1,1,0,0,0,0-1.4,1,1,0,0,0-1.4,0l-3.64,3.65a1,1,0,0,0,0,1.4l3.7,3.7a1,1,0,0,0,1.4,0,1,1,0,0,0,0-1.4l-2.12-2.13a8.65,8.65,0,1,1-5.77,3.53l6.39,6.39a1,1,0,0,0,1.4-1.4l-7.16-7.17a1.05,1.05,0,0,0-.73-.29,1,1,0,0,0-.7.33,10.55,10.55,0,0,0-2.79,7.15A10.69,10.69,0,1,0,36.21,45.24Z" fill="gray"/>
</svg>
