<svg xmlns="http://www.w3.org/2000/svg" viewBox="0 0 72 72">
  <circle cx="13.29" cy="29.95" r="1.83" fill="gray"/>
  <rect x="26.29" y="41.63" width="18.66" height="2.76" fill="gray"/>
  <rect x="26.29" y="47.94" width="18.66" height="2.76" fill="gray"/>
  <polygon points="26.29 56.91 26.29 54.32 44.95 54.32 44.95 56.91 26.29 56.91 26.29 56.91" fill="gray"/>
  <path d="M60.26,22.34H23V10.42H48.49v8a1.5,1.5,0,0,0,3,0V8.92A1.5,1.5,0,0,0,50,7.42H21.48A1.5,1.5,0,0,0,20,8.92V22.34H11.21A5.82,5.82,0,0,0,5.4,28.15a.34.34,0,0,0,0,.1l1.23,18A5.81,5.81,0,0,0,12.45,52h4.27a1.5,1.5,0,1,0,0-3H12.45a2.8,2.8,0,0,1-2.81-2.8v-.1L8.4,28.1a2.82,2.82,0,0,1,2.81-2.76H60.26a2.81,2.81,0,0,1,2.8,2.76l-1.24,18v.1A2.8,2.8,0,0,1,59,49H51.49V37.32h2.62a1.5,1.5,0,0,0,0-3H17.44a1.5,1.5,0,0,0,0,3H20V63a1.5,1.5,0,0,0,1.5,1.5H50a1.5,1.5,0,0,0,1.5-1.5V52H59a5.8,5.8,0,0,0,5.8-5.74l1.24-18v-.1A5.81,5.81,0,0,0,60.26,22.34ZM48.49,61.52H23V37.43H48.49Z" fill="gray"/>
</svg>
