<svg xmlns="http://www.w3.org/2000/svg" viewBox="0 0 72 72">
  <g>
    <g>
      <path d="M17.2,23.85l.86-.86,1.43-.17c1.86-.22,3.39-.42,4.29-1.32a1.1,1.1,0,0,0,.06-1.67,2.53,2.53,0,0,0-1.27-.63L23.33,18a3.84,3.84,0,0,1,1.8,1,2.35,2.35,0,0,1,0,3.64c-1.18,1.19-2.87,1.4-4.44,1.52l-.82.06,0,0,1.93,1.93L20.66,27.3Z" fill="gray"/>
      <path d="M23.11,27.35a2.79,2.79,0,0,0,.7,1.18,1.22,1.22,0,0,0,1.86,0,1.43,1.43,0,0,0-.18-2.18l-.18-.18.93-.93.13.13c.48.45,1.27.86,1.88.25a1,1,0,0,0,0-1.46,2.15,2.15,0,0,0-1-.55L28,22.53a3.62,3.62,0,0,1,1.63,1,2.13,2.13,0,0,1,.14,3.18,2.16,2.16,0,0,1-2.32.51l0,0a2.23,2.23,0,0,1-.53,2.68,2.74,2.74,0,0,1-4-.2,3.68,3.68,0,0,1-1-1.53Z" fill="gray"/>
      <path d="M27.71,32.39a3.85,3.85,0,0,0,.63.54,2.22,2.22,0,0,0,1.11.36,3.45,3.45,0,0,0,1.89-.66l0,0A1.64,1.64,0,0,1,30,32.08c-.82-.81-.76-2.21.39-3.36a2.87,2.87,0,0,1,4.1-.33c1.17,1.17.72,2.85-.81,4.37a6.11,6.11,0,0,1-4.08,2A3.77,3.77,0,0,1,27.27,34a4.75,4.75,0,0,1-.62-.56Zm5.8-3.16c-.32-.32-1-.15-1.74.63-.6.62-.91,1.32-.52,1.71a.77.77,0,0,0,.81.15c.18-.07.32-.19.73-.61.84-.83,1.07-1.53.73-1.87Z" fill="gray"/>
      <path d="M40.65,34.68l-.83.84L32.36,39l-1.24-1.24,7.11-3.22v0l-2.15-2.16,1.13-1.12Z" fill="gray"/>
      <path d="M37.32,44l1.5-1.51L36.66,40.3l.87-.88,6-1.86,1.22,1.22L41,42.57l.63.63-1,1L40,43.59l-1.5,1.5Zm2.52-2.53,1.29-1.29c.34-.34.75-.67,1.11-1l0,0c-.49.21-.9.36-1.42.55l-2,.65,0,0Z" fill="gray"/>
      <path d="M48.31,44.56l-1.67-1.67-1.27,1,.2.19a2.85,2.85,0,0,1,.71,1.66,2.77,2.77,0,0,1-.91,2,3,3,0,0,1-4.42,0A3.88,3.88,0,0,1,40,46.31l1.2-.81a3,3,0,0,0,.68,1.12,1.38,1.38,0,0,0,2.1,0c.85-.84.49-1.76-.24-2.49a5.63,5.63,0,0,0-.46-.43l3.51-2.81,2.61,2.61Z" fill="gray"/>
      <path d="M45.79,50.47a3.85,3.85,0,0,0,.63.54,2.22,2.22,0,0,0,1.11.36,3.45,3.45,0,0,0,1.89-.66l0,0a1.65,1.65,0,0,1-1.29-.52c-.82-.81-.76-2.21.4-3.36a2.86,2.86,0,0,1,4.09-.33c1.17,1.17.72,2.85-.8,4.37a6.15,6.15,0,0,1-4.09,2,3.77,3.77,0,0,1-2.35-.76,4.75,4.75,0,0,1-.62-.56Zm5.8-3.16c-.32-.32-1-.15-1.74.63-.6.62-.91,1.32-.52,1.71a.79.79,0,0,0,.82.15,2.4,2.4,0,0,0,.72-.61c.84-.83,1.07-1.53.73-1.87Z" fill="gray"/>
    </g>
    <path d="M61.73,41.33,30.81,10.41a6.46,6.46,0,0,0-9.1,0,22.26,22.26,0,0,1-2.22,1.88,5.63,5.63,0,0,0-3.95-1.86,5.17,5.17,0,0,0-5.16,5.17,5.66,5.66,0,0,0,1.9,4c.05.05-2.09,2.35-2.09,2.35a6.46,6.46,0,0,0,0,9.1L41.11,62a6.47,6.47,0,0,0,9.1,0L61.73,50.43A6.46,6.46,0,0,0,61.73,41.33ZM14.82,12.71a2.17,2.17,0,1,1-2.16,2.17A2.17,2.17,0,0,1,14.82,12.71ZM58.26,49.82,49.6,58.48a3.08,3.08,0,0,1-4.24,0l-18.22-15L13.66,26.78a3,3,0,0,1,0-4.24l8.66-8.66a3,3,0,0,1,4.24,0L43.28,27.36l15,18.22A3,3,0,0,1,58.26,49.82Z" fill="gray"/>
  </g>
  <rect x="0.36" y="0.36" width="71.28" height="71.28" fill="none"/>
</svg>
