<svg xmlns="http://www.w3.org/2000/svg" viewBox="0 0 72 72">
  <polygon points="23.9 32.6 17.3 26 20 23.4 23.9 27.3 32.3 18.9 35 21.5 23.9 32.6"/>
  <polygon points="32.3 41.1 29.6 38.4 25.4 42.6 21.3 38.4 18.6 41.1 22.8 45.3 18.6 49.4 21.3 52.1 25.4 47.9 29.6 52.1 32.3 49.4 28.1 45.3 32.3 41.1"/>
  <polygon points="45 32.6 38.4 26 41.1 23.4 45 27.3 53.5 18.9 56.1 21.5 45 32.6"/>
  <polygon points="45 51.7 38.4 45.1 41.1 42.4 45 46.3 53.5 37.9 56.1 40.5 45 51.7"/>
  <path d="M53.3,64.3H18.7c-5.7,0-9.6-3.8-9.6-9.5V16.8c0-5.7,3.8-9.5,9.6-9.5h34.6c5.7,0,9.5,3.8,9.5,9.5v38c0,5.7-3.8,9.5-9.5,9.5ZM18.7,10.3c-4,0-6.6,2.5-6.6,6.5v38c0,4,2.5,6.5,6.6,6.5h34.6c4,0,6.5-2.5,6.5-6.5V16.8c0-4-2.5-6.5-6.5-6.5H18.7Z"/>
</svg>