<svg xmlns="http://www.w3.org/2000/svg" viewBox="0 0 72 72">
  <g>
    <path d="M52.79,17.63A12.46,12.46,0,0,0,40.47,28.11H8.32a2,2,0,0,0,0,4h4.73V38.5h4.62V32.11h4.38V38.5h4.62V32.11H40.5A12.47,12.47,0,1,0,52.79,17.63Zm0,20.77A8.39,8.39,0,1,1,61.27,30,8.45,8.45,0,0,1,52.79,38.4Z" fill="gray"/>
    <g opacity="0.8">
      <path d="M58.67,63.75H23.05a1.25,1.25,0,0,1-.88-.36c-5-5-6.79-15-6.79-22.71h2.5c0,8.75,2.23,16.73,5.71,20.57H56C53.34,57.5,51.75,52.16,51.16,45l2.49-.21c.66,8,2.6,13.47,5.91,16.79a1.25,1.25,0,0,1-.89,2.13Z" fill="gray"/>
    </g>
    <g opacity="0.8">
      <path d="M18,26.17l-2.5-.08c.21-6.24.47-14-1.52-16.26a1.22,1.22,0,0,1-.2-1.34,1.24,1.24,0,0,1,1.13-.74H50.55a1.29,1.29,0,0,1,.94.42c1.22,1.39,1.91,3.72,2.16,7.36l-2.49.18a12.89,12.89,0,0,0-1.24-5.46H17.06C18.31,13.55,18.25,18.93,18,26.17Z" fill="gray"/>
    </g>
  </g>
  <rect x="0.36" y="0.36" width="71.28" height="71.28" fill="none"/>
</svg>
