<svg xmlns="http://www.w3.org/2000/svg" viewBox="0 0 72 72">
  <g>
    <path d="M24.84,29.82a5.29,5.29,0,1,1,5.29-5.29A5.29,5.29,0,0,1,24.84,29.82Zm0-8.42A3.13,3.13,0,1,0,28,24.53,3.13,3.13,0,0,0,24.84,21.4Z" fill="gray"/>
    <path d="M39.92,60.69a4.41,4.41,0,0,1-3.11-1.28L13.53,36.14a5.84,5.84,0,0,1-1.65-4.06V17.41a5.84,5.84,0,0,1,5.83-5.83l14.68,0a5.81,5.81,0,0,1,4.13,1.71L59.75,36.46h0a4.39,4.39,0,0,1,0,6.22L43,59.4A4.38,4.38,0,0,1,39.92,60.69ZM32.4,14.8l-14.68,0a2.59,2.59,0,0,0-2.6,2.59V32.08a2.59,2.59,0,0,0,.72,1.79L39.1,57.11a1.16,1.16,0,0,0,1.64,0L57.46,40.39a1.16,1.16,0,0,0,0-1.64L34.23,15.56A2.57,2.57,0,0,0,32.4,14.8Z" fill="gray"/>
  </g>
  <rect x="0.36" y="0.36" width="71.28" height="71.28" fill="none"/>
</svg>
