<svg xmlns="http://www.w3.org/2000/svg" viewBox="0 0 72 72">
  <path d="M62,25.32a1.5,1.5,0,0,0,1.5-1.5V12A1.5,1.5,0,0,0,62,10.5H40.78a1.5,1.5,0,0,0-1.5,1.5v4.84H32.73V8.71a1.5,1.5,0,0,0-1.5-1.5H8.5A1.5,1.5,0,0,0,7,8.71V26.65a1.5,1.5,0,0,0,1.5,1.5H31.23a1.5,1.5,0,0,0,1.5-1.5V18.84h6.55v5a1.5,1.5,0,0,0,1.5,1.5H50.3v4.8H40.78a1.5,1.5,0,0,0-1.5,1.5V43.44a1.5,1.5,0,0,0,1.5,1.5H50.3v4.8H40.78a1.5,1.5,0,0,0-1.5,1.5V63.06a1.5,1.5,0,0,0,1.5,1.5H62a1.5,1.5,0,0,0,1.5-1.5V51.24a1.5,1.5,0,0,0-1.5-1.5H52.3v-4.8H62a1.5,1.5,0,0,0,1.5-1.5V31.62a1.5,1.5,0,0,0-1.5-1.5H52.3v-4.8Zm-32.28-.17H10V10.21H29.73ZM60.51,61.56H42.28V52.74H60.51Zm0-19.62H42.28V33.12H60.51ZM42.28,13.5H60.51v8.82H42.28Z" fill="gray"/>
</svg>
