<svg xmlns="http://www.w3.org/2000/svg" viewBox="0 0 72 72">
  <g>
    <path d="M53,7.11A12.47,12.47,0,0,0,40.63,17.6H8.48a2,2,0,0,0,0,4h4.74V28h4.62V21.6h4.38V28h4.62V21.6H40.66A12.47,12.47,0,1,0,53,7.11Zm0,20.77a8.39,8.39,0,1,1,8.48-8.38A8.45,8.45,0,0,1,53,27.88Z" />
    <g>
      <path d="M18.76,63a.15.15,0,0,1-.15-.15v-14a.14.14,0,0,1,.09-.13h.06a.15.15,0,0,1,.11,0l4.33,4.34,8-8-4.37-4.36a.14.14,0,0,1,0-.16.16.16,0,0,1,.14-.1l14,0a.14.14,0,0,1,.15.15v14a.13.13,0,0,1-.09.14h-.06a.12.12,0,0,1-.1,0l-4.35-4.36-7.95,7.94,4.39,4.39a.16.16,0,0,1,0,.16.15.15,0,0,1-.14.1Z"  fill-rule="evenodd"/>
      <path d="M26.89,40.65l14,0v14L36.46,50.2,28.3,58.36l4.49,4.5-14,0v-14l4.44,4.44,8.16-8.16-4.48-4.47m0-.3a.32.32,0,0,0-.28.19.31.31,0,0,0,.07.33L31,45.12l-7.74,7.73L19,48.62a.3.3,0,0,0-.21-.08.2.2,0,0,0-.11,0,.28.28,0,0,0-.19.27v14a.29.29,0,0,0,.3.3l14,0h0a.32.32,0,0,0,.28-.19.3.3,0,0,0-.07-.33l-4.28-4.28,7.74-7.73,4.24,4.26a.32.32,0,0,0,.21.08A.25.25,0,0,0,41,55a.29.29,0,0,0,.18-.28v-14a.29.29,0,0,0-.3-.3l-14,0Z" />
    </g>
    <g>
      <path d="M37.69,63a.13.13,0,0,1-.1,0L36,61.31a.15.15,0,0,1,0-.16.14.14,0,0,1,.14-.09H47.44V34h-27v11.4a.17.17,0,0,1-.09.14H20.3a.21.21,0,0,1-.11,0L18.61,44a.12.12,0,0,1,0-.1V32.35a.15.15,0,0,1,.15-.15H49.16a.15.15,0,0,1,.15.15V62.82a.15.15,0,0,1-.15.15Z"  fill-rule="evenodd"/>
      <path d="M49.16,32.35V62.82H37.69l-1.61-1.61H47.59V33.88H20.3V45.43l-1.58-1.58V32.35H49.16m0-.3H18.72a.3.3,0,0,0-.3.3v11.5a.32.32,0,0,0,.08.21l1.59,1.58a.27.27,0,0,0,.21.09l.11,0a.3.3,0,0,0,.19-.28V34.18H47.29V60.91H36.08a.3.3,0,0,0-.22.51L37.48,63a.32.32,0,0,0,.21.08H49.16a.3.3,0,0,0,.3-.3V32.35a.31.31,0,0,0-.3-.3Z" />
    </g>
  </g>
  <rect x="0.36" y="0.36" width="71.28" height="71.28" fill="none"/>
</svg>
