<svg xmlns="http://www.w3.org/2000/svg" viewBox="0 0 72 72">
  <g>
    <path d="M36,8.07a28.32,28.32,0,0,0-14.8,52.46V56.91a25.27,25.27,0,0,1-5.65-5.61h5.65V50.11a4,4,0,0,1,.44-1.81h-8a25.06,25.06,0,0,1-2.95-10.75H21.06a51.69,51.69,0,0,0,1.14,9.88,4,4,0,0,1,1-.79,15.79,15.79,0,0,1,1.75-.86,49.78,49.78,0,0,1-.87-8.23h3.19a10.66,10.66,0,0,1,3.2-3H24.09a46.84,46.84,0,0,1,1.39-10h9v8.57A10.17,10.17,0,0,1,35.93,33a11,11,0,0,1,1.53.12V24.55h9a47.47,47.47,0,0,1,1.4,10H41.41a10.69,10.69,0,0,1,3.21,3h3.23A48.86,48.86,0,0,1,47,45.8a15.36,15.36,0,0,1,1.77.88,3.78,3.78,0,0,1,1,.77,51.81,51.81,0,0,0,1.14-9.9h10.4a25.2,25.2,0,0,1-3,10.75h-8a4,4,0,0,1,.46,1.84V51.3h5.65a25.7,25.7,0,0,1-5.65,5.61v3.62A28.32,28.32,0,0,0,36,8.07ZM21.08,34.55H10.71a25.08,25.08,0,0,1,2.88-10h8.78A51.39,51.39,0,0,0,21.08,34.55Zm2.12-13H15.46A25.38,25.38,0,0,1,28,12.38,26.74,26.74,0,0,0,23.2,21.55Zm11.26,0H26.38c1.91-5.48,4.81-9.34,8.08-10.26Zm3,0V11.29c3.27.92,6.17,4.78,8.07,10.26Zm11.26,0A27.09,27.09,0,0,0,44,12.38a25.36,25.36,0,0,1,12.49,9.17Zm2.11,13a50.65,50.65,0,0,0-1.28-10h8.78a25.07,25.07,0,0,1,2.87,10Z" fill="gray"/>
    <path d="M47.51,48.84A19.66,19.66,0,0,0,44,47.32V43.6a8.1,8.1,0,0,0-16.2,0v3.72a19.29,19.29,0,0,0-3.42,1.49,1.51,1.51,0,0,0-.75,1.3V60.86a1.52,1.52,0,0,0,.75,1.3,23.67,23.67,0,0,0,11.52,2.73,23.64,23.64,0,0,0,11.58-2.76,1.52,1.52,0,0,0,.75-1.3V50.14A1.52,1.52,0,0,0,47.51,48.84ZM30.83,43.6a5.1,5.1,0,0,1,10.2,0v2.95a27.91,27.91,0,0,0-10.2,0ZM45.26,59.93a21.69,21.69,0,0,1-9.33,2A21.24,21.24,0,0,1,26.66,60V51a21.24,21.24,0,0,1,9.27-1.94,21.69,21.69,0,0,1,9.33,2Z" fill="gray"/>
  </g>
  <rect x="0.36" y="0.36" width="71.28" height="71.28" fill="none"/>
</svg>
