<svg xmlns="http://www.w3.org/2000/svg" width="72" height="72" viewBox="0 0 72 72">
  <title>1-icons_expanded_2</title>
  <path d="M64,34.84a28.32,28.32,0,1,0-42.4,24.55V61a1.25,1.25,0,0,0,.63,1.09,27.53,27.53,0,0,0,13.42,3.17,27.5,27.5,0,0,0,13.48-3.21A1.23,1.23,0,0,0,49.79,61v-1.6A28.32,28.32,0,0,0,64,34.84Zm-6,11.91H49.29A50.6,50.6,0,0,0,50.61,36H61A25.2,25.2,0,0,1,58.06,46.75ZM43.55,36h4.06a48.54,48.54,0,0,1-1.24,9.9q-.78-.32-1.59-.57V40.54A9.07,9.07,0,0,0,43.55,36ZM25.07,45.88A47.64,47.64,0,0,1,23.82,36h4a9,9,0,0,0-1.23,4.54v4.79C26.08,45.5,25.57,45.68,25.07,45.88Zm9.15-14.3A9,9,0,0,0,30.62,33H23.85a46.84,46.84,0,0,1,1.39-10h9Zm-5.12,9a6.59,6.59,0,0,1,13.18,0v4.15a32.27,32.27,0,0,0-13.18,0ZM61,33H50.59a50.65,50.65,0,0,0-1.28-10h8.78A25.07,25.07,0,0,1,61,33ZM56.21,20H48.48a27.09,27.09,0,0,0-4.76-9.17A25.36,25.36,0,0,1,56.21,20Zm-19-10.26c3.27.92,6.17,4.78,8.07,10.26H37.22Zm9,13.26a47.47,47.47,0,0,1,1.4,10H40.76a9.15,9.15,0,0,0-3.54-1.41V23Zm-12-13.26V20H26.14C28.05,14.52,31,10.66,34.22,9.74Zm-6.5,1.09A26.74,26.74,0,0,0,23,20H15.22A25.38,25.38,0,0,1,27.72,10.83ZM13.35,23h8.78a51.39,51.39,0,0,0-1.29,10H10.47A25.08,25.08,0,0,1,13.35,23ZM10.43,36H20.82a51.23,51.23,0,0,0,1.33,10.75H13.38A25.06,25.06,0,0,1,10.43,36Zm4.84,13.75h6.37v6.09A25.61,25.61,0,0,1,15.27,49.75Zm32,10.5a25.51,25.51,0,0,1-11.6,2.53,25.61,25.61,0,0,1-11.55-2.5V49a25.61,25.61,0,0,1,11.55-2.5A25.51,25.51,0,0,1,47.29,49Zm2.5-4.41V49.75h6.38A25.48,25.48,0,0,1,49.79,55.84Z" fill="gray"/>
  <rect x="0.36" y="0.36" width="71.28" height="71.28" fill="none"/>
</svg>
