<svg xmlns="http://www.w3.org/2000/svg" viewBox="0 0 72 72">
  <path d="M59.65,14.54,36.27,7.41a1.64,1.64,0,0,0-.88,0L12,14.54A1.52,1.52,0,0,0,11,16.12l2,21.52a71.2,71.2,0,0,0,1.73,10c1.17,4.38,7.59,9.68,19.6,16.21l.77.42a1.52,1.52,0,0,0,.74.2,1.49,1.49,0,0,0,.74-.2l.77-.42C49.35,57.27,55.77,52,57,47.59a72.66,72.66,0,0,0,1.72-10l2-21.48A1.51,1.51,0,0,0,59.65,14.54ZM35.83,10.42l21.78,6.63-.36,3.75H14.41l-.35-3.75ZM54.05,46.81c-.65,2.4-4.32,6.84-18.15,14.36l-.07,0-.07,0c-13.83-7.52-17.5-12-18.15-14.36A69.15,69.15,0,0,1,16,37.32l-.52-5.5H56.21l-.52,5.46A70.37,70.37,0,0,1,54.05,46.81Z" fill="gray"/>
  <rect x="0.36" y="0.36" width="71.28" height="71.28" fill="none"/>
</svg>
