<svg xmlns="http://www.w3.org/2000/svg" viewBox="0 0 72 72">
  <g>
    <path d="M59.92,52V50H50.13V43.84H40.88V30.67a.3.3,0,0,0-.3-.3H19.28a.3.3,0,0,0-.3.3V44.32a.27.27,0,0,0,.09.21l1.1,1.11a.3.3,0,0,0,.21.09l.12,0a.28.28,0,0,0,.18-.27V32H39.19v1.84l-9.74,9.74L24.78,39l-2.12,2.12,6.79,6.79,9.74-9.74V50.57H25.48a.32.32,0,0,0-.28.19.29.29,0,0,0,.07.32l1.13,1.14a.32.32,0,0,0,.21.08h14a.29.29,0,0,0,.3-.3V45.84h7.25v17h2V58.93h9.79v-2H50.13V52Z" fill="gray"/>
    <path d="M52.87,6.86A12.47,12.47,0,0,0,40.55,17.35H8.4a2,2,0,1,0,0,4h4.73v6.38h4.63V21.35h4.37v6.38h4.63V21.35H40.58A12.47,12.47,0,1,0,52.87,6.86Zm0,20.77a8.39,8.39,0,1,1,8.49-8.38A8.44,8.44,0,0,1,52.87,27.63Z" fill="gray"/>
  </g>
  <rect x="0.36" y="0.36" width="71.28" height="71.28" fill="none"/>
</svg>
