<?xml version="1.0" encoding="utf-8"?>
<!-- Generator: Adobe Illustrator 26.5.3, SVG Export Plug-In . SVG Version: 6.00 Build 0)  -->
<svg version="1.1" id="Layer_1" xmlns="http://www.w3.org/2000/svg" xmlns:xlink="http://www.w3.org/1999/xlink" x="0px" y="0px"
	 viewBox="0 0 72 72" style="enable-background:new 0 0 72 72;" xml:space="preserve">
<path d="M46.1,30.9c-3,0-5.4-2.4-5.4-5.4s2.4-5.4,5.4-5.4s5.4,2.4,5.4,5.4S49.1,30.9,46.1,30.9z M46.1,22.1c-1.9,0-3.4,1.5-3.4,3.4
	s1.5,3.4,3.4,3.4c1.9,0,3.4-1.5,3.4-3.4S48,22.1,46.1,22.1z"/>
<path d="M20.8,61h-8.5c-0.9,0-1.6-0.7-1.6-1.6v-8c0-0.4,0.2-0.9,0.5-1.2l20.6-20.6c-0.4-1.3-0.6-2.7-0.6-4.1
	c0-8.3,6.8-15.1,15.1-15.1s15.1,6.8,15.1,15.1s-6.8,15.1-15.1,15.1c-1.3,0-2.5-0.2-3.8-0.5l-6.6,6.6c-0.3,0.3-0.7,0.5-1.2,0.5h-3v3
	c0,0.4-0.2,0.9-0.5,1.2c-0.3,0.3-0.7,0.5-1.2,0.5h-3v2.9c0,0.4-0.2,0.9-0.5,1.2c-0.3,0.3-0.7,0.5-1.2,0.5h-3v3
	c0,0.4-0.2,0.9-0.5,1.2C21.6,60.9,21.2,61,20.8,61L20.8,61z M13.9,57.7h5.2v-3c0-0.4,0.2-0.9,0.5-1.2c0.3-0.3,0.7-0.5,1.2-0.5h3v-3
	c0-0.4,0.2-0.9,0.5-1.2c0.3-0.3,0.7-0.5,1.2-0.5h3v-2.9c0-0.4,0.2-0.9,0.5-1.2c0.3-0.3,0.7-0.5,1.2-0.5h4l6.8-6.8
	c0.4-0.4,1.1-0.6,1.7-0.4c1.2,0.4,2.5,0.6,3.7,0.6c6.5,0,11.8-5.3,11.8-11.8s-5.3-11.8-11.8-11.8S34.3,19,34.3,25.5
	c0,1.3,0.2,2.7,0.7,4c0.2,0.6,0.1,1.3-0.4,1.7L13.9,52L13.9,57.7L13.9,57.7z"/>
</svg>
