<svg xmlns="http://www.w3.org/2000/svg" viewBox="0 0 72 72">
  <rect x="26.72" y="16.27" width="18.15" height="3" fill="gray"/>
  <rect x="26.85" y="23.79" width="18.02" height="3" fill="gray"/>
  <g>
    <path d="M50.18,37.08A5.21,5.21,0,0,0,45.5,38.5a5.13,5.13,0,0,0,2.65,8.67,4.85,4.85,0,0,0,1,.1,5.14,5.14,0,0,0,1-10.19Zm1.43,7.46a3.44,3.44,0,1,1-2.45-5.84,4.23,4.23,0,0,1,.7.06,3.46,3.46,0,0,1,2.69,2.69A3.38,3.38,0,0,1,51.61,44.54Z" fill="gray" fill-rule="evenodd"/>
    <path d="M62.08,39.17l-2.76-.55a10.69,10.69,0,0,0-.48-1.15l1.56-2.32a1.79,1.79,0,0,0-.23-2.26l-1.72-1.71a1.8,1.8,0,0,0-1.27-.53,1.77,1.77,0,0,0-1,.3l-.79.52V10.77a3.5,3.5,0,0,0-3.5-3.5H19.73a3.51,3.51,0,0,0-3.5,3.5V60.56a3.51,3.51,0,0,0,3.5,3.5h9a1.5,1.5,0,1,0,0-3h-9a.5.5,0,0,1-.5-.5V10.77a.51.51,0,0,1,.5-.5H51.9a.5.5,0,0,1,.5.5V30.58l-.26-1.28a1.8,1.8,0,0,0-1.76-1.45H47.94a1.81,1.81,0,0,0-1.76,1.45L45.63,32a10.69,10.69,0,0,0-1.15.48L42.14,31a1.79,1.79,0,0,0-1-.3,1.76,1.76,0,0,0-1.27.53l-1.73,1.71a1.77,1.77,0,0,0-.22,2.25l1.55,2.33A10.69,10.69,0,0,0,39,38.62l-2.75.55a1.78,1.78,0,0,0-1.44,1.75v2.41a1.79,1.79,0,0,0,1.44,1.76l2.75.55a11.61,11.61,0,0,0,.48,1.15l-1.55,2.32a1.77,1.77,0,0,0,.22,2.25l1.73,1.72a1.78,1.78,0,0,0,1.22.52l-3.62,8.55a.82.82,0,0,0,.21.94.83.83,0,0,0,1,.11l3.67-2,.89,4.07a.84.84,0,0,0,.72.65H44a.85.85,0,0,0,.76-.48l4.23-9h.12l4.48,9a.85.85,0,0,0,.75.47h.1a.83.83,0,0,0,.71-.64l.94-4.1,3.63,2.06a.83.83,0,0,0,1.17-1l-3.64-8.58a1.81,1.81,0,0,0,1.18-.51l1.72-1.72a1.77,1.77,0,0,0,.23-2.25l-1.56-2.32a11.61,11.61,0,0,0,.48-1.15l2.76-.55a1.79,1.79,0,0,0,1.43-1.75V40.91A1.77,1.77,0,0,0,62.08,39.17ZM44.31,62.49l-.6-2.77a.83.83,0,0,0-.47-.58.81.81,0,0,0-.74,0L40,60.58l3.43-8.09h0l1.1-.73a9.62,9.62,0,0,0,1.15.48L46.18,55a1.8,1.8,0,0,0,1.07,1.29ZM56,59.16a.8.8,0,0,0-.74,0,.83.83,0,0,0-.48.57l-.66,2.91L50.94,56.3A1.76,1.76,0,0,0,52.14,55l.55-2.73a9.12,9.12,0,0,0,1.16-.48l1.15.77,3.42,8Zm2.93-15.29A1.77,1.77,0,0,0,57.55,45a9.82,9.82,0,0,1-.4.94,1.76,1.76,0,0,0,.12,1.76L59,50.16l-1.71,1.7-2.45-1.67a1.76,1.76,0,0,0-1-.3,1.78,1.78,0,0,0-.78.18,10,10,0,0,1-1,.4,1.73,1.73,0,0,0-1.16,1.32l-.55,2.94H48l-.55-2.94a1.74,1.74,0,0,0-1.15-1.32,10.2,10.2,0,0,1-1-.4,1.74,1.74,0,0,0-.77-.18,1.77,1.77,0,0,0-1,.3L41.1,51.85l-1.7-1.7,1.66-2.42A1.74,1.74,0,0,0,41.18,46a8.62,8.62,0,0,1-.39-.95,1.79,1.79,0,0,0-1.33-1.15l-3.18-.55v-2.4l3.18-.54a1.79,1.79,0,0,0,1.33-1.15,7.27,7.27,0,0,1,.39-1,1.74,1.74,0,0,0-.12-1.75l-1.71-2.47,1.71-1.7,2.48,1.7a1.76,1.76,0,0,0,1.76.12,8.62,8.62,0,0,1,1-.39,1.76,1.76,0,0,0,1.16-1.33l.55-3.1h2.41l.55,3.11a1.76,1.76,0,0,0,1.16,1.33,8.62,8.62,0,0,1,1,.39,1.78,1.78,0,0,0,.78.18,1.76,1.76,0,0,0,1-.3l2.49-1.71L59,34.06l-1.72,2.48a1.77,1.77,0,0,0-.12,1.75,9,9,0,0,1,.4,1,1.77,1.77,0,0,0,1.33,1.15l2.93.54v2.4Z" fill="gray" fill-rule="evenodd"/>
  </g>
</svg>
