<svg xmlns="http://www.w3.org/2000/svg" viewBox="0 0 72 72">
  <g>
    <path d="M53.87,6.86A12.47,12.47,0,0,0,41.55,17.35H9.4a2,2,0,1,0,0,4h4.73v6.38h4.63V21.35h4.37v6.38h4.63V21.35H41.58A12.47,12.47,0,1,0,53.87,6.86Zm0,20.77a8.39,8.39,0,1,1,8.49-8.38A8.44,8.44,0,0,1,53.87,27.63Z" fill="gray"/>
    <path d="M50.07,31.8H19.63a.31.31,0,0,0-.3.3V51.6a.33.33,0,0,0,.09.21L21,53.39a.31.31,0,0,0,.22.09l.11,0a.31.31,0,0,0,.18-.28V33.93h26.7v2.82l-14.05,14L27.39,44l-2.83,2.83,9.6,9.6L48.21,42.41V60.66H28.49a.28.28,0,0,0-.27.18.31.31,0,0,0,.06.33l1.62,1.62a.3.3,0,0,0,.21.08h20a.29.29,0,0,0,.3-.3V32.1A.3.3,0,0,0,50.07,31.8Z" fill="gray"/>
  </g>
  <rect x="0.36" y="0.36" width="71.28" height="71.28" fill="none"/>
</svg>
