<svg xmlns="http://www.w3.org/2000/svg" viewBox="0 0 72 72">
  <polygon points="23.9 32.63 17.3 26.03 19.98 23.36 23.9 27.29 32.33 18.85 35.01 21.52 23.9 32.63" fill="gray"/>
  <polygon points="32.29 41.09 29.61 38.42 25.44 42.59 21.26 38.42 18.59 41.09 22.77 45.27 18.59 49.44 21.26 52.11 25.44 47.94 29.61 52.11 32.29 49.44 28.11 45.27 32.29 41.09" fill="gray"/>
  <polygon points="45.02 32.63 38.43 26.03 41.1 23.36 45.02 27.29 53.46 18.85 56.13 21.52 45.02 32.63" fill="gray"/>
  <polygon points="45.02 51.66 38.43 45.06 41.1 42.39 45.02 46.32 53.46 37.88 56.13 40.55 45.02 51.66" fill="gray"/>
  <path d="M53.26,64.35H18.7c-5.71,0-9.55-3.82-9.55-9.51V16.79c0-5.68,3.84-9.5,9.55-9.5H53.26c5.71,0,9.55,3.82,9.55,9.5V54.84C62.81,60.53,59,64.35,53.26,64.35ZM18.7,10.29c-4,0-6.55,2.49-6.55,6.5V54.84c0,4,2.51,6.51,6.55,6.51H53.26c4,0,6.55-2.5,6.55-6.51V16.79c0-4-2.51-6.5-6.55-6.5Z" fill="gray"/>
</svg>
