<svg xmlns="http://www.w3.org/2000/svg" viewBox="0 0 72 72">
  <g>
    <path d="M36,14a8.37,8.37,0,0,0-8.25,6.88H6.77a1.5,1.5,0,0,0,0,3h3.1v5h3v-5h2.87v5h3v-5h8.91A8.37,8.37,0,1,0,36,14Zm0,13.63a5.32,5.32,0,1,1,5.38-5.32A5.36,5.36,0,0,1,36,27.58Z" fill="gray"/>
    <g opacity="0.8">
      <path d="M59.34,63.75H23.72a1.29,1.29,0,0,1-.89-.36C17.07,57.62,15.91,48,15.91,34.46h2.5c0,12.64,1,21.58,5.84,26.79H56.66c-4.84-6.79-5.33-17.56-5.08-28.32l2.5.06c-.26,11.41.3,22.78,6.15,28.63A1.27,1.27,0,0,1,60.5,63,1.25,1.25,0,0,1,59.34,63.75Z" fill="gray"/>
    </g>
    <g opacity="0.8">
      <path d="M54.39,23.16l-2.5-.06c.14-5.4.07-10.64-1.3-12.85H17.78a15.85,15.85,0,0,1,1.27,5.48l-2.5.13a11.13,11.13,0,0,0-1.89-6,1.25,1.25,0,0,1,.93-2.08H51.22a1.25,1.25,0,0,1,.93.42C54.28,10.58,54.59,15.49,54.39,23.16Z" fill="gray"/>
    </g>
    <path d="M64.49,21l-4.82-4.69a1.25,1.25,0,0,0-1.76,0L30.33,44.1a1.31,1.31,0,0,0-.26.4l-3.39,8.08a1.25,1.25,0,0,0,1.15,1.74,1.18,1.18,0,0,0,.48-.1l8.21-3.38a1.2,1.2,0,0,0,.41-.28L64.51,22.82a1.29,1.29,0,0,0,.36-.89A1.25,1.25,0,0,0,64.49,21ZM35.34,48.62l-5.19,2.14,2.13-5.07L55.75,22.08l3,3ZM59.84,24l-3-3,2-2,3,2.95Z" fill="gray"/>
  </g>
  <rect x="-0.14" y="0.36" width="71.28" height="71.28" fill="none"/>
</svg>
