<svg xmlns="http://www.w3.org/2000/svg" viewBox="0 0 72 72">
  <g>
    <polygon points="18.08 44.48 18.08 41.88 49.99 41.88 49.99 44.47 18.08 44.47 18.08 44.48" fill="gray"/>
    <polygon points="18.08 38.52 18.08 35.94 49.99 35.94 49.99 38.52 18.08 38.52 18.08 38.52" fill="gray"/>
    <polygon points="18.08 50.39 18.08 47.8 49.99 47.8 49.99 50.39 18.08 50.39 18.08 50.39" fill="gray"/>
    <polygon points="18.08 56.31 18.08 53.72 49.99 53.72 49.99 56.3 18.08 56.3 18.08 56.31" fill="gray"/>
    <polygon points="18.08 62.01 18.08 59.42 49.99 59.42 49.99 62.01 18.08 62.01 18.08 62.01" fill="gray"/>
    <path d="M52.79,7.13A12.46,12.46,0,0,0,40.47,17.61H8.32a2,2,0,0,0,0,4h4.73V28h4.62V21.61h4.38V28h4.62V21.61H40.5A12.47,12.47,0,1,0,52.79,7.13Zm0,20.77a8.39,8.39,0,1,1,8.48-8.39A8.45,8.45,0,0,1,52.79,27.9Z" fill="gray"/>
  </g>
  <rect x="0.36" y="0.36" width="71.28" height="71.28" fill="none"/>
</svg>
