<svg xmlns="http://www.w3.org/2000/svg" viewBox="0 0 72 72">
  <g>
    <path d="M49.43,64.47H41.35v-3h8.08a1.18,1.18,0,0,0,1.18-1.19V11.46a1.18,1.18,0,0,0-1.18-1.18H22a1.18,1.18,0,0,0-1.18,1.18V60.28A1.18,1.18,0,0,0,22,61.47h7.68v3H22a4.19,4.19,0,0,1-4.18-4.19V11.46A4.18,4.18,0,0,1,22,7.28h27.4a4.18,4.18,0,0,1,4.18,4.18V60.28A4.19,4.19,0,0,1,49.43,64.47Z" fill="gray"/>
    <path d="M40.82,18.64H30.63a1,1,0,1,1,0-2H40.82a1,1,0,0,1,0,2Z" fill="gray"/>
    <path d="M40.82,25.71H30.63a1,1,0,0,1,0-2H40.82a1,1,0,0,1,0,2Z" fill="gray"/>
    <path d="M27.64,55.22V35.89L40.83,49.7V37.12h2.73v19.2L30.37,42.55V55.22Z" fill="gray"/>
  </g>
  <rect x="0.36" y="0.36" width="71.28" height="71.28" fill="none"/>
</svg>
