<svg xmlns="http://www.w3.org/2000/svg" viewBox="0 0 72 72">
  <path d="M64.32,43a3.41,3.41,0,0,0-1.85-2.76c-1.38-.75-2.62-1.35-3.71-1.88a21.77,21.77,0,0,1-3.09-1.66A9.61,9.61,0,0,1,55,34.05a10.72,10.72,0,0,1,1.62-2.82l.13-.19a6.87,6.87,0,0,0,1-3.3,3,3,0,0,0-.27-1.41,1.06,1.06,0,0,1-.1-.34c0-.37-.11-.62-.16-.85a12.22,12.22,0,0,1-.22-2.79,5,5,0,0,0-2.21-3.6C53.46,17.66,51.11,16.55,49,17a8.94,8.94,0,0,1-3.06.33A2.58,2.58,0,0,0,44,17.8a6.37,6.37,0,0,0-2.51,3.53A16.19,16.19,0,0,0,40.86,26v.2a12.13,12.13,0,0,1-.08,1.68h-4a11.7,11.7,0,0,0-.08-3.31c-.07-.47-.13-.78-.2-1.08a17,17,0,0,1-.3-3.7c0-1.48-1-3-2.74-4.41s-4.69-2.77-7.27-2.19a11.55,11.55,0,0,1-4.11.43,3,3,0,0,0-2.26.55,7.85,7.85,0,0,0-3.11,4.36,20.39,20.39,0,0,0-.86,6.06v.26a4.32,4.32,0,0,1-.1,1.11,4.87,4.87,0,0,0-.16,1.36A6.78,6.78,0,0,0,16.88,31c.1.14.28.39.51.69a17.79,17.79,0,0,1,2,3,11.81,11.81,0,0,1-1,4.19,22.75,22.75,0,0,1-3.69,1.84A57.84,57.84,0,0,0,9,43.51a4,4,0,0,0-2.2,3.26l0,.16c-.11.69-.28,6.54-.33,8.32a1.23,1.23,0,0,0,.35.91,1.26,1.26,0,0,0,.9.38H45.22a1.26,1.26,0,0,0,.9-.38,1.23,1.23,0,0,0,.35-.92c-.07-1.82-.28-7.49-.4-8.87h2.59A2.35,2.35,0,0,0,51,44V30.27a2.35,2.35,0,0,0-2.35-2.35H43.3c0-.45.06-.93.06-1.68V26a13.85,13.85,0,0,1,.6-4.11,3.88,3.88,0,0,1,1.42-2c.1-.07.16-.09.16-.1h.18a10.79,10.79,0,0,0,3.85-.37,5.19,5.19,0,0,1,3.73,1.26,2.93,2.93,0,0,1,1.26,1.69,14.24,14.24,0,0,0,.28,3.27c0,.18.08.38.13.67a3.74,3.74,0,0,0,.28,1,.71.71,0,0,1,.06.39,4.43,4.43,0,0,1-.62,1.92l-.12.17c-1.43,2.12-2,3.25-2,4.05,0,.44.35,3.85,1.55,4.77h0a22.05,22.05,0,0,0,3.6,2c1.06.51,2.27,1.09,3.59,1.82a1,1,0,0,1,.57.92l0,.09c0,.34.13,2.73.19,4.85H50.55a1.25,1.25,0,0,0,0,2.5H63.34a1.25,1.25,0,0,0,1.25-1.29C64.54,47.78,64.41,43.64,64.32,43ZM43.93,54H9c.1-3.16.22-6.32.27-6.73l0-.21a1.56,1.56,0,0,1,1-1.42A57.82,57.82,0,0,1,15.7,43,21,21,0,0,0,20,40.84c1.3-1,2-5.25,1.89-6.33s-.93-2.27-2.47-4.33c-.19-.25-.35-.46-.43-.58a4.41,4.41,0,0,1-.87-2.24,2.65,2.65,0,0,1,.09-.78,6.66,6.66,0,0,0,.17-1.69v-.27a18.08,18.08,0,0,1,.79-5.45,5.39,5.39,0,0,1,2-2.85.72.72,0,0,1,.68-.17,14.09,14.09,0,0,0,4.9-.48c1.37-.31,3.5.4,5.18,1.72a4.09,4.09,0,0,1,1.78,2.48,18.27,18.27,0,0,0,.36,4.19c0,.25.11.51.17.91a8.35,8.35,0,0,1,0,3H28.33A2.35,2.35,0,0,0,26,30.27V44a2.35,2.35,0,0,0,2.35,2.35H43.58s0,.08,0,.13C43.64,47,43.81,51,43.93,54Zm4.73-9.67H28.33A.35.35,0,0,1,28,44V33.54l9.83,8a1,1,0,0,0,1.27,0L49,33.46V44A.35.35,0,0,1,48.66,44.37ZM49,30.27v.61L38.45,39.5,28,31v-.69a.35.35,0,0,1,.35-.35H41.75s.1,0,.15,0h6.76A.35.35,0,0,1,49,30.27Z" fill="gray"/>
  <rect x="0.36" y="0.36" width="71.28" height="71.28" fill="none"/>
</svg>
