<svg xmlns="http://www.w3.org/2000/svg" viewBox="0 0 72 72">
  <g>
    <path d="M59.61,14.53,36.22,7.4a1.61,1.61,0,0,0-.87,0L12,14.53a1.5,1.5,0,0,0-1.05,1.58l2,21.52a71.47,71.47,0,0,0,1.72,9.95c1.18,4.38,7.59,9.68,19.61,16.21l.76.42a1.42,1.42,0,0,0,.74.2,1.4,1.4,0,0,0,.74-.2l.77-.41C49.31,57.26,55.72,52,56.9,47.58a73.94,73.94,0,0,0,1.73-10l2-21.48A1.5,1.5,0,0,0,59.61,14.53ZM35.78,10.41,57.56,17l-.36,3.75H14.36L14,17ZM54,46.8c-.64,2.41-4.32,6.85-18.14,14.36l-.08,0-.07,0c-13.83-7.52-17.5-12-18.14-14.36a68.58,68.58,0,0,1-1.64-9.49l-.52-5.5H24.1l-.1-.14a1.87,1.87,0,0,1,.24-2.36l1.81-1.8A1.88,1.88,0,0,1,27.38,27a1.9,1.9,0,0,1,1,.32l2.45,1.62a12.82,12.82,0,0,1,1.21-.5l.58-2.87A1.89,1.89,0,0,1,34.51,24h2.56a1.88,1.88,0,0,1,1.84,1.5l.58,2.87a11.81,11.81,0,0,1,1.21.5l2.45-1.62a1.88,1.88,0,0,1,2.38.23l1.81,1.8a1.86,1.86,0,0,1,.23,2.36l-.09.14h8.68l-.52,5.46A68.25,68.25,0,0,1,54,46.8Z" fill="gray"/>
    <path d="M35.79,44.5A5.5,5.5,0,1,0,30.27,39,5.52,5.52,0,0,0,35.79,44.5Zm0-9A3.5,3.5,0,1,1,32.27,39,3.51,3.51,0,0,1,35.79,35.5Z" fill="gray"/>
    <path d="M25.13,35.32l-2.88.57a1.89,1.89,0,0,0-1.52,1.84v2.54a1.89,1.89,0,0,0,1.52,1.84l2.88.57a11.81,11.81,0,0,0,.5,1.21L24,46.33a1.87,1.87,0,0,0,.24,2.36l1.81,1.8a1.87,1.87,0,0,0,2.37.23l2.45-1.62a10.06,10.06,0,0,0,1.22.5l.57,2.87A1.89,1.89,0,0,0,34.51,54h2.56a1.88,1.88,0,0,0,1.84-1.5l.58-2.87a11.81,11.81,0,0,0,1.21-.5l2.45,1.62a1.88,1.88,0,0,0,2.38-.23l1.81-1.8a1.86,1.86,0,0,0,.23-2.36l-1.63-2.44a11.86,11.86,0,0,0,.51-1.21l2.88-.57a1.88,1.88,0,0,0,1.51-1.84V37.73a1.88,1.88,0,0,0-1.51-1.84l-2.88-.57a11.86,11.86,0,0,0-.51-1.21l1.54-2.3H45.21l-.92,1.33A1.84,1.84,0,0,0,44.16,35a8.09,8.09,0,0,1,.42,1,1.86,1.86,0,0,0,1.4,1.2l3.08.57v2.52L46,40.83A1.87,1.87,0,0,0,44.58,42c-.12.34-.26.67-.41,1a1.86,1.86,0,0,0,.12,1.84l1.76,2.56-1.79,1.78-2.57-1.75a1.83,1.83,0,0,0-1-.31,1.88,1.88,0,0,0-.81.18,9,9,0,0,1-1,.42,1.84,1.84,0,0,0-1.21,1.38l-.57,3.08H34.52L34,49.13a1.84,1.84,0,0,0-1.21-1.38,8.8,8.8,0,0,1-1-.42,2,2,0,0,0-.81-.18,1.84,1.84,0,0,0-1,.31L27.33,49.2l-1.79-1.78,1.75-2.55A1.84,1.84,0,0,0,27.42,43,9.63,9.63,0,0,1,27,42a1.88,1.88,0,0,0-1.39-1.21l-3.34-.57V37.74l3.34-.57A1.84,1.84,0,0,0,27,36a8.09,8.09,0,0,1,.42-1,1.84,1.84,0,0,0-.13-1.83l-.91-1.33H24.1l1.54,2.3A11.86,11.86,0,0,0,25.13,35.32Z" fill="gray"/>
    <path d="M44.3,28.75l-2.61,1.8a1.91,1.91,0,0,1-1,.31,1.83,1.83,0,0,1-.82-.19,10,10,0,0,0-1-.41,1.86,1.86,0,0,1-1.21-1.39l-.57-3.26H34.52L34,28.87a1.86,1.86,0,0,1-1.21,1.39,10,10,0,0,0-1,.41,1.83,1.83,0,0,1-.82.19,1.91,1.91,0,0,1-1-.31l-2.6-1.79L25.5,30.55l.88,1.26H45.21l.89-1.27Z" fill="gray"/>
  </g>
  <rect x="0.36" y="0.36" width="71.28" height="71.28" fill="none"/>
</svg>
