<svg xmlns="http://www.w3.org/2000/svg" viewBox="0 0 72 72">
  <path d="M63.24,36.52,48.5,21.78a3.06,3.06,0,0,0-4.32,0l-7.73,7.74c-.39-.17-.81-.34-1.25-.51a14.41,14.41,0,0,1-3.15-1.54,10,10,0,0,1-.69-2.84,11.55,11.55,0,0,1,1.73-3l.11-.17A7.12,7.12,0,0,0,34.28,18,3.16,3.16,0,0,0,34,16.59a1.09,1.09,0,0,1-.11-.37c0-.39-.11-.64-.16-.89a12.66,12.66,0,0,1-.24-2.92A5.14,5.14,0,0,0,31.2,8.68c-1.44-1.13-3.89-2.28-6-1.8a9.44,9.44,0,0,1-3.22.34,2.66,2.66,0,0,0-2,.47,6.65,6.65,0,0,0-2.6,3.66,16.9,16.9,0,0,0-.7,4.92v.21a2.89,2.89,0,0,1-.08.82,4.45,4.45,0,0,0-.13,1.16,5.57,5.57,0,0,0,1.08,3c.08.12.23.32.42.57a15.84,15.84,0,0,1,1.53,2.31,9.32,9.32,0,0,1-.72,3.16,17.9,17.9,0,0,1-3.26,1.24,34.21,34.21,0,0,0-6,2.41A3.45,3.45,0,0,0,7.58,34l0,.12c-.08.56-.22,5.18-.27,7.14a1.26,1.26,0,0,0,1.25,1.28h14.9l-1,1a3.06,3.06,0,0,0,0,4.32L37.14,62.63a3.05,3.05,0,0,0,4.31,0L63.24,40.84A3.06,3.06,0,0,0,63.24,36.52ZM25.42,40H9.83c.07-2.62.16-5.19.2-5.53l0-.17a1,1,0,0,1,.63-1,31.83,31.83,0,0,1,5.6-2.21,15.35,15.35,0,0,0,4.08-1.69c1.13-.86,1.69-4.38,1.62-5.3s-.74-1.87-2-3.59c-.15-.21-.28-.37-.34-.47A3.21,3.21,0,0,1,19,18.46a2.2,2.2,0,0,1,.06-.57,5.29,5.29,0,0,0,.15-1.41v-.22a14.56,14.56,0,0,1,.63-4.32,4,4,0,0,1,1.51-2.13l.19-.12.2,0a11.69,11.69,0,0,0,4-.39,5.49,5.49,0,0,1,3.95,1.33A3,3,0,0,1,31,12.45a14.75,14.75,0,0,0,.3,3.41c0,.2.08.4.13.71a3.51,3.51,0,0,0,.29,1,.73.73,0,0,1,.07.43,4.67,4.67,0,0,1-.66,2l-.1.16c-1.51,2.21-2.11,3.4-2.15,4.24,0,.46.36,4,1.6,4.94h0a15.67,15.67,0,0,0,3.81,1.92l.25.1-8.68,8.68A1.43,1.43,0,0,0,25.42,40ZM23.81,45,45.6,23.2a1.06,1.06,0,0,1,1.49,0l.82.82L45.76,45.25l-21,2.14-.91-.92A1.06,1.06,0,0,1,23.81,45Zm38-5.55L40,61.21a1.06,1.06,0,0,1-1.49,0l-12-12,20.23-2.05a1,1,0,0,0,.89-.89l2.07-20.42L61.83,37.94A1.06,1.06,0,0,1,61.83,39.43Z" fill="gray"/>
  <rect width="71.28" height="71.28" fill="none"/>
</svg>
