<svg xmlns="http://www.w3.org/2000/svg" viewBox="0 0 72 72">
  <g>
    <g>
      <path d="M18.57,31.67H15.45L17,29.12h4.36V47.21H18.57Z" fill="gray"/>
      <path d="M33.06,27.22l2.17,1-10.35,24-2.16-1Z" fill="gray"/>
      <path d="M36.34,38.05a10.94,10.94,0,0,1,2-6.91,5.26,5.26,0,0,1,8.74,0,11.08,11.08,0,0,1,2,7,11,11,0,0,1-2,7,5.33,5.33,0,0,1-4.36,2.33,5.41,5.41,0,0,1-4.38-2.33A11.31,11.31,0,0,1,36.34,38.05Zm2.68,0a10.77,10.77,0,0,0,1,5,2.78,2.78,0,0,0,5.32,0,10.14,10.14,0,0,0,1.06-4.91,10.18,10.18,0,0,0-1.06-4.92,2.78,2.78,0,0,0-5.31,0A10,10,0,0,0,39,38.06Z" fill="gray"/>
    </g>
    <path d="M62.06,12.43h-45a1.49,1.49,0,0,0-1,.42L9.26,19.38a1.5,1.5,0,0,0-.37.66,1.45,1.45,0,0,0-.55,1.14V57.57a1.5,1.5,0,0,0,1.5,1.5h45a1.5,1.5,0,0,0,1.34-.83l7-6.85a1.49,1.49,0,0,0,.45-1.07V13.93A1.5,1.5,0,0,0,62.06,12.43Zm-44.37,3H58.74l-4.32,4.25H13.27Zm-6.35,7.25h42V56.07h-42Zm45,31.19V22l4.25-4.18V49.69Z" fill="gray"/>
  </g>
  <rect x="0.36" y="0.36" width="71.28" height="71.28" fill="none"/>
</svg>
