<svg xmlns="http://www.w3.org/2000/svg" viewBox="0 0 72 72">
  <g>
    <path d="M15.53,23.5a8,8,0,1,1,8-8A8,8,0,0,1,15.53,23.5Zm0-13a5,5,0,1,0,5,5A5,5,0,0,0,15.53,10.47Z" fill="gray"/>
    <path d="M36,23.5a8,8,0,1,1,8-8A8,8,0,0,1,36,23.5Zm0-13a5,5,0,1,0,5,5A5,5,0,0,0,36,10.47Z" fill="gray"/>
    <path d="M56.5,23.5a8,8,0,1,1,8-8A8,8,0,0,1,56.5,23.5Zm0-13a5,5,0,1,0,5,5A5,5,0,0,0,56.5,10.47Z" fill="gray"/>
    <path d="M15.53,44a8,8,0,1,1,8-8A8,8,0,0,1,15.53,44Zm0-13a5,5,0,1,0,5,5A5,5,0,0,0,15.53,31Z" fill="gray"/>
    <path d="M36,44a8,8,0,1,1,8-8A8,8,0,0,1,36,44Zm0-13a5,5,0,1,0,5,5A5,5,0,0,0,36,31Z" fill="gray"/>
    <path d="M56.5,44a8,8,0,1,1,8-8A8,8,0,0,1,56.5,44Zm0-13a5,5,0,1,0,5,5A5,5,0,0,0,56.5,31Z" fill="gray"/>
    <path d="M15.53,64.5a8,8,0,1,1,8-8A8,8,0,0,1,15.53,64.5Zm0-13a5,5,0,1,0,5,5A5,5,0,0,0,15.53,51.47Z" fill="gray"/>
    <path d="M36,64.5a8,8,0,1,1,8-8A8,8,0,0,1,36,64.5Zm0-13a5,5,0,1,0,5,5A5,5,0,0,0,36,51.47Z" fill="gray"/>
    <path d="M56.5,64.5a8,8,0,1,1,8-8A8,8,0,0,1,56.5,64.5Zm0-13a5,5,0,1,0,5,5A5,5,0,0,0,56.5,51.47Z" fill="gray"/>
  </g>
  <rect x="0.36" y="0.36" width="71.28" height="71.28" fill="none"/>
</svg>
