<svg xmlns="http://www.w3.org/2000/svg" viewBox="0 0 72 72">
  <g>
    <path d="M52.24,38.41H19.47a1.5,1.5,0,0,1,0-3H52.24a1.5,1.5,0,1,1,0,3Z" fill="gray"/>
    <path d="M52.24,46.81H19.47a1.5,1.5,0,0,1,0-3H52.24a1.5,1.5,0,1,1,0,3Z" fill="gray"/>
    <path d="M52.24,55.21H19.47a1.5,1.5,0,0,1,0-3H52.24a1.5,1.5,0,0,1,0,3Z" fill="gray"/>
    <path d="M10.89,17.28v43a.67.67,0,0,0,.67.66h48.6a.66.66,0,0,0,.66-.66v-43h4v43a4.66,4.66,0,0,1-4.66,4.66H11.56a4.67,4.67,0,0,1-4.67-4.66v-43Z" fill="gray"/>
    <g>
      <path d="M21.49,11.59H18.36L19.86,9h4.36v18.1H21.49Z" fill="gray"/>
      <path d="M38,7.13l2.18,1-10.36,24-2.15-1Z" fill="gray"/>
      <path d="M41.25,18a10.87,10.87,0,0,1,2-6.9,5.26,5.26,0,0,1,8.74,0,11.14,11.14,0,0,1,2,7,11.13,11.13,0,0,1-2,7,5.37,5.37,0,0,1-4.36,2.33,5.44,5.44,0,0,1-4.38-2.33A11.28,11.28,0,0,1,41.25,18Zm2.69,0a10.69,10.69,0,0,0,1,5,2.78,2.78,0,0,0,5.32,0,10.29,10.29,0,0,0,1.05-4.91,10.3,10.3,0,0,0-1.05-4.92,2.78,2.78,0,0,0-5.31,0A10,10,0,0,0,43.94,18Z" fill="gray"/>
    </g>
  </g>
  <g>
    <rect x="0.72" y="0.72" width="71.28" height="71.28" fill="none"/>
    <path d="M37.61,17.35l.07,0,0,.12Z" fill="gray"/>
  </g>
</svg>
