<svg xmlns="http://www.w3.org/2000/svg" viewBox="0 0 72 72">
  <g>
    <polygon points="33.41 54.31 23.82 44.71 26.64 41.88 33.41 48.65 47.21 34.85 50.04 37.68 33.41 54.31" fill="gray"/>
    <g>
      <path d="M59.3,14.53,35.91,7.4a1.61,1.61,0,0,0-.87,0L11.65,14.53a1.5,1.5,0,0,0-1.05,1.58l2,21.52a73,73,0,0,0,1.72,9.95C15.54,52,22,57.26,34,63.8l.77.41a1.4,1.4,0,0,0,.74.2,1.42,1.42,0,0,0,.74-.2l.76-.42C49,57.26,55.41,52,56.59,47.58a73.94,73.94,0,0,0,1.73-10l2-21.48A1.5,1.5,0,0,0,59.3,14.53ZM35.48,10.41,57.25,17l-.35,3.75H14.06L13.7,17ZM54.62,22.2l-2.85,8.57H49.65L46.88,22.2h1.93l1.91,6h0l1.94-6ZM43.19,27.88a1.75,1.75,0,0,0-.58-.37,6.18,6.18,0,0,0-.82-.25L40.87,27c-.32-.08-.63-.18-.94-.29a3.52,3.52,0,0,1-.81-.45,2.3,2.3,0,0,1-.59-.69,2.2,2.2,0,0,1-.22-1,2.33,2.33,0,0,1,.28-1.15,2.73,2.73,0,0,1,.74-.81,3.35,3.35,0,0,1,1-.48A4.63,4.63,0,0,1,41.52,22a5.55,5.55,0,0,1,1.29.15,3.49,3.49,0,0,1,1.09.49,2.45,2.45,0,0,1,.77.86A2.72,2.72,0,0,1,45,24.75H43.12a1.46,1.46,0,0,0-.16-.63,1.07,1.07,0,0,0-.36-.4,1.77,1.77,0,0,0-.53-.2,3.16,3.16,0,0,0-.64-.06,1.73,1.73,0,0,0-.45.05,1.18,1.18,0,0,0-.42.16,1.07,1.07,0,0,0-.3.3,1,1,0,0,0,0,.87.94.94,0,0,0,.38.29,6.38,6.38,0,0,0,.78.26l1.3.34c.16,0,.38.09.67.17a3.21,3.21,0,0,1,.84.4,2.58,2.58,0,0,1,.73.74,2.13,2.13,0,0,1,.31,1.18A2.63,2.63,0,0,1,45,29.31a2.29,2.29,0,0,1-.68.87,3,3,0,0,1-1.12.57,5.08,5.08,0,0,1-1.54.21,5.2,5.2,0,0,1-1.37-.18,3.27,3.27,0,0,1-1.18-.54,2.76,2.76,0,0,1-.81-.95A2.92,2.92,0,0,1,38,27.92h1.83a1.58,1.58,0,0,0,.15.73,1.44,1.44,0,0,0,.42.49,1.85,1.85,0,0,0,.6.28,3,3,0,0,0,.72.09,3.5,3.5,0,0,0,.54-.05,1.55,1.55,0,0,0,.54-.16,1.14,1.14,0,0,0,.42-.33.79.79,0,0,0,.17-.53A.73.73,0,0,0,43.19,27.88Zm-6.81,2.89h-2l-.64-1.91H30.57l-.67,1.91H28l3.24-8.57h1.94ZM24,24.69l-2.1,6.08H20.47l-2.1-6h0v6H16.58V22.2h2.65l2,5.89h0l1.9-5.89h2.65v8.57H24V24.69ZM53.69,46.8c-.64,2.4-4.31,6.84-18.14,14.36l-.07,0-.08,0C21.58,53.65,17.9,49.21,17.26,46.8a69.15,69.15,0,0,1-1.64-9.49l-.52-5.5H55.85l-.52,5.46A68.25,68.25,0,0,1,53.69,46.8Z" fill="gray"/>
      <polygon points="33.28 27.45 32.2 24.31 32.18 24.31 31.06 27.45 33.28 27.45" fill="gray"/>
    </g>
  </g>
  <rect x="0.36" y="0.36" width="71.28" height="71.28" fill="none"/>
</svg>
