<svg xmlns="http://www.w3.org/2000/svg" viewBox="0 0 72 72">
  <defs>
    <style>
      .st0 {
        fill: none;
      }
    </style>
  </defs>
  <g>
    <path d="M49.4,64.5h-8.1v-3h8.1c.7,0,1.2-.5,1.2-1.2,0,0,0,0,0,0V11.5c0-.7-.5-1.2-1.2-1.2h-27.4c-.7,0-1.2.5-1.2,1.2h0v48.8c0,.7.5,1.2,1.2,1.2,0,0,0,0,0,0h7.7v3h-7.7c-2.3,0-4.2-1.9-4.2-4.2V11.5c0-2.3,1.9-4.2,4.2-4.2h27.4c2.3,0,4.2,1.9,4.2,4.2h0v48.8c0,2.3-1.9,4.2-4.2,4.2Z"/>
    <path d="M40.8,18.6h-10.2c-.6,0-1-.4-1-1s.4-1,1-1h10.2c.6,0,1,.4,1,1s-.4,1-1,1Z"/>
    <path d="M40.8,25.7h-10.2c-.6,0-1-.4-1-1s.4-1,1-1h10.2c.6,0,1,.4,1,1s-.4,1-1,1Z"/>
    <path d="M27.6,55.2v-19.3l13.2,13.8v-12.6h2.7v19.2l-13.2-13.8v12.7h-2.7Z"/>
  </g>
  <rect class="st0" x=".4" y=".4" width="71.3" height="71.3"/>
</svg>