<svg xmlns="http://www.w3.org/2000/svg" viewBox="0 0 72 72">
  <g>
    <g opacity="0.5">
      <path d="M24.65,54.21h-2.5V18.72a3.24,3.24,0,0,1,3.23-3.24H48.44V18H25.38a.74.74,0,0,0-.73.74Z" fill="gray"/>
    </g>
    <path d="M57.91,15.48H50V9.94a3.48,3.48,0,0,0-3.48-3.49H14.1a3.48,3.48,0,0,0-3.48,3.49V52.16a3.48,3.48,0,0,0,3.48,3.48h8v5.3a3.24,3.24,0,0,0,3.23,3.24H57.91a3.24,3.24,0,0,0,3.23-3.24V18.72A3.24,3.24,0,0,0,57.91,15.48ZM13.62,52.16V9.94a.49.49,0,0,1,.48-.49H46.56a.49.49,0,0,1,.48.49V38.78H35.88a3.48,3.48,0,0,0-3.48,3.49V52.64H14.1A.48.48,0,0,1,13.62,52.16ZM46.94,41.78l0,.07L35.4,52.43V42.27a.49.49,0,0,1,.48-.49Zm11.7,19.16a.74.74,0,0,1-.73.74H25.38a.74.74,0,0,1-.73-.74v-5.3H35a3.42,3.42,0,0,0,2.35-.92L48.92,44.06A3.53,3.53,0,0,0,50,41.49V18h7.87a.74.74,0,0,1,.73.74Z" fill="gray"/>
  </g>
  <g>
    <rect x="71.97" width="71.28" height="71.28" fill="none"/>
    <rect x="0.22" y="0.36" width="71.28" height="71.28" fill="none"/>
  </g>
</svg>
