<svg xmlns="http://www.w3.org/2000/svg" viewBox="0 0 72 72">
  <path d="M54.18,7.22H11a3.84,3.84,0,0,0-3.83,3.84V60.73A3.84,3.84,0,0,0,11,64.57H60.69a3.84,3.84,0,0,0,3.83-3.84v-43ZM18.09,61.07V39.94a1.09,1.09,0,0,1,1.08-1.09H52.61a1.09,1.09,0,0,1,1.09,1.09V61.07ZM52.61,36.85H19.17a3.09,3.09,0,0,0-3.08,3.09V61.07H11a.34.34,0,0,1-.33-.34V11.06a.34.34,0,0,1,.33-.34H22.68V25A3.09,3.09,0,0,0,25.77,28H49.93A3.08,3.08,0,0,0,53,25V11l8,8.1V60.73a.34.34,0,0,1-.33.34h-5V39.94A3.1,3.1,0,0,0,52.61,36.85ZM40.28,10.72h4.94V20.81H40.28Zm-2,0V21.81a1,1,0,0,0,1,1h6.94a1,1,0,0,0,1-1V10.72H51V25A1.08,1.08,0,0,1,49.93,26H25.77A1.09,1.09,0,0,1,24.68,25V10.72Z" fill="gray"/>
  <rect x="0.36" y="0.36" width="71.28" height="71.28" fill="none"/>
</svg>
