<svg xmlns="http://www.w3.org/2000/svg" viewBox="0 0 72 72">
  <g>
    <polygon points="26.67 27.95 26.67 25.37 44.58 25.37 44.58 27.95 26.67 27.95 26.67 27.95" fill="gray"/>
    <polygon points="26.67 20.29 26.67 17.7 44.58 17.7 44.58 20.29 26.67 20.29 26.67 20.29" fill="gray"/>
    <polygon points="26.67 35.29 26.67 32.7 44.58 32.7 44.58 35.29 26.67 35.29 26.67 35.29" fill="gray"/>
    <polygon points="26.67 43.01 26.67 40.42 44.58 40.42 44.58 43 26.67 43 26.67 43.01" fill="gray"/>
    <polygon points="26.67 50.34 26.67 47.75 44.58 47.75 44.58 50.34 26.67 50.34 26.67 50.34" fill="gray"/>
    <path d="M53.12,63.86H18.24a4.37,4.37,0,0,1-4.37-4.37V10.65a4.37,4.37,0,0,1,4.37-4.37H53.12a4.37,4.37,0,0,1,4.37,4.37V59.49A4.37,4.37,0,0,1,53.12,63.86ZM18.24,9.78a.87.87,0,0,0-.87.87V59.49a.87.87,0,0,0,.87.87H53.12a.87.87,0,0,0,.87-.87V10.65a.87.87,0,0,0-.87-.87Z" fill="gray"/>
  </g>
  <g>
    <rect x="71.87" y="0.72" width="71.28" height="71.28" fill="none"/>
    <rect x="-0.85" y="0.72" width="71.28" height="71.28" fill="none"/>
  </g>
</svg>
