<svg xmlns="http://www.w3.org/2000/svg" viewBox="0 0 72 72">
  <g>
    <polygon points="21.17 25.95 21.17 23.37 39.08 23.37 39.08 25.95 21.17 25.95 21.17 25.95" fill="gray"/>
    <polygon points="21.17 19.29 21.17 16.7 33.58 16.7 33.58 19.29 21.17 19.29 21.17 19.29" fill="gray"/>
    <polygon points="21.17 32.39 21.17 29.8 41.58 29.8 41.58 32.39 21.17 32.39 21.17 32.39" fill="gray"/>
    <path d="M64.61,19.82l-3-3.14a.63.63,0,0,0-.43-.19.51.51,0,0,0-.44.18L56,21.52V11.65a4.37,4.37,0,0,0-4.37-4.37H16.73a4.37,4.37,0,0,0-4.36,4.37V60.49a4.37,4.37,0,0,0,4.36,4.37H51.62A4.37,4.37,0,0,0,56,60.49V29.41l8.61-8.73A.61.61,0,0,0,64.61,19.82ZM52.49,60.49a.87.87,0,0,1-.87.87H16.73a.87.87,0,0,1-.86-.87V11.65a.87.87,0,0,1,.86-.87H51.62a.87.87,0,0,1,.87.87V25.08L39.07,38.69V36.35H21.17v2.59H38.83l-7.89,8a.59.59,0,0,0-.14.23l-2.6,5.53a.64.64,0,0,0,.13.62.61.61,0,0,0,.45.2.51.51,0,0,0,.17,0L34.55,51a.63.63,0,0,0,.27-.16L52.49,33Z" fill="gray"/>
  </g>
  <rect x="0.36" y="0.36" width="71.28" height="71.28" fill="none"/>
</svg>
