<svg xmlns="http://www.w3.org/2000/svg" viewBox="0 0 72 72">
  <path d="M56.29,16.33a1.5,1.5,0,1,0-2.11,2.13A21.89,21.89,0,0,1,58.6,43.37,22.17,22.17,0,0,1,38.61,56a21.9,21.9,0,0,1-5.17-.62l4.25-4.25a1.49,1.49,0,0,0,.43-1.1h5.22a1,1,0,0,0,.71-.3,1.05,1.05,0,0,0,.29-.73c0-1.24-.16-5.34-.25-5.88a3,3,0,0,0-1.61-2.43c-1-.55-2-1-2.85-1.41l1.34-.7a17.39,17.39,0,0,0,1.84-1c.86-.66,1.19-3.12,1.14-3.69a5.8,5.8,0,0,0-1.39-2.48l-.22-.3a2.14,2.14,0,0,1-.41-1,.94.94,0,0,1,0-.34,4,4,0,0,0,.1-1v-.15a9.71,9.71,0,0,1,.41-2.84,2.64,2.64,0,0,1,.94-1.32s.08-.05,0-.06h.11a7.6,7.6,0,0,0,2.72-.26,3.53,3.53,0,0,1,2.51.86c.6.47.82.9.82,1.08a10.88,10.88,0,0,0,.2,2.3c0,.13.06.26.09.47a2.35,2.35,0,0,0,.23.77,1.14,1.14,0,0,1,0,.19,2.84,2.84,0,0,1-.42,1.26l-.08.13c-1,1.52-1.41,2.3-1.44,2.89,0,.2.2,2.73,1.13,3.44h0a16.31,16.31,0,0,0,2.53,1.4c.75.35,1.59.76,2.51,1.26.27.15.29.26.34.62s.08,1.68.13,3.23H48.15a1,1,0,0,0,0,2h7.74a1,1,0,0,0,1-1c0-1.23-.12-4.13-.19-4.57a2.51,2.51,0,0,0-1.35-2c-1-.53-1.83-1-2.6-1.32A15.09,15.09,0,0,1,50.64,36a6.74,6.74,0,0,1-.43-1.75,7.43,7.43,0,0,1,1.11-1.92l.09-.14a4.91,4.91,0,0,0,.75-2.37,2.32,2.32,0,0,0-.2-1,.67.67,0,0,1-.06-.21c0-.26-.07-.43-.11-.6A8.59,8.59,0,0,1,51.63,26,3.6,3.6,0,0,0,50,23.4a5.47,5.47,0,0,0-4.17-1.23,5.85,5.85,0,0,1-2.1.22,1.93,1.93,0,0,0-1.42.35,4.61,4.61,0,0,0-1.81,2.54,11.5,11.5,0,0,0-.47,3.32v.14a1.59,1.59,0,0,1,0,.51,3.06,3.06,0,0,0-.09.81,3.87,3.87,0,0,0,.75,2.13c0,.08.15.22.28.39A12.32,12.32,0,0,1,42,34a6.32,6.32,0,0,1-.45,2c-.26.16-.92.5-1.46.78-.93.48-2,1-2.66,1.45a9.15,9.15,0,0,1-1.46-.82,8.57,8.57,0,0,1-.62-2.54,10.06,10.06,0,0,1,1.52-2.65l.1-.15a6.13,6.13,0,0,0,.92-2.92,2.52,2.52,0,0,0-.24-1.22,1.47,1.47,0,0,1-.1-.36,6.23,6.23,0,0,0-.14-.76,11.57,11.57,0,0,1-.2-2.56,3.83,3.83,0,0,0-1.23-2.51L42.72,15a1.49,1.49,0,0,0,0-2.12L36,6.11a1.5,1.5,0,0,0-2.12,2.12L38,12.4A25.12,25.12,0,0,0,10.11,26.19a24.94,24.94,0,0,0,5,28.33,1.52,1.52,0,0,0,1,.43,1.48,1.48,0,0,0,1.07-.45,1.5,1.5,0,0,0,0-2.12,21.94,21.94,0,0,1-4.42-24.91A22.1,22.1,0,0,1,38,15.47l-4.25,4.25a1.24,1.24,0,0,0-.22.34A5.6,5.6,0,0,0,30,19.53a8.32,8.32,0,0,1-2.83.3,2.22,2.22,0,0,0-1.66.4,5.67,5.67,0,0,0-2.23,3.12,14.8,14.8,0,0,0-.6,4.26v.19a2.53,2.53,0,0,1-.07.74,3.71,3.71,0,0,0-.11,1,4.77,4.77,0,0,0,.92,2.6c.07.11.2.28.36.5a11.9,11.9,0,0,1,1.36,2.05,8.08,8.08,0,0,1-.66,2.82A14.71,14.71,0,0,1,22,38.75c-1.13.5-2.53,1.11-4,1.93a3,3,0,0,0-1.6,2.37v.11c-.08.49-.2,4.59-.24,5.83a1.05,1.05,0,0,0,.29.73,1,1,0,0,0,.71.3H34.55L28.7,55.87a1.51,1.51,0,0,0,0,2.12l6.74,6.74a1.49,1.49,0,0,0,1.06.44,1.5,1.5,0,0,0,1.06-2.56L33.4,58.45a25.17,25.17,0,0,0,27.91-13.8,24.87,24.87,0,0,0-5-28.32ZM18.35,43.47l0-.15a1,1,0,0,1,.59-.89,39.12,39.12,0,0,1,3.81-1.84,15.3,15.3,0,0,0,3-1.55c1-.74,1.44-3.75,1.37-4.54s-.66-1.63-1.75-3.08c-.13-.18-.24-.32-.29-.41a2.8,2.8,0,0,1-.59-1.49,1.59,1.59,0,0,1,.06-.52,4.92,4.92,0,0,0,.12-1.2v-.2a12.7,12.7,0,0,1,.55-3.77,3.61,3.61,0,0,1,1.35-1.91l.2-.12.2,0a9.83,9.83,0,0,0,3.46-.34A4.78,4.78,0,0,1,34,22.66a2.75,2.75,0,0,1,1.2,1.63,12.41,12.41,0,0,0,.25,3,4.78,4.78,0,0,1,.11.62,2.73,2.73,0,0,0,.26.88.83.83,0,0,1,.06.41A4.34,4.34,0,0,1,35.26,31l-.09.13c-1.28,1.89-1.82,3-1.86,3.65,0,.38.33,3.44,1.36,4.22h0a17.84,17.84,0,0,0,3.25,1.71c1.08.49,2.31,1,3.6,1.74.49.27.53.57.6,1,0,.29.12,2.41.19,4.56H18.16C18.23,45.87,18.31,43.76,18.35,43.47Z" fill="gray"/>
  <rect x="0.36" y="0.36" width="71.28" height="71.28" fill="none"/>
</svg>
