<svg xmlns="http://www.w3.org/2000/svg" viewBox="0 0 72 72">
  <path d="M54.25,7.29H11.18a3.59,3.59,0,0,0-3.59,3.58V60.55a3.58,3.58,0,0,0,3.59,3.58H60.85a3.58,3.58,0,0,0,3.59-3.58V17.61Zm-29.4,3H38.44V21.63a1,1,0,0,0,1,1h7a1,1,0,0,0,1-1V10.29h3.79V24.77a1.09,1.09,0,0,1-1.08,1.09H25.93a1.09,1.09,0,0,1-1.08-1.09Zm15.59,0h5V20.63h-5ZM54.11,62.13H18V36.75a1.34,1.34,0,0,1,1.33-1.33H52.78a1.34,1.34,0,0,1,1.33,1.33Zm7.33-1.58a.59.59,0,0,1-.59.58H55.61V36.75a2.83,2.83,0,0,0-2.83-2.83H19.34a2.83,2.83,0,0,0-2.83,2.83V61.13H11.18a.59.59,0,0,1-.59-.58V10.87a.6.6,0,0,1,.59-.58H22.85V24.77a3.09,3.09,0,0,0,3.08,3.09H50.1a3.09,3.09,0,0,0,3.08-3.09V10.48l8.26,8.36Z" fill="gray"/>
  <rect x="0.36" y="0.36" width="71.28" height="71.28" fill="none"/>
</svg>
