<svg xmlns="http://www.w3.org/2000/svg" viewBox="0 0 72 72">
  <g>
    <path d="M39.84,65.06c-10.2,0-18.23-11.43-23.62-19.09L16,45.65C10.22,37.43,4.14,26,8,18.11c.1-.23,3.22-7.42,8.8-7.42a1.49,1.49,0,0,1,1.22.64l8.71,12.38a1.51,1.51,0,0,1-.31,2.05l-4.61,3.55c-.09.08,0,.06-.15.1h0a1.62,1.62,0,0,0-.23,1.2c.09.91,1.84,4.24,5.45,9.37,2.73,3.89,5.52,7.15,6.63,7.74h0c.86.47,1.31.24,1.36.22l0,0,.06,0,5.12-2.82a1.49,1.49,0,0,1,2,.45l8.68,12.35a1.47,1.47,0,0,1,.28.86c0,4.94-8.36,6.12-10,6.3A10.87,10.87,0,0,1,39.84,65.06ZM16.08,13.77c-3.16.67-5.32,5.54-5.34,5.59-2.55,5.19.2,13.88,7.71,24.56l.23.33c5.19,7.38,13,18.52,22,17.78,2.81-.32,6.68-1.49,7.25-3L40.38,48.32l-3.89,2.15a4.26,4.26,0,0,1-4.4-.11h0c-2.28-1.23-6.12-6.46-7.66-8.65-2.6-3.71-5.75-8.58-6-10.8a4.13,4.13,0,0,1,1.57-4l3.43-2.65Z" fill="gray"/>
    <path d="M36,18.13a4.88,4.88,0,1,1,4.88-4.88A4.88,4.88,0,0,1,36,18.13Zm0-7.25a2.38,2.38,0,1,0,2.38,2.37A2.37,2.37,0,0,0,36,10.88Z" fill="gray"/>
    <path d="M48,18.13a4.88,4.88,0,1,1,4.87-4.88A4.88,4.88,0,0,1,48,18.13Zm0-7.25a2.38,2.38,0,1,0,2.37,2.37A2.37,2.37,0,0,0,48,10.88Z" fill="gray"/>
    <path d="M59.92,18.13a4.88,4.88,0,1,1,4.87-4.88A4.89,4.89,0,0,1,59.92,18.13Zm0-7.25a2.38,2.38,0,1,0,2.37,2.37A2.38,2.38,0,0,0,59.92,10.88Z" fill="gray"/>
    <path d="M36,30.07a4.88,4.88,0,1,1,4.88-4.87A4.88,4.88,0,0,1,36,30.07Zm0-7.25a2.38,2.38,0,1,0,2.38,2.38A2.38,2.38,0,0,0,36,22.82Z" fill="gray"/>
    <path d="M48,30.07a4.88,4.88,0,1,1,4.87-4.87A4.88,4.88,0,0,1,48,30.07Zm0-7.25a2.38,2.38,0,1,0,2.37,2.38A2.38,2.38,0,0,0,48,22.82Z" fill="gray"/>
    <path d="M59.92,30.07a4.88,4.88,0,1,1,4.87-4.87A4.88,4.88,0,0,1,59.92,30.07Zm0-7.25a2.38,2.38,0,1,0,2.37,2.38A2.39,2.39,0,0,0,59.92,22.82Z" fill="gray"/>
    <path d="M36,42a4.88,4.88,0,1,1,4.88-4.88A4.88,4.88,0,0,1,36,42Zm0-7.25a2.38,2.38,0,1,0,2.38,2.37A2.37,2.37,0,0,0,36,34.77Z" fill="gray"/>
    <path d="M48,42a4.88,4.88,0,1,1,4.87-4.88A4.88,4.88,0,0,1,48,42Zm0-7.25a2.38,2.38,0,1,0,2.37,2.37A2.37,2.37,0,0,0,48,34.77Z" fill="gray"/>
    <path d="M59.92,42a4.88,4.88,0,1,1,4.87-4.88A4.89,4.89,0,0,1,59.92,42Zm0-7.25a2.38,2.38,0,1,0,2.37,2.37A2.38,2.38,0,0,0,59.92,34.77Z" fill="gray"/>
  </g>
  <rect x="0.36" y="0.36" width="71.28" height="71.28" fill="none"/>
</svg>
