<svg xmlns="http://www.w3.org/2000/svg" viewBox="0 0 72 72">
  <defs>
    <style>
      .st0 {
        fill: none;
      }
    </style>
  </defs>
  <g>
    <polygon points="26.7 28 26.7 25.4 44.6 25.4 44.6 28 26.7 28 26.7 28"/>
    <polygon points="26.7 20.3 26.7 17.7 44.6 17.7 44.6 20.3 26.7 20.3 26.7 20.3"/>
    <polygon points="26.7 35.3 26.7 32.7 44.6 32.7 44.6 35.3 26.7 35.3 26.7 35.3"/>
    <polygon points="26.7 43 26.7 40.4 44.6 40.4 44.6 43 26.7 43 26.7 43"/>
    <polygon points="26.7 50.3 26.7 47.8 44.6 47.8 44.6 50.3 26.7 50.3 26.7 50.3"/>
    <path d="M53.1,63.9H18.2c-2.4,0-4.4-2-4.4-4.4V10.6c0-2.4,2-4.4,4.4-4.4h34.9c2.4,0,4.4,2,4.4,4.4v48.8c0,2.4-2,4.4-4.4,4.4ZM18.2,9.8c-.5,0-.9.4-.9.9h0v48.8c0,.5.4.9.9.9h34.9c.5,0,.9-.4.9-.9V10.6c0-.5-.4-.9-.9-.9H18.2Z"/>
  </g>
  <rect class="st0" x="-.9" y=".7" width="71.3" height="71.3"/>
</svg>