<?xml version="1.0" encoding="utf-8"?>
<!-- Generator: Adobe Illustrator 27.9.0, SVG Export Plug-In . SVG Version: 6.00 Build 0)  -->
<svg version="1.1" id="Layer_1" xmlns="http://www.w3.org/2000/svg" xmlns:xlink="http://www.w3.org/1999/xlink" x="0px" y="0px"
	 viewBox="0 0 72 72" style="enable-background:new 0 0 72 72;" xml:space="preserve">
<style type="text/css">
	.st0{fill:none;}
</style>
<g>
	<polygon points="40.8,44.2 40.8,41.6 56.7,41.6 56.7,44.2 40.8,44.2 	"/>
	<polygon points="40.8,38 40.8,35.5 56.7,35.5 56.7,38 40.8,38 	"/>
	<polygon points="40.8,32 40.8,29.5 56.7,29.5 56.7,32 40.8,32 	"/>
	<polygon points="40.8,25.9 40.8,23.3 56.7,23.3 56.7,25.9 40.8,25.9 	"/>
	<polygon points="40.8,50 40.8,47.5 56.7,47.5 56.7,50 40.8,50 	"/>
	<path d="M60.2,12H11.6c-2.4,0-4.4,2-4.4,4.4c0,0,0,0,0,0v40.2c0,2.4,2,4.4,4.4,4.4h48.7c2.4,0,4.4-2,4.4-4.4V16.4
		C64.6,14,62.6,12,60.2,12C60.2,12,60.2,12,60.2,12z M10.7,16.4c0-0.5,0.4-0.9,0.8-0.9c0,0,0,0,0,0h48.7c0.5,0,0.9,0.4,0.9,0.9v40.2
		c0,0.5-0.4,0.9-0.9,0.9H11.6c-0.5,0-0.9-0.4-0.9-0.9c0,0,0,0,0,0V16.4z"/>
</g>
<rect x="0.4" y="0.4" class="st0" width="71.3" height="71.3"/>
<path d="M33.7,39.3v-3c0-0.4-0.4-0.8-0.8-0.8h-7.2v-2.4c2.5-0.4,4.4-2.5,4.4-5.1c0-2.8-2.3-5.2-5.2-5.2s-5.2,2.3-5.2,5.2
	c0,2.6,1.9,4.7,4.4,5.1v2.4H17c-0.4,0-0.8,0.4-0.8,0.8v3c-2.5,0.4-4.3,2.5-4.3,5.1c0,2.8,2.3,5.2,5.2,5.2s5.2-2.3,5.2-5.2
	c0-2.6-1.9-4.7-4.4-5.1v-2.2h14.3v2.2c-2.4,0.4-4.3,2.5-4.3,5.1c0,2.8,2.3,5.2,5.2,5.2c2.8,0,5.2-2.3,5.2-5.2
	C38.2,41.8,36.2,39.7,33.7,39.3z M21.4,28.1c0-2,1.6-3.6,3.6-3.6c2,0,3.6,1.6,3.6,3.6S27,31.7,25,31.7C23,31.7,21.4,30.1,21.4,28.1z
	 M20.7,44.4c0,2-1.6,3.6-3.6,3.6s-3.6-1.6-3.6-3.6s1.6-3.6,3.6-3.6S20.7,42.5,20.7,44.4z M33,48c-2,0-3.6-1.6-3.6-3.6
	s1.6-3.6,3.6-3.6s3.6,1.6,3.6,3.6S35,48,33,48z"/>
</svg>
