<svg xmlns="http://www.w3.org/2000/svg" viewBox="0 0 72 72">
  <g>
    <path d="M35.18,62.88H28.6v-3h6.58a1.18,1.18,0,0,0,1.18-1.18V13.38a1.19,1.19,0,0,0-1.18-1.19H13.28a1.19,1.19,0,0,0-1.18,1.19V58.7a1.18,1.18,0,0,0,1.18,1.18h7.18v3H13.28A4.18,4.18,0,0,1,9.1,58.7V13.38a4.19,4.19,0,0,1,4.18-4.19h21.9a4.19,4.19,0,0,1,4.18,4.19V58.7A4.18,4.18,0,0,1,35.18,62.88Z" fill="gray"/>
    <path d="M29.07,20.56H19.38a1,1,0,0,1,0-2h9.69a1,1,0,0,1,0,2Z" fill="gray"/>
    <path d="M29.07,27.63H19.38a1,1,0,0,1,0-2h9.69a1,1,0,0,1,0,2Z" fill="gray"/>
    <g opacity="0.8">
      <path d="M58.73,62.38H52.15v-2h6.58a1.68,1.68,0,0,0,1.68-1.68V13.38a1.69,1.69,0,0,0-1.68-1.69H42.3v-2H58.73a3.69,3.69,0,0,1,3.68,3.69V58.7A3.68,3.68,0,0,1,58.73,62.38Z" fill="gray"/>
    </g>
    <g opacity="0.8">
      <path d="M52.62,20.56H42.94a1,1,0,0,1,0-2h9.68a1,1,0,0,1,0,2Z" fill="gray"/>
    </g>
    <g opacity="0.8">
      <path d="M52.62,27.63H42.94a1,1,0,0,1,0-2h9.68a1,1,0,0,1,0,2Z" fill="gray"/>
    </g>
  </g>
  <rect x="0.36" y="0.36" width="71.28" height="71.28" fill="none"/>
</svg>
