<?xml version="1.0" encoding="UTF-8"?>
<svg id="Layer_1" xmlns="http://www.w3.org/2000/svg" version="1.1" viewBox="0 0 72 72">
  <!-- Generator: Adobe Illustrator 29.0.1, SVG Export Plug-In . SVG Version: 2.1.0 Build 192)  -->
  <defs>
    <style>
      .st0 {
        fill: none;
      }
    </style>
  </defs>
  <g>
    <path d="M40.5,18.7h-10.2c-.6,0-1-.4-1-1s.4-1,1-1h10.2c.6,0,1,.4,1,1s-.4,1-1,1Z"/>
    <path d="M40.5,25.8h-10.2c-.6,0-1-.4-1-1s.4-1,1-1h10.2c.6,0,1,.4,1,1s-.4,1-1,1Z"/>
    <path d="M52.3,64.6h-9.7v-3h9.7c.7,0,1.2-.5,1.2-1.2h0V11.6c0-.7-.5-1.2-1.2-1.2,0,0,0,0,0,0H18.9c-.7,0-1.2.5-1.2,1.2,0,0,0,0,0,0v48.8c0,.7.5,1.2,1.2,1.2h9.3v3h-9.3c-2.3,0-4.2-1.9-4.2-4.2h0V11.6c0-2.3,1.9-4.2,4.2-4.2h33.4c2.3,0,4.2,1.9,4.2,4.2v48.8c0,2.3-1.9,4.2-4.2,4.2Z"/>
    <path d="M45.8,38.9h-20.3c-1.3,0-2.4,1.1-2.4,2.3v13.8c0,1.3,1.1,2.3,2.4,2.3h20.3c1.3,0,2.4-1.1,2.4-2.3v-13.8c0-1.3-1.1-2.4-2.4-2.4ZM25.5,40.9h20.3c.2,0,.4.1.4.3,0,0,0,0,0,0v.6l-10.6,8.6-10.5-8.5v-.7c0-.2.2-.4.3-.4h0ZM45.8,55.3h-20.3c-.2,0-.4-.2-.4-.3v-10.5l9.8,8c.2.1.4.2.6.2.2,0,.5,0,.6-.2l9.9-8.1v10.6c0,.2-.2.3-.4.3Z"/>
  </g>
  <rect class="st0" x=".4" y=".4" width="71.3" height="71.3"/>
</svg>