<svg xmlns="http://www.w3.org/2000/svg" viewBox="0 0 72 72">
  <g>
    <polygon points="40.75 44.2 40.75 41.62 56.66 41.62 56.66 44.2 40.75 44.2 40.75 44.2" fill="gray"/>
    <polygon points="40.75 38.04 40.75 35.45 56.66 35.45 56.66 38.04 40.75 38.04 40.75 38.04" fill="gray"/>
    <polygon points="40.75 32.04 40.75 29.45 56.66 29.45 56.66 32.04 40.75 32.04 40.75 32.04" fill="gray"/>
    <polygon points="40.75 25.88 40.75 23.29 56.66 23.29 56.66 25.87 40.75 25.87 40.75 25.88" fill="gray"/>
    <polygon points="40.75 50.04 40.75 47.45 56.66 47.45 56.66 50.04 40.75 50.04 40.75 50.04" fill="gray"/>
    <path d="M60.21,12H11.55A4.37,4.37,0,0,0,7.19,16.4V56.57a4.37,4.37,0,0,0,4.36,4.37H60.21a4.37,4.37,0,0,0,4.36-4.37V16.4A4.37,4.37,0,0,0,60.21,12Zm.86,44.54a.87.87,0,0,1-.86.87H11.55a.86.86,0,0,1-.86-.87V28.3l4.79,4.8v6a1,1,0,0,0,1,1H26.65v2.09a1,1,0,0,0,1,1h9.26a1,1,0,0,0,1-1V35.83a1,1,0,0,0-1-1H27.65a1,1,0,0,0-1,1v2.23H17.48v-5l4.77-4.76h4.4v2.11a1,1,0,0,0,1,1h9.26a1,1,0,0,0,1-1V24.12a1,1,0,0,0-1-1H27.65a1,1,0,0,0-1,1v2.21h-4.4l-5.06-5.07a1,1,0,0,0-1.42,0l-5.08,5.09v-10a.86.86,0,0,1,.86-.87H60.21a.87.87,0,0,1,.86.87ZM12.54,27.33l3.94-3.95,3.94,3.95-3.94,3.94ZM28.65,41.15V36.83h7.26v4.32Zm0-11.71V25.12h7.26v4.32Z" fill="gray"/>
  </g>
  <rect x="0.36" y="0.36" width="71.28" height="71.28" fill="none"/>
</svg>
