<?xml version="1.0" encoding="UTF-8"?>
<svg id="Layer_1" data-name="Layer 1" xmlns="http://www.w3.org/2000/svg" viewBox="0 0 72 72">
  <path d="M67.7,62l-11.5-21.8v-15.8h6.6c.8,0,1.5-.7,1.5-1.5h0v-13.9c0-.8-.7-1.5-1.5-1.5s-1.5.7-1.5,1.5v12.4h-10.4l-14-14c-.6-.6-1.5-.6-2.1,0h0l-14.3,14.4c-.6.6-.6,1.5,0,2.1l14.3,14.3c.6.6,1.5.6,2.1,0l13.8-13.8h2.6v15.3l-6,11.4h-17v-8.6c0-.8-.7-1.5-1.5-1.5h-8.6v-9c0-.8-.7-1.5-1.5-1.5s-1.5.7-1.5,1.5v9h-8.8c-.8,0-1.5.7-1.5,1.5v20.2c0,.8.7,1.5,1.5,1.5h20.3c.8,0,1.5-.7,1.5-1.5h0v-8.6h15.3l-4.2,7.9c-.4.7-.1,1.7.6,2,.2.1.4.2.7.2h23.7c.5,0,1-.4,1.3-.8.3-.4.3-1,0-1.5l.1.1ZM35.8,35.1l-12.2-12.2,12.3-12.3,11.9,11.9v.6s-12,12-12,12ZM27.3,61.3H10v-17.2h17.3v17.2ZM45.3,61.3l9.4-17.7,9.3,17.6h-18.7v.1Z"/>
</svg>