<svg xmlns="http://www.w3.org/2000/svg" viewBox="0 0 72 72">
  <g>
    <path d="M49.13,64.47H41.05v-3h8.08a1.18,1.18,0,0,0,1.18-1.19V11.46a1.18,1.18,0,0,0-1.18-1.18H21.73a1.18,1.18,0,0,0-1.18,1.18V60.28a1.18,1.18,0,0,0,1.18,1.19h7.68v3H21.73a4.19,4.19,0,0,1-4.18-4.19V11.46a4.18,4.18,0,0,1,4.18-4.18h27.4a4.18,4.18,0,0,1,4.18,4.18V60.28A4.19,4.19,0,0,1,49.13,64.47Z" fill="gray"/>
    <path d="M40.52,18.64H30.33a1,1,0,0,1,0-2H40.52a1,1,0,0,1,0,2Z" fill="gray"/>
    <path d="M40.52,25.71H30.33a1,1,0,0,1,0-2H40.52a1,1,0,0,1,0,2Z" fill="gray"/>
    <g>
      <path d="M35.33,42.44c1.52,0,4.11-2.33,6.82.93-2.92,2.48-2.09,5.67.44,7.15-.55,3.25-1.87,4.73-3.47,4.73s-2-.71-3.4-.71c-1.76,0-2,.82-3.08.82-1.65,0-4.73-4-4.73-7.81s2.2-5.88,4.07-5.88C34.45,41.67,34.14,42.44,35.33,42.44Z" fill="gray"/>
      <path d="M38.9,37.33c.33,2.56-2.08,4.4-3.62,4.07a4.06,4.06,0,0,1,3.61-4.11" fill="gray"/>
    </g>
  </g>
  <rect x="0.36" y="0.36" width="71.28" height="71.28" fill="none"/>
</svg>
