<svg xmlns="http://www.w3.org/2000/svg" viewBox="0 0 72 72">
  <g>
    <path d="M40.49,18.72H30.3a1,1,0,1,1,0-2H40.49a1,1,0,0,1,0,2Z" fill="gray"/>
    <path d="M40.49,25.79H30.3a1,1,0,0,1,0-2H40.49a1,1,0,0,1,0,2Z" fill="gray"/>
    <path d="M52.28,64.55H45.55v-3h6.73a1.18,1.18,0,0,0,1.18-1.18V11.55a1.18,1.18,0,0,0-1.18-1.19H18.88a1.18,1.18,0,0,0-1.18,1.19V60.37a1.18,1.18,0,0,0,1.18,1.18h6.25v3H18.88a4.18,4.18,0,0,1-4.18-4.18V11.55a4.19,4.19,0,0,1,4.18-4.19h33.4a4.19,4.19,0,0,1,4.18,4.19V60.37A4.19,4.19,0,0,1,52.28,64.55Z" fill="gray"/>
    <g>
      <path d="M21.23,38.37h2v7a3.43,3.43,0,0,1,2.33-1,3,3,0,0,1,2.32.94A3.86,3.86,0,0,1,28.6,48v5.25h-2V48.15a2.43,2.43,0,0,0-.36-1.49,1.42,1.42,0,0,0-1.18-.46,1.59,1.59,0,0,0-1.45.64,4.33,4.33,0,0,0-.42,2.23v4.14h-2Z" fill="gray"/>
      <path d="M32.78,46.5v6.71h-2V46.5H30V44.65h.85V41.51h2v3.14h1.54V46.5Z" fill="gray"/>
      <path d="M38.43,46.5v6.71h-2V46.5H35.6V44.65h.85V41.51h2v3.14H40V46.5Z" fill="gray"/>
      <path d="M43.65,57.87h-2V44.65h2v.93a3.63,3.63,0,0,1,2.65-1.17,3.72,3.72,0,0,1,2.91,1.3A4.71,4.71,0,0,1,50.37,49a4.6,4.6,0,0,1-1.15,3.21,3.74,3.74,0,0,1-5.57.07ZM48.35,49a2.91,2.91,0,0,0-.67-2A2.16,2.16,0,0,0,46,46.2a2.26,2.26,0,0,0-1.76.75,3.24,3.24,0,0,0,0,4,2.22,2.22,0,0,0,1.76.77,2.15,2.15,0,0,0,1.69-.77A2.81,2.81,0,0,0,48.35,49Z" fill="gray"/>
    </g>
  </g>
  <rect x="0.36" y="0.36" width="71.28" height="71.28" fill="none"/>
</svg>
