<svg xmlns="http://www.w3.org/2000/svg" viewBox="0 0 72 72">
  <g>
    <polygon points="40.67 43.95 40.67 41.37 56.58 41.37 56.58 43.95 40.67 43.95 40.67 43.95" fill="gray"/>
    <polygon points="40.67 37.79 40.67 35.2 56.58 35.2 56.58 37.79 40.67 37.79 40.67 37.79" fill="gray"/>
    <polygon points="40.67 31.79 40.67 29.2 56.58 29.2 56.58 31.79 40.67 31.79 40.67 31.79" fill="gray"/>
    <polygon points="40.67 25.63 40.67 23.04 56.58 23.04 56.58 25.62 40.67 25.62 40.67 25.63" fill="gray"/>
    <polygon points="40.67 49.79 40.67 47.2 56.58 47.2 56.58 49.79 40.67 49.79 40.67 49.79" fill="gray"/>
    <path d="M60.12,11.78H11.47A4.37,4.37,0,0,0,7.1,16.15V56.32a4.37,4.37,0,0,0,4.37,4.37H60.12a4.37,4.37,0,0,0,4.37-4.37V16.15A4.37,4.37,0,0,0,60.12,11.78ZM17.25,32.91,17,32.53a2.69,2.69,0,0,1-.54-1.36,1.52,1.52,0,0,1,0-.46,4.56,4.56,0,0,0,.12-1.15v-.18a11.44,11.44,0,0,1,.51-3.5,3.26,3.26,0,0,1,1.23-1.75l.16-.1h.17a9.08,9.08,0,0,0,3.25-.31,4.48,4.48,0,0,1,3.23,1.08,2.47,2.47,0,0,1,1.09,1.48,12.32,12.32,0,0,0,.24,2.77c0,.16.07.33.11.58a2.59,2.59,0,0,0,.24.84c0,.08.05.11.05.36a3.82,3.82,0,0,1-.54,1.66l-.1.15c-1.21,1.79-1.69,2.74-1.73,3.41,0,.37.3,3.24,1.3,4a18.07,18.07,0,0,0,3.05,1.68c.9.44,1.93.93,3.06,1.55.43.24.46.46.53.91,0,.28.11,2.37.16,4.19h-22V44A.8.8,0,0,0,11,43.9c.71-.45,2.31-1.34,3.72-2.12,1.85-1,2.63-1.45,2.91-1.67.91-.7,1.37-3.54,1.31-4.29S18.3,34.3,17.25,32.91ZM61,56.32a.87.87,0,0,1-.87.87H11.47a.87.87,0,0,1-.87-.87V50.39h23a1,1,0,0,0,.72-.31,1,1,0,0,0,.28-.72c0-1.49-.15-5-.23-5.53a2.81,2.81,0,0,0-1.53-2.29c-1.18-.65-2.23-1.15-3.15-1.6a18.63,18.63,0,0,1-2.66-1.43,8.24,8.24,0,0,1-.56-2.32,8.85,8.85,0,0,1,1.39-2.42l.1-.16a5.77,5.77,0,0,0,.88-2.77,2.45,2.45,0,0,0-.23-1.18.85.85,0,0,1-.08-.31c0-.31-.09-.52-.14-.71a11.23,11.23,0,0,1-.19-2.39,4.17,4.17,0,0,0-1.86-3,6.42,6.42,0,0,0-4.89-1.47,7.2,7.2,0,0,1-2.63.28,2.17,2.17,0,0,0-1.58.39,5.37,5.37,0,0,0-2.12,3,13.51,13.51,0,0,0-.56,4v.17a2.08,2.08,0,0,1-.07.68,3.88,3.88,0,0,0-.1.93,4.55,4.55,0,0,0,.87,2.47l.34.46A12.47,12.47,0,0,1,16.9,36a7.46,7.46,0,0,1-.59,2.59c-.35.22-1.59.91-2.59,1.46s-2.27,1.26-3.12,1.75V16.15a.87.87,0,0,1,.87-.87H60.12a.87.87,0,0,1,.87.87Z" fill="gray"/>
  </g>
  <rect x="0.36" y="0.36" width="71.28" height="71.28" fill="none"/>
</svg>
