<svg xmlns="http://www.w3.org/2000/svg" viewBox="0 0 72 72">
  <g>
    <path d="M56.46,59.13H35.11a1,1,0,0,1-.72-.3,1,1,0,0,1-.28-.73c0-1.3.13-4.37.2-4.77a2.58,2.58,0,0,1,1.4-2.15A35.15,35.15,0,0,1,39,49.59a12.25,12.25,0,0,0,2-1,6.39,6.39,0,0,0,.49-2.16,12.06,12.06,0,0,0-1.06-1.57c-.14-.18-.25-.33-.3-.41a4.07,4.07,0,0,1-.78-2.23,3.32,3.32,0,0,1,.09-.84,2,2,0,0,0,.05-.56v-.15a12.06,12.06,0,0,1,.5-3.51,4.74,4.74,0,0,1,1.9-2.66,2,2,0,0,1,1.46-.36,6.41,6.41,0,0,0,2.25-.24A5.7,5.7,0,0,1,50,35.22,3.77,3.77,0,0,1,51.62,38,9.24,9.24,0,0,0,51.78,40c0,.17.08.35.12.63a.62.62,0,0,0,.07.24,2.44,2.44,0,0,1,.2,1.07,5.27,5.27,0,0,1-.78,2.49l-.09.13a8.37,8.37,0,0,0-1.2,2.07,7.06,7.06,0,0,0,.47,1.92,15.78,15.78,0,0,0,2.22,1.13c.92.41,2,.88,3.06,1.48a2.67,2.67,0,0,1,1.41,2.12c.07.44.16,3.51.2,4.81a1,1,0,0,1-.28.73A1,1,0,0,1,56.46,59.13Zm-20.32-2H55.43c0-1.68-.11-3.27-.14-3.51s-.08-.52-.4-.69c-1-.57-2-1-2.92-1.42a15,15,0,0,1-2.68-1.41h0c-1-.73-1.19-3.38-1.18-3.6,0-.61.46-1.47,1.53-3l.08-.12A3.16,3.16,0,0,0,50.17,42a1.31,1.31,0,0,0,0-.21,2.87,2.87,0,0,1-.24-.82c0-.21-.06-.36-.09-.49A11.17,11.17,0,0,1,49.62,38a2.15,2.15,0,0,0-.91-1.2,3.82,3.82,0,0,0-2.7-.92,8.21,8.21,0,0,1-2.88.28H43s0,0-.06.07a2.74,2.74,0,0,0-1,1.44,10.3,10.3,0,0,0-.44,3v.15a3.67,3.67,0,0,1-.11,1,1.68,1.68,0,0,0,0,.38,2.28,2.28,0,0,0,.44,1.12l.24.32a6,6,0,0,1,1.46,2.61c0,.69-.35,3.21-1.19,3.85a12.56,12.56,0,0,1-2.49,1.29,30.34,30.34,0,0,0-3.09,1.49.6.6,0,0,0-.39.59l0,.12C36.26,53.86,36.2,55.45,36.14,57.13Zm4.8-8.47Z" fill="gray"/>
    <path d="M61.82,29H46.88V26.1a1,1,0,0,0-1-1H31.77V20.31h6.32a1,1,0,0,0,1-1V7.83a1,1,0,0,0-1-1H23.54a1,1,0,0,0-1,1V19.31a1,1,0,0,0,1,1h6.23V25.1H16.89a1,1,0,0,0-1,1v7.3H10.1a1,1,0,0,0-1,1V45.88a1,1,0,0,0,1,1H23.69a1,1,0,0,0,1-1V34.4a1,1,0,0,0-1-1h-5.8V27.1h27V29H30a1.5,1.5,0,0,0-1.5,1.5V62.86a1.5,1.5,0,0,0,1.5,1.5H61.82a1.5,1.5,0,0,0,1.5-1.5V30.51A1.5,1.5,0,0,0,61.82,29ZM24.54,18.31V8.83H37.09v9.48H24.54ZM22.69,44.88H11.1V35.4H22.69ZM60.32,61.36H31.5V32H60.32Z" fill="gray"/>
  </g>
  <rect x="0.36" y="0.36" width="71.28" height="71.28" fill="none"/>
</svg>
