<svg xmlns="http://www.w3.org/2000/svg" viewBox="0 0 72 72">
  <g>
    <path d="M40.49,18.64H30.3a1,1,0,1,1,0-2H40.49a1,1,0,0,1,0,2Z" fill="gray"/>
    <path d="M40.49,25.71H30.3a1,1,0,0,1,0-2H40.49a1,1,0,0,1,0,2Z" fill="gray"/>
    <g>
      <path d="M46.64,42.77H29.77V37.9H40.91v3.35a1,1,0,0,0,2,0V36.9a1,1,0,0,0-1-1H28.77a1,1,0,0,0-1,1v5.87H24a3,3,0,0,0-3,3l.57,8.26a3,3,0,0,0,3,3h2a1,1,0,1,0,0-2h-2a1,1,0,0,1-1-1l-.57-8.27a1,1,0,0,1,1-1h22.6a1,1,0,0,1,1,.92l-.58,8.39a1,1,0,0,1-1,1H42.91V50.29h.9a1,1,0,0,0,0-2H26.91a1,1,0,0,0,0,2h.86V61.82a1,1,0,0,0,1,1H41.91a1,1,0,0,0,1-1V57.07h3.16a3,3,0,0,0,3-2.92l.58-8.4A3,3,0,0,0,46.64,42.77Zm-5.73,18H29.77V50.34H40.91Z" fill="gray"/>
      <path d="M24.16,46.59a.84.84,0,1,0,1.68,0,.84.84,0,1,0-1.68,0Z" fill="gray"/>
      <rect x="30.99" y="51.97" width="8.6" height="1.27" fill="gray"/>
      <rect x="30.99" y="54.87" width="8.6" height="1.27" fill="gray"/>
      <rect x="30.99" y="57.82" width="8.6" height="1.19" fill="gray"/>
    </g>
    <path d="M52.28,64.47H45.55v-3h6.73a1.18,1.18,0,0,0,1.18-1.19V11.46a1.18,1.18,0,0,0-1.18-1.18H18.88a1.18,1.18,0,0,0-1.18,1.18V60.28a1.18,1.18,0,0,0,1.18,1.19h6.25v3H18.88a4.19,4.19,0,0,1-4.18-4.19V11.46a4.18,4.18,0,0,1,4.18-4.18h33.4a4.18,4.18,0,0,1,4.18,4.18V60.28A4.19,4.19,0,0,1,52.28,64.47Z" fill="gray"/>
  </g>
  <rect x="0.36" y="0.36" width="71.28" height="71.28" fill="none"/>
</svg>
