<svg xmlns="http://www.w3.org/2000/svg" viewBox="0 0 72 72">
  <g>
    <path d="M52.53,64.22H42v-3H52.53A1.18,1.18,0,0,0,53.71,60V11.21A1.18,1.18,0,0,0,52.53,10H19.13A1.18,1.18,0,0,0,18,11.21V60a1.18,1.18,0,0,0,1.18,1.19H29.31v3H19.13A4.19,4.19,0,0,1,15,60V11.21A4.18,4.18,0,0,1,19.13,7h33.4a4.18,4.18,0,0,1,4.18,4.18V60A4.19,4.19,0,0,1,52.53,64.22Z" fill="gray"/>
    <path d="M41.42,18.39H30.23a1,1,0,0,1,0-2H41.42a1,1,0,0,1,0,2Z" fill="gray"/>
    <path d="M41.42,25.46H30.23a1,1,0,1,1,0-2H41.42a1,1,0,0,1,0,2Z" fill="gray"/>
    <path d="M38.45,44.52h9.26a1,1,0,0,0,1-1V37.2a1,1,0,0,0-1-1H38.45a1,1,0,0,0-1,1v2.21h-4.4L28,34.34a1,1,0,0,0-1.42,0L21.21,39.7a1,1,0,0,0,0,1.42l5.07,5.07v6a1,1,0,0,0,1,1H37.45v2.08a1,1,0,0,0,1,1h9.26a1,1,0,0,0,1-1V48.91a1,1,0,0,0-1-1H38.45a1,1,0,0,0-1,1v2.24H28.28v-5l4.77-4.77h4.4v2.11A1,1,0,0,0,38.45,44.52Zm1,5.39h7.26v4.32H39.45ZM27.28,44.35l-3.94-3.94,3.94-3.94,3.94,3.94ZM39.45,38.2h7.26v4.32H39.45Z" fill="gray"/>
  </g>
  <rect x="0.36" y="0.36" width="71.28" height="71.28" fill="none"/>
</svg>
