<svg xmlns="http://www.w3.org/2000/svg" viewBox="0 0 72 72">
  <path d="M67.72,62,56.23,40.25V24.47h6.6a1.5,1.5,0,0,0,1.5-1.5V9.11a1.5,1.5,0,0,0-3,0V21.47H50.89l-14-14a1.49,1.49,0,0,0-2.12,0L20.43,21.88a1.51,1.51,0,0,0,0,2.12L34.71,38.28a1.51,1.51,0,0,0,2.13,0L50.65,24.47h2.58V39.81l-6,11.4H30.28V42.65a1.5,1.5,0,0,0-1.5-1.5H20.23v-9a1.5,1.5,0,1,0-3,0v9H8.46A1.5,1.5,0,0,0,7,42.65v20.2a1.5,1.5,0,0,0,1.5,1.5H28.78a1.5,1.5,0,0,0,1.5-1.5V54.21H45.59l-4.17,7.86a1.51,1.51,0,0,0,1.32,2.21h0l23.65-.1a1.47,1.47,0,0,0,1.28-.72A1.5,1.5,0,0,0,67.72,62ZM35.77,35.1,23.61,22.94,35.87,10.69,47.78,22.61a1.36,1.36,0,0,0-.05.36,1,1,0,0,0,0,.16ZM27.28,61.35H10V44.15H27.28Zm18-.08,9.37-17.66,9.3,17.58Z" fill="gray"/>
  <rect x="0.36" y="0.36" width="71.28" height="71.28" fill="none"/>
</svg>
