<svg xmlns="http://www.w3.org/2000/svg" viewBox="0 0 72 72">
  <g>
    <polygon points="35.8 43.95 35.8 41.37 56.58 41.37 56.58 43.95 35.8 43.95 35.8 43.95" fill="gray"/>
    <polygon points="35.8 37.79 35.8 35.2 56.58 35.2 56.58 37.79 35.8 37.79 35.8 37.79" fill="gray"/>
    <polygon points="35.8 31.79 35.8 29.2 56.58 29.2 56.58 31.79 35.8 31.79 35.8 31.79" fill="gray"/>
    <polygon points="35.8 25.63 35.8 23.04 56.58 23.04 56.58 25.62 35.8 25.62 35.8 25.63" fill="gray"/>
    <polygon points="15.55 31.79 15.55 29.2 27.32 29.2 27.32 31.79 15.55 31.79 15.55 31.79" fill="gray"/>
    <polygon points="15.55 25.63 15.55 23.04 27.32 23.04 27.32 25.62 15.55 25.62 15.55 25.63" fill="gray"/>
    <polygon points="35.8 49.79 35.8 47.2 56.58 47.2 56.58 49.79 35.8 49.79 35.8 49.79" fill="gray"/>
    <path d="M60.12,60.69H11.47A4.37,4.37,0,0,1,7.1,56.32V16.15a4.37,4.37,0,0,1,4.37-4.37H60.12a4.37,4.37,0,0,1,4.37,4.37V56.32A4.37,4.37,0,0,1,60.12,60.69ZM11.47,15.28a.87.87,0,0,0-.87.87V56.32a.87.87,0,0,0,.87.87H60.12a.87.87,0,0,0,.87-.87V16.15a.87.87,0,0,0-.87-.87Z" fill="gray"/>
  </g>
  <rect x="0.36" y="0.36" width="71.28" height="71.28" fill="none"/>
</svg>
