<svg xmlns="http://www.w3.org/2000/svg" viewBox="0 0 72 72">
  <g>
    <path d="M50.55,38.71a4,4,0,1,1,4-4A4,4,0,0,1,50.55,38.71Zm0-6a2,2,0,1,0,2,2A2,2,0,0,0,50.55,32.71Z" fill="gray"/>
    <path d="M61.09,13.56H30.76a.31.31,0,0,1-.25-.14l-2.34-3.24a3.33,3.33,0,0,0-2.69-1.39H10.24A3.38,3.38,0,0,0,6.9,12.2V52a3.38,3.38,0,0,0,3.34,3.41h8.6V61a1,1,0,0,0,1,1h6.94a1,1,0,0,0,1-1V55.39H61.09A3.38,3.38,0,0,0,64.43,52V17A3.38,3.38,0,0,0,61.09,13.56ZM26.78,44.36a1,1,0,0,0-1,1V60H20.84V24.6H42.39v4.31H26.78a1,1,0,0,0-1,1v9.14a1,1,0,0,0,1,1H40.12v4.31ZM48.55,49a2,2,0,1,1,2,2A2,2,0,0,1,48.55,49Zm12.88,3a.39.39,0,0,1-.34.41H52.58a4,4,0,1,0-4.06,0H27.78v-6H41.12a1,1,0,0,0,1-1V39.05a1,1,0,0,0-1-1H27.78V30.91H43.39a1,1,0,0,0,1-1V23.6a1,1,0,0,0-1-1H19.84a1,1,0,0,0-1,1V52.39h-8.6A.39.39,0,0,1,9.9,52V12.2a.39.39,0,0,1,.34-.41H25.48a.33.33,0,0,1,.26.14l2.33,3.24a3.33,3.33,0,0,0,2.69,1.39H61.09a.39.39,0,0,1,.34.4Z" fill="gray"/>
  </g>
  <rect x="0.36" y="0.36" width="71.28" height="71.28" fill="none"/>
</svg>
