<svg xmlns="http://www.w3.org/2000/svg" viewBox="0 0 72 72">
  <g>
    <path d="M25.31,48.18a1.49,1.49,0,0,1-1.06-.44l-11-11.05a1.51,1.51,0,0,1,0-2.12L34.76,13a1.51,1.51,0,0,1,2.12,0L58.31,34.43a1.52,1.52,0,0,1,.44,1.06,1.5,1.5,0,0,1-.44,1.06L47.46,47.4a1.5,1.5,0,0,1-2.12-2.12l9.78-9.79-19.3-19.3L16.38,35.63l10,10a1.5,1.5,0,0,1-1.06,2.56Z" fill="gray"/>
    <path d="M45.21,50a12.14,12.14,0,0,0-2.63-1.08V46A6.78,6.78,0,1,0,29,46v2.85a11.5,11.5,0,0,0-2.59,1.06,1.48,1.48,0,0,0-.76,1.3v8.59a1.51,1.51,0,0,0,.76,1.31C28.62,62.37,31.6,63,35.81,63s7.21-.59,9.4-1.85A1.5,1.5,0,0,0,46,59.8V51.25A1.51,1.51,0,0,0,45.21,50ZM32,46a3.78,3.78,0,1,1,7.55,0V48.3a35.73,35.73,0,0,0-7.55,0ZM43,58.88A18.72,18.72,0,0,1,35.81,60a18.73,18.73,0,0,1-7.13-1.06V52.16a18.77,18.77,0,0,1,7.13-1.06A18.69,18.69,0,0,1,43,52.18Z" fill="gray"/>
  </g>
  <rect x="0.36" y="0.36" width="71.28" height="71.28" fill="none"/>
</svg>
