<svg xmlns="http://www.w3.org/2000/svg" viewBox="0 0 72 72">
  <g>
    <path d="M40.49,18.72H30.3a1,1,0,1,1,0-2H40.49a1,1,0,0,1,0,2Z" fill="gray"/>
    <path d="M40.49,25.79H30.3a1,1,0,0,1,0-2H40.49a1,1,0,0,1,0,2Z" fill="gray"/>
    <path d="M52.28,64.55H45.55v-3h6.73a1.18,1.18,0,0,0,1.18-1.18V11.55a1.18,1.18,0,0,0-1.18-1.19H18.88a1.18,1.18,0,0,0-1.18,1.19V60.37a1.18,1.18,0,0,0,1.18,1.18h6.25v3H18.88a4.18,4.18,0,0,1-4.18-4.18V11.55a4.19,4.19,0,0,1,4.18-4.19h33.4a4.19,4.19,0,0,1,4.18,4.19V60.37A4.19,4.19,0,0,1,52.28,64.55Z" fill="gray"/>
    <path d="M45.82,38.87H25.5a2.35,2.35,0,0,0-2.35,2.35V55a2.35,2.35,0,0,0,2.35,2.35H45.82A2.36,2.36,0,0,0,48.18,55V41.22A2.36,2.36,0,0,0,45.82,38.87Zm-20.32,2H45.82a.35.35,0,0,1,.36.35v.61L35.61,50.45,25.15,41.91v-.69A.35.35,0,0,1,25.5,40.87ZM45.82,55.32H25.5a.35.35,0,0,1-.35-.35V44.49l9.83,8a1,1,0,0,0,.63.22,1,1,0,0,0,.63-.22l9.94-8.11V55A.36.36,0,0,1,45.82,55.32Z" fill="gray"/>
  </g>
  <rect x="0.36" y="0.36" width="71.28" height="71.28" fill="none"/>
</svg>
