<svg xmlns="http://www.w3.org/2000/svg" viewBox="0 0 72 72">
  <g>
    <polygon points="38.47 47.48 38.47 44.88 56.38 44.88 56.38 47.47 38.47 47.47 38.47 47.48" fill="gray"/>
    <polygon points="38.47 52.89 38.47 50.3 56.38 50.3 56.38 52.89 38.47 52.89 38.47 52.89" fill="gray"/>
    <polygon points="38.47 58.31 38.47 55.72 56.38 55.72 56.38 58.3 38.47 58.3 38.47 58.31" fill="gray"/>
    <polygon points="15.63 47.48 15.63 44.88 33.54 44.88 33.54 47.47 15.63 47.47 15.63 47.48" fill="gray"/>
    <polygon points="38.47 42.02 38.47 39.44 56.38 39.44 56.38 42.02 38.47 42.02 38.47 42.02" fill="gray"/>
    <polygon points="15.63 42.02 15.63 39.44 33.54 39.44 33.54 42.02 15.63 42.02 15.63 42.02" fill="gray"/>
    <polygon points="15.63 52.89 15.63 50.3 33.54 50.3 33.54 52.89 15.63 52.89 15.63 52.89" fill="gray"/>
    <polygon points="15.63 58.31 15.63 55.72 33.54 55.72 33.54 58.3 15.63 58.3 15.63 58.31" fill="gray"/>
    <path d="M60.34,33.7H39.86a1.44,1.44,0,0,0,.08-.46v-3.8a10,10,0,0,0,10.35-7.06,9.45,9.45,0,0,0-5.18-11A9.79,9.79,0,0,0,38.4,5.66a10.05,10.05,0,0,0-12.2,6.76A7.72,7.72,0,0,0,26,13.56a9.53,9.53,0,0,0-3.48,5,9.16,9.16,0,0,0,.91,7.12,9.85,9.85,0,0,0,6.18,4.61,10.48,10.48,0,0,0,2.55.32h.11v2.6a1.77,1.77,0,0,0,.08.46H11.45a3.61,3.61,0,0,0-3.61,3.61v23a3.62,3.62,0,0,0,3.61,3.62H60.34A3.63,3.63,0,0,0,64,60.32v-23A3.62,3.62,0,0,0,60.34,33.7ZM34.41,24.14l-2.78-1.4a1.5,1.5,0,1,0-1.35,2.68l1.95,1v1.25a7.36,7.36,0,0,1-1.92-.23A6.85,6.85,0,0,1,26,24.22a6.16,6.16,0,0,1-.62-4.81,6.54,6.54,0,0,1,2.81-3.74l.64-.41.05-.76a6.14,6.14,0,0,1,.22-1.27,7,7,0,0,1,8.57-4.67A6.79,6.79,0,0,1,42.51,13l.22.66.65.26a6.49,6.49,0,0,1,4,7.71,7,7,0,0,1-7.46,4.85V25.14l1.28-1.37A1.5,1.5,0,0,0,39,21.72l-1.68,1.8a1.49,1.49,0,0,0-.4,1v8.7a1.44,1.44,0,0,0,.08.46H35.15a1.44,1.44,0,0,0,.08-.46V25.48A1.51,1.51,0,0,0,34.41,24.14ZM62,60.32a1.63,1.63,0,0,1-1.62,1.62H11.45a1.62,1.62,0,0,1-1.61-1.62v-23a1.61,1.61,0,0,1,1.61-1.61H60.34A1.62,1.62,0,0,1,62,37.31Z" fill="gray"/>
  </g>
  <rect x="0.36" y="0.36" width="71.28" height="71.28" fill="none"/>
</svg>
