<svg xmlns="http://www.w3.org/2000/svg" viewBox="0 0 72 72">
  <g>
    <polygon points="33.33 45.56 23.73 35.96 26.56 33.13 33.33 39.9 47.13 26.1 49.95 28.93 33.33 45.56" fill="gray"/>
    <path d="M35.39,64.66a1.4,1.4,0,0,1-.74-.2L33.88,64c-12-6.53-18.43-11.83-19.6-16.21a71.2,71.2,0,0,1-1.73-9.95l-2-21.52a1.51,1.51,0,0,1,1.06-1.58L35,7.65a1.64,1.64,0,0,1,.88,0l23.38,7.13a1.52,1.52,0,0,1,1.06,1.58l-2,21.48a70.88,70.88,0,0,1-1.73,10C55.33,52.21,48.91,57.51,36.9,64l-.77.42A1.4,1.4,0,0,1,35.39,64.66ZM13.61,17.29l1.92,20.27a70.14,70.14,0,0,0,1.64,9.49c.65,2.4,4.32,6.84,18.15,14.36l.07,0,.07,0c13.83-7.52,17.5-12,18.15-14.36a70.37,70.37,0,0,0,1.64-9.53l1.91-20.23Z" fill="gray"/>
  </g>
  <rect x="0.5" y="0.36" width="71.28" height="71.28" fill="none"/>
</svg>
