<svg xmlns="http://www.w3.org/2000/svg" viewBox="0 0 72 72">
  <path d="M62.85,29h-14v-7.5a1.5,1.5,0,0,0-1.5-1.5H33.85v-7.5a1.5,1.5,0,0,0-1.5-1.5H10.43V8.79a1.5,1.5,0,0,0-3,0V46.63a1.5,1.5,0,0,0,3,0V29.3h12V55.63a1.5,1.5,0,0,0,3,0V38.3h12.5V64.63a1.5,1.5,0,0,0,3,0V47.3H62.85a1.5,1.5,0,0,0,1.5-1.5V30.48A1.5,1.5,0,0,0,62.85,29ZM10.43,26.3V14H30.85v6H25.43V17.79a1.5,1.5,0,0,0-3,0V26.3Zm15,9V23H45.85v6H40.93V26.79a1.5,1.5,0,0,0-3,0V35.3Zm35.92,9H40.93V32H61.35Z" fill="gray"/>
  <rect x="0.36" y="0.36" width="71.28" height="71.28" fill="none"/>
</svg>
