<svg xmlns="http://www.w3.org/2000/svg"  viewBox="0 0 72 72">
  <path d="M48.83,45.63a23.71,23.71,0,1,0-38.78-26.7,1.24,1.24,0,0,0-.16.3A23.7,23.7,0,0,0,46,48.41L61.53,64.9l2.91-2.75ZM17.69,15.51l4.06,4.06-4.56,4.56-3.51-3.51A19.71,19.71,0,0,1,17.69,15.51ZM31,49.72A19.69,19.69,0,0,1,12.65,22.87L16,26.26v6.89a1.15,1.15,0,0,0,1.15,1.16H29v2.42a1.16,1.16,0,0,0,1.16,1.16H40.84A1.15,1.15,0,0,0,42,36.73V29.41a1.14,1.14,0,0,0-1.15-1.15H30.12A1.15,1.15,0,0,0,29,29.41V32H18.35V26.24l5.52-5.51H29v2.44a1.16,1.16,0,0,0,1.16,1.16H40.84A1.15,1.15,0,0,0,42,23.17V15.86a1.15,1.15,0,0,0-1.15-1.16H30.12A1.16,1.16,0,0,0,29,15.86v2.55H23.87L19.49,14A19.71,19.71,0,1,1,31,49.72Zm.26-14.15v-5h8.4v5Zm0-13.55V17h8.4v5Z" fill="gray"/>
  <rect x="0.36" y="0.03" width="71.28" height="71.28" fill="none"/>
</svg>
