<svg xmlns="http://www.w3.org/2000/svg" viewBox="0 0 72 72">
  <path d="M35.75,64.66a1.4,1.4,0,0,1-.74-.2L34.24,64c-12-6.53-18.43-11.83-19.61-16.21a73,73,0,0,1-1.72-9.95l-2-21.52a1.5,1.5,0,0,1,1.05-1.58L35.31,7.65a1.61,1.61,0,0,1,.87,0l23.39,7.13a1.5,1.5,0,0,1,1,1.58l-2,21.48a72.38,72.38,0,0,1-1.73,10C55.68,52.21,49.27,57.51,37.25,64l-.76.42A1.42,1.42,0,0,1,35.75,64.66ZM14,17.29l1.92,20.27a68.58,68.58,0,0,0,1.64,9.49c.65,2.4,4.32,6.84,18.14,14.36l.08,0,.07,0c13.83-7.52,17.5-12,18.14-14.36a70.07,70.07,0,0,0,1.65-9.53l1.91-20.23Z" fill="gray"/>
  <rect x="0.36" y="0.36" width="71.28" height="71.28" fill="none"/>
</svg>
