<svg xmlns="http://www.w3.org/2000/svg" viewBox="0 0 72 72">
  <g>
    <path d="M22.26,54.63a1,1,0,0,0-1,1v5.16a1,1,0,0,0,2,0V55.63A1,1,0,0,0,22.26,54.63Z" fill="gray"/>
    <path d="M18.93,54.63a1,1,0,0,0-1,1v5.16a1,1,0,0,0,2,0V55.63A1,1,0,0,0,18.93,54.63Z" fill="gray"/>
    <path d="M22.26,50.79a1,1,0,0,0-1,1v.34a1,1,0,0,0,2,0v-.34A1,1,0,0,0,22.26,50.79Z" fill="gray"/>
    <path d="M18.93,50.79a1,1,0,0,0-1,1v.34a1,1,0,0,0,2,0v-.34A1,1,0,0,0,18.93,50.79Z" fill="gray"/>
    <path d="M21.26,43.08v5.16a1,1,0,0,0,2,0V43.08a1,1,0,0,0-2,0Z" fill="gray"/>
    <path d="M18.93,42.08a1,1,0,0,0-1,1v5.16a1,1,0,0,0,2,0V43.08A1,1,0,0,0,18.93,42.08Z" fill="gray"/>
    <path d="M62.74,41.31,61,39.26V20.63a1,1,0,0,0-1-1H58.23V7a1,1,0,0,0-1-1h-4a1,1,0,0,0-1,1v12.7h-.89L45.87,12.9a1,1,0,0,0-.78-.37h0a1,1,0,0,0-.77.37l-4,5V9.29a1,1,0,0,0-1-1h-9a1,1,0,0,0-1,1v9.17H26.07v-3a1,1,0,0,0-1-1H12.57a1,1,0,0,0-1,1v3.17H8.9a1,1,0,0,0-1,1V64.08a1,1,0,0,0,1,1H62a1,1,0,0,0,1-1V42A1,1,0,0,0,62.74,41.31ZM25.2,63.08H16V42.13L22.1,35.9h3.1Zm7.23-35.85V40.51a1.26,1.26,0,0,0,.75,1.15l5.69,2.46v19H27.71V27.23ZM54,36.08h-3.5V32.63H54Zm-5.5,0H44.68V32.63h3.83ZM54,53h-3.5v-3.9H54Zm-5.5,0H44.68v-3.9h3.83ZM39,41.36V38.08h3.67v3.28Zm3.67,2v3.69H41.37V43.36Zm-1.31,5.69h1.31V53H41.37Zm3.31-2V43.36h3.83v3.69Zm0-5.69V38.08h3.83v3.28Zm-2-5.28H39V32.63h3.67ZM41.37,55h1.31v8.13H41.37Zm3.31,0h3.83v8.13H44.68Zm5.83,0H54v8.13h-3.5Zm3.5-7.9h-3.5V43.36H54Zm-3.5-5.69V38.08H54v3.28ZM56,39.78h3a1,1,0,0,0,.21.5l.93,1.08H56ZM38.28,10.29V20.71a1,1,0,0,0,1.77.63l5-6.22,5,6.17a1,1,0,0,0,.78.37h2.36a1,1,0,0,0,1-1V8h2V20.63a1,1,0,0,0,1,1H59V37.78H56V31.63a1,1,0,0,0-1-1H38a1,1,0,0,0-1,1v9l-2.08-.9V26a1.25,1.25,0,0,0-1.25-1.25H31.23V10.29ZM9.9,20.63h2.67a1,1,0,0,0,1-1V16.46h10.5v3a1,1,0,0,0,1,1h4.16v4.27H26.46A1.25,1.25,0,0,0,25.21,26V33.4H21.57a1.23,1.23,0,0,0-.9.38l-6.78,7a1.26,1.26,0,0,0-.35.87V63.08H9.9ZM56,63.08V43.36h5V63.08Z" fill="gray"/>
  </g>
  <rect x="0.36" y="0.36" width="71.28" height="71.28" fill="none"/>
</svg>
