<svg xmlns="http://www.w3.org/2000/svg" viewBox="0 0 72 72">
  <g>
    <path d="M52.66,63.93H18.48A11.51,11.51,0,0,1,7,52.43V18.25a11.51,11.51,0,0,1,11.5-11.5H52.66a11.51,11.51,0,0,1,11.5,11.5V52.43A11.51,11.51,0,0,1,52.66,63.93ZM18.48,9.75a8.51,8.51,0,0,0-8.5,8.5V52.43a8.51,8.51,0,0,0,8.5,8.5H52.66a8.52,8.52,0,0,0,8.5-8.5V18.25a8.51,8.51,0,0,0-8.5-8.5Z" fill="gray"/>
    <path d="M54.12,22.1a1,1,0,0,0-.3-.71L49,16.69a1,1,0,0,0-1.41,0l-3.43,3.46a1.22,1.22,0,0,0-.25-.2,14.63,14.63,0,0,0-8.26-2.13H35.5a1.5,1.5,0,0,0,0,3h0A11.89,11.89,0,0,1,42,22.33l-18.92,19a12.53,12.53,0,0,1-.83-1.83,14.11,14.11,0,0,1,5.18-16.3v5a1.5,1.5,0,0,0,3,0V19.84a1.5,1.5,0,0,0-1.5-1.5H20.6a1.5,1.5,0,0,0,0,3H25a17.12,17.12,0,0,0-5.53,19.22,16.43,16.43,0,0,0,1.45,3l-.86.87a1.06,1.06,0,0,0-.21.31l-3.39,8.09a1,1,0,0,0,.21,1.09,1,1,0,0,0,.71.3,1,1,0,0,0,.38-.08l8.22-3.39a1,1,0,0,0,.33-.22l.86-.87.2.14a15.39,15.39,0,0,0,8.08,2h.12a1.5,1.5,0,0,0,0-3h-.12a12.63,12.63,0,0,1-6.08-1.33l18.8-18.92a14,14,0,0,1-2.66,16.29A13,13,0,0,1,43.6,46.4v-5a1.5,1.5,0,0,0-3,0V49.8a1.5,1.5,0,0,0,1.5,1.5h8.32a1.5,1.5,0,0,0,0-3H46.07A15.68,15.68,0,0,0,47.57,47a17.2,17.2,0,0,0,4-17.88,17.65,17.65,0,0,0-1.29-2.75l3.51-3.53A1,1,0,0,0,54.12,22.1ZM25,49l-5.79,2.39,2.38-5.67,23.5-23.65,3.4,3.3ZM49.52,24.31,46.13,21l2.18-2.2,3.39,3.31Z" fill="gray"/>
  </g>
  <rect x="0.36" y="0.36" width="71.28" height="71.28" fill="none"/>
</svg>
