<svg xmlns="http://www.w3.org/2000/svg" viewBox="0 0 72 72">
  <g>
    <path d="M67.75,41.08l0-.1a3.42,3.42,0,0,0-1.85-2.77c-1.52-.83-2.89-1.5-4.1-2.08a22.83,22.83,0,0,1-3.57-1.94,10,10,0,0,1-.81-3.28c0-.19.25-.9,1.87-3.3l.14-.2A7.2,7.2,0,0,0,60.5,24a3,3,0,0,0-.27-1.41,1.63,1.63,0,0,1-.14-.49c-.06-.4-.11-.66-.17-.91A14.55,14.55,0,0,1,59.66,18a5.17,5.17,0,0,0-2.31-3.71c-1.47-1.15-4-2.33-6.14-1.85a10.48,10.48,0,0,1-3.53.37,2.46,2.46,0,0,0-1.88.46,6.67,6.67,0,0,0-2.63,3.68,17.59,17.59,0,0,0-.73,5.14v.23a3.4,3.4,0,0,1-.09,1,4.36,4.36,0,0,0-.13,1.15,5.75,5.75,0,0,0,1.09,3.05l.44.6a14.79,14.79,0,0,1,1.7,2.61,10.61,10.61,0,0,1-.81,3.59c-.24.18-1.52.84-2.54,1.37-1.52.79-3.23,1.68-4.28,2.34a17.43,17.43,0,0,1-3-1.62A13.05,13.05,0,0,1,33.79,32c0-.2.25-1.09,2.46-4.35l.16-.24A9.28,9.28,0,0,0,37.82,23a3.91,3.91,0,0,0-.34-1.81,2,2,0,0,1-.18-.65c-.08-.52-.15-.86-.22-1.19a17.58,17.58,0,0,1-.34-4.15c0-1.6-1.09-3.3-3-4.79s-5.14-3-8-2.4a13.41,13.41,0,0,1-4.61.48A3.18,3.18,0,0,0,18.75,9a8.69,8.69,0,0,0-3.4,4.77,22.91,22.91,0,0,0-.95,6.69v.3a4.25,4.25,0,0,1-.12,1.26,5.73,5.73,0,0,0-.16,1.48,7.35,7.35,0,0,0,1.41,4c.1.15.3.42.56.76a18.56,18.56,0,0,1,2.22,3.44,12.81,12.81,0,0,1-1.12,4.77A25,25,0,0,1,13,38.54a65.51,65.51,0,0,0-6.32,3.05,4.28,4.28,0,0,0-2.37,3.53l0,.17c-.12.76-.32,7.26-.38,9.24A1.25,1.25,0,0,0,5.2,55.81h6.45v-2.5H6.49c.11-3.58.24-7.19.31-7.64l0-.22A1.84,1.84,0,0,1,8,43.77a62.39,62.39,0,0,1,6.1-2.94,24,24,0,0,0,4.71-2.43c1.35-1,2.15-5.68,2-6.91-.08-1-1-2.48-2.71-4.74l-.48-.65a4.9,4.9,0,0,1-1-2.57,3.46,3.46,0,0,1,.09-.9,6.64,6.64,0,0,0,.19-1.84v-.3a20.64,20.64,0,0,1,.88-6.09,6.13,6.13,0,0,1,2.31-3.25.87.87,0,0,1,.84-.21,15.66,15.66,0,0,0,5.4-.53c1.57-.36,4,.44,5.88,1.93a4.66,4.66,0,0,1,2,2.87,20.54,20.54,0,0,0,.39,4.63c.06.28.13.57.19,1a4.15,4.15,0,0,0,.38,1.31,1.64,1.64,0,0,1,.12.8,7,7,0,0,1-1,3.08l-.15.23c-2,2.95-2.83,4.57-2.89,5.61,0,.76.61,5.38,2,6.45A28.63,28.63,0,0,0,38.42,41c1.73.78,3.69,1.67,5.76,2.79a2.13,2.13,0,0,1,1.13,1.89c.06.45.19,4.06.3,7.64H40.77v2.5H46.9a1.26,1.26,0,0,0,.9-.37,1.28,1.28,0,0,0,.35-.91c-.06-2-.25-8.48-.38-9.32a4.52,4.52,0,0,0-2.4-3.63c-1.91-1-3.71-1.86-5.33-2.6.9-.5,2-1.06,3-1.58a28.38,28.38,0,0,0,2.83-1.56c1-.8,1.68-4.28,1.59-5.35-.07-.81-.79-1.91-2.09-3.64L45,26.34a3.82,3.82,0,0,1-.76-1.94,2.17,2.17,0,0,1,.08-.69,5.38,5.38,0,0,0,.14-1.42v-.23a15.63,15.63,0,0,1,.68-4.66,4.71,4.71,0,0,1,1.75-2.48.68.68,0,0,1,.62-.15,11.66,11.66,0,0,0,4.15-.41,6.07,6.07,0,0,1,4.48,1.48A3.54,3.54,0,0,1,57.66,18,15.76,15.76,0,0,0,58,21.57c0,.21.09.44.14.78a3.45,3.45,0,0,0,.29,1,1.07,1.07,0,0,1,.1.6,5.38,5.38,0,0,1-.76,2.34l-.13.19c-1.52,2.26-2.16,3.51-2.2,4.31,0,.61.44,4.16,1.59,5a23.31,23.31,0,0,0,3.91,2.15c1.18.58,2.53,1.22,4,2a1.42,1.42,0,0,1,.83,1.3l0,.12c0,.34.15,3.09.23,5.81H54.71a1,1,0,1,0,0,2H67a1,1,0,0,0,.72-.3,1,1,0,0,0,.28-.73C68,46.66,67.84,41.67,67.75,41.08Z" fill="gray"/>
    <path d="M28.4,52.34h9.26a1,1,0,0,0,1-1V45a1,1,0,0,0-1-1H28.4a1,1,0,0,0-1,1v2.21H23l-5.06-5.07a1,1,0,0,0-1.42,0l-5.36,5.36a1,1,0,0,0,0,1.41L16.23,54v6a1,1,0,0,0,1,1H27.4v2.09a1,1,0,0,0,1,1h9.26a1,1,0,0,0,1-1V56.73a1,1,0,0,0-1-1H28.4a1,1,0,0,0-1,1V59H18.23V54L23,49.23h4.4v2.11A1,1,0,0,0,28.4,52.34Zm1,5.39h7.26v4.32H29.4ZM17.23,52.17l-3.94-3.94,3.94-3.95,3.94,3.95ZM29.4,46h7.26v4.32H29.4Z" fill="gray"/>
  </g>
  <rect x="0.36" y="0.36" width="71.28" height="71.28" fill="none"/>
</svg>
