<svg xmlns="http://www.w3.org/2000/svg" viewBox="0 0 72 72">
  <path d="M41.36,36.1H61.68a1.5,1.5,0,0,0,1.5-1.5V23.15a1.5,1.5,0,0,0-1.5-1.5H41.36a1.5,1.5,0,0,0-1.5,1.5v4.3H31.67L20.59,16.37a1.51,1.51,0,0,0-2.12,0L7,27.87A1.49,1.49,0,0,0,7,30L17.83,40.86v9.6a1.5,1.5,0,0,0,1.5,1.5H39.86v4.19a1.5,1.5,0,0,0,1.5,1.5H61.68a1.5,1.5,0,0,0,1.5-1.5V44.7a1.5,1.5,0,0,0-1.5-1.5H41.36a1.5,1.5,0,0,0-1.5,1.5V49h-19V41.1L31.48,30.45h8.38V34.6A1.5,1.5,0,0,0,41.36,36.1Zm1.5,10.1H60.18v8.45H42.86ZM19.53,19.56l9.21,9.21a1.1,1.1,0,0,0,0,.18v0l-9.27,9.27-9.3-9.31Zm23.33,5.09H60.18V33.1H42.86Z" fill="gray"/>
  <rect x="0.36" y="0.36" width="71.28" height="71.28" fill="none"/>
</svg>
