<svg xmlns="http://www.w3.org/2000/svg" viewBox="0 0 72 72">
  <path d="M61,16.6l-6.28-6.11a1.51,1.51,0,0,0-2.11,0L16.8,46.58a1.56,1.56,0,0,0-.32.47l-4.4,10.51a1.49,1.49,0,0,0,.32,1.64,1.47,1.47,0,0,0,1.06.44,1.41,1.41,0,0,0,.57-.11l10.69-4.4a1.63,1.63,0,0,0,.49-.33L61.05,18.73a1.48,1.48,0,0,0,.44-1.07A1.51,1.51,0,0,0,61,16.6ZM23.29,52.47l-7,2.9,2.89-6.89L46.51,20.93l4.13,4ZM52.75,22.82l-4.13-4,5.11-5.13,4.13,4Z" fill="gray"/>
  <rect x="0.36" y="0.36" width="71.28" height="71.28" fill="none"/>
</svg>
