<svg xmlns="http://www.w3.org/2000/svg" viewBox="0 0 72 72">
  <g>
    <polygon points="33.4 54.31 23.8 44.71 26.63 41.88 33.4 48.65 47.2 34.85 50.03 37.68 33.4 54.31" fill="gray"/>
    <path d="M59.28,14.53,35.9,7.4a1.64,1.64,0,0,0-.88,0L11.64,14.53a1.52,1.52,0,0,0-1.06,1.58l2,21.52a71.2,71.2,0,0,0,1.73,9.95C15.53,52,21.94,57.26,34,63.79l.76.42a1.42,1.42,0,0,0,.74.2,1.4,1.4,0,0,0,.74-.2L37,63.8C49,57.26,55.4,52,56.58,47.58a72.66,72.66,0,0,0,1.72-10l2-21.48A1.5,1.5,0,0,0,59.28,14.53ZM35.46,10.41,57.24,17l-.36,3.75H14L13.69,17ZM53.68,46.8c-.65,2.41-4.32,6.85-18.15,14.36l-.07,0-.07,0c-13.83-7.52-17.5-12-18.15-14.36a68.87,68.87,0,0,1-1.63-9.49l-.52-5.5H55.84l-.52,5.46A69.79,69.79,0,0,1,53.68,46.8Z" fill="gray"/>
  </g>
  <rect x="0.36" y="0.36" width="71.28" height="71.28" fill="none"/>
</svg>
