<?xml version="1.0" encoding="utf-8"?>
<!-- Generator: Adobe Illustrator 24.0.1, SVG Export Plug-In . SVG Version: 6.00 Build 0)  -->
<svg version="1.1" id="Layer_1" xmlns="http://www.w3.org/2000/svg" xmlns:xlink="http://www.w3.org/1999/xlink" x="0px" y="0px"
	 viewBox="0 0 72 72" style="enable-background:new 0 0 72 72;" xml:space="preserve">
<style type="text/css">
	.st0{fill:#808080;}
</style>
<g>
	<rect x="28.6" y="11.1" class="st0" width="6.2" height="1.5"/>
	<path class="st0" d="M58.1,28.9h-8.6V14c0-4.8-3.9-8.6-8.6-8.6H22.6C17.9,5.4,14,9.2,14,14c0,0,0,0,0,0v42.3c0,4.8,3.8,8.7,8.6,8.7
		c0,0,0,0,0.1,0h18.2c4.8,0,8.6-3.9,8.6-8.6v-3.5h8.6c1.6,0,2.9-1.2,2.9-2.8c0,0,0,0,0-0.1V31.8C61.1,30.2,59.7,28.9,58.1,28.9
		C58.1,28.9,58.1,28.9,58.1,28.9z M45.5,52.8L45.5,52.8c0.6,0,1,0.5,1,1l0,2.4c0,3.1-2.5,5.7-5.6,5.7c0,0,0,0,0,0H22.6
		c-3.1,0-5.6-2.5-5.7-5.6c0,0,0,0,0-0.1V14c0-3.1,2.5-5.6,5.6-5.6h18.2c3.1,0,5.6,2.5,5.6,5.6v13.8c0,0.6-0.5,1-1,1h-15
		c-1.6,0-2.9,1.3-3,2.9v5.3c0,0.2-0.1,0.4-0.2,0.6l-5.3,7c-0.2,0.3-0.3,0.7-0.1,1.1c0.2,0.3,0.5,0.6,0.9,0.6h3.6c0.6,0,1,0.5,1,1
		v2.5c0,1.6,1.3,2.9,2.9,2.9c0,0,0,0,0.1,0L45.5,52.8z M59,49.9c0,0.5-0.4,0.9-0.9,0.9c0,0,0,0,0,0H30.5c-0.5,0-0.9-0.3-0.9-0.8
		c0,0,0,0,0,0v-4.6c0-1-0.8-1-1.9-1H25l4.5-5.9c0.1-0.2,0.2-0.4,0.2-0.6v-6c0-0.5,0.4-0.9,0.9-0.9c0,0,0,0,0,0h27.6
		c0.5,0,0.9,0.4,0.9,0.9c0,0,0,0,0,0L59,49.9z"/>
</g>
</svg>
