<?xml version="1.0" encoding="utf-8"?>
<!-- Generator: Adobe Illustrator 22.1.0, SVG Export Plug-In . SVG Version: 6.00 Build 0)  -->
<svg version="1.1" id="Layer_1" xmlns="http://www.w3.org/2000/svg" xmlns:xlink="http://www.w3.org/1999/xlink" x="0px" y="0px"
	 viewBox="0 0 72 72" style="enable-background:new 0 0 72 72;" xml:space="preserve">
<style type="text/css">
	.st0{fill:#808080;}
	.st1{fill:none;}
</style>
<g>
	<path class="st0" d="M35.5,64.7c-0.3,0-0.5-0.1-0.7-0.2L34,64c-12-6.5-18.4-11.8-19.6-16.2c-0.8-3.3-1.4-6.6-1.7-10l-2-21.5
		c-0.1-0.7,0.4-1.4,1.1-1.6l23.4-7.1c0.3-0.1,0.6-0.1,0.9,0l23.4,7.1c0.7,0.2,1.1,0.9,1,1.6l-2,21.5c-0.3,3.4-0.9,6.7-1.7,10
		C55.5,52.2,49,57.5,37,64l-0.8,0.4C36,64.6,35.8,64.6,35.5,64.7z M13.7,17.3l1.9,20.3c0.3,3.2,0.9,6.4,1.6,9.5
		c0.7,2.4,4.3,6.8,18.1,14.4h0.1h0.1c13.8-7.5,17.5-12,18.1-14.4c0.8-3.1,1.3-6.3,1.6-9.5l1.9-20.2L13.7,17.3z"/>
	<path class="st0" d="M44.7,35.2c-0.9-0.5-1.8-0.9-2.7-1.1v-3c0-3.6-2.9-6.5-6.5-6.5c-3.6,0-6.5,2.9-6.5,6.5l0,0v3
		c-0.9,0.2-1.9,0.6-2.7,1.1c-0.4,0.2-0.6,0.6-0.6,1.1v8.6c0,0.5,0.2,0.9,0.6,1.1c2.1,1.2,5.1,1.8,9.2,1.8c4.2,0,7.1-0.6,9.3-1.8
		c0.4-0.2,0.6-0.6,0.6-1.1v-8.6C45.4,35.8,45.1,35.4,44.7,35.2z M31.4,31c0-2.2,1.8-4,4-4c2.2,0,4,1.8,4,4v2.6
		c-1.3-0.2-2.7-0.2-4-0.2c-1.3,0-2.7,0.1-4,0.2L31.4,31z M42.8,44c-2.4,0.9-4.9,1.3-7.4,1.2c-2.5,0.1-5-0.3-7.4-1.2V37
		c2.4-0.9,4.9-1.3,7.4-1.1c2.5-0.1,5,0.3,7.4,1.1V44z"/>
</g>
<rect x="0.5" y="0.4" class="st1" width="71.3" height="71.3"/>
</svg>
