<svg xmlns="http://www.w3.org/2000/svg" viewBox="0 0 72 72">
  <g>
    <path d="M10.26,34.54c3.27,0,3.73-1.79,3.73-3.45a26.67,26.67,0,0,0-.37-3.82,27.86,27.86,0,0,1-.37-3.86c0-4.23,2.76-6,6.67-6h1v2.53h-.83c-2.71.05-3.63,1.47-3.63,4a20.61,20.61,0,0,0,.32,3.31,21.57,21.57,0,0,1,.32,3.5c.05,2.94-1.24,4.41-3.31,5v.09c2.07.51,3.36,2.07,3.31,5a21.36,21.36,0,0,1-.32,3.5,21.17,21.17,0,0,0-.32,3.31c0,2.58,1.06,4,3.63,4h.83v2.53h-1c-3.81,0-6.67-1.65-6.67-6.3A26.73,26.73,0,0,1,13.62,44,24.68,24.68,0,0,0,14,40.29c0-1.42-.46-3.4-3.73-3.4Z" fill="gray"/>
    <path d="M27.1,38.78a2.7,2.7,0,0,1-2.67-2.9A2.72,2.72,0,0,1,27.19,33a2.69,2.69,0,0,1,2.72,2.9,2.69,2.69,0,0,1-2.76,2.9Z" fill="gray"/>
    <path d="M36.62,38.78A2.7,2.7,0,0,1,34,35.88,2.72,2.72,0,0,1,36.71,33a2.69,2.69,0,0,1,2.72,2.9,2.69,2.69,0,0,1-2.76,2.9Z" fill="gray"/>
    <path d="M46.14,38.78a2.7,2.7,0,0,1-2.67-2.9A2.72,2.72,0,0,1,46.23,33,2.69,2.69,0,0,1,49,35.88a2.69,2.69,0,0,1-2.76,2.9Z" fill="gray"/>
    <path d="M62.38,36.89c-3.27,0-3.73,2-3.73,3.4A26,26,0,0,0,59,44a25.33,25.33,0,0,1,.37,3.77c0,4.65-2.9,6.3-6.67,6.3h-1V51.56h.79c2.57,0,3.68-1.42,3.68-4a27.47,27.47,0,0,0-.33-3.31,21.25,21.25,0,0,1-.36-3.5c0-2.94,1.28-4.5,3.31-5v-.09c-2-.56-3.31-2-3.31-5a21.48,21.48,0,0,1,.36-3.5,26.5,26.5,0,0,0,.33-3.31c0-2.49-1-3.91-3.64-4h-.83V17.38h.92c3.91,0,6.72,1.8,6.72,6A26.4,26.4,0,0,1,59,27.27a28.19,28.19,0,0,0-.37,3.82c0,1.66.46,3.45,3.73,3.45Z" fill="gray"/>
  </g>
  <rect x="0.36" y="0.36" width="71.28" height="71.28" fill="none"/>
</svg>
