<svg xmlns="http://www.w3.org/2000/svg" viewBox="0 0 72 72">
  <path d="M59.05,36.83a37.22,37.22,0,0,0-6.87-3,52.81,52.81,0,0,0-16.43-2.52,54.71,54.71,0,0,0-11.92,1.29V21.31a11.92,11.92,0,0,1,23.84,0h3.5a15.42,15.42,0,0,0-30.84,0V33.47a38.55,38.55,0,0,0-7.78,3.29,1.77,1.77,0,0,0-.88,1.52V57.63a1.76,1.76,0,0,0,.88,1.52c6.2,3.54,14.44,5.48,23.2,5.48s17.08-2,23.3-5.54a1.75,1.75,0,0,0,.87-1.52V38.34A1.74,1.74,0,0,0,59.05,36.83ZM56.42,56.54c-5.58,3-12.88,4.59-20.67,4.59s-15-1.6-20.58-4.54V39.32c5.58-2.93,12.83-4.54,20.58-4.54a49.4,49.4,0,0,1,15.33,2.34,34.69,34.69,0,0,1,5.34,2.26Z" fill="gray"/>
  <rect x="0.36" y="0.36" width="71.28" height="71.28" fill="none"/>
</svg>
