<?xml version="1.0" encoding="utf-8"?>
<!-- Generator: Adobe Illustrator 27.9.0, SVG Export Plug-In . SVG Version: 6.00 Build 0)  -->
<svg version="1.1" id="Layer_1" xmlns="http://www.w3.org/2000/svg" xmlns:xlink="http://www.w3.org/1999/xlink" x="0px" y="0px"
	 viewBox="0 0 72 72" style="enable-background:new 0 0 72 72;" xml:space="preserve">
<g>
	<path d="M67.8,41.1L67.8,41.1c-0.1-1.3-0.8-2.3-1.8-2.9c-1.5-0.8-2.9-1.5-4.1-2.1c-1.2-0.5-2.4-1.2-3.6-1.9c-0.5-1-0.7-2.1-0.8-3.3
		c0-0.2,0.2-0.9,1.9-3.3l0.1-0.2c0.6-1,1-2.2,1.1-3.4c0-0.5-0.1-1-0.3-1.4c-0.1-0.2-0.1-0.3-0.1-0.5c-0.1-0.4-0.1-0.7-0.2-0.9
		c-0.2-1.1-0.3-2.1-0.3-3.2c-0.2-1.5-1-2.9-2.3-3.7c-1.5-1.1-4-2.3-6.1-1.9c-1.1,0.3-2.3,0.4-3.5,0.4c-0.7-0.1-1.3,0.1-1.9,0.5
		c-1.3,0.9-2.2,2.2-2.6,3.7c-0.5,1.7-0.7,3.4-0.7,5.1v0.2c0,0.3,0,0.7-0.1,1c-0.1,0.4-0.1,0.8-0.1,1.1c0.1,1.1,0.4,2.2,1.1,3
		l0.4,0.6c0.7,0.8,1.2,1.7,1.7,2.6c-0.1,1.2-0.3,2.4-0.8,3.6c-0.2,0.2-1.5,0.8-2.5,1.4c-1.5,0.8-3.2,1.7-4.3,2.3
		c-1.1-0.4-2.1-1-3-1.6c-0.6-1.4-0.9-2.9-1-4.4c0-0.2,0.2-1.1,2.5-4.4l0.2-0.2c0.8-1.3,1.3-2.8,1.4-4.4c0-0.6-0.1-1.2-0.3-1.8
		c-0.1-0.2-0.2-0.4-0.2-0.6c-0.1-0.5-0.2-0.9-0.2-1.2c-0.3-1.4-0.4-2.8-0.3-4.1c0-1.6-1.1-3.3-3-4.8s-5.1-3-8-2.4
		c-1.5,0.4-3.1,0.6-4.6,0.5c-0.8-0.2-1.7,0-2.4,0.5c-1.7,1.1-2.9,2.8-3.4,4.8c-0.6,2.2-1,4.4-0.9,6.7v0.3c0,0.4,0,0.8-0.1,1.3
		s-0.2,1-0.2,1.5c0.1,1.4,0.6,2.8,1.4,4c0.1,0.1,0.3,0.4,0.6,0.8c0.9,1.1,1.6,2.2,2.2,3.4c-0.1,1.6-0.4,3.3-1.1,4.8
		c-1.3,0.8-2.7,1.5-4.2,2.1c-2.2,0.9-4.3,1.9-6.3,3c-1.4,0.7-2.3,2-2.4,3.5v0.2C4.2,46,4,52.5,3.9,54.5c0,0.7,0.5,1.3,1.2,1.3
		c0,0,0,0,0.1,0h6.4v-2.5H6.8c0.1-3.6,0.2-7.2,0.3-7.6v-0.2c0-0.8,0.5-1.4,1.2-1.7c2-1.1,4-2.1,6.1-2.9c1.7-0.6,3.2-1.4,4.7-2.4
		c1.4-1,2.1-5.7,2-6.9c-0.1-1-1-2.5-2.7-4.7l-0.5-0.6c-0.6-0.7-0.9-1.6-1-2.6c0-0.3,0-0.6,0.1-0.9c0.1-0.6,0.2-1.2,0.2-1.8v-0.3
		c0-2.1,0.3-4.1,0.9-6.1c0.4-1.3,1.2-2.5,2.3-3.2c0.2-0.2,0.5-0.3,0.8-0.2c1.8,0.1,3.6,0,5.4-0.5c1.6-0.4,4,0.4,5.9,1.9
		c1,0.7,1.7,1.7,2,2.9c0,1.6,0.1,3.1,0.4,4.6c0.1,0.3,0.1,0.6,0.2,1c0.1,0.5,0.2,0.9,0.4,1.3c0.1,0.3,0.1,0.5,0.1,0.8
		c-0.1,1.1-0.4,2.1-1,3.1l-0.2,0.2c-2,3-2.8,4.6-2.9,5.6c0,0.8,0.6,5.4,2,6.5c1.6,1.1,3.4,2,5.2,2.7c1.7,0.8,3.7,1.7,5.8,2.8
		c0.7,0.4,1.1,1.1,1.1,1.9c0.1,0.5,0.2,4.1,0.3,7.6h-5v2.5h6.1c0.3,0,0.7-0.1,0.9-0.4c0.2-0.2,0.4-0.6,0.3-0.9
		c-0.1-2-0.2-8.5-0.4-9.3c-0.1-1.5-1-2.9-2.4-3.6c-1.9-1-3.7-1.9-5.3-2.6c0.9-0.5,2-1.1,3-1.6s1.9-1,2.8-1.6c1-0.8,1.7-4.3,1.6-5.4
		c-0.1-0.8-0.8-1.9-2.1-3.6L45,26.3c-0.4-0.6-0.7-1.2-0.8-1.9c0-0.2,0-0.5,0.1-0.7c0.1-0.5,0.2-0.9,0.1-1.4v-0.2
		c0-1.6,0.2-3.1,0.7-4.7c0.3-1,0.9-1.9,1.8-2.5c0.2-0.1,0.4-0.2,0.6-0.1c1.4,0.1,2.8,0,4.2-0.4c1.6-0.1,3.2,0.4,4.5,1.5
		c0.8,0.5,1.3,1.3,1.5,2.2c0,1.2,0.1,2.4,0.3,3.6c0,0.2,0.1,0.4,0.1,0.8c0,0.3,0.1,0.7,0.3,1c0.1,0.2,0.1,0.4,0.1,0.6
		c-0.1,0.8-0.3,1.6-0.8,2.3l-0.1,0.2c-1.5,2.3-2.2,3.5-2.2,4.3c0,0.6,0.4,4.2,1.6,5c1.2,0.8,2.5,1.6,3.9,2.2c1.2,0.6,2.5,1.2,4,2
		c0.5,0.2,0.8,0.7,0.8,1.3v0.1c0,0.3,0.2,3.1,0.2,5.8H54.7c-0.6,0-1,0.4-1,1s0.4,1,1,1H67c0.3,0,0.5-0.1,0.7-0.3s0.3-0.5,0.3-0.7
		C68,46.7,67.8,41.7,67.8,41.1z"/>
</g>
<path d="M35,54.3v-3c0-0.4-0.4-0.8-0.8-0.8H27v-2.4c2.5-0.4,4.4-2.5,4.4-5.1c0-2.8-2.3-5.2-5.2-5.2S21,40.1,21,43
	c0,2.6,1.9,4.7,4.4,5.1v2.4h-7.2c-0.4,0-0.8,0.4-0.8,0.8v3c-2.5,0.4-4.3,2.5-4.3,5.1c0,2.8,2.3,5.2,5.2,5.2s5.2-2.3,5.2-5.2
	c0-2.6-1.9-4.7-4.4-5.1v-2.2h14.3v2.2c-2.4,0.4-4.3,2.5-4.3,5.1c0,2.8,2.3,5.2,5.2,5.2s5.2-2.3,5.2-5.2C39.5,56.8,37.5,54.7,35,54.3
	z M22.7,43.1c0-2,1.6-3.6,3.6-3.6s3.6,1.6,3.6,3.6s-1.6,3.6-3.6,3.6C24.3,46.7,22.7,45.1,22.7,43.1z M21.9,59.4c0,2-1.6,3.6-3.6,3.6
	s-3.6-1.6-3.6-3.6s1.6-3.6,3.6-3.6S21.9,57.5,21.9,59.4z M34.3,63c-2,0-3.6-1.6-3.6-3.6s1.6-3.6,3.6-3.6s3.6,1.6,3.6,3.6
	S36.3,63,34.3,63z"/>
</svg>
