<svg xmlns="http://www.w3.org/2000/svg" viewBox="0 0 72 72">
  <g>
    <path d="M35.87,64.66a1.4,1.4,0,0,1-.74-.2L34.36,64c-12-6.53-18.43-11.83-19.61-16.21A73,73,0,0,1,13,37.88L11,16.36a1.5,1.5,0,0,1,1-1.58L35.43,7.65a1.61,1.61,0,0,1,.87,0l23.39,7.13a1.5,1.5,0,0,1,1.05,1.58l-2,21.48a72.38,72.38,0,0,1-1.73,10C55.8,52.21,49.39,57.51,37.37,64l-.76.42A1.42,1.42,0,0,1,35.87,64.66ZM14.09,17.29,16,37.56a68.58,68.58,0,0,0,1.64,9.49c.65,2.4,4.32,6.84,18.14,14.36l.08,0,.07,0c13.83-7.52,17.5-12,18.14-14.36a68.81,68.81,0,0,0,1.64-9.53l1.92-20.23Z" fill="gray"/>
    <path d="M45.07,35.2a11.45,11.45,0,0,0-2.75-1.11v-3a6.53,6.53,0,0,0-13.06,0v3a11.27,11.27,0,0,0-2.71,1.08,1.25,1.25,0,0,0-.63,1.09v8.59a1.25,1.25,0,0,0,.63,1.09c2.14,1.22,5.08,1.79,9.24,1.79s7.13-.58,9.28-1.82a1.24,1.24,0,0,0,.63-1.08V36.28A1.24,1.24,0,0,0,45.07,35.2ZM31.76,31.05a4,4,0,0,1,8.06,0v2.56a35.42,35.42,0,0,0-8.06,0Zm11.44,13a18.42,18.42,0,0,1-7.41,1.16,18.44,18.44,0,0,1-7.37-1.15V37a18.46,18.46,0,0,1,7.37-1.14A18.42,18.42,0,0,1,43.2,37Z" fill="gray"/>
  </g>
  <rect x="0.5" y="0.36" width="71.28" height="71.28" fill="none"/>
</svg>
