<?xml version="1.0" encoding="utf-8"?>
<!-- Generator: Adobe Illustrator 27.9.0, SVG Export Plug-In . SVG Version: 6.00 Build 0)  -->
<svg version="1.1" id="Layer_1" xmlns="http://www.w3.org/2000/svg" xmlns:xlink="http://www.w3.org/1999/xlink" x="0px" y="0px"
	 viewBox="0 0 72 72" style="enable-background:new 0 0 72 72;" xml:space="preserve">
<path d="M59.1,50.1v-3.8c0-0.5-0.5-1-1-1h-8v-3c3.1-0.5,5.5-3.2,5.5-6.5s-2.4-6-5.5-6.5v-4c0-0.5-0.5-1-1-1H37.4v-3.3
	c3.1-0.5,5.5-3.2,5.5-6.5C43,11,40,8,36.4,8s-6.5,2.9-6.5,6.6c0,3.3,2.4,6,5.5,6.5v3.3H23.8c-0.5,0-1,0.5-1,1v4
	c-3.1,0.5-5.5,3.2-5.5,6.5s2.4,6,5.5,6.5v3H15c-0.6,0-1,0.5-1,1v3.8c-3.1,0.5-5.6,3.2-5.6,6.5c0,3.6,2.9,6.5,6.6,6.5
	s6.5-2.9,6.5-6.5c0-3.3-2.4-6-5.5-6.5v-2.8h18.2v2.8c-3.1,0.5-5.5,3.2-5.5,6.5c0,3.6,2.9,6.5,6.6,6.5s6.5-2.9,6.5-6.5
	c0-3.3-2.5-6-5.6-6.5v-3.8c0-0.5-0.5-1-1-1H24.8v-3c3.1-0.5,5.6-3.2,5.6-6.5s-2.4-6-5.5-6.5v-3H48v3c-3.1,0.5-5.5,3.2-5.5,6.5
	s2.4,6,5.5,6.5v3h-7.4v2h16.4v2.8c-3.1,0.5-5.5,3.2-5.5,6.5c0,3.6,2.9,6.5,6.5,6.5s6.5-2.9,6.5-6.5C64.7,53.3,62.3,50.5,59.1,50.1
	L59.1,50.1z M31.9,14.6c0-2.5,2-4.6,4.6-4.6s4.5,2,4.5,4.6s-2,4.5-4.5,4.5S31.9,17.1,31.9,14.6z M19.6,56.6c0,2.5-2,4.5-4.6,4.5
	s-4.6-2-4.6-4.5s2-4.5,4.6-4.5S19.6,54.1,19.6,56.6z M39.8,56.6c0,2.5-2,4.5-4.5,4.5s-4.5-2-4.5-4.5s2-4.5,4.5-4.5
	S39.8,54.1,39.8,56.6z M28.3,35.8c0,2.5-2,4.5-4.5,4.5s-4.5-2-4.5-4.5s2-4.5,4.5-4.5S28.3,33.3,28.3,35.8z M44.5,35.8
	c0-2.5,2-4.5,4.5-4.5s4.5,2,4.5,4.5s-2,4.5-4.5,4.5S44.5,38.3,44.5,35.8z M58.1,61.1c-2.5,0-4.5-2-4.5-4.5s2-4.5,4.5-4.5
	s4.5,2,4.5,4.5S60.6,61.1,58.1,61.1z"/>
</svg>
