<svg xmlns="http://www.w3.org/2000/svg" viewBox="0 0 72 72">
  <g>
    <rect x="28.65" y="11.1" width="6.21" height="1.5" fill="gray"/>
    <path d="M58.13,28.86H49.49V14a8.64,8.64,0,0,0-8.63-8.63H22.65A8.64,8.64,0,0,0,14,14V56.32A8.64,8.64,0,0,0,22.65,65H40.86a8.64,8.64,0,0,0,8.63-8.63V52.84h8.64a2.89,2.89,0,0,0,2.94-2.9V31.78A2.93,2.93,0,0,0,58.13,28.86ZM46.49,56.32A5.64,5.64,0,0,1,40.86,62H22.65A5.64,5.64,0,0,1,17,56.32V14a5.64,5.64,0,0,1,5.63-5.63H40.86A5.64,5.64,0,0,1,46.49,14V28.86H44.42V15.58a.5.5,0,0,0-.5-.5H19.67a.51.51,0,0,0-.5.5v40.5a.5.5,0,0,0,.5.5H43.92a.5.5,0,0,0,.5-.5V52.84h2.07ZM22,45.79a1,1,0,0,0,.92.56h4.65v3.58a2.89,2.89,0,0,0,2.95,2.9H43.42v2.74H20.17V16.08H43.42V28.86H30.5a2.94,2.94,0,0,0-2.95,2.92v5.64l-5.47,7.3A1,1,0,0,0,22,45.79ZM59,49.94a.86.86,0,0,1-.9.85H30.5a.86.86,0,0,1-.9-.85v-4.6c0-1-.84-1-1.91-1H25l4.45-5.93a1,1,0,0,0,.2-.61v-6a.89.89,0,0,1,.9-.88H58.13a.89.89,0,0,1,.9.88Z" fill="gray"/>
  </g>
</svg>
