<?xml version="1.0" encoding="UTF-8"?>
<svg id="Layer_1" xmlns="http://www.w3.org/2000/svg" version="1.1" viewBox="0 0 72 72">
  <!-- Generator: Adobe Illustrator 29.0.1, SVG Export Plug-In . SVG Version: 2.1.0 Build 192)  -->
  <defs>
    <style>
      .st0 {
        fill: gray;
      }
    </style>
  </defs>
  <path class="st0" d="M64,14.6l-8.3-8.1c-.6-.6-1.5-.6-2.1,0L12.8,48.6c-.1.1-.2.3-.3.5l-3.4,11.5c-.2.6-.1,1.2.3,1.6.3.3.7.4,1.1.4.2,0,.4,0,.6-.1l11.7-3.4c.2,0,.3-.2.5-.3l40.8-42.1c.3-.3.4-.7.4-1.1,0-.4-.2-.8-.5-1.1ZM21.3,56.5l-9,2.9,2.9-8.9L47.5,16.9l6.1,6L21.3,56.5ZM55.8,20.8l-6.1-6,5.1-5.1,6.1,6-5.1,5.1Z"/>
</svg>