<svg xmlns="http://www.w3.org/2000/svg" viewBox="0 0 72 72">
  <g>
    <polygon points="40.5 43.95 40.5 41.37 56.41 41.37 56.41 43.95 40.5 43.95 40.5 43.95" fill="gray"/>
    <polygon points="40.5 37.79 40.5 35.2 56.41 35.2 56.41 37.79 40.5 37.79 40.5 37.79" fill="gray"/>
    <polygon points="40.5 31.79 40.5 29.2 56.41 29.2 56.41 31.79 40.5 31.79 40.5 31.79" fill="gray"/>
    <polygon points="40.5 25.63 40.5 23.04 56.41 23.04 56.41 25.62 40.5 25.62 40.5 25.63" fill="gray"/>
    <polygon points="40.5 49.79 40.5 47.2 56.41 47.2 56.41 49.79 40.5 49.79 40.5 49.79" fill="gray"/>
    <path d="M60,60.69H11.3a4.37,4.37,0,0,1-4.36-4.37V16.15a4.37,4.37,0,0,1,4.36-4.37H60a4.37,4.37,0,0,1,4.36,4.37V56.32A4.37,4.37,0,0,1,60,60.69ZM11.3,15.28a.86.86,0,0,0-.86.87V56.32a.86.86,0,0,0,.86.87H60a.87.87,0,0,0,.86-.87V16.15a.87.87,0,0,0-.86-.87Z" fill="gray"/>
    <path d="M37,39.57H33.77V36.44a1,1,0,0,0-1-1H26.71v-2h3.51a1,1,0,0,0,1-1V25.37a1,1,0,0,0-1-1h-9a1,1,0,0,0-1,1v7.07a1,1,0,0,0,1,1h3.46v2H18.64a1,1,0,0,0-1,1v3.1H14.46a1,1,0,0,0-1,1v7.07a1,1,0,0,0,1,1h8.37a1,1,0,0,0,1-1V40.54a1,1,0,0,0-1-1H19.64v-2.1H31.77v2.13H28.59a1,1,0,0,0-1,1v7.08a1,1,0,0,0,1,1H37a1,1,0,0,0,1-1V40.57A1,1,0,0,0,37,39.57ZM22.25,26.37h7v5.07h-7Zm-.42,20.24H15.46V41.54h6.37Zm14.13,0H29.59V41.57H36Z" fill="gray"/>
  </g>
  <rect x="0.36" y="0.36" width="71.28" height="71.28" fill="none"/>
</svg>
