<svg xmlns="http://www.w3.org/2000/svg" viewBox="0 0 72 72">
  <g>
    <g>
      <path d="M36.53,60.59c-4.39,0-7.75-4.78-10-8l-.09-.14c-3.53-5-4.64-8.94-3.3-11.66.12-.29,1.45-3.26,3.95-3.26a1,1,0,0,1,.81.42l3.57,5.08a1,1,0,0,1-.21,1.36l-1.88,1.46a.48.48,0,0,0,0,.19,15.68,15.68,0,0,0,2.16,3.65,14.69,14.69,0,0,0,2.58,3h0a.53.53,0,0,0,.22.08h0l2.09-1.16a1,1,0,0,1,1.3.3L41.3,57a1,1,0,0,1,.18.57c0,2.36-3.7,2.89-4.45,3ZM26.64,39.65a4.31,4.31,0,0,0-1.69,2c-1,2,.13,5.43,3.12,9.68l.1.14c2.07,2.95,5.2,7.41,8.67,7.12a5.92,5.92,0,0,0,2.53-.82l-2.75-3.91-1.27.7a2.1,2.1,0,0,1-2.18,0h0c-1-.52-2.47-2.51-3.28-3.66-2.39-3.41-2.48-4.31-2.51-4.61a2.09,2.09,0,0,1,.81-2l1.09-.85ZM34.23,52.9Zm0,0Zm0,0Zm-4.95-7Zm0,0h0Zm0,0Zm0,0Z" />
      <circle cx="34.97" cy="38.98" r="1.48" />
      <circle cx="39.85" cy="38.98" r="1.48" />
      <circle cx="44.74" cy="38.98" r="1.48" />
      <circle cx="34.97" cy="43.88" r="1.48" />
      <circle cx="39.85" cy="43.88" r="1.48" />
      <circle cx="44.74" cy="43.88" r="1.48" />
      <circle cx="34.97" cy="48.77" r="1.48" />
      <circle cx="39.85" cy="48.77" r="1.48" />
      <circle cx="44.74" cy="48.77" r="1.48" />
    </g>
    <path d="M52.07,64.47H44v-3h8.07a1.19,1.19,0,0,0,1.19-1.19V11.46a1.18,1.18,0,0,0-1.19-1.18H19.68a1.19,1.19,0,0,0-1.19,1.18V60.28a1.19,1.19,0,0,0,1.19,1.19h8.68v3H19.68a4.2,4.2,0,0,1-4.19-4.19V11.46a4.19,4.19,0,0,1,4.19-4.18H52.07a4.19,4.19,0,0,1,4.19,4.18V60.28A4.2,4.2,0,0,1,52.07,64.47Z" />
    <path d="M41,18.64H30.78a1,1,0,0,1,0-2H41a1,1,0,0,1,0,2Z" />
    <path d="M41,25.71H30.78a1,1,0,0,1,0-2H41a1,1,0,0,1,0,2Z" />
  </g>
  <rect x="0.36" y="0.36" width="71.28" height="71.28" fill="none"/>
</svg>
