<svg xmlns="http://www.w3.org/2000/svg" viewBox="0 0 72 72">
  <g>
    <path d="M45.17,64.21H27a8.64,8.64,0,0,1-8.63-8.63V16.24A8.64,8.64,0,0,1,27,7.61H45.17a8.64,8.64,0,0,1,8.63,8.63V55.58A8.64,8.64,0,0,1,45.17,64.21ZM27,10.61a5.64,5.64,0,0,0-5.63,5.63V55.58A5.63,5.63,0,0,0,27,61.21H45.17a5.64,5.64,0,0,0,5.63-5.63V16.24a5.64,5.64,0,0,0-5.63-5.63Z" />
    <path d="M39.17,15.11H33" fill="none" stroke="gray" stroke-miterlimit="10" stroke-width="1.5"/>
    <circle cx="35.98" cy="56.16" r="1.75" />
    <path d="M43.75,34.77a12.77,12.77,0,0,0-2.46-1.07V31a5.31,5.31,0,0,0-10.61,0V33.7a12.63,12.63,0,0,0-2.42,1,.8.8,0,0,0-.42.71v7.3a.81.81,0,0,0,.42.71A15.86,15.86,0,0,0,36,45.3a15.85,15.85,0,0,0,7.76-1.85.81.81,0,0,0,.41-.71V35.48A.79.79,0,0,0,43.75,34.77ZM32.32,31a3.67,3.67,0,0,1,7.33,0v2.25a18.84,18.84,0,0,0-7.33,0Zm10.2,11.22A14.59,14.59,0,0,1,36,43.66a14.66,14.66,0,0,1-6.51-1.39V36A14.66,14.66,0,0,1,36,34.56,14.45,14.45,0,0,1,42.52,36Z" />
  </g>
  <rect x="0.36" y="0.36" width="71.28" height="71.28" fill="none"/>
</svg>
