<svg xmlns="http://www.w3.org/2000/svg" viewBox="0 0 72 72">
  <rect x="0.36" y="0.36" width="71.28" height="71.28" fill="none"/>
  <g>
    <path d="M56.61,46.85H25.3a19.25,19.25,0,0,1-19-19.39,19.24,19.24,0,0,1,19-19.38H56.67v3H25.3c-8.69,0-16,7.5-16,16.38s7.35,16.39,16,16.39H56.61Z" />
    <circle cx="24.57" cy="27.47" r="4.2" />
    <circle cx="52.59" cy="27.47" r="4.2" />
    <circle cx="38.51" cy="27.47" r="4.2" />
    <g>
      <path d="M39.57,61.21V59.79a9.49,9.49,0,0,0,1.79.67,5.12,5.12,0,0,0,1,.12,2,2,0,0,0,1.38-.47,1.54,1.54,0,0,0,.5-1.14A1.79,1.79,0,0,0,44,58a4.19,4.19,0,0,0-1.34-1l-.7-.41a6.12,6.12,0,0,1-1.88-1.45,2.38,2.38,0,0,1-.48-1.45A2.6,2.6,0,0,1,40,52.37a2.74,2.74,0,0,1,1-1A3.29,3.29,0,0,1,42.65,51a8.63,8.63,0,0,1,2.48.39v1.31a12.28,12.28,0,0,0-1.56-.53,3.44,3.44,0,0,0-.84-.1,1.7,1.7,0,0,0-1.3.46,1.37,1.37,0,0,0-.43.94,1.3,1.3,0,0,0,.2.66,2.16,2.16,0,0,0,.54.59q.34.24.93.57l.73.41a6.05,6.05,0,0,1,1.89,1.47,2.61,2.61,0,0,1,.47,1.53,2.78,2.78,0,0,1-.9,2.06,3.73,3.73,0,0,1-2.66.86,7.22,7.22,0,0,1-1.05-.07A13.77,13.77,0,0,1,39.57,61.21Z" />
      <path d="M56.71,63.42a16.37,16.37,0,0,1-4-1.83q-.65.06-1,.06A4.51,4.51,0,0,1,49.35,61a4.19,4.19,0,0,1-1.66-1.91,7.1,7.1,0,0,1,0-5.48,4.24,4.24,0,0,1,1.64-1.9A4.72,4.72,0,0,1,51.87,51a4.78,4.78,0,0,1,2.53.67,4.22,4.22,0,0,1,1.65,1.91,6.78,6.78,0,0,1,.55,2.75A6.6,6.6,0,0,1,56,59.2a4.26,4.26,0,0,1-2,2,15.67,15.67,0,0,0,3.61,1.09Zm-4.84-2.84a2.8,2.8,0,0,0,2.36-1.13,5.13,5.13,0,0,0,.84-3.11,5.09,5.09,0,0,0-.84-3.1,3,3,0,0,0-4.73,0,5.06,5.06,0,0,0-.84,3.09,5.15,5.15,0,0,0,.84,3.11A2.77,2.77,0,0,0,51.87,60.58Z" />
      <path d="M58.61,61.4V51.28H60v9h4.49V61.4Z" />
    </g>
  </g>
</svg>
