<svg xmlns="http://www.w3.org/2000/svg" viewBox="0 0 72 72">
  <g>
    <path d="M51.94,64.47H43.87v-3h8.07a1.19,1.19,0,0,0,1.19-1.19V11.46a1.18,1.18,0,0,0-1.19-1.18H19.55a1.18,1.18,0,0,0-1.19,1.18V60.28a1.19,1.19,0,0,0,1.19,1.19h7.68v3H19.55a4.2,4.2,0,0,1-4.19-4.19V11.46a4.19,4.19,0,0,1,4.19-4.18H51.94a4.19,4.19,0,0,1,4.19,4.18V60.28A4.2,4.2,0,0,1,51.94,64.47Z" />
    <path d="M40.84,18.64H30.65a1,1,0,0,1,0-2H40.84a1,1,0,0,1,0,2Z" />
    <path d="M40.84,25.71H30.65a1,1,0,0,1,0-2H40.84a1,1,0,0,1,0,2Z" />
    <g>
      <path d="M35.65,52.31a4.43,4.43,0,1,1,4.45-4.43A4.45,4.45,0,0,1,35.65,52.31Zm0-7.36a2.93,2.93,0,1,0,3,2.93A2.94,2.94,0,0,0,35.65,45Z" />
      <path d="M44,49.38a1.53,1.53,0,0,0-1.14,1,7.27,7.27,0,0,1-.34.81,1.51,1.51,0,0,0,.1,1.51l1.44,2.09-1.46,1.46L40.48,54.8a1.5,1.5,0,0,0-.84-.25,1.56,1.56,0,0,0-.67.15,6.71,6.71,0,0,1-.82.34,1.53,1.53,0,0,0-1,1.13l-.47,2.53H34.62l-.47-2.53a1.53,1.53,0,0,0-1-1.13,7.43,7.43,0,0,1-.82-.34,1.56,1.56,0,0,0-.67-.15,1.5,1.5,0,0,0-.84.25l-2.1,1.43-1.46-1.46,1.43-2.08a1.49,1.49,0,0,0,.1-1.5,8.33,8.33,0,0,1-.34-.82,1.53,1.53,0,0,0-1.14-1l-2.73-.46V46.85l2.73-.46a1.53,1.53,0,0,0,1.14-1,8.33,8.33,0,0,1,.34-.82,1.49,1.49,0,0,0-.1-1.5L27.23,41,28.7,39.5,30.83,41a1.51,1.51,0,0,0,.84.26,1.56,1.56,0,0,0,.67-.15,7.27,7.27,0,0,1,.81-.34,1.52,1.52,0,0,0,1-1.14l.47-2.67h2.07l.47,2.67a1.51,1.51,0,0,0,1,1.14,7.43,7.43,0,0,1,.82.34,1.56,1.56,0,0,0,.67.15,1.51,1.51,0,0,0,.84-.26l2.14-1.47L44.09,41l-1.48,2.13a1.49,1.49,0,0,0-.1,1.5,8.33,8.33,0,0,1,.34.82,1.55,1.55,0,0,0,1.14,1l2.52.46v2.06Zm2.74-4-2.36-.47a7.12,7.12,0,0,0-.41-1l1.34-2A1.54,1.54,0,0,0,45.11,40l-1.49-1.47A1.51,1.51,0,0,0,42.53,38a1.57,1.57,0,0,0-.85.26l-2,1.33a7.79,7.79,0,0,0-1-.41l-.47-2.35a1.53,1.53,0,0,0-1.51-1.23H34.6a1.54,1.54,0,0,0-1.51,1.23l-.47,2.35a7.12,7.12,0,0,0-1,.41l-2-1.33a1.54,1.54,0,0,0-.85-.26,1.53,1.53,0,0,0-1.09.45L26.2,40A1.53,1.53,0,0,0,26,41.89l1.33,2c-.15.32-.29.65-.41,1l-2.36.47a1.53,1.53,0,0,0-1.24,1.5v2.08a1.53,1.53,0,0,0,1.24,1.5l2.36.48c.12.33.26.66.41,1l-1.33,2a1.52,1.52,0,0,0,.19,1.93l1.48,1.47a1.53,1.53,0,0,0,1.09.45,1.47,1.47,0,0,0,.85-.26l2-1.33a8.65,8.65,0,0,0,1,.42l.47,2.34a1.55,1.55,0,0,0,1.51,1.24h2.1a1.54,1.54,0,0,0,1.51-1.24l.47-2.34a8.8,8.8,0,0,0,1-.42l2,1.33a1.49,1.49,0,0,0,.85.26,1.51,1.51,0,0,0,1.09-.45l1.49-1.47a1.53,1.53,0,0,0,.19-1.93l-1.34-2a7.12,7.12,0,0,0,.41-1l2.36-.47A1.53,1.53,0,0,0,48,48.92V46.84A1.53,1.53,0,0,0,46.73,45.34Z" fill-rule="evenodd"/>
    </g>
  </g>
  <rect x="0.36" y="0.36" width="71.28" height="71.28" fill="none"/>
</svg>
