<svg xmlns="http://www.w3.org/2000/svg"  viewBox="0 0 72 72">
  <path d="M57.27,7.47H14.62a7.77,7.77,0,0,0-7.76,7.76V56.51a7.77,7.77,0,0,0,7.76,7.76l42.05,0,.4,0h.2A7.77,7.77,0,0,0,65,56.51V15.23A7.77,7.77,0,0,0,57.27,7.47Zm3.76,49a3.77,3.77,0,0,1-3.67,3.76l-.4,0h-.2L38,60.24A1.55,1.55,0,0,0,38,58.11s-2.05-3.67-1.12-3.67A19.65,19.65,0,0,0,54.55,43.25a19.44,19.44,0,0,0,.11-16.36,1.57,1.57,0,0,0-2.85,1.31,16.37,16.37,0,0,1-.09,13.71,16.52,16.52,0,0,1-14.88,9.4c-1.05,0,1.22-4.63,1.22-4.63a1.57,1.57,0,0,0-2.21-2.22L29,51.34a1.56,1.56,0,0,0,0,2.21l6.69,6.7-21,0a3.77,3.77,0,0,1-3.76-3.76V15.23a3.77,3.77,0,0,1,3.76-3.76H34.53l-.17.14a1.58,1.58,0,0,0,0,2.22s2,3.67,1.13,3.67A19.67,19.67,0,0,0,17.77,28.7a19.55,19.55,0,0,0-.38,15.74,1.58,1.58,0,0,0,1.45,1,1.57,1.57,0,0,0,1.45-2.17A16.34,16.34,0,0,1,20.6,30a16.52,16.52,0,0,1,14.89-9.4c1,0-1.23,4.63-1.23,4.63a1.57,1.57,0,0,0,2.22,2.21l6.87-6.87a1.57,1.57,0,0,0,.46-1.11,1.53,1.53,0,0,0-.46-1.11l-6.77-6.78-.17-.14H57.27A3.77,3.77,0,0,1,61,15.23Z" fill="gray"/>
  <rect x="0.36" y="0.36" width="71.28" height="71.28" fill="none"/>
</svg>
