<svg xmlns="http://www.w3.org/2000/svg"  viewBox="0 0 72 72">
  <g>
    <path d="M50.59,56.94h-.2l-.25,0L21,56.94a6,6,0,0,1-6-6V21.22a6,6,0,0,1,6-6H50.59a6,6,0,0,1,6,6V50.89A6,6,0,0,1,50.59,56.94ZM21,19.22a2,2,0,0,0-2,2V50.89a2,2,0,0,0,2,2l29.27,0h.2l.23,0a2.06,2.06,0,0,0,1.92-2V21.22a2,2,0,0,0-2-2Z" fill="gray"/>
    <path d="M36,43a1.5,1.5,0,0,1-1.5-1.5v-12a1.5,1.5,0,1,1,3,0v12A1.5,1.5,0,0,1,36,43Z" fill="gray"/>
  </g>
  <rect x="0.36" y="0.36" width="71.28" height="71.28" fill="none"/>
</svg>
