<svg xmlns="http://www.w3.org/2000/svg" viewBox="0 0 72 72">
  <g>
    <path d="M52,64.47H43.9v-3H52a1.18,1.18,0,0,0,1.18-1.19V11.46A1.18,1.18,0,0,0,52,10.28H19.58a1.18,1.18,0,0,0-1.18,1.18V60.28a1.18,1.18,0,0,0,1.18,1.19h7.68v3H19.58a4.19,4.19,0,0,1-4.18-4.19V11.46a4.18,4.18,0,0,1,4.18-4.18H52a4.18,4.18,0,0,1,4.18,4.18V60.28A4.19,4.19,0,0,1,52,64.47Z" />
    <path d="M40.87,18.64H30.69a1,1,0,1,1,0-2H40.87a1,1,0,0,1,0,2Z" />
    <path d="M40.87,25.71H30.69a1,1,0,0,1,0-2H40.87a1,1,0,0,1,0,2Z" />
    <path d="M46.28,57.4H25.44a1,1,0,0,1-.72-.31,1,1,0,0,1-.28-.72c0-1.27.12-4.27.18-4.67A2.57,2.57,0,0,1,26,49.59c1.17-.66,2.29-1.15,3.19-1.55a12.1,12.1,0,0,0,1.94-.95,6.59,6.59,0,0,0,.48-2.1,13.82,13.82,0,0,0-1-1.52c-.13-.18-.24-.32-.29-.4a4,4,0,0,1-.77-2.19,3.23,3.23,0,0,1,.09-.83,1.74,1.74,0,0,0,.05-.54v-.14a11.8,11.8,0,0,1,.49-3.44A4.67,4.67,0,0,1,32,33.32,1.94,1.94,0,0,1,33.45,33a6.36,6.36,0,0,0,2.19-.24A5.64,5.64,0,0,1,39.94,34a3.7,3.7,0,0,1,1.64,2.68,8.71,8.71,0,0,0,.16,2c0,.17.07.35.11.62a.57.57,0,0,0,.07.23,2.39,2.39,0,0,1,.2,1.06A5.09,5.09,0,0,1,41.35,43l-.08.12a7.82,7.82,0,0,0-1.17,2A6.9,6.9,0,0,0,40.55,47a14,14,0,0,0,2.16,1.1c.89.4,1.9.86,3,1.45a2.64,2.64,0,0,1,1.39,2.09c.06.43.16,3.43.19,4.7a1,1,0,0,1-.28.72A1,1,0,0,1,46.28,57.4Zm-19.81-2H45.25c0-1.64-.11-3.17-.14-3.4s-.08-.51-.37-.66c-1-.56-2-1-2.85-1.39a13.44,13.44,0,0,1-2.62-1.38h0c-1-.72-1.18-3.32-1.16-3.53,0-.61.45-1.45,1.51-3l.07-.1a3.25,3.25,0,0,0,.43-1.33,1.23,1.23,0,0,0,0-.2,2.7,2.7,0,0,1-.24-.81c0-.2-.06-.34-.09-.48a10.23,10.23,0,0,1-.2-2.38,2.07,2.07,0,0,0-.88-1.15,3.64,3.64,0,0,0-2.62-.89,8.29,8.29,0,0,1-2.82.27s-.08,0-.13,0,0,0-.05.06a2.68,2.68,0,0,0-1,1.4,10,10,0,0,0-.43,3v.15a3.63,3.63,0,0,1-.11,1,1.48,1.48,0,0,0,0,.36A2.2,2.2,0,0,0,32,42l.23.31a5.93,5.93,0,0,1,1.43,2.56c.06.68-.34,3.15-1.17,3.79A12.38,12.38,0,0,1,30,49.87c-.9.4-1.93.85-3,1.46a.57.57,0,0,0-.37.56l0,.12C26.58,52.23,26.52,53.77,26.47,55.4Z" />
  </g>
  <rect x="0.36" y="0.36" width="71.28" height="71.28" fill="none"/>
</svg>
