<svg xmlns="http://www.w3.org/2000/svg" viewBox="0 0 72 72">
  <g>
    <path d="M28.09,20.58a1,1,0,0,1-1-1v-6a1,1,0,0,1,2,0v6A1,1,0,0,1,28.09,20.58Z" fill="gray"/>
    <path d="M54.92,65.21h-39a1.87,1.87,0,0,1-1.87-1.87V57.83A1.87,1.87,0,0,1,15.92,56h39a1.87,1.87,0,0,1,1.87,1.87v5.51A1.87,1.87,0,0,1,54.92,65.21Zm-.09-1.51H55a.36.36,0,0,0,.29-.37V57.83a.37.37,0,0,0-.37-.37h-39a.37.37,0,0,0-.37.37v5.51a.37.37,0,0,0,.37.37Z" fill="gray"/>
    <path d="M54.79,42.83h.13A1.86,1.86,0,0,0,56.79,41v-5.5a1.87,1.87,0,0,0-1.87-1.87H29.55V27.33h5.72a3.5,3.5,0,0,0,3.5-3.5V9.51A3.5,3.5,0,0,0,35.27,6H20.46A3.5,3.5,0,0,0,17,9.51V23.84a3.5,3.5,0,0,0,3.5,3.5h6.09v6.26H15.92a1.87,1.87,0,0,0-1.87,1.87V41a1.87,1.87,0,0,0,1.87,1.87H31.19l1.94,2H15.92a1.87,1.87,0,0,0-1.87,1.87v5.5A1.87,1.87,0,0,0,15.92,54h39a1.87,1.87,0,0,0,1.87-1.87v-5.5a1.86,1.86,0,0,0-1.87-1.87H37.37l-1.94-2ZM20.46,24.34a.5.5,0,0,1-.5-.5V9.51a.5.5,0,0,1,.5-.5H35.27a.5.5,0,0,1,.5.5V23.84a.51.51,0,0,1-.45.5h-.08a.34.34,0,0,0-.15,0ZM54.92,46.28a.36.36,0,0,1,.37.37v5.5a.38.38,0,0,1-.29.38H15.92a.36.36,0,0,1-.37-.37v-5.5a.36.36,0,0,1,.37-.37H34.63l4.24,4.23a1.5,1.5,0,0,0,2.12,0,1.49,1.49,0,0,0,0-2.12l-2.12-2.11Zm0-11.19a.36.36,0,0,1,.37.37V41a.38.38,0,0,1-.29.38H33.93L29.55,37V35.09Zm-39,6.24a.36.36,0,0,1-.37-.37v-5.5a.36.36,0,0,1,.37-.37H26.55v2.48A1.5,1.5,0,0,0,27,38.63l2.7,2.7Z" fill="gray"/>
  </g>
  <rect x="0.36" y="0.36" width="71.28" height="71.28" fill="none"/>
</svg>
