<?xml version="1.0" encoding="UTF-8"?>
<svg xmlns="http://www.w3.org/2000/svg" viewBox="0 0 72 72">
  <path d="M52.07,64.47h-8.07v-3h8.07c.66,0,1.19-.53,1.19-1.19V11.46c0-.65-.53-1.18-1.18-1.18,0,0,0,0-.01,0H19.68c-.65,0-1.18.53-1.19,1.18v48.82c0,.66.53,1.19,1.19,1.19h8.68v3h-8.68c-2.31,0-4.18-1.88-4.19-4.19V11.46c0-2.31,1.88-4.18,4.19-4.18h32.39c2.31,0,4.18,1.87,4.19,4.18v48.82c0,2.31-1.88,4.18-4.19,4.19Z"/>
  <path d="M41,18.64h-10.22c-.55,0-1-.45-1-1s.45-1,1-1h10.22c.55,0,1,.45,1,1s-.45,1-1,1Z"/>
  <path d="M41,25.71h-10.22c-.55,0-1-.45-1-1s.45-1,1-1h10.22c.55,0,1,.45,1,1s-.45,1-1,1Z"/>
  <path d="M39.47,51.57l-2.08-3.81c.12-.04.24-.09.34-.14.47-.24.81-.57,1.04-.99s.34-.91.34-1.46-.11-1.05-.34-1.48-.57-.77-1.04-1.02-1.06-.37-1.78-.37h-3.18v9.28h1.18v-3.6h2c.08,0,.14,0,.21,0l1.94,3.61h1.37ZM33.96,43.33h1.93c.5,0,.89.08,1.19.22s.52.37.66.64.21.59.21.96-.07.67-.21.94-.35.47-.65.61-.69.21-1.18.21h-1.94v-3.58h0Z"/>
  <path d="M44.78,39.18h-17.54c-.49,0-.89.4-.89.89l-.02,14.17c0,.49.4.89.89.89h7.87v1.95h-3.66v1.77h9.08v-1.77h-3.64v-1.95h7.91c.49,0,.89-.4.89-.89v-14.17c0-.49-.4-.89-.89-.89ZM43.86,53.35h-15.77v-12.4h15.77v12.4Z"/>
</svg>