<svg xmlns="http://www.w3.org/2000/svg" viewBox="0 0 72 72">
  <path d="M62.88,14H8.94a1.5,1.5,0,0,0-1.5,1.5v18.7a1.5,1.5,0,0,0,1.5,1.5H20.38l-6.46,6.46a1,1,0,0,0,0,1.41l8,7.95v7a1,1,0,0,0,1,1H37.93v3.14a1,1,0,0,0,1,1H53.75a1,1,0,0,0,1-1V54.39a1,1,0,0,0-1-1H38.93a1,1,0,0,0-1,1v3.2H23.87V51.73l7.82-7.82h6.24V47a1,1,0,0,0,1,1H53.75a1,1,0,0,0,1-1V38.68a1,1,0,0,0-1-1H38.93a1,1,0,0,0-1,1v3.23h-6.1l-6.19-6.18H62.88a1.5,1.5,0,0,0,1.5-1.5V15.53A1.5,1.5,0,0,0,62.88,14Zm-23,41.36H52.75v6.34H39.93Zm0-15.71H52.75V46H39.93ZM23,35.93l6.83,6.82a.9.9,0,0,0,0,.16s0,0,0,0L23,49.81,16.05,42.9Zm38.37-3.2H10.44V17H61.38Z" fill="gray"/>
  <rect x="0.36" y="0.36" width="71.28" height="71.28" fill="none"/>
</svg>
