<svg xmlns="http://www.w3.org/2000/svg" viewBox="0 0 72 72">
  <g>
    <polygon points="34.81 35.89 29.33 30.41 31.45 28.29 34.81 31.64 41.97 24.49 44.09 26.61 34.81 35.89" />
    <path d="M35.93,46.8a1.06,1.06,0,0,1-.5-.13L35,46.44C28.48,42.89,25,40,24.34,37.57a39.6,39.6,0,0,1-.94-5.4L22.3,20.54A1,1,0,0,1,23,19.49l12.62-3.85a1.18,1.18,0,0,1,.59,0l12.62,3.85a1,1,0,0,1,.71,1.05l-1.1,11.6a39.05,39.05,0,0,1-.94,5.43c-.65,2.42-4.14,5.32-10.68,8.87l-.41.23A1.05,1.05,0,0,1,35.93,46.8ZM24.37,21.17l1,10.79a37.57,37.57,0,0,0,.88,5.09c.28,1,1.9,3.39,9.66,7.61,7.75-4.22,9.37-6.58,9.65-7.61a37.31,37.31,0,0,0,.88-5.12l1-10.76L35.93,17.65Z" />
    <path d="M63.06,7.45h-54A1.5,1.5,0,0,0,7.56,9V51.48A1.5,1.5,0,0,0,9.06,53H34.48v6.38H24.05a1.5,1.5,0,1,0,0,3H47.91a1.5,1.5,0,0,0,0-3H37.48V53H63.06a1.5,1.5,0,0,0,1.5-1.5V9A1.5,1.5,0,0,0,63.06,7.45ZM61.56,50h-51V10.45h51Z" />
  </g>
  <rect x="0.36" y="0.36" width="71.28" height="71.28" fill="none"/>
</svg>
