<svg xmlns="http://www.w3.org/2000/svg" viewBox="0 0 72 72">
  <g>
    <path d="M52,64.47H43.94v-3H52a1.18,1.18,0,0,0,1.18-1.19V11.46A1.18,1.18,0,0,0,52,10.28H19.61a1.18,1.18,0,0,0-1.18,1.18V60.28a1.18,1.18,0,0,0,1.18,1.19H27.3v3H19.61a4.19,4.19,0,0,1-4.18-4.19V11.46a4.18,4.18,0,0,1,4.18-4.18H52a4.18,4.18,0,0,1,4.18,4.18V60.28A4.19,4.19,0,0,1,52,64.47Z" />
    <path d="M40.91,18.64H30.72a1,1,0,0,1,0-2H40.91a1,1,0,0,1,0,2Z" />
    <path d="M40.91,25.71H30.72a1,1,0,0,1,0-2H40.91a1,1,0,0,1,0,2Z" />
    <g>
      <path d="M25.1,57.29,25,47.42a.08.08,0,0,1,0-.07h0s0,0,0,0l3.11,3.11,5.62-5.71-3.14-3a.08.08,0,0,1,0-.08.08.08,0,0,1,.07,0h9.82l.06,9.87a.07.07,0,0,1,0,.07h0a.06.06,0,0,1-.05,0l-3.12-3.13-5.61,5.71,3.15,3a.08.08,0,0,1,0,.08.07.07,0,0,1-.06,0Z" fill-rule="evenodd"/>
      <path d="M30.79,41.69h9.82v9.8l-3.12-3.13-5.71,5.72,3.15,3.14H25.1v-9.8l3.11,3.11,5.72-5.71-3.14-3.13m0-.14a.13.13,0,0,0-.13.09.14.14,0,0,0,0,.15l3,3-5.52,5.51-3-3a.12.12,0,0,0-.1,0h-.05a.14.14,0,0,0-.09.13v9.8a.14.14,0,0,0,.14.14h9.82a.13.13,0,0,0,.13-.09.14.14,0,0,0,0-.15l-3.05-3,5.51-5.52,3,3a.14.14,0,0,0,.1,0h.06a.13.13,0,0,0,.08-.13V41.7a.14.14,0,0,0-.14-.14Z" />
    </g>
    <g>
      <path d="M38.35,57.31l-1.21-1.16a.09.09,0,0,1,0-.11.12.12,0,0,1,.1-.07h8V37.05H26.28v8a.12.12,0,0,1-.07.1h0a.11.11,0,0,1-.07,0L25,44l0-8.12a.11.11,0,0,1,.11-.11h21.3a.11.11,0,0,1,.11.11V57.21a.1.1,0,0,1-.11.1Z" fill-rule="evenodd"/>
      <path d="M46.37,35.88V57.21h-8l-1.13-1.13h8.06V37H26.17V45l-1.1-1.11v-8h21.3m0-.21H25.07a.21.21,0,0,0-.21.21v8a.2.2,0,0,0,.06.15L26,45.18a.22.22,0,0,0,.15.06h.08a.22.22,0,0,0,.13-.2V37.16H45.07V55.87H37.22A.22.22,0,0,0,37,56a.22.22,0,0,0,0,.23l1.13,1.13a.2.2,0,0,0,.15.06h8a.21.21,0,0,0,.21-.21V35.88a.21.21,0,0,0-.21-.21Z" />
    </g>
  </g>
  <rect x="0.36" y="0.36" width="71.28" height="71.28" fill="none"/>
</svg>
