<svg xmlns="http://www.w3.org/2000/svg" viewBox="0 0 72 72">
  <g>
    <path d="M45.13,19.15a11.82,11.82,0,0,0-3-1.18V14.51a6.37,6.37,0,1,0-12.74,0V18a12,12,0,0,0-3,1.16.92.92,0,0,0-.46.79v8.91a.91.91,0,0,0,.46.78c2.16,1.23,5.14,1.8,9.38,1.8s7.26-.58,9.43-1.83a.9.9,0,0,0,.45-.78V19.93A.9.9,0,0,0,45.13,19.15Zm-14-4.64a4.57,4.57,0,1,1,9.14,0v3.11a31.27,31.27,0,0,0-4.59-.3,32.23,32.23,0,0,0-4.55.29ZM43.78,28.25c-1.85.91-4.5,1.35-8.08,1.35s-6.19-.42-8-1.32V20.45c1.85-.91,4.43-1.33,8-1.33s6.23.44,8.08,1.35Z" />
    <path d="M59.38,13.8H44.68v3h14.7a1.81,1.81,0,0,1,1.8,1.81v2L35.72,42.32,10.4,20.73V18.61a1.81,1.81,0,0,1,1.81-1.81H26.72v-3H12.21A4.82,4.82,0,0,0,7.4,18.61V52.17A4.82,4.82,0,0,0,12.21,57H59.38a4.81,4.81,0,0,0,4.8-4.81V18.61A4.81,4.81,0,0,0,59.38,13.8Zm0,40.18H12.21a1.81,1.81,0,0,1-1.81-1.81V24.67L34.75,45.43a1.49,1.49,0,0,0,1.94,0L61.18,24.55V52.17A1.81,1.81,0,0,1,59.38,54Z" />
  </g>
  <rect x="0.36" y="0.36" width="71.28" height="71.28" fill="none"/>
</svg>
