<svg xmlns="http://www.w3.org/2000/svg" viewBox="0 0 72 72">
  <g>
    <path d="M59.61,10.55H12.43a4.8,4.8,0,0,0-4.8,4.8V48.92a4.8,4.8,0,0,0,4.8,4.8H36v-3H12.43a1.8,1.8,0,0,1-1.8-1.8V21.46l24.3,20.72a1.49,1.49,0,0,0,1.94,0L61.41,21.25v16h3V15.35A4.8,4.8,0,0,0,59.61,10.55ZM35.9,39.07,10.63,17.52V15.35a1.81,1.81,0,0,1,1.8-1.8H59.61a1.81,1.81,0,0,1,1.8,1.8v2Z" />
    <path d="M66,59.8c-.14-.09-3.47-2.41-3.47-9.65,0,0-.11-4.19-.11-4.19a9.11,9.11,0,0,0-7.06-8.87,2,2,0,0,0-4,0,9.1,9.1,0,0,0-7.06,8.84s-.11,4.17-.11,4.22c0,7.24-3.33,9.56-3.46,9.65a1,1,0,0,0,.54,1.84h7.91a4.27,4.27,0,0,0,8.36,0h7.9a1,1,0,0,0,1-.71A1,1,0,0,0,66,59.8ZM53.39,63a2.27,2.27,0,0,1-2.1-1.39h4.19A2.26,2.26,0,0,1,53.39,63Zm-9.76-3.39C44.84,58,46.22,55,46.22,50.16c0-.15.11-4.18.11-4.2a7.06,7.06,0,1,1,14.11,0s.1,4,.11,4.17c0,4.83,1.38,7.8,2.59,9.49Z" />
  </g>
  <rect x="0.36" y="0.36" width="71.28" height="71.28" fill="none"/>
</svg>
