<svg xmlns="http://www.w3.org/2000/svg" viewBox="0 0 72 72">
  <g>
    <g>
      <path d="M43,32.45,41.2,34.26l5.57,5.57H31.59a1,1,0,1,0,0,1.92H46.79l-5.58,5.58L43,49.14l8.34-8.34Z" />
      <path d="M37.17,62.08,39,60.27,33.4,54.69H47.75a1,1,0,0,0,0-1.92H33.42L39,47.2l-1.81-1.81-8.35,8.35Z" />
    </g>
    <path d="M52.16,64.47H44.08v-3h8.08a1.18,1.18,0,0,0,1.18-1.19V11.46a1.18,1.18,0,0,0-1.18-1.18H19.76a1.18,1.18,0,0,0-1.18,1.18V60.28a1.18,1.18,0,0,0,1.18,1.19h8.68v3H19.76a4.19,4.19,0,0,1-4.18-4.19V11.46a4.18,4.18,0,0,1,4.18-4.18h32.4a4.18,4.18,0,0,1,4.18,4.18V60.28A4.19,4.19,0,0,1,52.16,64.47Z" />
    <path d="M41.05,18.64H30.86a1,1,0,0,1,0-2H41.05a1,1,0,0,1,0,2Z" />
    <path d="M41.05,25.71H30.86a1,1,0,0,1,0-2H41.05a1,1,0,0,1,0,2Z" />
  </g>
  <rect x="0.36" y="0.36" width="71.28" height="71.28" fill="none"/>
</svg>
