<?xml version="1.0" encoding="utf-8"?>
<!-- Generator: Adobe Illustrator 24.1.0, SVG Export Plug-In . SVG Version: 6.00 Build 0)  -->
<svg version="1.1" id="Layer_1" xmlns="http://www.w3.org/2000/svg" xmlns:xlink="http://www.w3.org/1999/xlink" x="0px" y="0px"
	 viewBox="0 0 72 72" style="enable-background:new 0 0 72 72;" xml:space="preserve">
<style type="text/css">
	.st0{fill:#808080;}
	.st1{fill:none;}
</style>
<g>
	<rect x="40.5" y="41.4" class="st0" width="15.9" height="2.6"/>
	<rect x="40.5" y="35.2" class="st0" width="15.9" height="2.6"/>
	<rect x="40.5" y="29.2" class="st0" width="15.9" height="2.6"/>
	<rect x="40.5" y="23" class="st0" width="15.9" height="2.6"/>
	<rect x="40.5" y="47.2" class="st0" width="15.9" height="2.6"/>
	<path class="st0" d="M60,11.8H11.3c-2.4,0-4.4,2-4.4,4.4v40.2c0,2.4,2,4.4,4.4,4.4H60c2.4,0,4.4-2,4.4-4.4V16.2
		C64.4,13.7,62.4,11.8,60,11.8z M60.9,56.3c0,0.5-0.4,0.9-0.9,0.9H11.3c0,0,0,0,0,0c-0.5,0-0.9-0.4-0.8-0.9V16.2c0,0,0,0,0,0
		c0-0.5,0.4-0.9,0.9-0.9H60c0.5,0,0.9,0.4,0.9,0.9V56.3z"/>
	<path class="st0" d="M35.4,23.1H21.9c-0.3,0-0.6,0.1-0.8,0.4c-0.2,0.2-6.8,6.2-6.8,6.2l0,0c0,0,0,0,0,0c-0.2,0.2-0.3,0.5-0.3,0.7
		v12c0,0.6,0.5,1.1,1.1,1.1h14.1c0.3,0,0.6-0.1,0.8-0.4c0,0,0-0.1,0.1-0.1c0.8-0.9,6-6.5,6.2-6.7c0.2-0.2,0.3-0.4,0.3-0.7V24.1
		C36.5,23.5,36,23.1,35.4,23.1z M22.2,25.2h10.5l-3.8,4.1H17.8L22.2,25.2z M28.1,41.3H16.2v-9.8h11.9V41.3z M30.2,39.6V31
		c1-1,2.8-3,4.2-4.5v8.6L30.2,39.6z"/>
</g>
<rect x="0.4" y="0.4" class="st1" width="71.3" height="71.3"/>
</svg>
