<svg xmlns="http://www.w3.org/2000/svg" viewBox="0 0 72 72">
  <g>
    <path d="M63.07,7.88h-38a1.49,1.49,0,0,0-1,.34L8.57,21a1.52,1.52,0,0,0-.51.84,1.49,1.49,0,0,0-.21.76V62a1.5,1.5,0,0,0,1.5,1.5H49.82a1.5,1.5,0,0,0,1.34-.84h0l13-14.39a1.52,1.52,0,0,0,.39-1V9.38A1.5,1.5,0,0,0,63.07,7.88Zm-37.43,3h34.1L49.42,21.13H13.18ZM48.32,60.51H10.85V24.13H48.32Zm3-2.49V23.47L61.57,13.29V46.68Z" />
    <g>
      <path d="M15.83,33.63h6.31a5.91,5.91,0,0,1,5,2.31,8.62,8.62,0,0,1,1.58,5.34,10.67,10.67,0,0,1-.94,4.55,5.73,5.73,0,0,1-5.65,3.58H15.83Zm5.89,14a5.68,5.68,0,0,0,1.74-.23,3.85,3.85,0,0,0,2-1.61,6.71,6.71,0,0,0,.89-2.45,10,10,0,0,0,.16-1.65,7.84,7.84,0,0,0-1.14-4.56,4.18,4.18,0,0,0-3.67-1.62H18V47.59Z" />
      <path d="M31.62,33.63h2.52L42,46.38V33.63h2V49.41h-2.4l-8-12.73V49.41h-2Z" />
    </g>
  </g>
  <rect x="0.36" y="0.36" width="71.28" height="71.28" fill="none"/>
</svg>
