<svg xmlns="http://www.w3.org/2000/svg" viewBox="0 0 72 72">
  <g>
    <path d="M53.36,62a1,1,0,0,1-.71-.3L39.54,48.61a1,1,0,0,1-.22-1.09,1,1,0,0,1,.92-.62l26.33-.1h0a1,1,0,0,1,.92.61,1,1,0,0,1-.22,1.09L54.06,61.72A1,1,0,0,1,53.36,62Z" />
    <path d="M60,10.75H12.79A4.81,4.81,0,0,0,8,15.55V49.12a4.81,4.81,0,0,0,4.81,4.8H36.4v-3H12.79A1.81,1.81,0,0,1,11,49.12V21.66l24.3,20.72a1.5,1.5,0,0,0,1.95,0L61.77,21.45v21h3V15.55A4.81,4.81,0,0,0,60,10.75ZM36.25,39.27,11,17.71V15.55a1.81,1.81,0,0,1,1.81-1.8H60a1.81,1.81,0,0,1,1.81,1.8v2Z" />
  </g>
  <rect x="0.36" y="0.36" width="71.28" height="71.28" fill="none"/>
</svg>
