<svg xmlns="http://www.w3.org/2000/svg" viewBox="0 0 72 72">
  <g>
    <path d="M59.69,10.75H12.52a4.81,4.81,0,0,0-4.81,4.8V49.12a4.81,4.81,0,0,0,4.81,4.8H36.13v-3H12.52a1.81,1.81,0,0,1-1.81-1.8V21.66L35,42.38a1.49,1.49,0,0,0,1.94,0L61.49,21.45v16h3V15.55A4.8,4.8,0,0,0,59.69,10.75ZM36,39.27,10.71,17.71V15.55a1.81,1.81,0,0,1,1.81-1.8H59.69a1.81,1.81,0,0,1,1.8,1.8v2Z" />
    <g>
      <rect x="40.9" y="42.22" width="24.75" height="3" />
      <rect x="40.9" y="50.93" width="24.75" height="3" />
      <rect x="40.9" y="59.98" width="24.75" height="3" />
    </g>
  </g>
  <rect x="0.36" y="0.36" width="71.28" height="71.28" fill="none"/>
</svg>
