<svg xmlns="http://www.w3.org/2000/svg" viewBox="0 0 72 72">
  <g>
    <path d="M36.45,14.7a8.37,8.37,0,0,0-8.25,6.88H7.27a1.5,1.5,0,0,0,0,3h3.1v5h3v-5h2.87v5h3v-5h8.91a8.37,8.37,0,1,0,8.23-9.88Zm0,13.63A5.32,5.32,0,1,1,41.83,23,5.36,5.36,0,0,1,36.45,28.33Z" />
    <path d="M52.39,23.85c.14-5.4.07-10.64-1.3-12.85H18.28a15.85,15.85,0,0,1,1.27,5.48l-2.5.13a11.13,11.13,0,0,0-1.89-6,1.25,1.25,0,0,1,.93-2.08H51.72a1.25,1.25,0,0,1,.93.42c2.13,2.41,2.44,7.32,2.24,15l-.31,9.83c-.26,11.41.3,22.78,6.15,28.63A1.27,1.27,0,0,1,61,63.73a1.25,1.25,0,0,1-1.16.77H24.22a1.29,1.29,0,0,1-.89-.36c-5.76-5.77-6.92-15.35-6.92-28.93h2.5c0,12.64,1,21.58,5.84,26.79H57.16c-4.84-6.79-5.33-17.56-5.08-28.32Z" />
  </g>
  <rect x="0.36" y="0.36" width="71.28" height="71.28" fill="none"/>
</svg>
