<svg xmlns="http://www.w3.org/2000/svg" viewBox="0 0 72 72">
  <g>
    <path d="M59.9,10.75H12.72a4.8,4.8,0,0,0-4.8,4.8V49.12a4.8,4.8,0,0,0,4.8,4.8H36.33v-3H12.72a1.81,1.81,0,0,1-1.8-1.8V21.66l24.3,20.72a1.49,1.49,0,0,0,1.94,0L61.7,21.45v16h3V15.55A4.81,4.81,0,0,0,59.9,10.75ZM36.19,39.27,10.92,17.71V15.55a1.81,1.81,0,0,1,1.8-1.8H59.9a1.81,1.81,0,0,1,1.8,1.8v2Z" />
    <path d="M62,49.19a5,5,0,1,0-5-5,5.27,5.27,0,0,0,.09.89l-9.25,3.69a5,5,0,1,0-.58,6.32L54.83,60a5,5,0,1,0,4.67-3.21,5,5,0,0,0-3.59,1.52l-7.59-4.9a4.8,4.8,0,0,0,.36-1.82,5,5,0,0,0-.1-1l9.24-3.69A5,5,0,0,0,62,49.19Zm-2.51,9.6a3,3,0,1,1-3,3A3,3,0,0,1,59.5,58.79ZM43.65,54.61a3,3,0,1,1,3-3A3,3,0,0,1,43.65,54.61ZM62,41.21a3,3,0,1,1-3,3A3,3,0,0,1,62,41.21Z" />
  </g>
  <rect x="0.36" y="0.36" width="71.28" height="71.28" fill="none"/>
</svg>
