<svg xmlns="http://www.w3.org/2000/svg" viewBox="0 0 72 72">
  <g>
    <path d="M52.12,13.61A12.47,12.47,0,0,0,39.8,24.1H7.65a2,2,0,1,0,0,4h4.73v6.38H17V28.1h4.37v6.38H26V28.1H39.83A12.47,12.47,0,1,0,52.12,13.61Zm0,20.77A8.39,8.39,0,1,1,60.61,26,8.44,8.44,0,0,1,52.12,34.38Z" />
    <path d="M22,57.21a1.65,1.65,0,0,1-1.17-.49l-6.44-6.44A1.65,1.65,0,1,1,16.69,48L22,53.22,34.29,40.89a1.65,1.65,0,0,1,2.33,2.34L23.12,56.72A1.65,1.65,0,0,1,22,57.21Z" />
  </g>
  <rect x="0.36" y="0.36" width="71.28" height="71.28" fill="none"/>
</svg>
