<svg xmlns="http://www.w3.org/2000/svg" viewBox="0 0 72 72">
  <g>
    <path d="M60.27,60.19H11.62a4.37,4.37,0,0,1-4.37-4.37V15.65a4.37,4.37,0,0,1,4.37-4.37H60.27a4.37,4.37,0,0,1,4.37,4.37V55.82A4.37,4.37,0,0,1,60.27,60.19ZM11.62,14.78a.87.87,0,0,0-.87.87V55.82a.87.87,0,0,0,.87.87H60.27a.87.87,0,0,0,.87-.87V15.65a.87.87,0,0,0-.87-.87Z" />
    <path d="M48.87,24.34A10,10,0,0,0,39,32.73H13.3a1.6,1.6,0,1,0,0,3.2h3.78V41h3.7V35.93h3.5V41H28V35.93H39a10,10,0,1,0,9.83-11.59Zm0,16.62a6.71,6.71,0,1,1,6.79-6.71A6.75,6.75,0,0,1,48.87,41Z" />
  </g>
  <rect x="0.36" y="0.36" width="71.28" height="71.28" fill="none"/>
</svg>
