<svg xmlns="http://www.w3.org/2000/svg" viewBox="0 0 72 72">
  <g>
    <path d="M44.19,30.32H26a.32.32,0,0,0-.28.19.29.29,0,0,0,.07.32L26.9,32a.32.32,0,0,0,.21.08H45.58a.29.29,0,0,0,.3-.3V25.59h7.25v17h2V38.68h9.79v-2H55.13v-5h9.79v-2H55.13V23.59H45.88V10.42a.3.3,0,0,0-.3-.3H24.28a.3.3,0,0,0-.3.3V29.07a.27.27,0,0,0,.09.21l1.1,1.11a.3.3,0,0,0,.21.09.27.27,0,0,0,.12,0,.28.28,0,0,0,.18-.27V11.79H44.19Z" />
    <polygon points="13.83 38.94 13.83 36.35 45.74 36.35 45.74 38.94 13.83 38.94 13.83 38.94" />
    <g>
      <polygon points="42 62.42 39.41 59.84 32.46 59.84 29.87 62.42 42 62.42" />
      <path d="M24.29,59.84H13.83v2.58H24.44A3,3,0,0,1,24.29,59.84Z" />
    </g>
    <g>
      <polygon points="36.3 56.72 35.93 56.36 35.57 56.72 36.3 56.72" />
      <polygon points="45.74 54.13 42.2 54.13 44.78 56.72 45.74 56.72 45.74 54.13" />
      <polygon points="29.67 54.13 13.83 54.13 13.83 56.72 27.09 56.72 29.67 54.13" />
    </g>
    <g>
      <polygon points="27.79 48.22 13.83 48.22 13.83 50.8 30.38 50.8 27.79 48.22" />
      <polygon points="45.74 50.8 45.74 48.22 44.07 48.22 41.49 50.8 45.74 50.8" />
    </g>
    <g>
      <polygon points="32.95 44.89 38.92 44.89 41.51 42.3 30.36 42.3 32.95 44.89" />
      <path d="M24.22,42.3H13.83v2.59H24.55A3,3,0,0,1,24.22,42.3Z" />
    </g>
    <path d="M38.05,52.12l7.82-7.82a1.5,1.5,0,1,0-2.12-2.12L35.93,50l-7.81-7.82a1.51,1.51,0,0,0-2.12,0,1.49,1.49,0,0,0,0,2.12l7.81,7.82L26,59.93a1.5,1.5,0,0,0,1.06,2.56,1.51,1.51,0,0,0,1.06-.44l7.81-7.81,7.82,7.81a1.49,1.49,0,0,0,1.06.44,1.5,1.5,0,0,0,1.06-2.56Z" />
    <circle cx="35.17" cy="21" r="3.08" />
  </g>
  <rect x="0.36" y="0.36" width="71.28" height="71.28" fill="none"/>
</svg>
