<svg xmlns="http://www.w3.org/2000/svg" viewBox="0 0 72 72">
  <g>
    <path d="M59.52,10.66H12.35a4.81,4.81,0,0,0-4.81,4.8V49a4.81,4.81,0,0,0,4.81,4.8H36v-3H12.35A1.81,1.81,0,0,1,10.54,49V21.56l24.3,20.73a1.5,1.5,0,0,0,1.95,0L61.33,21.36V38.82h3V15.46A4.81,4.81,0,0,0,59.52,10.66ZM35.81,39.17,10.54,17.62V15.46a1.81,1.81,0,0,1,1.81-1.8H59.52a1.81,1.81,0,0,1,1.81,1.8v2Z" />
    <g>
      <path d="M53,56.61A4.62,4.62,0,1,1,57.66,52,4.63,4.63,0,0,1,53,56.61ZM53,49a3,3,0,1,0,3,3A3,3,0,0,0,53,49Z" />
      <path d="M54.11,64.83H51.93a1.73,1.73,0,0,1-1.69-1.38l-.47-2.36c-.31-.11-.61-.24-.91-.38l-2,1.34a1.74,1.74,0,0,1-2.18-.21l-1.53-1.53a1.71,1.71,0,0,1-.22-2.16l1.35-2a9.81,9.81,0,0,1-.38-.91l-2.38-.47a1.72,1.72,0,0,1-1.38-1.68V50.92a1.71,1.71,0,0,1,1.38-1.68l2.38-.48c.11-.3.24-.61.38-.9l-1.35-2a1.71,1.71,0,0,1,.22-2.16l1.53-1.53a1.7,1.7,0,0,1,1.22-.5,1.82,1.82,0,0,1,1,.28l2,1.34a8.69,8.69,0,0,1,.91-.37l.47-2.37a1.72,1.72,0,0,1,1.69-1.38H54.1a1.72,1.72,0,0,1,1.69,1.38l.48,2.37a8.69,8.69,0,0,1,.91.37l2-1.34a1.77,1.77,0,0,1,1-.28,1.7,1.7,0,0,1,1.22.5l1.53,1.53a1.71,1.71,0,0,1,.22,2.16l-1.35,2a9.65,9.65,0,0,1,.38.9l2.38.48a1.71,1.71,0,0,1,1.38,1.68v2.16a1.72,1.72,0,0,1-1.38,1.68l-2.38.47c-.11.3-.24.61-.38.91l1.35,2a1.71,1.71,0,0,1-.22,2.16l-1.53,1.53a1.74,1.74,0,0,1-2.18.21l-2-1.34a9.81,9.81,0,0,1-.91.38l-.48,2.36A1.72,1.72,0,0,1,54.11,64.83Zm-2.06-1.74H54l.47-2.51a1.74,1.74,0,0,1,1.11-1.28,6.43,6.43,0,0,0,.84-.34,1.73,1.73,0,0,1,1.69.11l2.1,1.43,1.37-1.37-1.43-2.08A1.69,1.69,0,0,1,60,55.37a8.58,8.58,0,0,0,.35-.83,1.69,1.69,0,0,1,1.27-1.11h0L64.16,53V51l-2.52-.46a1.69,1.69,0,0,1-1.27-1.11c-.1-.27-.21-.54-.35-.83A1.71,1.71,0,0,1,60.13,47l1.48-2.12-1.38-1.37L58.1,44.93a1.73,1.73,0,0,1-1.69.11,7.76,7.76,0,0,0-.84-.34,1.72,1.72,0,0,1-1.11-1.27L54,40.76H52.05l-.47,2.66a1.72,1.72,0,0,1-1.11,1.28,7.39,7.39,0,0,0-.84.34,1.76,1.76,0,0,1-1.69-.11l-2.12-1.46-1.37,1.37L45.91,47A1.71,1.71,0,0,1,46,48.63a8.58,8.58,0,0,0-.35.83,1.72,1.72,0,0,1-1.28,1.11L41.67,51V53l2.73.47a1.72,1.72,0,0,1,1.28,1.11,8.21,8.21,0,0,0,.35.83,1.71,1.71,0,0,1-.12,1.68l-1.43,2.08,1.38,1.36,2.08-1.42a1.75,1.75,0,0,1,1.7-.11,6.58,6.58,0,0,0,.83.34,1.7,1.7,0,0,1,1.11,1.27Z" />
    </g>
  </g>
  <rect x="0.36" y="0.36" width="71.28" height="71.28" fill="none"/>
</svg>
