<svg xmlns="http://www.w3.org/2000/svg" viewBox="0 0 72 72">
  <g>
    <path d="M36.45,15a8.37,8.37,0,0,0-8.25,6.88H7.27a1.5,1.5,0,0,0,0,3h3.1v5h3v-5h2.87v5h3v-5h8.91A8.37,8.37,0,1,0,36.45,15Zm0,13.63a5.32,5.32,0,1,1,5.38-5.32A5.36,5.36,0,0,1,36.45,28.58Z" />
    <path d="M65,23.82a1.29,1.29,0,0,0,.36-.89A1.25,1.25,0,0,0,65,22l-4.82-4.69a1.25,1.25,0,0,0-1.76,0l-3.47,3.49c0-5.79-.48-9.64-2.29-11.68a1.25,1.25,0,0,0-.93-.42H16.09a1.25,1.25,0,0,0-.93,2.08,11.13,11.13,0,0,1,1.89,6l2.5-.13a15.85,15.85,0,0,0-1.27-5.48H51.09c1.31,2.11,1.43,7,1.32,12.15L30.83,45.1a1.31,1.31,0,0,0-.26.4l-3.39,8.08a1.25,1.25,0,0,0,1.15,1.74,1.18,1.18,0,0,0,.48-.1L37,51.84a1.2,1.2,0,0,0,.41-.28L52,36.87c-.08,9.75.73,19.2,5.12,25.38H24.75C19.9,57,18.91,48.1,18.91,35.46h-2.5c0,13.58,1.16,23.16,6.92,28.93a1.29,1.29,0,0,0,.89.36H59.84A1.25,1.25,0,0,0,61,64a1.27,1.27,0,0,0-.27-1.36c-5.8-5.79-6.4-17-6.15-28.3ZM35.84,49.62l-5.19,2.14,2.13-5.07L59,20.33l3,3Z" />
  </g>
  <rect x="0.36" y="0.36" width="71.28" height="71.28" fill="none"/>
</svg>
