<svg xmlns="http://www.w3.org/2000/svg" viewBox="0 0 72 72">
  <g>
    <path d="M52.06,60.12A1.75,1.75,0,0,1,51,57,25.52,25.52,0,0,0,61.58,36.33a1.75,1.75,0,0,1,3.5,0,29,29,0,0,1-12,23.45A1.71,1.71,0,0,1,52.06,60.12Z" />
    <path d="M62.93,33.43A1.74,1.74,0,0,1,61.21,32a25.22,25.22,0,0,0-2.7-7.76,1.75,1.75,0,0,1,3.07-1.67,28.37,28.37,0,0,1,3.07,8.83,1.75,1.75,0,0,1-1.42,2Z" />
    <path d="M55.68,18.94a1.49,1.49,0,0,1-1.08-.46,25.46,25.46,0,0,0-18.44-7.81,1.5,1.5,0,0,1,0-3,28.44,28.44,0,0,1,20.6,8.73,1.5,1.5,0,0,1,0,2.12A1.48,1.48,0,0,1,55.68,18.94Z" />
    <path d="M21.53,15.2A1.75,1.75,0,0,1,20.59,12a28.78,28.78,0,0,1,9-3.8,1.74,1.74,0,0,1,2.1,1.3,1.76,1.76,0,0,1-1.3,2.11,25.17,25.17,0,0,0-7.86,3.34A1.73,1.73,0,0,1,21.53,15.2Z" />
    <path d="M10.42,29.46a1.75,1.75,0,0,1-1.66-2.3,29.13,29.13,0,0,1,6.49-10.78,1.75,1.75,0,1,1,2.53,2.42,25.5,25.5,0,0,0-5.7,9.46A1.73,1.73,0,0,1,10.42,29.46Z" />
    <path d="M11.72,49.49a1.49,1.49,0,0,1-1.35-.86A28.57,28.57,0,0,1,7.67,34a1.5,1.5,0,1,1,3,.24,25.7,25.7,0,0,0,2.41,13.09,1.5,1.5,0,0,1-1.35,2.15Z" />
    <path d="M17.39,57.59a1.51,1.51,0,0,1-1-.41,28.56,28.56,0,0,1-3-3.37A1.5,1.5,0,1,1,15.7,52a25.94,25.94,0,0,0,2.72,3,1.5,1.5,0,0,1-1,2.59Z" />
    <path d="M17.7,44A1.74,1.74,0,0,1,16,42.74a20.89,20.89,0,0,1-1-6.38A21.13,21.13,0,0,1,36.16,15.25a1.75,1.75,0,0,1,0,3.5A17.62,17.62,0,0,0,19.37,41.68a1.76,1.76,0,0,1-1.14,2.2A1.89,1.89,0,0,1,17.7,44Z" />
    <path d="M24.08,62.46a2.43,2.43,0,0,1-.38,0,1.77,1.77,0,0,1-1.34-2.09c1.34-6.17-1.2-9.08-2.15-10.17L20,50a1.75,1.75,0,1,1,2.67-2.26l.13.15c3.09,3.53,4.08,8,2.94,13.21A1.74,1.74,0,0,1,24.08,62.46Z" />
    <path d="M44,62.36H43.8a1.75,1.75,0,0,1-1.57-1.91c.62-6.61,3.31-9,5.47-10.84a16.71,16.71,0,0,0,1.35-1.27,1.75,1.75,0,1,1,2.56,2.39A20.6,20.6,0,0,1,50,52.24c-2,1.71-3.8,3.32-4.29,8.54A1.75,1.75,0,0,1,44,62.36Z" />
    <path d="M54.08,45.42a1.72,1.72,0,0,1-.66-.13,1.76,1.76,0,0,1-1-2.28,17.36,17.36,0,0,0,1.3-6.65A17.54,17.54,0,0,0,44.21,20.7a1.75,1.75,0,1,1,1.6-3.12A21.13,21.13,0,0,1,55.7,44.33,1.74,1.74,0,0,1,54.08,45.42Z" />
    <path d="M43.25,47.48a1.5,1.5,0,0,1-.92-2.69,10.21,10.21,0,0,0,3.84-6.31,10,10,0,0,0-1-6.44,1.5,1.5,0,0,1,2.68-1.37,13.25,13.25,0,0,1-3.73,16.5A1.47,1.47,0,0,1,43.25,47.48Z" />
    <path d="M28.79,29.08a1.52,1.52,0,0,1-1.17-.55,1.5,1.5,0,0,1,.23-2.11,13.22,13.22,0,0,1,8.31-3A13,13,0,0,1,42,24.85a1.5,1.5,0,1,1-1.33,2.68,10.21,10.21,0,0,0-11,1.22A1.5,1.5,0,0,1,28.79,29.08Z" />
    <path d="M30.8,64.22a1.57,1.57,0,0,1-.72-.18,1.5,1.5,0,0,1-.59-2c3-5.46,1.79-11.48-1-14.6l-.21-.24c-2.5-2.8-5.33-6-5.33-10.47a13.29,13.29,0,0,1,1-5.14,1.5,1.5,0,1,1,2.77,1.17,10.17,10.17,0,0,0-.8,4c0,3.35,2.22,5.84,4.57,8.47l.21.24c3.39,3.8,5.27,11.07,1.39,18.05A1.5,1.5,0,0,1,30.8,64.22Z" />
    <path d="M37.74,64.22a1.59,1.59,0,0,1-.43-.06,1.5,1.5,0,0,1-1-1.87c3.89-12.88.41-16.76-.91-18.22A14.37,14.37,0,0,0,34.23,43c-1.65-1.48-3.9-3.5-3.9-6.37A6,6,0,0,1,36,30.77a5.21,5.21,0,0,1,4.1,1.33c1.55,1.44,2.33,3.93,2.31,7.4v.11a1.5,1.5,0,0,1-3,0v-.12c0-3.24-.72-4.61-1.35-5.2a2.22,2.22,0,0,0-1.82-.53,3,3,0,0,0-3,2.84c0,1.53,1.54,2.91,2.9,4.13a18.25,18.25,0,0,1,1.4,1.34c2.54,2.83,5.46,8.09,1.54,21.09A1.48,1.48,0,0,1,37.74,64.22Z" />
  </g>
  <rect x="0.36" y="0.36" width="71.28" height="71.28" fill="none"/>
</svg>
