<svg xmlns="http://www.w3.org/2000/svg" viewBox="0 0 72 72">
  <g>
    <polygon points="32.29 41.67 29.61 39 25.44 43.18 21.26 39 18.59 41.67 22.77 45.85 18.59 50.02 21.26 52.7 25.44 48.52 29.61 52.7 32.29 50.02 28.11 45.85 32.29 41.67" />
    <polygon points="45.02 52.24 38.43 45.65 41.1 42.98 45.02 46.9 53.46 38.47 56.13 41.14 45.02 52.24" />
    <path d="M53.26,6.87H18.7c-5.71,0-9.55,3.82-9.55,9.5V54.43c0,5.68,3.84,9.5,9.55,9.5H53.26c5.71,0,9.55-3.82,9.55-9.5V16.37C62.81,10.69,59,6.87,53.26,6.87Zm-34.56,3H53.26c4,0,6.55,2.49,6.55,6.5V31H12.15V16.37C12.15,12.36,14.66,9.87,18.7,9.87ZM53.26,60.93H18.7c-4,0-6.55-2.49-6.55-6.5V33H59.81V54.43C59.81,58.44,57.3,60.93,53.26,60.93Z" />
  </g>
  <rect x="0.36" y="0.36" width="71.28" height="71.28" fill="none"/>
</svg>
