<svg xmlns="http://www.w3.org/2000/svg" viewBox="0 0 72 72">
  <g>
    <polygon points="17.83 38.94 17.83 36.35 49.74 36.35 49.74 38.94 17.83 38.94 17.83 38.94" />
    <path d="M52.54,9.55A12.45,12.45,0,0,0,40.22,20H8.07a2,2,0,0,0,0,4H12.8v6.39h4.62V24H21.8v6.39h4.62V24H40.25A12.47,12.47,0,1,0,52.54,9.55Zm0,20.77A8.39,8.39,0,1,1,61,21.93,8.45,8.45,0,0,1,52.54,30.32Z" />
    <g>
      <polygon points="46 62.42 43.41 59.84 36.46 59.84 33.87 62.42 46 62.42" />
      <path d="M28.29,59.84H17.83v2.58H28.44A3,3,0,0,1,28.29,59.84Z" />
    </g>
    <g>
      <polygon points="40.3 56.72 39.93 56.36 39.57 56.72 40.3 56.72" />
      <polygon points="49.74 54.13 46.2 54.13 48.78 56.72 49.74 56.72 49.74 54.13" />
      <polygon points="33.67 54.13 17.83 54.13 17.83 56.72 31.09 56.72 33.67 54.13" />
    </g>
    <g>
      <polygon points="31.79 48.22 17.83 48.22 17.83 50.8 34.38 50.8 31.79 48.22" />
      <polygon points="49.74 50.8 49.74 48.22 48.07 48.22 45.49 50.8 49.74 50.8" />
    </g>
    <g>
      <polygon points="36.95 44.89 42.92 44.89 45.51 42.3 34.36 42.3 36.95 44.89" />
      <path d="M28.22,42.3H17.83v2.59H28.55A3,3,0,0,1,28.22,42.3Z" />
    </g>
    <path d="M42.05,52.12l7.82-7.82a1.5,1.5,0,1,0-2.12-2.12L39.93,50l-7.81-7.82a1.51,1.51,0,0,0-2.12,0,1.49,1.49,0,0,0,0,2.12l7.81,7.82L30,59.93a1.5,1.5,0,0,0,1.06,2.56,1.51,1.51,0,0,0,1.06-.44l7.81-7.81,7.82,7.81a1.49,1.49,0,0,0,1.06.44,1.5,1.5,0,0,0,1.06-2.56Z" />
  </g>
  <rect x="0.36" y="0.36" width="71.28" height="71.28" fill="none"/>
</svg>
