<svg xmlns="http://www.w3.org/2000/svg" viewBox="0 0 72 72">
  <g>
    <path d="M40.37,17.82H30.18a1,1,0,0,1,0-2H40.37a1,1,0,0,1,0,2Z" />
    <path d="M40.37,24.89H30.18a1,1,0,0,1,0-2H40.37a1,1,0,0,1,0,2Z" />
    <path d="M35.41,34.53A12.75,12.75,0,1,0,48.16,47.28,12.76,12.76,0,0,0,35.41,34.53ZM24,47.8h4.68a23.47,23.47,0,0,0,.6,4.84H25.36A11.35,11.35,0,0,1,24,47.8Zm12.06-7.2V36c1.47.42,2.78,2.15,3.63,4.62Zm4,1.35a21.51,21.51,0,0,1,.63,4.5H36.09V42Zm-5.39-6V40.6H31.11C32,38.13,33.27,36.4,34.74,36Zm0,6v4.5H30.07A21.51,21.51,0,0,1,30.7,42Zm-6,4.5H24.05a11.23,11.23,0,0,1,1.3-4.5H29.3A22.38,22.38,0,0,0,28.72,46.45Zm1.34,1.35h4.68v4.84h-4A21.44,21.44,0,0,1,30.06,47.8ZM34.74,54v4.58C33.27,58.16,32,56.44,31.12,54Zm1.35,4.58V54h3.62C38.86,56.44,37.55,58.16,36.09,58.57Zm0-5.93V47.8h4.68a21.44,21.44,0,0,1-.65,4.84Zm6-4.84h4.67a11.34,11.34,0,0,1-1.32,4.84H41.52A23.47,23.47,0,0,0,42.12,47.8Zm0-1.35a23.12,23.12,0,0,0-.58-4.5h3.95a11.22,11.22,0,0,1,1.29,4.5Zm2.53-5.85H41.16A12.33,12.33,0,0,0,39,36.47,11.47,11.47,0,0,1,44.64,40.6ZM31.81,36.47a12.33,12.33,0,0,0-2.14,4.13H26.19A11.47,11.47,0,0,1,31.81,36.47ZM26.21,54h3.47a12.17,12.17,0,0,0,2.13,4.1A11.53,11.53,0,0,1,26.21,54ZM39,58.09A12.54,12.54,0,0,0,41.15,54h3.47A11.53,11.53,0,0,1,39,58.09Z" />
    <path d="M51.7,64.52H43.62v-3H51.7a1.18,1.18,0,0,0,1.18-1.18V11.52a1.18,1.18,0,0,0-1.18-1.19H19.3a1.18,1.18,0,0,0-1.18,1.19V60.34a1.18,1.18,0,0,0,1.18,1.18H28v3H19.3a4.18,4.18,0,0,1-4.18-4.18V11.52A4.19,4.19,0,0,1,19.3,7.33H51.7a4.19,4.19,0,0,1,4.18,4.19V60.34A4.19,4.19,0,0,1,51.7,64.52Z" />
  </g>
  <rect x="0.36" y="0.36" width="71.28" height="71.28" fill="none"/>
</svg>
