<svg xmlns="http://www.w3.org/2000/svg" viewBox="0 0 72 72">
  <g>
    <path d="M40.65,17.82H30.46a1,1,0,0,1,0-2H40.65a1,1,0,0,1,0,2Z" />
    <path d="M40.65,24.89H30.46a1,1,0,0,1,0-2H40.65a1,1,0,0,1,0,2Z" />
    <path d="M47.21,35.25H40.9a.5.5,0,0,0-.5.5v2.1h-2v-2.1a.5.5,0,0,0-.5-.5H31.57a.5.5,0,0,0-.5.5v2.1H26a.5.5,0,0,0-.5.5v6.26H22.84a.5.5,0,0,0-.5.5v5.1a.5.5,0,0,0,.5.5h2.65v.43H24.27v1h3.42v-1h-1.2v-.43h2.66a.5.5,0,0,0,.5-.5V48.3h2.76v7.1a.75.75,0,0,0,.75.75H38.7v1.18H36.06v1.5h6.75v-1.5H40.2V56.15h5.57a.75.75,0,0,0,.75-.75V45.21a.74.74,0,0,0-.75-.75H33.16a.74.74,0,0,0-.75.75V47.3H29.65V45.11a.51.51,0,0,0-.5-.5H26.46V38.85h4.61v2a.5.5,0,0,0,.5.5h2.65v.43H33v1h3.42v-1h-1.2v-.43h2.66a.5.5,0,0,0,.5-.5v-2h2v2a.5.5,0,0,0,.5.5h2.65v.43H42.33v1h3.42v-1h-1.2v-.43h2.66a.5.5,0,0,0,.5-.5v-5.1A.51.51,0,0,0,47.21,35.25ZM33.91,46H45v8.69H33.91Zm-5.26,3.75H23.34v-4.1h5.31Zm8.73-9.36H32.07v-4.1h5.31Zm9.33,0H41.4v-4.1h5.31Z" />
    <path d="M52.18,64.52H44.11v-3h8.07a1.18,1.18,0,0,0,1.19-1.18V11.52a1.19,1.19,0,0,0-1.19-1.19H19.79a1.19,1.19,0,0,0-1.19,1.19V60.34a1.18,1.18,0,0,0,1.19,1.18h8.68v3H19.79a4.19,4.19,0,0,1-4.19-4.18V11.52a4.2,4.2,0,0,1,4.19-4.19H52.18a4.2,4.2,0,0,1,4.19,4.19V60.34A4.19,4.19,0,0,1,52.18,64.52Z" />
  </g>
  <rect x="0.36" y="0.36" width="71.28" height="71.28" fill="none"/>
</svg>
