<svg xmlns="http://www.w3.org/2000/svg" viewBox="0 0 72 72">
  <g>
    <path d="M61.09,8.71a2,2,0,0,0-2,2v8.88A29,29,0,0,0,56,15.86,28.4,28.4,0,0,0,26.46,9.2,28.08,28.08,0,0,0,7.89,35.78a2,2,0,0,0,2,2h0a2,2,0,0,0,2-2A24,24,0,0,1,27.81,13a24.36,24.36,0,0,1,25.34,5.72,25.15,25.15,0,0,1,3.23,4H46.91a2,2,0,0,0,0,4H61.09a2,2,0,0,0,2-2v-14A2,2,0,0,0,61.09,8.71Z" />
    <path d="M62,33.77h0a2,2,0,0,0-2,2A24.06,24.06,0,0,1,44,58.56a24.36,24.36,0,0,1-25.34-5.72,24.71,24.71,0,0,1-3.23-4h9.48a2,2,0,0,0,0-4H10.75a2,2,0,0,0-2,2v14a2,2,0,0,0,4,0V52a29.62,29.62,0,0,0,3.11,3.72A28.48,28.48,0,0,0,36,64a28,28,0,0,0,28-28.2A2,2,0,0,0,62,33.77Z" />
    <path d="M36,25.83l2.2,6.83h7l-5.64,4.09,2.21,6.78L36,39.36l-5.75,4.2,2.21-6.8-5.7-4.11h7L36,25.83m0-2a2,2,0,0,0-1.9,1.38l-1.76,5.44h-5.6a2,2,0,0,0-1.17,3.62l4.51,3.26L28.3,42.94A2,2,0,0,0,29,45.18a2,2,0,0,0,1.18.38,2,2,0,0,0,1.18-.39L36,41.83l4.59,3.33a2,2,0,0,0,1.18.38,2,2,0,0,0,1.17-.38,2,2,0,0,0,.73-2.23l-1.76-5.4,4.47-3.24a2,2,0,0,0-1.17-3.62H39.63l-1.76-5.45A2,2,0,0,0,36,23.83Z" />
  </g>
  <rect x="0.36" y="0.36" width="71.28" height="71.28" fill="none"/>
</svg>
