<svg xmlns="http://www.w3.org/2000/svg" viewBox="0 0 72 72">
  <title>1-icons_expanded_2</title>
  <g>
    <path d="M25.78,11H23.37a12.83,12.83,0,0,0,0,25.66l2.41,0a3.58,3.58,0,0,0,3.82-3.8V14.83A3.58,3.58,0,0,0,25.78,11ZM18.27,28.91l-4.56-4.56,1.68-1.67,2.88,2.88,7-7,1.68,1.67Z" />
    <path d="M60.37,28H47.14a19.45,19.45,0,0,0-3.43.32v-17A6.43,6.43,0,0,0,36.9,4.53H23.67a19.32,19.32,0,0,0,0,38.64l4.6,0A19.31,19.31,0,0,0,47.13,66.64l13.24,0h0a6.44,6.44,0,0,0,6.81-6.79V34.78A6.43,6.43,0,0,0,60.37,28ZM23.67,40.17a16.32,16.32,0,0,1,0-32.64H36.9a3.48,3.48,0,0,1,3.81,3.78V29.12A19.36,19.36,0,0,0,29.2,40.19ZM64.18,59.89a3.5,3.5,0,0,1-3.81,3.79l-13.23,0a16.32,16.32,0,0,1,0-32.64H60.37a3.48,3.48,0,0,1,3.81,3.78Z" />
    <path d="M49.24,34.49h-2.4a12.83,12.83,0,0,0,0,25.66l2.4,0a3.57,3.57,0,0,0,3.82-3.8V38.3A3.58,3.58,0,0,0,49.24,34.49Zm-7.5,17.89-4.56-4.56,1.67-1.68L41.74,49l7-7,1.68,1.68Z" />
    <path d="M21.15,47.28H10.71a4,4,0,0,0-4,4V61.72a4,4,0,0,0,4,4H21.15a4,4,0,0,0,4-4V51.28A4,4,0,0,0,21.15,47.28Zm-.93,15.5H11.61l4.45-5.39c.44-.54.8-1,1.1-1.39s.52-.73.67-1a2.76,2.76,0,0,0,.48-1.4,2,2,0,0,0-.63-1.51,2.17,2.17,0,0,0-1.56-.6c-1.3,0-2,.76-2.23,2.3H12q.46-4,4.09-4A4.14,4.14,0,0,1,19,50.86a3.63,3.63,0,0,1,1.19,2.75,4.22,4.22,0,0,1-.55,2.06,11.59,11.59,0,0,1-.83,1.24c-.36.47-.82,1-1.37,1.69l-2,2.36h4.78Z" />
  </g>
  <rect x="0.36" y="0.36" width="71.28" height="71.28" fill="none"/>
</svg>
