<svg xmlns="http://www.w3.org/2000/svg" viewBox="0 0 72 72">
  <g>
    <path d="M25.78,11.36H23.37a12.83,12.83,0,0,0,0,25.66l2.41,0a3.59,3.59,0,0,0,3.82-3.81V15.16A3.58,3.58,0,0,0,25.78,11.36ZM18.27,29.25l-4.56-4.56L15.39,23l2.88,2.88,7-7,1.68,1.68Z" />
    <path d="M60.37,28.33H47.14a19.45,19.45,0,0,0-3.43.32v-17A6.43,6.43,0,0,0,36.9,4.86H23.67a19.32,19.32,0,0,0,0,38.64h4.6A19.31,19.31,0,0,0,47.13,67l13.24,0h0a6.44,6.44,0,0,0,6.81-6.78V35.11A6.44,6.44,0,0,0,60.37,28.33ZM23.67,40.51a16.32,16.32,0,0,1,0-32.64H36.9a3.49,3.49,0,0,1,3.81,3.79v17.8A19.38,19.38,0,0,0,29.2,40.52ZM64.18,60.23A3.49,3.49,0,0,1,60.37,64L47.14,64a16.32,16.32,0,0,1,0-32.64H60.37a3.48,3.48,0,0,1,3.81,3.78Z" />
    <path d="M49.24,34.83h-2.4a12.83,12.83,0,0,0,0,25.66l2.4,0a3.57,3.57,0,0,0,3.82-3.8V38.63A3.57,3.57,0,0,0,49.24,34.83Zm-7.5,17.88-4.56-4.56,1.67-1.67,2.89,2.88,7-7,1.68,1.67Z" />
  </g>
  <rect x="0.36" y="0.36" width="71.28" height="71.28" fill="none"/>
</svg>
