<svg xmlns="http://www.w3.org/2000/svg" viewBox="0 0 72 72">
  <g>
    <path d="M48.86,21.82H46a15.4,15.4,0,0,0,0,30.79l2.88,0a4.3,4.3,0,0,0,4.59-4.56V26.38A4.29,4.29,0,0,0,48.86,21.82Zm-9,21.46-5.48-5.47,2-2,3.46,3.46,8.35-8.36,2,2Z" />
    <path d="M51.25,7.77h-31c-5.71,0-9.55,3.81-9.55,9.5V55.32c0,5.69,3.84,9.51,9.55,9.51h31c5.71,0,9.54-3.82,9.54-9.51v-38C60.79,11.58,57,7.77,51.25,7.77Zm6.54,47.55c0,4-2.5,6.51-6.54,6.51h-31c-4,0-6.55-2.5-6.55-6.51V51.55a2.26,2.26,0,0,0,.58.09H16.7a2,2,0,1,0,0-4H14.32a1.91,1.91,0,0,0-.58.1V38.05a2.26,2.26,0,0,0,.58.09H16.7a2,2,0,1,0,0-4H14.32a1.91,1.91,0,0,0-.58.1V24.55a2.26,2.26,0,0,0,.58.09H16.7a2,2,0,1,0,0-4H14.32a1.91,1.91,0,0,0-.58.1V17.27c0-4,2.51-6.5,6.55-6.5h31c4,0,6.54,2.49,6.54,6.5Z" />
  </g>
  <rect x="0.36" y="0.36" width="71.28" height="71.28" fill="none"/>
</svg>
