<svg xmlns="http://www.w3.org/2000/svg" viewBox="0 0 72 72">
  <g>
    <path d="M41,17.82H30.82a1,1,0,0,1,0-2H41a1,1,0,0,1,0,2Z" />
    <path d="M41,24.89H30.82a1,1,0,0,1,0-2H41a1,1,0,1,1,0,2Z" />
    <path d="M46.18,38.63,36.12,35.56a.81.81,0,0,0-.38,0L25.67,38.63a.65.65,0,0,0-.45.68l.88,9.27a31.2,31.2,0,0,0,.74,4.28c.51,1.88,3.27,4.17,8.44,7l.33.18a.68.68,0,0,0,.64,0l.32-.18c5.18-2.81,7.94-5.1,8.45-7a30.75,30.75,0,0,0,.74-4.3l.88-9.25A.65.65,0,0,0,46.18,38.63ZM35.93,36.86l9.37,2.85-.15,1.62H26.71l-.16-1.62Zm7.84,15.66c-.28,1-1.86,2.95-7.81,6.18l0,0,0,0c-6-3.23-7.54-5.14-7.81-6.18a28.43,28.43,0,0,1-.71-4.08l-.22-2.37H44.7l-.22,2.35A31.37,31.37,0,0,1,43.77,52.52Z" />
    <path d="M52.3,64.52H44.23v-3H52.3a1.18,1.18,0,0,0,1.19-1.18V11.52a1.19,1.19,0,0,0-1.19-1.19H19.91a1.19,1.19,0,0,0-1.19,1.19V60.34a1.18,1.18,0,0,0,1.19,1.18h8.68v3H19.91a4.19,4.19,0,0,1-4.19-4.18V11.52a4.2,4.2,0,0,1,4.19-4.19H52.3a4.2,4.2,0,0,1,4.19,4.19V60.34A4.19,4.19,0,0,1,52.3,64.52Z" />
  </g>
  <rect x="0.36" y="0.36" width="71.28" height="71.28" fill="none"/>
</svg>
