<svg xmlns="http://www.w3.org/2000/svg" viewBox="0 0 72 72">
  <g>
    <path d="M59,18.67H55V14.61a3.46,3.46,0,0,0-3.45-3.45H47.46v-4A3.45,3.45,0,0,0,44,3.66H11.88A3.44,3.44,0,0,0,8.44,7.11v41.8a3.45,3.45,0,0,0,3.44,3.45h4.06v4.06a3.46,3.46,0,0,0,3.45,3.45h4.06v4.05a3.45,3.45,0,0,0,3.45,3.45H47.56a3.44,3.44,0,0,0,2.34-.91L61.37,55.9a3.49,3.49,0,0,0,1.11-2.54V22.12A3.46,3.46,0,0,0,59,18.67ZM11.88,49.39a.48.48,0,0,1-.47-.48V7.11a.47.47,0,0,1,.47-.48H44a.47.47,0,0,1,.48.48v4.05H19.39a3.46,3.46,0,0,0-3.45,3.45V49.39Zm7.51,7.5a.48.48,0,0,1-.48-.47V14.61a.49.49,0,0,1,.48-.48H51.52a.48.48,0,0,1,.48.48v4.06H26.9a3.46,3.46,0,0,0-3.45,3.45V56.89Zm7,7V22.12a.49.49,0,0,1,.48-.48H59a.49.49,0,0,1,.48.48V51.66H49a3,3,0,0,0-3,3V64.4H26.9A.48.48,0,0,1,26.42,63.92ZM48,64.17V54.63a1,1,0,0,1,1-1H59.39l0,.06Z" />
    <g>
      <path d="M51.07,46.6H34.37a3.92,3.92,0,0,1-3.44-2A3.57,3.57,0,0,1,31,41l8.35-14.27a4,4,0,0,1,6.75,0L54.45,41a3.55,3.55,0,0,1,.07,3.63A3.93,3.93,0,0,1,51.07,46.6ZM42.72,26.48a2.3,2.3,0,0,0-2,1.07L32.39,41.81v0a1.94,1.94,0,0,0,0,2,2.29,2.29,0,0,0,2,1.14h16.7a2.29,2.29,0,0,0,2-1.14,1.94,1.94,0,0,0,0-2L44.7,27.54A2.28,2.28,0,0,0,42.72,26.48Zm-11,14.93h0Z" />
      <rect x="41.86" y="30.27" width="1.62" height="9.1" />
      <rect x="41.86" y="41.12" width="1.62" height="1.97" />
    </g>
  </g>
  <rect x="0.36" y="0.36" width="71.28" height="71.28" fill="none"/>
</svg>
