<svg xmlns="http://www.w3.org/2000/svg" viewBox="0 0 72 72">
  <g>
    <polygon points="26.64 25.36 42.16 41.6 42.16 26.81 45.37 26.81 45.37 49.38 29.85 33.19 29.85 48.09 26.64 48.09 26.64 25.36" />
    <path d="M62.34,13.07,36.62,5.22a1.74,1.74,0,0,0-1,0L9.94,13.07A1.63,1.63,0,0,0,8.78,14.8L11,38.47a78.63,78.63,0,0,0,1.9,11c1.29,4.82,8.35,10.65,21.56,17.83.38.21.67.36.85.47a1.66,1.66,0,0,0,.81.21,1.72,1.72,0,0,0,.82-.21c.17-.11.46-.26.83-.47,13.22-7.18,20.28-13,21.58-17.83a81.39,81.39,0,0,0,1.9-11L63.51,14.8A1.65,1.65,0,0,0,62.34,13.07ZM58,38.08a76.8,76.8,0,0,1-1.81,10.48c-.71,2.65-4.75,7.53-20,15.8l-.08,0-.08-.05c-15.21-8.26-19.25-13.15-20-15.79a77.46,77.46,0,0,1-1.8-10.44L12.4,18.91H59.89Z" />
  </g>
  <rect x="0.36" y="0.36" width="71.28" height="71.28" fill="none"/>
</svg>
