<svg xmlns="http://www.w3.org/2000/svg" viewBox="0 0 72 72">
  <g>
    <path d="M62.18,13.07,36.45,5.22a1.74,1.74,0,0,0-1,0L9.77,13.07A1.63,1.63,0,0,0,8.61,14.8l2.24,23.67a80.17,80.17,0,0,0,1.9,11C14,54.24,21.1,60.07,34.32,67.25l.84.47a1.66,1.66,0,0,0,.81.21,1.7,1.7,0,0,0,.82-.21l.84-.47c13.22-7.18,20.27-13,21.57-17.83a79.82,79.82,0,0,0,1.9-11L63.34,14.8A1.64,1.64,0,0,0,62.18,13.07Zm-32-1.16,9.42,9.86v-9h2V26.5L32.1,16.66v9.05h-2ZM56,48.56c-.71,2.65-4.75,7.53-20,15.8l-.08,0-.08-.05c-15.2-8.26-19.24-13.15-20-15.79a77.46,77.46,0,0,1-1.8-10.44l-.75-8.21H58.67l-.85,8.17A75.26,75.26,0,0,1,56,48.56Z" />
    <path d="M46.78,54h-15a9.44,9.44,0,0,1,0-18.87h15v2.18h-15a7.26,7.26,0,0,0,0,14.51h15Z" />
    <circle cx="31.41" cy="44.57" r="1.96" />
    <circle cx="44.49" cy="44.57" r="1.96" />
    <circle cx="37.92" cy="44.57" r="1.96" />
  </g>
  <rect x="0.36" y="0.36" width="71.28" height="71.28" fill="none"/>
</svg>
