<svg xmlns="http://www.w3.org/2000/svg" viewBox="0 0 72 72">
  <g>
    <path d="M48.86,21.48H46a15.4,15.4,0,0,0,0,30.8l2.88,0a4.3,4.3,0,0,0,4.59-4.56V26.05A4.3,4.3,0,0,0,48.86,21.48ZM39.86,43l-5.48-5.47,2-2,3.46,3.46,8.35-8.35,2,2Z" />
    <path d="M21.29,47.28H10.85a4,4,0,0,0-4,4V61.72a4,4,0,0,0,4,4H21.29a4,4,0,0,0,4-4V51.28A4,4,0,0,0,21.29,47.28Zm-.94,15.5h-8.6l4.45-5.39c.43-.54.8-1,1.1-1.39s.52-.73.67-1a2.76,2.76,0,0,0,.48-1.4,2,2,0,0,0-.64-1.51,2.17,2.17,0,0,0-1.56-.6c-1.29,0-2,.76-2.22,2.3H12.1q.47-4,4.1-4a4.13,4.13,0,0,1,2.93,1.11,3.6,3.6,0,0,1,1.2,2.75,4.23,4.23,0,0,1-.56,2.06A10,10,0,0,1,19,56.91c-.36.47-.82,1-1.38,1.69l-2,2.36h4.77Z" />
    <path d="M51.25,7.43h-31c-5.71,0-9.55,3.82-9.55,9.51V47.29h3V37.72a2.26,2.26,0,0,0,.58.09H16.7a2,2,0,1,0,0-4H14.32a1.91,1.91,0,0,0-.58.1V24.22a2.26,2.26,0,0,0,.58.09H16.7a2,2,0,0,0,0-4H14.32a1.91,1.91,0,0,0-.58.1V16.94c0-4,2.51-6.51,6.55-6.51h31c4,0,6.54,2.49,6.54,6.51V55c0,4-2.5,6.5-6.54,6.5h-26v.23a4,4,0,0,1-1.13,2.77H51.25c5.71,0,9.54-3.82,9.54-9.5v-38C60.79,11.25,57,7.43,51.25,7.43Z" />
  </g>
  <rect x="0.36" y="0.36" width="71.28" height="71.28" fill="none"/>
</svg>
