<svg xmlns="http://www.w3.org/2000/svg" viewBox="0 0 72 72">
  <g>
    <path d="M55.63,6.7H16.68a3.88,3.88,0,0,0-3.88,3.88V61.25a3.88,3.88,0,0,0,3.88,3.88h25a3.87,3.87,0,0,0,2.62-1l13.9-12.8a3.9,3.9,0,0,0,1.25-2.86V10.58A3.88,3.88,0,0,0,55.63,6.7ZM15.8,61.25V10.58a.87.87,0,0,1,.88-.88h39a.87.87,0,0,1,.87.88V47H43.82a3.38,3.38,0,0,0-3.38,3.38V62.13H16.68A.87.87,0,0,1,15.8,61.25Zm26.64.54V50.38A1.38,1.38,0,0,1,43.82,49H56.3l-.08.1Z" />
    <g>
      <path d="M46,40.25H25.73a4.76,4.76,0,0,1-4.17-2.39,4.33,4.33,0,0,1,.08-4.41l10.12-17.3a4.84,4.84,0,0,1,8.18,0L50.08,33.46a4.31,4.31,0,0,1,.08,4.4A4.76,4.76,0,0,1,46,40.25ZM35.86,15.86a2.8,2.8,0,0,0-2.41,1.3L23.33,34.45v0a2.36,2.36,0,0,0,0,2.43,2.74,2.74,0,0,0,2.45,1.39H46a2.76,2.76,0,0,0,2.46-1.39,2.33,2.33,0,0,0,0-2.43L38.26,17.14A2.79,2.79,0,0,0,35.86,15.86ZM22.49,34h0Z" />
      <rect x="34.82" y="20.45" width="1.97" height="11.04" />
      <rect x="34.82" y="33.61" width="1.97" height="2.39" />
    </g>
  </g>
  <rect x="0.36" y="0.36" width="71.28" height="71.28" fill="none"/>
</svg>
