<svg xmlns="http://www.w3.org/2000/svg" viewBox="0 0 72 72">
  <g>
    <circle cx="25.76" cy="28.61" r="4.2" />
    <circle cx="53.78" cy="28.61" r="4.2" />
    <circle cx="39.7" cy="28.61" r="4.2" />
    <path d="M57,44.86a18.41,18.41,0,0,0-1.9-1l2.83-1a1.25,1.25,0,1,0-.86-2.35L51.3,42.56a1.27,1.27,0,0,0-.75,1.61L52.7,50a1.27,1.27,0,0,0,1.18.82,1.31,1.31,0,0,0,.43-.08,1.24,1.24,0,0,0,.74-1.6L53.9,46a14.09,14.09,0,0,1,1.75.94c4.79,3.05,7.05,8.11,5,11.28a5.87,5.87,0,0,1-4.92,2.4,14.16,14.16,0,0,1-12.6-8A6.26,6.26,0,0,1,42.86,48h2.72V45H26.49c-8.69,0-16-7.5-16-16.38s7.35-16.39,16-16.39H57.86v-3H26.49a19.25,19.25,0,0,0-19,19.39A19.24,19.24,0,0,0,26.49,48H40.25a9.08,9.08,0,0,0,.61,5.59,15.64,15.64,0,0,0,6.12,7,15.85,15.85,0,0,0,8.39,2.62h.5a8.29,8.29,0,0,0,6.93-3.56C65.55,55.26,63,48.66,57,44.86Z" />
  </g>
  <rect x="0.36" y="0.36" width="71.28" height="71.28" fill="none"/>
</svg>
