<svg xmlns="http://www.w3.org/2000/svg" viewBox="0 0 72 72">
  <g>
    <path d="M36.07,8.56a18,18,0,1,0,18,18h0A18.07,18.07,0,0,0,36.07,8.56ZM50.64,20.75h-12l-10.74-7.5a15.63,15.63,0,0,1,21.53,5A16.15,16.15,0,0,1,50.64,20.75ZM20.45,26.61a15.45,15.45,0,0,1,.78-4.86L28,26.44l-6.9,4.86A15.87,15.87,0,0,1,20.45,26.61ZM22,33.45l10-7L22,19.53a15.73,15.73,0,0,1,3.84-4.81l12,8.38H51.37a16.58,16.58,0,0,1,.41,3.51,15.59,15.59,0,0,1-.33,3.2H37.84L25.71,38.38A16,16,0,0,1,22,33.45Zm14.06,8.86a15.52,15.52,0,0,1-8.39-2.45l10.94-7.7H50.78A15.73,15.73,0,0,1,36.07,42.31Z" />
    <g>
      <path d="M12.09,63.22V51.7h2.39v4.39H19V51.7h2.39V63.22H19V58.08H14.48v5.14Z" />
      <path d="M27,51.7h2.73l4.07,11.52H31.14l-.76-2.37H26.14l-.78,2.37H22.84Zm-.15,7.17h2.94l-1.45-4.54Z" />
      <path d="M35.18,51.7H37.7l4.57,8v-8h2.24V63.22h-2.4l-4.69-8.17v8.17H35.18Z" />
      <path d="M49.29,63.22H46.9V51.7h2.39Z" />
      <path d="M53.59,59.66A2.26,2.26,0,0,0,54,60.84a2.53,2.53,0,0,0,2,.71,4.56,4.56,0,0,0,1.41-.18,1.34,1.34,0,0,0,1-1.34,1,1,0,0,0-.5-.88,5.14,5.14,0,0,0-1.6-.54l-1.25-.28a7.55,7.55,0,0,1-2.52-.88A2.8,2.8,0,0,1,51.48,55a3.31,3.31,0,0,1,1.14-2.57,4.86,4.86,0,0,1,3.35-1,5.16,5.16,0,0,1,3.14,1,3.41,3.41,0,0,1,1.36,2.8H58.16a1.66,1.66,0,0,0-.93-1.48,3.2,3.2,0,0,0-1.43-.28,2.71,2.71,0,0,0-1.52.37,1.19,1.19,0,0,0-.57,1,1,1,0,0,0,.56.92,7.72,7.72,0,0,0,1.53.48l2,.47a5.16,5.16,0,0,1,2,.84,2.8,2.8,0,0,1,1,2.35,3.31,3.31,0,0,1-1.22,2.62,5.12,5.12,0,0,1-3.45,1,5.64,5.64,0,0,1-3.57-1,3.42,3.42,0,0,1-1.31-2.83Z" />
    </g>
  </g>
  <rect x="0.36" y="0.36" width="71.28" height="71.28" fill="none"/>
</svg>
