<svg xmlns="http://www.w3.org/2000/svg" viewBox="0 0 72 72">
  <g>
    <path d="M36,8A17.33,17.33,0,1,0,53.32,25.31h0A17.34,17.34,0,0,0,36,8ZM34.87,27.07V40.31A14,14,0,0,1,31,39.52V27.07H21a17.22,17.22,0,0,1,0-1.76,17.67,17.67,0,0,1,.15-2H31V11.09a15.16,15.16,0,0,1,3.83-.78v13h16a12.76,12.76,0,0,1,.17,2A12.89,12.89,0,0,1,51,27.07Zm15.57-6H37.12V10.31A15.1,15.1,0,0,1,50.44,21Zm-21.65-9v9H21.55A15.18,15.18,0,0,1,28.79,12.07ZM21.47,29.32h7.32v9.24A15.22,15.22,0,0,1,21.47,29.32Zm15.65,11v-11H50.51A15.09,15.09,0,0,1,37.12,40.31Z" />
    <g>
      <path d="M41.5,62.7a.76.76,0,0,1-.75-.75V51.44L37,56.63a.77.77,0,0,1-.61.31h0a.78.78,0,0,1-.61-.31L32,51.45V62a.75.75,0,0,1-1.5,0V51.05a1.37,1.37,0,0,1,1.37-1.37,1.41,1.41,0,0,1,1,.43l3.49,4.8,3.44-4.73a1.38,1.38,0,0,1,2.43.87V62A.76.76,0,0,1,41.5,62.7Z" />
      <path d="M51.57,62.7a.75.75,0,0,1-.75-.75V50.42a.75.75,0,0,1,1.5,0V62A.76.76,0,0,1,51.57,62.7Z" />
      <path d="M25.54,56.27A.74.74,0,0,1,25,56l-3.87-4a1.37,1.37,0,0,1-.41-1,1.38,1.38,0,0,1,1.38-1.38h5.58a.75.75,0,0,1,0,1.5H22.35L26.08,55a.75.75,0,0,1,0,1.06A.77.77,0,0,1,25.54,56.27Z" />
      <path d="M17,62.7a1.39,1.39,0,0,1-1-.43l-.08-.1-7-10.68V62a.75.75,0,0,1-1.5,0V51.05a1.37,1.37,0,0,1,1.37-1.37,1.41,1.41,0,0,1,1,.43l.08.1,7,10.67V50.43a.75.75,0,1,1,1.5,0V61.32A1.38,1.38,0,0,1,17,62.7Z" />
      <path d="M60,62.68H56.36A1.33,1.33,0,0,1,55,61.36V51a1.34,1.34,0,0,1,1.37-1.35h3.5c2.81,0,5.85,2,5.85,6.4S62.3,62.68,60,62.68Zm-3.64-1.5v0Zm.13,0H60c1.69,0,4.21-1.63,4.21-5.11s-2.19-4.9-4.35-4.9H56.49Z" />
      <path d="M24.66,62.87a4.37,4.37,0,0,1-1.51-.27A4.06,4.06,0,0,1,23,55a.76.76,0,0,1,1,.32.75.75,0,0,1-.32,1,2.57,2.57,0,0,0,0,4.89c.74.28,2.25.48,4-1.34a.75.75,0,0,1,1.06,0,.77.77,0,0,1,0,1.07A5.85,5.85,0,0,1,24.66,62.87Z" />
    </g>
  </g>
  <rect x="0.36" y="0.36" width="71.28" height="71.28" fill="none"/>
</svg>
