<svg xmlns="http://www.w3.org/2000/svg" viewBox="0 0 72 72">
  <g>
    <path d="M49.53,21.48H46.65a15.4,15.4,0,0,0,0,30.8l2.88,0a4.3,4.3,0,0,0,4.59-4.56V26.05A4.3,4.3,0,0,0,49.53,21.48ZM40.52,43l-5.47-5.47,2-2,3.46,3.46,8.36-8.35,2,2Z" />
    <g>
      <path d="M62.67,63.94H56v-3h5.22V55.73h3v6.71A1.5,1.5,0,0,1,62.67,63.94Z" />
      <path d="M10.25,15.25h-3V8.53A1.5,1.5,0,0,1,8.75,7h6.72v3H10.25Z" />
      <path d="M50.17,10H38.6V7H50.17ZM32.82,10H21.25V7H32.82Z" />
      <path d="M64.17,15.25h-3V10H56V7h6.72a1.5,1.5,0,0,1,1.5,1.5Z" />
      <path d="M64.17,49.94h-3V38.38h3Zm0-17.34h-3V21h3Z" />
    </g>
    <g>
      <rect x="38.6" y="60.94" width="11.56" height="3" />
      <rect x="7.25" y="21.03" width="3" height="11.56" />
      <path d="M24.45,51.28a4,4,0,0,0-4-4H10.25v-8.9h-3v10A4,4,0,0,0,6,51.28V61.72a4,4,0,0,0,4,4H20.45a4,4,0,0,0,3.32-1.78h9.05v-3H24.45Zm-4.93,11.5H10.91l4.45-5.39c.44-.54.8-1,1.1-1.39s.52-.73.67-1a2.76,2.76,0,0,0,.48-1.4A2,2,0,0,0,17,52.1a2.17,2.17,0,0,0-1.56-.6c-1.3,0-2,.76-2.23,2.3H11.27q.46-4,4.09-4a4.14,4.14,0,0,1,2.94,1.11,3.63,3.63,0,0,1,1.19,2.75,4.22,4.22,0,0,1-.55,2.06,11.59,11.59,0,0,1-.83,1.24c-.36.47-.82,1-1.37,1.69l-2,2.36h4.78Z" />
    </g>
  </g>
  <rect x="0.36" y="0.36" width="71.28" height="71.28" fill="none"/>
</svg>
