<svg xmlns="http://www.w3.org/2000/svg" viewBox="0 0 72 72">
  <g>
    <polygon points="32.68 66.01 25.38 58.71 28.21 55.88 32.68 60.35 43.6 49.43 46.43 52.26 32.68 66.01" />
    <path d="M20.44,47.28H10a4,4,0,0,0-4,4V61.72a4,4,0,0,0,4,4H20.44a4,4,0,0,0,4-4V51.28A4,4,0,0,0,20.44,47.28Zm-.93,15.5H10.9l4.45-5.39c.44-.54.81-1,1.1-1.39s.52-.73.68-1a2.83,2.83,0,0,0,.47-1.4A2,2,0,0,0,17,52.1a2.17,2.17,0,0,0-1.56-.6c-1.3,0-2,.76-2.23,2.3H11.26q.47-4,4.09-4a4.14,4.14,0,0,1,2.94,1.11,3.6,3.6,0,0,1,1.2,2.75,4.23,4.23,0,0,1-.56,2.06,10.24,10.24,0,0,1-.83,1.24c-.36.47-.82,1-1.37,1.69l-2,2.36h4.77Z" />
    <path d="M54.87,7.32H17c-5.71,0-9.55,3.82-9.55,9.51V48.22A4,4,0,0,1,10,47.28h.46V16.83c0-4,2.51-6.51,6.55-6.51H54.87c4,0,6.54,2.5,6.54,6.51v35H52.63c-.07-2.53-.17-5.65-.25-6.16a3.85,3.85,0,0,0-2.05-3.08c-1.59-.86-3.06-1.53-4.37-2.12a21.8,21.8,0,0,1-3.15-1.6,10.33,10.33,0,0,1-.62-2.41,3.21,3.21,0,0,0,1.34-2.37,4.06,4.06,0,0,1,.46-1,7.57,7.57,0,0,0,1.13-3.59,3.38,3.38,0,0,0-.31-1.57,1.27,1.27,0,0,1-.09-.32c0-.39-.11-.66-.16-.91a12.58,12.58,0,0,1-.24-2.92,5.42,5.42,0,0,0-2.41-3.95c-1.5-1.18-4-2.38-6.31-1.87a9.33,9.33,0,0,1-3.2.34,2.93,2.93,0,0,0-2.14.51,7,7,0,0,0-2.74,3.85,17.41,17.41,0,0,0-.71,5v.22a2.73,2.73,0,0,1-.07.78,4.44,4.44,0,0,0-.14,1.23,5.9,5.9,0,0,0,1.13,3.21,3.82,3.82,0,0,0,.72.79,3.73,3.73,0,0,0,1.17,2.14l.05.06A10.34,10.34,0,0,1,29,39a20,20,0,0,1-2.82,1.39,46,46,0,0,0-4.68,2.26,3.71,3.71,0,0,0-2,3v.12c0,.17-.06.75-.1,1.54h1.09a4,4,0,0,1,1.9.5c0-.83.05-1.43.07-1.59l0-.17a.82.82,0,0,1,.53-.8,44.21,44.21,0,0,1,4.41-2.12,17.63,17.63,0,0,0,3.57-1.85c1.22-.94,1.81-4.57,1.72-5.57a2.73,2.73,0,0,0-.91-1.74c-.27-.28-.34-.34-.35-.67a2.17,2.17,0,0,0-.92-1.58,2,2,0,0,1-.25-.23,3.13,3.13,0,0,1-.63-1.55,1.66,1.66,0,0,1,.06-.53,5.76,5.76,0,0,0,.15-1.48v-.22a14.56,14.56,0,0,1,.63-4.32,3.93,3.93,0,0,1,1.43-2l.13-.08h.12a11.67,11.67,0,0,0,4.13-.4,5.39,5.39,0,0,1,3.81,1.31c.92.72,1.26,1.38,1.26,1.65a15,15,0,0,0,.31,3.5c0,.19.08.39.12.7a3.79,3.79,0,0,0,.35,1.17,1.27,1.27,0,0,1,0,.29,4.62,4.62,0,0,1-.63,1.93,6.46,6.46,0,0,0-.93,2.27,1,1,0,0,1-.07.3l-.17.12A2.35,2.35,0,0,0,39.17,36c0,.3.32,4.13,1.71,5.2h0a20.85,20.85,0,0,0,3.85,2c1.25.57,2.68,1.21,4.17,2,.42.23.45.44.53.94s.17,4.5.24,7.21a1.5,1.5,0,0,0,1.5,1.46H62.91a1.5,1.5,0,0,0,1.5-1.5V16.83C64.41,11.14,60.58,7.32,54.87,7.32Z" />
  </g>
  <rect x="0.36" y="0.36" width="71.28" height="71.28" fill="none"/>
</svg>
