<svg xmlns="http://www.w3.org/2000/svg" viewBox="0 0 72 72">
  <path d="M36,9.61A26.25,26.25,0,1,0,62.27,35.86h0A26.27,26.27,0,0,0,36,9.61ZM57.21,27.34H39.69L24.07,16.43a22.74,22.74,0,0,1,31.31,7.28A23.28,23.28,0,0,1,57.21,27.34ZM13.3,35.86a22.94,22.94,0,0,1,1.14-7.07l9.79,6.82-10,7.07A23.5,23.5,0,0,1,13.3,35.86Zm2.27,10,14.5-10.18L15.57,25.57a23,23,0,0,1,5.59-7L38.62,30.75H58.27a23.17,23.17,0,0,1,.6,5.11,22.75,22.75,0,0,1-.48,4.66H38.59L21,53A23,23,0,0,1,15.57,45.81ZM36,58.7a22.68,22.68,0,0,1-12.21-3.57l15.91-11.2H57.41A22.86,22.86,0,0,1,36,58.7Z" />
  <rect x="0.36" y="0.36" width="71.28" height="71.28" fill="none"/>
</svg>
