<?xml version="1.0" encoding="utf-8"?>
<!-- Generator: Adobe Illustrator 25.2.3, SVG Export Plug-In . SVG Version: 6.00 Build 0)  -->
<svg version="1.1" xmlns="http://www.w3.org/2000/svg" xmlns:xlink="http://www.w3.org/1999/xlink" x="0px" y="0px"
	 viewBox="-683 1207 72 72" style="enable-background:new -683 1207 72 72;" xml:space="preserve">
<style type="text/css">
	.st0{fill:#808080;}
	.st1{fill:#231F20;}
	.st2{fill-rule:evenodd;clip-rule:evenodd;fill:#808080;}
	.st3{fill:none;}
</style>
<g id="SVG_icons">
	<g id="edit">
	</g>
	<g id="download">
	</g>
	<g id="Layer_5">
	</g>
	<g id="help">
	</g>
	<g id="Layer_7">
	</g>
	<path class="st0" d="M-646.9,1214.7c-15.6,0-28.2,12.6-28.2,28.2c0,15.6,12.6,28.2,28.2,28.2c15.6,0,28.2-12.6,28.2-28.2
		c0,0,0,0,0,0C-618.7,1227.3-631.4,1214.7-646.9,1214.7z M-624.2,1233.7H-643l-16.8-11.7c11.4-7.1,26.5-3.6,33.6,7.8
		C-625.4,1231-624.7,1232.4-624.2,1233.7z M-671.3,1242.9c0-2.6,0.4-5.1,1.2-7.6l10.5,7.3l-10.8,7.6
		C-671.1,1247.8-671.4,1245.3-671.3,1242.9z M-668.9,1253.6l15.6-10.9l-15.6-10.8c1.5-2.9,3.5-5.4,6-7.5l18.8,13.1h21.1
		c0.4,1.8,0.6,3.6,0.6,5.5c0,1.7-0.2,3.4-0.5,5h-21.3l-18.9,13.4C-665.5,1259.1-667.5,1256.5-668.9,1253.6z M-646.9,1267.4
		c-4.6,0-9.2-1.3-13.1-3.8l17.1-12h19C-627.6,1261.1-636.7,1267.4-646.9,1267.4z"/>
</g>
<g id="Rectangles">
	<rect x="-682.6" y="1207.4" class="st3" width="71.3" height="71.3"/>
</g>
</svg>
