<svg xmlns="http://www.w3.org/2000/svg" viewBox="0 0 72 72">
  <g>
    <path d="M38.49,40.83H59.12V38.28H55l1.72-15.66a1.28,1.28,0,0,0-.9-1.36L35.9,15.21a1.17,1.17,0,0,0-.74,0L15.28,21.26a1.27,1.27,0,0,0-.89,1.34l1.73,18.3a62.84,62.84,0,0,0,1.46,8.46c1,3.65,5.9,8,14.6,12.92l.48.27.22.12.4.23,0,0A12.36,12.36,0,0,0,38.49,64H59.12V61.46H38.49a10.32,10.32,0,0,1,0-20.63Zm-3-23.07L54,23.4l-.35,3.18H17.32L17,23.4ZM25.85,51.15a12.88,12.88,0,0,0,.89,4.7c-5-3.56-6.36-5.91-6.69-7.16a57.48,57.48,0,0,1-1.4-8.06L18.21,36H52.65l-.26,2.33H38.49A12.77,12.77,0,0,0,25.85,51.15Z" />
    <circle cx="38.02" cy="51.15" r="2.72" />
    <circle cx="56.17" cy="51.15" r="2.72" />
    <circle cx="47.05" cy="51.15" r="2.72" />
    <path d="M62.38,20.09,54.44,4.43l-1.77,5.74C38.37,1.89,21.07,4.22,8,16.4A1.5,1.5,0,0,0,9,19a1.48,1.48,0,0,0,1-.4C21.91,7.54,37.51,5.24,50.51,12.39l-4.88,2.46Z" />
  </g>
  <rect x="0.36" y="0.36" width="71.28" height="71.28" fill="none"/>
</svg>
