<svg xmlns="http://www.w3.org/2000/svg" viewBox="0 0 72 72">
  <path d="M35.89,10a26.2,26.2,0,1,0,26.19,26.2h0A26.22,26.22,0,0,0,35.89,10Zm-1.7,28.85v20a21.63,21.63,0,0,1-5.79-1.2V38.87H13.21a23.43,23.43,0,0,1,0-2.65,21.59,21.59,0,0,1,.23-3.11h15V14.72a22.08,22.08,0,0,1,5.79-1.18V33.13H58.43a19.92,19.92,0,0,1,.25,3.09,21.36,21.36,0,0,1-.11,2.65ZM57.73,29.8H37.59V13.54A22.8,22.8,0,0,1,57.73,29.71ZM25,16.19V29.8H14.05A22.93,22.93,0,0,1,25,16.19ZM13.93,42.27H25v14A23,23,0,0,1,13.93,42.27ZM37.59,58.9V42.27H57.84A22.85,22.85,0,0,1,37.59,58.9Z" />
  <rect x="0.36" y="0.36" width="71.28" height="71.28" fill="none"/>
</svg>
