<svg xmlns="http://www.w3.org/2000/svg" viewBox="0 0 72 72">
  <g>
    <circle cx="25.73" cy="28.61" r="4.2" />
    <circle cx="53.75" cy="28.61" r="4.2" />
    <circle cx="39.67" cy="28.61" r="4.2" />
    <g>
      <path d="M42.42,53.28h0A1.24,1.24,0,0,0,43.67,52a9.08,9.08,0,0,1,2.69-6.53,9.18,9.18,0,0,1,3.38-2.16,9.32,9.32,0,0,1,9.67,2.19,9.63,9.63,0,0,1,.73.83H57.23a1.25,1.25,0,0,0,0,2.5h5.68a1.25,1.25,0,0,0,1.25-1.25V42a1.25,1.25,0,1,0-2.5,0V44.3c-.16-.18-.31-.38-.48-.55A11.82,11.82,0,0,0,48.9,41a11.66,11.66,0,0,0-4.31,2.74A13.06,13.06,0,0,0,43.5,45h-17c-8.69,0-16-7.5-16-16.38s7.35-16.39,16-16.39H57.83v-3H26.46a19.24,19.24,0,0,0-19,19.39A19.23,19.23,0,0,0,26.46,48H41.88a11.94,11.94,0,0,0-.71,4A1.25,1.25,0,0,0,42.42,53.28Z" />
      <path d="M63.25,50.78h0A1.26,1.26,0,0,0,62,52a9.11,9.11,0,0,1-2.68,6.53,9,9,0,0,1-3.39,2.15,9.29,9.29,0,0,1-9.67-2.18,9.52,9.52,0,0,1-.72-.83h2.9a1.25,1.25,0,0,0,0-2.5H42.77a1.25,1.25,0,0,0-1.25,1.25v5.59a1.25,1.25,0,0,0,2.5,0V59.76c.16.18.3.38.48.55a11.83,11.83,0,0,0,8.35,3.45,11.51,11.51,0,0,0,3.92-.68,11.78,11.78,0,0,0,4.32-2.74A11.61,11.61,0,0,0,64.5,52,1.25,1.25,0,0,0,63.25,50.78Z" />
    </g>
  </g>
  <rect x="0.36" y="0.36" width="71.28" height="71.28" fill="none"/>
</svg>
