<svg xmlns="http://www.w3.org/2000/svg" viewBox="0 0 72 72">
  <g>
    <path d="M54.77,64.77h0l-20-.06a28.5,28.5,0,0,1,0-57H54.77c5.71,0,9.54,3.82,9.54,9.5V55.26C64.31,61,60.48,64.77,54.77,64.77Zm0-54.06H34.72a25.5,25.5,0,0,0,0,51l20.05.06c4,0,6.54-2.5,6.54-6.51v-38C61.31,13.2,58.8,10.71,54.77,10.71Z" />
    <path d="M37.91,16.78H34.27a19.44,19.44,0,0,0,0,38.88l3.64,0a5.42,5.42,0,0,0,5.79-5.76V22.54A5.42,5.42,0,0,0,37.91,16.78ZM26.53,43.88,19.62,37l2.54-2.54,4.37,4.37L37.08,28.24l2.55,2.55Z" />
  </g>
  <rect x="0.36" y="0.36" width="71.28" height="71.28" fill="none"/>
</svg>
