<svg xmlns="http://www.w3.org/2000/svg" viewBox="0 0 72 72">
  <g>
    <path d="M47.77,65.07a1.79,1.79,0,0,1-1.26-.53l-7.29-7.29a1.78,1.78,0,0,1,2.52-2.52l6,6,12.3-12.29a1.77,1.77,0,0,1,2.52,0,1.79,1.79,0,0,1,0,2.52L49,64.54A1.76,1.76,0,0,1,47.77,65.07Z" />
    <path d="M52.37,51.1H28.17a15.2,15.2,0,0,1,0-30.4h24.2v3.52H28.17a11.68,11.68,0,0,0,0,23.36h24.2Z" />
    <circle cx="27.62" cy="35.91" r="3.15" />
    <circle cx="48.67" cy="35.91" r="3.15" />
    <circle cx="38.09" cy="35.91" r="3.15" />
    <path d="M64.05,20.09,56.11,4.43l-1.78,5.74C40,1.89,22.74,4.22,9.64,16.4a1.5,1.5,0,0,0-.07,2.12,1.47,1.47,0,0,0,1.1.48,1.5,1.5,0,0,0,1-.4C23.57,7.54,39.18,5.24,52.18,12.39l-4.89,2.46Z" />
  </g>
  <rect x="0.36" y="0.36" width="71.28" height="71.28" fill="none"/>
</svg>
