<svg xmlns="http://www.w3.org/2000/svg" viewBox="0 0 72 72">
  <g>
    <path d="M43.25,9.77H39.49a3.93,3.93,0,0,0-7.61,0H28.12a1.07,1.07,0,0,0-1.07,1.08v2.47a1.08,1.08,0,0,0,1.07,1.08H43.25a1.08,1.08,0,0,0,1.08-1.08V10.85A1.08,1.08,0,0,0,43.25,9.77Z" />
    <polygon points="31.67 46.48 21.72 36.53 25.38 32.88 31.67 39.16 46.87 23.97 50.53 27.63 31.67 46.48" />
    <path d="M21.45,47.28H11a4,4,0,0,0-4,4V61.72a4,4,0,0,0,4,4H21.45a4,4,0,0,0,4-4V51.28A4,4,0,0,0,21.45,47.28Zm-.94,15.5H11.9l4.45-5.39c.44-.54.81-1,1.1-1.39s.52-.73.68-1a2.83,2.83,0,0,0,.47-1.4A2,2,0,0,0,18,52.1a2.17,2.17,0,0,0-1.56-.6c-1.29,0-2,.76-2.22,2.3H12.26q.47-4,4.09-4a4.14,4.14,0,0,1,2.94,1.11,3.6,3.6,0,0,1,1.2,2.75,4.23,4.23,0,0,1-.56,2.06,10.24,10.24,0,0,1-.83,1.24c-.36.47-.82,1-1.37,1.69l-2,2.36h4.77Z" />
    <g>
      <path d="M14.72,47.28V15A1.31,1.31,0,0,1,16,13.73h6.09V10.42H16A4.62,4.62,0,0,0,11.42,15V47.28Z" />
      <path d="M55.12,10.42h-6v3.31h6A1.3,1.3,0,0,1,56.43,15V57.41a1.31,1.31,0,0,1-1.31,1.31H25.45v3a2.91,2.91,0,0,1,0,.31H55.12a4.62,4.62,0,0,0,4.62-4.62V15A4.62,4.62,0,0,0,55.12,10.42Z" />
    </g>
  </g>
  <rect x="0.36" y="0.36" width="71.28" height="71.28" fill="none"/>
</svg>
