<svg xmlns="http://www.w3.org/2000/svg" viewBox="0 0 72 72">
  <g>
    <path d="M49.53,21.82H46.65a15.4,15.4,0,1,0,0,30.79l2.88,0a4.3,4.3,0,0,0,4.59-4.56V26.38A4.29,4.29,0,0,0,49.53,21.82Zm-9,21.46-5.47-5.47,2-2,3.46,3.46,8.36-8.36,2,2Z" />
    <g>
      <path d="M62.67,64.28H56v-3h5.22V56.06h3v6.72A1.5,1.5,0,0,1,62.67,64.28Z" />
      <path d="M50.17,64.28H38.6v-3H50.17Zm-17.35,0H21.25v-3H32.82Z" />
      <path d="M15.47,64.28H8.75a1.5,1.5,0,0,1-1.5-1.5V56.06h3v5.22h5.22Z" />
      <path d="M10.25,50.28h-3V38.71h3Zm0-17.35h-3V21.37h3Z" />
      <path d="M10.25,15.58h-3V8.87a1.5,1.5,0,0,1,1.5-1.5h6.72v3H10.25Z" />
      <path d="M50.17,10.37H38.6v-3H50.17Zm-17.35,0H21.25v-3H32.82Z" />
      <path d="M64.17,15.58h-3V10.37H56v-3h6.72a1.5,1.5,0,0,1,1.5,1.5Z" />
      <path d="M64.17,50.28h-3V38.71h3Zm0-17.35h-3V21.37h3Z" />
    </g>
  </g>
  <rect x="0.36" y="0.36" width="71.28" height="71.28" fill="none"/>
</svg>
