<svg xmlns="http://www.w3.org/2000/svg" viewBox="0 0 72 72">
  <g>
    <path d="M37.91,16.44H34.27a19.44,19.44,0,0,0,0,38.88l3.64,0A5.42,5.42,0,0,0,43.7,49.6V22.2A5.42,5.42,0,0,0,37.91,16.44ZM26.53,43.54l-6.91-6.9,2.54-2.55,4.37,4.37L37.08,27.91l2.55,2.54Z" />
    <path d="M20.29,47.28H9.86a4,4,0,0,0-4,4V61.72a4,4,0,0,0,4,4H20.29a4,4,0,0,0,4-4V51.28A4,4,0,0,0,20.29,47.28Zm-.93,15.5H10.75l4.45-5.39c.44-.54.81-1,1.1-1.39s.52-.73.68-1a2.83,2.83,0,0,0,.47-1.4,2,2,0,0,0-.63-1.51,2.17,2.17,0,0,0-1.56-.6c-1.3,0-2,.76-2.23,2.3H11.11q.46-4,4.09-4a4.14,4.14,0,0,1,2.94,1.11,3.6,3.6,0,0,1,1.2,2.75,4.23,4.23,0,0,1-.56,2.06A10.24,10.24,0,0,1,18,56.91c-.36.47-.82,1-1.37,1.69l-2,2.36h4.77Z" />
    <path d="M54.77,7.37H34.72a28.5,28.5,0,0,0-26,40.1,3.78,3.78,0,0,1,1.17-.2h2.06a25.26,25.26,0,0,1-2.7-11.4,25.53,25.53,0,0,1,25.5-25.5H54.77c4,0,6.54,2.5,6.54,6.51V54.93c0,4-2.5,6.5-6.54,6.5l-20.05,0a25.41,25.41,0,0,1-10.43-2.24v2.58a4.62,4.62,0,0,1-.06.65,28.33,28.33,0,0,0,10.48,2l20,.05h0c5.71,0,9.54-3.82,9.54-9.5v-38C64.31,11.19,60.48,7.37,54.77,7.37Z" />
  </g>
  <rect x="0.36" y="0.36" width="71.28" height="71.28" fill="none"/>
</svg>
