<svg xmlns="http://www.w3.org/2000/svg" viewBox="0 0 72 72">
  <g>
    <g>
      <path d="M55.12,62.36H16a4.62,4.62,0,0,1-4.61-4.61V15.37A4.62,4.62,0,0,1,16,10.75h6.09v3.31H16a1.31,1.31,0,0,0-1.31,1.31V57.75A1.31,1.31,0,0,0,16,59.06H55.12a1.31,1.31,0,0,0,1.31-1.31V15.37a1.31,1.31,0,0,0-1.31-1.31h-6V10.75h6a4.62,4.62,0,0,1,4.62,4.62V57.75A4.62,4.62,0,0,1,55.12,62.36Z" />
      <path d="M43.25,10.1H39.49a3.93,3.93,0,0,0-7.61,0H28.12a1.08,1.08,0,0,0-1.07,1.08v2.47a1.07,1.07,0,0,0,1.07,1.08H43.25a1.08,1.08,0,0,0,1.08-1.08V11.18A1.08,1.08,0,0,0,43.25,10.1Z" />
    </g>
    <polygon points="31.67 46.82 21.72 36.87 25.38 33.21 31.67 39.5 46.87 24.31 50.53 27.96 31.67 46.82" />
  </g>
  <rect x="0.36" y="0.36" width="71.28" height="71.28" fill="none"/>
</svg>
