<?xml version="1.0" encoding="utf-8"?>
<svg version="1.1" xmlns="http://www.w3.org/2000/svg" xmlns:xlink="http://www.w3.org/1999/xlink" x="0px" y="0px"
	 viewBox="-755 1207 72 72" >

<g id="SVG_icons">

	<path d="M-719,1214.9c-15.6,0-28.2,12.6-28.2,28.2s12.6,28.2,28.2,28.2c15.6,0,28.2-12.6,28.2-28.2c0,0,0,0,0,0
		C-690.8,1227.5-703.4,1214.9-719,1214.9z M-720.8,1245.9v21.6c-2.1-0.1-4.2-0.6-6.2-1.3v-20.3h-16.4c-0.1-1-0.1-1.9,0-2.9
		c0-1.1,0.1-2.2,0.2-3.3h16.1v-19.8c2-0.7,4.1-1.1,6.2-1.3v21.1h26.1c0.2,1.1,0.3,2.2,0.3,3.3c0,1,0,1.9-0.1,2.9H-720.8z
		 M-695.5,1236.2h-21.7v-17.5C-707,1219.4-698.4,1226.3-695.5,1236.2L-695.5,1236.2z M-730.7,1221.5v14.6h-11.8
		C-740.7,1229.9-736.4,1224.6-730.7,1221.5z M-742.6,1249.6h11.9v15C-736.6,1261.4-740.9,1256-742.6,1249.6z M-717.2,1267.5v-17.9
		h21.8C-698.2,1259.5-706.9,1266.7-717.2,1267.5z"/>
</g>
</svg>
