<svg xmlns="http://www.w3.org/2000/svg" viewBox="0 0 72 72">
  <g>
    <path d="M49,14.89a6.84,6.84,0,0,0-6.66,4.81c-.22.78-1.19.86-1.24.87H19.92c-1.67,0-3.67.69-3.67,4v3a1.35,1.35,0,0,0,2.7,0v-3c0-1.29.26-1.29,1-1.29h2.67v4.27a1.35,1.35,0,0,0,2.7,0V23.27h15.9A4.05,4.05,0,0,0,45,20.43,4.18,4.18,0,0,1,49,17.59a4.34,4.34,0,1,1-3.44,6.65,1.35,1.35,0,0,0-2.23,1.52A7,7,0,0,0,49,29a7,7,0,1,0,0-14.06Z" />
    <g>
      <path d="M40.24,54.35a.44.44,0,0,1-.43-.44V43l-4.22,5.82a.41.41,0,0,1-.35.18h0a.41.41,0,0,1-.35-.18L30.66,43V53.91a.44.44,0,0,1-.44.44.44.44,0,0,1-.43-.44V42.75a.79.79,0,0,1,1.37-.55l4.08,5.6,4-5.55a.8.8,0,0,1,1.41.5V53.91A.44.44,0,0,1,40.24,54.35Z" />
      <path d="M50.1,54.38a.44.44,0,0,1-.44-.44V42.38a.44.44,0,0,1,.44-.44.44.44,0,0,1,.43.44V53.94A.44.44,0,0,1,50.1,54.38Z" />
      <path d="M24.46,48a.45.45,0,0,1-.32-.14L20,43.3a.78.78,0,0,1-.24-.57.79.79,0,0,1,.8-.79h6.16a.43.43,0,0,1,.43.43.44.44,0,0,1-.43.44h-6l4.1,4.45a.44.44,0,0,1,0,.62A.46.46,0,0,1,24.46,48Z" />
      <path d="M16.21,54.36a.79.79,0,0,1-.57-.25l-.05-.06L8.19,43V53.88a.44.44,0,0,1-.43.44.44.44,0,0,1-.44-.44V42.75a.8.8,0,0,1,.8-.8.79.79,0,0,1,.58.25l.05.06,7.39,11.05V42.39a.44.44,0,0,1,.44-.44.44.44,0,0,1,.43.44V53.56A.8.8,0,0,1,16.21,54.36Z" />
      <path d="M57.28,54.16h-2.7a.77.77,0,0,1-.79-.77V42.73a.78.78,0,0,1,.79-.78h2c1.64,0,7.18,0,7.18,6.16C63.79,53.6,58.61,54.16,57.28,54.16Zm-2.7-.87v0Zm.08,0h2.62c1,0,5.64-.53,5.64-5.18,0-5.37-5.05-5.29-6.31-5.29h-2Z" />
      <path d="M24.08,54.44a5.22,5.22,0,0,1-2.6-.64,3.59,3.59,0,0,1,.72-6.51.45.45,0,0,1,.59.18.43.43,0,0,1-.19.59,3.14,3.14,0,0,0-2,2.72c0,1.92,1.83,2.82,3.39,2.82A4.12,4.12,0,0,0,27,52a.44.44,0,0,1,.61,0,.46.46,0,0,1,0,.62A4.89,4.89,0,0,1,24.08,54.44Z" />
    </g>
  </g>
  <rect x="0.36" y="0.36" width="71.28" height="71.28" fill="none"/>
</svg>
