<svg xmlns="http://www.w3.org/2000/svg" viewBox="0 0 72 72">
  <g>
    <path d="M39.3,37.55H63.57v-3h-4.9l2-18.42a1.5,1.5,0,0,0-1-1.6L36.25,7.4a1.61,1.61,0,0,0-.87,0L12,14.53a1.5,1.5,0,0,0-1.05,1.58l2,21.52a73,73,0,0,0,1.72,9.95c1.16,4.3,6.94,9.42,17.17,15.2l.57.33a2,2,0,0,1,.25.14l.48.26,0,0a14.53,14.53,0,0,0,6.11,1.35H63.57v-3H39.3a12.14,12.14,0,0,1,0-24.27ZM35.82,10.41,57.57,17l-.41,3.75H14.4L14,17ZM24.43,49.69a15.15,15.15,0,0,0,1,5.53C19.62,51,18,48.27,17.6,46.8A69.15,69.15,0,0,1,16,37.31l-.52-5.5H56l-.3,2.74H39.3A15,15,0,0,0,24.43,49.69Z" />
    <circle cx="38.74" cy="49.69" r="3.2" />
    <circle cx="60.1" cy="49.69" r="3.2" />
    <circle cx="49.37" cy="49.69" r="3.2" />
  </g>
  <rect x="0.36" y="0.36" width="71.28" height="71.28" fill="none"/>
</svg>
