<svg xmlns="http://www.w3.org/2000/svg" viewBox="0 0 72 72">
  <g>
    <path d="M67.08,58.41a3.21,3.21,0,0,0-1.7-2.54l0,0a1.51,1.51,0,0,0,.1-.53V18.15c0-6.64-4.48-11.1-11.15-11.1H17.15C10.47,7.05,6,11.51,6,18.15V55.32a1.51,1.51,0,0,0,.11.56h0a3.12,3.12,0,0,0-1.69,2.58c-.07.46-.17,3.94-.23,6a1.25,1.25,0,0,0,.36.91,1.22,1.22,0,0,0,.89.37H33a1.26,1.26,0,0,0,.9-.37,1.28,1.28,0,0,0,.35-.91c0-2-.16-5.51-.23-6a3.21,3.21,0,0,0-1.7-2.54,33.68,33.68,0,0,0-4.52-1.93,17.82,17.82,0,0,1-2.66-1.13,9.05,9.05,0,0,1-.53-2.18,10.06,10.06,0,0,1,1.4-2.41l.1-.16a6.16,6.16,0,0,0,.93-3,2.83,2.83,0,0,0-.24-1.29.73.73,0,0,1-.08-.26,6,6,0,0,0-.14-.75,11.1,11.1,0,0,1-.19-2.4,4.49,4.49,0,0,0-2-3.26,6.82,6.82,0,0,0-5.22-1.55,7.41,7.41,0,0,1-2.62.28,2.41,2.41,0,0,0-1.76.43,5.77,5.77,0,0,0-2.27,3.17A14.41,14.41,0,0,0,12,43.62v.17a2.42,2.42,0,0,1-.06.65,3.86,3.86,0,0,0-.11,1,4.84,4.84,0,0,0,.93,2.65l.35.48a16.44,16.44,0,0,1,1.24,1.82,8.07,8.07,0,0,1-.55,2.47,18,18,0,0,1-2.62,1c-.7.23-1.45.48-2.19.75V18.15c0-5,3.13-8.1,8.16-8.1H54.3c5,0,8.15,3.11,8.15,8.1V54.54l-1.59-.6a17.17,17.17,0,0,1-2.65-1.13,8.66,8.66,0,0,1-.54-2.18,10.34,10.34,0,0,1,1.41-2.42l.1-.15a6.16,6.16,0,0,0,.93-3,2.81,2.81,0,0,0-.25-1.29.73.73,0,0,1-.08-.26c0-.33-.09-.54-.13-.75a10.09,10.09,0,0,1-.2-2.4,4.49,4.49,0,0,0-2-3.26,6.8,6.8,0,0,0-5.21-1.55,7.43,7.43,0,0,1-2.62.28,2.42,2.42,0,0,0-1.77.43,5.7,5.7,0,0,0-2.26,3.17A14.17,14.17,0,0,0,45,43.62v.17a2.42,2.42,0,0,1-.06.65,3.86,3.86,0,0,0-.11,1,4.84,4.84,0,0,0,.93,2.65c.07.1.19.27.36.49a15.33,15.33,0,0,1,1.23,1.81,8.07,8.07,0,0,1-.55,2.47,18,18,0,0,1-2.62,1,28,28,0,0,0-5.08,2,3.12,3.12,0,0,0-1.69,2.58c-.07.46-.17,3.94-.23,6a1.25,1.25,0,0,0,.36.91,1.22,1.22,0,0,0,.89.37H66.06a1.23,1.23,0,0,0,1.25-1.28C67.26,62.4,67.15,58.92,67.08,58.41ZM12,56.23a12.84,12.84,0,0,0,3.47-1.44c1.08-.83,1.48-3.89,1.42-4.6s-.63-1.64-1.73-3.11c-.12-.16-.22-.29-.27-.37a2.62,2.62,0,0,1-.51-1.26,1.42,1.42,0,0,1,0-.43,4.55,4.55,0,0,0,.13-1.23v-.18A11.75,11.75,0,0,1,15,40.07a3.25,3.25,0,0,1,1.17-1.66l.1-.06h.1a9.63,9.63,0,0,0,3.4-.33A4.42,4.42,0,0,1,22.9,39.1c.75.59,1,1.13,1,1.35a13.57,13.57,0,0,0,.25,2.88c0,.16.07.32.11.57a3.14,3.14,0,0,0,.28,1,1.66,1.66,0,0,1,0,.23,3.68,3.68,0,0,1-.51,1.58l-.09.13c-1.27,1.88-1.78,2.9-1.82,3.63,0,.26.27,3.41,1.42,4.3h0A14.48,14.48,0,0,0,27,56.28a32.88,32.88,0,0,1,4.19,1.78c.34.19.37.36.43.76s.1,2.28.17,4.39h-25c.06-2.1.13-4.09.16-4.37l0-.14c0-.35.06-.44.43-.64A26.3,26.3,0,0,1,12,56.23Zm27.79,7c.06-2.1.13-4.09.16-4.37l0-.14c0-.34.06-.44.43-.64A26.3,26.3,0,0,1,45,56.23a12.84,12.84,0,0,0,3.47-1.44c1.08-.83,1.48-3.89,1.42-4.6s-.63-1.64-1.72-3.1c-.13-.17-.23-.3-.28-.38a2.62,2.62,0,0,1-.51-1.26,1.42,1.42,0,0,1,0-.43,4.55,4.55,0,0,0,.13-1.23v-.18A12.11,12.11,0,0,1,48,40.07a3.31,3.31,0,0,1,1.17-1.66l.1-.06h.1A9.62,9.62,0,0,0,52.8,38a4.33,4.33,0,0,1,3.12,1.07c.75.59,1,1.13,1,1.35a13.57,13.57,0,0,0,.25,2.88c0,.16.07.32.11.57a3.14,3.14,0,0,0,.28,1,.85.85,0,0,1,0,.23,3.82,3.82,0,0,1-.51,1.58l-.09.13c-1.28,1.88-1.79,2.9-1.83,3.64,0,.26.25,3.4,1.42,4.29A14.48,14.48,0,0,0,60,56.28a33.63,33.63,0,0,1,4.2,1.78c.33.19.36.36.42.76s.11,2.46.17,4.39Z" />
    <path d="M46.45,13.7a8.37,8.37,0,0,0-8.25,6.88H17.27a1.5,1.5,0,1,0,0,3h3.1v5h3v-5h2.87v5h3v-5h8.91a8.37,8.37,0,1,0,8.23-9.88Zm0,13.63A5.32,5.32,0,1,1,51.83,22,5.36,5.36,0,0,1,46.45,27.33Z" />
  </g>
  <rect x="0.36" y="0.36" width="71.28" height="71.28" fill="none"/>
</svg>
