<?xml version="1.0" encoding="UTF-8"?>
<svg xmlns="http://www.w3.org/2000/svg" viewBox="0 0 72 72">
      <path d="M32.55,10.32V44.15c-7.55-.6-13.52-5.03-13.52-10.28,0-4.94,5.31-9.05,12.29-10.01l.03-4.28c-10.54,.99-19.03,7.01-19.03,14.29s9.19,13.98,20.19,14.61c.02,0,.05,0,.05,0l6.68-3.14V6.91l-6.68,3.41Z" />
      <path d="M47.35,26.38c-1.72-1.17-4.14-1.91-6.93-2.32v-4.27c4.68,.56,8.98,1.77,12.11,3.67l3.32-1.93,.95,9.74-13.08-2.83,3.62-2.06Z" />
      <path d="M7.69,57.33c0-2.14,.57-3.81,1.72-5.02s2.63-1.81,4.45-1.81c1.19,0,2.26,.28,3.22,.85s1.68,1.36,2.18,2.38c.5,1.02,.75,2.17,.75,3.46s-.26,2.48-.79,3.51-1.27,1.81-2.24,2.34-2.01,.8-3.13,.8c-1.21,0-2.3-.29-3.25-.88s-1.68-1.39-2.17-2.4-.74-2.09-.74-3.22Zm1.76,.03c0,1.55,.42,2.78,1.25,3.67,.83,.89,1.88,1.34,3.14,1.34s2.34-.45,3.17-1.35c.83-.9,1.24-2.18,1.24-3.84,0-1.05-.18-1.96-.53-2.75s-.87-1.39-1.55-1.82c-.68-.43-1.45-.65-2.3-.65-1.21,0-2.25,.41-3.12,1.24-.87,.83-1.31,2.21-1.31,4.15Z" />
      <path d="M21.29,67.18v-12.91h1.44v1.21c.34-.47,.72-.83,1.15-1.07s.95-.36,1.56-.36c.8,0,1.5,.21,2.11,.62s1.07,.99,1.38,1.74,.47,1.57,.47,2.46c0,.96-.17,1.81-.51,2.58-.34,.76-.84,1.35-1.49,1.76s-1.34,.61-2.06,.61c-.53,0-1-.11-1.42-.33s-.76-.5-1.03-.84v4.54h-1.58Zm1.43-8.19c0,1.2,.24,2.09,.73,2.66s1.08,.86,1.77,.86,1.3-.3,1.81-.89c.5-.59,.75-1.52,.75-2.76s-.25-2.08-.73-2.67c-.49-.59-1.07-.89-1.75-.89s-1.27,.31-1.79,.94c-.52,.63-.78,1.55-.78,2.75Z" />
      <path d="M36.97,60.6l1.63,.2c-.26,.96-.74,1.7-1.43,2.22s-1.59,.79-2.67,.79c-1.37,0-2.45-.42-3.25-1.26-.8-.84-1.2-2.02-1.2-3.54s.4-2.79,1.21-3.66,1.86-1.3,3.15-1.3,2.27,.42,3.06,1.27,1.19,2.04,1.19,3.59c0,.09,0,.23,0,.42h-6.96c.06,1.03,.35,1.81,.87,2.36s1.17,.82,1.95,.82c.58,0,1.08-.15,1.49-.46s.74-.79,.98-1.46Zm-5.19-2.56h5.21c-.07-.79-.27-1.37-.6-1.77-.5-.61-1.16-.91-1.96-.91-.73,0-1.34,.24-1.83,.73s-.77,1.14-.82,1.95Z" />
      <path d="M39.87,63.6v-9.33h1.42v1.33c.69-1.03,1.68-1.54,2.97-1.54,.56,0,1.08,.1,1.55,.3,.47,.2,.82,.47,1.06,.8s.4,.72,.49,1.17c.06,.29,.09,.81,.09,1.54v5.74h-1.58v-5.68c0-.64-.06-1.13-.18-1.45s-.34-.57-.66-.76-.68-.29-1.1-.29c-.67,0-1.26,.21-1.75,.64s-.73,1.24-.73,2.43v5.1h-1.58Z" />
      <path d="M49.66,63.6v-12.88h1.71v12.88h-1.71Z" />
      <path d="M53.65,63.6v-12.88h4.44c1,0,1.77,.06,2.29,.18,.74,.17,1.37,.48,1.89,.92,.68,.57,1.19,1.31,1.52,2.2s.51,1.91,.51,3.06c0,.98-.11,1.85-.34,2.6s-.52,1.38-.88,1.88-.75,.88-1.17,1.17c-.43,.28-.94,.5-1.54,.65s-1.29,.22-2.07,.22h-4.65Zm1.71-1.52h2.75c.85,0,1.52-.08,2-.24,.48-.16,.87-.38,1.16-.67,.4-.4,.72-.95,.95-1.63,.22-.68,.34-1.51,.34-2.48,0-1.35-.22-2.38-.66-3.11s-.98-1.21-1.61-1.45c-.46-.18-1.19-.26-2.21-.26h-2.71v9.84Z" />
    <rect x=".36" y=".53" width="71.28" height="71.28" fill="none"/>
</svg>