<svg xmlns="http://www.w3.org/2000/svg" viewBox="0 0 71.84 72">
  <g>
    <path d="M33.11,26.69a.5.5,0,0,0-.46-.31H28.42V18.62a.5.5,0,0,0-.5-.5H22.85a.5.5,0,0,0-.5.5v7.76H18.09a.5.5,0,0,0-.46.31.51.51,0,0,0,.11.54L25,34.53a.51.51,0,0,0,.35.15.55.55,0,0,0,.36-.15L33,27.23A.47.47,0,0,0,33.11,26.69Z" />
    <path d="M33.11,47.42a.5.5,0,0,0-.46-.31H28.42V39.34a.51.51,0,0,0-.5-.5H22.85a.51.51,0,0,0-.5.5v7.77H18.09a.5.5,0,0,0-.46.31.51.51,0,0,0,.11.54L25,55.26a.5.5,0,0,0,.35.14.54.54,0,0,0,.36-.14L33,48A.48.48,0,0,0,33.11,47.42Z" />
    <path d="M49.64,55.9H44.58a1,1,0,0,1-1-1V47.64H39.84a1,1,0,0,1-.92-.62,1,1,0,0,1,.22-1.08l7.27-7.3a1,1,0,0,1,1.42,0l7.28,7.3a1,1,0,0,1-.71,1.7H50.64V54.9A1,1,0,0,1,49.64,55.9Zm-4.06-2h3.06V46.64a1,1,0,0,1,1-1H52l-4.87-4.88-4.87,4.88h2.33a1,1,0,0,1,1,1Z" />
    <path d="M49.64,35.18H44.58a1,1,0,0,1-1-1V26.91H39.84a1,1,0,0,1-.7-1.7l7.27-7.3a1,1,0,0,1,1.42,0l7.28,7.3a1,1,0,0,1-.71,1.7H50.64v7.27A1,1,0,0,1,49.64,35.18Zm-4.06-2h3.06V25.91a1,1,0,0,1,1-1H52L47.12,20l-4.87,4.88h2.33a1,1,0,0,1,1,1Z" />
    <path d="M54.9,64.49H17.33c-5.7,0-9.54-3.82-9.54-9.5V16.93c0-5.68,3.84-9.5,9.54-9.5H54.9c5.71,0,9.54,3.82,9.54,9.5V55C64.44,60.67,60.61,64.49,54.9,64.49ZM17.33,10.43c-4,0-6.54,2.49-6.54,6.5V55c0,4,2.51,6.5,6.54,6.5H54.9c4,0,6.54-2.49,6.54-6.5V16.93c0-4-2.51-6.5-6.54-6.5Z" />
  </g>
  <rect x="-0.05" y="0.36" width="71.28" height="71.28" fill="none"/>
</svg>
