<svg xmlns="http://www.w3.org/2000/svg" viewBox="0 0 72 72">
  <g>
    <path d="M63,7.67H9.12a1.5,1.5,0,0,0-1.5,1.5V54.24a3.1,3.1,0,0,0,3.1,3.1h7.85v2.51a1.63,1.63,0,0,0,.83,1.43A33.86,33.86,0,0,0,35.93,65.2a33.86,33.86,0,0,0,16.61-4,1.64,1.64,0,0,0,.83-1.43V57.34h8a3.1,3.1,0,0,0,3.1-3.1V9.17A1.5,1.5,0,0,0,63,7.67Zm-1.5,3V23C50.3,23,45,23,42.48,23a11.57,11.57,0,0,0-1.6-.94V14.83a1,1,0,0,0-1-1H31.82a1,1,0,0,0-1,1v7.31a11.83,11.83,0,0,0-1.46.89C17.53,23,12.65,23,10.62,23V10.67ZM43.91,37.15a39.19,39.19,0,0,0-15.95,0v-5a7.92,7.92,0,0,1,2.86-6.11v6.34a1,1,0,0,0,1,1h8.06a1,1,0,0,0,1-1V25.94a7.94,7.94,0,0,1,3,6.25ZM32.82,31.42V15.83h6.06V31.42ZM10.72,54.34a.09.09,0,0,1-.1-.1V25c2.79,0,10.11,0,16.59,0a11.27,11.27,0,0,0-2.55,7.17V38a27,27,0,0,0-5.26,2.26,1.63,1.63,0,0,0-.83,1.43V54.34Zm39.35,4.49A31.37,31.37,0,0,1,35.93,61.9a31.51,31.51,0,0,1-14.06-3V42.67a31.37,31.37,0,0,1,14.06-3A31.37,31.37,0,0,1,50.07,42.7Zm11.3-4.49h-8V41.72a1.64,1.64,0,0,0-.83-1.43A27.11,27.11,0,0,0,47.21,38v-5.8a11.26,11.26,0,0,0-2.6-7.2C49,25,56,25,61.47,25v29.2A.1.1,0,0,1,61.37,54.34Z" />
    <circle cx="35.82" cy="18.54" r="1.25" />
    <circle cx="35.82" cy="28.67" r="1.25" />
  </g>
  <rect x="0.36" y="0.36" width="71.28" height="71.28" fill="none"/>
</svg>
