<svg xmlns="http://www.w3.org/2000/svg" viewBox="0 0 72 72">
  <g>
    <g>
      <path d="M62.69,64.69H56v-4h4.69V56h4v6.69A2,2,0,0,1,62.69,64.69Z" />
      <path d="M50.24,64.69H38.73v-4H50.24ZM33,64.69H21.45v-4H33Z" />
      <path d="M15.69,64.69H9a2,2,0,0,1-2-2V56h4v4.69h4.69Z" />
      <path d="M11,50.24H7V38.72h4ZM11,33H7V21.45h4Z" />
      <path d="M11,15.69H7V9A2,2,0,0,1,9,7h6.69v4H11Z" />
      <path d="M50.25,11H38.73V7H50.25ZM33,11H21.45V7H33Z" />
      <path d="M64.69,15.69h-4V11H56V7h6.69a2,2,0,0,1,2,2Z" />
      <path d="M64.69,50.24h-4V38.72h4Zm0-17.28h-4V21.45h4Z" />
    </g>
    <path d="M28.66,44.87V25.27h4.11a14.91,14.91,0,0,1,4.67.59,8.77,8.77,0,0,1,3.34,1.94,9.36,9.36,0,0,1,3,7.27,9.33,9.33,0,0,1-3.16,7.32,9.21,9.21,0,0,1-3.33,1.94,15.29,15.29,0,0,1-4.61.54Zm3-2.78H33a11.1,11.1,0,0,0,3.31-.41,6.84,6.84,0,0,0,2.39-1.41,6.69,6.69,0,0,0,2.18-5.2,6.84,6.84,0,0,0-2.15-5.23A8.21,8.21,0,0,0,33,28.05H31.62Z"/>
  </g>
  <rect x="0.36" y="0.36" width="71.28" height="71.28" fill="none"/>
</svg>
