<svg xmlns="http://www.w3.org/2000/svg" viewBox="0 0 72 72">
  <g>
    <path d="M53.46,50.35l5.13-5.13a1,1,0,0,0,0-1.39,1,1,0,0,0-1.4,0L52.07,49l-5.13-5.13a1,1,0,0,0-1.39,0,1,1,0,0,0,0,1.39l5.13,5.13-5.13,5.13a1,1,0,0,0,.69,1.68,1,1,0,0,0,.7-.29l5.13-5.13,5.12,5.13a1,1,0,0,0,1.4,0,1,1,0,0,0,0-1.39Z" />
    <path d="M65.81,41.78c-.44-.25-.89-.48-1.36-.71V9.17A1.5,1.5,0,0,0,63,7.67H9.1a1.5,1.5,0,0,0-1.5,1.5V54.24a3.1,3.1,0,0,0,3.1,3.1H38.28v.28A1.32,1.32,0,0,0,39,58.78,27.41,27.41,0,0,0,52.35,62a27.5,27.5,0,0,0,13.46-3.2,1.35,1.35,0,0,0,.67-1.16V42.94A1.35,1.35,0,0,0,65.81,41.78Zm-13.46-3.2a32.19,32.19,0,0,0-5.16.41v-6.8a11.26,11.26,0,0,0-2.6-7.2C49,25,55.93,25,61.45,25V39.91A30.5,30.5,0,0,0,52.35,38.58Zm9.1-27.91V23C50.28,23,45,23,42.46,23a11.57,11.57,0,0,0-1.6-.94V14.83a1,1,0,0,0-1-1H31.8a1,1,0,0,0-1,1v7.31a11.83,11.83,0,0,0-1.46.89C17.51,23,12.63,23,10.6,23V10.67ZM38.86,15.83V31.42H32.8V15.83ZM10.7,54.34a.09.09,0,0,1-.1-.1V25c2.79,0,10.11,0,16.59,0a11.27,11.27,0,0,0-2.55,7.17V42.93a1.65,1.65,0,1,0,3.3,0V32.19A7.88,7.88,0,0,1,30.8,26.1v6.32a1,1,0,0,0,1,1h8.06a1,1,0,0,0,1-1V25.94a7.94,7.94,0,0,1,3,6.25v7.53a22.34,22.34,0,0,0-4.93,2,1.32,1.32,0,0,0-.68,1.16V54.34Zm53.1,2.45a25.31,25.31,0,0,1-11.45,2.49A25.5,25.5,0,0,1,41,56.83V43.7a25.5,25.5,0,0,1,11.39-2.45A25.44,25.44,0,0,1,63.8,43.73Z" />
    <circle cx="35.8" cy="18.54" r="1.25" />
    <circle cx="35.8" cy="28.67" r="1.25" />
  </g>
  <rect x="0.36" y="0.36" width="71.28" height="71.28" fill="none"/>
</svg>
