<?xml version="1.0" encoding="UTF-8"?>
<svg xmlns="http://www.w3.org/2000/svg" viewBox="0 0 72 72">
  <path d="M62,34.16h-13.12v-5.71c0-.55-.45-1-1-1h-14.42v-5.14h6.59c.83,0,1.5-.67,1.5-1.5V8.36c0-.83-.67-1.5-1.5-1.5h-14.99c-.83,0-1.5,.67-1.5,1.5v12.44c0,.83,.67,1.5,1.5,1.5h6.4v5.14h-14.42c-.55,0-1,.45-1,1v5.42h-6.47c-.83,0-1.5,.67-1.5,1.5v12.44c0,.83,.67,1.5,1.5,1.5h14.99c.83,0,1.5-.67,1.5-1.5v-12.44c0-.83-.67-1.5-1.5-1.5h-6.51v-4.42h28.85v4.71h-13.12c-.83,0-1.5,.67-1.5,1.5v26.69c0,.83,.67,1.5,1.5,1.5h28.24c.83,0,1.5-.67,1.5-1.5v-26.69c0-.83-.67-1.5-1.5-1.5ZM26.56,9.86h11.99v9.44h-11.99V9.86Zm-3.51,36.44H11.06v-9.44h11.99v9.44Zm37.45,14.55h-25.24v-23.69h25.24v23.69Z" />
  <path d="M45.17,56.59c-.53,0-1.04-.21-1.41-.59l-5.81-5.81c-.78-.78-.78-2.05,0-2.83,.78-.78,2.05-.78,2.83,0l4.36,4.36,9.64-10.03c.76-.8,2.03-.82,2.83-.06,.8,.77,.82,2.03,.06,2.83l-11.05,11.5c-.37,.39-.88,.61-1.42,.61h-.02Z" />
  <rect x=".36" y=".36" width="71.28" height="71.28" fill="none"/>
</svg>