<?xml version="1.0" encoding="UTF-8"?>
<svg xmlns="http://www.w3.org/2000/svg" viewBox="0 0 72 72">
    <polygon points="34.63 42.27 28.13 35.76 30.25 33.64 34.63 38.02 43.7 28.96 45.82 31.08 34.63 42.27" />
    <path d="M63.55,23.76h-10.62c-.17-.4-.49-.74-.93-.87l-5.26-1.6v-1.34h-2.41v-.85h5.33c.55,0,1-.45,1-1V7.9c0-.55-.45-1-1-1h-12.62c-.55,0-1,.45-1,1v10.19c-.16,0-.31,.01-.47,.06l-10.68,3.26v-2.83c0-.55-.45-1-1-1H9.03c-.55,0-1,.45-1,1v12c0,.55,.45,1,1,1h6.41v1.35h-2.87v2h7.47l.27,2.55c.36,2.99,.72,5.05,1.16,6.69,.12,.43,.31,.87,.56,1.32H11.74c-.55,0-1,.45-1,1v10.2c0,.55,.45,1,1,1h5.3v.85h-2.44v2h6.85v-2h-2.41v-.85h5.33c.55,0,1-.45,1-1v-7.47c2.19,1.82,5.3,3.82,9.4,6.05,.22,.12,.4,.21,.5,.28,.23,.13,.48,.2,.74,.2s.51-.07,.74-.2c.11-.06,.28-.15,.5-.28,2.21-1.2,4.12-2.33,5.76-3.4v6.48c0,.55,.45,1,1,1h6.44v1.35h-2.83v2h7.71v-2h-2.87v-1.35h6.41c.55,0,1-.45,1-1v-12c0-.55-.45-1-1-1h-8.79c.21-.4,.36-.79,.47-1.17,.44-1.63,.8-3.7,1.16-6.72l.16-1.49h4.37v.85h-2.44v2h6.85v-2h-2.41v-.85h5.33c.55,0,1-.45,1-1v-10.2c0-.55-.45-1-1-1Zm-23.99-4.66h2.77v.84l-2.77-.84Zm-1.53-10.2h10.62v8.2h-10.62V8.9Zm-20.59,24.02v-1.35h2.25l.14,1.35h-2.39Zm2.57-10.03c-.69,.21-1.13,.88-1.05,1.59l.53,5.09H10.03v-10h12.85v2.44l-2.88,.88Zm-1.97,32.8h-5.3v-8.2h10.62v8.2h-5.33Zm17.97-3.16c-9.36-5.11-11.31-7.92-11.64-9.14-.4-1.5-.74-3.43-1.08-6.25l-1.23-11.74,13.94-4.25,13.92,4.24v.17l-1.21,11.55c-.34,2.85-.68,4.78-1.08,6.27-.33,1.22-2.28,4.03-11.64,9.14Zm21.86-5.19v10h-12.85v-6.85c1.52-1.11,2.72-2.15,3.62-3.15h9.23Zm4.69-13.38h-10.48l.86-8.2h9.63v8.2Z" />
    <rect y=".72" width="71.28" height="71.28" fill="none"/>
</svg>