<svg xmlns="http://www.w3.org/2000/svg" viewBox="0 0 72 72">
  <path d="M64,8.05H49.1a1,1,0,0,0-1,1v5.11H43V9.05a1,1,0,0,0-1-1H27.14a1,1,0,0,0-1,1v5.11H13.94a1,1,0,0,0-1,1V30.08H6.58a1,1,0,0,0-1,1v12a1,1,0,0,0,1,1H13v1.36H10.12v2h7.71v-2H15V44.08h6.45a1,1,0,0,0,1-1V38.41h7.48V55.82a1,1,0,0,0,1,1H45.83v3.53H40.55v2H53v-2h-5.2V56.82h15a1,1,0,0,0,1-1V30.7a1,1,0,0,0-1-1H30.92a1,1,0,0,0-1,1v5.71H22.44V31.08a1,1,0,0,0-1-1h-6.5V16.16h11.2v4.89a1,1,0,0,0,1,1h6.41V23.4H30.68v2h7.7v-2H35.55V22.05H42a1,1,0,0,0,1-1V16.16H48.1v4.89a1,1,0,0,0,1,1h6.41V23.4H52.64v2h7.7v-2H57.51V22.05H64a1,1,0,0,0,1-1v-12A1,1,0,0,0,64,8.05Zm-32,23.65H61.81V54.82H56.46c0-1.14-.09-2.75-.12-3a1.42,1.42,0,0,0-.75-1.19c-2-1.06-4.41-1.64-5.24-2.27a4.86,4.86,0,0,1-.65-2.28c0-.52.68-.3.8-1.27a3.35,3.35,0,0,1,.4-1,3.47,3.47,0,0,0,.51-1.6c0-.58-.15-.46-.22-1A9.45,9.45,0,0,1,51,39c0-1.28-2.45-2.89-4-2.54-2.39.53-2.11-.07-2.82.38a3.09,3.09,0,0,0-1.21,1.7,9,9,0,0,0-.39,2.84c0,.73-.12.58-.12,1.17a2.61,2.61,0,0,0,.51,1.38c.19.29.53.42.53.61,0,.89.7,1,.74,1.43a5.19,5.19,0,0,1-.66,2.47c-.83.63-3.66,1.13-5.61,2.23a1.35,1.35,0,0,0-.75,1.19c0,.2-.09,1.81-.12,3H31.92ZM20.44,42.08H7.58v-10H20.44ZM41,20.05H28.14v-10H41Zm22,0H50.1v-10H63Z"  fill-rule="evenodd"/>
  <rect x="0.36" y="0.36" width="71.28" height="71.28" fill="none"/>
</svg>
