<svg xmlns="http://www.w3.org/2000/svg" viewBox="0 0 72 72">
  <path d="M62,30.24H31.84a3.61,3.61,0,0,0-3.61,3.61V40.6H22V35.27a1,1,0,0,0-1-1h-6.5V15.35h11.2v4.88a1,1,0,0,0,1,1h6.41v1.36H30.2v2h7.71v-2H35.07V21.23h6.44a1,1,0,0,0,1-1V15.35h5.11v4.88a1,1,0,0,0,1,1H55v1.36H52.16v2h7.71v-2H57V21.23h6.44a1,1,0,0,0,1-1v-12a1,1,0,0,0-1-1H48.62a1,1,0,0,0-1,1v5.11H42.51V8.24a1,1,0,0,0-1-1H26.66a1,1,0,0,0-1,1v5.11H13.46a1,1,0,0,0-1,1V34.27H6.11a1,1,0,0,0-1,1v12a1,1,0,0,0,1,1h6.41v1.35H9.65v2h7.7v-2H14.52V48.27H21a1,1,0,0,0,1-1V42.6h6.27V55.34A3.61,3.61,0,0,0,31.84,59H62a3.62,3.62,0,0,0,3.62-3.61V33.85A3.62,3.62,0,0,0,62,30.24Zm-12.41-21H62.47v10H49.62Zm-22,0H40.51v10H27.66Zm-7.7,37H7.11v-10H20Zm11.88-13H62a.61.61,0,0,1,.62.61v1L46.86,48.32,31.23,35V33.85A.61.61,0,0,1,31.84,33.24ZM62,56H31.84a.61.61,0,0,1-.61-.61V38.93l14.66,12.5a1.5,1.5,0,0,0,2,0L62.65,38.8V55.34A.62.62,0,0,1,62,56Z" />
  <rect x="0.36" y="0.36" width="71.28" height="71.28" fill="none"/>
</svg>
