<?xml version="1.0" encoding="utf-8"?>
<svg xmlns="http://www.w3.org/2000/svg" viewBox="0 0 72 72">
<path d="M65.6,64.2l-8.8-9.3c3.1-3.7,3.9-8.7,2.1-13.2c0-0.1,0-0.2,0-0.3V10.7c0-1-0.8-1.7-1.7-1.7H24.8c-0.4,0-0.8,0.1-1.2,0.4
	l-12,10c-0.3,0.2-0.5,0.5-0.6,0.9c-0.1,0.2-0.2,0.5-0.2,0.8v33.5c0,1,0.8,1.7,1.7,1.7h25.1h0.2c4.5,4.2,11.3,4.7,16.4,1.2l8.8,9.3
	c0.7,0.7,1.8,0.7,2.4,0C66.2,66,66.2,65,65.6,64.2L65.6,64.2z M37.1,46.6c0-5.3,4.3-9.6,9.6-9.6h0.7v13.9h-9.3
	C37.5,49.6,37.1,48.1,37.1,46.6z M48.5,33.7V21.9l6.9-6.8v21.9C53.5,35.2,51.1,34.1,48.5,33.7z M49.1,37.3c2.8,0.7,5.1,2.7,6.3,5.3
	l-6.3,6.9L49.1,37.3z M25.4,12.4h27.8l-6.9,6.8H17.1L25.4,12.4z M14.3,22.7h30.8v11c-6.6,0.8-11.5,6.3-11.5,13
	c0,2.1,0.5,4.2,1.5,6.1H14.3L14.3,22.7z M39.2,52.6h9c0.4,0,0.7-0.2,0.8-0.5l0,0l7-7.6c0.2,0.7,0.2,1.4,0.2,2.1
	c0,5.3-4.3,9.6-9.6,9.6C43.8,56.2,41,54.9,39.2,52.6L39.2,52.6z"/>
</svg>
