<svg xmlns="http://www.w3.org/2000/svg" viewBox="0 0 72 72">
  <path d="M59.81,60.43l-7.65-8.08A11.27,11.27,0,0,0,54,40.88a.85.85,0,0,0,0-.23V13.89a1.5,1.5,0,0,0-1.5-1.5H24.35a1.52,1.52,0,0,0-1,.34L12.88,21.38a1.51,1.51,0,0,0-.5.78,1.5,1.5,0,0,0-.16.67V51.92a1.5,1.5,0,0,0,1.5,1.5H35.55l.16,0a11.26,11.26,0,0,0,14.24,1l7.68,8.11a1.5,1.5,0,0,0,2.18-2.06ZM35.08,45.11a8.36,8.36,0,0,1,8.35-8.35l.61,0V48.84H36A8.34,8.34,0,0,1,35.08,45.11ZM45,33.89V23.6L51,17.7v19A11.26,11.26,0,0,0,45,33.89Zm.5,3.15A8.39,8.39,0,0,1,51,41.66l-5.49,6ZM24.89,15.39H49.05l-6,5.94H17.66Zm-9.67,8.94H42v9.52a11.36,11.36,0,0,0-10,11.26,11.21,11.21,0,0,0,1.33,5.31H15.22Zm21.71,26h7.86a.74.74,0,0,0,.69-.47h0l6.07-6.58a8.48,8.48,0,0,1,.21,1.83,8.34,8.34,0,0,1-14.85,5.23Z" />
  <rect x="0.36" y="0.36" width="71.28" height="71.28" fill="none"/>
</svg>
