<svg xmlns="http://www.w3.org/2000/svg" viewBox="0 0 72 72">
  <path d="M64.12,22.05a1,1,0,0,0,1-1v-12a1,1,0,0,0-1-1H49.27a1,1,0,0,0-1,1v5.11H43.16V9.05a1,1,0,0,0-1-1H27.31a1,1,0,0,0-1,1v5.11H14.11a1,1,0,0,0-1,1V30.08H6.76a1,1,0,0,0-1,1v12a1,1,0,0,0,1,1h6.41v1.36H10.3v2H18v-2H15.17V44.08h6.44a1,1,0,0,0,1-1V38.41h7.33v.07a3.68,3.68,0,0,0-.12,1,4.87,4.87,0,0,0,1,2.66l.37.51a12.66,12.66,0,0,1,1.41,2.14,8.5,8.5,0,0,1-.69,3,16,16,0,0,1-2.64,1.32,41.8,41.8,0,0,0-4.12,2,3,3,0,0,0-1.62,2.41v.11c-.08.5-.21,4.73-.25,6a1,1,0,0,0,1,1H51.27a1,1,0,0,0,.7-.3,1,1,0,0,0,.28-.7c0-1.29-.17-5.52-.25-6.07a3.1,3.1,0,0,0-1.65-2.48c-1.22-.66-2.37-1.2-3.41-1.67l1.71-.9a17.39,17.39,0,0,0,1.84-1c.68-.52,1.09-2.78,1-3.47a5.85,5.85,0,0,0-1.36-2.37c-.1-.15-.19-.26-.24-.33A2.45,2.45,0,0,1,49.44,40a1.5,1.5,0,0,1,0-.44,3.17,3.17,0,0,0,.1-.93v-.15a10.24,10.24,0,0,1,.44-3,3.07,3.07,0,0,1,1.13-1.6.44.44,0,0,1,.41-.1,7.85,7.85,0,0,0,2.69-.27,4,4,0,0,1,2.91,1,2.29,2.29,0,0,1,1,1.41,10.1,10.1,0,0,0,.2,2.31c0,.14.06.29.1.51a2.24,2.24,0,0,0,.18.66.62.62,0,0,1,.07.38,3.49,3.49,0,0,1-.49,1.52l-.09.13a7,7,0,0,0-1.43,2.8c0,.4.3,2.84,1,3.23a15.31,15.31,0,0,0,2.55,1.4c.77.37,1.65.8,2.61,1.32a1,1,0,0,1,.55.92c0,.23.1,2,.15,3.78H56.25a.65.65,0,0,0,0,1.3h8a.68.68,0,0,0,.47-.19.65.65,0,0,0,.18-.47c0-1-.13-4.23-.19-4.67A2.22,2.22,0,0,0,63.5,49c-1-.54-1.88-1-2.66-1.35a15.56,15.56,0,0,1-2.31-1.25A6.18,6.18,0,0,1,58,44.27a7,7,0,0,1,1.21-2.15L59.3,42a4.7,4.7,0,0,0,.7-2.24,1.88,1.88,0,0,0-.17-.91,1.15,1.15,0,0,1-.09-.32c0-.26-.07-.43-.11-.59a9.7,9.7,0,0,1-.17-2.06A3.32,3.32,0,0,0,58,33.46a5.26,5.26,0,0,0-4-1.21,6.34,6.34,0,0,1-2.29.24,1.67,1.67,0,0,0-1.22.3,4.34,4.34,0,0,0-1.71,2.39,11.56,11.56,0,0,0-.47,3.34v.15a2.2,2.2,0,0,1-.06.62,2.74,2.74,0,0,0-.08.75,3.64,3.64,0,0,0,.7,2l.28.39a9.1,9.1,0,0,1,1.11,1.7,6.83,6.83,0,0,1-.53,2.33c-.15.12-1,.55-1.65.89-.89.47-1.88,1-2.56,1.4a12.23,12.23,0,0,1-1.92-1A8.68,8.68,0,0,1,42.92,45a9.87,9.87,0,0,1,1.56-2.75l.11-.16a6.17,6.17,0,0,0,.95-3,2.7,2.7,0,0,0-.24-1.25,1,1,0,0,1-.11-.38c0-.34-.09-.56-.14-.78A11.78,11.78,0,0,1,44.83,34a4.51,4.51,0,0,0-2-3.24c-1.27-1-3.42-2-5.31-1.59a8.58,8.58,0,0,1-3,.31,2.26,2.26,0,0,0-1.67.4,5.85,5.85,0,0,0-2.28,3.2A17.9,17.9,0,0,0,30,36.41H22.61V31.08a1,1,0,0,0-1-1h-6.5V16.16h11.2v4.89a1,1,0,0,0,1,1h6.41V23.4H30.85v2h7.7v-2H35.72V22.05h6.44a1,1,0,0,0,1-1V16.16h5.11v4.89a1,1,0,0,0,1,1h6.41V23.4H52.81v2h7.7v-2H57.68V22.05ZM31.82,38.93A4.55,4.55,0,0,0,32,37.7v-.2a13.37,13.37,0,0,1,.56-3.91,3.89,3.89,0,0,1,1.43-2l.23-.13.22,0a10.2,10.2,0,0,0,3.55-.35,5,5,0,0,1,3.69,1.23c.91.72,1.25,1.39,1.25,1.74a14,14,0,0,0,.26,3c0,.18.08.37.12.65a3,3,0,0,0,.26.9.82.82,0,0,1,.07.45A4.39,4.39,0,0,1,43,41l-.1.15c-1.31,1.94-1.86,3-1.9,3.73,0,.54.37,3.55,1.38,4.31A18,18,0,0,0,45.7,51c1.12.5,2.39,1.08,3.72,1.8a1.24,1.24,0,0,1,.66,1.11c0,.3.12,2.53.19,4.78H25.19c.07-2.25.15-4.48.19-4.78l0-.14a1,1,0,0,1,.65-1A42,42,0,0,1,30,50.86a15.67,15.67,0,0,0,3.1-1.59c1-.73,1.46-3.85,1.39-4.64s-.67-1.66-1.79-3.15l-.31-.43a3,3,0,0,1-.62-1.57A2.08,2.08,0,0,1,31.82,38.93ZM20.61,32.08v10H7.76v-10Zm20.55-12H28.31v-10H41.16Zm15.52,0H50.27v-10H63.12v10Z" />
  <rect x="0.42" y="0.36" width="71.28" height="71.28" fill="none"/>
</svg>
