<svg xmlns="http://www.w3.org/2000/svg" viewBox="0 0 72 72">
  <rect x="0.36" y="0.36" width="71.28" height="71.28" fill="none"/>
  <path d="M36,7.69A28.32,28.32,0,1,0,64.31,36,28.35,28.35,0,0,0,36,7.69Zm-.79,3.85H29.48a25.15,25.15,0,0,1,5.72-.83Zm0,1.5v1.73h-13A25.45,25.45,0,0,1,25.35,13Zm0,3.23V18h-17c.62-.6,1.27-1.18,1.94-1.72Zm0,3.22v1.73H15.46c.43-.6.88-1.17,1.36-1.73Zm0,3.23v1.73H13.48c.3-.59.62-1.17,1-1.73Zm0,3.23v1.72H12.09c.2-.58.43-1.16.67-1.72Zm0,3.22V30.9h-24c.12-.59.27-1.16.43-1.73Zm0,3.23v1.72H10.75c0-.58.1-1.15.18-1.72Zm0,3.22v2H10.73c0-.53-.06-1.06-.06-1.6,0-.13,0-.26,0-.39ZM10.87,39.11H35.2v1.72H11.14C11,40.26,10.94,39.69,10.87,39.11Zm.6,3.22H35.2v19A25.36,25.36,0,0,1,11.47,42.33Zm25.23,19V10.71a25.31,25.31,0,0,1,0,50.6Z" />
</svg>
