<svg xmlns="http://www.w3.org/2000/svg" viewBox="0 0 72 72">
    <g>
      <path d="M56.37,21.73a1.56,1.56,0,0,0-1.55-1.55l-10.49-.09a1.52,1.52,0,0,0-1.52.95,1.55,1.55,0,0,0,.34,1.71l2.31,2.31c-1.77,1.75-3.57,3.59-5.28,5.6l0-12.86h3.3a1.56,1.56,0,0,0,1.1-2.67l-7.53-7.4a1.58,1.58,0,0,0-2.19,0l-7.53,7.4a1.52,1.52,0,0,0-.35,1.7,1.54,1.54,0,0,0,1.44,1h3.28l0,13c-1.74-2-3.58-3.92-5.38-5.7l2.31-2.31A1.54,1.54,0,0,0,29,21a1.55,1.55,0,0,0-1.45-1L17,20.18a1.57,1.57,0,0,0-1.55,1.55l-.09,10.55a1.56,1.56,0,0,0,.95,1.45A1.59,1.59,0,0,0,18,33.4l2.34-2.35a46.85,46.85,0,0,1,7,8.26A14.07,14.07,0,1,0,46.85,59.38a1.5,1.5,0,1,0-2.29-1.94,11.07,11.07,0,1,1,2.63-7.17,1.5,1.5,0,1,0,3,0,14,14,0,0,0-5.57-11.18,47.58,47.58,0,0,1,6.84-8l2.34,2.34a1.56,1.56,0,0,0,2.67-1.11Zm-4.2,7.2a1,1,0,0,0-1.41,0A52.79,52.79,0,0,0,43,38a14,14,0,0,0-14,.2A52.31,52.31,0,0,0,21,28.93a1,1,0,0,0-1.41,0l-2.28,2.29.08-9,9.05-.09L24.2,24.35a1,1,0,0,0,0,1.42,79.16,79.16,0,0,1,7.69,8.42,1,1,0,0,0,1.12.35,1,1,0,0,0,.68-.95l0-16.78a1,1,0,0,0-.3-.71,1,1,0,0,0-.7-.29H29.52L36,9.47l6.46,6.33H39.2a1,1,0,0,0-1,1l0,16.68a1,1,0,0,0,.68,1A1,1,0,0,0,40,34.09a80.59,80.59,0,0,1,7.62-8.32,1,1,0,0,0,.3-.7,1,1,0,0,0-.3-.72l-2.26-2.26,9,.09.09,9Z" />
      <path d="M40.35,54.82a.94.94,0,0,1-.63-.23L35.37,51a1,1,0,0,1-.36-.77V41.49a1,1,0,0,1,2,0v8.27l4,3.29a1,1,0,0,1,.13,1.41A1,1,0,0,1,40.35,54.82Z" />
    </g>
</svg>
