<svg xmlns="http://www.w3.org/2000/svg" viewBox="0 0 72 72">
  <g>
    <path d="M40.05,52.71a1.12,1.12,0,0,1-.31-.05,1,1,0,0,1-.67-1.3,37.1,37.1,0,0,0,1.31-17.29c-.08-.66-.15-1.22-.19-1.68A3.35,3.35,0,0,0,37,29.09a2.79,2.79,0,0,0-2,.86,3,3,0,0,0-.75,2.28l.08,1c.27,3.38.68,8.49-.17,13.14a1,1,0,0,1-2-.38c.81-4.37.41-9.32.15-12.6l-.08-1a5,5,0,0,1,1.29-3.83A4.8,4.8,0,0,1,37,27a5.42,5.42,0,0,1,5.27,5.19q.06.66.18,1.59A39.36,39.36,0,0,1,41,52,1,1,0,0,1,40.05,52.71Z" />
    <path d="M33.4,65.68a1.06,1.06,0,0,1-.57-.17,1,1,0,0,1-.29-1.43,64.89,64.89,0,0,0,5.08-8.67,1,1,0,0,1,1.87.85,66.85,66.85,0,0,1-5.24,9A1,1,0,0,1,33.4,65.68Z" />
    <path d="M45.87,40.23h-.11a1,1,0,0,1-.91-1.14,33.78,33.78,0,0,0-.42-6.74c-.51-4.18-3.64-7.21-7.46-7.21a7.19,7.19,0,0,0-7.16,7.16,1,1,0,1,1-2,0A9.2,9.2,0,0,1,37,23.09c4.87,0,8.87,3.79,9.51,9a34.52,34.52,0,0,1,.41,7.22A1,1,0,0,1,45.87,40.23Z" />
    <path d="M17.1,59.11a1,1,0,0,1-.7-.28,1,1,0,0,1,0-1.45c8.45-9,8-17.15,7.71-22.53C24,33.88,24,33,24,32.29,24.1,24.82,29.81,19,37,19A1,1,0,0,1,37,21C30.85,21,26.14,25.88,26,32.32c0,.68,0,1.49.08,2.42.3,5.38.79,14.4-8.26,24A1,1,0,0,1,17.1,59.11Z" />
    <path d="M43.21,65.14a1,1,0,0,1-.9-1.54A48,48,0,0,0,49,38.78v-.26a1,1,0,0,1,1-1h0a1,1,0,0,1,1,1v.27a50,50,0,0,1-6.94,25.79A1,1,0,0,1,43.21,65.14Z" />
    <path d="M38.22,65.89a1,1,0,0,1-.56-.17,1,1,0,0,1-.3-1.43c5.17-7.87,7.08-15.4,7.15-19.45a1,1,0,0,1,1-1h0a1,1,0,0,1,1,1.05c-.08,4.53-2.09,12.31-7.49,20.54A1,1,0,0,1,38.22,65.89Z" />
    <path d="M20.68,61.27A1,1,0,0,1,20,61a1,1,0,0,1-.08-1.45c8.82-9.94,8.58-17,8.42-21.72,0-.74,0-1.43,0-2.06a1.07,1.07,0,0,1,1.05-1,1,1,0,0,1,1,1c0,.6,0,1.26,0,2,.17,5,.43,12.6-8.94,23.16A1.07,1.07,0,0,1,20.68,61.27Z" />
    <path d="M28.66,64.76a1.06,1.06,0,0,1-.67-.24,1,1,0,0,1-.12-1.45c9.94-11.76,9-21.77,8.43-27.75-.11-1.18-.2-2.2-.19-3a1,1,0,0,1,1-1,1,1,0,0,1,1,1c0,.72.08,1.69.18,2.81C38.91,41,39.94,52,29.44,64.4A1,1,0,0,1,28.66,64.76Z" />
    <path d="M49.82,35.45a1,1,0,0,1-1-1c-.1-5.51-2.35-9.76-6.32-12a1,1,0,0,1-.4-1.4,1,1,0,0,1,1.41-.39c4.63,2.59,7.25,7.47,7.37,13.74a1,1,0,0,1-1,1.05Z" />
    <path d="M53.31,49.05h-.09a1,1,0,0,1-.93-1.12,102,102,0,0,0,.62-11.63v-.87C52.91,22.79,44.65,17,37,17A15.21,15.21,0,0,0,22.25,28.68a1,1,0,1,1-2-.53A17.25,17.25,0,0,1,37,15c11.82,0,18,10.29,18,20.45v.86a104,104,0,0,1-.63,11.84A1,1,0,0,1,53.31,49.05Z" />
    <path d="M20.77,42.76h-.19a1,1,0,0,1-.82-1.2,35.16,35.16,0,0,0,.12-6.79c0-.91-.07-1.73-.07-2.37a1,1,0,0,1,2.06,0c0,.62,0,1.41.07,2.28a36.07,36.07,0,0,1-.16,7.25A1,1,0,0,1,20.77,42.76Z" />
    <path d="M49.77,17.4a1,1,0,0,1-.64-.23,19.41,19.41,0,0,0-20-2.64,1,1,0,1,1-.83-1.88,21.5,21.5,0,0,1,22.09,2.92A1,1,0,0,1,50.57,17,1,1,0,0,1,49.77,17.4Z" />
    <path d="M11.48,52.19a1,1,0,0,1-.71-1.78c5-4.73,4.87-11.77,4.76-16.43,0-.61,0-1.17,0-1.68a21.42,21.42,0,0,1,7.63-16.41,1,1,0,1,1,1.32,1.57,19.4,19.4,0,0,0-6.9,14.84c0,.49,0,1,0,1.64.11,4.71.3,12.61-5.41,18A1,1,0,0,1,11.48,52.19Z" />
    <path d="M54.44,60.65a1,1,0,0,1-.44-.1,1,1,0,0,1-.5-1.37c4-8.62,3.67-18,3.46-23,0-.86-.06-1.58-.06-2.14A25.86,25.86,0,0,0,52.83,21.1a1,1,0,0,1,.24-1.43,1,1,0,0,1,1.44.24A27.83,27.83,0,0,1,59,34.05c0,.53,0,1.23.06,2.06.21,5.2.61,14.87-3.65,24A1,1,0,0,1,54.44,60.65Z" />
    <path d="M9.9,47a1,1,0,0,1-.85-1.61c2.52-3.67,2.51-7.37,2.49-11.29a29.56,29.56,0,0,1,.51-6.87c2.77-12,13-20.34,24.92-20.34a1,1,0,1,1,0,2.06C26,8.93,16.61,16.64,14.05,27.68a27.83,27.83,0,0,0-.45,6.39c0,4.06,0,8.26-2.85,12.46A1,1,0,0,1,9.9,47Z" />
    <path d="M14.15,55.82a1,1,0,0,1-.79-1.69c3.53-4.14,4.5-6.05,5.33-8.79a1,1,0,0,1,2,.6c-.9,3-2,5.14-5.73,9.52A1,1,0,0,1,14.15,55.82Z" />
    <path d="M60.17,56a.84.84,0,0,1-.31-.05,1,1,0,0,1-.67-1.29C61,49,61,44,61,37v-1a1,1,0,1,1,2,0v1c0,6.89,0,12.34-1.92,18.35A1,1,0,0,1,60.17,56Z" />
    <path d="M48.7,63.39a1.07,1.07,0,0,1-.43-.09,1,1,0,0,1-.51-1.36c1.93-4.21,3.09-6.75,3.42-8.73a1,1,0,0,1,2,.34c-.38,2.25-1.58,4.88-3.58,9.24A1,1,0,0,1,48.7,63.39Z" />
    <path d="M24.5,63.18a1,1,0,0,1-.7-.27,1,1,0,0,1-.05-1.46c3.61-3.86,6.35-8.34,6.64-10.11a1,1,0,0,1,1.18-.84,1,1,0,0,1,.85,1.18c-.4,2.39-3.55,7.3-7.17,11.18A1,1,0,0,1,24.5,63.18Z" />
    <path d="M61.28,31.09a1,1,0,0,1-1-.94A23.24,23.24,0,0,0,43.79,9.94a1,1,0,0,1-.68-1.29A1,1,0,0,1,44.39,8,25.3,25.3,0,0,1,62.3,30a1,1,0,0,1-.93,1.12Z" />
  </g>
  <rect x="0.36" y="0.36" width="71.28" height="71.28" fill="none"/>
</svg>
