<svg xmlns="http://www.w3.org/2000/svg" viewBox="0 0 72 72">
  <path d="M57.09,64.18a1.5,1.5,0,0,1-.67-.16c-7.86-3.9-15.28-11.08-20.24-19.51C31.21,52.94,23.8,60.12,15.93,64a1.5,1.5,0,0,1-2-.67l-3.74-7.54a1.5,1.5,0,0,1-.08-1.14,1.52,1.52,0,0,1,.76-.87c11.55-5.73,19.61-19.11,19.61-27.53l0-2H22A1.5,1.5,0,0,1,21,21.67L35.12,7.47a1.55,1.55,0,0,1,2.12,0l14.17,14.2a1.5,1.5,0,0,1-1.06,2.56H41.88v2c0,8.43,8.06,21.81,19.61,27.54a1.49,1.49,0,0,1,.68,2l-3.73,7.53A1.52,1.52,0,0,1,57.09,64.18ZM13.52,55.79l2.4,4.85C23.39,56.51,30.54,49,34.84,40.73a1.51,1.51,0,0,1,1.34-.81,1.5,1.5,0,0,1,1.33.81C41.81,49,49,56.51,56.43,60.64l2.41-4.85c-9.7-5.48-20-18.44-20-29.53V22.73a1.5,1.5,0,0,1,1.5-1.5h6.35L36.18,10.65,25.63,21.23h6.31a1.5,1.5,0,0,1,1.5,1.49l0,3.53h0C33.47,37.35,23.22,50.31,13.52,55.79Z" />
  <rect x="0.36" y="0.36" width="71.28" height="71.28" fill="none"/>
</svg>
