<svg xmlns="http://www.w3.org/2000/svg" viewBox="0 0 72 72">
  <g>
    <path d="M51,20.37l-4.83-4.7a1,1,0,0,0-1.41,0L17.15,43.42a1,1,0,0,0-.22.32l-3.39,8.09a1,1,0,0,0,.93,1.38,1,1,0,0,0,.38-.07l8.22-3.39a1,1,0,0,0,.32-.22l2.4-2.41a1,1,0,1,0-1.42-1.41L22.12,48l-5.79,2.38,2.37-5.67L42.21,21.05l3.4,3.3-9.14,9.2A1,1,0,1,0,37.89,35L51,21.79a1,1,0,0,0,.29-.72A1,1,0,0,0,51,20.37Zm-4.3,2.92L43.27,20l2.17-2.19,3.4,3.3Z" />
    <path d="M53.29,64.4H19.12A11.51,11.51,0,0,1,7.62,52.9V18.73a11.51,11.51,0,0,1,11.5-11.5H53.29a11.51,11.51,0,0,1,11.5,11.5V52.9A11.51,11.51,0,0,1,53.29,64.4ZM19.12,10.23a8.51,8.51,0,0,0-8.5,8.5V52.9a8.51,8.51,0,0,0,8.5,8.5H53.29a8.51,8.51,0,0,0,8.5-8.5V18.73a8.51,8.51,0,0,0-8.5-8.5Z" />
    <g>
      <path d="M33,42.83a9.25,9.25,0,0,1-.62,4A2.18,2.18,0,0,1,30.31,48a2.23,2.23,0,0,1-2.17-1.26,10.91,10.91,0,0,1-.62-4.4,9.19,9.19,0,0,1,.62-4,2.17,2.17,0,0,1,2.1-1.18,2.24,2.24,0,0,1,2,.91,4.34,4.34,0,0,1,.62,1.73A18.79,18.79,0,0,1,33,42.83ZM31.53,43a16.33,16.33,0,0,0-.25-3.63c-.16-.6-.5-.9-1-.9a1,1,0,0,0-1,.82A14.85,14.85,0,0,0,29,42.62a12.86,12.86,0,0,0,.26,3.21,1,1,0,0,0,1,.85,1,1,0,0,0,1-.79A10.35,10.35,0,0,0,31.53,43Z" />
      <path d="M35.9,37.3H37l2.26,10.55H37.86l-.39-2.06H35.38L35,47.85H33.61Zm1.36,7.39L37,43q-.31-1.71-.51-3.66c-.07.63-.15,1.27-.25,1.92s-.22,1.34-.36,2.07l-.26,1.35Z" />
      <path d="M40.11,37.3H41.5v7.45a3.56,3.56,0,0,0,.21,1.52.87.87,0,0,0,.83.38.89.89,0,0,0,.82-.33A2.9,2.9,0,0,0,43.57,45V37.3H45V45a3.69,3.69,0,0,1-.53,2.33,2.47,2.47,0,0,1-1.92.69,2.19,2.19,0,0,1-2-.89,4.61,4.61,0,0,1-.4-2.34Z" />
      <path d="M45.75,37.3h4.62v1.24H48.78v9.31H47.39V38.54H45.75Z" />
      <path d="M51.16,37.3h1.42v4.13h2.09V37.3h1.42V47.85H54.67V42.63H52.58v5.22H51.16Z" />
    </g>
  </g>
  <rect x="0.36" y="0.36" width="71.28" height="71.28" fill="none"/>
</svg>
