<?xml version="1.0" encoding="UTF-8"?>
<svg xmlns="http://www.w3.org/2000/svg" viewBox="0 0 72 72">
  <path d="M35.85,64.79c-15.89,0-28.82-12.93-28.82-28.82S19.96,7.15,35.85,7.15s28.82,12.93,28.82,28.82-12.93,28.82-28.82,28.82Zm0-53.64c-13.69,0-24.82,11.13-24.82,24.82s11.13,24.82,24.82,24.82,24.82-11.13,24.82-24.82-11.13-24.82-24.82-24.82Z" />
  <path d="M36.05,54.88c-1.38,0-2.54-.47-3.47-1.4-.93-.93-1.4-2.15-1.4-3.64s.47-2.69,1.4-3.58c.93-.9,2.09-1.34,3.47-1.34s2.54,.45,3.47,1.34c.93,.9,1.4,2.09,1.4,3.58s-.47,2.71-1.4,3.64c-.93,.93-2.09,1.4-3.47,1.4Zm-2.13-14.34l-.9-17.47-.17-6.38h6.38l-.17,6.38-.9,17.47h-4.26Z" />
  <rect x=".36" y=".36" width="71.28" height="71.28" fill="none"/>
</svg>