<svg xmlns="http://www.w3.org/2000/svg" viewBox="0 0 72 72">
  <g>
    <path d="M51,20.37l-4.83-4.7a1,1,0,0,0-1.41,0L17.23,43.42a.85.85,0,0,0-.21.32l-3.4,8.09a1,1,0,0,0,.93,1.38,1,1,0,0,0,.38-.07l8.22-3.39a1.19,1.19,0,0,0,.33-.22l2.39-2.41a1,1,0,1,0-1.42-1.41L22.2,48l-5.79,2.38,2.37-5.67L42.29,21.05l3.4,3.3-9,9a1,1,0,1,0,1.42,1.41l12.9-13a1,1,0,0,0,.29-.72A1,1,0,0,0,51,20.37Zm-4.3,2.92L43.35,20l2.17-2.19,3.4,3.3Z" />
    <path d="M53.38,64.4H19.2A11.51,11.51,0,0,1,7.7,52.9V18.73A11.51,11.51,0,0,1,19.2,7.23H53.38a11.51,11.51,0,0,1,11.5,11.5V52.9A11.51,11.51,0,0,1,53.38,64.4ZM19.2,10.23a8.51,8.51,0,0,0-8.5,8.5V52.9a8.51,8.51,0,0,0,8.5,8.5H53.38a8.51,8.51,0,0,0,8.5-8.5V18.73a8.51,8.51,0,0,0-8.5-8.5Z" />
    <g>
      <path d="M32.48,39a2.71,2.71,0,0,0-.77-.46,2,2,0,0,0-.74-.15,1.22,1.22,0,0,0-.74.21.68.68,0,0,0-.29.57.56.56,0,0,0,.14.39,1.09,1.09,0,0,0,.38.27,2.54,2.54,0,0,0,.53.2l.58.18a3.67,3.67,0,0,1,1.69,1A2.53,2.53,0,0,1,33.79,43a3.33,3.33,0,0,1-.23,1.26,2.69,2.69,0,0,1-.69,1,3.35,3.35,0,0,1-1.1.62,4.56,4.56,0,0,1-1.48.22,5.42,5.42,0,0,1-3.18-1l1-1.89a4.11,4.11,0,0,0,1.05.69,2.52,2.52,0,0,0,1,.23,1.26,1.26,0,0,0,.86-.26.84.84,0,0,0,.28-.6,1,1,0,0,0-.07-.36.76.76,0,0,0-.24-.27,1.81,1.81,0,0,0-.44-.24l-.66-.24a9.44,9.44,0,0,1-.89-.32,2.55,2.55,0,0,1-.78-.46,2.09,2.09,0,0,1-.55-.72,2.56,2.56,0,0,1-.21-1.11,3.16,3.16,0,0,1,.22-1.22,2.8,2.8,0,0,1,.62-.94,2.74,2.74,0,0,1,1-.6,3.58,3.58,0,0,1,1.3-.22,5.35,5.35,0,0,1,1.4.19,6,6,0,0,1,1.41.54Z" />
      <path d="M39.92,44.2H36.56L36,45.77H33.51L37,36.72h2.57L43,45.77H40.46Zm-.62-1.79-1.06-3-1.05,3Z" />
      <path d="M42.87,45.77l1.54-9.05h2.33l1.81,4.83,1.8-4.83h2.33l1.53,9.05H51.87l-.78-5.21L49,45.77H48l-2-5.21-.78,5.21Z" />
      <path d="M57.33,36.72v7.06h2.82v2H55V36.72Z" />
    </g>
  </g>
  <rect x="0.36" y="0.36" width="71.28" height="71.28" fill="none"/>
</svg>
