<svg xmlns="http://www.w3.org/2000/svg" viewBox="0 0 72 72">
  <g>
    <polygon points="28.47 27.94 28.47 25.35 49.43 25.35 49.43 27.94 28.47 27.94 28.47 27.94" />
    <polygon points="28.47 18.43 28.47 15.84 49.43 15.84 49.43 18.42 28.47 18.42 28.47 18.43" />
    <polygon points="28.47 37.46 28.47 34.87 49.43 34.87 49.43 37.45 28.47 37.45 28.47 37.46" />
    <polygon points="28.47 46.97 28.47 44.38 49.43 44.38 49.43 46.97 28.47 46.97 28.47 46.97" />
    <polygon points="28.47 56.49 28.47 53.9 49.43 53.9 49.43 56.49 28.47 56.49 28.47 56.49" />
    <path d="M54.92,64.54H17a4.37,4.37,0,0,1-4.36-4.37V11.33A4.36,4.36,0,0,1,17,7h38a4.37,4.37,0,0,1,4.37,4.36V60.17A4.37,4.37,0,0,1,54.92,64.54ZM17,10.47a.86.86,0,0,0-.86.86V60.17A.87.87,0,0,0,17,61h38a.87.87,0,0,0,.87-.87V11.33a.86.86,0,0,0-.87-.86Z" />
    <path d="M21.37,15a3.29,3.29,0,0,0,.54-.05,1.73,1.73,0,0,0,.47-.15,1.09,1.09,0,0,0,.36-.28.83.83,0,0,0,.2-.41h.71v5.39h-1V15.67H21.37Z" />
    <path d="M24.74,29.14H21.06A2.14,2.14,0,0,1,21.39,28a2.74,2.74,0,0,1,.86-.87c.17-.13.35-.26.54-.38a4.26,4.26,0,0,0,.53-.39,1.83,1.83,0,0,0,.39-.45,1,1,0,0,0,.16-.56,1.8,1.8,0,0,0,0-.31.83.83,0,0,0-.14-.3.7.7,0,0,0-.27-.24.94.94,0,0,0-.47-.1.81.81,0,0,0-.43.1.78.78,0,0,0-.28.29,1.28,1.28,0,0,0-.15.43,2.2,2.2,0,0,0-.06.53h-.88a2.73,2.73,0,0,1,.12-.83,1.92,1.92,0,0,1,.36-.66,1.66,1.66,0,0,1,.58-.43,2.13,2.13,0,0,1,1.62,0,1.54,1.54,0,0,1,.83.94,2.28,2.28,0,0,1,.08.55,1.59,1.59,0,0,1-.1.59,2.27,2.27,0,0,1-.27.48,2.4,2.4,0,0,1-.38.4c-.15.13-.3.24-.45.35l-.46.31c-.16.1-.3.19-.43.29a2.06,2.06,0,0,0-.34.31.72.72,0,0,0-.2.33h2.62Z" />
    <path d="M22.72,35.56a1.53,1.53,0,0,0,.43,0,1.12,1.12,0,0,0,.39-.13.87.87,0,0,0,.27-.27.77.77,0,0,0,.11-.42.69.69,0,0,0-.24-.55.88.88,0,0,0-.6-.21.82.82,0,0,0-.4.09.91.91,0,0,0-.29.26,1,1,0,0,0-.16.35,1.33,1.33,0,0,0-.05.4H21.3a2.36,2.36,0,0,1,.15-.72,2,2,0,0,1,.36-.59,1.55,1.55,0,0,1,.55-.38,1.9,1.9,0,0,1,.73-.14,2.16,2.16,0,0,1,.62.09,1.76,1.76,0,0,1,.55.27,1.27,1.27,0,0,1,.53,1.08,1.36,1.36,0,0,1-.18.71,1.07,1.07,0,0,1-.58.45h0a1.11,1.11,0,0,1,.72.46,1.51,1.51,0,0,1,.26.89,1.41,1.41,0,0,1-.16.69,1.57,1.57,0,0,1-.41.51,1.89,1.89,0,0,1-.61.33,2.19,2.19,0,0,1-.73.12,2.27,2.27,0,0,1-.82-.14,1.71,1.71,0,0,1-.59-.38,1.65,1.65,0,0,1-.35-.59A2.34,2.34,0,0,1,21.2,37h.88a1.18,1.18,0,0,0,.25.82.92.92,0,0,0,.77.33,1.07,1.07,0,0,0,.73-.26.86.86,0,0,0,.3-.71.93.93,0,0,0-.12-.5.83.83,0,0,0-.33-.28,1.48,1.48,0,0,0-.45-.12,4.25,4.25,0,0,0-.51,0Z" />
    <path d="M24.57,46.56h-.7v1.28H23V46.56H20.73v-.87L23,42.45h.83v3.42h.7Zm-3.16-.69H23V43.5h0Z" />
    <circle cx="23" cy="53.06" r="0.9" />
    <circle cx="23" cy="56.68" r="0.9" />
  </g>
  <rect x="0.36" y="0.36" width="71.28" height="71.28" fill="none"/>
</svg>
