<svg xmlns="http://www.w3.org/2000/svg" viewBox="0 0 72 72">
  <path d="M64,50.14a5.33,5.33,0,0,0-2.84-4.29,67.57,67.57,0,0,0-8.71-3.72,28.91,28.91,0,0,1-5.58-2.43,15.72,15.72,0,0,1-1.24-5.06c0-.23.3-1.28,2.89-5.1l.19-.28A11,11,0,0,0,50.35,24a4.57,4.57,0,0,0-.4-2.14,2.18,2.18,0,0,1-.22-.75,12.87,12.87,0,0,0-.26-1.4,21.63,21.63,0,0,1-.39-4.87c0-1.89-1.29-3.89-3.52-5.65S39.5,5.6,36.17,6.34a15.65,15.65,0,0,1-5.42.57,3.8,3.8,0,0,0-2.86.69,10.15,10.15,0,0,0-4,5.62,26.21,26.21,0,0,0-1.12,7.88v.34a5.37,5.37,0,0,1-.14,1.47,6.62,6.62,0,0,0-.2,1.76,8.73,8.73,0,0,0,1.66,4.66l.67.91c.61.81,2.46,3.29,2.6,4a15.14,15.14,0,0,1-1.31,5.57A27.32,27.32,0,0,1,20.52,42a54.51,54.51,0,0,0-9.76,3.88A5,5,0,0,0,8,50l0,.2c-.14.9-.37,9.06-.44,11.54A1.49,1.49,0,0,0,9,63.31h9.64c0,.83-.05,1.62-.06,2a.8.8,0,0,0,.23.6.83.83,0,0,0,.59.25H41.47a.82.82,0,0,0,.59-.25.85.85,0,0,0,.24-.6c0-1-.14-4.5-.21-5a2.52,2.52,0,0,0-1.35-2c-.72-.39-1.38-.71-2-1l.55-.29a14.39,14.39,0,0,0,1.54-.85c.68-.52,1-2.54,1-3.09A4.91,4.91,0,0,0,40.6,51l-.18-.26a1.72,1.72,0,0,1-.35-.86.93.93,0,0,1,0-.29,3.6,3.6,0,0,0,.08-.83v-.12a8,8,0,0,1,.35-2.39,2.16,2.16,0,0,1,.8-1.13s.07,0,0,0h.1a6.54,6.54,0,0,0,2.29-.22,3,3,0,0,1,2.12.72c.51.4.7.77.7.92a9,9,0,0,0,.17,1.94c0,.11,0,.22.07.39a2.16,2.16,0,0,0,.2.66v.15a2.54,2.54,0,0,1-.35,1.08l-.07.1a5.68,5.68,0,0,0-1.21,2.43c0,.17.17,2.29,1,2.88h0a13.12,13.12,0,0,0,2.13,1.18c.62.3,1.33.64,2.11,1.07.24.13.25.22.3.52s.09,2,.13,3.6a.82.82,0,0,0,.62.76v0h.1l.11,0h0l.09,0h11a1.5,1.5,0,0,0,1.5-1.54C64.36,59.29,64.13,51.13,64,50.14ZM18.79,60.31H10.54c.13-4.51.29-9.07.36-9.62l0-.26a2.14,2.14,0,0,1,1.3-2,51.85,51.85,0,0,1,9.2-3.65c1.17-.37,2.23-.72,3.17-1.06a11.69,11.69,0,0,0-.5,3.56v.16a2.35,2.35,0,0,1-.06.63,3.09,3.09,0,0,0-.09.82,4,4,0,0,0,.77,2.19l.3.41a10.57,10.57,0,0,1,1.15,1.73,7.55,7.55,0,0,1-.51,2.36,12.33,12.33,0,0,1-2.18,1.1,36.71,36.71,0,0,0-3.37,1.62A2.48,2.48,0,0,0,18.79,60.31Zm21.67.37c0,.24.1,2,.16,3.86H20.25c.06-1.82.13-3.61.16-3.86l0-.12a.8.8,0,0,1,.51-.76,33,33,0,0,1,3.21-1.56,12.72,12.72,0,0,0,2.53-1.3c.8-.61,1.2-3.14,1.14-3.8a6.33,6.33,0,0,0-1.46-2.59,3.35,3.35,0,0,1-.25-.34,2.4,2.4,0,0,1-.5-1.27,1.46,1.46,0,0,1,.05-.44,4.21,4.21,0,0,0,.1-1v-.16a10.78,10.78,0,0,1,.46-3.18,3.13,3.13,0,0,1,1.08-1.57l.25-.15a.45.45,0,0,1,.16,0,8.39,8.39,0,0,0,2.91-.28,4,4,0,0,1,3,1c.74.58,1,1.11,1,1.39A10.37,10.37,0,0,0,34.82,47c0,.14.06.3.09.53a2.31,2.31,0,0,0,.21.73.65.65,0,0,1,.06.36,3.63,3.63,0,0,1-.5,1.54l-.08.12c-1.09,1.6-1.52,2.46-1.56,3.05s.31,2.91,1.14,3.55c.44.33,4.68,2.31,5.77,2.9A1,1,0,0,1,40.46,60.68Zm12.14-.37c0-.78-.07-1.48-.1-1.67A2.1,2.1,0,0,0,51.37,57c-.81-.45-1.54-.8-2.18-1.11a11.86,11.86,0,0,1-1.79-1A5.64,5.64,0,0,1,47,53.4,6.49,6.49,0,0,1,48,51.78l.08-.11a4.21,4.21,0,0,0,.63-2,1.83,1.83,0,0,0-.17-.86.39.39,0,0,1,0-.18c0-.22-.06-.37-.09-.51a7,7,0,0,1-.13-1.62,3.06,3.06,0,0,0-1.34-2.19,4.58,4.58,0,0,0-3.5-1,4.7,4.7,0,0,1-1.77.19,1.67,1.67,0,0,0-1.19.29,3.88,3.88,0,0,0-1.52,2.13,9.79,9.79,0,0,0-.39,2.79v.12a1.64,1.64,0,0,1,0,.44,2.55,2.55,0,0,0-.08.68A3.24,3.24,0,0,0,39,51.69c0,.07.13.18.24.33a10.41,10.41,0,0,1,.84,1.23,5.46,5.46,0,0,1-.38,1.68c-.22.13-.77.42-1.23.65s-1.17.61-1.68.9a11.07,11.07,0,0,1-1.61-.87,7.16,7.16,0,0,1-.52-2.16A7.94,7.94,0,0,1,36,51.22l.09-.13a5.1,5.1,0,0,0,.77-2.45,2.17,2.17,0,0,0-.2-1,.85.85,0,0,1-.08-.3c0-.28-.08-.46-.12-.64a9.22,9.22,0,0,1-.17-2.16,3.69,3.69,0,0,0-1.65-2.66,5.66,5.66,0,0,0-4.35-1.31,13.2,13.2,0,0,1-1.35.24A18.59,18.59,0,0,0,30.35,34c-.1-1.24-1.2-2.91-3.19-5.57l-.57-.78a5.72,5.72,0,0,1-1.16-3,4,4,0,0,1,.11-1.06,7.74,7.74,0,0,0,.23-2.17v-.35a23.59,23.59,0,0,1,1-7.15,7.22,7.22,0,0,1,2.69-3.8,1,1,0,0,1,1-.24,18.54,18.54,0,0,0,6.35-.63c1.84-.41,4.66.52,6.88,2.27,1.45,1.13,2.36,2.42,2.38,3.35a23.59,23.59,0,0,0,.46,5.44c.07.33.15.67.22,1.19a5.25,5.25,0,0,0,.44,1.55,1.72,1.72,0,0,1,.15.92A8.35,8.35,0,0,1,46.2,27.6l-.18.26c-2.35,3.47-3.34,5.39-3.4,6.62,0,.93.68,6.36,2.42,7.61a28.09,28.09,0,0,0,6.35,2.85,66,66,0,0,1,8.32,3.55,2.38,2.38,0,0,1,1.3,2.1l0,.09c.07.56.23,5.12.36,9.63Z" />
  <rect y="0.72" width="71.28" height="71.28" fill="none"/>
</svg>
