<svg xmlns="http://www.w3.org/2000/svg" viewBox="0 0 72 72">
  <g>
    <path d="M54,63.24H41.47a1,1,0,0,1-.71-.29,1.05,1.05,0,0,1-.29-.71v-2.4c.05-10.78,6.36-17.87,14-25.37a1,1,0,0,1,1.41,0l3.23,3.23-.11-12-12-.11,3.2,3.19a1,1,0,0,1,0,1.42,99.86,99.86,0,0,0-9.43,10.3,1,1,0,0,1-1.11.34,1,1,0,0,1-.68-1l0-20.6a1,1,0,0,1,1-1h4.55L36,10,27.5,18.34H32a1,1,0,0,1,.71.29,1,1,0,0,1,.29.71l0,20.72a1,1,0,0,1-1.8.6,97.75,97.75,0,0,0-9.51-10.42,1,1,0,0,1-.3-.71,1,1,0,0,1,.29-.71l3.2-3.19-12,.11-.11,12L16,34.48a1,1,0,0,1,1.41,0c7.63,7.51,14,14.61,14,25.38,0,0,0,.06,0,.1v2.28a1,1,0,0,1-1,1H17.94v-2H29.41V60a.31.31,0,0,1,0-.1c0-9.72-5.68-16.39-12.69-23.34l-3.06,3a1.71,1.71,0,0,1-1.85.37,1.69,1.69,0,0,1-1-1.58l.11-13a1.71,1.71,0,0,1,1.68-1.68l13-.12a1.63,1.63,0,0,1,1.57,1,1.68,1.68,0,0,1-.36,1.85l-3,3c2.41,2.38,4.89,4.91,7.2,7.68l0-16.87H26.74a1.69,1.69,0,0,1-1.18-2.9l9.3-9.13a1.7,1.7,0,0,1,2.37,0l9.29,9.13a1.64,1.64,0,0,1,.38,1.84,1.67,1.67,0,0,1-1.56,1H41l0,16.74c2.28-2.72,4.72-5.21,7.09-7.55l-3-3a1.68,1.68,0,0,1-.37-1.85,1.71,1.71,0,0,1,1.64-1l13,.12A1.7,1.7,0,0,1,61,25.42l.12,13a1.7,1.7,0,0,1-1,1.58,1.72,1.72,0,0,1-1.85-.37l-3.06-3c-7,6.92-12.64,13.56-12.68,23.25v1.39H54Zm-41.72-25Zm47.38,0h0ZM46.26,25.62h0Zm-20.62,0h0Z" />
  </g>
</svg>
