<svg xmlns="http://www.w3.org/2000/svg" viewBox="0 0 72 72">
  <g>
    <path d="M62.93,63.31H51.12v-3H61.39c-.13-4.51-.29-9.07-.36-9.63l0-.09a2.38,2.38,0,0,0-1.3-2.1,66,66,0,0,0-8.32-3.55A28.09,28.09,0,0,1,45,42.09c-1.74-1.25-2.47-6.68-2.42-7.61.06-1.23,1.05-3.15,3.4-6.62l.18-.26A8.35,8.35,0,0,0,47.35,24a1.72,1.72,0,0,0-.15-.92,5.25,5.25,0,0,1-.44-1.55c-.07-.52-.15-.86-.22-1.19a23.59,23.59,0,0,1-.46-5.44c0-.93-.93-2.22-2.38-3.35-2.22-1.75-5-2.68-6.88-2.27a18.54,18.54,0,0,1-6.35.63,1,1,0,0,0-1,.24,7.22,7.22,0,0,0-2.69,3.8,23.59,23.59,0,0,0-1,7.15v.35a7.74,7.74,0,0,1-.23,2.17,4,4,0,0,0-.11,1.06,5.72,5.72,0,0,0,1.16,3l.57.78c2,2.66,3.09,4.33,3.19,5.57.12,1.46-.82,6.93-2.42,8.16-1.27,1-3.57,1.72-6.49,2.66a51.85,51.85,0,0,0-9.2,3.65,2.14,2.14,0,0,0-1.3,2l0,.26c-.07.55-.23,5.11-.36,9.62H20.85v3H9a1.49,1.49,0,0,1-1.5-1.54c.07-2.48.3-10.64.44-11.54L8,50a5,5,0,0,1,2.79-4.17A54.51,54.51,0,0,1,20.52,42a27.32,27.32,0,0,0,5.53-2.15,15.14,15.14,0,0,0,1.31-5.57c-.14-.73-2-3.21-2.6-4l-.67-.91a8.73,8.73,0,0,1-1.66-4.66,6.62,6.62,0,0,1,.2-1.76,5.37,5.37,0,0,0,.14-1.47V21.1a26.21,26.21,0,0,1,1.12-7.88,10.15,10.15,0,0,1,4-5.62,3.8,3.8,0,0,1,2.86-.69,15.65,15.65,0,0,0,5.42-.57c3.33-.74,7.13,1.07,9.39,2.84s3.48,3.76,3.52,5.65a21.63,21.63,0,0,0,.39,4.87,12.87,12.87,0,0,1,.26,1.4,2.18,2.18,0,0,0,.22.75,4.57,4.57,0,0,1,.4,2.14,11,11,0,0,1-1.66,5.27l-.19.28c-2.59,3.82-2.86,4.87-2.89,5.1a15.72,15.72,0,0,0,1.24,5.06,28.91,28.91,0,0,0,5.58,2.43,67.57,67.57,0,0,1,8.71,3.72A5.33,5.33,0,0,1,64,50.14c.15,1,.38,9.15.45,11.63a1.5,1.5,0,0,1-1.5,1.54ZM46.66,39.57Z" />
    <path d="M38,44.72a3.84,3.84,0,0,0,1.86-2.87c0-1.75-1.81-3.43-1.89-3.5a.39.39,0,0,0-.27-.11H35.13a.4.4,0,0,0-.27.11c-.07.07-1.89,1.75-1.89,3.5a3.84,3.84,0,0,0,1.86,2.87L32.77,63.19a.4.4,0,0,0,.12.37l3.25,3a.41.41,0,0,0,.54,0l3.25-3a.43.43,0,0,0,.13-.37Z" />
  </g>
  <g>
    <rect x="0.72" y="0.72" width="71.28" height="71.28" fill="none"/>
    <path d="M37.61,17.35l.07,0,0,.12Z" fill="gray"/>
  </g>
</svg>
