<svg xmlns="http://www.w3.org/2000/svg" viewBox="0 0 72 72">
  <g>
    <path d="M63.25,33.15H40.67a1.5,1.5,0,0,1-1.5-1.5V9.21a1.5,1.5,0,0,1,1.5-1.5H63.25a1.5,1.5,0,0,1,1.5,1.5V31.65A1.5,1.5,0,0,1,63.25,33.15Zm-21.08-3H61.75V10.71H42.17Z" />
    <path d="M31.6,64.8H9a1.5,1.5,0,0,1-1.5-1.5V40.86A1.5,1.5,0,0,1,9,39.36H31.6a1.5,1.5,0,0,1,1.5,1.5V63.3A1.5,1.5,0,0,1,31.6,64.8Zm-21.08-3H30.1V42.36H10.52Z" />
    <path d="M63.25,64.8H40.67a1.5,1.5,0,0,1-1.5-1.5V40.86a1.5,1.5,0,0,1,1.5-1.5H63.25a1.5,1.5,0,0,1,1.5,1.5V63.3A1.5,1.5,0,0,1,63.25,64.8Zm-21.08-3H61.75V42.36H42.17Z" />
    <path d="M31.85,33.3H8.57a.75.75,0,0,1-.75-.77c0-1.07.13-4.6.19-5a2.35,2.35,0,0,1,1.27-2,23.48,23.48,0,0,1,4.23-1.69A11.57,11.57,0,0,0,15.89,23a7.23,7.23,0,0,0,.5-2.3A10.44,10.44,0,0,0,15.29,19c-.13-.17-.24-.31-.29-.39a3.89,3.89,0,0,1-.73-2.07,3.3,3.3,0,0,1,.08-.78,2.26,2.26,0,0,0,.06-.62V15a11.63,11.63,0,0,1,.49-3.43,4.53,4.53,0,0,1,1.77-2.49A1.76,1.76,0,0,1,18,8.75a6.68,6.68,0,0,0,2.3-.24,5.39,5.39,0,0,1,4.14,1.24A3.52,3.52,0,0,1,26,12.27a9.09,9.09,0,0,0,.17,2.08c0,.17.07.35.11.61a.82.82,0,0,0,.09.3,2.12,2.12,0,0,1,.18,1,4.85,4.85,0,0,1-.73,2.32l-.09.13a8.16,8.16,0,0,0-1.23,2.15,6.88,6.88,0,0,0,.52,2.1,13.24,13.24,0,0,0,2.36,1,28.63,28.63,0,0,1,3.77,1.61,2.38,2.38,0,0,1,1.28,1.92c.07.44.17,4,.2,5a.77.77,0,0,1-.22.54A.72.72,0,0,1,31.85,33.3ZM9.34,31.8H31.07c-.05-1.9-.12-3.8-.15-4a.92.92,0,0,0-.51-.87,29,29,0,0,0-3.58-1.53,11.82,11.82,0,0,1-2.78-1.25c-.78-.6-1.09-2.94-1.07-3.36a7.27,7.27,0,0,1,1.48-2.91l.08-.12A3.44,3.44,0,0,0,25,16.23a.81.81,0,0,0-.05-.36,2.23,2.23,0,0,1-.2-.7c0-.22-.07-.36-.1-.5a10.7,10.7,0,0,1-.2-2.37,2.24,2.24,0,0,0-1-1.37,4,4,0,0,0-2.88-1,7.75,7.75,0,0,1-2.77.27h-.17a.71.71,0,0,0-.19.1,3.06,3.06,0,0,0-1.12,1.58A10.44,10.44,0,0,0,15.91,15v.15a3.45,3.45,0,0,1-.1,1,1.42,1.42,0,0,0,0,.43,2.3,2.3,0,0,0,.48,1.23,3.48,3.48,0,0,0,.24.33,6.12,6.12,0,0,1,1.4,2.46c.05.61-.34,3-1.09,3.61A10.57,10.57,0,0,1,14,25.32a22.24,22.24,0,0,0-4,1.56.83.83,0,0,0-.51.77l0,.11C9.46,28,9.4,29.9,9.34,31.8ZM25,23Z" />
  </g>
  <rect x="0.36" y="0.36" width="71.28" height="71.28" fill="none"/>
</svg>
