<svg xmlns="http://www.w3.org/2000/svg" viewBox="0 0 72 72">
  <g>
    <circle cx="17.63" cy="18.4" r="2" />
    <circle cx="17.63" cy="26.43" r="2" />
    <circle cx="17.63" cy="38.22" r="2" />
    <circle cx="17.63" cy="46" r="2" />
    <path d="M63,11.15H9a1.5,1.5,0,0,0-1.5,1.5v41A1.5,1.5,0,0,0,9,55.12H34.44v5.09H26.81a1.5,1.5,0,1,0,0,3H44.94a1.5,1.5,0,0,0,0-3h-7.5V55.12H63a1.5,1.5,0,0,0,1.5-1.5v-41A1.5,1.5,0,0,0,63,11.15ZM38.41,18.92a3.19,3.19,0,0,0,.23.87L35.48,22H26.21V18.92Zm1.94-.51a1.5,1.5,0,1,1,1.5,1.49A1.5,1.5,0,0,1,40.35,18.41ZM49.1,46a1.5,1.5,0,1,1-1.5-1.5A1.5,1.5,0,0,1,49.1,46Zm-4-2.43-1.32-.85h2.63A3.49,3.49,0,0,0,45.1,43.57Zm-.93,1.78a3.16,3.16,0,0,0,0,.32H26.21v-3H40.08Zm-18-18.46h2.41a3.48,3.48,0,0,0,3.2,3H26.21Zm5.86,1a1.5,1.5,0,1,1,1.49-1.49A1.5,1.5,0,0,1,32.07,27.92Zm-3.44-2H26.21V23h5.13A3.5,3.5,0,0,0,28.63,25.89ZM26.21,41.72V38.78h6.17a3.49,3.49,0,0,0,3.44,2.93,3.39,3.39,0,0,0,1.84-.54l.86.55Zm9.61-2a1.5,1.5,0,1,1,1.49-1.49A1.5,1.5,0,0,1,35.82,39.71Zm-2.1-4.27a3.5,3.5,0,0,0-1.35,2.34H26.21V34.84h7.31Zm-7.51-1.6V30.9h6l1,2.94Zm7.42-10.52A3.62,3.62,0,0,0,32.8,23h1.26ZM10.5,14.15H25.21v38H10.5Zm51,38H26.21V50.36H43a.5.5,0,1,0,0-1H26.21V46.67h18a3.5,3.5,0,0,0,6.86,0h5.28a.5.5,0,0,0,.5-.5.5.5,0,0,0-.5-.5H51.06a3.48,3.48,0,0,0-2.27-3h4.32a.5.5,0,0,0,.5-.5.51.51,0,0,0-.5-.5H42.22L39,39.65a3.51,3.51,0,0,0,.26-.87h16a.5.5,0,0,0,0-1h-16a3.48,3.48,0,0,0-2.6-2.94H51.4a.5.5,0,1,0,0-1H35.3l-1-2.94H53.09a.5.5,0,0,0,.5-.5.5.5,0,0,0-.5-.5H34l-.16-.49A3.47,3.47,0,0,0,35.51,27H53.09a.5.5,0,0,0,.5-.5.5.5,0,0,0-.5-.5H35.52a3.71,3.71,0,0,0-.42-1.24L37.53,23H52.62a.5.5,0,0,0,.5-.5.5.5,0,0,0-.5-.5H39l1-.69a3.47,3.47,0,0,0,5.36-2.4h9.26a.5.5,0,0,0,.5-.5.5.5,0,0,0-.5-.5H45.3a3.48,3.48,0,0,0-6.9,0H26.21V14.15H61.5Z" />
  </g>
  <rect x="0.36" y="0.36" width="71.28" height="71.28" fill="none"/>
</svg>
