<svg xmlns="http://www.w3.org/2000/svg" viewBox="0 0 72 72">
  <g>
    <path d="M36.23,7.53A28.32,28.32,0,1,0,64.55,35.85,28.35,28.35,0,0,0,36.23,7.53ZM10.91,35.85A25.34,25.34,0,0,1,26,12.69,14,14,0,0,0,22.1,22.4c0,8.57,5.51,14.1,14,14.1,7.55,0,12.06,4.52,12.06,12.1,0,6.81-5.52,12.56-12.06,12.56h0A25.34,25.34,0,0,1,10.91,35.85ZM45.4,59.44A14.76,14.76,0,0,0,50.21,48.6c0-8.7-5.38-14.1-14.06-14.1-8.89,0-12-6.25-12-12.1a12.06,12.06,0,0,1,9.17-11.69,26.14,26.14,0,0,1,3-.18A25.31,25.31,0,0,1,45.4,59.44Z" />
    <circle cx="36.15" cy="22.35" r="2.55" />
    <circle cx="36.15" cy="49.35" r="2.55" />
  </g>
  <rect x="0.36" y="0.36" width="71.28" height="71.28" fill="none"/>
</svg>
