<svg xmlns="http://www.w3.org/2000/svg" viewBox="0 0 72 72">
  <g>
    <path d="M54.54,63.86H17.59a3.49,3.49,0,0,1-3.49-3.48V10.65a3.49,3.49,0,0,1,3.49-3.48H43a3.51,3.51,0,0,1,2.36.92L56.9,18.76A3.48,3.48,0,0,1,58,21.32V60.38A3.49,3.49,0,0,1,54.54,63.86ZM17.59,10.17a.49.49,0,0,0-.49.48V60.38a.48.48,0,0,0,.49.48h37a.48.48,0,0,0,.49-.48V21.32a.5.5,0,0,0-.16-.36L43.29,10.3a.51.51,0,0,0-.33-.13Z" />
    <path d="M48.52,35a15.37,15.37,0,0,0-3.75-1.49V29.35a8.53,8.53,0,1,0-17.05,0v4.16A15.12,15.12,0,0,0,24,35a1.48,1.48,0,0,0-.76,1.3V47.72A1.48,1.48,0,0,0,24,49c2.82,1.61,6.71,2.37,12.21,2.37s9.44-.77,12.28-2.4a1.52,1.52,0,0,0,.75-1.3V36.31A1.52,1.52,0,0,0,48.52,35Zm-17.8-5.66a5.53,5.53,0,1,1,11.05,0v3.59a41.74,41.74,0,0,0-5.53-.33,41.47,41.47,0,0,0-5.52.33ZM46.27,46.78c-2.32,1.08-5.61,1.61-10,1.61s-7.66-.51-10-1.58V37.19c2.31-1.07,5.52-1.58,10-1.58s7.71.53,10,1.61Z" />
  </g>
  <rect x="0.36" y="0.36" width="71.28" height="71.28" fill="none"/>
</svg>
