<svg xmlns="http://www.w3.org/2000/svg" viewBox="0 0 72 72">
  <path d="M64.11,21.09,56,13.62a2.62,2.62,0,0,0-1.79-.69H37.45a2.63,2.63,0,0,0-2.63,2.63V19.9L28,13.62a2.62,2.62,0,0,0-1.79-.69H9.45a2.63,2.63,0,0,0-2.63,2.63V55.37A2.64,2.64,0,0,0,9.45,58H34.32a2.6,2.6,0,0,0,1.57-.53,2.6,2.6,0,0,0,1.56.53H62.32A2.64,2.64,0,0,0,65,55.37V23A2.64,2.64,0,0,0,64.11,21.09ZM34.32,55.51H9.45a.13.13,0,0,1-.13-.14V15.56a.13.13,0,0,1,.13-.13H26.21a.17.17,0,0,1,.1,0l8.11,7.47a.15.15,0,0,1,0,.1V34.6H22L27.63,29l-2.12-2.13L16.3,36.1l9.17,9.17,2.12-2.12L22,37.6H34.46V55.37A.14.14,0,0,1,34.32,55.51Zm28.14-.14a.14.14,0,0,1-.14.14H37.45a.13.13,0,0,1-.13-.14V37.6H50.55L45,43.15l2.12,2.12,9.17-9.17-9.21-9.22L45,29l5.59,5.59H37.32v-19a.13.13,0,0,1,.13-.13H54.21a.17.17,0,0,1,.1,0l8.11,7.47a.15.15,0,0,1,0,.1Z" />
  <rect x="0.36" y="0.36" width="71.28" height="71.28" fill="none"/>
</svg>
