<svg xmlns="http://www.w3.org/2000/svg" viewBox="0 0 72 72">
  <path d="M65.93,19.65,57,11.44a2.86,2.86,0,0,0-2-.77H37.61a2.9,2.9,0,0,0-2.9,2.9v4.77l-7.5-6.9a2.86,2.86,0,0,0-2-.77H8.31a2.9,2.9,0,0,0-2.9,2.9V57.36a2.91,2.91,0,0,0,2.9,2.91H34.17a2.87,2.87,0,0,0,1.72-.58,2.85,2.85,0,0,0,1.72.58H64a2.91,2.91,0,0,0,2.9-2.91V21.79A2.91,2.91,0,0,0,65.93,19.65ZM34.17,57.52H8.31a.16.16,0,0,1-.15-.16V13.57a.15.15,0,0,1,.15-.15H25.25a.18.18,0,0,1,.1,0l8.92,8.21a.17.17,0,0,1,0,.12V34.51H20.66l6.15-6.15L24.47,26,14.34,36.16,24.42,46.25l2.34-2.34-6.1-6.1H34.32V57.36A.16.16,0,0,1,34.17,57.52Zm30-.16a.16.16,0,0,1-.15.16H37.61a.16.16,0,0,1-.15-.16V37.81H52l-6.11,6.1,2.34,2.34L58.33,36.16,48.2,26l-2.33,2.33L52,34.51H37.46V13.57a.15.15,0,0,1,.15-.15H55.05a.18.18,0,0,1,.1,0l8.92,8.21a.17.17,0,0,1,.05.12Z" />
  <rect x="0.36" y="0.36" width="71.28" height="71.28" fill="none"/>
</svg>
