<svg xmlns="http://www.w3.org/2000/svg" viewBox="0 0 72 72">
  <g>
    <circle cx="24.35" cy="55.5" r="1.59" />
    <circle cx="47.85" cy="55.5" r="1.59" />
    <path d="M53.55,29.71a2.1,2.1,0,0,0,.06-.24c.1-.41.2-.81.28-1.23,0-.23.07-.46.11-.68s.09-.63.12-.94a16.32,16.32,0,0,0,.09-1.71,18.26,18.26,0,0,0-36.52,0c0,.57,0,1.15.08,1.72,0,.33.09.64.13,1s.07.46.11.69c.08.42.18.84.29,1.25,0,.1.05.21.08.31A18.25,18.25,0,1,0,36.14,61,18.25,18.25,0,1,0,53.55,29.71Zm-2.34-4.8c0,.48,0,.95-.07,1.42q0,.42-.12.84c0,.17,0,.34-.07.5-.07.37-.16.74-.26,1.11,0,.06,0,.12,0,.18q-.18.6-.39,1.2l0,.08a15.44,15.44,0,0,1-2.76,4.65,1.54,1.54,0,0,0-.17.19c-.33.36-.68.72-1,1.05l-.24.21c-.41.36-.83.7-1.27,1l-.06,0c-.4.28-.82.52-1.24.76a9.56,9.56,0,0,0,1.61-5.28c0-5.59-3.59-9.19-9.16-9.19-5.28,0-7.16-3.71-7.16-7.19a7.16,7.16,0,0,1,4.34-6.57A15.1,15.1,0,0,1,36,9.65,15.28,15.28,0,0,1,51.21,24.91Zm-1.3,37.26a14.89,14.89,0,0,1-2,.15A15.22,15.22,0,0,1,33.21,42.94a17.77,17.77,0,0,0,2.74.23,18.93,18.93,0,0,0,3.56-.35c1.37,3.17,4.37,5,8.34,5C52.33,47.84,55,50.53,55,55A7.55,7.55,0,0,1,49.91,62.17ZM19.71,33.22c.15.3.32.6.49.89l.27.44c.22.35.44.69.68,1l.42.56c.22.28.44.54.67.8s.36.41.55.61.44.44.67.66l.65.59c.24.2.49.39.74.58s.44.35.67.51.6.39.9.58.39.25.6.36c.39.22.8.42,1.22.62l.36.17a16.38,16.38,0,0,0,1.69.65,17.87,17.87,0,0,0-.66,4.8c0,.06,0,.13,0,.19a9.79,9.79,0,0,0-5.29-1.41c-5.28,0-7.16-3.71-7.16-7.18A7.1,7.1,0,0,1,19.71,33.22ZM28,11.91a9.07,9.07,0,0,0-1.25,4.59c0,5.58,3.6,9.19,9.16,9.19,4.49,0,7.16,2.69,7.16,7.19A7.56,7.56,0,0,1,38,40a15,15,0,0,1-2,.15,15.24,15.24,0,0,1-3-.29l-.43-.1-.06,0a16,16,0,0,1-1.67-.49l-.25-.09a15,15,0,0,1-1.41-.62l-.26-.12a16.3,16.3,0,0,1-2.86-1.93l-.37-.34c-.3-.28-.6-.57-.88-.87l-.34-.37c-.33-.38-.64-.77-.93-1.18a1.71,1.71,0,0,0-.11-.14,15.52,15.52,0,0,1-1.72-3.28l0-.1c-.15-.4-.28-.8-.4-1.21,0-.06,0-.12,0-.18-.1-.38-.19-.75-.27-1.13,0-.17-.05-.34-.07-.51s-.09-.57-.12-.86a13.56,13.56,0,0,1-.07-1.43A15.26,15.26,0,0,1,28,11.91ZM9.13,47.06a15.22,15.22,0,0,1,7.3-13,9.08,9.08,0,0,0-1.24,4.6c0,5.58,3.59,9.18,9.16,9.18a7,7,0,0,1,5.53,2.22,18.18,18.18,0,0,0,1.62,5,7.55,7.55,0,0,1-5.11,7.07,14.71,14.71,0,0,1-2,.14A15.28,15.28,0,0,1,9.13,47.06ZM31.85,60.38a9.58,9.58,0,0,0,1.25-2.62c.29.39.58.78.9,1.15A14.61,14.61,0,0,1,31.85,60.38Zm23.52,0A9.51,9.51,0,0,0,57,55c0-5.58-3.6-9.19-9.16-9.19-3,0-5.24-1.28-6.35-3.54l.8-.29.16-.06c.58-.23,1.15-.48,1.71-.76l.12-.06A18.27,18.27,0,0,0,49,37.61l.24-.26c.36-.39.7-.79,1-1.2l.26-.35a15.47,15.47,0,0,0,.88-1.29c.07-.11.14-.22.2-.33a17.44,17.44,0,0,0,.82-1.54.6.6,0,0,1,.06-.11,15.25,15.25,0,0,1,2.84,27.82Z" />
    <circle cx="35.9" cy="16.47" r="1.59" />
    <circle cx="35.9" cy="33.34" r="1.59" />
  </g>
  <rect x="0.36" y="0.36" width="71.28" height="71.28" fill="none"/>
</svg>
