<svg xmlns="http://www.w3.org/2000/svg" viewBox="0 0 72 72">
  <g>
    <path d="M63,32.67H40.43a1.5,1.5,0,0,1-1.5-1.5V8.73a1.5,1.5,0,0,1,1.5-1.5H63a1.5,1.5,0,0,1,1.5,1.5V31.17A1.5,1.5,0,0,1,63,32.67Zm-21.08-3H61.51V10.23H41.93Z" />
    <path d="M31.36,64.32H8.78a1.5,1.5,0,0,1-1.5-1.5V40.38a1.5,1.5,0,0,1,1.5-1.5H31.36a1.5,1.5,0,0,1,1.5,1.5V62.82A1.5,1.5,0,0,1,31.36,64.32Zm-21.08-3H29.86V41.88H10.28Z" />
    <path d="M63,64.32H40.43a1.5,1.5,0,0,1-1.5-1.5V40.38a1.5,1.5,0,0,1,1.5-1.5H63a1.5,1.5,0,0,1,1.5,1.5V62.82A1.5,1.5,0,0,1,63,64.32Zm-21.08-3H61.51V41.88H41.93Z" />
    <polygon points="32.37 31.47 7.39 31.47 7.39 8.85 9.39 8.85 9.39 29.47 32.37 29.47 32.37 31.47" />
    <path d="M13.55,27.1a.76.76,0,0,1-.75-.75V20.58a.75.75,0,0,1,1.5,0v5.77A.76.76,0,0,1,13.55,27.1Z" />
    <path d="M16.87,27.1a.76.76,0,0,1-.75-.75V15.53a.75.75,0,1,1,1.5,0V26.35A.75.75,0,0,1,16.87,27.1Z" />
    <path d="M20.11,27.1a.76.76,0,0,1-.75-.75V18.12a.75.75,0,0,1,1.5,0v8.23A.75.75,0,0,1,20.11,27.1Z" />
    <path d="M23.41,27.1a.76.76,0,0,1-.75-.75V21.58a.75.75,0,0,1,1.5,0v4.77A.75.75,0,0,1,23.41,27.1Z" />
    <path d="M26.6,27.1a.75.75,0,0,1-.75-.75V15.94a.75.75,0,1,1,1.5,0V26.35A.76.76,0,0,1,26.6,27.1Z" />
  </g>
  <rect x="0.36" y="0.36" width="71.28" height="71.28" fill="none"/>
</svg>
