<svg xmlns="http://www.w3.org/2000/svg" viewBox="0 0 72 72">
  <g>
    <polygon points="48.71 35.76 35.65 22.7 22.65 35.69 25.48 38.52 33.65 30.35 33.65 50.88 37.65 50.88 37.65 30.35 45.88 38.58 48.71 35.76" />
    <path d="M54.54,63.86H17.59a3.49,3.49,0,0,1-3.49-3.48V10.65a3.49,3.49,0,0,1,3.49-3.48H43a3.51,3.51,0,0,1,2.36.92L56.9,18.76A3.48,3.48,0,0,1,58,21.32V60.38A3.49,3.49,0,0,1,54.54,63.86ZM17.59,10.17a.49.49,0,0,0-.49.48V60.38a.48.48,0,0,0,.49.48h37a.48.48,0,0,0,.49-.48V21.32a.5.5,0,0,0-.16-.36L43.29,10.3a.51.51,0,0,0-.33-.13Z" />
  </g>
  <rect x="0.36" y="0.36" width="71.28" height="71.28" fill="none"/>
</svg>
