<svg xmlns="http://www.w3.org/2000/svg" viewBox="0 0 72 72">
  <g>
    <path d="M59.6,11.86H12.42a4.8,4.8,0,0,0-4.8,4.8V50.23a4.8,4.8,0,0,0,4.8,4.8H36V52H12.42a1.81,1.81,0,0,1-1.8-1.8V22.76l24.3,20.73a1.49,1.49,0,0,0,1.94,0L61.4,22.56v16h3V16.66A4.8,4.8,0,0,0,59.6,11.86ZM35.89,40.37,10.62,18.82V16.66a1.81,1.81,0,0,1,1.8-1.8H59.6a1.81,1.81,0,0,1,1.8,1.8v2Z" />
    <path d="M64.33,61.16H42.49a1,1,0,0,1-.72-.3,1,1,0,0,1-.28-.73c0-1.61.12-4.36.18-4.72a2.47,2.47,0,0,1,1.34-2,22.49,22.49,0,0,1,4-1.61A13.11,13.11,0,0,0,49.1,51,6.31,6.31,0,0,0,49.53,49a12.92,12.92,0,0,0-1-1.42l-.29-.39a3.87,3.87,0,0,1-.74-2.1,3.55,3.55,0,0,1,.09-.81,1.51,1.51,0,0,0,.05-.5v-.14a11.24,11.24,0,0,1,.47-3.28,4.51,4.51,0,0,1,1.79-2.52,1.92,1.92,0,0,1,1.4-.34,5.94,5.94,0,0,0,2.07-.22,5.41,5.41,0,0,1,4.14,1.22,3.62,3.62,0,0,1,1.57,2.59,8.77,8.77,0,0,0,.15,1.9,4.51,4.51,0,0,1,.11.59.67.67,0,0,0,.06.21,2.25,2.25,0,0,1,.2,1,4.9,4.9,0,0,1-.74,2.35l-.08.12a7.91,7.91,0,0,0-1.11,1.91,7.51,7.51,0,0,0,.42,1.72,14.09,14.09,0,0,0,2.09.88,27.1,27.1,0,0,1,3.58,1.53,2.52,2.52,0,0,1,1.35,2c.06.4.14,3.15.19,4.76a1,1,0,0,1-.28.73A1,1,0,0,1,64.33,61.16Zm-20.81-2H63.3c0-1.66-.11-3.23-.13-3.46s-.07-.45-.33-.59a25.6,25.6,0,0,0-3.32-1.41,11.26,11.26,0,0,1-2.68-1.22h0c-.94-.71-1.14-3.2-1.13-3.41a7,7,0,0,1,1.44-2.88l.07-.11a2.83,2.83,0,0,0,.41-1.24,1.07,1.07,0,0,0,0-.18,2.36,2.36,0,0,1-.23-.76c0-.2,0-.33-.08-.46a10,10,0,0,1-.2-2.28c0-.17-.22-.59-.81-1a3.44,3.44,0,0,0-2.46-.85,7.43,7.43,0,0,1-2.69.26H51s0,0,0,.05a2.52,2.52,0,0,0-.92,1.31,9.39,9.39,0,0,0-.41,2.8v.14a3.88,3.88,0,0,1-.1,1,1.25,1.25,0,0,0,0,.34,2,2,0,0,0,.41,1l.22.3a5.71,5.71,0,0,1,1.37,2.46c0,.56-.28,3-1.14,3.65a10.56,10.56,0,0,1-2.74,1.14A20.48,20.48,0,0,0,44,55.1a.51.51,0,0,0-.33.5v.11C43.62,55.93,43.56,57.5,43.52,59.16Z" />
  </g>
  <rect x="0.36" y="0.36" width="71.28" height="71.28" fill="none"/>
</svg>
