<svg xmlns="http://www.w3.org/2000/svg" viewBox="0 0 72 72">
  <g>
    <path d="M60.59,27.26H48.87a14.07,14.07,0,1,0-25.78,0H11.7a3.62,3.62,0,0,0-3.62,3.61V60.13a3.63,3.63,0,0,0,3.62,3.62H60.59a3.62,3.62,0,0,0,3.61-3.62V30.87A3.61,3.61,0,0,0,60.59,27.26ZM42.11,30.83a7.19,7.19,0,0,0,.83-3.35c0-4.26-2.74-7-7-7-3.13,0-5-1.87-5-5a5,5,0,0,1,3.7-4.8A11.57,11.57,0,0,1,36,10.55a11.06,11.06,0,0,1,6.13,20.28Zm-17.2-9.21a11.06,11.06,0,0,1,4.63-9A6.93,6.93,0,0,0,29,15.44a6.63,6.63,0,0,0,7,7c4.51,0,5,3.51,5,5a5.19,5.19,0,0,1-4.77,5.21H36A11.09,11.09,0,0,1,24.91,21.62ZM62.2,60.13a1.62,1.62,0,0,1-1.61,1.62H11.7a1.63,1.63,0,0,1-1.62-1.62V30.87a1.62,1.62,0,0,1,1.62-1.61H24.18a14,14,0,0,0,23.6,0H60.59a1.61,1.61,0,0,1,1.61,1.61Z" />
    <circle cx="35.95" cy="15.29" r="1.19" />
    <circle cx="35.95" cy="27.95" r="1.19" />
    <rect x="38.71" y="43.44" width="17.91" height="2.59" />
    <rect x="38.71" y="48.86" width="17.91" height="2.59" />
    <rect x="38.71" y="54.28" width="17.91" height="2.59" />
    <rect x="15.88" y="43.44" width="17.91" height="2.59" />
    <rect x="38.71" y="37.99" width="17.91" height="2.59" />
    <rect x="15.88" y="37.99" width="17.91" height="2.59" />
    <rect x="15.88" y="48.86" width="17.91" height="2.59" />
    <rect x="15.88" y="54.28" width="17.91" height="2.59" />
  </g>
  <rect x="0.36" y="0.36" width="71.28" height="71.28" fill="none"/>
</svg>
