<svg xmlns="http://www.w3.org/2000/svg" viewBox="0 0 72 72">
  <g>
    <path d="M10.83,63h16.5a1.48,1.48,0,0,0,1.4-1h33.6a.5.5,0,0,0,.5-.5V10.75a.5.5,0,0,0-.5-.5H28.73a1.48,1.48,0,0,0-1.4-1H10.83a1.5,1.5,0,0,0-1.5,1.5V61.5A1.5,1.5,0,0,0,10.83,63Zm18-2V46.25H44.58V61ZM44.58,11.25v16h-6a11.39,11.39,0,0,0-9.72-10.87V11.25ZM27.18,37a9.39,9.39,0,1,1,9.39-9.39A9.4,9.4,0,0,1,27.18,37Zm17.4-8.78v17H28.83V38.9a11.39,11.39,0,0,0,9.71-10.65Zm-18.75-16v4.09a11.38,11.38,0,0,0,0,22.6V60H12.33V12.25Zm36-1v16H45.58v-16Zm0,17v17H45.58v-17ZM45.58,61V46.25H61.83V61Z" />
    <path d="M26.16,32.61V28.68H22.22a1,1,0,0,1,0-2h3.94V22.75a1,1,0,0,1,2,0v3.93h3.93a1,1,0,0,1,0,2H28.16v3.93a1,1,0,0,1-2,0Z" />
  </g>
  <rect x="0.36" y="0.36" width="71.28" height="71.28" fill="none"/>
</svg>
