<svg xmlns="http://www.w3.org/2000/svg" viewBox="0 0 72 72">
  <g>
    <path d="M51.89,60.31a1.48,1.48,0,0,1-1.06-.44L43.93,53a1.5,1.5,0,1,1,2.12-2.12l5.84,5.84,12-12A1.5,1.5,0,0,1,66,46.86l-13,13A1.49,1.49,0,0,1,51.89,60.31Z" />
    <path d="M59.66,11.86H12.49a4.81,4.81,0,0,0-4.81,4.8V50.23A4.81,4.81,0,0,0,12.49,55H39.6V52H12.49a1.81,1.81,0,0,1-1.81-1.8V22.76L35,43.49a1.5,1.5,0,0,0,2,0L61.47,22.56v14h3V16.66A4.81,4.81,0,0,0,59.66,11.86ZM36,40.37,10.68,18.82V16.66a1.81,1.81,0,0,1,1.81-1.8H59.66a1.81,1.81,0,0,1,1.81,1.8v2Z" />
  </g>
  <rect x="0.36" y="0.36" width="71.28" height="71.28" fill="none"/>
</svg>
