<svg xmlns="http://www.w3.org/2000/svg" viewBox="0 0 72 72">
  <g>
    <circle cx="13.72" cy="20.92" r="6.09" />
    <path d="M13.72,42.26a6.09,6.09,0,1,1,6.09-6.09A6.09,6.09,0,0,1,13.72,42.26Zm0-10.18a4.09,4.09,0,1,0,4.09,4.09A4.09,4.09,0,0,0,13.72,32.08Z" />
    <path d="M13.72,57.69a6.09,6.09,0,1,1,6.09-6.09A6.09,6.09,0,0,1,13.72,57.69Zm0-10.18a4.09,4.09,0,1,0,4.09,4.09A4.09,4.09,0,0,0,13.72,47.51Z" />
    <path d="M62.59,52.62H27.93V46.77H44.72a1.5,1.5,0,0,0,0-3H27.93V37.6h27a1.5,1.5,0,0,0,0-3h-27v-6H60.26a1.5,1.5,0,1,0,0-3H27.93V19.37H53.76a1.5,1.5,0,0,0,0-3H27.93V9.11h-2v54.1h2V55.62H62.59a1.5,1.5,0,0,0,0-3Z" />
  </g>
  <rect x="0.36" y="0.28" width="71.28" height="71.28" fill="none"/>
</svg>
