<svg xmlns="http://www.w3.org/2000/svg" viewBox="0 0 72 72">
  <g>
    <path d="M64.51,38.85V17a4.81,4.81,0,0,0-4.8-4.81H12.53A4.81,4.81,0,0,0,7.73,17V50.56a4.81,4.81,0,0,0,4.8,4.81H36a10.82,10.82,0,0,0,10.64,9.47H64.25v-2H46.66a8.94,8.94,0,0,1,0-17.87H64.25V43H46.66A10.82,10.82,0,0,0,36,52.37H12.53a1.81,1.81,0,0,1-1.8-1.81V23.1L35,43.82a1.49,1.49,0,0,0,1.94,0L61.51,22.89v16ZM36,40.71,10.73,19.16V17a1.81,1.81,0,0,1,1.8-1.81H59.71A1.81,1.81,0,0,1,61.51,17V19Z" />
    <circle cx="46.25" cy="53.91" r="2.33" />
    <circle cx="61.82" cy="53.91" r="2.33" />
    <circle cx="54" cy="53.91" r="2.33" />
  </g>
  <rect x="0.36" y="0.36" width="71.28" height="71.28" fill="none"/>
</svg>
