<svg xmlns="http://www.w3.org/2000/svg" viewBox="0 0 72 72">
  <g>
    <g>
      <path d="M9.23,62.93,9.18,42a.07.07,0,0,1,0-.07h0a.06.06,0,0,1,.05,0l6.61,6.61L30.69,33.7,24,27.16a.08.08,0,0,1,0-.08.07.07,0,0,1,.07,0l20.87,0L45,48A.08.08,0,0,1,45,48h0a.06.06,0,0,1,0,0l-6.63-6.65L23.47,56.25l6.68,6.58a.08.08,0,0,1,0,.08.07.07,0,0,1-.07,0Z"  fill-rule="evenodd"/>
      <path d="M24.08,27.11l20.87,0,0,20.83L38.3,41.31,23.42,56.2l6.68,6.68-20.87,0L9.25,42l6.61,6.61L30.74,33.75l-6.66-6.64m0-.14a.13.13,0,0,0-.13.08.14.14,0,0,0,0,.16l6.56,6.54L15.86,48.44,9.35,41.93a.14.14,0,0,0-.1,0H9.19a.13.13,0,0,0-.08.13l0,20.83a.14.14,0,0,0,.14.14L30.1,63h0a.13.13,0,0,0,.13-.08.15.15,0,0,0,0-.16L23.62,56.2,38.3,41.51l6.53,6.55a.14.14,0,0,0,.1,0h0a.13.13,0,0,0,.09-.13l0-20.83A.14.14,0,0,0,45,27L24.08,27Z" />
    </g>
    <g>
      <path d="M39.2,62.85,36.3,60a.11.11,0,0,1,0-.12.1.1,0,0,1,.1-.06H59.67V12.19H12.12V35.8a.12.12,0,0,1-.07.1h0a.13.13,0,0,1-.07,0L9.17,33.11l0-23.69a.11.11,0,0,1,.11-.11H62.51a.11.11,0,0,1,.11.11V62.74a.11.11,0,0,1-.11.11Z"  fill-rule="evenodd"/>
      <path d="M62.51,9.42V62.74H39.2l-2.82-2.83h23.4V12.09H12V35.8L9.25,33V9.42H62.51m0-.21H9.25A.21.21,0,0,0,9,9.42V33a.2.2,0,0,0,.06.15L11.86,36A.22.22,0,0,0,12,36a.11.11,0,0,0,.08,0,.2.2,0,0,0,.13-.19V12.3H59.57V59.7H36.38a.21.21,0,0,0-.2.13.22.22,0,0,0,0,.23l2.83,2.83a.2.2,0,0,0,.14.06H62.51a.21.21,0,0,0,.21-.21V9.42a.21.21,0,0,0-.21-.21Z" />
    </g>
  </g>
  <rect x="0.36" y="0.36" width="71.28" height="71.28" fill="none"/>
</svg>
