<svg xmlns="http://www.w3.org/2000/svg" viewBox="0 0 72 72">
  <g>
    <path d="M35.9,26.23H29.75V20.08a1.5,1.5,0,0,0-3,0v6.15H20.6a1.5,1.5,0,0,0,0,3h6.15v6.16a1.5,1.5,0,0,0,3,0V29.23H35.9a1.5,1.5,0,0,0,0-3Z" />
    <path d="M62.33,10.25H28.73a1.48,1.48,0,0,0-1.4-1H10.83a1.5,1.5,0,0,0-1.5,1.5V61.5a1.5,1.5,0,0,0,1.5,1.5h16.5a1.48,1.48,0,0,0,1.4-1h33.6a.5.5,0,0,0,.5-.5V10.75A.5.5,0,0,0,62.33,10.25ZM28.2,39.93A12.16,12.16,0,1,1,40.36,27.77,12.17,12.17,0,0,1,28.2,39.93ZM12.33,60V12.25h13.5v1.58a14.14,14.14,0,0,0,0,27.89V60Zm32.25,1H28.83V46.25H44.58Zm0-15.75H28.83V41.9a14.16,14.16,0,0,0,13.5-13.65h2.25Zm0-18H42.33a14.15,14.15,0,0,0-13.5-13.6v-2.4H44.58ZM61.83,61H45.58V46.25H61.83Zm0-15.75H45.58v-17H61.83Zm0-18H45.58v-16H61.83Z" />
  </g>
  <rect x="0.36" y="0.36" width="71.28" height="71.28" fill="none"/>
</svg>
