<svg xmlns="http://www.w3.org/2000/svg" viewBox="0 0 72 72">
  <g>
    <path d="M68.19,55.39a2.15,2.15,0,0,0-1.14-1.7c-.73-.39-1.39-.71-2-1a12.61,12.61,0,0,1-1.49-.79,6,6,0,0,1-.28-1.09,6.07,6.07,0,0,1,.8-1.36l.06-.1a3.92,3.92,0,0,0,.61-1.92,2.3,2.3,0,0,0-.2-1c0-.2-.06-.34-.09-.47a6.21,6.21,0,0,1-.11-1.39,2.91,2.91,0,0,0-1.29-2.15,4.25,4.25,0,0,0-3.34-1,4.21,4.21,0,0,1-1.49.17,1.65,1.65,0,0,0-1.22.29A3.64,3.64,0,0,0,55.58,44a8.64,8.64,0,0,0-.36,2.55v.1a1,1,0,0,1,0,.33,2.61,2.61,0,0,0-.07.67,3.14,3.14,0,0,0,.6,1.73l.22.31a8.52,8.52,0,0,1,.69,1,5,5,0,0,1-.27,1.23c-.22.13-.66.35-1,.54-.65.34-1.38.72-1.89,1a8.11,8.11,0,0,1-.89-.5,6.35,6.35,0,0,1-.41-1.69,7.63,7.63,0,0,1,1.09-1.89l.08-.12A4.82,4.82,0,0,0,54.05,47a2.12,2.12,0,0,0-.2-1,.48.48,0,0,1-.05-.2c0-.26-.07-.43-.11-.59a7.8,7.8,0,0,1-.15-1.87A3.57,3.57,0,0,0,52,40.71a5.4,5.4,0,0,0-4.1-1.21,5.84,5.84,0,0,1-2.05.22,1.92,1.92,0,0,0-1.4.34,4.5,4.5,0,0,0-1.78,2.5,11.27,11.27,0,0,0-.46,3.25V46a2,2,0,0,1,0,.49,3,3,0,0,0-.09.8,3.83,3.83,0,0,0,.73,2.09c.05.08.15.21.28.38a12.87,12.87,0,0,1,1,1.41,6.52,6.52,0,0,1-.44,1.93,12.64,12.64,0,0,1-1.8.88,33.45,33.45,0,0,0-3,1.46,2.48,2.48,0,0,0-1.33,2c-.06.36-.14,2.91-.18,4.41a1,1,0,0,0,.28.72,1,1,0,0,0,.72.3H57.92a1,1,0,0,0,.72-.3,1,1,0,0,0,.28-.72c0-1.49-.12-4.05-.19-4.44a2.51,2.51,0,0,0-1.34-2c-.59-.33-1.15-.6-1.69-.85l.56-.3a13,13,0,0,0,1.42-.78c.76-.59,1-2.56,1-3a4.35,4.35,0,0,0-1.09-2l-.16-.22a1.42,1.42,0,0,1-.26-.62.5.5,0,0,1,0-.2,3.3,3.3,0,0,0,.08-.8v-.11a7.1,7.1,0,0,1,.3-2.07,1.78,1.78,0,0,1,.59-.83,6.09,6.09,0,0,0,2.09-.21,2.37,2.37,0,0,1,1.51.48,1.63,1.63,0,0,1,.68.74,8,8,0,0,0,.16,1.78c0,.09,0,.18.06.32a3.26,3.26,0,0,0,.18.69,2.09,2.09,0,0,1-.27.81l-.06.09a5.13,5.13,0,0,0-1.13,2.3s.09,2.13,1,2.79h0a11.44,11.44,0,0,0,1.94,1.07c.55.27,1.18.57,1.87,1l.09.06s0,.11,0,.21,0,1.1.09,2.15H61.53a1,1,0,0,0,0,2h5.81a1,1,0,0,0,.72-.31,1,1,0,0,0,.28-.72C68.3,57.44,68.24,55.71,68.19,55.39ZM56.76,57.72c0,.22.08,1.63.13,3.14H39.3c.05-1.51.1-2.92.12-3.12l0-.11c0-.27,0-.34.32-.49a27.64,27.64,0,0,1,2.84-1.37,11.6,11.6,0,0,0,2.31-1.2c.85-.65,1.17-3.06,1.12-3.61a5.7,5.7,0,0,0-1.36-2.45,2.62,2.62,0,0,1-.21-.29,2,2,0,0,1-.4-1,1.26,1.26,0,0,1,0-.33,3.41,3.41,0,0,0,.1-1V45.8a9.49,9.49,0,0,1,.4-2.77,2.49,2.49,0,0,1,.91-1.28s.07,0,0,0h.09a7.83,7.83,0,0,0,2.67-.26,3.41,3.41,0,0,1,2.43.84c.58.45.8.87.8,1a9.82,9.82,0,0,0,.2,2.26c0,.13,0,.26.08.45a2.49,2.49,0,0,0,.22.76,1.07,1.07,0,0,1,0,.18,3,3,0,0,1-.39,1.22l-.07.11a6.81,6.81,0,0,0-1.44,2.85c0,.21.2,2.68,1.12,3.38h0a13.17,13.17,0,0,0,2.48,1.31c.81.37,1.73.78,2.69,1.3C56.7,57.28,56.71,57.4,56.76,57.72Z" />
    <path d="M59.59,12.07H12.42a4.8,4.8,0,0,0-4.8,4.8V50.44a4.8,4.8,0,0,0,4.8,4.8H36v-3H12.42a1.81,1.81,0,0,1-1.8-1.8V23L34.91,43.7a1.5,1.5,0,0,0,2,0L61.4,22.77v16h3V16.87A4.81,4.81,0,0,0,59.59,12.07ZM35.89,40.59,10.62,19V16.87a1.81,1.81,0,0,1,1.8-1.8H59.59a1.81,1.81,0,0,1,1.81,1.8v2Z" />
  </g>
  <rect x="0.36" y="0.36" width="71.28" height="71.28" fill="none"/>
</svg>
