<svg xmlns="http://www.w3.org/2000/svg" viewBox="0 0 72 72">
  <g>
    <path d="M34.33,27.57H28.18V21.41a1.5,1.5,0,0,0-3,0v6.16H19a1.5,1.5,0,0,0,0,3h6.16v6.15a1.5,1.5,0,0,0,3,0V30.57h6.15a1.5,1.5,0,0,0,0-3Z" />
    <path d="M63,10.5H9A1.5,1.5,0,0,0,7.5,12V28.5a1.51,1.51,0,0,0,1,1.41V62.5A.5.5,0,0,0,9,63H63a.5.5,0,0,0,.5-.5V29.91a1.51,1.51,0,0,0,1-1.41V12A1.5,1.5,0,0,0,63,10.5ZM26.5,62H9.5V46h17ZM9.5,45V30h3a14.16,14.16,0,0,0,14,13.26V45Zm17.12-3.74A12.16,12.16,0,1,1,38.78,29.11,12.17,12.17,0,0,1,26.62,41.26ZM44.5,62h-17V46h17Zm0-17h-17V43.22A14.15,14.15,0,0,0,40.73,30H44.5ZM40.61,27a14.14,14.14,0,0,0-28,0H10.5V13.5h51V27ZM62.5,62h-17V46h17Zm0-17h-17V30h17Z" />
  </g>
  <rect x="0.36" y="0.36" width="71.28" height="71.28" fill="none"/>
</svg>
