<svg xmlns="http://www.w3.org/2000/svg" viewBox="0 0 72 72">
  <path d="M48.07,58.1a2,2,0,0,1-1.41-.58l-7.93-7.93a2,2,0,0,1,0-2.83L55.19,30.3a2,2,0,0,1,1.41-.59h0A2,2,0,0,1,58,30.3l2.9,2.9,0-14.81-14.81,0L50,22.28a2,2,0,0,1,0,2.82L26.87,48.23l5.36,5.36a2,2,0,0,1,.44,2.18A2,2,0,0,1,30.82,57L9.18,57h0a2,2,0,0,1-1.42-.59A2,2,0,0,1,7.18,55l0-21.64A2,2,0,0,1,10.62,32l4.9,4.9L28.71,23.69l-6.09-6.1a2,2,0,0,1,2.82-2.83L33,22.28a2,2,0,0,1,0,2.82l-16,16a2,2,0,0,1-2.82,0l-2.91-2.9,0,14.81L26,53l-3.37-3.36a2,2,0,0,1,0-2.83L45.75,23.69l-5.86-5.86a2,2,0,0,1,1.41-3.42l21.64,0h0a2,2,0,0,1,2,2l0,21.64a2,2,0,0,1-3.42,1.41l-4.9-4.9L43,48.17l6.52,6.52a2,2,0,0,1-1.42,3.41Z" />
  <rect x="0.36" y="0.36" width="71.28" height="71.28" fill="none"/>
</svg>
