<svg xmlns="http://www.w3.org/2000/svg" viewBox="0 0 72 72">
  <g>
    <path d="M14.6,19.16a.77.77,0,1,0,.77-.76A.76.76,0,0,0,14.6,19.16Z" />
    <path d="M16.13,27.26a.77.77,0,1,0-.76.76A.76.76,0,0,0,16.13,27.26Z" />
    <path d="M39.62,11.66a.76.76,0,0,0,.76.76.76.76,0,1,0,0-1.52A.76.76,0,0,0,39.62,11.66Z" />
    <path d="M41.15,19.76a.77.77,0,0,0-.77-.76.76.76,0,0,0,0,1.52A.77.77,0,0,0,41.15,19.76Z" />
    <path d="M31.62,52.18a.76.76,0,0,0,.76.76.77.77,0,1,0-.76-.76Z" />
    <path d="M33.15,60.28a.77.77,0,0,0-.77-.77.77.77,0,1,0,.77.77Z" />
    <path d="M57.29,39.72V32.77a1,1,0,0,0-1-1h-10V29.9a1.5,1.5,0,0,0-1.5-1.5H41.33V24.71a9.06,9.06,0,1,0-2,0V28.4H26.79a1.5,1.5,0,0,0-1.5,1.5v5.28h-9v-3a9.07,9.07,0,1,0-2,0v4a1,1,0,0,0,1,1h10V42.9a1.5,1.5,0,0,0,1.5,1.5h4.53v2.85a9,9,0,1,0,2,0V44.4H44.79a1.5,1.5,0,0,0,1.5-1.5V33.77h9v6a9,9,0,1,0,2,0Zm-9.84-24a7,7,0,0,1-2.74,5.56,4.76,4.76,0,0,0,.34-1.73,4.38,4.38,0,0,0-4.67-4.68,2.91,2.91,0,0,1-3.16-3.18,3.17,3.17,0,0,1,1.87-2.89,7.06,7.06,0,0,1,8.36,6.92Zm-14.09,0A7,7,0,0,1,36,10.25a4.76,4.76,0,0,0-.24,1.43,4.42,4.42,0,0,0,4.66,4.68,2.91,2.91,0,0,1,3.17,3.18,3.35,3.35,0,0,1-2.27,3.16,8.48,8.48,0,0,1-.88.06A7.05,7.05,0,0,1,33.36,15.71Zm-10.93,7.5a7,7,0,0,1-2.73,5.56A4.75,4.75,0,0,0,20,27a4.37,4.37,0,0,0-4.66-4.68,2.92,2.92,0,0,1-3.17-3.18,3.17,3.17,0,0,1,1.87-2.89,7.2,7.2,0,0,1,1.32-.12A7.05,7.05,0,0,1,22.43,23.21Zm-14.09,0A7,7,0,0,1,11,17.75a4.47,4.47,0,0,0-.25,1.43,4.42,4.42,0,0,0,4.67,4.68A2.91,2.91,0,0,1,18.53,27a3.34,3.34,0,0,1-2.27,3.16,8.48,8.48,0,0,1-.87.06A7.05,7.05,0,0,1,8.34,23.21Zm17,33A7,7,0,0,1,28,50.76a4.87,4.87,0,0,0-.24,1.43,4.42,4.42,0,0,0,4.66,4.68,2.92,2.92,0,0,1,3.17,3.18,3.35,3.35,0,0,1-2.27,3.16,6.4,6.4,0,0,1-.88.06A7.05,7.05,0,0,1,25.36,56.23Zm14.09,0a7,7,0,0,1-2.74,5.56,4.81,4.81,0,0,0,.34-1.74,4.38,4.38,0,0,0-4.67-4.68,2.91,2.91,0,0,1-3.16-3.18,3.16,3.16,0,0,1,1.87-2.88,7,7,0,0,1,8.36,6.92ZM43.29,41.4h-15v-10h15Zm6.08,7.33A7,7,0,0,1,52,43.26a4.57,4.57,0,0,0-.25,1.43,4.43,4.43,0,0,0,4.67,4.68,2.92,2.92,0,0,1,3.17,3.18,3.35,3.35,0,0,1-2.27,3.16,6.4,6.4,0,0,1-.88.06A7.05,7.05,0,0,1,49.37,48.73Zm11.36,5.56a4.81,4.81,0,0,0,.34-1.74,4.39,4.39,0,0,0-4.67-4.68,2.92,2.92,0,0,1-3.17-3.18,3.15,3.15,0,0,1,1.88-2.88,7,7,0,0,1,5.62,12.48Z" />
    <path d="M56.4,43.91a.77.77,0,1,0,0,1.53.77.77,0,0,0,0-1.53Z" />
    <path d="M57.16,52.78A.76.76,0,0,0,56.4,52a.77.77,0,1,0,0,1.53A.76.76,0,0,0,57.16,52.78Z" />
  </g>
  <rect x="0.36" y="0.36" width="71.28" height="71.28" fill="none"/>
</svg>
