<svg xmlns="http://www.w3.org/2000/svg" viewBox="0 0 72 72">
  <g>
    <path d="M50.79,36.28a1.51,1.51,0,0,1-1.06-.44l-5.19-5.2a1.49,1.49,0,0,1,0-2.12,1.51,1.51,0,0,1,2.12,0l4.13,4.14,9.26-9.26a1.5,1.5,0,0,1,2.12,2.12L51.85,35.84A1.49,1.49,0,0,1,50.79,36.28Z" />
    <circle cx="35.72" cy="21" r="6.09" />
    <path d="M35.72,65.27c-7.5,0-16.23-6-16.23-13.72V21c0-7.73,8.73-13.73,16.23-13.73S52,13.27,52,21v4.78H50V21c0-6.49-7.78-11.73-14.23-11.73S21.49,14.51,21.49,21V51.55c0,6.49,7.79,11.72,14.23,11.72S50,58,50,51.55V40.17h2V51.55C52,59.28,43.23,65.27,35.72,65.27Z" />
    <path d="M35.72,42.34a6.09,6.09,0,1,1,6.09-6.09A6.09,6.09,0,0,1,35.72,42.34Zm0-10.18a4.09,4.09,0,1,0,4.09,4.09A4.1,4.1,0,0,0,35.72,32.16Z" />
    <path d="M35.72,57.77a6.09,6.09,0,1,1,6.09-6.09A6.09,6.09,0,0,1,35.72,57.77Zm0-10.18a4.09,4.09,0,1,0,4.09,4.09A4.1,4.1,0,0,0,35.72,47.59Z" />
  </g>
  <rect x="0.36" y="0.36" width="71.28" height="71.28" fill="none"/>
</svg>
