<?xml version="1.0" encoding="UTF-8"?>
<svg xmlns="http://www.w3.org/2000/svg" viewBox="0 0 72 72">
    <path d="M56.13,47.03l6.75-31.34c.1-.44-.01-.91-.3-1.26s-.71-.56-1.17-.56H16.22l-1.33-5.14c-.17-.66-.77-1.12-1.45-1.12H7.11c-.83,0-1.5,.67-1.5,1.5s.67,1.5,1.5,1.5h5.17l1.21,4.7s0,.04,0,.06c0,.29,.08,.55,.22,.78l8,30.96c.06,.24,.2,.44,.36,.62-2.53,.8-4.36,3.17-4.36,5.95,0,3.44,2.8,6.24,6.24,6.24s6.24-2.8,6.24-6.24c0-2.34-1.3-4.38-3.21-5.45l22.84-.02c-1.93,1.06-3.24,3.12-3.24,5.47,0,3.44,2.8,6.24,6.24,6.24s6.24-2.8,6.24-6.24c0-2.53-1.51-4.71-3.68-5.69,.36-.21,.65-.54,.74-.97ZM17,16.87H59.55l-6.1,28.34-29.13,.02-7.33-28.37Zm6.96,40.06c-1.79,0-3.24-1.45-3.24-3.24s1.46-3.24,3.24-3.24,3.24,1.46,3.24,3.24-1.46,3.24-3.24,3.24Zm28.88,0c-1.79,0-3.24-1.45-3.24-3.24s1.46-3.24,3.24-3.24,3.24,1.46,3.24,3.24-1.46,3.24-3.24,3.24Z" />
    <rect x=".36" y=".36" width="71.28" height="71.28" fill="none"/>
</svg>