<svg xmlns="http://www.w3.org/2000/svg" viewBox="0 0 72 72">
  <g>
    <path d="M63,10.5H9A1.5,1.5,0,0,0,7.5,12V28.5a1.51,1.51,0,0,0,1,1.41V62.5A.5.5,0,0,0,9,63H63a.5.5,0,0,0,.5-.5V29.91a1.51,1.51,0,0,0,1-1.41V12A1.5,1.5,0,0,0,63,10.5ZM62.5,45h-17V30h17ZM9.5,30h6.13A11.39,11.39,0,0,0,26.5,39.73V45H9.5Zm17.39,7.75a9.39,9.39,0,1,1,9.39-9.39A9.4,9.4,0,0,1,26.89,37.75Zm.61,2A11.4,11.4,0,0,0,38.15,30H44.5V45h-17ZM10.5,13.5h51V27H38.19a11.38,11.38,0,0,0-22.6,0H10.5ZM9.5,46h17V62H9.5Zm18,0h17V62h-17Zm35,16h-17V46h17Z" />
    <path d="M31.86,27.33H27.93V23.4a1,1,0,0,0-2,0v3.93H22a1,1,0,0,0,0,2h3.93v3.93a1,1,0,0,0,2,0V29.33h3.93a1,1,0,0,0,0-2Z" />
  </g>
  <rect x="0.36" y="0.36" width="71.28" height="71.28" fill="none"/>
</svg>
