<svg xmlns="http://www.w3.org/2000/svg" viewBox="0 0 72 72">
  <g>
    <path d="M60.32,26.67H48.05c.14-.3.26-.6.38-.91h0l0-.1c.12-.32.23-.65.32-1l.06-.25c.08-.3.15-.6.21-.91s.05-.34.08-.51.07-.46.09-.7A10.81,10.81,0,0,0,49.29,21a13.57,13.57,0,1,0-27.14,0c0,.43,0,.86.06,1.28,0,.24.06.48.1.72a4,4,0,0,0,.08.5c.06.32.13.63.21.94,0,.08,0,.16.07.24.09.34.2.67.32,1a.76.76,0,0,1,0,.11h0a7.81,7.81,0,0,0,.35.84h-12a3.62,3.62,0,0,0-3.61,3.62V59.55a3.61,3.61,0,0,0,3.61,3.61H60.32a3.62,3.62,0,0,0,3.62-3.61V30.29A3.63,3.63,0,0,0,60.32,26.67ZM47.29,21a9.77,9.77,0,0,1-.06,1.08c0,.21,0,.42-.08.64l-.06.38c-.05.28-.12.56-.19.84a.65.65,0,0,0,0,.13c-.08.31-.18.61-.29.91a11.79,11.79,0,0,1-1.06,2.17,12.07,12.07,0,0,1-1.77,2.17l-.27.24c-.23.21-.46.41-.71.6l-.4.3c-.23.16-.46.31-.71.45A7.29,7.29,0,0,0,42.8,27c0-4.34-2.79-7.14-7.12-7.14-3.2,0-5.12-1.92-5.12-5.14a5.12,5.12,0,0,1,5.12-5.12,1,1,0,0,0,.46-.13A11.58,11.58,0,0,1,47.29,21Zm-17.86-9.7a7.1,7.1,0,0,0-.87,3.4,6.75,6.75,0,0,0,7.12,7.14c4.63,0,5.12,3.59,5.12,5.14a5.45,5.45,0,0,1-5.12,5.51c-.21,0-.39,0-.56,0l-.75,0-.44-.07c-.3-.05-.59-.1-.88-.17l-.49-.13-.81-.26-.45-.17a11.45,11.45,0,0,1-1.12-.53c-.13-.07-.25-.15-.37-.23l-.74-.47-.39-.3q-.37-.28-.72-.6l-.27-.24a11.83,11.83,0,0,1-2.8-4.27c-.11-.31-.22-.62-.31-.94l0-.12c-.08-.29-.15-.58-.2-.87l-.06-.38c0-.21-.07-.43-.09-.65s-.05-.72-.05-1.09A11.56,11.56,0,0,1,29.43,11.34ZM61.94,59.55a1.62,1.62,0,0,1-1.62,1.61H11.43a1.61,1.61,0,0,1-1.61-1.61V30.29a1.62,1.62,0,0,1,1.61-1.62H24.5c.3.43.62.83.95,1.22l.27.29c.24.27.49.52.75.77l.42.38q.36.3.72.57c.16.12.32.25.49.36a11.44,11.44,0,0,0,1.17.72l.59.28.76.35.63.23c.27.1.55.18.83.26l.61.16c.32.07.64.13,1,.18l.52.08a13.22,13.22,0,0,0,3.08,0l.52-.08c.32,0,.65-.11,1-.18l.61-.16c.28-.08.55-.16.82-.26l.64-.23.75-.34.6-.29q.6-.33,1.17-.72a5.72,5.72,0,0,0,.49-.37c.24-.18.48-.36.71-.56L45,31c.26-.25.51-.5.75-.76.09-.1.19-.2.27-.3a12.46,12.46,0,0,0,1-1.22H60.32a1.63,1.63,0,0,1,1.62,1.62Z" />
    <circle cx="35.68" cy="14.71" r="1.19" />
    <circle cx="35.68" cy="27.37" r="1.19" />
    <polygon points="38.45 45.45 38.45 42.86 56.36 42.86 56.36 45.45 38.45 45.45 38.45 45.45" />
    <polygon points="38.45 50.87 38.45 48.28 56.36 48.28 56.36 50.86 38.45 50.86 38.45 50.87" />
    <polygon points="38.45 56.28 38.45 53.69 56.36 53.69 56.36 56.28 38.45 56.28 38.45 56.28" />
    <polygon points="15.62 45.45 15.62 42.86 33.52 42.86 33.52 45.45 15.62 45.45 15.62 45.45" />
    <polygon points="38.45 40 38.45 37.41 56.36 37.41 56.36 40 38.45 40 38.45 40" />
    <polygon points="15.62 40 15.62 37.41 33.52 37.41 33.52 40 15.62 40 15.62 40" />
    <polygon points="15.62 50.87 15.62 48.28 33.52 48.28 33.52 50.86 15.62 50.86 15.62 50.87" />
    <polygon points="15.62 56.28 15.62 53.69 33.52 53.69 33.52 56.28 15.62 56.28 15.62 56.28" />
  </g>
  <rect x="0.36" y="0.36" width="71.28" height="71.28" fill="none"/>
</svg>
