<svg xmlns="http://www.w3.org/2000/svg" viewBox="0 0 72 72">
  <g>
    <path d="M51.09,36.58A1.53,1.53,0,0,1,50,36.14L44.83,31A1.5,1.5,0,0,1,47,28.83L51.09,33l9.26-9.26a1.49,1.49,0,0,1,2.12,0,1.51,1.51,0,0,1,0,2.12L52.15,36.14A1.53,1.53,0,0,1,51.09,36.58Z" />
    <path d="M36,26.89a6.09,6.09,0,1,1,6.09-6.09A6.1,6.1,0,0,1,36,26.89Z" />
    <path d="M36,65.08c-7.9,0-16.73-5.87-16.73-13.73V20.8C19.29,13,28.12,7.08,36,7.08S52.74,13,52.74,20.8v4.78h-3V20.8c0-6-7.38-10.72-13.72-10.72S22.29,14.76,22.29,20.8V51.35c0,6,7.38,10.73,13.73,10.73s13.72-4.69,13.72-10.73V40h3V51.35C52.74,59.21,43.91,65.08,36,65.08Z" />
    <path d="M36,42.14a6.09,6.09,0,1,1,6.09-6.09A6.1,6.1,0,0,1,36,42.14ZM36,32a4.09,4.09,0,1,0,4.09,4.09A4.1,4.1,0,0,0,36,32Z" />
    <path d="M36,57.58a6.1,6.1,0,1,1,6.09-6.1A6.11,6.11,0,0,1,36,57.58Zm0-10.19a4.1,4.1,0,1,0,4.09,4.09A4.1,4.1,0,0,0,36,47.39Z" />
  </g>
  <rect x="0.36" y="0.36" width="71.28" height="71.28" fill="none"/>
</svg>
