<svg xmlns="http://www.w3.org/2000/svg" viewBox="0 0 72 72">
  <path d="M65.37,37.57A32.16,32.16,0,0,0,54.41,24l7.44-7.45A2,2,0,0,0,59,13.75L50.9,21.87A31.65,31.65,0,0,0,7,37.6a2.19,2.19,0,0,0,1.19,2.87,2.29,2.29,0,0,0,.84.17,2.2,2.2,0,0,0,2-1.36A27.3,27.3,0,0,1,47.63,25.14l-4.49,4.5a12.46,12.46,0,0,0-7-2.12A12.58,12.58,0,0,0,25.69,47.09l-11.3,11.3a2,2,0,0,0,0,2.83,2,2,0,0,0,1.41.58,2,2,0,0,0,1.42-.58L28.41,50A12.58,12.58,0,0,0,46.07,32.36l5.18-5.18A27.76,27.76,0,0,1,61.33,39.31a2.2,2.2,0,1,0,4-1.74ZM28,40.12a8.19,8.19,0,0,1,12-7.28l-11,11A8.11,8.11,0,0,1,28,40.12Zm16.39,0a8.19,8.19,0,0,1-12.81,6.76L42.93,35.5A8.15,8.15,0,0,1,44.36,40.12Z"/>
  <rect x="0.36" y="0.36" width="71.28" height="71.28" fill="none"/>
</svg>
