<svg xmlns="http://www.w3.org/2000/svg" viewBox="0 0 72 72">
  <g>
    <path d="M17.41,23.43H13a.75.75,0,0,1,0-1.5h4.37a.75.75,0,1,1,0,1.5Z" />
    <path d="M17.41,26.74H13a.75.75,0,0,1,0-1.5h4.37a.75.75,0,0,1,0,1.5Z" />
    <path d="M17.41,54.71H13a.75.75,0,0,1,0-1.5h4.37a.75.75,0,1,1,0,1.5Z" />
    <path d="M20.32,63.11H10.12a1,1,0,0,1-1-1V14.35a1,1,0,0,1,1-1h10.2a1,1,0,0,1,1,1V62.11A1,1,0,0,1,20.32,63.11Zm-9.2-2h8.2V15.35h-8.2Z" />
    <path d="M31.52,26.18H27.15a.75.75,0,0,1,0-1.5h4.37a.75.75,0,0,1,0,1.5Z" />
    <path d="M44.64,18.43H38.52a.75.75,0,0,1,0-1.5h6.12a.75.75,0,0,1,0,1.5Z" />
    <path d="M44.64,21.19H38.52a.75.75,0,0,1,0-1.5h6.12a.75.75,0,0,1,0,1.5Z" />
    <path d="M44.64,24H38.52a.75.75,0,0,1,0-1.5h6.12a.75.75,0,0,1,0,1.5Z" />
    <path d="M44.64,54.08H38.52a.75.75,0,1,1,0-1.5h6.12a.75.75,0,0,1,0,1.5Z" />
    <path d="M51.88,20.84a.75.75,0,0,1-.07-1.5L56.16,19a.75.75,0,1,1,.14,1.5L52,20.84Z" />
    <path d="M52.17,24.13a.74.74,0,0,1-.74-.68.75.75,0,0,1,.68-.82l4.35-.39a.75.75,0,0,1,.13,1.5l-4.35.39Z" />
    <path d="M54.89,54.48A.75.75,0,0,1,54.83,53l4.35-.39a.75.75,0,1,1,.13,1.49L55,54.48Z" />
    <path d="M59.39,11.05a1,1,0,0,0-1.09-.91L48.55,11V9a1,1,0,0,0-1-1H35.6a1,1,0,0,0-1,1v7.09a.76.76,0,0,0-.16,0H24.24a1,1,0,0,0-1,1v45a1,1,0,0,0,1,1h10.2A.94.94,0,0,0,35,62.9a.94.94,0,0,0,.58.21H47.55a1,1,0,0,0,1-1V26.82L51.72,62.2a1,1,0,0,0,1,.91h.09L63,62.2a1,1,0,0,0,.67-.36,1,1,0,0,0,.23-.73ZM33.44,61.11h-8.2v-43h8.2Zm13.11,0H36.6V10h9.95ZM53.62,61,49.32,13l8.16-.74,4.31,48.07Z" />
  </g>
  <rect x="0.36" y="0.36" width="71.28" height="71.28" fill="none"/>
</svg>
