<?xml version="1.0" encoding="utf-8"?>
<!-- Generator: Adobe Illustrator 26.5.3, SVG Export Plug-In . SVG Version: 6.00 Build 0)  -->
<svg version="1.1" id="Layer_1" xmlns="http://www.w3.org/2000/svg" xmlns:xlink="http://www.w3.org/1999/xlink" x="0px" y="0px"
	 viewBox="0 0 72 72" style="enable-background:new 0 0 72 72;" xml:space="preserve">
<style type="text/css">
	.st0{fill-rule:evenodd;clip-rule:evenodd;}
	.st1{fill:none;}
</style>
<path class="st0" d="M63,34.7L37.6,9.3c-0.7-0.7-1.8-0.7-2.5,0L9.4,34.9c-0.7,0.7-0.7,1.8,0,2.5l25.4,25.4c0.3,0.3,0.8,0.5,1.3,0.5
	s0.9-0.2,1.3-0.5L63,37.3c0.3-0.3,0.5-0.8,0.5-1.3S63.3,35.1,63,34.7z M36.1,60.1L12.2,36.2l24.1-24.1L60.2,36L36.1,60.1L36.1,60.1z
	"/>
<rect x="0.4" y="0.4" class="st1" width="71.3" height="71.3"/>
<path d="M44.8,37.9c-1.6,2.7-3.4,4.9-5.4,6.6c-2,1.7-3.6,2.6-5.1,2.6c-2,0-3-1.6-3-4.8c0-4.4,1.4-8.2,4.3-11.4
	c2.9-3.2,6.3-4.8,10.2-4.8c1.5,0,2.8,0.2,3.8,0.6c-0.1,0.3-0.1,0.4-0.1,0.5l-0.3,1.1c-0.2,0.8-0.3,1.2-0.3,1.4l-1.4,9.5l-0.2,1.4
	c-0.2,1.4-0.3,2.3-0.3,2.7c0,0.6,0.2,0.9,0.5,0.9c1.2,0,2.4-1.3,3.7-4c0.4,0.2,0.6,0.5,0.6,0.7c0,0.5-0.6,1.5-1.9,3
	c-1.7,2.1-3.2,3.1-4.7,3.1c-1.1,0-1.6-0.7-1.6-2.1c0-0.4,0.1-1,0.2-1.8l0.2-1.7l0.3-1.9C44.5,39.5,44.8,37.9,44.8,37.9z M46,29.4
	c-1.3-0.7-2.6-1.1-4-1.1c-2,0-3.7,1.2-5.1,3.7s-2.1,5.5-2.1,9.1c0,1.9,0.6,2.8,1.7,2.8c1.3,0,2.8-1,4.6-2.9c2.4-2.6,3.9-5.7,4.4-9.3
	C45.7,31.7,46,29.4,46,29.4z"/>
</svg>
