<svg xmlns="http://www.w3.org/2000/svg" viewBox="0 0 72 72">
  <g>
    <path d="M51.15,65.16H41.58v-3h9.57A1.18,1.18,0,0,0,52.33,61V10.15A1.18,1.18,0,0,0,51.15,9H20.75a1.18,1.18,0,0,0-1.18,1.18V61a1.18,1.18,0,0,0,1.18,1.19h9.19v3H20.75A4.19,4.19,0,0,1,16.57,61V10.15A4.19,4.19,0,0,1,20.75,6h30.4a4.18,4.18,0,0,1,4.18,4.18V61A4.19,4.19,0,0,1,51.15,65.16Z" />
    <path d="M41.05,17.33H30.86a1,1,0,0,1,0-2H41.05a1,1,0,1,1,0,2Z" />
    <path d="M41.05,24.4H30.86a1,1,0,0,1,0-2H41.05a1,1,0,0,1,0,2Z" />
    <g>
      <path d="M23.71,41.71h6.83v2.47h-4v2.55h3.68v2.39H26.56V54H23.71Z" />
      <path d="M32,41.71h7.74V44.2H37.29V54H34.44V44.2H32Z" />
      <path d="M41.72,41.71h4.37a3.64,3.64,0,0,1,2.63.91,3.46,3.46,0,0,1,.93,2.58A5.13,5.13,0,0,1,49.34,47a3,3,0,0,1-1.29,1.52,4.44,4.44,0,0,1-2.48.64h-1V54H41.72Zm2.89,2.37v2.63h.63a1.6,1.6,0,0,0,1.11-.37,1.27,1.27,0,0,0,.42-1,1.23,1.23,0,0,0-.32-.93,1.31,1.31,0,0,0-1-.31Z" />
    </g>
  </g>
  <g>
    <rect x="71.97" width="71.28" height="71.28" fill="none"/>
    <rect x="0.22" y="0.36" width="71.28" height="71.28" fill="none"/>
  </g>
</svg>
