<svg xmlns="http://www.w3.org/2000/svg" viewBox="0 0 72 72">
  <g>
    <path d="M36,64.1a2,2,0,0,1-1.41-.59l-26.05-26a2,2,0,0,1,0-2.82L34.73,8.42a2,2,0,0,1,2.82,0L63.6,34.47a2,2,0,0,1,0,2.83L37.39,63.51A2,2,0,0,1,36,64.1Zm-23.22-28L36,59.27,59.36,35.88,36.14,12.66Z" />
    <path d="M34.42,41.8l-.09-1a9.15,9.15,0,0,1,2.49-6.88c1.79-2.16,2.79-3.72,2.79-5.52,0-2-1.28-3.4-3.79-3.44a7.11,7.11,0,0,0-4,1.24l-1-2.52A10.59,10.59,0,0,1,36.54,22c4.59,0,6.67,2.84,6.67,5.88,0,2.72-1.52,4.72-3.44,7A8,8,0,0,0,37.5,40.8l0,1Zm1.44,8.11a2.5,2.5,0,1,1,2.43-2.48,2.34,2.34,0,0,1-2.43,2.48Z" />
  </g>
  <rect x="0.36" y="0.36" width="71.28" height="71.28" fill="none"/>
</svg>
