<svg xmlns="http://www.w3.org/2000/svg" viewBox="0 0 72 72">
  <g>
    <path d="M51.15,65.41H41.57v-3h9.58a1.18,1.18,0,0,0,1.18-1.19V10.4a1.18,1.18,0,0,0-1.18-1.18H20.75a1.18,1.18,0,0,0-1.18,1.18V61.22a1.18,1.18,0,0,0,1.18,1.19h9.18v3H20.75a4.19,4.19,0,0,1-4.18-4.19V10.4a4.18,4.18,0,0,1,4.18-4.18h30.4a4.19,4.19,0,0,1,4.18,4.18V61.22A4.19,4.19,0,0,1,51.15,65.41Z" />
    <path d="M41,17.58H30.85a1,1,0,0,1,0-2H41a1,1,0,1,1,0,2Z" />
    <path d="M41,24.65H30.85a1,1,0,0,1,0-2H41a1,1,0,0,1,0,2Z" />
    <path d="M40.61,55a1,1,0,0,1,0-2h2.66a3.51,3.51,0,0,0-.18-7,2.09,2.09,0,0,0-.52,0A1.43,1.43,0,0,1,41,45.32a5.3,5.3,0,0,0-10,1.79,1.47,1.47,0,0,1-.66,1,1.38,1.38,0,0,1-1.22.13A2.43,2.43,0,1,0,28.31,53h7.62a1,1,0,1,1,0,2H28.29a4.43,4.43,0,0,1,.08-8.85,4.68,4.68,0,0,1,.76.06A7.31,7.31,0,0,1,42.58,44l.51,0a5.5,5.5,0,0,1,.22,11ZM29.8,46.4Zm12.34-2.29Z" />
  </g>
  <rect x="0.36" y="0.36" width="71.28" height="71.28" fill="none"/>
</svg>
