<?xml version="1.0" encoding="UTF-8"?>
<svg xmlns="http://www.w3.org/2000/svg" viewBox="0 0 72 72">
    <path d="M27.2,49.8h-4.88v-4.88c0-.91-.74-1.65-1.65-1.65s-1.65,.74-1.65,1.65v4.88h-4.87c-.91,0-1.65,.74-1.65,1.65s.74,1.65,1.65,1.65h4.87v4.87c0,.91,.74,1.65,1.65,1.65s1.65-.74,1.65-1.65v-4.87h4.88c.91,0,1.65-.74,1.65-1.65s-.74-1.65-1.65-1.65Z" />
    <path d="M66,35.29l-12.82-12.82c-.34-.34-.93-.34-1.27,0l-6.15,6.15-2.32-2.32,6.15-6.15c.17-.17,.26-.4,.26-.63s-.09-.47-.26-.63l-12.82-12.82c-.34-.34-.93-.34-1.27,0l-12.9,12.9c-.35,.35-.35,.92,0,1.27l5.97,5.97-2.35,2.35-5.97-5.97c-.34-.34-.93-.34-1.27,0l-12.9,12.9c-.35,.35-.35,.92,0,1.27l5.61,5.61c-2.36,2.32-3.83,5.55-3.83,9.11,0,7.05,5.73,12.78,12.78,12.78,3.56,0,6.79-1.47,9.11-3.83l5.57,5.57c.18,.18,.41,.26,.63,.26s.46-.09,.63-.26l12.9-12.9c.17-.17,.26-.4,.26-.63s-.09-.47-.26-.63l-6.25-6.25,2.35-2.35,6.25,6.25c.18,.18,.41,.26,.63,.26s.46-.09,.63-.26l12.9-12.9c.17-.17,.26-.4,.26-.63s-.09-.47-.26-.63ZM25.21,19.59l10.92-10.92,10.85,10.85-5.16,5.16-4.03-4.03c.28-.38,.45-.84,.45-1.35,0-1.26-1.02-2.28-2.28-2.28s-2.28,1.02-2.28,2.28c0,.5,.17,.96,.44,1.34l-3.93,3.93-4.98-4.98Zm15.91,5.79l-5.06,5.06-5.16-5.16,3.98-3.98c.32,.18,.69,.29,1.09,.29s.75-.11,1.07-.28l4.08,4.08Zm-10.66,10.66l-4.05,4.05c-.89-.45-1.83-.8-2.82-1.04l-1.99-1.99c.23-.36,.37-.79,.37-1.25s-.14-.89-.37-1.25l3.69-3.69,5.16,5.16Zm1.53,9.59l4.03-4.03,4.87,4.87-3.69,3.69c-.36-.24-.79-.37-1.25-.37s-.89,.14-1.25,.37l-1.65-1.65c-.24-1.01-.6-1.98-1.07-2.88Zm-23.3-9.52l10.92-10.92,4.98,4.98-3.71,3.71c-.35-.21-.75-.34-1.19-.34-1.26,0-2.28,1.02-2.28,2.28s1.02,2.28,2.28,2.28c.44,0,.84-.13,1.19-.34l1,1c-.41-.04-.83-.06-1.25-.06-2.65,0-5.12,.81-7.16,2.2l-4.78-4.78Zm11.95,25.89c-5.81,0-10.54-4.73-10.54-10.54s4.73-10.54,10.54-10.54,10.54,4.73,10.54,10.54-4.73,10.54-10.54,10.54Zm26.24-9.56l-10.92,10.92-4.74-4.74c1.39-2.05,2.2-4.51,2.2-7.16,0-.42-.02-.84-.06-1.25l.66,.66c-.21,.35-.34,.75-.34,1.19,0,1.26,1.02,2.28,2.28,2.28s2.28-1.02,2.28-2.28c0-.44-.13-.84-.34-1.19l3.71-3.71,5.27,5.27Zm-4.35-7.6l-5.86-5.86c-.34-.34-.93-.34-1.27,0l-4.67,4.67c-.67-.87-1.46-1.64-2.33-2.31l4.67-4.67c.17-.17,.26-.4,.26-.63s-.09-.47-.26-.63l-6.15-6.15,2.35-2.35,6.15,6.15c.18,.18,.41,.26,.63,.26s.46-.09,.63-.26l6.05-6.05,2.32,2.32-6.05,6.05c-.35,.35-.35,.92,0,1.27l5.86,5.86-2.35,2.35Zm-.9-8.85l5.06-5.06,3.79,3.79c-.17,.32-.28,.68-.28,1.07s.11,.76,.29,1.08l-3.98,3.98-4.87-4.87Zm10.85,10.85l-5.27-5.27,3.93-3.93c.38,.27,.84,.44,1.34,.44,1.26,0,2.28-1.02,2.28-2.28s-1.02-2.28-2.28-2.28c-.51,0-.97,.17-1.35,.45l-3.74-3.74,5.16-5.16,10.85,10.85-10.92,10.92Z" />
    <rect x=".36" y=".36" width="71.28" height="71.28" fill="none"/>
</svg>