<?xml version="1.0" encoding="UTF-8"?>
<svg xmlns="http://www.w3.org/2000/svg" viewBox="0 0 72 72">
    <path d="M63.01,34.74L37.57,9.3c-.67-.67-1.85-.67-2.52,0L9.45,34.9c-.7,.7-.7,1.82,0,2.52l25.44,25.44c.35,.35,.8,.52,1.26,.52s.91-.17,1.26-.52l25.6-25.6c.33-.33,.52-.79,.52-1.26s-.19-.93-.52-1.26Zm-26.86,25.34L12.23,36.16,36.31,12.07l23.92,23.92-24.08,24.08Z"  fill-rule="evenodd"/>
    <path d="M43.7,38.16c-1.67,2.76-3.51,5.01-5.52,6.77-2.01,1.76-3.75,2.63-5.23,2.63-2.03,0-3.04-1.64-3.04-4.91,0-4.5,1.48-8.41,4.43-11.7,2.96-3.3,6.46-4.95,10.5-4.95,1.54,0,2.85,.19,3.93,.58-.07,.27-.12,.43-.13,.49l-.27,1.18c-.18,.81-.27,1.29-.29,1.42l-1.42,9.81-.2,1.42c-.19,1.41-.29,2.35-.29,2.82,0,.64,.18,.95,.55,.95,1.24,0,2.51-1.39,3.81-4.16,.4,.24,.6,.47,.6,.71,0,.52-.64,1.56-1.91,3.13-1.73,2.13-3.34,3.2-4.82,3.2-1.08,0-1.62-.73-1.62-2.18,0-.44,.05-1.06,.16-1.85l.22-1.78,.29-1.96,.25-1.65Zm1.27-8.81c-1.35-.75-2.71-1.13-4.09-1.13-2.08,0-3.82,1.27-5.23,3.8-1.41,2.53-2.11,5.67-2.11,9.41,0,1.92,.57,2.89,1.71,2.89,1.32,0,2.91-1.01,4.78-3.02,2.52-2.71,4.05-5.89,4.58-9.55l.36-2.4Z" />
    <rect x=".36" y=".36" width="71.28" height="71.28" fill="none"/>
</svg>
