<?xml version="1.0" encoding="utf-8"?>
<svg xmlns="http://www.w3.org/2000/svg" viewBox="0 0 72 72" >
	<path d="M51.4,65.2h-9.6v-3h9.6c0.6,0,1.2-0.5,1.2-1.2V10.1c0-0.6-0.5-1.2-1.2-1.1H21c-0.7,0-1.2,0.5-1.2,1.2c0,0,0,0,0,0V61
		c0,0.6,0.5,1.2,1.2,1.2h9.2v3H21c-2.3,0-4.2-1.9-4.2-4.2V10.1C16.9,7.9,18.7,6,21,6h30.4c2.3,0,4.2,1.9,4.2,4.2l0,0V61
		C55.6,63.3,53.7,65.1,51.4,65.2z"/>
	<path d="M41.3,17.3H31.1c-0.6,0-1-0.4-1-1c0-0.6,0.4-1,1-1h10.2c0.6,0,1,0.4,1,1C42.3,16.9,41.9,17.3,41.3,17.3z"/>
	<path d="M41.3,24.4H31.1c-0.6,0-1-0.4-1-1s0.4-1,1-1h10.2c0.6,0,1,0.4,1,1S41.9,24.4,41.3,24.4z"/>
	<polygon points="30.7,41.4 30.7,39.8 41.4,39.8 41.4,41.4 30.7,41.4 	"/>
	<polygon points="30.7,45 30.7,43.5 41.4,43.5 41.4,45 30.7,45 	"/>
	<polygon points="30.7,48.9 30.7,47.3 41.4,47.3 41.4,48.9 30.7,48.9 	"/>
	<polygon points="30.7,52.5 30.7,51 41.4,51 41.4,52.5 30.7,52.5 	"/>
	<path d="M44,58.6H28.1c-1.3,0-2.3-1-2.3-2.3V35c0-1.3,1-2.3,2.3-2.3h11.5l6.7,6.1v17.6C46.4,57.6,45.3,58.6,44,58.6z M28.1,34.2
		c-0.4,0-0.8,0.4-0.8,0.8v21.3c0,0.4,0.4,0.8,0.8,0.8H44c0.5,0,0.8-0.4,0.8-0.8V39.5l-6-5.3H28.1z"/>
</svg>
