<svg xmlns="http://www.w3.org/2000/svg" viewBox="0 0 72 72">
  <g>
    <path d="M57.21,34.47H51.05V28.32a1.5,1.5,0,0,0-3,0v6.15H41.9a1.5,1.5,0,0,0,0,3h6.15v6.15a1.5,1.5,0,0,0,3,0V37.47h6.16a1.5,1.5,0,1,0,0-3Z" />
    <path d="M49.5,21.85a14.33,14.33,0,0,0-3,.31L37.35,13a1.55,1.55,0,0,0-2.12,0L13.67,34.52a1.49,1.49,0,0,0,0,2.12L35.09,58.07a1.51,1.51,0,0,0,1.06.44,1.49,1.49,0,0,0,1.06-.44l8.45-8.45a13.92,13.92,0,0,0,3.84.55,14.16,14.16,0,0,0,0-28.32Zm-13.35,33-19.3-19.3L36.29,16.14l7.11,7.11a14.13,14.13,0,0,0-.75,25.14ZM49.5,48.17A12.16,12.16,0,1,1,61.66,36,12.18,12.18,0,0,1,49.5,48.17Z" />
  </g>
  <rect x="0.36" y="0.36" width="71.28" height="71.28" fill="none"/>
</svg>
