<?xml version="1.0" encoding="UTF-8"?>
<svg xmlns="http://www.w3.org/2000/svg" viewBox="0 0 72 72">
    <path d="M66,35.29l-12.82-12.82c-.34-.34-.93-.34-1.27,0l-6.15,6.15-2.32-2.32,6.15-6.15c.17-.17,.26-.4,.26-.63s-.09-.47-.26-.63l-12.82-12.82c-.34-.34-.93-.34-1.27,0l-12.9,12.9c-.35,.35-.35,.92,0,1.27l5.97,5.97-2.35,2.35-5.97-5.97c-.34-.34-.93-.34-1.27,0l-12.9,12.9c-.35,.35-.35,.92,0,1.27l12.82,12.82c.18,.18,.41,.26,.63,.26s.46-.09,.63-.26l6.27-6.27,2.32,2.32-6.27,6.27c-.35,.35-.35,.92,0,1.27l12.82,12.82c.18,.18,.41,.26,.63,.26s.46-.09,.63-.26l12.9-12.9c.17-.17,.26-.4,.26-.63s-.09-.47-.26-.63l-6.25-6.25,2.35-2.35,6.25,6.25c.18,.18,.41,.26,.63,.26s.46-.09,.63-.26l12.9-12.9c.17-.17,.26-.4,.26-.63s-.09-.47-.26-.63ZM25.21,19.59l10.92-10.92,10.85,10.85-5.16,5.16-4.03-4.03c.28-.38,.45-.84,.45-1.35,0-1.26-1.02-2.28-2.28-2.28s-2.28,1.02-2.28,2.28c0,.5,.17,.96,.44,1.34l-3.93,3.93-4.98-4.98Zm9.67,1.71c.32,.18,.69,.29,1.09,.29s.75-.11,1.07-.28l4.08,4.08-5.06,5.06-5.16-5.16,3.98-3.98Zm-15.34,25.66l-10.85-10.85,10.92-10.92,4.98,4.98-3.71,3.71c-.35-.21-.75-.34-1.19-.34-1.26,0-2.28,1.02-2.28,2.28s1.02,2.28,2.28,2.28c.44,0,.84-.13,1.19-.34l3.93,3.93-5.28,5.28Zm2.07-12.39l3.69-3.69,5.16,5.16-4.94,4.94-3.91-3.91c.23-.36,.37-.79,.37-1.25s-.14-.89-.37-1.25Zm25.27,17.88l-10.92,10.92-10.85-10.85,5.28-5.28,3.64,3.64c-.21,.35-.34,.75-.34,1.19,0,1.26,1.02,2.28,2.28,2.28s2.28-1.02,2.28-2.28c0-.44-.13-.84-.34-1.19l3.71-3.71,5.27,5.27Zm-9.67-2.28c-.36-.24-.79-.37-1.25-.37s-.89,.14-1.25,.37l-3.63-3.63,4.94-4.94,4.87,4.87-3.69,3.69Zm5.32-5.32l-5.86-5.86c-.34-.34-.93-.34-1.27,0l-5.93,5.93-2.32-2.32,5.93-5.93c.17-.17,.26-.4,.26-.63s-.09-.47-.26-.63l-6.15-6.15,2.35-2.35,6.15,6.15c.18,.18,.41,.26,.63,.26s.46-.09,.63-.26l6.05-6.05,2.32,2.32-6.05,6.05c-.35,.35-.35,.92,0,1.27l5.86,5.86-2.35,2.35Zm7.95-7.95l-3.98,3.98-4.87-4.87,5.06-5.06,3.79,3.79c-.17,.32-.28,.68-.28,1.07s.11,.76,.29,1.08Zm2,9.95l-5.27-5.27,3.93-3.93c.38,.27,.84,.44,1.34,.44,1.26,0,2.28-1.02,2.28-2.28s-1.02-2.28-2.28-2.28c-.51,0-.97,.17-1.35,.45l-3.74-3.74,5.16-5.16,10.85,10.85-10.92,10.92Z" />
    <rect x=".36" y=".36" width="71.28" height="71.28" fill="none"/>
</svg>