<?xml version="1.0" encoding="UTF-8"?>
<svg xmlns="http://www.w3.org/2000/svg" viewBox="0 0 72 72">
    <path d="M47.82,37.62c-1.25,2.06-2.62,3.74-4.12,5.06s-2.8,1.97-3.9,1.97c-1.51,0-2.27-1.22-2.27-3.67,0-3.36,1.1-6.28,3.31-8.74,2.21-2.46,4.82-3.69,7.84-3.69,1.15,0,2.13,.14,2.94,.43-.06,.2-.09,.32-.1,.36l-.2,.88c-.13,.61-.21,.96-.22,1.06l-1.06,7.33-.15,1.06c-.14,1.05-.22,1.75-.22,2.11,0,.48,.14,.71,.41,.71,.93,0,1.87-1.03,2.84-3.1,.3,.18,.45,.35,.45,.53,0,.39-.48,1.17-1.43,2.34-1.29,1.59-2.5,2.39-3.6,2.39-.81,0-1.21-.54-1.21-1.63,0-.33,.04-.79,.12-1.38l.17-1.33,.22-1.46,.18-1.23Zm.95-6.58c-1.01-.56-2.03-.85-3.06-.85-1.55,0-2.85,.94-3.9,2.83-1.05,1.89-1.58,4.23-1.58,7.03,0,1.44,.43,2.16,1.28,2.16,.99,0,2.18-.75,3.57-2.25,1.88-2.02,3.02-4.4,3.42-7.13l.27-1.79Z" />
    <path d="M27.07,49.8h-4.88v-4.88c0-.91-.74-1.65-1.65-1.65s-1.65,.74-1.65,1.65v4.88h-4.87c-.91,0-1.65,.74-1.65,1.65s.74,1.65,1.65,1.65h4.87v4.87c0,.91,.74,1.65,1.65,1.65s1.65-.74,1.65-1.65v-4.87h4.88c.91,0,1.65-.74,1.65-1.65s-.74-1.65-1.65-1.65Z" />
    <path d="M63.01,34.65L37.57,9.21c-.67-.67-1.85-.67-2.52,0L9.44,34.81c-.7,.7-.7,1.82,0,2.52l3.71,3.71c-3.28,2.32-5.43,6.13-5.43,10.44,0,7.05,5.73,12.78,12.78,12.78,4.31,0,8.12-2.15,10.44-5.43l3.95,3.95c.35,.35,.8,.52,1.26,.52s.91-.17,1.26-.52l25.6-25.6c.33-.33,.52-.79,.52-1.26s-.19-.93-.52-1.26ZM20.5,62.01c-5.81,0-10.54-4.73-10.54-10.54s4.73-10.54,10.54-10.54,10.54,4.73,10.54,10.54-4.73,10.54-10.54,10.54Zm15.64-2.02l-3.78-3.78c.59-1.47,.92-3.06,.92-4.74,0-7.05-5.73-12.78-12.78-12.78-1.67,0-3.27,.33-4.74,.92l-3.54-3.54L36.31,11.99l23.92,23.92-24.08,24.08Z" fill-rule="evenodd"/>
    <rect x=".36" y=".36" width="71.28" height="71.28" fill="none"/>
</svg>