<svg xmlns="http://www.w3.org/2000/svg" viewBox="0 0 72 72">
  <g>
    <path d="M51.41,65.16H41.84v-3h9.57A1.18,1.18,0,0,0,52.59,61V10.15A1.18,1.18,0,0,0,51.41,9H21a1.18,1.18,0,0,0-1.18,1.18V61A1.18,1.18,0,0,0,21,62.16h9.18v3H21A4.19,4.19,0,0,1,16.83,61V10.15A4.19,4.19,0,0,1,21,6h30.4a4.18,4.18,0,0,1,4.18,4.18V61A4.19,4.19,0,0,1,51.41,65.16Z" />
    <path d="M41.31,17.33H31.12a1,1,0,0,1,0-2H41.31a1,1,0,1,1,0,2Z" />
    <path d="M41.31,24.4H31.12a1,1,0,1,1,0-2H41.31a1,1,0,0,1,0,2Z" />
    <polygon points="30.67 41.36 30.67 39.8 41.42 39.8 41.42 41.36 30.67 41.36 30.67 41.36" />
    <polygon points="30.67 37.51 30.67 35.96 41.42 35.96 41.42 37.51 30.67 37.51 30.67 37.51" />
    <polygon points="30.67 45.01 30.67 43.46 41.42 43.46 41.42 45.01 30.67 45.01 30.67 45.01" />
    <polygon points="30.67 48.89 30.67 47.34 41.42 47.34 41.42 48.89 30.67 48.89 30.67 48.89" />
    <polygon points="30.67 52.54 30.67 50.99 41.42 50.99 41.42 52.54 30.67 52.54 30.67 52.54" />
    <path d="M44.05,58.6H28.11a2.32,2.32,0,0,1-2.31-2.32V33.47a2.33,2.33,0,0,1,2.31-2.32H44.05a2.33,2.33,0,0,1,2.32,2.32V56.28A2.32,2.32,0,0,1,44.05,58.6ZM28.11,32.65a.82.82,0,0,0-.81.82V56.28a.82.82,0,0,0,.81.82H44.05a.82.82,0,0,0,.82-.82V33.47a.82.82,0,0,0-.82-.82Z" />
  </g>
  <rect x="0.36" y="0.36" width="71.28" height="71.28" fill="none"/>
</svg>
