<svg xmlns="http://www.w3.org/2000/svg" viewBox="0 0 72 72">
  <g>
    <path d="M55.64,34.47H49.49V28.32a1.5,1.5,0,0,0-3,0v6.15H40.34a1.5,1.5,0,0,0,0,3h6.15v6.15a1.5,1.5,0,0,0,3,0V37.47h6.15a1.5,1.5,0,0,0,0-3Z" />
    <path d="M60.19,43.07a14,14,0,0,0,.1-14l3.81-3.82a1.49,1.49,0,0,0,0-2.12L49,8.1a1.55,1.55,0,0,0-2.12,0L36,19,25.12,8.1A1.55,1.55,0,0,0,23,8.1L7.83,23.27a1.49,1.49,0,0,0,0,2.12L18.67,36.24,7.83,47.08a1.49,1.49,0,0,0,0,2.12L22.9,64.27a1.5,1.5,0,0,0,2.12,0l10.9-10.89L46.81,64.27a1.51,1.51,0,0,0,2.13,0L64.1,49.11a1.5,1.5,0,0,0,0-2.13ZM35.78,36A12.16,12.16,0,1,1,47.94,48.17,12.17,12.17,0,0,1,35.78,36Zm-.72,5.85-5.72-5.72,5.5-5.5a14.07,14.07,0,0,0,.22,11.22ZM48,11.28l13,13-2.4,2.4a14.08,14.08,0,0,0-18-2.69,1.48,1.48,0,0,0-.38-.77l-2-2.05Zm-12,12,1,1-1.09,1.09-1-1ZM11,24.33l13.05-13,9.83,9.84-2.15,2.15a1.51,1.51,0,0,0,0,2.12l2.06,2.05L27.22,34l-2.1-2.11a1.51,1.51,0,0,0-2.12,0l-2.21,2.2ZM25.1,36.14,24,37.28l-1-1,1.14-1.15ZM31.74,49.2l2.06,2.06L24,61.09,11,48.14l9.78-9.78,2.11,2.1a1.5,1.5,0,0,0,2.12,0l2.2-2.2,6.67,6.67-2.15,2.15A1.51,1.51,0,0,0,31.74,49.2Zm4.18-.06-1-1L36,47.05l1,1Zm11.95,12L38,51.26l2.15-2.15a1.51,1.51,0,0,0,.43-1A14,14,0,0,0,58.4,45.52l2.52,2.53Z" />
  </g>
  <rect x="0.36" y="0.36" width="71.28" height="71.28" fill="none"/>
</svg>
