<svg xmlns="http://www.w3.org/2000/svg" viewBox="0 0 72 72">
  <path d="M53.55,36.14,64.4,25.29a1.51,1.51,0,0,0,0-2.12L49.33,8.1a1.56,1.56,0,0,0-2.13,0L36.31,19,25.41,8.1a1.55,1.55,0,0,0-2.12,0L8.12,23.27a1.5,1.5,0,0,0,0,2.12L19,36.24,8.12,47.08a1.5,1.5,0,0,0,0,2.12L23.19,64.27a1.48,1.48,0,0,0,1.06.44,1.45,1.45,0,0,0,1.06-.44l10.9-10.89,10.9,10.89a1.5,1.5,0,0,0,2.12,0L64.4,49.11a1.52,1.52,0,0,0,0-2.13ZM48.27,11.28l12.95,13L51.43,34l-2.1-2.11a1.56,1.56,0,0,0-2.13,0L45,34.11l-6.67-6.67,2.15-2.15a1.49,1.49,0,0,0,0-2.12l-2-2.05Zm1,24.86-1.14,1.14-1.05-1,1.15-1.14Zm-6.43.1-6.57,6.57-6.67-6.67,6.57-6.58ZM35.22,24.33l1.09-1.09,1,1-1.09,1.09Zm-23.92,0,13.05-13,9.84,9.84L32,23.27a1.49,1.49,0,0,0,0,2.12l2.05,2.05L27.52,34l-2.11-2.11a1.51,1.51,0,0,0-2.12,0l-2.2,2.2ZM25.39,36.14l-1.14,1.14-1-1,1.14-1.15Zm-1.14,25-12.95-13,9.79-9.78,2.1,2.1a1.53,1.53,0,0,0,1.06.44,1.49,1.49,0,0,0,1.06-.44l2.21-2.2,6.67,6.67L32,47.08a1.49,1.49,0,0,0,0,2.12l2.05,2.06Zm13-13-1.09,1.09-1-1,1.09-1.09Zm10.87,13-9.84-9.83,2.15-2.15a1.5,1.5,0,0,0,0-2.13l-2-2L45,38.36l2.11,2.1a1.49,1.49,0,0,0,1.06.44,1.51,1.51,0,0,0,1.06-.44l2.2-2.2,9.79,9.79Z" />
  <rect x="0.36" y="0.36" width="71.28" height="71.28" fill="none"/>
</svg>
