<svg xmlns="http://www.w3.org/2000/svg" viewBox="0 0 72 72">
  <g>
    <path d="M55.28,22.31a1,1,0,0,0-.3-.71l-4.83-4.7a1,1,0,0,0-1.41,0L21.17,44.65A1.11,1.11,0,0,0,21,45l-3.39,8.09a1,1,0,0,0,.21,1.09,1,1,0,0,0,.71.29,1,1,0,0,0,.38-.07L27.09,51a1,1,0,0,0,.33-.22L55,23A1,1,0,0,0,55.28,22.31ZM26.14,49.21,20.35,51.6l2.38-5.67,23.5-23.65,3.4,3.3ZM50.68,24.52l-3.39-3.3L49.47,19l3.39,3.31Z" />
    <path d="M53.07,64.64H18.89a11.51,11.51,0,0,1-11.5-11.5V19a11.51,11.51,0,0,1,11.5-11.5H53.07A11.51,11.51,0,0,1,64.57,19V53.14A11.51,11.51,0,0,1,53.07,64.64ZM18.89,10.46a8.51,8.51,0,0,0-8.5,8.5V53.14a8.51,8.51,0,0,0,8.5,8.5H53.07a8.52,8.52,0,0,0,8.5-8.5V19a8.51,8.51,0,0,0-8.5-8.5Z" />
  </g>
  <rect x="0.36" y="0.36" width="71.28" height="71.28" fill="none"/>
</svg>
