<?xml version="1.0" encoding="utf-8"?>
<!-- Generator: Adobe Illustrator 26.5.3, SVG Export Plug-In . SVG Version: 6.00 Build 0)  -->
<svg xmlns="http://www.w3.org/2000/svg" viewBox="0 0 72 72">
<path d="M45.3,37.9c-1.6,2.7-3.4,4.9-5.4,6.6c-2,1.7-3.6,2.6-5.1,2.6c-2,0-3-1.6-3-4.8c0-4.4,1.4-8.2,4.3-11.4
	c2.9-3.2,6.3-4.8,10.2-4.8c1.5,0,2.8,0.2,3.8,0.6C50,27,50,27.1,50,27.2l-0.3,1.1c-0.2,0.8-0.3,1.2-0.3,1.4L48,39.2l-0.2,1.4
	c-0.2,1.4-0.3,2.3-0.3,2.7c0,0.6,0.2,0.9,0.5,0.9c1.2,0,2.4-1.3,3.7-4c0.4,0.2,0.6,0.5,0.6,0.7c0,0.5-0.6,1.5-1.9,3
	C48.7,46,47.2,47,45.7,47c-1.1,0-1.6-0.7-1.6-2.1c0-0.4,0.1-1,0.2-1.8l0.2-1.7l0.3-1.9C45,39.5,45.3,37.9,45.3,37.9z M46.5,29.4
	c-1.3-0.7-2.6-1.1-4-1.1c-2,0-3.7,1.2-5.1,3.7s-2.1,5.5-2.1,9.1c0,1.9,0.6,2.8,1.7,2.8c1.3,0,2.8-1,4.6-2.9c2.4-2.6,3.9-5.7,4.4-9.3
	C46.2,31.7,46.5,29.4,46.5,29.4z"/>
<path d="M27.1,49.8h-4.9v-4.9c0-0.9-0.7-1.7-1.6-1.7S19,43.9,19,44.9v4.9h-5c-0.9,0-1.6,0.7-1.6,1.7s0.7,1.7,1.6,1.7h4.9V58
	c0,0.9,0.7,1.7,1.6,1.7s1.6-0.7,1.6-1.7v-4.9H27c0.9,0,1.6-0.7,1.6-1.7S28,49.8,27.1,49.8z"/>
<path d="M63,34.7L37.6,9.2c-0.7-0.7-1.8-0.7-2.5,0L9.4,34.8c-0.7,0.7-0.7,1.8,0,2.5l3.7,3.7c-3.3,2.3-5.4,6.1-5.4,10.4
	c0,7,5.7,12.8,12.8,12.8c4.3,0,8.1-2.2,10.4-5.4l4,4c0.3,0.3,0.8,0.5,1.3,0.5s0.9-0.2,1.3-0.5L63,37.2c0.3-0.3,0.5-0.8,0.5-1.3
	S63.3,35,63,34.7L63,34.7z M20.5,62C14.7,62,10,57.3,10,51.5S14.7,41,20.5,41S31,45.7,31,51.5S26.3,62,20.5,62z M36.1,60l-3.8-3.8
	c0.6-1.5,0.9-3.1,0.9-4.7c0-7-5.7-12.8-12.8-12.8c-1.7,0-3.3,0.3-4.7,0.9l-3.5-3.5L36.3,12l23.9,23.9L36.1,60L36.1,60z"/>
</svg>
