<svg xmlns="http://www.w3.org/2000/svg" viewBox="0 0 72 72">
  <g>
    <path d="M51.49,8H42.37A9.48,9.48,0,0,0,29.63,8H20.52C14.82,8,11,11.83,11,17.52V55.57c0,5.69,3.84,9.5,9.54,9.5h31c5.7,0,9.54-3.81,9.54-9.5v-38C61,11.83,57.19,8,51.49,8ZM36,7.56a7.54,7.54,0,1,1-7.54,7.53A7.54,7.54,0,0,1,36,7.56Zm22,48c0,4-2.51,6.5-6.54,6.5h-31c-4,0-6.54-2.49-6.54-6.5v-38c0-4,2.51-6.5,6.54-6.5h6.87a9.4,9.4,0,0,0,1.09,9.9L23.24,32.61a.49.49,0,0,0,.12.57.51.51,0,0,0,.58.07l4.57-2.53,1.1,5.07a.49.49,0,0,0,.43.39h.06a.49.49,0,0,0,.45-.29l5.06-11.28.39,0h.07l5,11.26a.49.49,0,0,0,.46.3h.05A.49.49,0,0,0,42,35.8l1.17-5.09,4.51,2.56a.5.5,0,0,0,.58-.07.49.49,0,0,0,.12-.57l-5.1-11.45A9.41,9.41,0,0,0,44.61,11h6.88c4,0,6.54,2.49,6.54,6.5Z" />
    <g>
      <path d="M28.77,49.11H24.06v4.38h5.25V54.8H22.49V42.67H29V44h-5v3.84h4.71Z" />
      <path d="M31.35,42.83a15.46,15.46,0,0,1,2.86-.25,5,5,0,0,1,3.33.88,2.55,2.55,0,0,1,1,2.14,2.9,2.9,0,0,1-2.06,2.67v0A3.14,3.14,0,0,1,39,51.35a3.3,3.3,0,0,1-1,2.43c-.84.77-2.21,1.13-4.19,1.13a18.8,18.8,0,0,1-2.43-.14Zm1.56,5h1.42c1.66,0,2.63-.86,2.63-2,0-1.43-1.08-2-2.66-2a7,7,0,0,0-1.39.11Zm0,5.82a9.05,9.05,0,0,0,1.32.07c1.62,0,3.11-.6,3.11-2.36S35.92,49,34.21,49h-1.3Z" />
      <path d="M43.06,51,41.8,54.8H40.18l4.13-12.13H46.2L50.34,54.8H48.66L47.37,51Zm4-1.23-1.18-3.49c-.28-.79-.46-1.51-.64-2.21h0c-.18.72-.38,1.45-.61,2.19l-1.19,3.51Z" />
    </g>
  </g>
  <rect x="0.36" y="0.36" width="71.28" height="71.28" fill="none"/>
</svg>
