<svg xmlns="http://www.w3.org/2000/svg" viewBox="0 0 72 72">
  <g>
    <path d="M51.27,65.16H41.7v-3h9.57A1.18,1.18,0,0,0,52.45,61V10.15A1.18,1.18,0,0,0,51.27,9H20.87a1.18,1.18,0,0,0-1.18,1.18V61a1.18,1.18,0,0,0,1.18,1.19h9.19v3H20.87A4.19,4.19,0,0,1,16.69,61V10.15A4.19,4.19,0,0,1,20.87,6h30.4a4.18,4.18,0,0,1,4.18,4.18V61A4.19,4.19,0,0,1,51.27,65.16Z" />
    <path d="M41.17,17.33H31a1,1,0,0,1,0-2H41.17a1,1,0,1,1,0,2Z" />
    <path d="M41.17,24.4H31a1,1,0,1,1,0-2H41.17a1,1,0,0,1,0,2Z" />
    <path d="M44.81,38.45l-2.17-2.11a.75.75,0,0,0-1.06,0L29.17,48.83a.78.78,0,0,0-.16.24l-1.52,3.64a.74.74,0,0,0,.16.82.75.75,0,0,0,.53.22.67.67,0,0,0,.28-.06l3.7-1.52a.85.85,0,0,0,.25-.17L44.82,39.52A.77.77,0,0,0,45,39,.8.8,0,0,0,44.81,38.45Zm-2.69-.52L43.22,39l-.48.48-1.1-1.07ZM31.45,50.84l-1.88.77.77-1.83L40.59,39.47l1.09,1.07Z" />
    <path d="M43.85,58.56H28.47a5.26,5.26,0,0,1-5.25-5.25V37.93a5.26,5.26,0,0,1,5.25-5.25H43.85a5.25,5.25,0,0,1,5.25,5.25V53.31A5.26,5.26,0,0,1,43.85,58.56ZM28.47,34.18a3.76,3.76,0,0,0-3.75,3.75V53.31a3.76,3.76,0,0,0,3.75,3.75H43.85a3.75,3.75,0,0,0,3.75-3.75V37.93a3.75,3.75,0,0,0-3.75-3.75Z" />
  </g>
  <rect x="0.42" y="0.36" width="71.28" height="71.28" fill="none"/>
</svg>
