<svg xmlns="http://www.w3.org/2000/svg" viewBox="0 0 72 72">
  <g>
    <path d="M35.26,16.61a2,2,0,0,0-2,2v15L12.46,12.77A2,2,0,1,0,9.64,15.6L30.43,36.39H14.73a2,2,0,0,0,0,4H35.26a2,2,0,0,0,2-2V18.61A2,2,0,0,0,35.26,16.61Z" />
    <rect x="8.34" y="58.77" width="54.42" height="4" />
    <rect x="8.34" y="49.32" width="54.42" height="4" />
    <rect x="45.44" y="30.82" width="17.32" height="4" />
    <rect x="45.44" y="21.61" width="17.32" height="4" />
  </g>
  <rect x="0.36" y="0.36" width="71.28" height="71.28" fill="none"/>
</svg>
