<svg xmlns="http://www.w3.org/2000/svg" viewBox="0 0 72 72">
  <g>
    <path d="M43.26,22.89l-4.48,4.49a6.72,6.72,0,0,1,2.14,2.1L45.38,25c1.15-1.15,3.74-.61,5,.63s1.78,3.82.63,5l-9.59,9.59c-1.14,1.15-3.73.6-5-.63s-1.78-3.83-.63-5l.73-.74c.28-.32,0-1.21-.39-1.64a1.52,1.52,0,0,0-1.77-.44l-.69.69c-2.46,2.46-1.69,6.89.63,9.22s6.76,3.09,9.22.63l9.59-9.59c2.45-2.45,1.69-6.89-.64-9.21S45.71,20.44,43.26,22.89Z" />
    <path d="M29.41,48.8l5-5a7.82,7.82,0,0,1-1.22-1,7.21,7.21,0,0,1-.92-1.13l-5,5c-1.15,1.15-3.74.6-5-.63s-1.78-3.83-.64-5L31.82,30.94c1.15-1.15,3.74-.6,5,.63s1.78,3.82.64,5l-.74.74c-.27.32,0,1.21.39,1.64a1.54,1.54,0,0,0,1.77.44l.7-.7c2.45-2.45,1.69-6.88-.64-9.21s-6.76-3.09-9.21-.63L19.56,39c-2.45,2.45-1.69,6.88.64,9.21S27,51.26,29.41,48.8Z" />
  </g>
  <rect x="0.36" y="0.36" width="71.28" height="71.28" fill="none"/>
</svg>
