<?xml version="1.0" encoding="UTF-8"?>
<svg xmlns="http://www.w3.org/2000/svg" viewBox="0 0 72 72">
    <path d="M63.01,34.74L37.57,9.3c-.67-.67-1.85-.67-2.52,0L9.45,34.9c-.7,.7-.7,1.82,0,2.52l25.44,25.44c.35,.35,.8,.52,1.26,.52s.91-.17,1.26-.52l25.6-25.6c.33-.33,.52-.79,.52-1.26s-.19-.93-.52-1.26Zm-26.86,25.34L12.23,36.16,36.31,12.07l23.92,23.92-24.08,24.08Z"  fill-rule="evenodd"/>
    <path d="M47.82,37.71c-1.25,2.06-2.62,3.74-4.12,5.06s-2.8,1.97-3.9,1.97c-1.51,0-2.27-1.22-2.27-3.67,0-3.36,1.1-6.28,3.31-8.74,2.21-2.46,4.82-3.69,7.84-3.69,1.15,0,2.13,.14,2.94,.43-.06,.2-.09,.32-.1,.36l-.2,.88c-.13,.61-.21,.96-.22,1.06l-1.06,7.33-.15,1.06c-.14,1.05-.22,1.75-.22,2.11,0,.48,.14,.71,.41,.71,.93,0,1.87-1.03,2.84-3.1,.3,.18,.45,.35,.45,.53,0,.39-.48,1.17-1.43,2.34-1.29,1.59-2.5,2.39-3.6,2.39-.81,0-1.21-.54-1.21-1.63,0-.33,.04-.79,.12-1.38l.17-1.33,.22-1.46,.18-1.23Zm.95-6.58c-1.01-.56-2.03-.85-3.06-.85-1.55,0-2.85,.94-3.9,2.83-1.05,1.89-1.58,4.23-1.58,7.03,0,1.44,.43,2.16,1.28,2.16,.99,0,2.18-.75,3.57-2.25,1.88-2.02,3.02-4.4,3.42-7.13l.27-1.79Z" />
    <rect x=".36" y=".36" width="71.28" height="71.28" fill="none"/>
</svg>