<svg xmlns="http://www.w3.org/2000/svg" viewBox="0 0 72 72">
  <g>
    <path d="M59.18,29.38A38.22,38.22,0,0,0,51.3,26V21.81a15.43,15.43,0,0,0-30.85,0V26a38.7,38.7,0,0,0-7.77,3.29,1.76,1.76,0,0,0-.88,1.52v27.3a1.74,1.74,0,0,0,.89,1.52c6.19,3.53,14.43,5.48,23.19,5.48s17.08-2,23.3-5.54a1.77,1.77,0,0,0,.87-1.52V30.89A1.74,1.74,0,0,0,59.18,29.38ZM24,21.81a11.93,11.93,0,0,1,23.85,0v3.31a55.76,55.76,0,0,0-23.85,0ZM56.55,57C51,60,43.67,61.63,35.88,61.63S20.88,60,15.3,57.09V31.87c5.58-2.93,12.83-4.54,20.58-4.54S51,29,56.55,31.93Z" />
    <path d="M54,54.85H37.66a10.16,10.16,0,0,1,0-20.31H54v2H37.66a8.16,8.16,0,0,0,0,16.31H54Z" />
    <circle cx="37.28" cy="44.7" r="2.15" />
    <circle cx="51.63" cy="44.7" r="2.15" />
    <circle cx="44.42" cy="44.7" r="2.15" />
  </g>
  <rect x="0.36" y="0.36" width="71.28" height="71.28" fill="none"/>
</svg>
