<svg xmlns="http://www.w3.org/2000/svg" viewBox="0 0 72 72">
  <g>
    <path d="M51.29,65.27H41.72v-3h9.57a1.18,1.18,0,0,0,1.19-1.18V10.27a1.19,1.19,0,0,0-1.19-1.19H20.9a1.19,1.19,0,0,0-1.19,1.19V61.09a1.18,1.18,0,0,0,1.19,1.18h9.18v3H20.9a4.19,4.19,0,0,1-4.19-4.18V10.27A4.2,4.2,0,0,1,20.9,6.08H51.29a4.2,4.2,0,0,1,4.19,4.19V61.09A4.19,4.19,0,0,1,51.29,65.27Z" />
    <path d="M41.19,17.44H31a1,1,0,0,1,0-2H41.19a1,1,0,0,1,0,2Z" />
    <path d="M41.19,24.51H31a1,1,0,0,1,0-2H41.19a1,1,0,0,1,0,2Z" />
    <g>
      <path d="M36.07,32.16A13.58,13.58,0,1,0,49.65,45.74,13.59,13.59,0,0,0,36.07,32.16Zm12,12.73H41.72c0-.7,0-1.38.06-1.51a.24.24,0,0,1,.16-.24,8.21,8.21,0,0,1,1.5-.59,4.1,4.1,0,0,0,1.1-.46A2.38,2.38,0,0,0,45,40.64a2.28,2.28,0,0,0-.55-1l-.09-.13a.9.9,0,0,1-.18-.43.44.44,0,0,1,0-.15,1.7,1.7,0,0,0,0-.44,3.88,3.88,0,0,1,.17-1.16.86.86,0,0,1,.11-.24A12,12,0,0,1,48.11,44.89Zm0,.85a11.58,11.58,0,0,1-.37,2.9,2.49,2.49,0,0,0-.39-.42,2.15,2.15,0,0,0-1.65-.48,2.53,2.53,0,0,1-.86.09.71.71,0,0,0-.54.13,1.77,1.77,0,0,0-.71,1,4.62,4.62,0,0,0-.19,1.38.88.88,0,0,1,0,.22,1.19,1.19,0,0,0,0,.31,1.52,1.52,0,0,0,.29.84l.11.15a3.43,3.43,0,0,1,.41.61,3,3,0,0,1-.16.81,4.27,4.27,0,0,1-.89.35,9.48,9.48,0,0,0-1.64.65,1,1,0,0,0-.52.8c0,.14-.05,1.12-.07,1.71a11.62,11.62,0,0,1-2.76.84l0-.05a1.5,1.5,0,0,0,.29-.84,1.19,1.19,0,0,0,0-.31,1.08,1.08,0,0,1,0-.28,4.51,4.51,0,0,0-.19-1.32,1.77,1.77,0,0,0-.71-1A.7.7,0,0,0,37,53.7a2.53,2.53,0,0,1-.86-.09,2.15,2.15,0,0,0-1.65.49,1.36,1.36,0,0,0-.62,1,3.08,3.08,0,0,1-.07.78c0,.07,0,.14,0,.24s0,.07,0,.09a.92.92,0,0,0-.07.4,2,2,0,0,0,.32,1v0a11.92,11.92,0,0,1-2.78-.84c0-.59-.05-1.58-.07-1.74a.93.93,0,0,0-.52-.77A9.39,9.39,0,0,0,29,53.63a6.27,6.27,0,0,1-.86-.31,2.59,2.59,0,0,1-.2-.83,3.39,3.39,0,0,1,.41-.63l.11-.15a1.53,1.53,0,0,0,.3-.84,1.11,1.11,0,0,0,0-.31,1.14,1.14,0,0,1,0-.28A4.47,4.47,0,0,0,28.5,49a1.77,1.77,0,0,0-.71-1,.7.7,0,0,0-.54-.13,2.53,2.53,0,0,1-.86-.09,2.09,2.09,0,0,0-1.64.49,1.63,1.63,0,0,0-.39.4A12,12,0,0,1,24,45.74v-.13h7a.38.38,0,0,0,.26-.11.42.42,0,0,0,.1-.26c0-.53-.05-1.77-.08-2a.93.93,0,0,0-.52-.76,9.13,9.13,0,0,0-1.63-.66,5.13,5.13,0,0,1-.86-.31,2.53,2.53,0,0,1-.2-.83,4.2,4.2,0,0,1,.41-.63l.11-.15a1.49,1.49,0,0,0,.3-.83,1.13,1.13,0,0,0,0-.32,1,1,0,0,1,0-.27,4.56,4.56,0,0,0-.19-1.33,1.57,1.57,0,0,0-.35-.66,12,12,0,0,1,3.11-1.92.52.52,0,0,0,0,.11c0,.16-.06,1.4-.08,1.93a.42.42,0,0,0,.1.26.35.35,0,0,0,.26.1h8.92a.34.34,0,0,0,.35-.36c0-.53-.05-1.77-.07-1.94s0,0,0-.06a11.86,11.86,0,0,1,3.13,2,1.81,1.81,0,0,0-.27.56,4.65,4.65,0,0,0-.19,1.38.82.82,0,0,1,0,.22,1.22,1.22,0,0,0,0,.32,1.54,1.54,0,0,0,.29.83l.11.15a4.34,4.34,0,0,1,.41.61,3.06,3.06,0,0,1-.16.82,4.38,4.38,0,0,1-.89.34,9.13,9.13,0,0,0-1.63.66,1,1,0,0,0-.53.8c0,.15-.06,1.39-.07,1.92a.37.37,0,0,0,.1.26.36.36,0,0,0,.26.11h6.79A.57.57,0,0,1,48.15,45.74ZM38.43,33.9l.19.07a11.33,11.33,0,0,1,1.36.58c.13.07.14.14.16.28s0,.77.06,1.47H32c0-.64,0-1.38.06-1.51a.25.25,0,0,1,.16-.24,9.39,9.39,0,0,1,1.5-.6l.34-.11a11.88,11.88,0,0,1,2-.18A12.18,12.18,0,0,1,38.43,33.9ZM27.75,37a1,1,0,0,1,.19.35,4,4,0,0,1,.17,1.21,1.17,1.17,0,0,0,0,.39.53.53,0,0,1,0,.15.86.86,0,0,1-.17.43l-.09.12a2.36,2.36,0,0,0-.55,1,2.37,2.37,0,0,0,.44,1.45,4.35,4.35,0,0,0,1.11.46,8.5,8.5,0,0,1,1.5.59c.14.08.14.13.16.28s0,.83.06,1.47H24A12.08,12.08,0,0,1,27.75,37Zm-3,13a6.89,6.89,0,0,0,.05-.76c0-.1.11-.28.35-.47a1.43,1.43,0,0,1,1-.35,3.11,3.11,0,0,0,1.09.1l.09,0a1.17,1.17,0,0,1,.4.57A3.84,3.84,0,0,1,28,50.34a1.65,1.65,0,0,0,0,.39.41.41,0,0,1,0,.14.9.9,0,0,1-.17.44l-.09.12a2.3,2.3,0,0,0-.55,1,2.41,2.41,0,0,0,.44,1.44,3.88,3.88,0,0,0,1.11.46,8.86,8.86,0,0,1,1.5.6c.13.07.14.12.16.28s0,.67.05,1.25A12.14,12.14,0,0,1,24.79,50Zm10.13,7.74c-.09-.16-.21-.35-.37-.59a1.27,1.27,0,0,1-.18-.54.16.16,0,0,1,0-.1,1,1,0,0,0,.08-.29c0-.08,0-.14,0-.19a3.56,3.56,0,0,0,.08-.92.93.93,0,0,1,.35-.47,1.49,1.49,0,0,1,1-.35,3,3,0,0,0,1.08.1l.1,0a1.08,1.08,0,0,1,.39.56,3.94,3.94,0,0,1,.17,1.21,1.58,1.58,0,0,0,0,.39.41.41,0,0,1,0,.14.9.9,0,0,1-.18.44l-.09.12c-.13.18-.24.33-.32.46a10.37,10.37,0,0,1-1.12.06A10.93,10.93,0,0,1,34.92,57.76Zm6.73-1.32c0-.58,0-1.17.06-1.29a.23.23,0,0,1,.16-.24,8.24,8.24,0,0,1,1.5-.6,3.8,3.8,0,0,0,1.1-.46,2.35,2.35,0,0,0,.45-1.44,2.3,2.3,0,0,0-.55-1l-.09-.12a.9.9,0,0,1-.18-.44.41.41,0,0,1,0-.14,1.87,1.87,0,0,0,0-.45,3.83,3.83,0,0,1,.17-1.15,1.15,1.15,0,0,1,.39-.57l-.19-.3.29.28a3,3,0,0,0,1.08-.1,1.41,1.41,0,0,1,1,.35.88.88,0,0,1,.36.47,4,4,0,0,0,.05.78A12.15,12.15,0,0,1,41.65,56.44Z" />
      <path d="M38.58,46.14a3.8,3.8,0,0,1-.19-.76,4.58,4.58,0,0,1,.58-1,2.57,2.57,0,0,0,.4-1.26,1.54,1.54,0,0,0-.13-.65c0-.13,0-.22-.06-.31a4.39,4.39,0,0,1-.07-.94,1.92,1.92,0,0,0-.85-1.41,2.89,2.89,0,0,0-2.2-.65,2.66,2.66,0,0,1-1,.11,1.11,1.11,0,0,0-.79.19,2.45,2.45,0,0,0-1,1.36A6,6,0,0,0,33,42.59a.86.86,0,0,1,0,.23,2,2,0,0,0-.05.44,2.11,2.11,0,0,0,.4,1.14l.15.2c.1.14.43.58.47.66a3,3,0,0,1-.2.91,7.2,7.2,0,0,1-1,.36,12.43,12.43,0,0,0-2.07.83A1.41,1.41,0,0,0,30,48.49c0,.18-.06,1.42-.09,2.42a.62.62,0,0,0,.62.65H41.66a.61.61,0,0,0,.44-.19.65.65,0,0,0,.18-.46c0-1-.07-2.24-.1-2.44a1.39,1.39,0,0,0-.74-1.11,14.15,14.15,0,0,0-1.84-.79A6.81,6.81,0,0,1,38.58,46.14ZM41,48.67c0,.12,0,.84.06,1.64H31.16c0-.8.05-1.53.06-1.69s0-.12.12-.17a10.69,10.69,0,0,1,1.84-.73,5,5,0,0,0,1.44-.6,3.13,3.13,0,0,0,.62-2,3.08,3.08,0,0,0-.72-1.31l-.11-.15a.89.89,0,0,1-.19-.44.49.49,0,0,1,0-.15,2.24,2.24,0,0,0,0-.59,4.61,4.61,0,0,1,.21-1.4,1.16,1.16,0,0,1,.42-.6,4.18,4.18,0,0,0,1.41-.14,1.68,1.68,0,0,1,1.11.37,1.12,1.12,0,0,1,.42.49,5.51,5.51,0,0,0,.1,1.19,1.09,1.09,0,0,1,0,.22,4,4,0,0,0,.12.47,1.42,1.42,0,0,1-.23.63,3.48,3.48,0,0,0-.75,1.52c0,.12.11,1.56.62,1.83a5.46,5.46,0,0,0,1.4.64,12.86,12.86,0,0,1,1.68.72C40.92,48.5,40.93,48.51,41,48.67Z" />
    </g>
  </g>
  <rect y="0.72" width="71.28" height="71.28" fill="none"/>
</svg>
