<svg xmlns="http://www.w3.org/2000/svg" viewBox="0 0 72 72">
  <g>
    <path d="M38,30.48a10.22,10.22,0,0,0-7.28,3l-1.26,1.26A6.26,6.26,0,0,0,30.37,36a5.73,5.73,0,0,0,1.24.91l1.25-1.24A7.3,7.3,0,0,1,43.18,45.94l-11.5,11.5A7.3,7.3,0,0,1,21.36,47.12l5.93-5.93a12.23,12.23,0,0,1-1.16-1,14.26,14.26,0,0,1-1-1.11L19.24,45A10.3,10.3,0,1,0,33.8,59.56l11.51-11.5A10.3,10.3,0,0,0,38,30.48Z" />
    <path d="M34.52,42.08a10.2,10.2,0,0,0,7.28-3l1.26-1.26a5.6,5.6,0,0,0-.89-1.19,6.13,6.13,0,0,0-1.24-.92l-1.25,1.25A7.3,7.3,0,1,1,29.36,26.62l11.5-11.5A7.3,7.3,0,0,1,51.18,25.44l-5.93,5.93a10,10,0,0,1,1.16,1,11.17,11.17,0,0,1,1,1.11l5.93-5.92A10.3,10.3,0,1,0,38.74,13L27.24,24.5a10.3,10.3,0,0,0,7.28,17.58Z" />
  </g>
  <rect x="0.36" y="0.36" width="71.28" height="71.28" fill="none"/>
</svg>
