<svg xmlns="http://www.w3.org/2000/svg" viewBox="0 0 72 72">
  <g>
    <path d="M51.38,65.27H41.8v-3h9.58a1.18,1.18,0,0,0,1.18-1.18V10.27a1.18,1.18,0,0,0-1.18-1.19H21a1.19,1.19,0,0,0-1.19,1.19V61.09A1.19,1.19,0,0,0,21,62.27h9.18v3H21a4.19,4.19,0,0,1-4.19-4.18V10.27A4.2,4.2,0,0,1,21,6.08h30.4a4.19,4.19,0,0,1,4.18,4.19V61.09A4.19,4.19,0,0,1,51.38,65.27Z" />
    <path d="M41.27,17.44H31.08a1,1,0,0,1,0-2H41.27a1,1,0,0,1,0,2Z" />
    <path d="M41.27,24.51H31.08a1,1,0,0,1,0-2H41.27a1,1,0,0,1,0,2Z" />
    <g>
      <path d="M23.08,54.35V52.78a11.41,11.41,0,0,0,2,.75,6.08,6.08,0,0,0,1.15.12,2.13,2.13,0,0,0,1.52-.52,1.66,1.66,0,0,0,.55-1.25,1.83,1.83,0,0,0-.29-1,4.56,4.56,0,0,0-1.47-1.12l-.77-.44a6.9,6.9,0,0,1-2.07-1.59,2.7,2.7,0,0,1-.53-1.61,2.81,2.81,0,0,1,.42-1.48,3,3,0,0,1,1.13-1.08,3.64,3.64,0,0,1,1.78-.39,9.43,9.43,0,0,1,2.73.43V45a15.37,15.37,0,0,0-1.72-.59,4.18,4.18,0,0,0-.92-.1,1.89,1.89,0,0,0-1.44.5,1.52,1.52,0,0,0-.46,1,1.43,1.43,0,0,0,.22.74,2.1,2.1,0,0,0,.59.64c.25.17.59.39,1,.63l.8.45a6.73,6.73,0,0,1,2.08,1.61,2.84,2.84,0,0,1,.52,1.69,3,3,0,0,1-1,2.26,4.07,4.07,0,0,1-2.93.95,8.82,8.82,0,0,1-1.16-.07A16.66,16.66,0,0,1,23.08,54.35Z" />
      <path d="M41.94,56.78a18.23,18.23,0,0,1-4.4-2,10.86,10.86,0,0,1-1.09.07,4.9,4.9,0,0,1-2.61-.73A4.61,4.61,0,0,1,32,52a7.44,7.44,0,0,1-.61-3A7.2,7.2,0,0,1,32,46a4.58,4.58,0,0,1,1.81-2.09,5.14,5.14,0,0,1,2.78-.74,5.25,5.25,0,0,1,2.8.74A4.53,4.53,0,0,1,41.2,46a7.74,7.74,0,0,1-.05,6.14A4.65,4.65,0,0,1,39,54.32a17.27,17.27,0,0,0,4,1.21ZM36.6,53.65a3,3,0,0,0,2.6-1.24A5.6,5.6,0,0,0,40.13,49a5.6,5.6,0,0,0-.93-3.42,3.34,3.34,0,0,0-5.19,0A5.59,5.59,0,0,0,33.08,49,5.71,5.71,0,0,0,34,52.4,3,3,0,0,0,36.6,53.65Z" />
      <path d="M44,54.56V43.43H45.6v10h4.94v1.18Z" />
    </g>
  </g>
  <g>
    <rect x="0.72" y="0.72" width="71.28" height="71.28" fill="none"/>
    <path d="M37.61,17.35l.07,0,0,.12Z" />
  </g>
</svg>
