<?xml version="1.0" encoding="utf-8"?>
<!-- Generator: Adobe Illustrator 26.5.3, SVG Export Plug-In . SVG Version: 6.00 Build 0)  -->
<svg version="1.1" id="Layer_1" xmlns="http://www.w3.org/2000/svg" xmlns:xlink="http://www.w3.org/1999/xlink" x="0px" y="0px"
	 viewBox="0 0 72 72" style="enable-background:new 0 0 72 72;" xml:space="preserve">
<path d="M41.1,17.7H30.9c-0.5,0-1-0.5-1-1s0.5-1,1-1h10.2c0.5,0,1,0.5,1,1S41.7,17.7,41.1,17.7z"/>
<path d="M41.1,24.8H30.9c-0.5,0-1-0.5-1-1s0.5-1,1-1h10.2c0.5,0,1,0.5,1,1S41.7,24.8,41.1,24.8z"/>
<path d="M59.2,27.3c-0.3-0.1-0.7-0.2-1-0.2c-0.7,0-1.3,0.3-1.8,0.8l-1,1V10.5c0-2.3-1.9-4.2-4.2-4.2H20.8c-2.3,0-4.2,1.9-4.2,4.2
	v50.8c0,2.3,1.9,4.2,4.2,4.2H30v-3h-9.2c-0.6,0-1.2-0.5-1.2-1.2V10.5c0-0.6,0.5-1.2,1.2-1.2h30.4c0.7,0,1.2,0.5,1.2,1.2V32
	L40.2,44.6l-4.3-4.8C35.4,39.3,34.7,39,34,39c-0.2,0-0.3,0-0.5,0.1c-0.9,0.2-1.6,0.8-1.9,1.7l-1.2,3.7c-0.3,0.9,0,1.9,0.6,2.5
	l7.4,7.4c0.5,0.5,1.1,0.7,1.8,0.7c0.6,0,1.2-0.2,1.6-0.6l10.5-9.1v16c0,0.7-0.5,1.2-1.2,1.2h-9.6v3h9.6c2.3,0,4.2-1.9,4.2-4.2V42.8
	l3.8-3.3c0.5-0.4,0.8-1,0.8-1.7l0.6-8C60.8,28.7,60.2,27.7,59.2,27.3L59.2,27.3z M57.6,37.6l-17.3,15l-7.4-7.4l1.2-3.7l5,5.6
	c0.3,0.3,0.7,0.5,1.1,0.5l0,0c0.4,0,0.8-0.2,1.1-0.5l16.9-17.5L57.6,37.6L57.6,37.6z"/>
</svg>
