<svg xmlns="http://www.w3.org/2000/svg" viewBox="0 0 72 72">
  <g>
    <path d="M51.42,65.41H41.85v-3h9.57a1.18,1.18,0,0,0,1.18-1.19V10.4a1.18,1.18,0,0,0-1.18-1.18H21a1.18,1.18,0,0,0-1.18,1.18V61.22A1.18,1.18,0,0,0,21,62.41h9.19v3H21a4.19,4.19,0,0,1-4.18-4.19V10.4A4.19,4.19,0,0,1,21,6.22h30.4A4.18,4.18,0,0,1,55.6,10.4V61.22A4.19,4.19,0,0,1,51.42,65.41Z" />
    <path d="M41.32,17.58H31.13a1,1,0,1,1,0-2H41.32a1,1,0,1,1,0,2Z" />
    <path d="M41.32,24.65H31.13a1,1,0,0,1,0-2H41.32a1,1,0,0,1,0,2Z" />
    <path d="M44.55,51.69c-.24-.53,0-1.3-.56-1.52a6.62,6.62,0,0,0-.23-4c-.7-2-2.68-4.18-3.3-5.4-.85-1.68-.38-4.53-1-5.55a3.83,3.83,0,0,0-3.32-2c-1.68,0-4.09.85-3.28,5.66a5.55,5.55,0,0,1,0,2.55c-.24.6-1.15,1.45-2,2.67A28.56,28.56,0,0,0,29.75,47c-.63,1.22-1.4,1.8-.67,2.8l-1.14,1.33c-.63.38-1.33.11-1.71.76L26.14,55c.47.88,2.25.64,3.22,1.14A7.46,7.46,0,0,0,32.6,57c.61-.08.78-.81,1.73-1.06a15.24,15.24,0,0,1,4.86,0c1.73,2.87,4-.49,5-.94s2-.85,2-1.46S45.11,52.89,44.55,51.69ZM37.49,36.58a1.54,1.54,0,0,1,.27,2.55c-.19,0-.49-.14-.68-.17.75-.55.68-1.27.05-1.47s-.72.38-.55,1.19l-.38-.09A1.25,1.25,0,0,1,37.49,36.58Zm-3.73.08c.41-.17,1.3,0,1.11,1.74l-.31.14c0-1.18-.59-1.43-.89-.88-.2.35.11,1,.44,1.21l-.29.29A1.6,1.6,0,0,1,33.76,36.66Zm6.8,13.22c-.35.2-1.08-.31-1,.27.06.33.21,2.25-.1,2.6-1.82,2-4.71,2.21-5.93,1.53a1.25,1.25,0,0,1-.68-.88c.55,0,1.23-.44.94-1.18s-2.75-1.72-2.92-2.51-.47-1.08.83-4c.36-.81.61-1.79,1-2.56.2-.42.54-.71.68-1.1a4.15,4.15,0,0,0,.07-1.3l.18-.09c1.18,1.64,2.75,1.24,4.34-.19.38,0,.61,1.21,1.14,2.34.22.49.29,1,.54,1.55a11,11,0,0,1,.9,2A9.15,9.15,0,0,1,40.56,49.88Z"  fill-rule="evenodd"/>
  </g>
  <rect x="0.36" y="0.36" width="71.28" height="71.28" fill="none"/>
</svg>
