<svg xmlns="http://www.w3.org/2000/svg" viewBox="0 0 72 72">
  <g>
    <path d="M51.14,65.16H41.56v-3h9.58A1.18,1.18,0,0,0,52.32,61V10.15A1.18,1.18,0,0,0,51.14,9H20.74a1.18,1.18,0,0,0-1.18,1.18V61a1.18,1.18,0,0,0,1.18,1.19h9.18v3H20.74A4.19,4.19,0,0,1,16.56,61V10.15A4.18,4.18,0,0,1,20.74,6h30.4a4.19,4.19,0,0,1,4.18,4.18V61A4.19,4.19,0,0,1,51.14,65.16Z" />
    <path d="M41,17.33H30.84a1,1,0,0,1,0-2H41a1,1,0,1,1,0,2Z" />
    <path d="M41,24.4H30.84a1,1,0,1,1,0-2H41a1,1,0,0,1,0,2Z" />
    <path d="M32.92,59.3a.81.81,0,0,1-.34-.08.76.76,0,0,1-.41-.67V55H28a2.16,2.16,0,0,1-2.17-2.2V40.44A2.16,2.16,0,0,1,28,38.24H43.81A2.2,2.2,0,0,1,46,40.44V52.8A2.2,2.2,0,0,1,43.81,55H38.89l-5.52,4.15A.74.74,0,0,1,32.92,59.3ZM28,39.74a.67.67,0,0,0-.67.7V52.8a.67.67,0,0,0,.67.7h4.88c.75,0,.75,0,.76,2.9v.65l4.52-3.4a.74.74,0,0,1,.45-.15h5.17a.69.69,0,0,0,.69-.7V40.44a.69.69,0,0,0-.69-.7Z" />
  </g>
  <g>
    <rect width="71.28" height="71.28" fill="none"/>
    <rect x="72" y="0.72" width="71.28" height="71.28" fill="none"/>
  </g>
</svg>
