<svg xmlns="http://www.w3.org/2000/svg" viewBox="0 0 72 72">
  <g>
    <path d="M51.11,65.41H41.54v-3h9.57a1.18,1.18,0,0,0,1.18-1.19V10.4a1.18,1.18,0,0,0-1.18-1.18H20.71a1.18,1.18,0,0,0-1.18,1.18V61.22a1.18,1.18,0,0,0,1.18,1.19H29.9v3H20.71a4.19,4.19,0,0,1-4.18-4.19V10.4a4.19,4.19,0,0,1,4.18-4.18h30.4a4.18,4.18,0,0,1,4.18,4.18V61.22A4.19,4.19,0,0,1,51.11,65.41Z" />
    <path d="M41,17.58H30.82a1,1,0,0,1,0-2H41a1,1,0,1,1,0,2Z" />
    <path d="M41,24.65H30.82a1,1,0,0,1,0-2H41a1,1,0,0,1,0,2Z" />
    <g>
      <path d="M21.6,44.6h1.62V50c0,.31,0,.62.05.94a2.16,2.16,0,0,0,.26.86,1.58,1.58,0,0,0,.65.63,2.39,2.39,0,0,0,1.22.25,2.46,2.46,0,0,0,1.23-.25,1.62,1.62,0,0,0,.64-.63,2,2,0,0,0,.26-.86c0-.32,0-.63,0-.94V44.6H29.2v5.93a4.09,4.09,0,0,1-.27,1.55,3.06,3.06,0,0,1-.78,1.11,3.23,3.23,0,0,1-1.19.67,5.44,5.44,0,0,1-1.56.22,5.32,5.32,0,0,1-1.55-.22,3.2,3.2,0,0,1-1.2-.67,2.92,2.92,0,0,1-.77-1.11,3.9,3.9,0,0,1-.28-1.55Z" />
      <path d="M30.48,44.6h1.71l4.23,6.82h0V44.6H38v9.26H36.27l-4.21-6.81h0v6.81H30.48Z" />
      <path d="M39.64,44.6h1.62v9.26H39.64Z" />
      <path d="M42.18,44.6h1.93l2.1,3.27L48.4,44.6h1.82l-3.06,4.46,3.28,4.8h-2l-2.31-3.54-2.34,3.54H42l3.28-4.8Z" />
    </g>
  </g>
  <rect x="0.36" y="0.36" width="71.28" height="71.28" fill="none"/>
</svg>
