<svg xmlns="http://www.w3.org/2000/svg" viewBox="0 0 72 72">
  <g>
    <path d="M51.32,65.41H41.74v-3h9.58a1.18,1.18,0,0,0,1.18-1.19V10.4a1.18,1.18,0,0,0-1.18-1.18H20.92a1.18,1.18,0,0,0-1.18,1.18V61.22a1.18,1.18,0,0,0,1.18,1.19H30.1v3H20.92a4.19,4.19,0,0,1-4.18-4.19V10.4a4.18,4.18,0,0,1,4.18-4.18h30.4A4.18,4.18,0,0,1,55.5,10.4V61.22A4.19,4.19,0,0,1,51.32,65.41Z" />
    <path d="M41.21,17.58H31a1,1,0,0,1,0-2H41.21a1,1,0,1,1,0,2Z" />
    <path d="M41.21,24.65H31a1,1,0,0,1,0-2H41.21a1,1,0,0,1,0,2Z" />
    <path d="M46.33,47.72a1.11,1.11,0,0,0,.78-.29,1.09,1.09,0,0,0-.71-1.88,1,1,0,0,0-.77.29,1,1,0,0,0-.35.75A1.09,1.09,0,0,0,46.33,47.72Zm.25-1.63c.27,0,.48.15.48.32s-.21.33-.48.33-.48-.15-.48-.33S46.32,46.09,46.58,46.09Z" />
    <path d="M49,48.12s.18-.12.14-.23a9.39,9.39,0,0,0-1-2.54,1.74,1.74,0,0,0-.4-.34,20,20,0,0,0-5.34-1.46s-.05,0-.05,0,0,.76,0,.84a22.74,22.74,0,0,0-5.61-1.09,14.66,14.66,0,0,0-9.23,2.38l-.12.07a9.57,9.57,0,0,0-4,4.46,5.25,5.25,0,0,0-.23,2.95,4.63,4.63,0,0,0,.69,1.48A4.44,4.44,0,0,0,27,56.51a3.3,3.3,0,0,0,3.72-2.21,3.05,3.05,0,0,0-1.3-3.43,2.72,2.72,0,0,0-2.87-.06,1.9,1.9,0,0,0-.89,1.62A1.78,1.78,0,0,0,27.4,54.2a2.22,2.22,0,0,0,.65-.11A1.13,1.13,0,0,0,28.3,54h0a.59.59,0,0,0,.26-.48.78.78,0,0,0,0-.16.6.6,0,0,0-.68-.42h0l-.05,0-.08,0a1.32,1.32,0,0,1-.31,0,.59.59,0,0,1-.5-.58h0a.73.73,0,0,1,.1-.35,1,1,0,0,1,.95-.35,1.59,1.59,0,0,1,1.37,1,1.69,1.69,0,0,1-.19,1.75,2.1,2.1,0,0,1-2,.61,2.79,2.79,0,0,1-2.2-4,3.25,3.25,0,0,1,3.66-1.57,5.68,5.68,0,0,1,4.24,4.31h1.89c-.23-.72-.37-2.83,1.77-2.83,2.35,0,2.64,1.65,3.31,2.83h2a3.38,3.38,0,0,1-.78-2.31c.17-1,1-.95,2.15-.82.38,0,.81.09,1.25.1a8,8,0,0,0,3.18-.58,3.84,3.84,0,0,0,1.09-.58.65.65,0,0,0,.16-.27l0-.08c0-.08.07-.27.1-.38s-.13-.1-.13-.1a4.82,4.82,0,0,1-2.11.65,10.4,10.4,0,0,1-3.37-1.17l0,0c-.06-.13-.37-.88-.44-1a8.84,8.84,0,0,0,3.74,1.63A3.44,3.44,0,0,0,49,48.12ZM44.8,46.59a1.55,1.55,0,0,1,.5-1.08,1.49,1.49,0,0,1,1.11-.42,1.56,1.56,0,0,1,1.51,1.61,1.6,1.6,0,0,1-.49,1.09,1.57,1.57,0,0,1-2.63-1.2Z" />
  </g>
  <rect x="0.36" y="0.36" width="71.28" height="71.28" fill="none"/>
</svg>
