<svg xmlns="http://www.w3.org/2000/svg" viewBox="0 0 72 72">
  <g>
    <path d="M65.61,51.27a3.21,3.21,0,0,0-1.69-2.53,33.5,33.5,0,0,0-3.67-1.66,10.18,10.18,0,0,1-2-.93A8.85,8.85,0,0,1,57.71,44a10,10,0,0,1,1.39-2.38l.1-.15a6.22,6.22,0,0,0,.92-2.94,2.76,2.76,0,0,0-.25-1.28A.75.75,0,0,1,59.8,37c0-.33-.09-.54-.14-.75a10.78,10.78,0,0,1-.19-2.37,4.45,4.45,0,0,0-2-3.23,6.67,6.67,0,0,0-5.16-1.53,7.38,7.38,0,0,1-2.59.27,2.42,2.42,0,0,0-1.76.43A5.73,5.73,0,0,0,45.75,33a14.44,14.44,0,0,0-.58,4.11v.17a1.9,1.9,0,0,1-.06.63,3.89,3.89,0,0,0-.11,1,4.81,4.81,0,0,0,.93,2.64c.06.1.19.26.35.47a18.53,18.53,0,0,1,1.22,1.79A8.13,8.13,0,0,1,47,46.21a8.87,8.87,0,0,1-1.84.82,26.2,26.2,0,0,0-3.83,1.72,3.07,3.07,0,0,0-1.67,2.57c-.07.45-.18,3.94-.23,6a1.25,1.25,0,0,0,1.25,1.29h24a1.26,1.26,0,0,0,1.25-1.29C65.78,55.26,65.68,51.77,65.61,51.27ZM41.92,56.09c0-1.94.12-4.09.16-4.39l0-.14c0-.34,0-.43.41-.63A23.31,23.31,0,0,1,46,49.37a10.07,10.07,0,0,0,2.59-1.25c1.07-.82,1.47-3.86,1.41-4.56s-.63-1.62-1.71-3.08c-.13-.16-.22-.29-.27-.36a2.58,2.58,0,0,1-.51-1.25,1.78,1.78,0,0,1,0-.41,4.52,4.52,0,0,0,.13-1.22v-.18a11.82,11.82,0,0,1,.51-3.5,3.2,3.2,0,0,1,1.15-1.63l.09-.06h.1a9.54,9.54,0,0,0,3.36-.32A4.3,4.3,0,0,1,56,32.61c.74.58,1,1.11,1,1.32a13.2,13.2,0,0,0,.25,2.85c0,.16.07.32.11.57a3,3,0,0,0,.28,1,1.57,1.57,0,0,1,0,.22,3.63,3.63,0,0,1-.5,1.55l-.09.13c-1.26,1.87-1.77,2.88-1.81,3.61,0,.26.24,3.37,1.41,4.25h0a11,11,0,0,0,2.7,1.34,29.63,29.63,0,0,1,3.4,1.53c.32.18.35.34.41.74s.11,2.47.16,4.41Z" />
    <path d="M30.27,15.76a14.35,14.35,0,0,1,16.37,5H41.83a1.75,1.75,0,0,0,0,3.5h8.71a1.75,1.75,0,0,0,1.75-1.75V13.88a1.75,1.75,0,0,0-3.5,0V17.8c-.33-.38-.67-.76-1-1.12a18,18,0,0,0-18.68-4.21A17.74,17.74,0,0,0,17.34,29.28s0,.09,0,.13a3.88,3.88,0,0,1-.64,0,2.42,2.42,0,0,0-1.76.43A5.73,5.73,0,0,0,12.71,33a14.44,14.44,0,0,0-.58,4.11v.17a1.9,1.9,0,0,1-.06.63,3.89,3.89,0,0,0-.11,1,4.81,4.81,0,0,0,.93,2.64c.06.1.19.26.35.47a18.53,18.53,0,0,1,1.22,1.79,8.13,8.13,0,0,1-.55,2.44,8.87,8.87,0,0,1-1.84.82,26.2,26.2,0,0,0-3.83,1.72,3.07,3.07,0,0,0-1.67,2.57c-.07.45-.18,3.94-.23,6a1.25,1.25,0,0,0,1.25,1.29h24A1.25,1.25,0,0,0,32.8,57.3c-.06-2-.16-5.53-.23-6a3.21,3.21,0,0,0-1.69-2.53,33.5,33.5,0,0,0-3.67-1.66,10.18,10.18,0,0,1-2-.93A8.85,8.85,0,0,1,24.67,44a10.37,10.37,0,0,1,1.38-2.38l.11-.15a6.22,6.22,0,0,0,.92-2.94,2.76,2.76,0,0,0-.25-1.28.75.75,0,0,1-.07-.25c-.05-.33-.09-.54-.14-.75a10.78,10.78,0,0,1-.19-2.37,4.45,4.45,0,0,0-2-3.23,7.7,7.7,0,0,0-3.61-1.58,14.24,14.24,0,0,1,9.42-13.31ZM23.93,33.93a13.2,13.2,0,0,0,.25,2.85c0,.16.07.32.11.57a3,3,0,0,0,.28,1,1.57,1.57,0,0,1,0,.22,3.63,3.63,0,0,1-.5,1.55l-.1.14c-1.25,1.86-1.76,2.87-1.8,3.6,0,.26.24,3.37,1.41,4.25h0a11,11,0,0,0,2.7,1.34,29.63,29.63,0,0,1,3.4,1.53c.32.18.35.34.41.74s.11,2.47.16,4.41H8.88C8.93,54.15,9,52,9,51.7l0-.14c0-.34,0-.43.41-.63A23.31,23.31,0,0,1,13,49.37a10.07,10.07,0,0,0,2.59-1.25C16.61,47.3,17,44.26,17,43.56s-.63-1.62-1.71-3.08c-.13-.16-.22-.29-.27-.36a2.58,2.58,0,0,1-.51-1.25,1.78,1.78,0,0,1,0-.41,4.52,4.52,0,0,0,.13-1.22v-.18a11.82,11.82,0,0,1,.51-3.5,3.2,3.2,0,0,1,1.15-1.63l.09-.06h.1a9.54,9.54,0,0,0,3.36-.32,4.3,4.3,0,0,1,3.08,1.05C23.66,33.19,23.93,33.72,23.93,33.93Z" />
  </g>
  <rect x="0.36" y="0.36" width="71.28" height="71.28" fill="none"/>
</svg>
