<?xml version="1.0" encoding="UTF-8"?>
<svg xmlns="http://www.w3.org/2000/svg" viewBox="0 0 72 72">
    <path d="M44.85,32.68v-9.43c1.67-1.15,2.71-3.08,2.71-5.13,0-3.44-2.8-6.24-6.24-6.24h-10.75c-3.44,0-6.24,2.8-6.24,6.24,0,2.05,1.04,3.98,2.71,5.13v9.43c-3.07,.39-5.46,3.02-5.46,6.19,0,3.44,2.8,6.24,6.24,6.24h6.12v15.7l2.06,2.5,1.94-2.5v-15.7h6.13c3.44,0,6.24-2.8,6.24-6.24,0-3.18-2.39-5.81-5.46-6.19Zm-.78,9.44H27.82c-1.79,0-3.24-1.45-3.24-3.24s1.46-3.24,3.24-3.24h.72c.83,0,1.5-.67,1.5-1.5v-10.78h6.23c.55,0,1-.45,1-1s-.45-1-1-1h-6.67c-.12-.12-.26-.23-.42-.31-1.15-.55-1.86-1.66-1.86-2.92,0-1.79,1.46-3.24,3.24-3.24h10.75c1.79,0,3.24,1.46,3.24,3.24,0,1.25-.71,2.37-1.86,2.92-.52,.25-.85,.78-.85,1.35v11.74c0,.83,.67,1.5,1.5,1.5h.72c1.79,0,3.24,1.46,3.24,3.24s-1.45,3.24-3.24,3.24Z" />
    <rect x=".36" y=".36" width="71.28" height="71.28" fill="none"/>
</svg>