<svg xmlns="http://www.w3.org/2000/svg" viewBox="0 0 72 72">
  <g>
    <path d="M46.38,39.31a1.47,1.47,0,0,1-.54-.1,1.5,1.5,0,0,1-1-1.4v-7h-11a2.66,2.66,0,0,1-2.66-2.66V11.69a2.64,2.64,0,0,1,2.64-2.63H61.45a2.66,2.66,0,0,1,2.66,2.66V28.17a2.66,2.66,0,0,1-2.66,2.66H54.63l-7.13,8A1.52,1.52,0,0,1,46.38,39.31ZM34.2,27.83H46.38a1.5,1.5,0,0,1,1.5,1.5v4.55l5-5.55a1.5,1.5,0,0,1,1.12-.5h7.15V12.06H34.2Z" />
    <path d="M32.83,63.65a1.5,1.5,0,0,1-1.12-.5l-7.12-8H12.93a3.36,3.36,0,0,1-3.42-3.37v-15a3.41,3.41,0,0,1,3.42-3.4H39a3.41,3.41,0,0,1,3.42,3.4v15A3.36,3.36,0,0,1,39,55.18H34.33v7a1.5,1.5,0,0,1-1,1.4A1.47,1.47,0,0,1,32.83,63.65ZM12.93,36.4a.4.4,0,0,0-.42.4v15a.39.39,0,0,0,.42.37H25.26a1.5,1.5,0,0,1,1.12.5l4.95,5.54V53.68a1.5,1.5,0,0,1,1.5-1.5H39a.39.39,0,0,0,.42-.37v-15a.4.4,0,0,0-.42-.4Z" />
  </g>
  <rect x="0.36" y="0.36" width="71.28" height="71.28" fill="none"/>
</svg>
