<svg xmlns="http://www.w3.org/2000/svg" viewBox="0 0 72 72">
  <g>
    <path d="M48.81,40.83a1,1,0,0,1-.71-.29l-3.61-3.62a1,1,0,0,1,1.41-1.41l2.91,2.91,6.26-6.16a1,1,0,1,1,1.41,1.43l-7,6.85A1,1,0,0,1,48.81,40.83Z" />
    <path d="M60.37,24.66H52.21c-.13-3.38-1.1-5.95-3-7.81-3.71-3.67-9.95-3.58-16.55-3.49l-3.12,0H25.21a8.07,8.07,0,1,0-8.46,10.18V48.66a8.07,8.07,0,1,0,8.62,9.5l5.9,5.89a1.73,1.73,0,0,0,2.47,0,1.73,1.73,0,0,0,0-2.47L31,58.78h1.44c.85,0,1.74,0,2.67.06s2,.06,3.11.06c4,0,8.2-.46,11-3.19a10.9,10.9,0,0,0,3-7.48h8.17a1.81,1.81,0,0,0,1.8-1.8v-20A1.8,1.8,0,0,0,60.37,24.66Zm-48-9.13a5.08,5.08,0,1,1,5.08,5.07A5.08,5.08,0,0,1,12.36,15.53Zm5.08,46.24a5.07,5.07,0,1,1,5.07-5.07A5.08,5.08,0,0,1,17.44,61.77Zm29-8.93c-2.36,2.28-7.07,2.13-11.22,2-1,0-1.91-.06-2.8-.06H30.87l3-3a1.75,1.75,0,0,0-2.47-2.47l-6,6A8.07,8.07,0,0,0,19.75,49V23.26a8.12,8.12,0,0,0,5.54-5.87h4.26c1.06,0,2.12,0,3.17,0,5.74-.08,11.17-.16,13.7,2.34a7.12,7.12,0,0,1,1.79,5H40.39a1.8,1.8,0,0,0-1.8,1.8v20a1.81,1.81,0,0,0,1.8,1.8H48.2A6.78,6.78,0,0,1,46.41,52.84Zm12.16-8.21H42.19V28.26H58.57Z" />
  </g>
  <rect x="0.37" y="0.36" width="71.28" height="71.28" fill="none"/>
</svg>
