<svg xmlns="http://www.w3.org/2000/svg" viewBox="0 0 72 72">
  <g>
    <path d="M51.19,65.41H41.62v-3h9.57a1.19,1.19,0,0,0,1.19-1.19V10.4a1.18,1.18,0,0,0-1.19-1.18H20.8a1.18,1.18,0,0,0-1.19,1.18V61.22a1.19,1.19,0,0,0,1.19,1.19H30v3H20.8a4.2,4.2,0,0,1-4.19-4.19V10.4A4.19,4.19,0,0,1,20.8,6.22H51.19a4.19,4.19,0,0,1,4.19,4.18V61.22A4.2,4.2,0,0,1,51.19,65.41Z" />
    <path d="M41.09,17.58H30.9a1,1,0,0,1,0-2H41.09a1,1,0,1,1,0,2Z" />
    <path d="M41.09,24.65H30.9a1,1,0,0,1,0-2H41.09a1,1,0,0,1,0,2Z" />
    <g>
      <polygon points="24.86 45.55 24.86 38.36 33.71 37.16 33.71 45.58 24.86 45.55" />
      <polygon points="24.86 46.95 24.86 54.01 33.71 55.2 33.71 46.93 24.86 46.95" />
      <polygon points="35.06 45.55 35.06 37.02 46.62 35.33 46.62 45.58 35.06 45.55" />
      <polygon points="35.06 46.95 35.06 55.41 46.62 56.97 46.62 46.93 35.06 46.95" />
    </g>
  </g>
  <rect x="0.36" y="0.36" width="71.28" height="71.28" fill="none"/>
</svg>
