<?xml version="1.0" encoding="UTF-8"?>
<svg xmlns="http://www.w3.org/2000/svg" viewBox="0 0 72 72">
    <path d="M41.06,16.72h-10.19c-.55,0-1-.45-1-1s.45-1,1-1h10.19c.55,0,1,.45,1,1s-.45,1-1,1Z" />
    <path d="M41.06,23.79h-10.19c-.55,0-1-.45-1-1s.45-1,1-1h10.19c.55,0,1,.45,1,1s-.45,1-1,1Z" />
    <path d="M61.84,46.95c0-.33-.13-.65-.37-.88l-6.2-6.18c.01-.08,.02-.16,.02-.25V10.04c0-2.31-1.88-4.19-4.18-4.19H20.47c-2.31,0-4.18,1.88-4.18,4.19V30.48c0,.2,.04,.4,.12,.58l-6.47,6.45c-.23,.23-.37,.55-.37,.89s.13,.65,.37,.88l6.55,6.53h-.19v16.05c0,2.31,1.88,4.19,4.18,4.19h9.43v-3h-9.43c-.65,0-1.18-.53-1.18-1.19v-13.25l2.9,2.89c.36,.36,.89,.46,1.36,.27,.47-.19,.77-.65,.77-1.15v-6.42h24.01c.69,0,1.25-.56,1.25-1.25v-5.22l9.24,9.21-9.24,9.21v-4.13c0-.69-.56-1.25-1.25-1.25H31.49c-.69,0-1.25,.56-1.25,1.25s.56,1.25,1.25,1.25h15.6v5.89c0,.51,.3,.96,.77,1.15,.15,.06,.32,.1,.48,.1,.33,0,.64-.13,.88-.37l3.08-3.07v4.87c0,.65-.53,1.19-1.18,1.19h-9.57v3h9.57c2.31,0,4.18-1.88,4.18-4.19v-7.87l6.17-6.16c.23-.23,.37-.55,.37-.89Zm-12.62-13.11c-.36-.36-.89-.46-1.36-.27-.47,.19-.77,.65-.77,1.15v6.98H23.07c-.69,0-1.25,.56-1.25,1.25v4.65l-9.24-9.21,9.24-9.21v4.13c0,.69,.56,1.25,1.25,1.25h16.19c.69,0,1.25-.56,1.25-1.25s-.56-1.25-1.25-1.25h-14.94v-5.89c0-.51-.3-.96-.77-1.15-.47-.19-1-.09-1.36,.27l-2.9,2.89V10.04c0-.65,.53-1.19,1.18-1.19h30.65c.65,0,1.18,.53,1.18,1.19v26.87l-3.08-3.07Z" />
    <rect x=".36" y=".36" width="71.28" height="71.28" fill="none"/>
</svg>