<svg xmlns="http://www.w3.org/2000/svg" viewBox="0 0 72 72">
  <path d="M40.4,64.55H31A1.59,1.59,0,0,1,29.38,63l0-15c0-9-5.54-15.6-13.5-23.65L10,30.23a1.58,1.58,0,0,1-2.69-1.12l0-20.06A1.59,1.59,0,0,1,8.84,7.47h0l20.06,0A1.58,1.58,0,0,1,30,10.19l-5.89,5.89c4.21,4.21,8.48,8.56,11.58,13.54,3-4.83,7.22-9,11.28-13l.59-.59-5.85-5.84a1.59,1.59,0,0,1-.34-1.72,1.57,1.57,0,0,1,1.45-1l20.06,0h0A1.58,1.58,0,0,1,64,7.94a1.53,1.53,0,0,1,.46,1.11l0,20.06a1.58,1.58,0,0,1-2.69,1.12l-6-6C49.13,31,42,38.52,42,47.94V63a1.59,1.59,0,0,1-1.58,1.58Zm-7.86-3.16h6.29V47.94c0-11.17,8.69-19.85,15.67-26.83l.17-.17a1.57,1.57,0,0,1,1.48-.42,1.69,1.69,0,0,1,.8.43l4.36,4.36,0-14.68-14.68,0L51,15a1.57,1.57,0,0,1,.16,2,1.55,1.55,0,0,1-.57.48L49.2,18.86c-4.77,4.72-9.27,9.19-12.1,14.65a1.58,1.58,0,0,1-2.8,0c-3-5.83-8.11-10.9-13-15.81L21,17.37a1.59,1.59,0,0,1-.44-.49,1.62,1.62,0,0,1,.39-2.07l.1-.07,4.09-4.09-14.68,0,0,14.68,4-4a1.68,1.68,0,0,1,.42-.54,1.58,1.58,0,0,1,2.12.1C26.1,30,32.57,37.29,32.57,47.94Z" />
  <rect x="0.36" y="0.36" width="71.28" height="71.28" fill="none"/>
</svg>
