<svg xmlns="http://www.w3.org/2000/svg" viewBox="0 0 72 72">
  <g>
    <path d="M51.06,65.16H41.48v-3h9.58A1.18,1.18,0,0,0,52.24,61V10.15A1.18,1.18,0,0,0,51.06,9H20.66a1.18,1.18,0,0,0-1.18,1.18V61a1.18,1.18,0,0,0,1.18,1.19h9.18v3H20.66A4.19,4.19,0,0,1,16.48,61V10.15A4.18,4.18,0,0,1,20.66,6h30.4a4.19,4.19,0,0,1,4.18,4.18V61A4.19,4.19,0,0,1,51.06,65.16Z" />
    <path d="M41,17.33H30.76a1,1,0,0,1,0-2H41a1,1,0,1,1,0,2Z" />
    <path d="M41,24.4H30.76a1,1,0,1,1,0-2H41a1,1,0,0,1,0,2Z" />
    <path d="M33.64,53.81a1.52,1.52,0,0,1-1.06-.44l-5-5a1.49,1.49,0,0,1,0-2.12,1.51,1.51,0,0,1,2.12,0l3.91,3.91,8.63-8.62a1.5,1.5,0,0,1,2.12,2.12L34.7,53.37A1.5,1.5,0,0,1,33.64,53.81Z" />
  </g>
  <rect x="0.36" y="0.36" width="71.28" height="71.28" fill="none"/>
</svg>
