<svg xmlns="http://www.w3.org/2000/svg" viewBox="0 0 72 72">
  <g>
    <path d="M51.37,65.11H41.8v-3h9.57a1.18,1.18,0,0,0,1.18-1.18V10.11a1.18,1.18,0,0,0-1.18-1.19H21a1.18,1.18,0,0,0-1.18,1.19V60.93A1.18,1.18,0,0,0,21,62.11h9.19v3H21a4.19,4.19,0,0,1-4.18-4.18V10.11A4.19,4.19,0,0,1,21,5.92h30.4a4.19,4.19,0,0,1,4.18,4.19V60.93A4.18,4.18,0,0,1,51.37,65.11Z" />
    <path d="M41.27,17.28H31.08a1,1,0,0,1,0-2H41.27a1,1,0,0,1,0,2Z" />
    <path d="M41.27,24.35H31.08a1,1,0,0,1,0-2H41.27a1,1,0,0,1,0,2Z" />
    <path d="M40.07,58.36H32.52a1,1,0,0,1,0-2h2.79V54.5H27.25a1,1,0,0,1-1-1V38.82a1,1,0,0,1,1-1H45.42a1,1,0,0,1,1,1V53.5a1,1,0,0,1-1,1H37.31v1.86h2.76a1,1,0,1,1,0,2ZM36.31,52.5h8.11V39.82H28.25V52.5Z" />
  </g>
  <rect x="0.36" y="0.36" width="71.28" height="71.28" fill="none"/>
</svg>
