<svg xmlns="http://www.w3.org/2000/svg" viewBox="0 0 72 72">
  <path d="M63.64,15.59,44,8.45a1.86,1.86,0,0,0-1.21,0L22.27,15.59a1.79,1.79,0,0,0-1.21,1.7V30.85a1.94,1.94,0,0,0,0,.24,5,5,0,0,1-1.1,0,2.8,2.8,0,0,0-2,.48,6.19,6.19,0,0,0-2.47,3.47,29.59,29.59,0,0,0-.81,6.38,5.33,5.33,0,0,0,1,2.91l.38.52a15.59,15.59,0,0,1,1.29,1.91,9,9,0,0,1-.56,2.42,18.8,18.8,0,0,1-2.69,1,29.63,29.63,0,0,0-5.42,2.17,3.43,3.43,0,0,0-1.86,2.76l0,.1c-.07.5-.18,4.19-.24,6.35A1.49,1.49,0,0,0,8.1,63.1H37.39a1.49,1.49,0,0,0,1.07-.45,1.47,1.47,0,0,0,.42-1.09c-.05-2.16-.16-5.85-.25-6.4a4.1,4.1,0,0,0-.16-.73,17.38,17.38,0,0,0,9.07-9.92A17.69,17.69,0,0,0,43.39,26.1a16.77,16.77,0,0,0-2-1.7h5.45a1.5,1.5,0,0,0,0-3H37.78a1.5,1.5,0,0,0-1.5,1.5v9.21a1.5,1.5,0,0,0,3,0V26.56a14.85,14.85,0,0,1,2,1.66A14.69,14.69,0,0,1,44.72,43.5a14.56,14.56,0,0,1-8.41,8.62,41.83,41.83,0,0,0-4.39-1.85,19.12,19.12,0,0,1-2.73-1.14A10,10,0,0,1,28.65,47a10.93,10.93,0,0,1,1.47-2.51l.1-.16a6.59,6.59,0,0,0,1-3.23,20.28,20.28,0,0,0-.75-5.38c-.56-1.93-3.15-4.37-5.83-4.89V18.57l18.73-6.52,17.84,6.5V53H48.74a1.8,1.8,0,0,0,0,3.6H63a1.79,1.79,0,0,0,1.8-1.8V17.29A1.81,1.81,0,0,0,63.64,15.59Zm-36,20.93a17.9,17.9,0,0,1,.63,4.55,3.82,3.82,0,0,1-.51,1.57l-.1.14c-1.39,2-1.92,3.12-2,3.94,0,.31.25,3.7,1.57,4.7h0a15,15,0,0,0,3.64,1.67A33.79,33.79,0,0,1,35.31,55c.27.15.3.24.36.67s.11,2.31.17,4.46H9.64c.06-2.15.13-4.14.17-4.43l0-.16c0-.34.05-.37.36-.55A27.26,27.26,0,0,1,15.06,53a14,14,0,0,0,3.74-1.56c1.19-.92,1.64-4.26,1.58-5s-.69-1.8-1.88-3.39c-.12-.17-.23-.3-.28-.38a2.64,2.64,0,0,1-.51-1.25,26.7,26.7,0,0,1,.72-5.66,3.27,3.27,0,0,1,1.16-1.65l.05,0h.05a10.69,10.69,0,0,0,3.66-.35C24.8,33.41,27.27,35.36,27.61,36.52Z" />
  <rect x="0.36" y="0.36" width="71.28" height="71.28" fill="none"/>
</svg>
