<svg xmlns="http://www.w3.org/2000/svg" viewBox="0 0 72 72">
  <g>
    <path d="M44.45,55.45h-18a.87.87,0,0,1-.61-.26.84.84,0,0,1-.23-.61c0-1.1.11-3.68.16-4A2.18,2.18,0,0,1,27,48.75a29,29,0,0,1,2.76-1.33,11.82,11.82,0,0,0,1.67-.82,5.7,5.7,0,0,0,.41-1.82,10.62,10.62,0,0,0-.89-1.33l-.26-.34A3.46,3.46,0,0,1,30,41.24a2.82,2.82,0,0,1,.08-.71,1.49,1.49,0,0,0,0-.48v-.12a9.81,9.81,0,0,1,.42-3,4.07,4.07,0,0,1,1.59-2.24,1.74,1.74,0,0,1,1.24-.3,5.22,5.22,0,0,0,1.89-.2A4.8,4.8,0,0,1,39,35.33a3.19,3.19,0,0,1,1.41,2.29,7,7,0,0,0,.14,1.73c0,.15.06.3.09.53a.6.6,0,0,0,.06.2,2,2,0,0,1,.17.91,4.41,4.41,0,0,1-.65,2.09l-.08.11a6.87,6.87,0,0,0-1,1.75,6.21,6.21,0,0,0,.4,1.61,12.58,12.58,0,0,0,1.87,1c.76.35,1.63.74,2.57,1.25a2.25,2.25,0,0,1,1.19,1.78c0,.37.13,2.95.16,4a.81.81,0,0,1-.23.61A.87.87,0,0,1,44.45,55.45ZM27.36,53.76H43.59c-.05-1.41-.1-2.75-.12-2.95s-.08-.45-.34-.59c-.88-.47-1.72-.85-2.46-1.19a12.29,12.29,0,0,1-2.25-1.18h0c-.81-.62-1-2.85-1-3a6.05,6.05,0,0,1,1.29-2.57l.07-.1A2.88,2.88,0,0,0,39.16,41a.93.93,0,0,0,0-.18,2.1,2.1,0,0,1-.2-.69c0-.18-.05-.3-.08-.41a9.91,9.91,0,0,1-.18-2.05,1.76,1.76,0,0,0-.76-1,3.16,3.16,0,0,0-2.27-.78,7,7,0,0,1-2.42.24h-.12s0,0-.06,0a2.49,2.49,0,0,0-.86,1.22,8.69,8.69,0,0,0-.37,2.55v.13a3.25,3.25,0,0,1-.09.87,1.17,1.17,0,0,0,0,.32,1.91,1.91,0,0,0,.37.93l.2.27a5.11,5.11,0,0,1,1.23,2.2c.05.58-.29,2.7-1,3.24A10.25,10.25,0,0,1,30.42,49a28.74,28.74,0,0,0-2.6,1.26.5.5,0,0,0-.33.5l0,.1C27.45,51,27.4,52.35,27.36,53.76Z" />
    <path d="M54.13,16.88A12.28,12.28,0,0,0,52.5,17a18.26,18.26,0,0,0-33.93,5.69,10.84,10.84,0,1,0-2.63,21.41h3.13l.23,0V60.67a1.41,1.41,0,0,0,1.41,1.4H50.46a1.4,1.4,0,0,0,1.4-1.4V44.08h2.83c6.93-.27,12.36-6.23,12.36-13.58S61.25,16.88,54.13,16.88ZM49.06,59.27H22.11V33.86l13.8-5.33,13.15,5.31Zm5.54-19.2H51.86V32.89a1.4,1.4,0,0,0-.87-1.3L36.45,25.72a1.36,1.36,0,0,0-1,0L20.2,31.59a1.39,1.39,0,0,0-.9,1.3v7.22a1.6,1.6,0,0,0-.23,0H16a6.84,6.84,0,0,1,.16-13.68,6.76,6.76,0,0,1,2.17.35A3,3,0,0,0,21,26.47a3.08,3.08,0,0,0,1.42-2.26,14.26,14.26,0,0,1,26.87-4.8A3.08,3.08,0,0,0,52.67,21a7.24,7.24,0,0,1,1.46-.14c4.92,0,8.92,4.31,8.92,9.61S59.31,39.89,54.6,40.07Z" />
  </g>
  <rect x="0.36" y="0.36" width="71.28" height="71.28" fill="none"/>
</svg>
