<svg xmlns="http://www.w3.org/2000/svg" viewBox="0 0 72 72">
  <g>
    <g>
      <path d="M39.57,59.75a17,17,0,0,1-4-1.9A1.5,1.5,0,1,0,34,60.37a20.44,20.44,0,0,0,4.67,2.23,1.47,1.47,0,0,0,.46.07,1.51,1.51,0,0,0,1.43-1A1.49,1.49,0,0,0,39.57,59.75Z" />
      <path d="M29.37,50.61a1.5,1.5,0,1,0-2.73,1.24,20.1,20.1,0,0,0,2.72,4.39,1.52,1.52,0,0,0,1.17.55,1.45,1.45,0,0,0,.94-.34,1.5,1.5,0,0,0,.22-2.11A17,17,0,0,1,29.37,50.61Z" />
      <path d="M54.39,29.6a16.58,16.58,0,0,1,3.28,2.92,1.5,1.5,0,0,0,2.27-2,20,20,0,0,0-3.85-3.44,1.5,1.5,0,0,0-1.7,2.48Z" />
      <path d="M50.49,24.46c-.61-.18-1.24-.32-1.87-.44A19.93,19.93,0,1,0,49,27.81c0-.22,0-.43,0-.65.23.06.46.11.68.18a1.59,1.59,0,0,0,.43.06,1.5,1.5,0,0,0,.42-2.94ZM12.06,27.81a17,17,0,0,1,7.45-14,10.42,10.42,0,0,0-1.11,4.69c0,6.34,4.25,10.6,10.58,10.6,6.83,0,7.57,5.32,7.57,7.61a8.08,8.08,0,0,1-7.69,8,1.55,1.55,0,0,0-.31,0l-.62,0c0-.37-.06-.74-.06-1.11A18.38,18.38,0,0,1,28,41.15a1.5,1.5,0,1,0-3-.44,20.1,20.1,0,0,0-.21,2.9c0,.21,0,.42,0,.63A17,17,0,0,1,12.06,27.81Zm33.93,0a16.93,16.93,0,0,1-7.89,14.3,11,11,0,0,0,1.45-5.44,10.56,10.56,0,0,0-3-7.85,17.12,17.12,0,0,1,3.56-1.5,1.5,1.5,0,0,0-.84-2.88,19.8,19.8,0,0,0-4.74,2.08,1.55,1.55,0,0,0-.54.57,11.92,11.92,0,0,0-5-1c-4.75,0-7.58-2.84-7.58-7.6A7.59,7.59,0,0,1,29,10.88a1.33,1.33,0,0,0,.28,0,17,17,0,0,1,16.2,12.81h-.11a1.5,1.5,0,0,0,0,3l.62,0C46,27.06,46,27.43,46,27.81Z" />
      <path d="M61.63,41.21a1.5,1.5,0,0,0,1.48,1.29h.21a1.51,1.51,0,0,0,1.28-1.7,20,20,0,0,0-1.38-5A1.5,1.5,0,0,0,60.46,37,17.38,17.38,0,0,1,61.63,41.21Z" />
      <path d="M57.35,55.06A17.1,17.1,0,0,1,54,57.89a1.5,1.5,0,1,0,1.62,2.52,19.94,19.94,0,0,0,4-3.33,1.5,1.5,0,1,0-2.22-2Z" />
      <path d="M63.29,45.25a1.51,1.51,0,0,0-1.74,1.23,16.55,16.55,0,0,1-1.29,4.19,1.51,1.51,0,0,0,.74,2,1.55,1.55,0,0,0,.62.14A1.51,1.51,0,0,0,63,51.92,19.78,19.78,0,0,0,64.51,47,1.5,1.5,0,0,0,63.29,45.25Z" />
      <path d="M49.19,60a16.77,16.77,0,0,1-4.33.57h-.1a1.47,1.47,0,0,0-1.47,1.5,1.53,1.53,0,0,0,1.54,1.5A20,20,0,0,0,50,62.91a1.5,1.5,0,1,0-.76-2.9Z" />
      <path d="M27.6,36.81a1.55,1.55,0,0,0,.66.15,1.5,1.5,0,0,0,1.34-.84A17.11,17.11,0,0,1,32,32.47a1.5,1.5,0,1,0-2.26-2,20,20,0,0,0-2.87,4.3A1.51,1.51,0,0,0,27.6,36.81Z" />
    </g>
    <circle cx="28.98" cy="18.51" r="1.75" />
  </g>
  <rect x="0.36" y="0.36" width="71.28" height="71.28" fill="none"/>
</svg>
