<?xml version="1.0" encoding="UTF-8"?>
<svg xmlns="http://www.w3.org/2000/svg" viewBox="0 0 72 72">
  <path d="M42.84,6.92h-3.41c-.4-1.54-1.79-2.68-3.45-2.68s-3.06,1.14-3.45,2.68h-3.41c-.54,0-.98,.44-.98,.98v2.24c0,.54,.44,.98,.98,.98h13.72c.54,0,.98-.44,.98-.98v-2.24c0-.54-.44-.98-.98-.98Z" />
  <path d="M62.16,30.66l-4.37-4.02V11.69c0-2.31-1.88-4.19-4.18-4.19h-5.48v3h5.48c.65,0,1.18,.53,1.18,1.19v12.19l-.74-.68c-.45-.41-1.04-.64-1.65-.64h-17.76c-1.34,0-2.44,1.09-2.44,2.44V58.82h-14.05c-.65,0-1.18-.53-1.18-1.19V11.69c0-.65,.53-1.19,1.18-1.19h5.52v-3h-5.52c-2.31,0-4.18,1.88-4.18,4.19V57.63c0,2.31,1.88,4.19,4.18,4.19h14.05v1.48c0,1.35,1.09,2.44,2.44,2.44h25.87c1.34,0,2.44-1.09,2.44-2.44v-30.84c0-.68-.29-1.33-.79-1.8Zm-27.86-5.67c0-.19,.15-.34,.34-.34h17.76c.08,0,.17,.03,.23,.09l8.11,7.47c.07,.06,.11,.16,.11,.25v30.84c0,.19-.15,.34-.34,.34h-25.87c-.19,0-.34-.15-.34-.34V24.99Z" />
  <rect x="39.42" y="33.31" width="13.62" height="2.1" />
  <rect x="39.42" y="39.37" width="15.62" height="2.1" />
  <rect x="39.42" y="45.44" width="13.37" height="2.1" />
  <rect x="39.42" y="51.5" width="17.12" height="2.1" />

  <rect x=".36" y=".36" width="71.28" height="71.28" fill="none"/>
</svg>