<svg xmlns="http://www.w3.org/2000/svg" viewBox="0 0 72 72">
  <path d="M61.17,12.76H57.81V8.4a1,1,0,0,0-1-1H41.38a1,1,0,0,0-1,1V25h-2.3V15a1,1,0,0,0-1-1h-9a1,1,0,0,0-1,1v3.88H20.57V14.67a1,1,0,0,0-.22-.63L15.73,8.33A1,1,0,0,0,15,8h0a1,1,0,0,0-.77.37L9.52,14.08a1,1,0,0,0-.22.63V42.49a1,1,0,0,0,1,1H24.6a7.17,7.17,0,0,0,.68,1.28l.38.52a13.83,13.83,0,0,1,1.28,1.91,8.83,8.83,0,0,1-.55,2.41,19,19,0,0,1-2.7,1,30.36,30.36,0,0,0-5.42,2.17,3.45,3.45,0,0,0-1.86,2.77v.09c-.08.5-.19,4.2-.25,6.36a1.47,1.47,0,0,0,.43,1.08,1.5,1.5,0,0,0,1.07.46H46.94A1.52,1.52,0,0,0,48,63.07,1.5,1.5,0,0,0,48.44,62c-.06-2.16-.17-5.86-.25-6.4a5.24,5.24,0,0,0-.16-.73,17.36,17.36,0,0,0,9.07-9.93c.17-.47.31-1,.44-1.44h3.63a1,1,0,0,0,1-1V13.76A1,1,0,0,0,61.17,12.76ZM40.38,37.52c-.09-.45-.2-.92-.34-1.41a8.18,8.18,0,0,0-4.6-4.52V27h4.94ZM36.08,16v9H34.44a1,1,0,0,0-1,1v5.14a4.67,4.67,0,0,0-1.18.09,8.07,8.07,0,0,1-2.73.3l-.43,0V16ZM18.57,41.49H11.3V15.06L15,10.55,18.57,15Zm6.5-6a30.25,30.25,0,0,0-.8,6h-3.7V20.84H27.1V32.33A6.3,6.3,0,0,0,25.07,35.48ZM19.2,60.53c.06-2.16.13-4.15.16-4.44l0-.15c.05-.35.06-.38.37-.56a27.72,27.72,0,0,1,4.87-1.92,13.72,13.72,0,0,0,3.73-1.56c1.2-.91,1.64-4.26,1.58-5s-.68-1.8-1.87-3.38c-.13-.17-.23-.31-.28-.39a2.54,2.54,0,0,1-.52-1.25A27.47,27.47,0,0,1,28,36.19a3.33,3.33,0,0,1,1.17-1.65l.05,0h.05a10.69,10.69,0,0,0,3.66-.35c1.45-.32,3.92,1.62,4.25,2.78a17.6,17.6,0,0,1,.64,4.55,3.78,3.78,0,0,1-.52,1.57l-.09.15c-1.39,2-1.92,3.11-2,3.94,0,.3.24,3.69,1.57,4.7h0a15.23,15.23,0,0,0,3.64,1.66,35.2,35.2,0,0,1,4.43,1.88c.27.15.29.24.36.68s.1,2.3.17,4.46Zm41-19H57.94a17.58,17.58,0,0,0-7-16.67h5.45a1.5,1.5,0,0,0,0-3H47.33a1.5,1.5,0,0,0-1.5,1.5v9.21a1.5,1.5,0,0,0,3,0V27a14.33,14.33,0,0,1,2,1.66,14.57,14.57,0,0,1,.05,20.64,14.42,14.42,0,0,1-5,3.26,40.49,40.49,0,0,0-4.39-1.84,21,21,0,0,1-2.74-1.15,9.9,9.9,0,0,1-.53-2.16,10.64,10.64,0,0,1,1.46-2.5l.11-.16a6,6,0,0,0,.6-1.24h9.49a1,1,0,0,0,0-2H42.38V9.4H55.81v3.36H53.26a1,1,0,0,0-1,1v4.9a1,1,0,1,0,2,0v-3.9h5.91Z" />
  <rect x="0.36" y="0.36" width="71.28" height="71.28" fill="none"/>
</svg>
