<svg xmlns="http://www.w3.org/2000/svg" viewBox="0 0 72 72">
  <g>
    <path d="M53.23,64.61H18.67c-5.71,0-9.55-3.82-9.55-9.5v-38c0-5.69,3.84-9.51,9.55-9.51H53.23c5.71,0,9.55,3.82,9.55,9.51V55.11C62.78,60.79,58.94,64.61,53.23,64.61ZM18.67,10.55c-4,0-6.55,2.49-6.55,6.51V55.11c0,4,2.51,6.5,6.55,6.5H53.23c4,0,6.55-2.49,6.55-6.5v-38c0-4-2.51-6.51-6.55-6.51Z" />
    <path d="M35.9,40.71a4.73,4.73,0,0,1-2.08-.48,4.84,4.84,0,1,1,6.65-6h0a4.87,4.87,0,0,1-2.95,6.19A5.06,5.06,0,0,1,35.9,40.71Zm0-8.85a3.81,3.81,0,0,0-1.33.24,4,4,0,0,0-2.44,5.09,4,4,0,1,0,7.53-2.66h0a4,4,0,0,0-2-2.28A4,4,0,0,0,35.9,31.86Z" />
    <path d="M50.94,36.12a2.78,2.78,0,0,1-3-3A12.25,12.25,0,0,0,35.66,20.85c-7,0-15.5,5.62-15.5,12.18a.21.21,0,0,1-.42,0c0-7.61,6.53-16.09,15.9-16.09,11,0,18.17,6.29,18.17,16A3,3,0,0,1,50.94,36.12Z" />
    <path d="M36.16,54.79c-11,0-18.17-6.3-18.17-16a3,3,0,0,1,2.87-3.14,2.78,2.78,0,0,1,3,3A12.25,12.25,0,0,0,36.13,50.87c7,0,15.5-5.62,15.5-12.18a.21.21,0,0,1,.22-.21.21.21,0,0,1,.21.21C52.06,46.3,45.53,54.79,36.16,54.79Z" />
  </g>
  <rect x="0.5" y="0.36" width="71.28" height="71.28" fill="none"/>
</svg>
