<svg xmlns="http://www.w3.org/2000/svg" viewBox="0 0 72 72">
  <g>
    <path d="M41.5,49.42H36.62V44.54a1.65,1.65,0,0,0-3.3,0v4.88H28.45a1.65,1.65,0,1,0,0,3.3h4.87v4.87a1.65,1.65,0,0,0,3.3,0V52.72H41.5a1.65,1.65,0,1,0,0-3.3Z" />
    <path d="M61,12.76H57.66V8.4a1,1,0,0,0-1-1H41.23a1,1,0,0,0-1,1V25h-2.3V15a1,1,0,0,0-1-1H28a1,1,0,0,0-1,1v4.1H20.42V15.83a1,1,0,0,0-.22-.63L15.58,9.5a1,1,0,0,0-.78-.38h0a1,1,0,0,0-.77.37L9.37,15.24a1,1,0,0,0-.22.63V42.49a1,1,0,0,0,1,1H24.68A12.77,12.77,0,1,0,47.09,55h0a1.47,1.47,0,0,0,.54-.1,13.22,13.22,0,0,0,5.21-3.5A17.44,17.44,0,0,0,57,44.93c.17-.47.31-1,.44-1.44H61a1,1,0,0,0,1-1V13.76A1,1,0,0,0,61,12.76ZM40.23,39.49a12.56,12.56,0,0,0-4.94-1.15V27h4.94ZM35.93,16v9H34.29a1,1,0,0,0-1,1V38.42h0A12.83,12.83,0,0,0,29,39.81V16ZM18.42,41.49H11.15V16.22l3.65-4.51,3.62,4.47Zm2-20.43H27V41.13l-.43.36h-6.1ZM34.93,61.63A10.54,10.54,0,1,1,45.46,51.1,10.55,10.55,0,0,1,34.93,61.63ZM60,41.49H57.79a17.58,17.58,0,0,0-7-16.67h5.45a1.5,1.5,0,0,0,0-3H47.18a1.5,1.5,0,0,0-1.5,1.5v9.21a1.5,1.5,0,0,0,3,0V27a15.06,15.06,0,0,1,2,1.66,14.57,14.57,0,0,1,0,20.64,10.93,10.93,0,0,1-3,2.34c0-.18,0-.35,0-.52a12.74,12.74,0,0,0-2.53-7.61h4.54a1,1,0,0,0,0-2H43.33a13.47,13.47,0,0,0-1.1-.86V9.4H55.66v3.36H53.11a1,1,0,0,0-1,1v4.9a1,1,0,0,0,2,0v-3.9H60Z" />
  </g>
  <rect x="0.36" y="0.36" width="71.28" height="71.28" fill="none"/>
</svg>
