<svg xmlns="http://www.w3.org/2000/svg" viewBox="0 0 72 72">
  <g>
    <path d="M49.3,53.15H22.35A1.35,1.35,0,0,1,21,51.76c.06-2,.17-5.55.25-6v-.1a3.32,3.32,0,0,1,1.8-2.68,45.55,45.55,0,0,1,4.14-2,16.34,16.34,0,0,0,2.48-1.22,8.94,8.94,0,0,0,.61-2.6,14.25,14.25,0,0,0-1.34-2c-.17-.23-.3-.41-.37-.52a5.17,5.17,0,0,1-1-2.86,4.4,4.4,0,0,1,.12-1.08,2.16,2.16,0,0,0,.07-.69v-.19a14.83,14.83,0,0,1,.63-4.45,6.14,6.14,0,0,1,2.43-3.42,2.65,2.65,0,0,1,1.9-.46,7.93,7.93,0,0,0,2.81-.3c2-.45,4.28.62,5.61,1.66a4.84,4.84,0,0,1,2.13,3.51,12,12,0,0,0,.21,2.58c.05.22.1.45.15.8a.72.72,0,0,0,.08.28A3.05,3.05,0,0,1,44,31.37a6.6,6.6,0,0,1-1,3.19l-.11.16a11.17,11.17,0,0,0-1.5,2.59,10.23,10.23,0,0,0,.57,2.35,20.64,20.64,0,0,0,2.78,1.4c1.15.52,2.46,1.11,3.86,1.87a3.46,3.46,0,0,1,1.83,2.74c.08.54.19,4,.25,6.09a1.35,1.35,0,0,1-1.35,1.39Zm-25.56-2.7H47.91c-.07-2.09-.14-4-.18-4.33s-.09-.62-.45-.82C46,44.59,44.71,44,43.6,43.52a18.21,18.21,0,0,1-3.4-1.79h0c-1.27-1-1.54-4.33-1.53-4.62,0-.79.59-1.88,2-3.9l.1-.15a4.1,4.1,0,0,0,.55-1.69.9.9,0,0,0,0-.24,3.51,3.51,0,0,1-.3-1c0-.27-.08-.45-.12-.62a14.26,14.26,0,0,1-.27-3.1c0-.23-.3-.8-1.1-1.44a4.71,4.71,0,0,0-3.35-1.14,10.48,10.48,0,0,1-3.65.35h-.1l-.11.07A3.44,3.44,0,0,0,31,26a12.3,12.3,0,0,0-.55,3.81V30a5.2,5.2,0,0,1-.14,1.32,1.49,1.49,0,0,0-.05.45,2.81,2.81,0,0,0,.55,1.36c.05.08.16.22.29.4C32.3,35.07,32.91,36,33,36.84s-.38,4-1.54,4.94a16,16,0,0,1-3.16,1.64,41.85,41.85,0,0,0-3.89,1.87c-.39.22-.4.32-.45.69l0,.15C23.88,46.42,23.81,48.37,23.74,50.45Zm17.93-11Z" />
    <path d="M58.31,62.9H13.68a2,2,0,0,1-2-2V19.23A2,2,0,0,1,13,17.34L35.85,9.41a1.93,1.93,0,0,1,1.34,0L59,17.35a2,2,0,0,1,1.31,1.88V60.9A2,2,0,0,1,58.31,62.9Zm-42.63-4H56.31V20.63L36.49,13.42,15.68,20.65Z" />
  </g>
  <rect x="0.36" y="0.36" width="71.28" height="71.28" fill="none"/>
</svg>
