<svg xmlns="http://www.w3.org/2000/svg" viewBox="0 0 72 72">
  <g>
    <path d="M45.16,55.45h-18a.87.87,0,0,1-.6-.26.85.85,0,0,1-.24-.61c0-1.1.11-3.68.17-4a2.18,2.18,0,0,1,1.18-1.81,27.83,27.83,0,0,1,2.75-1.33,11.5,11.5,0,0,0,1.68-.82,5.7,5.7,0,0,0,.41-1.82,9.76,9.76,0,0,0-.9-1.33l-.25-.34a3.46,3.46,0,0,1-.66-1.87,3,3,0,0,1,.08-.72,1.37,1.37,0,0,0,.05-.47v-.12a9.69,9.69,0,0,1,.41-3,4.09,4.09,0,0,1,1.6-2.24,1.72,1.72,0,0,1,1.23-.3,5.26,5.26,0,0,0,1.9-.2,4.81,4.81,0,0,1,3.68,1.1,3.15,3.15,0,0,1,1.4,2.29,8.36,8.36,0,0,0,.14,1.73,3.89,3.89,0,0,1,.1.53.6.6,0,0,0,.06.2,2,2,0,0,1,.17.91,4.3,4.3,0,0,1-.66,2.09l-.07.11a6.87,6.87,0,0,0-1,1.75,6.16,6.16,0,0,0,.39,1.61,13.11,13.11,0,0,0,1.87,1c.77.35,1.64.74,2.57,1.25a2.2,2.2,0,0,1,1.19,1.78c.06.37.14,2.95.17,4a.81.81,0,0,1-.24.61A.83.83,0,0,1,45.16,55.45Zm-17.1-1.69H44.29c0-1.41-.09-2.75-.12-2.95s-.07-.45-.33-.59c-.88-.47-1.72-.85-2.46-1.19a12.29,12.29,0,0,1-2.25-1.18h0c-.81-.62-1-2.85-1-3a6.12,6.12,0,0,1,1.3-2.57l.06-.1A2.73,2.73,0,0,0,39.87,41a.93.93,0,0,0,0-.18,2.1,2.1,0,0,1-.2-.69c0-.18-.06-.3-.08-.41a8.61,8.61,0,0,1-.18-2.05,1.76,1.76,0,0,0-.76-1,3.18,3.18,0,0,0-2.28-.78,7,7,0,0,1-2.42.24h-.11s0,0-.06,0a2.37,2.37,0,0,0-.86,1.22,8.69,8.69,0,0,0-.37,2.55v.13a3.25,3.25,0,0,1-.09.87,1.17,1.17,0,0,0,0,.32,1.91,1.91,0,0,0,.37.93l.2.27a5.22,5.22,0,0,1,1.23,2.2c.05.58-.29,2.7-1,3.24A10.25,10.25,0,0,1,31.13,49a27.51,27.51,0,0,0-2.6,1.26.52.52,0,0,0-.34.5v.1C28.16,51,28.11,52.35,28.06,53.76Z" />
    <path d="M62.5,13H59.14V8.61a1,1,0,0,0-1-1H42.72a1,1,0,0,0-1,1V22.75h-2.3V15.17a1,1,0,0,0-1-1h-9a1,1,0,0,0-1,1v4.09H21.9V16a1,1,0,0,0-.22-.63L17.06,9.7a1,1,0,0,0-.77-.37h0a1,1,0,0,0-.78.37l-4.66,5.75a1,1,0,0,0-.22.63V42.7a1,1,0,0,0,1,1H20v17a1.4,1.4,0,0,0,1.4,1.4H51.17a1.4,1.4,0,0,0,1.4-1.4v-17H62.5a1,1,0,0,0,1-1V14A1,1,0,0,0,62.5,13ZM41.72,28.07,37.1,26.45a1.28,1.28,0,0,0-.33-.06V24.75h4.95Zm-4.3-11.9v6.58H35.77a1,1,0,0,0-1,1v3.17l-4.34,1.46V16.17Zm-9,5.09v7.79l-6.53,2.2v-10ZM19.9,41.7H12.63V16.43l3.65-4.51,3.62,4.47ZM49.77,59.27H22.82V33.9l12.54-4.22,1.27-.42,13.14,4.63ZM53.6,14V41.55a.76.76,0,0,0,0,.15h-1V32.89a1.41,1.41,0,0,0-.94-1.32l-7.91-2.79V9.61H57.14V13H54.6A1,1,0,0,0,53.6,14ZM61.5,41.7H55.58a.77.77,0,0,0,0-.15V15h5.9Z" />
  </g>
  <rect x="0.36" y="0.36" width="71.28" height="71.28" fill="none"/>
</svg>
