<svg xmlns="http://www.w3.org/2000/svg"  viewBox="0 0 72 72">
  <g>
    <path d="M21.46,37.1a1,1,0,0,1-.72-.3L8.25,24.34a1,1,0,0,1,0-1.45L20.74,10.44a1,1,0,0,1,1.75.72v7.07H63a1,1,0,0,1,0,2.06H21.46a1,1,0,0,1-1-1V13.64l-10,10,10,10V27.93a1,1,0,0,1,1-1H63A1,1,0,1,1,63,29H22.49v7.12a1,1,0,0,1-.63,1A1.1,1.1,0,0,1,21.46,37.1Z" />
    <path d="M51,61.85a1,1,0,0,1-.39-.08,1,1,0,0,1-.64-1V53.75H9a1,1,0,1,1,0-2H51a1,1,0,0,1,1,1v5.62l10-10-10-10v5.66a1,1,0,0,1-1,1H9a1,1,0,1,1,0-2h41V35.91a1,1,0,0,1,.64-.95,1,1,0,0,1,1.11.23L64.18,47.64a1,1,0,0,1,0,1.45L51.69,61.55A1,1,0,0,1,51,61.85Z" />
  </g>
  <rect x="0.5" y="0.36" width="71.28" height="71.28" fill="none"/>
</svg>
