<svg xmlns="http://www.w3.org/2000/svg" viewBox="0 0 72 72">
  <path d="M53.92,16.92A12.12,12.12,0,0,0,52.3,17a18.26,18.26,0,0,0-33.93,5.69,10.85,10.85,0,1,0-2.64,21.41h3.14a1.38,1.38,0,0,0,.2,0c.14.25.27.48.4.67l.38.52a13.83,13.83,0,0,1,1.28,1.91,9.21,9.21,0,0,1-.55,2.41,19.5,19.5,0,0,1-2.7,1,30.36,30.36,0,0,0-5.42,2.17,3.45,3.45,0,0,0-1.86,2.76v.1c-.08.5-.19,4.2-.25,6.36a1.47,1.47,0,0,0,.43,1.08,1.5,1.5,0,0,0,1.07.46H41.13a1.52,1.52,0,0,0,1.08-.46A1.5,1.5,0,0,0,42.63,62c-.06-2.16-.17-5.86-.25-6.41a3.55,3.55,0,0,0-1.89-2.82l-.37-.19q.69-.55,1.32-1.17a17.57,17.57,0,0,0,4.1-6.47c.1-.27.17-.54.26-.81h.05l8.63,0c6.93-.27,12.36-6.23,12.36-13.58S61.05,16.92,53.92,16.92ZM13.38,60.53c.07-2.16.14-4.15.17-4.44l0-.15c0-.35,0-.38.37-.56a27.42,27.42,0,0,1,4.87-1.92,13.72,13.72,0,0,0,3.73-1.56c1.19-.91,1.64-4.26,1.58-5s-.68-1.8-1.87-3.38L22,43.1a2.64,2.64,0,0,1-.51-1.25,27.47,27.47,0,0,1,.72-5.66,3.33,3.33,0,0,1,1.17-1.65l.05,0h.05a10.7,10.7,0,0,0,3.66-.35c1.47-.32,3.92,1.62,4.25,2.78A17.44,17.44,0,0,1,32,41.49a3.77,3.77,0,0,1-.51,1.57l-.09.15c-1.39,2-1.92,3.11-2,3.94,0,.3.25,3.69,1.58,4.7a15.32,15.32,0,0,0,3.63,1.66,34,34,0,0,1,4.43,1.88c.28.15.3.24.37.67s.1,2.31.17,4.47Zm41-20.42-7.88,0a17.58,17.58,0,0,0-7.11-15.31h5.45a1.5,1.5,0,0,0,0-3H35.77a1.5,1.5,0,0,0-1.5,1.5v9.21a1.5,1.5,0,0,0,3,0V27a14.33,14.33,0,0,1,2,1.66,14.71,14.71,0,0,1,3.45,15.28A14.46,14.46,0,0,1,37,51.18l-1.28-.48a20.4,20.4,0,0,1-2.74-1.15,9.76,9.76,0,0,1-.53-2.16,10.64,10.64,0,0,1,1.46-2.5l.11-.16a6.67,6.67,0,0,0,1-3.24,20.32,20.32,0,0,0-.75-5.38c-.69-2.4-4.53-5.6-7.78-4.88a8.07,8.07,0,0,1-2.73.3,2.7,2.7,0,0,0-2,.48,6.17,6.17,0,0,0-2.47,3.47,30.62,30.62,0,0,0-.73,4.65H15.77a6.84,6.84,0,0,1,.17-13.68,6.74,6.74,0,0,1,2.16.35,3,3,0,0,0,2.66-.29,3.1,3.1,0,0,0,1.43-2.26,14.25,14.25,0,0,1,26.86-4.8,3.08,3.08,0,0,0,3.41,1.61,7.31,7.31,0,0,1,1.46-.14c4.92,0,8.92,4.31,8.92,9.61S59.1,39.93,54.4,40.11Z" />
  <rect x="0.36" y="0.36" width="71.28" height="71.28" fill="none"/>
</svg>
