<svg xmlns="http://www.w3.org/2000/svg" width="1in" height="1in" viewBox="0 0 72 72">
  <path d="M55.5,4.81c-.52,0-12.82-1.23-21,6.14C30.25,14.8,28,20.22,27.66,27.1H17a1.49,1.49,0,0,0-1.37.88,1.52,1.52,0,0,0,.25,1.62L26.84,41.84c-5.11,1-9.92,3.21-9.92,5.94v11c0,4.45,9.77,6.47,18.84,6.47s18.83-2,18.83-6.47v-11c0-2.82-4.89-5-10.12-5.91L55.4,29.59a1.49,1.49,0,0,0-1.12-2.49H43.35c-.7-3.54-1.71-14.8,12.46-19.37a1.5,1.5,0,0,0-.31-2.92ZM52.09,53.19c0,1.35-5.77,4-16.33,4s-16.34-2.62-16.34-4h0v-2c3.49,2.06,10.07,3,16.34,3s12.85-1,16.33-3ZM35.76,62.76c-10.57,0-16.34-2.62-16.34-4V56.63c3.49,2.06,10.08,3,16.34,3s12.85-1,16.33-3v2.16C52.09,60.14,46.32,62.76,35.76,62.76Zm7-18.62c6,.75,9.31,2.92,9.35,3.64,0,1.35-5.77,4-16.33,4s-16.32-2.62-16.33-4c.11-.68,3.06-2.81,9.07-3.7a1.22,1.22,0,0,0,.27-.09l5.8,6.48a1.48,1.48,0,0,0,1.11.5h0a1.48,1.48,0,0,0,1.11-.5l5.71-6.41A2,2,0,0,0,42.74,44.14Zm-2-15.1a1.51,1.51,0,0,0,1.43,1.06h8.77L35.68,47.23,20.37,30.1h8.76a1.5,1.5,0,0,0,1.5-1.5c0-6.7,2-11.88,5.88-15.41A22.28,22.28,0,0,1,48.06,8.13C36.84,15.78,40.69,28.89,40.74,29Z" fill="gray"/>
  <rect x="0.36" y="0.36" width="71.28" height="71.28" fill="none"/>
</svg>
