<svg xmlns="http://www.w3.org/2000/svg" viewBox="0 0 72 72">
  <g>
    <path d="M35.56,37.36a.25.25,0,0,0,.33,0,.26.26,0,0,0,0-.33c0-.07-5.5-7.09-4.5-10.66.56-2,2.5-3.71,4.75-5.64a28.09,28.09,0,0,0,6.49-7.13,8.82,8.82,0,0,0-.06-9.4c0-.09-.09-.15-.11-.2a.15.15,0,0,0,0-.07.24.24,0,0,0-.28-.15A.25.25,0,0,0,42,4a.34.34,0,0,0,0,.16c.18.57,1.34,4.79-2.84,9.43a41.87,41.87,0,0,1-5.71,5c-3,2.37-5.67,4.41-5.67,7.22C27.78,31.74,35.24,37.13,35.56,37.36Z" />
    <path d="M35.94,26.85a6.37,6.37,0,0,0,1.92,5.48,6.37,6.37,0,0,1,1.55,2.59,5.2,5.2,0,0,1-1.4,4.7.25.25,0,0,0,0,.32.26.26,0,0,0,.21.11l.11,0c.2-.1,4.82-2.46,4.91-6.55a5.17,5.17,0,0,0-1.64-3.56c-1.13-1.33-2.2-2.59-1.24-5.38s8.06-6.8,9-7.35c.21-.08.24-.14.24-.28a.22.22,0,0,0-.12-.21.23.23,0,0,0-.24,0l-.1,0-.66.19C45.58,17.7,36.73,20.07,35.94,26.85Z" />
    <path d="M18.57,41.41c1.57.88,6.53,1.44,12.12,1.44,6.74,0,14.39-.81,18.12-2.85a.26.26,0,0,0,.12-.31.27.27,0,0,0-.29-.16c-10.12,2.07-25.2,1.75-25.62.64,0-.81,3.39-2.12,5.8-2.79a.26.26,0,0,0,.17-.3.24.24,0,0,0-.27-.19C18.43,38.24,18,40.3,18,40.7S18.21,41.2,18.57,41.41Z" />
    <path d="M46.85,46.93c0-.24-.19-.36-1.09-.82a8.26,8.26,0,0,1-1-.57.36.36,0,0,0,0-.09.25.25,0,0,0-.27-.09C38.38,47,26.15,46.6,25.71,45.5c-.3-.71.74-1.28.75-1.28a.26.26,0,0,0,.12-.31.26.26,0,0,0-.29-.16c-.1,0-2.39.52-3.13,1.79a1.51,1.51,0,0,0,.78,2.25c1.58.78,5.21,1.28,9.4,1.28a42.88,42.88,0,0,0,13.32-1.9A.31.31,0,0,0,46.85,46.93Z" />
    <path d="M28,50.54a.26.26,0,0,0,.16-.3.25.25,0,0,0-.28-.19c-.08,0-2.08.26-2.79,1.37a1.62,1.62,0,0,0-.15,1.43,1.9,1.9,0,0,0,1,1c1.52.78,4.83,1.3,8.64,1.3a36.16,36.16,0,0,0,10.86-1.55.28.28,0,0,0,.19-.23c0-.24-.11-.32-1.51-1a14.36,14.36,0,0,1-1.51-.83.14.14,0,0,0,0-.08.23.23,0,0,0-.28-.07c-3.76,1.45-14.2,1-14.87,0a.24.24,0,0,1-.06-.25C27.42,50.82,27.78,50.61,28,50.54Z" />
    <path d="M49.11,58.58c2.41-.48,6.59-1.76,7-3.49a1.5,1.5,0,0,0-.83-1.55.26.26,0,0,0-.3,0,.25.25,0,0,0-.08.28,1,1,0,0,1-.08.88c-.61,1-3.06,1.86-6.7,2.34-10.8,1.43-28.81.56-30.64-1a.26.26,0,0,1-.09-.14c0-.72,2.93-1.69,5.66-2.18a.24.24,0,0,0,.2-.27.25.25,0,0,0-.26-.22c-.88.06-8.62.62-9.78,2.66a1.15,1.15,0,0,0,0,1.16c.94,1.83,9.82,2.9,19.29,2.9A90.79,90.79,0,0,0,49.11,58.58Z" />
    <path d="M58.3,56.89a.25.25,0,0,0-.25,0c-8.49,6.92-35.83,3.75-36.1,3.72a.24.24,0,0,0-.27.19.25.25,0,0,0,.15.29C25.06,62.42,30.44,63,36.11,63c8.79,0,18.24-1.43,21.32-3.89a2.16,2.16,0,0,0,1-2A.24.24,0,0,0,58.3,56.89Z" />
    <path d="M50.43,37.64c1.93-.23,3.38.06,4.29.87A3.38,3.38,0,0,1,55.79,41v.25c0,1.24.08,3.32-6.64,7.16a.25.25,0,0,0,.13.47h.06c.42-.11,10.18-2.73,9.29-8.52a3.59,3.59,0,0,0-1.55-2.51c-2.38-1.65-6.55-.77-6.73-.73a.25.25,0,0,0-.19.29A.24.24,0,0,0,50.43,37.64Z" />
  </g>
  <rect x="0.36" y="0.36" width="71.28" height="71.28" fill="none"/>
</svg>
