<svg xmlns="http://www.w3.org/2000/svg" viewBox="0 0 72 72">
  <g id="SVG_icons" data-name="SVG icons">
    <path d="M27.12,64.65h18c.65,0,1.2-.42,1.41-1h16.4c.28,0,.5-.22.5-.5v-18s0-18,0-18V9.15c0-.28-.22-.5-.5-.5h-16.4c-.21-.58-.76-1-1.41-1h-18c-.65,0-1.2.42-1.41,1H8.93c-.28,0-.5.22-.5.5v18s0,18,0,18v18c0,.28.22.5.5.5h16.78c.21.58.76,1,1.41,1ZM25.62,27.65v17s-16.19,0-16.19,0v-17s16.19,0,16.19,0ZM25.62,9.65v17s-16.19,0-16.19,0V9.65s16.19,0,16.19,0ZM46.62,26.65V9.65s15.81,0,15.81,0v17s-15.81,0-15.81,0ZM43.62,31.49c-6.96.6-12.44,6.45-12.44,13.57s5.48,12.97,12.44,13.57v3.02s-15,0-15,0V10.65s15,0,15,0v20.84ZM44.81,56.69c-6.41,0-11.63-5.22-11.63-11.63s5.22-11.63,11.63-11.63c6.41,0,11.63,5.22,11.63,11.63s-5.22,11.63-11.63,11.63ZM62.43,44.65h-4.01c-.2-6.71-5.27-12.21-11.79-13.08v-3.92s15.81,0,15.81,0v17ZM46.62,62.65v-4.1c6.47-.87,11.5-6.27,11.79-12.9h4.02s0,17,0,17h-15.81ZM9.43,62.65v-17s16.19,0,16.19,0v17s-16.19,0-16.19,0Z" fill="#272525"/>
    <path d="M44.77,46.52l-4.7,4.7c-.39.39-1.02.39-1.41,0s-.39-1.02,0-1.41l4.7-4.7-4.7-4.7c-.39-.39-.39-1.02,0-1.41s1.02-.39,1.41,0l4.7,4.7,4.7-4.7c.39-.39,1.02-.39,1.41,0,.2.2.29.45.29.71s-.1.51-.29.71l-4.7,4.7,4.7,4.7c.2.2.29.45.29.71,0,.26-.1.51-.29.71-.39.39-1.02.39-1.41,0l-4.7-4.7Z" fill="#272525"/>
  </g>
  <g id="Rectangles">
    <rect x=".25" y=".36" width="71.28" height="71.28" fill="none"/>
  </g>
</svg>