<svg xmlns="http://www.w3.org/2000/svg" viewBox="0 0 72 72">
  <g id="SVG_icons" data-name="SVG icons">
    <path d="M63.48,25.93V9.15c0-.28-.22-.5-.5-.5H8.98c-.28,0-.5.22-.5.5v16.78c-.58.21-1,.76-1,1.41v18c0,.65.42,1.2,1,1.41v16.4c0,.28.22.5.5.5h54c.28,0,.5-.22.5-.5v-16.4c.58-.21,1-.76,1-1.41v-18c0-.65-.42-1.2-1-1.41ZM27.48,9.65h17v16.19h-17V9.65ZM9.48,9.65h17v16.19H9.48V9.65ZM26.48,62.65H9.48v-15.81h17v15.81ZM10.48,43.84v-15h51v15h-3.02c-.6-6.96-6.45-12.44-13.57-12.44s-12.97,5.48-13.57,12.44H10.48ZM44.89,56.66c-6.41,0-11.63-5.22-11.63-11.63s5.22-11.63,11.63-11.63,11.63,5.22,11.63,11.63-5.22,11.63-11.63,11.63ZM27.48,62.65v-15.81h3.92c.87,6.53,6.37,11.59,13.08,11.79v4.01h-17ZM62.48,62.65h-17v-4.02c6.63-.29,12.04-5.32,12.9-11.79h4.1v15.81ZM62.48,25.84h-17V9.65h17v16.19Z" fill="#272525"/>
    <path d="M46.35,44.99l4.7-4.7c.39-.39.39-1.02,0-1.41s-1.02-.39-1.41,0l-4.7,4.7-4.7-4.7c-.39-.39-1.02-.39-1.41,0s-.39,1.02,0,1.41l4.7,4.7-4.7,4.7c-.39.39-.39,1.02,0,1.41.2.2.45.29.71.29s.51-.1.71-.29l4.7-4.7,4.7,4.7c.2.2.45.29.71.29s.51-.1.71-.29c.39-.39.39-1.02,0-1.41l-4.7-4.7Z" fill="#272525"/>
  </g>
  <g id="Rectangles">
    <rect x=".22" y=".36" width="71.28" height="71.28" fill="none"/>
  </g>
</svg>