<svg xmlns="http://www.w3.org/2000/svg" viewBox="0 0 72 72">
  <path d="M36,7.68c-15.62,0-28.32,12.7-28.32,28.32s12.7,28.32,28.32,28.32,28.32-12.7,28.32-28.32S51.62,7.68,36,7.68ZM36,61.32c-13.96,0-25.32-11.36-25.32-25.32s11.36-25.32,25.32-25.32c7.48,0,14.21,3.26,18.85,8.44-.03-.01-.05-.04-.07-.05-.38-.17-.84-.08-1.13.22l-21.54,21.91c-.18.18-.39.27-.64.27h0c-.24,0-.48-.11-.64-.29l-6.32-7.01c-.24-.27-.61-.38-.96-.31-.35.08-.63.33-.74.68l-1.46,4.63c-.11.36-.02.74.25,1.01l9.26,9.26c.19.19.45.29.71.29.23,0,.47-.08.66-.24l22.05-18.77c.2-.17.32-.42.34-.68l.75-9.98c.01-.15-.02-.3-.08-.43,3.76,4.42,6.03,10.13,6.03,16.37,0,13.96-11.36,25.32-25.32,25.32Z" fill="#272525"/>
</svg>