<svg xmlns="http://www.w3.org/2000/svg" viewBox="0 0 72 72">
  <g>
    <path d="M52.47,5.26a14,14,0,1,0,14,14h0A14,14,0,0,0,52.47,5.26Zm11.31,9.46H54.42L46.09,8.9A12.13,12.13,0,0,1,62.8,12.79,12.49,12.49,0,0,1,63.78,14.72ZM40.34,19.27a12.09,12.09,0,0,1,.6-3.77l5.23,3.64-5.36,3.77A12.1,12.1,0,0,1,40.34,19.27Zm1.21,5.32,7.74-5.44-7.74-5.37a12.29,12.29,0,0,1,3-3.74l9.32,6.5h10.5a12.56,12.56,0,0,1,.31,2.73,12.23,12.23,0,0,1-.25,2.49H53.84l-9.41,6.65A12.27,12.27,0,0,1,41.55,24.59Zm10.92,6.88A12.07,12.07,0,0,1,46,29.56l8.5-6h9.44A12.22,12.22,0,0,1,52.47,31.47Z"/>
    <path d="M8.85,27.65a.5.5,0,0,1-.5-.5V16.5a7.85,7.85,0,0,1,7.84-7.85H27a.51.51,0,0,1,.5.5.5.5,0,0,1-.5.5H16.19A6.85,6.85,0,0,0,9.35,16.5V27.15A.5.5,0,0,1,8.85,27.65Z"/>
    <path d="M36.08,66.37a.5.5,0,0,1-.5-.5V50.8a.51.51,0,0,1,.5-.5.5.5,0,0,1,.5.5V65.87A.5.5,0,0,1,36.08,66.37Z"/>
    <g>
      <path d="M36.08,5.82a.5.5,0,0,0-.5.5V16a15.58,15.58,0,0,1-5.18.49,3.88,3.88,0,0,0-2.94.71A10.51,10.51,0,0,0,23.32,23c-1.17,4.76-1.17,6.19-1.17,8.18v.36A5.8,5.8,0,0,1,22,33.13a6.48,6.48,0,0,0-.2,1.81c0,.14,0,.27,0,.4H6.72a.5.5,0,0,0-.5.5.5.5,0,0,0,.5.5H22a10.1,10.1,0,0,0,1.56,3.42,18.34,18.34,0,0,0,1.24,1.48,22.51,22.51,0,0,1,2.89,3.68,22.36,22.36,0,0,1-1.42,6.95,35.81,35.81,0,0,1-6.35,2.6,72.73,72.73,0,0,0-10,4.06,6.77,6.77,0,0,1-.54-2.67V45.1a.51.51,0,0,0-.5-.5.5.5,0,0,0-.5.5V55.86a7.85,7.85,0,0,0,7.84,7.84H26.9a.5.5,0,0,0,.5-.5.51.51,0,0,0-.5-.5H16.24A6.78,6.78,0,0,1,11.72,61a76.56,76.56,0,0,1,9.17-3.68c3.32-1.18,5.95-2.1,7.26-3.11,1.71-1.3,2.61-8.12,2.5-9.52S29.39,41.92,27,39.24c-.39-.44-.88-1-1-1.15a6,6,0,0,1-1.21-3.15,4.25,4.25,0,0,1,.11-1.11,8.22,8.22,0,0,0,.24-2.25v-.37a25.24,25.24,0,0,1,1.08-7.46,7.66,7.66,0,0,1,2.83-4,1.16,1.16,0,0,1,1.06-.26,16.85,16.85,0,0,0,5.46-.41V22a.5.5,0,0,0,.5.5.5.5,0,0,0,.5-.5V6.32A.5.5,0,0,0,36.08,5.82Z"/>
      <path d="M65.73,35.34H47.61A9.57,9.57,0,0,1,46.54,38c-.12.18-.4.52-.74,1-2.34,3-3.62,4.81-3.7,6.18a23.18,23.18,0,0,0,.62,4.56c.74,3.31,1.38,4.07,1.93,4.42,1.37,1,3.89,1.94,7.06,3.1a79.7,79.7,0,0,1,8.64,3.58,6.81,6.81,0,0,1-4.7,1.88H45a.5.5,0,0,0-.5.5.5.5,0,0,0,.5.5H55.65a7.85,7.85,0,0,0,7.85-7.84V45.1a.51.51,0,0,0-.5-.5.5.5,0,0,0-.5.5V55.86A6.73,6.73,0,0,1,62,58.32a76.41,76.41,0,0,0-9.29-3.89,33.85,33.85,0,0,1-6.28-2.69,22.63,22.63,0,0,1-1.36-6.39c.14-.84,2.33-3.6,3-4.51.42-.52.74-.94.88-1.16a11.92,11.92,0,0,0,1.43-3.34H65.73a.5.5,0,0,0,.5-.5A.51.51,0,0,0,65.73,35.34Z"/>
    </g>
  </g>
  <rect x="0.36" y="0.36" width="71.28" height="71.28" fill="none"/>
</svg>
