<?xml version="1.0" encoding="UTF-8"?>
<svg xmlns="http://www.w3.org/2000/svg" viewBox="0 0 72 72">
    <path d="M6.26,34.94c3.27,0,3.73-1.79,3.73-3.45,0-1.24-.18-2.53-.37-3.82-.18-1.29-.37-2.58-.37-3.86,0-4.23,2.76-6.03,6.67-6.03h.97v2.53h-.83c-2.71,.05-3.63,1.47-3.63,3.96,0,1.1,.14,2.21,.32,3.31,.18,1.1,.32,2.25,.32,3.5,.05,2.94-1.24,4.42-3.31,4.97v.09c2.07,.51,3.36,2.07,3.31,5.01,0,1.24-.14,2.39-.32,3.5-.18,1.15-.32,2.21-.32,3.31,0,2.58,1.06,3.96,3.63,4h.83v2.53h-.97c-3.82,0-6.67-1.66-6.67-6.3,0-1.24,.18-2.53,.37-3.77s.37-2.48,.37-3.73c0-1.43-.46-3.4-3.73-3.4v-2.35Z" />
    <path d="M65.88,37.29c-3.27,0-3.73,1.98-3.73,3.4,0,1.24,.18,2.48,.37,3.73s.37,2.53,.37,3.77c0,4.65-2.9,6.3-6.67,6.3h-.97v-2.53h.78c2.58-.05,3.68-1.43,3.68-4,0-1.1-.18-2.16-.32-3.31-.18-1.1-.37-2.25-.37-3.5,0-2.94,1.29-4.51,3.31-5.01v-.09c-2.02-.55-3.31-2.02-3.31-4.97,0-1.24,.18-2.39,.37-3.5,.14-1.1,.32-2.21,.32-3.31,0-2.48-.97-3.91-3.63-3.96h-.83v-2.53h.92c3.91,0,6.72,1.79,6.72,6.03,0,1.29-.18,2.58-.37,3.86-.18,1.29-.37,2.58-.37,3.82,0,1.66,.46,3.45,3.73,3.45v2.35Z" />
    <path d="M26.08,47.68c-1.22,0-2.47-.28-3.74-.85-1.27-.57-2.33-1.51-3.2-2.82l2.31-2.45c.66,.91,1.38,1.58,2.16,2.02,.78,.44,1.57,.66,2.36,.66,1.36,0,2.37-.36,3.03-1.07,.66-.71,.99-1.91,.99-3.59v-11.25h-7.24v-3.3h11.19v14.89c0,1.41-.25,2.7-.75,3.88-.5,1.18-1.32,2.12-2.46,2.82s-2.69,1.05-4.64,1.05Z" />
    <path d="M45.39,47.68c-1.56,0-3.06-.28-4.49-.85-1.43-.57-2.7-1.37-3.81-2.41l2.31-2.69c.84,.75,1.79,1.35,2.86,1.82,1.07,.46,2.19,.7,3.37,.7,1.29,0,2.28-.25,2.96-.77,.68-.51,1.02-1.15,1.02-1.92,0-.66-.16-1.18-.48-1.56-.32-.39-.75-.72-1.31-1-.56-.28-1.21-.57-1.96-.87l-3.03-1.33c-.77-.32-1.52-.73-2.26-1.22-.74-.5-1.34-1.13-1.8-1.9-.46-.77-.7-1.7-.7-2.79,0-1.18,.33-2.24,.99-3.18,.66-.94,1.57-1.69,2.74-2.24,1.17-.56,2.5-.83,4-.83,1.36,0,2.66,.25,3.91,.77,1.25,.51,2.32,1.2,3.23,2.06l-2.04,2.52c-.75-.59-1.54-1.05-2.36-1.39-.83-.34-1.81-.51-2.94-.51-1.04,0-1.89,.23-2.55,.68s-.99,1.1-.99,1.94c0,.57,.18,1.03,.53,1.39,.35,.36,.82,.67,1.41,.94,.59,.26,1.21,.53,1.87,.8l2.92,1.26c1.41,.57,2.56,1.31,3.47,2.23s1.36,2.18,1.36,3.79c0,1.2-.33,2.3-.99,3.3-.66,1-1.6,1.8-2.82,2.4-1.22,.6-2.7,.9-4.42,.9Z" />
    <rect x=".36" y=".36" width="71.28" height="71.28" fill="none"/>
</svg>