<svg xmlns="http://www.w3.org/2000/svg" viewBox="0 0 72 72">
  <g>
    <path d="M15.69,41.3a23.65,23.65,0,0,1-.13,3A7.21,7.21,0,0,1,14.63,47,6.19,6.19,0,0,1,8.9,50V47.38a2.8,2.8,0,0,0,1.9-1.55,17.77,17.77,0,0,0,.37-4.69V21.56h4.52Z" />
    <path d="M32.81,44H28.33a6.78,6.78,0,0,1-.39-2.15,6.43,6.43,0,0,1-5.12,2.53,4.58,4.58,0,0,1-4.61-4.64,5.22,5.22,0,0,1,2.92-4.61,15.41,15.41,0,0,1,4.28-1.6c.7-.17,1.59-.37,2.66-.6Q27.43,30,24.83,30a6.34,6.34,0,0,0-4,1.72l-1.38-2a10,10,0,0,1,6.33-2.18q3.78,0,5.38,2.18a5,5,0,0,1,.83,1.73,15.59,15.59,0,0,1,.23,3.1v4.29A15.35,15.35,0,0,0,32.81,44Zm-4.74-7.14V35.29l-1.71.41q-4.08,1-4.08,3.43a2.41,2.41,0,0,0,.62,1.69,2,2,0,0,0,1.55.67,3.32,3.32,0,0,0,2.12-.76,3.43,3.43,0,0,0,1.12-1.6A6.92,6.92,0,0,0,28.07,36.82Z" />
    <path d="M49.67,28.31,42.79,44H39.88l-6.4-15.52,4.19-.77,4.16,11.2,4.42-11.2Z" />
    <path d="M64.39,44H59.91a6.78,6.78,0,0,1-.38-2.15,6.45,6.45,0,0,1-5.12,2.53A4.56,4.56,0,0,1,49.8,39.7a5.21,5.21,0,0,1,2.92-4.61A15.33,15.33,0,0,1,57,33.49c.71-.17,1.59-.37,2.66-.6Q59,30,56.41,30a6.34,6.34,0,0,0-4,1.72l-1.38-2a10,10,0,0,1,6.34-2.18q3.78,0,5.37,2.18a4.87,4.87,0,0,1,.84,1.73,16.58,16.58,0,0,1,.22,3.1v4.29A15.35,15.35,0,0,0,64.39,44Zm-4.74-7.14V35.29L58,35.7q-4.1,1-4.09,3.43a2.38,2.38,0,0,0,.63,1.69,2,2,0,0,0,1.55.67,3.3,3.3,0,0,0,2.11-.76,3.36,3.36,0,0,0,1.12-1.6A6.68,6.68,0,0,0,59.65,36.82Z" />
  </g>
  <rect x="0.36" y="0.36" width="71.28" height="71.28" fill="none"/>
</svg>
