<svg xmlns="http://www.w3.org/2000/svg" viewBox="0 0 72 72">
  <g>
    <path d="M53.14,5.26a14,14,0,1,0,14,14h0A14,14,0,0,0,53.14,5.26Zm11.3,9.46H55.09L46.75,8.9a12.14,12.14,0,0,1,16.72,3.89A11.62,11.62,0,0,1,64.44,14.72ZM41,19.27a12.4,12.4,0,0,1,.61-3.77l5.23,3.64-5.36,3.77A12.43,12.43,0,0,1,41,19.27Zm1.22,5.32L50,19.15l-7.74-5.37a12.14,12.14,0,0,1,3-3.74l9.32,6.5H65a12.57,12.57,0,0,1,.32,2.73,12.23,12.23,0,0,1-.25,2.49H54.51l-9.42,6.65A12.24,12.24,0,0,1,42.22,24.59Zm10.92,6.88a12.07,12.07,0,0,1-6.52-1.91l8.49-6h9.44A12.19,12.19,0,0,1,53.14,31.47Z"/>
    <path d="M21.46,15.79a1.75,1.75,0,0,1-.95-3.22,28.57,28.57,0,0,1,9-3.81,1.75,1.75,0,0,1,.81,3.41,25.17,25.17,0,0,0-7.86,3.34A1.77,1.77,0,0,1,21.46,15.79Z"/>
    <path d="M10.35,30.05A1.76,1.76,0,0,1,9.8,30a1.74,1.74,0,0,1-1.11-2.21A29,29,0,0,1,15.18,17a1.75,1.75,0,1,1,2.53,2.42A25.54,25.54,0,0,0,12,28.86,1.75,1.75,0,0,1,10.35,30.05Z"/>
    <path d="M11.65,50.33a1.75,1.75,0,0,1-1.58-1A28.86,28.86,0,0,1,7.35,34.58a1.75,1.75,0,0,1,3.49.28,25.3,25.3,0,0,0,2.39,13,1.77,1.77,0,0,1-.83,2.34A1.82,1.82,0,0,1,11.65,50.33Z"/>
    <path d="M17.32,58.43A1.75,1.75,0,0,1,16.11,58a29,29,0,0,1-3.06-3.4,1.75,1.75,0,0,1,2.77-2.13,25.49,25.49,0,0,0,2.7,3,1.75,1.75,0,0,1-1.2,3Z"/>
    <path d="M24,63.06a2.33,2.33,0,0,1-.37,0,1.75,1.75,0,0,1-1.34-2.08c1.34-6.18-1.2-9.08-2.16-10.18L20,50.57a1.75,1.75,0,1,1,2.68-2.26l.13.15c3.08,3.53,4.07,8,2.94,13.22A1.75,1.75,0,0,1,24,63.06Z"/>
    <path d="M43.9,63h-.17A1.76,1.76,0,0,1,42.15,61c.63-6.61,3.31-9,5.47-10.84A16.91,16.91,0,0,0,49,48.93a1.75,1.75,0,0,1,2.56,2.39,20.48,20.48,0,0,1-1.61,1.51c-2,1.71-3.8,3.32-4.29,8.54A1.76,1.76,0,0,1,43.9,63Z"/>
    <path d="M30.73,65.07a1.75,1.75,0,0,1-1.53-2.6c3-5.35,1.76-11.25-1-14.32L28,47.92c-2.53-2.83-5.4-6-5.4-10.64a13.32,13.32,0,0,1,1.06-5.23,1.75,1.75,0,1,1,3.22,1.36,10,10,0,0,0-.78,3.87c0,3.26,2.19,5.71,4.51,8.31l.21.23c3.45,3.87,5.36,11.25,1.42,18.35A1.76,1.76,0,0,1,30.73,65.07Z"/>
    <path d="M37.67,65.07a1.81,1.81,0,0,1-.51-.08A1.74,1.74,0,0,1,36,62.81c3.84-12.75.43-16.55-.86-18A14,14,0,0,0,34,43.75c-1.68-1.51-4-3.57-4-6.56a6.23,6.23,0,0,1,6-6.08,5.48,5.48,0,0,1,4.29,1.4c1.6,1.49,2.41,4,2.39,7.59v.11a1.75,1.75,0,0,1-3.5,0v-.13c0-3.31-.79-4.56-1.28-5a1.94,1.94,0,0,0-1.63-.47,2.74,2.74,0,0,0-2.72,2.59c0,1.42,1.5,2.76,2.83,4a16.76,16.76,0,0,1,1.41,1.35c2.58,2.87,5.56,8.21,1.6,21.33A1.75,1.75,0,0,1,37.67,65.07Z"/>
    <path d="M40.29,8.31a29.25,29.25,0,0,0-4.2-.3,1.75,1.75,0,0,0,0,3.5c.7,0,1.39,0,2.08.09A16.65,16.65,0,0,1,40.29,8.31Z"/>
    <path d="M36.4,19.09A17,17,0,0,1,36.7,16a1.79,1.79,0,0,0-.61-.12A21.13,21.13,0,0,0,16,43.33a1.76,1.76,0,0,0,1.67,1.22,2,2,0,0,0,.53-.08,1.76,1.76,0,0,0,1.14-2.2A17.62,17.62,0,0,1,36.09,19.34a1.73,1.73,0,0,0,.32,0C36.41,19.24,36.4,19.17,36.4,19.09Z"/>
    <path d="M37.09,23.87c-.33,0-.66-.05-1-.05a13.48,13.48,0,0,0-8.48,3,1.75,1.75,0,1,0,2.21,2.71,9.85,9.85,0,0,1,6.27-2.21,9.71,9.71,0,0,1,2.69.38A16.65,16.65,0,0,1,37.09,23.87Z"/>
    <path d="M53.65,35.94c0,.34,0,.67,0,1a17.55,17.55,0,0,1-1.3,6.65,1.75,1.75,0,0,0,1,2.28A1.72,1.72,0,0,0,54,46a1.75,1.75,0,0,0,1.62-1.09,20.85,20.85,0,0,0,1.56-8c0-.49,0-1,0-1.45A16.67,16.67,0,0,1,53.65,35.94Z"/>
    <path d="M45.46,34a9.95,9.95,0,0,1-3.35,11.14A1.75,1.75,0,0,0,44.24,48a13.47,13.47,0,0,0,5.06-8.32,13.71,13.71,0,0,0,.09-4.14A17.15,17.15,0,0,1,45.46,34Z"/>
    <path d="M65,36.8A32.35,32.35,0,0,0,64.58,32c0-.11,0-.22-.07-.33A16.6,16.6,0,0,1,61.36,34c.08.63.13,1.89.15,2.86,0,0,0,0,0,.06A25.51,25.51,0,0,1,51,57.54,1.75,1.75,0,0,0,50.57,60a1.72,1.72,0,0,0,1.41.73,1.78,1.78,0,0,0,1-.33A29,29,0,0,0,65,36.93S65,36.84,65,36.8Z"/>
  </g>
  <rect x="0.36" y="0.36" width="71.28" height="71.28" fill="none"/>
</svg>
