<svg xmlns="http://www.w3.org/2000/svg" viewBox="0 0 72 72">
  <g>
    <path d="M45.14,16,30.85,57.27H27.16L41.4,16Z" />
    <path d="M53.33,7.59H18.77c-5.71,0-9.55,3.82-9.55,9.51V55.15c0,5.68,3.84,9.5,9.55,9.5H53.33c5.71,0,9.55-3.82,9.55-9.5v-38C62.88,11.41,59,7.59,53.33,7.59Zm0,54.06H18.77c-4,0-6.55-2.49-6.55-6.5V39.21l14.65,8.53V43.87L15.73,37.14l11.14-6.69V26.58L12.22,35.07v-18c0-4,2.51-6.51,6.55-6.51H53.33c4,0,6.55,2.49,6.55,6.51V35l-14.6-8.55v4L56.42,37.1,45.28,43.83V47.7l14.6-8.46V55.15C59.88,59.16,57.37,61.65,53.33,61.65Z" />
  </g>
  <rect x="0.36" y="0.36" width="71.28" height="71.28" fill="none"/>
</svg>
