<svg xmlns="http://www.w3.org/2000/svg" viewBox="0 0 72 72">
  <g>
    <path d="M50.73,13a14,14,0,1,0,14,14h0A14,14,0,0,0,50.73,13ZM62,22.47H52.68l-8.33-5.83a12.13,12.13,0,0,1,16.71,3.89A11.34,11.34,0,0,1,62,22.47ZM38.59,27a12.41,12.41,0,0,1,.61-3.78l5.23,3.64-5.36,3.78A12.48,12.48,0,0,1,38.59,27Zm1.22,5.31,7.74-5.44-7.74-5.37a12.29,12.29,0,0,1,3-3.74l9.32,6.51h10.5A13.13,13.13,0,0,1,62.92,27a12.2,12.2,0,0,1-.25,2.48H52.1l-9.42,6.65A12.24,12.24,0,0,1,39.81,32.33Zm10.92,6.88a12.07,12.07,0,0,1-6.52-1.91l8.49-6h9.44A12.19,12.19,0,0,1,50.73,39.21Z"/>
    <path d="M30,56.68H14.9a.51.51,0,0,1-.36-.15.47.47,0,0,1-.14-.37c0-.75.09-3.23.14-3.52a1.69,1.69,0,0,1,.92-1.43c.75-.42,1.39-.75,1.94-1a11,11,0,0,0,1.67-.94,5,5,0,0,0,.4-1.79,7.08,7.08,0,0,0-.84-1.3l-.21-.29a2.76,2.76,0,0,1-.55-1.52,1.89,1.89,0,0,1,.07-.57,2.06,2.06,0,0,0,0-.48v-.11a8.63,8.63,0,0,1,.37-2.56,3.34,3.34,0,0,1,1.3-1.84,1.27,1.27,0,0,1,.94-.22,5.08,5.08,0,0,0,1.75-.19,4,4,0,0,1,3.06.93,2.55,2.55,0,0,1,1.15,1.84,6.77,6.77,0,0,0,.13,1.58,3.4,3.4,0,0,1,.08.45.77.77,0,0,0,.07.25,1.39,1.39,0,0,1,.14.7,3.6,3.6,0,0,1-.55,1.72l-.06.09a5.57,5.57,0,0,0-.93,1.65,5.06,5.06,0,0,0,.4,1.64,17.32,17.32,0,0,0,2,1.16c.46.24,1,.51,1.56.83a1.74,1.74,0,0,1,.93,1.4c.05.32.13,2.8.15,3.55a.5.5,0,0,1-.5.52Zm-14.6-1H29.49c0-1.36-.09-2.72-.11-2.89a.82.82,0,0,0-.42-.71l-1.55-.81A15.89,15.89,0,0,1,25.21,50c-.54-.3-.8-2.17-.78-2.48a5.47,5.47,0,0,1,1.1-2.15l.06-.09A2.56,2.56,0,0,0,26,44.12a.61.61,0,0,0,0-.3,1.66,1.66,0,0,1-.15-.5,2.53,2.53,0,0,0-.07-.39,7.58,7.58,0,0,1-.15-1.77,1.74,1.74,0,0,0-.76-1.08,3.07,3.07,0,0,0-2.23-.73,5.82,5.82,0,0,1-2.06.2.35.35,0,0,0-.31.08,2.28,2.28,0,0,0-.87,1.23A7.73,7.73,0,0,0,19,43.18v.11a2.75,2.75,0,0,1-.07.71,1.19,1.19,0,0,0,0,.34,1.78,1.78,0,0,0,.38,1l.18.25a4.49,4.49,0,0,1,1,1.82A4.58,4.58,0,0,1,19.68,50a10.79,10.79,0,0,1-1.83,1c-.53.28-1.17.6-1.9,1a.66.66,0,0,0-.41.62C15.5,53,15.45,54.32,15.41,55.68Zm10.35-6.52a.18.18,0,0,0,.07.05Z"/>
    <path d="M60,40.62V58.83a1.81,1.81,0,0,1-1.81,1.8H14a1.81,1.81,0,0,1-1.8-1.8V28s0-.06,0-.09h22c0-.27,0-.53,0-.81,0-.06,0-.12,0-.19H12.12L8.21,12.81A1.81,1.81,0,0,1,10,11.17H62.18A1.81,1.81,0,0,1,64,12.81l-1,3.57a16.55,16.55,0,0,1,2.21,3.26l1.73-6.26a1.83,1.83,0,0,0,0-.4,4.82,4.82,0,0,0-4.81-4.81H10A4.81,4.81,0,0,0,5.21,13a1.37,1.37,0,0,0,0,.4l4,14.38a2.64,2.64,0,0,0,0,.28V58.83a4.8,4.8,0,0,0,4.8,4.8H58.18A4.81,4.81,0,0,0,63,58.83V37.91A16.79,16.79,0,0,1,60,40.62Z"/>
    <path d="M56.66,45.41H52.82a.5.5,0,0,1-.5-.5.5.5,0,0,1,.5-.5h3.84a.5.5,0,0,1,.5.5A.5.5,0,0,1,56.66,45.41Z"/>
    <path d="M50.11,45.41H33.26a.5.5,0,0,1-.5-.5.5.5,0,0,1,.5-.5H50.11a.51.51,0,0,1,.5.5A.5.5,0,0,1,50.11,45.41Z"/>
    <path d="M56.66,56.25H50.49a.5.5,0,0,1-.5-.5.5.5,0,0,1,.5-.5h6.17a.5.5,0,0,1,.5.5A.5.5,0,0,1,56.66,56.25Z"/>
    <path d="M36.22,56.25h-3a.5.5,0,0,1-.5-.5.5.5,0,0,1,.5-.5h3a.51.51,0,0,1,.5.5A.5.5,0,0,1,36.22,56.25Z"/>
    <path d="M42,56.25h-3a.5.5,0,0,1-.5-.5.51.51,0,0,1,.5-.5h3a.51.51,0,0,1,.5.5A.5.5,0,0,1,42,56.25Z"/>
    <path d="M47.84,56.25h-3a.5.5,0,0,1-.5-.5.51.51,0,0,1,.5-.5h3a.5.5,0,0,1,.5.5A.5.5,0,0,1,47.84,56.25Z"/>
    <path d="M56.66,49H46.49a.5.5,0,0,1-.5-.5.5.5,0,0,1,.5-.5H56.66a.5.5,0,0,1,.5.5A.5.5,0,0,1,56.66,49Z"/>
    <path d="M41.13,49H33.26a.5.5,0,0,1-.5-.5.5.5,0,0,1,.5-.5h7.87a.5.5,0,0,1,.5.5A.5.5,0,0,1,41.13,49Z"/>
    <path d="M56.66,52.64H33.26a.5.5,0,0,1,0-1h23.4a.5.5,0,0,1,0,1Z"/>
    <path d="M27.74,33.25H17.16a1,1,0,1,1,0-2H27.74a1,1,0,0,1,0,2Z"/>
    <path d="M34.71,31.25H33.26a1,1,0,1,0,0,2h2.1A16.12,16.12,0,0,1,34.71,31.25Z"/>
    <path d="M37.62,37.19H33.26a.5.5,0,1,0,0,1h5.2C38.17,37.87,37.89,37.53,37.62,37.19Z"/>
    <path d="M41.47,40.8H33.26a.5.5,0,0,0-.5.5.5.5,0,0,0,.5.5h10A15.7,15.7,0,0,1,41.47,40.8Z"/>
  </g>
  <rect x="0.36" y="0.36" width="71.28" height="71.28" fill="none"/>
</svg>
