<?xml version="1.0" encoding="UTF-8"?>
<svg id="Layer_1" data-name="Layer 1" xmlns="http://www.w3.org/2000/svg" width="72" height="72" viewBox="0 0 72 72">
  <path d="M43.3,44.59h-22.91c-.63,0-1.15-.51-1.15-1.15,0-.01,0-.02,0-.03.05-1.7.14-4.72.21-5.1v-.08c.08-.97.66-1.83,1.53-2.28,1.14-.63,2.32-1.19,3.52-1.7.73-.29,1.44-.63,2.11-1.04.28-.71.46-1.45.52-2.21-.33-.6-.71-1.17-1.14-1.7-.14-.2-.25-.35-.31-.44-.52-.71-.82-1.55-.85-2.43,0-.31.03-.62.1-.92.05-.19.07-.39.06-.59v-.16c-.01-1.28.17-2.56.54-3.78.33-1.18,1.06-2.21,2.07-2.91.47-.33,1.05-.47,1.61-.39.81.06,1.61-.03,2.39-.25,1.7-.38,3.64.53,4.77,1.41,1.02.68,1.68,1.77,1.81,2.98-.02.74.04,1.47.18,2.19.04.19.08.38.13.68,0,.08.03.16.07.24.17.36.25.75.25,1.15-.05.96-.34,1.9-.85,2.71l-.09.14c-.52.67-.95,1.41-1.27,2.2.08.68.24,1.35.48,2,.76.46,1.55.85,2.36,1.19.98.44,2.09.94,3.28,1.59.88.46,1.46,1.34,1.56,2.33.07.46.16,3.4.21,5.18.02.63-.48,1.16-1.11,1.18-.01,0-.02,0-.03,0h-.03ZM21.58,42.29h20.54c-.06-1.78-.12-3.4-.15-3.68s-.08-.53-.38-.7c-1.09-.6-2.18-1.11-3.13-1.51-1.01-.4-1.98-.91-2.89-1.52h0c-1.08-.85-1.31-3.68-1.3-3.93,0-.67.5-1.6,1.7-3.32l.08-.13c.26-.44.42-.93.47-1.44,0-.07,0-.14,0-.2-.13-.27-.21-.56-.25-.85,0-.23-.07-.38-.1-.53-.17-.87-.25-1.75-.23-2.64,0-.2-.25-.68-.93-1.22-.79-.68-1.81-1.03-2.85-.97-1.01.28-2.06.38-3.1.3h-.08l-.09.06c-.53.36-.92.88-1.12,1.49-.32,1.05-.48,2.14-.47,3.24v.16c0,.38-.03.75-.12,1.12-.03.12-.05.25-.04.38.05.42.21.82.47,1.16.04.07.14.19.25.34,1.02,1.31,1.54,2.1,1.61,2.81s-.32,3.4-1.31,4.2c-.84.56-1.74,1.03-2.69,1.39-1.13.47-2.23,1-3.31,1.59-.33.19-.34.27-.38.59v.13c-.07.25-.13,1.9-.19,3.67Z"/>
  <rect x=".36" y=".36" width="71.28" height="71.28" fill="none"/>
  <path d="M62.32,24.93l-9.66-3.52v-5.66c0-.71-.44-1.35-1.11-1.6l-18.54-6.75c-.37-.14-.77-.14-1.14,0l-19.42,6.74c-.68.24-1.13.89-1.12,1.61v35.42c0,.94.76,1.7,1.7,1.7h9.08v9.08c0,.94.76,1.7,1.7,1.7h37.94c.94,0,1.7-.76,1.7-1.7V26.53c0-.71-.44-1.35-1.11-1.6ZM14.72,16.96l17.69-6.15,16.85,6.13v32.53H14.72V16.96ZM60.04,60.25H25.5v-7.38h25.46c.94,0,1.7-.76,1.7-1.7v-26.14l7.38,2.68v32.53Z"/>
</svg>