<svg xmlns="http://www.w3.org/2000/svg" viewBox="0 0 72 72">
  <g>
    <path d="M58.11,63.63H13.93a4.8,4.8,0,0,1-4.8-4.8V28a1.5,1.5,0,0,1,3,0V58.83a1.81,1.81,0,0,0,1.8,1.8H58.11a1.81,1.81,0,0,0,1.8-1.8V28a1.5,1.5,0,1,1,3,0V58.83A4.8,4.8,0,0,1,58.11,63.63Z"/>
    <path d="M61.41,29a1.41,1.41,0,0,1-.4-.05,1.5,1.5,0,0,1-1-1.85L63.9,12.81a1.8,1.8,0,0,0-1.79-1.64H9.93a1.8,1.8,0,0,0-1.79,1.64l3.93,14.24a1.5,1.5,0,1,1-2.89.8l-4-14.47a1.83,1.83,0,0,1,0-.4,4.81,4.81,0,0,1,4.8-4.81H62.11A4.81,4.81,0,0,1,66.91,13a1.83,1.83,0,0,1,0,.4l-4,14.47A1.5,1.5,0,0,1,61.41,29Z"/>
    <path d="M29.93,56.68H14.82a.51.51,0,0,1-.36-.15.47.47,0,0,1-.14-.37c0-.75.09-3.23.14-3.52a1.69,1.69,0,0,1,.92-1.43c.75-.42,1.39-.75,1.94-1A11,11,0,0,0,19,49.24a5.18,5.18,0,0,0,.41-1.79,7.75,7.75,0,0,0-.85-1.3l-.21-.29a2.76,2.76,0,0,1-.55-1.52,2,2,0,0,1,.07-.58,1.88,1.88,0,0,0,0-.47v-.11a8.63,8.63,0,0,1,.37-2.56,3.39,3.39,0,0,1,1.3-1.84,1.26,1.26,0,0,1,.94-.22,5.07,5.07,0,0,0,1.75-.19,4,4,0,0,1,3.06.93,2.55,2.55,0,0,1,1.15,1.84,6.77,6.77,0,0,0,.13,1.58c0,.13.06.26.09.45a.6.6,0,0,0,.06.25,1.39,1.39,0,0,1,.14.7,3.71,3.71,0,0,1-.54,1.72l-.07.09a5.57,5.57,0,0,0-.93,1.65,5.06,5.06,0,0,0,.4,1.64,18.19,18.19,0,0,0,2,1.16c.46.24,1,.51,1.56.83a1.74,1.74,0,0,1,.93,1.4c0,.32.13,2.8.15,3.55a.5.5,0,0,1-.5.52Zm-14.6-1H29.41c0-1.36-.09-2.72-.11-2.89a.8.8,0,0,0-.42-.71l-1.55-.81A16.52,16.52,0,0,1,25.13,50c-.54-.3-.8-2.17-.78-2.48a5.47,5.47,0,0,1,1.1-2.15l.06-.09a2.56,2.56,0,0,0,.38-1.16.61.61,0,0,0-.05-.3,1.44,1.44,0,0,1-.14-.5c0-.17-.05-.28-.08-.39a9.05,9.05,0,0,1-.15-1.77,1.74,1.74,0,0,0-.76-1.08,3.05,3.05,0,0,0-2.23-.73,5.82,5.82,0,0,1-2.06.2.35.35,0,0,0-.31.08,2.33,2.33,0,0,0-.87,1.23,7.73,7.73,0,0,0-.34,2.32v.11a2.75,2.75,0,0,1-.07.71,1.19,1.19,0,0,0,0,.34,1.78,1.78,0,0,0,.38,1l.18.25a4.49,4.49,0,0,1,1,1.82A4.51,4.51,0,0,1,19.6,50a11.06,11.06,0,0,1-1.82,1c-.54.28-1.17.6-1.91,1a.68.68,0,0,0-.41.62C15.42,53,15.37,54.32,15.33,55.68Zm10.35-6.52.07.05Z"/>
    <path d="M61.41,28H10.63a.5.5,0,0,1-.5-.5.5.5,0,0,1,.5-.5H61.41a.5.5,0,0,1,.5.5A.5.5,0,0,1,61.41,28Z"/>
    <path d="M56.58,33.25H33.18a1,1,0,0,1,0-2h23.4a1,1,0,0,1,0,2Z"/>
    <path d="M56.58,38.19H50a.5.5,0,0,1,0-1h6.62a.5.5,0,0,1,0,1Z"/>
    <path d="M43.83,38.19H40.41a.5.5,0,0,1,0-1h3.42a.5.5,0,0,1,0,1Z"/>
    <path d="M36.92,38.19H33.18a.5.5,0,0,1,0-1h3.74a.5.5,0,0,1,0,1Z"/>
    <path d="M56.58,41.8H44a.5.5,0,0,1-.5-.5.5.5,0,0,1,.5-.5H56.58a.5.5,0,0,1,.5.5A.5.5,0,0,1,56.58,41.8Z"/>
    <path d="M41.7,41.8H33.18a.5.5,0,0,1-.5-.5.5.5,0,0,1,.5-.5H41.7a.51.51,0,0,1,.5.5A.5.5,0,0,1,41.7,41.8Z"/>
    <path d="M56.58,45.41H50.41a.5.5,0,0,1-.5-.5.5.5,0,0,1,.5-.5h6.17a.5.5,0,0,1,.5.5A.5.5,0,0,1,56.58,45.41Z"/>
    <path d="M47.7,45.41H33.18a.5.5,0,0,1-.5-.5.5.5,0,0,1,.5-.5H47.7a.51.51,0,0,1,.5.5A.5.5,0,0,1,47.7,45.41Z"/>
    <path d="M56.58,56.25H50.41a.5.5,0,0,1-.5-.5.5.5,0,0,1,.5-.5h6.17a.5.5,0,0,1,.5.5A.5.5,0,0,1,56.58,56.25Z"/>
    <path d="M47.7,56.25H33.18a.5.5,0,0,1-.5-.5.5.5,0,0,1,.5-.5H47.7a.51.51,0,0,1,.5.5A.5.5,0,0,1,47.7,56.25Z"/>
    <path d="M56.58,49H46.41a.5.5,0,0,1-.5-.5.5.5,0,0,1,.5-.5H56.58a.5.5,0,0,1,.5.5A.5.5,0,0,1,56.58,49Z"/>
    <path d="M41.05,49H33.18a.5.5,0,0,1-.5-.5.5.5,0,0,1,.5-.5h7.87a.5.5,0,0,1,.5.5A.5.5,0,0,1,41.05,49Z"/>
    <path d="M56.58,52.64H33.18a.5.5,0,1,1,0-1h23.4a.5.5,0,0,1,0,1Z"/>
    <path d="M27.66,33.25H17.08a1,1,0,0,1,0-2H27.66a1,1,0,0,1,0,2Z"/>
  </g>
  <rect x="0.36" y="0.36" width="71.28" height="71.28" fill="none"/>
</svg>
