<?xml version="1.0" encoding="UTF-8"?>
<svg xmlns="http://www.w3.org/2000/svg" viewBox="0 0 72 72">
  <path d="M63.22,63.3h-11.81v-3h10.27c-.13-4.51-.29-9.08-.36-9.63v-.1c-.13-.78-.24-1.52-1.32-2.1-2.65-1.44-5.67-2.56-8.32-3.54-2.81-1.04-5.03-1.87-6.34-2.86-1.74-1.25-2.47-6.68-2.43-7.61,.06-1.23,1.05-3.15,3.4-6.62l.18-.27c.41-.62,1.16-2.36,1.16-3.6,0-.59-.05-.7-.15-.92-.17-.39-.33-.79-.44-1.55-.07-.52-.15-.86-.22-1.19-.21-.99-.4-1.84-.47-5.44-.02-.93-.93-2.21-2.38-3.35-2.22-1.74-5.05-2.68-6.88-2.27-3.86,.86-5.42,.71-6.35,.63q-.52-.05-.98,.24c-1.15,.73-2.36,2.43-2.69,3.8-1.04,4.22-1.04,5.39-1.03,7.15v.35c0,1.15-.1,1.66-.22,2.17-.07,.28-.11,.47-.11,1.05,0,1.12,.62,2.19,1.16,3,.11,.16,.31,.43,.57,.77,1.99,2.66,3.09,4.34,3.2,5.58,.12,1.45-.82,6.93-2.42,8.16-1.27,.97-3.58,1.72-6.49,2.67-3.03,.98-6.47,2.1-9.2,3.64-1.12,.63-1.2,1.19-1.3,1.95l-.04,.26c-.07,.55-.23,5.11-.36,9.62h10.31v3H9.29c-.4,0-.79-.16-1.07-.45-.28-.29-.44-.68-.42-1.09,.07-2.48,.3-10.64,.44-11.54l.03-.21c.13-.98,.38-2.8,2.8-4.16,3-1.69,6.59-2.86,9.75-3.88,2.38-.77,4.62-1.5,5.53-2.15,.55-.77,1.41-4.39,1.31-5.57-.14-.73-2-3.21-2.61-4.03-.3-.4-.54-.72-.66-.9-.46-.68-1.66-2.49-1.66-4.66,0-.87,.08-1.29,.2-1.75,.08-.31,.14-.59,.14-1.47v-.34c0-1.91,0-3.29,1.12-7.87,.52-2.12,2.2-4.48,4-5.62,1.24-.78,1.91-.78,2.86-.69,.75,.07,2.02,.19,5.41-.57,3.33-.74,7.14,1.07,9.39,2.84,2.23,1.76,3.49,3.76,3.52,5.65,.06,3.31,.22,4.03,.4,4.87,.08,.39,.17,.79,.26,1.4,.06,.41,.12,.55,.21,.76,.23,.52,.41,1,.41,2.14,0,2.02-1.02,4.3-1.66,5.26l-.19,.28c-2.59,3.82-2.86,4.87-2.89,5.1-.05,.94,.73,4.27,1.24,5.05,.96,.72,3.2,1.56,5.58,2.44,2.75,1.02,5.87,2.18,8.71,3.72,2.38,1.3,2.69,3.32,2.83,4.29,.15,.99,.38,9.15,.45,11.63,.01,.4-.14,.8-.42,1.09-.28,.29-.67,.45-1.08,.45Zm-16.27-23.75h0Z" />
  <path d="M36.48,66.92c-6.61,0-11.99-5.38-11.99-11.99s5.38-11.99,11.99-11.99,11.99,5.38,11.99,11.99-5.38,11.99-11.99,11.99Zm0-21.97c-5.51,0-9.99,4.48-9.99,9.99s4.48,9.99,9.99,9.99,9.99-4.48,9.99-9.99-4.48-9.99-9.99-9.99Z" />
  <path d="M38.22,54.91l3.58-3.58c.47-.47,.47-1.23,0-1.7s-1.23-.47-1.7,0l-3.58,3.58-3.58-3.58c-.47-.47-1.23-.47-1.7,0s-.47,1.23,0,1.7l3.58,3.58-3.58,3.58c-.47,.47-.47,1.23,0,1.7,.23,.23,.54,.35,.85,.35s.61-.12,.85-.35l3.58-3.58,3.58,3.58c.23,.23,.54,.35,.85,.35s.61-.12,.85-.35c.47-.47,.47-1.23,0-1.7l-3.58-3.58Z" />
  <rect x=".36" y=".36" width="71.28" height="71.28" fill="none"/>
</svg>