<?xml version="1.0" encoding="UTF-8"?>
<svg xmlns="http://www.w3.org/2000/svg" viewBox="0 0 72 72">
    <path d="M57.46,8.2H14.81c-4,0-7.26,3.26-7.26,7.26V56.74c0,4,3.26,7.26,7.26,7.26l42.07-.05,.43,.04s.1,0,.15,0c4,0,7.26-3.26,7.26-7.26V15.46c0-4-3.26-7.26-7.26-7.26Zm.07,52.8l-.42-.04s-.08,0-.15,0l-42.15,.05c-2.35,0-4.26-1.91-4.26-4.26v-11.13h5.3c.68,2.88,3.27,5.04,6.36,5.04,3.61,0,6.54-2.93,6.54-6.54s-2.93-6.54-6.54-6.54c-3.09,0-5.68,2.16-6.36,5.04h-5.3v-7.25H28.01c.4,0,.78-.16,1.06-.44l6.64-6.64c1.03,.68,2.26,1.07,3.58,1.07,3.61,0,6.54-2.93,6.54-6.54s-2.93-6.54-6.54-6.54-6.54,2.93-6.54,6.54c0,1.2,.33,2.32,.89,3.29l-6.26,6.26H10.55V15.46c0-2.35,1.91-4.26,4.26-4.26H31.88l-6.31,6.31c-.99-.6-2.15-.96-3.39-.96-3.61,0-6.54,2.93-6.54,6.54s2.93,6.54,6.54,6.54,6.54-2.93,6.54-6.54c0-1.28-.37-2.47-1.01-3.48l8.41-8.41h21.34c2.35,0,4.26,1.91,4.26,4.26v14.52h-13.93c-.4,0-.78,.16-1.06,.44l-3.9,3.9c-1.02-.66-2.24-1.05-3.54-1.05-3.61,0-6.54,2.93-6.54,6.54s2.93,6.54,6.54,6.54,6.54-2.93,6.54-6.54c0-1.21-.34-2.35-.92-3.32l3.5-3.5h13.31v3h-10.22c-.83,0-1.5,.67-1.5,1.5v7.18c-2.88,.68-5.04,3.27-5.04,6.36,0,3.61,2.93,6.54,6.54,6.54s6.54-2.93,6.54-6.54c0-3.09-2.16-5.68-5.04-6.36v-5.68h8.72v17.76c0,2.33-1.87,4.22-4.19,4.26ZM18.67,44.11c0-1.95,1.59-3.54,3.54-3.54s3.54,1.59,3.54,3.54-1.59,3.54-3.54,3.54-3.54-1.59-3.54-3.54Zm17.08-21.29c0-1.95,1.59-3.54,3.54-3.54s3.54,1.59,3.54,3.54-1.59,3.54-3.54,3.54-3.54-1.59-3.54-3.54Zm-10.03,.27c0,1.95-1.59,3.54-3.54,3.54s-3.54-1.59-3.54-3.54,1.59-3.54,3.54-3.54,3.54,1.59,3.54,3.54Zm17.1,16.72c0,1.95-1.59,3.54-3.54,3.54s-3.54-1.59-3.54-3.54,1.59-3.54,3.54-3.54c.97,0,1.85,.39,2.49,1.03,.03,.04,.04,.09,.08,.12,.02,.02,.04,.02,.05,.03,.56,.63,.92,1.45,.92,2.36Zm8.67,7.67c1.95,0,3.54,1.59,3.54,3.54s-1.59,3.54-3.54,3.54-3.54-1.59-3.54-3.54,1.59-3.54,3.54-3.54Z" />
    <rect x=".36" y=".36" width="71.28" height="71.28" fill="none"/>
</svg>