<?xml version="1.0" encoding="UTF-8"?>
<svg xmlns="http://www.w3.org/2000/svg" viewBox="0 0 72 72">
  <path d="M44.53,56.44c-.32,0-.64-.12-.88-.37l-5.73-5.73c-.49-.49-.49-1.28,0-1.77s1.28-.49,1.77,0l4.85,4.85,10.21-10.21c.49-.49,1.28-.49,1.77,0s.49,1.28,0,1.77l-11.09,11.09c-.24,.24-.56,.37-.88,.37Z" />
  <path d="M53.27,62.94H18.71c-5.71,0-9.54-3.82-9.54-9.5V18.39c0-5.68,3.84-9.5,9.54-9.5H53.27c5.71,0,9.54,3.82,9.54,9.5V53.44c0,5.68-3.84,9.5-9.54,9.5ZM18.71,11.88c-4.04,0-6.54,2.49-6.54,6.5V53.44c0,4.01,2.51,6.5,6.54,6.5H53.27c4.04,0,6.54-2.49,6.54-6.5V18.39c0-4.01-2.51-6.5-6.54-6.5H18.71Z" />
  <path d="M43.68,32.08c-2.26,0-4.1-1.84-4.1-4.1s1.84-4.1,4.1-4.1,4.1,1.84,4.1,4.1-1.84,4.1-4.1,4.1Zm0-6.7c-1.43,0-2.6,1.17-2.6,2.6s1.17,2.6,2.6,2.6,2.6-1.17,2.6-2.6-1.17-2.6-2.6-2.6Z" />
  <path d="M24.37,55h-6.5c-.69,0-1.25-.56-1.25-1.25v-6.13c0-.33,.13-.65,.37-.88l15.66-15.66c-.29-1.02-.43-2.06-.43-3.1,0-6.32,5.15-11.47,11.47-11.47s11.47,5.15,11.47,11.47-5.15,11.47-11.47,11.47c-.96,0-1.92-.12-2.87-.37l-5.04,5.05c-.23,.23-.55,.37-.88,.37h-2.27v2.25c.01,.33-.12,.65-.36,.89-.23,.24-.55,.37-.88,.37h-2.26v2.24c.01,.33-.12,.65-.35,.89-.23,.24-.55,.37-.89,.37h-2.26v2.25c0,.33-.13,.65-.36,.89-.23,.23-.55,.37-.88,.37Zm-5.25-2.5h4v-2.25c0-.33,.13-.65,.36-.89,.23-.23,.55-.37,.88-.37h2.26v-2.25c-.01-.33,.12-.65,.36-.89,.23-.24,.55-.37,.88-.37h2.26v-2.24c-.01-.33,.12-.65,.35-.89,.23-.24,.55-.37,.89-.37h3.01l5.2-5.21c.33-.34,.83-.45,1.28-.3,.93,.31,1.88,.46,2.83,.46,4.95,0,8.97-4.02,8.97-8.97s-4.02-8.97-8.97-8.97-8.97,4.02-8.97,8.97c0,1.01,.18,2.03,.53,3.02,.16,.46,.05,.96-.29,1.3l-15.83,15.83v4.36Z" />
  <rect x=".36" y=".36" width="71.28" height="71.28" fill="none"/>
</svg>