<?xml version="1.0" encoding="UTF-8"?>
<svg xmlns="http://www.w3.org/2000/svg" viewBox="0 0 72 72">
    <path d="M45.43,50.63H19.22c-.27,0-.53-.11-.72-.3s-.29-.46-.28-.73c.04-1.14,.16-4.9,.23-5.39l.02-.11c.07-.52,.22-1.59,1.59-2.37,1.46-.82,2.86-1.44,3.99-1.93,1.07-.47,1.99-.87,2.53-1.26,.28-.45,.7-2.26,.65-2.83-.09-.36-1.04-1.63-1.36-2.05-.16-.22-.29-.39-.36-.49-.4-.59-.92-1.51-.92-2.6,0-.49,.05-.73,.11-.98,.04-.16,.07-.29,.07-.74v-.19c0-1,0-1.79,.6-4.26,.29-1.18,1.23-2.49,2.23-3.13,.71-.45,1.12-.45,1.66-.4,.39,.04,1.05,.1,2.83-.3,1.84-.41,3.95,.58,5.19,1.55,1.24,.98,1.94,2.1,1.96,3.17,.03,1.51,.26,2.58,.45,3.44,.13,.58,.23,1.03,.23,1.47,0,1.12-.56,2.39-.92,2.93l-.1,.15c-1.33,1.96-1.49,2.52-1.51,2.64-.02,.43,.36,2.09,.62,2.54,.58,.43,1.62,.9,2.81,1.44,1.12,.5,2.38,1.08,3.73,1.81,1.36,.74,1.53,1.89,1.62,2.44,.08,.54,.21,4.3,.24,5.44,0,.27-.09,.53-.28,.73s-.45,.3-.72,.3Zm-25.17-2h24.14c-.07-1.96-.14-3.85-.18-4.12-.07-.47-.12-.76-.6-1.03-1.29-.7-2.52-1.26-3.6-1.75-1.39-.63-2.49-1.12-3.24-1.7h0c-.99-.76-1.39-3.7-1.36-4.23,.04-.71,.56-1.73,1.85-3.64l.09-.14c.2-.31,.59-1.2,.59-1.82,0-.22-.08-.6-.18-1.04-.2-.9-.47-2.12-.5-3.83,0-.35-.38-1-1.2-1.64-1.14-.9-2.59-1.38-3.51-1.17-2.1,.47-2.95,.39-3.46,.34-.08,0-.14-.02-.2-.01,0,0-.06,.02-.2,.11-.57,.36-1.19,1.24-1.35,1.92-.55,2.23-.55,2.85-.55,3.77v.19c0,.64-.06,.92-.12,1.21-.03,.14-.05,.23-.05,.52,0,.61,.41,1.23,.59,1.49,.06,.08,.16,.22,.3,.4,1.09,1.45,1.69,2.38,1.75,3.09,.07,.79-.41,3.8-1.37,4.53-.72,.55-1.73,.99-3.01,1.55-1.15,.5-2.44,1.07-3.81,1.84-.51,.29-.54,.51-.6,.9l-.02,.14c-.03,.26-.11,2.15-.18,4.11Z" />
    <path d="M54.77,24.39h-10.53c-.55,0-1-.45-1-1s.45-1,1-1h10.53c.55,0,1,.45,1,1s-.45,1-1,1Z" />
    <path d="M54.77,28.82h-10.53c-.55,0-1-.45-1-1s.45-1,1-1h10.53c.55,0,1,.45,1,1s-.45,1-1,1Z" />
    <path d="M54.77,33.26h-10.53c-.55,0-1-.45-1-1s.45-1,1-1h10.53c.55,0,1,.45,1,1s-.45,1-1,1Z" />
    <path d="M54.77,37.69h-10.53c-.55,0-1-.45-1-1s.45-1,1-1h10.53c.55,0,1,.45,1,1s-.45,1-1,1Z" />
    <path d="M35.96,63.48c-15.31,0-27.76-12.45-27.76-27.76S20.65,7.96,35.96,7.96s27.76,12.45,27.76,27.76-12.45,27.76-27.76,27.76Zm0-52.52c-13.65,0-24.76,11.11-24.76,24.76s11.11,24.76,24.76,24.76,24.76-11.11,24.76-24.76-11.11-24.76-24.76-24.76Z" />
    <rect x=".36" y=".36" width="71.28" height="71.28" fill="none"/>
</svg>