<?xml version="1.0" encoding="UTF-8"?>
<svg xmlns="http://www.w3.org/2000/svg" viewBox="0 0 72 72">
    <path d="M63,54.46h-11.74c-.81,0-1.48-.65-1.5-1.46-.07-2.71-.19-6.74-.25-7.21-.08-.5-.11-.71-.53-.94-1.49-.81-2.92-1.45-4.17-2.02-1.64-.74-2.93-1.32-3.84-2.02h0c-1.4-1.07-1.73-4.89-1.71-5.2,.05-.89,.67-2.13,2.21-4.41l.11-.16c.21-.32,.63-1.29,.63-1.93,0-.21-.1-.66-.2-1.14-.23-1.06-.55-2.51-.59-4.52,0-.27-.35-.93-1.26-1.65-1.24-.97-2.84-1.52-3.81-1.3-2.49,.56-3.52,.46-4.13,.4-.05,0-.09,0-.12-.01-.04,.02-.08,.05-.13,.08-.59,.37-1.26,1.32-1.43,2.03-.63,2.56-.63,3.26-.63,4.31v.22c0,.78-.07,1.13-.15,1.49-.04,.15-.05,.23-.05,.52,0,.61,.44,1.27,.63,1.55,.06,.09,.18,.25,.33,.45,1.33,1.78,2.03,2.85,2.1,3.77,.08,1-.5,4.64-1.73,5.57-.87,.67-2.06,1.19-3.57,1.85-1.33,.58-2.83,1.24-4.41,2.13-.45,.26-.47,.38-.53,.8l-.02,.17c-.05,.45-.17,4.48-.24,7.19-.02,.81-.69,1.46-1.5,1.46H9.06c-.83,0-1.5-.67-1.5-1.5V16.44c0-5.68,3.84-9.5,9.54-9.5H54.96c5.71,0,9.54,3.82,9.54,9.5V52.96c0,.83-.67,1.5-1.5,1.5Zm-10.28-3h8.78V16.44c0-4.01-2.51-6.5-6.54-6.5H17.1c-4.04,0-6.54,2.49-6.54,6.5V51.46h8.73c.07-2.53,.17-5.65,.24-6.11l.02-.12c.09-.66,.27-2.02,2.02-3.01,1.71-.97,3.36-1.69,4.68-2.26,1.18-.52,2.22-.97,2.82-1.39,.3-.58,.7-2.37,.69-2.97-.18-.5-1.18-1.83-1.52-2.28-.19-.26-.35-.47-.43-.59-.49-.73-1.13-1.86-1.13-3.22,0-.6,.06-.91,.14-1.22,.04-.17,.07-.3,.07-.78v-.22c0-1.18,0-2.12,.71-5.04,.36-1.45,1.51-3.06,2.74-3.84,.92-.58,1.49-.58,2.14-.52,.44,.04,1.17,.11,3.19-.34,2.26-.51,4.82,.69,6.32,1.87,1.53,1.2,2.38,2.6,2.41,3.95,.03,1.72,.3,2.95,.52,3.93,.15,.69,.27,1.24,.27,1.78,0,1.38-.69,2.94-1.13,3.59l-.12,.18c-1.46,2.16-1.68,2.8-1.71,2.95,0,.42,.38,2.12,.65,2.67,.66,.47,1.82,.99,3.15,1.59,1.3,.59,2.78,1.26,4.37,2.12,1.73,.94,1.96,2.44,2.05,3.08,.08,.51,.18,3.64,.25,6.17Zm-10.11-13.16s0,0,0,0c0,0,0,0,0,0Z" />
    <path d="M48.6,54.32c.2,.03,.41-.04,.55-.18s.21-.35,.18-.55c-.21-1.41-2.09-3.24-4.11-3.4-.26-.02-.54-.02-.83,0l.64-.96c.4-.59,.32-1.39-.19-1.89l-1.45-1.44c-.29-.29-.68-.44-1.07-.44-.29,0-.58,.08-.83,.25l-1.96,1.3c-.31-.15-.64-.29-.97-.4l-.46-2.3c-.14-.7-.76-1.2-1.48-1.2h-2.05c-.72,0-1.34,.5-1.48,1.2l-.46,2.3c-.33,.12-.66,.25-.97,.4l-1.96-1.3c-.26-.17-.55-.25-.84-.25-.39,0-.77,.15-1.07,.44l-1.45,1.44c-.51,.51-.59,1.3-.19,1.89l1.31,1.95c-.15,.31-.29,.63-.4,.97l-2.31,.46c-.7,.14-1.21,.76-1.21,1.47v2.04c0,.71,.51,1.33,1.21,1.47l2.31,.46c.12,.33,.25,.65,.4,.97l-1.31,1.95c-.4,.59-.32,1.39,.19,1.89l1.45,1.44c.29,.29,.68,.44,1.07,.44,.29,0,.58-.08,.83-.25l1.96-1.3c.31,.15,.64,.29,.97,.4l.46,2.3c.14,.7,.76,1.21,1.48,1.21h2.05c.72,0,1.34-.51,1.48-1.21l.46-2.3c.33-.12,.66-.25,.97-.4l1.96,1.3c.25,.17,.55,.25,.83,.25,.39,0,.78-.15,1.07-.44l1.45-1.44c.51-.51,.59-1.3,.19-1.89l-.58-.87c.1,0,.21,.02,.31,.02,2.23,0,3.81-2.05,3.88-2.15,.14-.18,.17-.42,.08-.64-.09-.21-.28-.36-.51-.39l-3.01-.42-.41-1.37c.44-.58,.74-.97,.93-1.25l2.86,.42Zm-3.61-1.55s-.03,.04-.05,.06c-.08,.1-1.37,1.81-1.37,1.81-.12,.16-.16,.38-.1,.57l.62,2.08c.07,.24,.28,.42,.53,.45l2.13,.3c-.57,.44-1.37,.87-2.26,.77-.77-.09-1.55-.38-1.99-.75-2.3-1.93-4.43-2.03-4.55-2.04h-7.41c-.28,0-.51,.18-.6,.42-.08,.15-.1,.33-.04,.5,.23,.7,.58,1.34,1.05,1.91,1.14,1.4,2.83,2.2,4.64,2.2s3.47-.79,4.61-2.18c.16-.19,.3-.39,.43-.59,.34,.21,.69,.46,1.05,.76,.16,.14,.35,.27,.56,.38,.04,.13,.1,.26,.18,.37l1.41,2.05-1.43,1.43-2.06-1.4c-.25-.17-.54-.25-.83-.25-.22,0-.44,.05-.65,.15-.26,.12-.53,.24-.8,.33-.5,.17-.87,.59-.97,1.11l-.46,2.47h-2.03l-.46-2.47c-.1-.52-.47-.94-.97-1.11-.28-.1-.54-.21-.8-.33-.21-.1-.43-.15-.65-.15-.29,0-.58,.08-.83,.25l-2.05,1.39-1.44-1.43,1.4-2.04c.29-.44,.33-1,.1-1.47-.13-.26-.24-.52-.33-.8-.17-.5-.6-.86-1.12-.97l-2.67-.46v-2.02s2.67-.45,2.67-.45c.52-.1,.94-.47,1.12-.97,.1-.27,.21-.54,.33-.8,.23-.47,.19-1.03-.1-1.47l-1.43-2.07,1.43-1.43,2.08,1.43c.25,.17,.54,.25,.83,.25,.22,0,.44-.05,.65-.15,.26-.12,.53-.24,.8-.33,.5-.17,.87-.59,.97-1.11l.46-2.61h2.03s.46,2.61,.46,2.61c.1,.51,.47,.94,.97,1.11,.28,.1,.54,.21,.8,.33,.21,.1,.43,.15,.65,.15,.29,0,.58-.08,.83-.25l2.09-1.44,1.44,1.43-1.8,2.59c-.19,.12-.37,.24-.54,.39-.28,.25-.56,.46-.84,.64-.29-.48-.65-.92-1.07-1.3-1.1-1-2.53-1.56-4.02-1.56s-3.02,.59-4.13,1.66c-.71,.68-1.25,1.54-1.55,2.47-.03,.1-.04,.21-.02,.31,0,.01,0,.03,0,.04,0,.36,.29,.65,.65,.65h6.72c.31,.02,2.9,.09,5.15-1.96,.75-.68,2.05-.84,2.73-.79,.95,.08,1.9,.73,2.45,1.39l-2.01-.3c-.21-.03-.43,.04-.57,.2Zm-5.53,4.93c-.08,.12-.17,.24-.26,.35-.89,1.08-2.21,1.71-3.62,1.71s-2.74-.63-3.63-1.73c-.19-.23-.35-.47-.48-.72h6.47s.63,.03,1.53,.39Zm.06-5.17c-1.22,.46-2.2,.41-2.22,.41-.02,0-.03,0-.05,0h-5.83c.24-.46,.54-.88,.92-1.25,.88-.84,2.03-1.3,3.24-1.3s2.29,.43,3.15,1.22c.3,.27,.56,.58,.78,.92Z" />
    <rect x=".36" y=".36" width="71.28" height="71.28" fill="none"/>
</svg>