<?xml version="1.0" encoding="UTF-8"?>
<svg xmlns="http://www.w3.org/2000/svg" viewBox="0 0 72 72">
      <path d="M50.03,44.45H30.48c-.22,0-.42-.09-.58-.24-.15-.16-.23-.37-.23-.58,.03-1.09,.12-3.67,.18-4.03,.06-.47,.18-1.3,1.23-1.89,1.09-.62,2.14-1.08,2.99-1.44,.79-.34,1.47-.64,1.87-.93,.2-.34,.51-1.66,.48-2.07-.07-.26-.77-1.2-1-1.5-.12-.16-.22-.29-.27-.37-.19-.29-.7-1.05-.7-1.97,0-.37,.04-.56,.08-.75,.03-.11,.05-.21,.05-.54v-.14c0-.75,0-1.34,.45-3.19,.22-.89,.93-1.89,1.69-2.37,.55-.34,.87-.35,1.27-.31,.29,.03,.77,.07,2.1-.22,1.4-.31,2.98,.44,3.92,1.17,.94,.74,1.47,1.6,1.48,2.41,.02,1.12,.2,1.91,.34,2.55,.1,.44,.17,.78,.17,1.11,0,.85-.43,1.81-.7,2.21l-.08,.12c-.98,1.44-1.1,1.86-1.12,1.95-.02,.3,.26,1.51,.45,1.85,.43,.32,1.2,.66,2.08,1.06,.83,.38,1.78,.8,2.79,1.35,1.04,.56,1.18,1.47,1.23,1.86,.06,.4,.15,2.97,.18,4.06,0,.22-.07,.43-.23,.58-.15,.16-.36,.24-.58,.24Zm-18.73-1.6h17.9c-.05-1.44-.11-2.81-.13-3.01-.05-.34-.08-.54-.42-.73-.96-.52-1.88-.94-2.69-1.3-1.04-.47-1.86-.84-2.43-1.28h0c-.8-.61-1.05-2.9-1.04-3.2,.03-.54,.42-1.31,1.39-2.74l.07-.1c.15-.22,.43-.88,.43-1.32,0-.16-.06-.44-.13-.76-.15-.67-.35-1.59-.38-2.87,0-.25-.28-.71-.87-1.18-.83-.65-1.91-1.01-2.58-.87-1.57,.35-2.21,.29-2.6,.25-.05,0-.09,0-.13-.01,0,0-.04,.02-.13,.08-.41,.26-.87,.9-.99,1.4-.41,1.66-.41,2.11-.41,2.8v.14c0,.48-.04,.7-.09,.92-.02,.1-.04,.16-.04,.37,0,.44,.3,.89,.43,1.08,.04,.06,.12,.16,.22,.29,.84,1.12,1.27,1.79,1.32,2.33,.05,.6-.31,2.87-1.04,3.43-.54,.41-1.3,.74-2.25,1.16-.85,.37-1.82,.8-2.84,1.37-.36,.2-.38,.35-.42,.63,0,0-.01,.1-.02,.11-.03,.2-.08,1.57-.13,3.01Z" />
      <path d="M57.01,24.87h-7.86c-.44,0-.8-.36-.8-.8s.36-.8,.8-.8h7.86c.44,0,.8,.36,.8,.8s-.36,.8-.8,.8Z" />
      <path d="M57.01,28.18h-7.86c-.44,0-.8-.36-.8-.8s.36-.8,.8-.8h7.86c.44,0,.8,.36,.8,.8s-.36,.8-.8,.8Z" />
      <path d="M57.01,31.48h-7.86c-.44,0-.8-.36-.8-.8s.36-.8,.8-.8h7.86c.44,0,.8,.36,.8,.8s-.36,.8-.8,.8Z" />
      <path d="M57.01,34.79h-7.86c-.44,0-.8-.36-.8-.8s.36-.8,.8-.8h7.86c.44,0,.8,.36,.8,.8s-.36,.8-.8,.8Z" />
      <path d="M63.81,33.27c0-11.5-9.35-20.85-20.85-20.85-1.2,0-2.36,.12-3.5,.32-.02-.01-.03-.03-.05-.04-2.94-1.53-6.26-2.34-9.6-2.34-11.5,0-20.85,9.35-20.85,20.85,0,5.51,2.16,10.51,5.67,14.24,0,.07,0,.13,.01,.19,2.52,8.94,10.77,15.18,20.07,15.18,6.64,0,12.73-3.05,16.71-8.38,.04-.06,.05-.12,.09-.18,7.25-3.27,12.31-10.55,12.31-19ZM29.8,12.85c2,0,3.94,.32,5.79,.94-7.86,2.99-13.47,10.58-13.47,19.48,0,6.58,3.07,12.45,7.85,16.28-.06,0-.11,0-.17,0-10.12,0-18.35-8.23-18.35-18.35S19.69,12.85,29.8,12.85Zm4.9,45.47c-6.79,0-12.93-3.79-16.1-9.56,3.24,2.07,7.07,3.29,11.19,3.29,1.15,0,2.31-.1,3.44-.28,.03,0,.05-.02,.08-.03,2.89,1.51,6.16,2.38,9.64,2.38,1.33,0,2.62-.14,3.88-.38-3.32,2.94-7.58,4.58-12.13,4.58Zm8.26-6.71c-10.12,0-18.35-8.23-18.35-18.35s8.23-18.35,18.35-18.35,18.35,8.23,18.35,18.35-8.23,18.35-18.35,18.35Z" />
    <rect x=".36" y=".36" width="71.28" height="71.28" fill="none"/>
</svg>