<?xml version="1.0" encoding="UTF-8"?>
<svg xmlns="http://www.w3.org/2000/svg" viewBox="0 0 72 72">
  <path d="M60.17,8.69H24.13c-2.65,0-4.73,2.12-4.73,4.82v22.54s-.04,0-.07,0c-1.65,.37-2.26,.31-2.62,.28-.5-.05-.9-.05-1.58,.38-.95,.6-1.83,1.84-2.1,2.95-.57,2.31-.57,3.05-.56,3.98v.17c0,.41-.03,.53-.06,.67-.06,.24-.1,.47-.1,.93,0,1.16,.63,2.1,.87,2.46,.06,.09,.18,.25,.33,.46,.29,.38,1.16,1.55,1.25,1.88,.04,.51-.34,2.15-.59,2.58-.5,.35-1.35,.73-2.33,1.16-1.06,.46-2.37,1.03-3.73,1.8-1.31,.74-1.45,1.77-1.52,2.26v.1c-.08,.45-.19,3.66-.23,5.02,0,.27,.09,.53,.28,.73s.45,.3,.72,.3H31.75c.27,0,.53-.11,.72-.3s.29-.46,.28-.73c-.04-1.36-.15-4.58-.23-5.07-.07-.48-.24-1.61-1.54-2.32-1.26-.69-2.44-1.22-3.48-1.69-1.1-.5-2.06-.93-2.6-1.32-.24-.43-.58-1.93-.56-2.31,.02-.12,.18-.63,1.4-2.43l.1-.14c.18-.28,.43-.77,.61-1.32h7.34c0,2,0,5.65,0,8.31,0,.57,.32,1.09,.83,1.34,.21,.11,.44,.16,.67,.16,.32,0,.64-.1,.9-.3l12.66-9.51h11.31c2.63,0,4.78-2.16,4.78-4.82V13.52c0-2.66-2.14-4.82-4.78-4.82ZM23.64,54.29c.71,.54,1.74,1.01,3.03,1.59,1.01,.46,2.15,.97,3.35,1.62,.42,.23,.46,.48,.53,.91,.03,.25,.1,1.96,.16,3.76H8.38c.06-1.8,.13-3.51,.16-3.75l.02-.13c.05-.35,.07-.53,.52-.79,1.27-.72,2.48-1.25,3.54-1.71,1.19-.52,2.14-.93,2.81-1.45,.91-.7,1.36-3.54,1.3-4.28-.06-.68-.6-1.52-1.64-2.91-.12-.16-.22-.29-.27-.37-.16-.24-.54-.8-.54-1.35,0-.26,.02-.34,.05-.46,.06-.27,.12-.54,.12-1.14v-.18c0-.86,0-1.43,.51-3.5,.15-.62,.72-1.42,1.23-1.74,.11-.07,.16-.09,.16-.09,.05,0,.1,0,.17,.01,.45,.04,1.19,.1,2.87-.24v3.63c0,2.7,2.08,4.82,4.73,4.82h.16c-.04,.08-.08,.16-.12,.21l-.09,.13c-1.21,1.79-1.7,2.75-1.73,3.42-.02,.37,.29,3.23,1.29,3.99Zm38.3-12.58c0,1.02-.78,1.82-1.78,1.82h-11.81c-.32,0-.64,.11-.9,.3l-10.66,8.01v-5.28c0-1.82-.01-3.03-1.52-3.03h-11.14c-.99,0-1.73-.78-1.73-1.82V13.52c0-1.04,.74-1.82,1.73-1.82H60.17c1,0,1.78,.8,1.78,1.82v28.19Z" />
  <path d="M54.16,26.95l-6.27-10.39c-.18-.3-.51-.48-.86-.48h-11.07c-.35,0-.68,.18-.86,.48l-6.27,10.39c-.19,.32-.19,.71,0,1.03l6.27,10.44c.18,.3,.51,.48,.86,.48h5.56c.55,0,1-.45,1-1v-3.32c2.16-.53,3.16-2.18,3.16-3.84,0-2.42-1.77-3.42-3.32-4.01-1.45-.56-1.45-.83-1.45-1.09,0-.36,.37-.57,.98-.57,.72,0,1.26,.24,1.51,.38,.26,.14,.57,.16,.84,.05,.27-.11,.49-.33,.58-.61l.37-1.1c.15-.45-.04-.95-.45-1.19-.62-.35-1.44-.56-2.33-.62v-1.24c0-.55-.45-1-1-1s-1,.45-1,1v1.44c-1.72,.51-2.87,1.87-2.87,3.62s1.16,3.11,3.41,3.91c1.34,.51,1.34,.84,1.34,1.15,0,.65-.65,.79-1.19,.79-.65,0-1.36-.2-1.9-.54-.26-.16-.59-.19-.88-.08-.29,.11-.51,.35-.6,.65l-.34,1.14c-.13,.42,.04,.88,.4,1.12,.66,.44,1.72,.74,2.75,.82v2.15h-3.99l-5.67-9.44,5.67-9.39h9.94l5.67,9.39-5.96,9.92c-.28,.47-.13,1.09,.34,1.37,.16,.1,.34,.14,.51,.14,.34,0,.67-.17,.86-.48l6.27-10.44c.19-.32,.19-.71,0-1.03Z" />
  <rect x=".36" y=".36" width="71.28" height="71.28" fill="none"/>
</svg>