<?xml version="1.0" encoding="UTF-8"?>
<svg xmlns="http://www.w3.org/2000/svg" viewBox="0 0 72 72">
  <polygon points="48.32 66.29 24.48 66.29 24.48 48.62 26.18 48.62 26.18 64.59 48.32 64.59 48.32 66.29" />
  <path d="M40.49,55.33c-.2,0-.4-.07-.56-.21l-4.65-4.13-6.13,3.39c-.41,.23-.93,.08-1.16-.33-.23-.41-.08-.93,.33-1.16l6.66-3.68c.31-.17,.71-.13,.98,.11l4.5,4,5.22-5.28c.33-.33,.87-.34,1.2,0,.33,.33,.34,.87,0,1.2l-5.79,5.85c-.17,.17-.38,.25-.6,.25Z" />
  <path d="M29.06,62.39c-.35,0-.64-.29-.64-.64v-4.11c0-.35,.29-.64,.64-.64s.64,.29,.64,.64v4.11c0,.35-.29,.64-.64,.64Z" />
  <path d="M32.98,62.39c-.35,0-.64-.29-.64-.64v-6.87c0-.35,.29-.64,.64-.64s.64,.29,.64,.64v6.87c0,.35-.29,.64-.64,.64Z" />
  <path d="M36.8,62.39c-.35,0-.64-.29-.64-.64v-4.6c0-.35,.29-.64,.64-.64s.64,.29,.64,.64v4.6c0,.35-.29,.64-.64,.64Z" />
  <path d="M40.7,62.39c-.35,0-.64-.29-.64-.64v-1.98c0-.35,.29-.64,.64-.64s.64,.29,.64,.64v1.98c0,.35-.29,.64-.64,.64Z" />
  <path d="M44.46,62.39c-.35,0-.64-.29-.64-.64v-7.65c0-.35,.29-.64,.64-.64s.64,.29,.64,.64v7.65c0,.35-.29,.64-.64,.64Z" />
  <path d="M63.07,54.46h-11.74c-.81,0-1.48-.65-1.5-1.46-.07-2.71-.19-6.74-.25-7.21-.08-.5-.11-.71-.53-.94-1.49-.81-2.92-1.46-4.17-2.02-1.64-.74-2.93-1.32-3.84-2.02h0c-1.4-1.07-1.73-4.9-1.71-5.2,.05-.89,.67-2.12,2.21-4.41l.11-.16c.21-.32,.63-1.29,.63-1.93,0-.21-.1-.66-.2-1.14-.23-1.06-.55-2.51-.59-4.52,0-.27-.35-.93-1.26-1.65-1.24-.97-2.84-1.52-3.81-1.3-2.49,.56-3.52,.46-4.13,.4-.04,0-.09,0-.12-.01-.04,.02-.08,.05-.13,.08-.59,.37-1.26,1.32-1.43,2.03-.63,2.56-.63,3.26-.63,4.31v.22c0,.78-.07,1.13-.15,1.48-.04,.15-.05,.23-.05,.52,0,.61,.44,1.27,.63,1.55,.06,.09,.18,.25,.33,.45,1.33,1.78,2.03,2.85,2.1,3.77,.08,1-.5,4.63-1.73,5.57-.87,.67-2.06,1.19-3.57,1.84-1.33,.58-2.83,1.24-4.41,2.13-.45,.26-.47,.38-.53,.8l-.02,.17c-.05,.45-.17,4.48-.24,7.19-.02,.81-.69,1.46-1.5,1.46H9.13c-.83,0-1.5-.67-1.5-1.5V16.44c0-5.68,3.84-9.5,9.54-9.5H55.03c5.71,0,9.54,3.82,9.54,9.5V52.96c0,.83-.67,1.5-1.5,1.5Zm-10.28-3h8.78V16.44c0-4.01-2.51-6.5-6.54-6.5H17.18c-4.04,0-6.54,2.49-6.54,6.5V51.46h8.73c.07-2.53,.17-5.65,.24-6.11l.02-.12c.09-.66,.27-2.02,2.03-3.01,1.71-.97,3.36-1.69,4.68-2.26,1.18-.52,2.22-.97,2.82-1.39,.3-.58,.7-2.37,.69-2.97-.18-.5-1.18-1.83-1.52-2.28-.19-.26-.35-.47-.43-.59-.49-.73-1.13-1.85-1.13-3.22,0-.6,.06-.91,.14-1.22,.04-.17,.07-.3,.07-.79v-.21c0-1.18,0-2.12,.71-5.04,.36-1.45,1.51-3.06,2.74-3.84,.91-.58,1.48-.58,2.14-.52,.44,.04,1.17,.11,3.19-.34,2.26-.5,4.82,.69,6.32,1.87,1.53,1.2,2.38,2.6,2.41,3.95,.03,1.72,.3,2.95,.52,3.93,.15,.69,.27,1.24,.27,1.78,0,1.38-.69,2.93-1.13,3.59l-.12,.18c-1.46,2.16-1.68,2.8-1.71,2.95,0,.42,.38,2.12,.65,2.68,.66,.47,1.82,.99,3.15,1.59,1.3,.59,2.78,1.26,4.37,2.12,1.73,.94,1.96,2.44,2.05,3.08,.08,.51,.18,3.64,.25,6.17Zm-10.11-13.16h0Z" />
  <rect x=".36" y=".36" width="71.28" height="71.28" fill="none"/>
</svg>