<?xml version="1.0" encoding="UTF-8"?>
<svg xmlns="http://www.w3.org/2000/svg" viewBox="0 0 72 72">
  <path d="M63.19,54.46h-11.74c-.81,0-1.48-.65-1.5-1.46-.07-2.71-.19-6.74-.25-7.21-.08-.5-.11-.71-.53-.94-1.49-.81-2.92-1.45-4.17-2.02-1.64-.74-2.93-1.32-3.84-2.02h0c-1.4-1.07-1.73-4.89-1.71-5.2,.05-.89,.67-2.13,2.21-4.41l.11-.16c.21-.32,.63-1.29,.63-1.93,0-.21-.1-.66-.2-1.14-.23-1.06-.55-2.51-.59-4.52,0-.27-.35-.93-1.26-1.65-1.24-.97-2.84-1.52-3.81-1.3-2.49,.56-3.52,.46-4.13,.4-.05,0-.09,0-.12-.01-.04,.02-.08,.05-.13,.08-.59,.37-1.26,1.32-1.43,2.03-.63,2.56-.63,3.26-.63,4.31v.22c0,.78-.07,1.13-.15,1.49-.04,.15-.05,.23-.05,.52,0,.61,.44,1.27,.63,1.55,.06,.09,.18,.25,.33,.45,1.33,1.78,2.03,2.85,2.1,3.77,.08,1-.5,4.64-1.73,5.57-.87,.67-2.06,1.19-3.57,1.85-1.33,.58-2.83,1.24-4.41,2.13-.45,.26-.47,.38-.53,.8l-.02,.17c-.05,.45-.17,4.48-.24,7.19-.02,.81-.69,1.46-1.5,1.46H9.25c-.83,0-1.5-.67-1.5-1.5V16.44c0-5.68,3.84-9.5,9.54-9.5H55.14c5.71,0,9.54,3.82,9.54,9.5V52.96c0,.83-.67,1.5-1.5,1.5Zm-10.28-3h8.78V16.44c0-4.01-2.51-6.5-6.54-6.5H17.29c-4.04,0-6.54,2.49-6.54,6.5V51.46h8.73c.07-2.53,.17-5.65,.24-6.11l.02-.12c.09-.66,.27-2.02,2.02-3.01,1.71-.97,3.36-1.69,4.68-2.26,1.18-.52,2.22-.97,2.82-1.39,.3-.58,.7-2.37,.69-2.97-.18-.5-1.18-1.83-1.52-2.28-.19-.26-.35-.47-.43-.59-.49-.73-1.13-1.86-1.13-3.22,0-.6,.06-.91,.14-1.22,.04-.17,.07-.3,.07-.78v-.22c0-1.18,0-2.12,.71-5.04,.36-1.45,1.51-3.06,2.74-3.84,.92-.58,1.49-.58,2.14-.52,.44,.04,1.17,.11,3.19-.34,2.26-.51,4.82,.69,6.32,1.87,1.53,1.2,2.38,2.6,2.41,3.95,.03,1.72,.3,2.95,.52,3.93,.15,.69,.27,1.24,.27,1.78,0,1.38-.69,2.94-1.13,3.59l-.12,.18c-1.46,2.16-1.68,2.8-1.71,2.95,0,.42,.38,2.12,.65,2.67,.66,.47,1.82,.99,3.15,1.59,1.3,.59,2.78,1.26,4.37,2.12,1.73,.94,1.96,2.44,2.05,3.08,.08,.51,.18,3.64,.25,6.17Zm-10.11-13.16s0,0,0,0c0,0,0,0,0,0Z" />
  <path d="M42.55,38.3s0,0,0,0c0,0,0,0,0,0Z" />
  <path d="M41.01,64.56c-.55,0-1-.45-1-1,0-.55,.45-1,1-1h3.09c2.06-.09,3.7-1.94,3.7-4.22s-1.75-4.23-3.91-4.23c-.24,0-.45,.02-.64,.06-.66,.15-1.34-.18-1.65-.78-1.08-2.13-3.24-3.45-5.63-3.45-3.21,0-5.91,2.4-6.27,5.58-.05,.46-.31,.85-.69,1.09-.38,.24-.85,.29-1.28,.14-.29-.1-.61-.16-.94-.16-1.65,0-2.99,1.34-2.99,2.99s1.31,2.94,2.91,2.97h8.85c.55,0,1,.44,1,1s-.45,1-1,1h-8.87c-2.71-.05-4.89-2.28-4.89-4.97s2.24-4.99,4.99-4.99c.35,0,.69,.03,1.01,.1,.73-3.89,4.14-6.76,8.17-6.76,3.02,0,5.76,1.6,7.23,4.21,.22-.03,.44-.04,.68-.04,3.26,0,5.91,2.79,5.91,6.23s-2.48,6.09-5.66,6.21h-3.13s0,0,0,0Z" />
  <rect x=".36" y=".36" width="71.28" height="71.28" fill="none"/>
</svg>