<?xml version="1.0" encoding="UTF-8"?>
<svg xmlns="http://www.w3.org/2000/svg" viewBox="0 0 72 72">
   <path d="M63.05,54.46h-11.74c-.81,0-1.48-.65-1.5-1.46-.07-2.71-.19-6.74-.25-7.21-.08-.5-.11-.71-.53-.94-1.49-.81-2.92-1.46-4.17-2.02-1.64-.74-2.93-1.32-3.84-2.02h0c-1.4-1.07-1.73-4.9-1.71-5.2,.05-.89,.67-2.12,2.21-4.41l.11-.16c.21-.32,.63-1.29,.63-1.93,0-.21-.1-.66-.2-1.14-.23-1.06-.55-2.51-.59-4.52,0-.27-.35-.93-1.26-1.65-1.24-.97-2.84-1.52-3.81-1.3-2.49,.56-3.52,.46-4.13,.4-.04,0-.09,0-.12-.01-.04,.02-.08,.05-.13,.08-.59,.37-1.26,1.32-1.43,2.03-.63,2.56-.63,3.26-.63,4.31v.22c0,.78-.07,1.13-.15,1.48-.04,.15-.05,.23-.05,.52,0,.61,.44,1.27,.63,1.55,.06,.09,.18,.25,.33,.45,1.33,1.78,2.03,2.85,2.1,3.77,.08,1-.5,4.64-1.73,5.57-.87,.67-2.06,1.19-3.57,1.85-1.33,.58-2.83,1.24-4.41,2.13-.45,.26-.47,.38-.53,.8l-.02,.17c-.05,.45-.17,4.48-.24,7.19-.02,.81-.69,1.46-1.5,1.46H9.11c-.83,0-1.5-.67-1.5-1.5V16.44c0-5.68,3.84-9.5,9.54-9.5H55c5.71,0,9.54,3.82,9.54,9.5V52.96c0,.83-.67,1.5-1.5,1.5Zm-10.28-3h8.78V16.44c0-4.01-2.51-6.5-6.54-6.5H17.15c-4.04,0-6.54,2.49-6.54,6.5V51.46h8.73c.07-2.53,.17-5.65,.24-6.11l.02-.12c.09-.66,.27-2.02,2.02-3.01,1.71-.97,3.36-1.69,4.68-2.26,1.18-.52,2.22-.97,2.82-1.39,.3-.58,.7-2.37,.69-2.97-.18-.5-1.18-1.83-1.52-2.28-.19-.26-.35-.47-.43-.59-.49-.73-1.13-1.85-1.13-3.22,0-.6,.06-.91,.14-1.22,.04-.17,.07-.3,.07-.79v-.21c0-1.18,0-2.12,.71-5.04,.36-1.45,1.51-3.06,2.74-3.84,.91-.58,1.48-.58,2.14-.52,.44,.04,1.17,.11,3.19-.34,2.26-.51,4.82,.69,6.32,1.87,1.53,1.2,2.38,2.6,2.41,3.95,.03,1.72,.3,2.95,.52,3.93,.15,.69,.27,1.24,.27,1.78,0,1.38-.69,2.93-1.13,3.59l-.12,.18c-1.46,2.16-1.68,2.8-1.71,2.95,0,.42,.38,2.12,.65,2.68,.66,.47,1.82,.99,3.15,1.59,1.3,.59,2.78,1.26,4.37,2.12,1.73,.94,1.96,2.44,2.05,3.08,.08,.51,.18,3.64,.25,6.17Zm-10.11-13.16h0Z" />
   <path d="M35.94,66.16c-.13,0-.26-.03-.37-.1-.08-.04-.21-.11-.38-.2-3.28-1.76-7.71-4.41-8.25-7.07-.22-1.1-.37-2.47-.48-4.47l-.45-7.07c-.02-.35,.21-.68,.55-.77l9.17-2.53c.13-.04,.27-.04,.4,0l9.21,2.55c.34,.09,.57,.42,.55,.77l-.46,7.08c-.11,1.99-.27,3.37-.49,4.46-.54,2.66-4.97,5.3-8.25,7.05-.17,.09-.31,.16-.39,.21-.11,.06-.24,.1-.37,.1Zm-8.38-18.4l.41,6.47c.11,1.93,.25,3.24,.45,4.26,.21,1.04,1.68,2.93,7.49,6.05l.04,.02,.05-.03c5.81-3.1,7.28-4.99,7.49-6.03,.21-1.02,.35-2.34,.46-4.25l.42-6.47-8.42-2.33-8.38,2.31Z" />
   <path d="M40.1,53.8c-.33-.19-.73-.34-1.15-.46v-1.25c0-1.68-1.36-3.04-3.04-3.04s-3.04,1.37-3.04,3.04v1.25c-.42,.12-.8,.26-1.13,.45-.22,.12-.35,.36-.35,.61v3.81c0,.25,.14,.48,.35,.61,.97,.55,2.3,.81,4.17,.81s3.21-.26,4.19-.83c.22-.12,.35-.36,.35-.61v-3.79c0-.25-.13-.48-.35-.61Zm-5.83-1.71c0-.91,.74-1.64,1.64-1.64s1.64,.74,1.64,1.64v.98c-.5-.06-1.03-.09-1.64-.09s-1.14,.04-1.64,.09v-.98Zm4.79,5.68c-.74,.31-1.77,.47-3.14,.47s-2.39-.15-3.12-.46v-2.94c.73-.31,1.76-.46,3.12-.46s2.4,.15,3.14,.47v2.93Z" />
   <rect x=".36" y=".36" width="71.28" height="71.28" fill="none"/>
</svg>