<?xml version="1.0" encoding="UTF-8"?>
<svg xmlns="http://www.w3.org/2000/svg" viewBox="0 0 72 72">
  <path d="M36.12,7.65c-15.62,0-28.32,12.7-28.32,28.32s12.7,28.32,28.32,28.32,28.32-12.7,28.32-28.32S51.73,7.65,36.12,7.65Zm0,3c13.96,0,25.32,11.36,25.32,25.32,0,5.88-2.02,11.3-5.4,15.6-.4-1.02-1.05-2.07-2.14-2.66-1.95-1.06-3.78-1.88-5.38-2.61-1.71-.77-3.2-1.45-4.03-2.06-.37-.66-.91-3.01-.88-3.61,.03-.18,.27-.98,2.17-3.78l.15-.22c.52-.78,1.34-2.62,1.34-4.25,0-.94-.16-1.37-.34-1.79-.06-.15-.1-.22-.14-.49-.07-.48-.14-.8-.2-1.1-.14-.62-.25-1.16-.3-3.68-.03-1.56-1.04-3.2-2.85-4.62-1.8-1.41-4.84-2.85-7.52-2.25-2.56,.57-3.5,.48-4.06,.43-.76-.07-1.38-.07-2.42,.59-1.45,.92-2.81,2.83-3.24,4.54-.88,3.57-.88,4.71-.87,6.15v.27c0,.64-.05,.83-.1,1.05-.09,.36-.16,.72-.16,1.43,0,1.59,.76,2.92,1.34,3.78,.1,.15,.28,.39,.52,.71,.45,.6,1.81,2.41,1.94,2.93,.07,.8-.53,3.37-.93,4.03-.77,.55-2.1,1.13-3.62,1.8-1.63,.71-3.66,1.6-5.76,2.79-1.15,.65-1.83,1.76-2.24,2.8-3.45-4.33-5.51-9.8-5.51-15.75,0-13.96,11.36-25.32,25.32-25.32ZM18.68,54.31c.02-.06,.05-.11,.06-.18,.15-.95,.57-2.19,1.28-2.59,1.97-1.11,3.84-1.93,5.49-2.65,1.84-.81,3.3-1.44,4.34-2.24,1.4-1.07,2.09-5.44,2-6.59-.09-1.05-.92-2.33-2.53-4.48-.19-.25-.34-.46-.42-.57-.25-.37-.84-1.25-.84-2.12,0-.41,.03-.53,.08-.73,.1-.41,.18-.83,.18-1.75v-.27c0-1.33,0-2.21,.78-5.42,.24-.97,1.12-2.21,1.93-2.72,.18-.12,.27-.15,.26-.15,.08,0,.17,.01,.27,.02,.74,.07,1.97,.19,5-.49,1.3-.29,3.41,.42,5.01,1.68,1.16,.91,1.69,1.82,1.7,2.32,.05,2.81,.2,3.48,.37,4.26,.05,.25,.11,.5,.17,.89,.09,.63,.23,.98,.37,1.29,.06,.14,.08,.19,.08,.57,0,.87-.54,2.15-.83,2.58l-.14,.2c-1.87,2.77-2.62,4.24-2.68,5.27-.03,.57,.45,5,1.99,6.15,1.1,.83,2.68,1.55,4.68,2.45,1.56,.71,3.33,1.51,5.19,2.51,.49,.27,.93,1.21,1.11,2.41,.01,.09,.04,.18,.07,.26-4.55,4.38-10.73,7.08-17.53,7.08s-12.89-2.66-17.43-6.99Z" />
  <rect x=".36" y=".36" width="71.28" height="71.28" fill="none"/>
</svg>