<?xml version="1.0" encoding="UTF-8"?>
<svg xmlns="http://www.w3.org/2000/svg" viewBox="0 0 72 72">
  <path d="M64.94,33.55c.47,.07,.95-.09,1.28-.43s.49-.81,.42-1.28c-.5-3.27-4.86-7.52-9.54-7.9-.59-.05-1.25-.04-1.92,.01l1.49-2.22c.93-1.38,.74-3.22-.44-4.39l-3.37-3.35c-.68-.67-1.57-1.02-2.48-1.02-.67,0-1.35,.19-1.94,.58l-4.56,3.02c-.73-.35-1.48-.66-2.26-.93l-1.07-5.34c-.33-1.63-1.76-2.8-3.43-2.8h-4.76c-1.67,0-3.1,1.17-3.43,2.8l-1.07,5.34c-.78,.27-1.53,.58-2.26,.93l-4.56-3.02c-.59-.39-1.27-.58-1.94-.58-.9,0-1.8,.35-2.48,1.02l-3.37,3.35c-1.18,1.17-1.36,3.01-.44,4.39l3.04,4.53c-.35,.73-.67,1.47-.94,2.25l-5.37,1.07c-1.64,.33-2.81,1.75-2.81,3.41v4.73c0,1.66,1.18,3.09,2.81,3.41l5.36,1.07c.27,.77,.59,1.52,.94,2.24l-3.03,4.53c-.93,1.38-.74,3.22,.44,4.39l3.37,3.35c.68,.67,1.57,1.02,2.48,1.02,.67,0,1.35-.19,1.94-.58l4.56-3.02c.73,.35,1.48,.67,2.26,.93l1.07,5.33c.33,1.63,1.76,2.8,3.43,2.8h4.76c1.67,0,3.11-1.17,3.43-2.8l1.08-5.33c.78-.27,1.53-.58,2.26-.93l4.56,3.02c.59,.39,1.27,.58,1.94,.58,.91,0,1.8-.35,2.48-1.02l3.37-3.35c1.18-1.17,1.36-3.01,.44-4.39l-1.35-2.02c.24,.02,.48,.04,.72,.04,5.18,0,8.85-4.77,9.01-4.99,.32-.42,.39-.99,.19-1.48-.2-.49-.65-.84-1.18-.91l-6.99-.97-.95-3.17c1.02-1.35,1.71-2.26,2.17-2.91l6.64,.98Zm-8.38-3.6s-.07,.08-.11,.13c-.18,.24-3.17,4.19-3.17,4.19-.29,.38-.38,.88-.24,1.34l1.44,4.83c.17,.56,.65,.98,1.23,1.06l4.94,.69c-1.32,1.03-3.17,2.02-5.24,1.79-1.8-.2-3.61-.89-4.63-1.74-5.34-4.49-10.3-4.72-10.57-4.73H23.01c-.64,0-1.19,.41-1.4,.98-.18,.34-.22,.76-.09,1.16,.53,1.62,1.35,3.11,2.43,4.44,2.65,3.25,6.58,5.12,10.77,5.12s8.06-1.84,10.71-5.05c.36-.44,.69-.9,.99-1.37,.78,.48,1.6,1.06,2.44,1.76,.38,.32,.82,.62,1.3,.89,.1,.3,.23,.6,.42,.87l3.27,4.75-3.33,3.32-4.78-3.26c-.58-.38-1.25-.58-1.92-.58-.51,0-1.03,.11-1.51,.34-.6,.29-1.22,.55-1.86,.77-1.16,.4-2.02,1.38-2.26,2.58l-1.07,5.73h-4.71l-1.06-5.73c-.24-1.2-1.1-2.18-2.26-2.58-.64-.22-1.26-.48-1.86-.77-.48-.23-.99-.35-1.51-.35-.67,0-1.34,.19-1.92,.58l-4.76,3.24-3.33-3.32,3.25-4.73c.68-1.02,.77-2.32,.24-3.41-.29-.6-.55-1.21-.78-1.85-.4-1.15-1.39-2.01-2.59-2.25l-6.2-1.06v-4.69s6.2-1.06,6.2-1.06c1.2-.24,2.19-1.09,2.59-2.25,.22-.64,.48-1.25,.77-1.85,.54-1.1,.45-2.4-.24-3.41l-3.33-4.82,3.33-3.32,4.84,3.32c.58,.38,1.25,.58,1.92,.58,.51,0,1.03-.11,1.51-.34,.6-.29,1.22-.55,1.86-.77,1.16-.4,2.02-1.38,2.26-2.58l1.06-6.07h4.71s1.06,6.07,1.06,6.07c.24,1.2,1.1,2.18,2.26,2.58,.64,.22,1.26,.48,1.86,.77,.48,.23,.99,.34,1.51,.34,.67,0,1.34-.19,1.92-.58l4.86-3.34,3.33,3.32-4.18,6.02c-.44,.27-.87,.57-1.25,.91-.64,.59-1.3,1.07-1.96,1.49-.68-1.11-1.51-2.13-2.48-3.01-2.56-2.33-5.88-3.62-9.35-3.62s-7.01,1.37-9.6,3.85c-1.66,1.59-2.91,3.57-3.61,5.75-.08,.24-.09,.48-.04,.72,0,.03,0,.06,0,.1,0,.83,.67,1.5,1.5,1.5h15.61c.72,.04,6.74,.2,11.97-4.55,1.74-1.58,4.75-1.96,6.34-1.83,2.21,.18,4.4,1.69,5.69,3.24l-4.67-.69c-.49-.07-.99,.1-1.33,.47Zm-12.85,11.45c-.19,.28-.38,.56-.6,.82-2.08,2.52-5.14,3.96-8.4,3.96s-6.36-1.46-8.44-4.01c-.43-.53-.81-1.09-1.13-1.68h15.02s1.45,.07,3.55,.91Zm.14-12.02c-2.83,1.06-5.12,.95-5.15,.94-.04,0-.07,0-.11,0h-13.55c.55-1.07,1.27-2.06,2.14-2.89,2.03-1.95,4.71-3.02,7.53-3.02s5.32,1.01,7.33,2.84c.7,.64,1.3,1.35,1.81,2.14Z" />
  <rect x=".36" y=".36" width="71.28" height="71.28" fill="none"/>
</svg>