<?xml version="1.0" encoding="UTF-8"?>
<svg xmlns="http://www.w3.org/2000/svg" viewBox="0 0 72 72">
    <path d="M63.87,9.07c-.09-.68-.62-1.21-1.3-1.3-.66-.08-16.28-1.94-29.35,11.14-2.79,2.79-5.27,5.71-7.4,8.7-2.52,.31-7.56,1.56-12.42,6.42l-2.8,2.8c-.59,.59-.59,1.54,0,2.12l5.41,5.41c.28,.28,.66,.44,1.06,.44h1.22c.03,.35,.18,.69,.43,.94l7.17,7.17c.25,.25,.58,.4,.93,.43v1.21c0,.4,.16,.78,.44,1.06l5.41,5.41c.29,.29,.68,.44,1.06,.44s.77-.15,1.06-.44l2.8-2.8c4.85-4.85,6.1-9.88,6.42-12.4,3-2.13,5.93-4.62,8.72-7.41,13.07-13.07,11.22-28.69,11.14-29.35Zm-13.26,27.23c-2.84,2.84-5.82,5.35-8.87,7.47-.37,.26-.61,.67-.64,1.12-.14,1.82-.96,6.56-5.62,11.22l-1.74,1.74-3.91-3.91v-1.89c1.25-.33,3.52-1.1,6.89-2.89,.49-.26,.67-.86,.41-1.35-.26-.49-.87-.67-1.35-.41-4.43,2.35-6.76,2.82-7.22,2.89-.15-.02-.3-.02-.45,.01-.11,.01-.32,.02-.54,.03l-6.25-6.25c0-.21,.02-.4,.03-.48,.04-.18,.04-.37,.01-.54,.09-.53,.59-2.86,2.89-7.2,.26-.49,.07-1.09-.41-1.35-.49-.26-1.09-.07-1.35,.41-1.79,3.37-2.56,5.63-2.89,6.89h-1.89l-3.91-3.91,1.74-1.74c4.67-4.67,9.42-5.49,11.24-5.62,.45-.03,.86-.27,1.12-.64,2.11-3.04,4.62-6.02,7.46-8.86,9.99-9.99,21.86-10.48,25.63-10.36,.12,3.78-.38,15.64-10.36,25.63Z"/>
    <path d="M9.18,63.86c-.33,0-.65-.13-.88-.37-.24-.23-.37-.55-.37-.89,0-.35,.06-8.73,3.98-12.6,1.35-1.33,3-1.98,4.85-1.96,.69,0,1.24,.58,1.23,1.27,0,.69-.59,1.24-1.27,1.23-1.22-.02-2.2,.39-3.06,1.24-2.37,2.33-3.01,7.17-3.18,9.51,2.33-.17,7.17-.81,9.51-3.18,.85-.86,1.26-1.87,1.24-3.06,0-.69,.54-1.26,1.23-1.27h.02c.68,0,1.24,.55,1.25,1.23,.02,1.87-.64,3.5-1.96,4.85-3.86,3.92-12.24,3.98-12.6,3.98h0Z"/>
    <rect x=".37" y=".36" width="71.28" height="71.28" fill="none"/>
</svg>