<?xml version="1.0" encoding="UTF-8"?>
<svg xmlns="http://www.w3.org/2000/svg" viewBox="0 0 72 72">
    <path d="M54.4,20.48l-4.83-4.7c-.39-.38-1.02-.38-1.41,.01l-27.57,27.74c-.09,.09-.16,.2-.21,.32l-3.39,8.08c-.16,.37-.07,.8,.21,1.09,.19,.19,.45,.29,.71,.29,.13,0,.26-.02,.38-.08l8.22-3.39c.12-.05,.23-.12,.33-.22l27.57-27.74c.19-.19,.29-.45,.29-.71,0-.27-.11-.52-.3-.71Zm-28.84,27.61l-5.79,2.39,2.38-5.67,23.5-23.65,3.39,3.3-23.49,23.63Zm24.54-24.69l-3.39-3.3,2.18-2.19,3.39,3.3-2.18,2.19Z" />
    <path d="M52.74,7.34H18.56c-6.34,0-11.5,5.16-11.5,11.5V53.02c0,6.34,5.16,11.5,11.5,11.5H52.74c6.34,0,11.5-5.16,11.5-11.5V18.84c0-6.34-5.16-11.5-11.5-11.5ZM10.06,53.02V18.84c0-4.69,3.81-8.5,8.5-8.5H52.74c4.69,0,8.5,3.81,8.5,8.5v11.52l-31.15,31.15h-11.52c-4.69,0-8.5-3.81-8.5-8.5Zm34.94-1.08c.58-.58,1.52-.58,2.1,0l3.18,3.18,7.24-7.24c.58-.58,1.52-.58,2.1,0s.58,1.52,0,2.1l-8.29,8.29c-.29,.29-.67,.44-1.05,.44s-.76-.15-1.05-.44l-4.23-4.23c-.58-.58-.58-1.52,0-2.1Z" />
    <rect x=".36" y=".36" width="71.28" height="71.28" fill="none"/>
</svg>