<?xml version="1.0" encoding="UTF-8"?>
<svg xmlns="http://www.w3.org/2000/svg" viewBox="0 0 72 72">
    <path d="M53.4,64.43H18.84c-5.71,0-9.54-3.82-9.54-9.5V16.87c0-5.68,3.84-9.5,9.54-9.5H53.4c5.71,0,9.54,3.82,9.54,9.5V54.92c0,5.68-3.84,9.5-9.54,9.5ZM18.84,10.37c-4.04,0-6.54,2.49-6.54,6.5V54.92c0,4.01,2.51,6.5,6.54,6.5H53.4c4.04,0,6.54-2.49,6.54-6.5V16.87c0-4.01-2.51-6.5-6.54-6.5H18.84Z" />
    <circle cx="21.22" cy="19.01" r="3.25" />
    <circle cx="37.07" cy="49.32" r="3.25" />
    <path d="M42.57,12.57c1.59,5.34,1.16,11-1.28,16.05-.71,1.46-1.58,2.81-2.56,4.05l1.39,1.47c1.15-1.42,2.16-2.97,2.97-4.66,2.57-5.32,3.11-11.27,1.58-16.92h-2.1Z" />
    <path d="M37.68,12.57h-2.15c.17,.38,.33,.78,.47,1.17,1.38,3.96,1.14,8.21-.69,11.98-.34,.71-.77,1.37-1.21,2l1.41,1.5c.6-.83,1.15-1.69,1.61-2.63,2.05-4.25,2.33-9.05,.77-13.51-.06-.18-.14-.34-.2-.52Z" />
    <path d="M28.38,12.57c.08,.1,.18,.18,.26,.28,2.4,2.99,2.66,6.98,1.05,10.2l1.46,1.55c2.13-3.67,2.13-8.33-.26-12.03h-2.51Z" />
    <path d="M24.58,27.7c-3.27,1.24-7.03,.6-9.69-1.76v2.5c1.9,1.25,4.11,1.9,6.33,1.9,1.64,0,3.27-.39,4.8-1.11l-1.44-1.53Z" />
    <path d="M29.04,32.45c-.85,.5-1.74,.94-2.69,1.27-3.77,1.32-7.88,1.1-11.46-.46v2.16c2.02,.77,4.17,1.17,6.33,1.17,1.95,0,3.91-.32,5.79-.98,1.22-.43,2.37-.99,3.45-1.66l-1.41-1.5Z" />
    <path d="M33.67,37.38c-1.58,1.08-3.29,1.98-5.14,2.62-4.43,1.55-9.21,1.64-13.65,.33v2.07c2.06,.55,4.18,.83,6.3,.83,2.7,0,5.41-.45,8.01-1.35,2.12-.74,4.07-1.79,5.86-3.04l-1.38-1.47Z" />
    <path d="M46.61,58.89c-1.49,0-2.99-.57-4.13-1.71l-5.2-5.63c-.37-.41-.35-1.04,.06-1.41,.41-.37,1.04-.35,1.41,.06l5.17,5.61c1.46,1.46,3.87,1.47,5.35,0,1.46-1.46,1.43-3.86-.06-5.35L20.49,19.78c-.38-.4-.36-1.04,.05-1.41,.4-.38,1.04-.36,1.41,.05l28.7,30.65c2.25,2.25,2.27,5.91,.03,8.15-1.12,1.12-2.6,1.68-4.08,1.68Z" />
    <rect x=".36" y=".36" width="71.28" height="71.28" fill="none"/>
</svg>