<?xml version="1.0" encoding="utf-8"?>
<svg xmlns="http://www.w3.org/2000/svg" viewBox="0 0 72 72" >
    <path class="st0" d="M11,30.5v30c0,0.4,0.3,0.7,0.7,0.7h48.6c0.4,0,0.7-0.2,0.7-0.6c0,0,0-0.1,0-0.1v-30h4v30c0,2.6-2.1,4.7-4.7,4.7
	    H11.7c-2.6,0-4.7-2.1-4.7-4.6c0,0,0,0,0-0.1v-30H11z"/>
	<path class="st0" d="M36.1,48.7c-0.4,0-0.8-0.2-1.1-0.4L18.6,31.8c-0.4-0.4-0.6-1.1-0.3-1.6c0.2-0.6,0.8-0.9,1.4-0.9h9.2V7.2h3
		v23.6c0,0.8-0.7,1.5-1.5,1.5h-7.1l12.8,12.8l12.8-12.8h-7c-0.8,0-1.5-0.7-1.5-1.5V7.2h3v22.1h9.1c0.6,0,1.2,0.4,1.4,0.9
		s0.1,1.2-0.3,1.6L37.1,48.3C36.8,48.5,36.5,48.7,36.1,48.7z"/>
</svg>
