<?xml version="1.0" encoding="utf-8"?>
<svg  xmlns="http://www.w3.org/2000/svg" viewBox="0 0 72 72" >
    <path class="st0" d="M11,30.5v30c0,0.4,0.3,0.7,0.7,0.7h48.6c0.4,0,0.7-0.2,0.7-0.6v-0.1v-30h4v30c0,2.6-2.1,4.7-4.7,4.7H11.7
	    c-2.6,0-4.7-2.1-4.7-4.6c0,0,0,0,0-0.1v-30C7,30.5,11,30.5,11,30.5z"/>
	<path class="st0" d="M43.3,47.2h-3V23.6c0-0.8,0.7-1.5,1.5-1.5h7L36.1,9.3L23.3,22.1h7.1c0.8,0,1.5,0.7,1.5,1.5v23.6h-3V25.1h-9.2
		c-0.6,0-1.2-0.4-1.4-0.9c-0.2-0.6-0.1-1.2,0.3-1.6L35,6.1c0.3-0.3,0.7-0.4,1.1-0.4c0,0,0,0,0,0c0.4,0,0.8,0.2,1.1,0.4l16.3,16.4
		c0.4,0.4,0.6,1.1,0.3,1.6s-0.8,0.9-1.4,0.9h-9.1V47.2z"/>
</svg>
