<?xml version="1.0" encoding="UTF-8"?>
<svg xmlns="http://www.w3.org/2000/svg" viewBox="0 0 72 72">
    <path d="M61.87,64.15h-17.71c-.69,0-1.25-.56-1.25-1.25v-17.71c0-.69,.56-1.25,1.25-1.25h17.71c.69,0,1.25,.56,1.25,1.25v17.71c0,.69-.56,1.25-1.25,1.25Zm-16.46-2.5h15.21v-15.21h-15.21v15.21Z"/>
    <path d="M59.84,42.81h-12.57c-.69,0-1.25-.56-1.25-1.25v-12.57c0-.69,.56-1.25,1.25-1.25h12.57c.69,0,1.25,.56,1.25,1.25v12.57c0,.69-.56,1.25-1.25,1.25Zm-11.32-2.5h10.07v-10.07h-10.07v10.07Z"/>
    <path d="M43.46,42.81h-12.57c-.69,0-1.25-.56-1.25-1.25v-12.57c0-.69,.56-1.25,1.25-1.25h12.57c.69,0,1.25,.56,1.25,1.25v12.57c0,.69-.56,1.25-1.25,1.25Zm-11.32-2.5h10.07v-10.07h-10.07v10.07Z"/>
    <path d="M39.39,26.84h-12.57c-.69,0-1.25-.56-1.25-1.25V13.02c0-.69,.56-1.25,1.25-1.25h12.57c.69,0,1.25,.56,1.25,1.25v12.57c0,.69-.56,1.25-1.25,1.25Zm-11.32-2.5h10.07V14.27h-10.07v10.07Z"/>
    <path d="M40.62,64.15H22.91c-.69,0-1.25-.56-1.25-1.25v-17.71c0-.69,.56-1.25,1.25-1.25h17.71c.69,0,1.25,.56,1.25,1.25v17.71c0,.69-.56,1.25-1.25,1.25Zm-16.46-2.5h15.21v-15.21h-15.21v15.21Z"/>
    <polygon points="24.34 34.36 16.94 34.36 16.94 26.96 14.94 26.96 14.94 34.36 7.55 34.36 7.55 36.36 14.94 36.36 14.94 43.75 16.94 43.75 16.94 36.36 24.34 36.36 24.34 34.36"/>
    <rect x=".36" y=".36" width="71.28" height="71.28" fill="none"/>
</svg>