<?xml version="1.0" encoding="UTF-8"?>
<svg xmlns="http://www.w3.org/2000/svg" viewBox="0 0 72 72">
    <path d="M58.8,7.39H13.14c-2.41,0-4.36,1.96-4.36,4.37V55.93c0,2.41,1.96,4.37,4.36,4.37h2.28v3.85h7.95v-3.85h25.38v3.85h7.95v-3.85h2.1c2.41,0,4.36-1.96,4.36-4.37V11.76c0-2.41-1.96-4.37-4.36-4.37Zm0,49.41H13.14c-.48,0-.86-.39-.86-.87V11.76c0-.48,.39-.87,.86-.87H58.8c.48,0,.86,.39,.86,.87v5.3h-1.26v-3.51c0-.78-.64-1.42-1.42-1.42H15.02c-.78,0-1.42,.64-1.42,1.42V54.12c0,.78,.64,1.42,1.42,1.42H56.98c.78,0,1.42-.64,1.42-1.42v-4.13h1.26v5.94c0,.48-.39,.87-.86,.87Zm-.4-33.32h1.26v20.08h-1.26V23.48Zm-1-9.93V54.12c0,.23-.19,.42-.42,.42H15.02c-.23,0-.42-.19-.42-.42V13.55c0-.23,.19-.42,.42-.42H56.98c.23,0,.42,.19,.42,.42Z" />
    <path d="M40.37,21.33c-6.49,0-11.77,5.28-11.77,11.77,0,3.24,1.32,6.18,3.44,8.31,.01,.01,0,.03,.02,.04,.01,.01,.04,0,.05,.02,2.13,2.1,5.04,3.4,8.26,3.4,6.49,0,11.77-5.28,11.77-11.77s-5.28-11.77-11.77-11.77Zm7.05,12.12h3.2c-.02,.71-.12,1.4-.28,2.07-.02,0-.02-.03-.04-.03l-1.62-.44c-.13-.03-.27,.04-.31,.18-.04,.13,.04,.27,.18,.31l1.62,.44s.04,0,.06,0c-.21,.72-.49,1.41-.85,2.05-.01-.01-.02-.03-.03-.04l-1.46-.84c-.12-.07-.27-.03-.34,.09-.07,.12-.03,.27,.09,.34l1.46,.84s.03,0,.04,.01c-.36,.59-.78,1.15-1.25,1.65l-2.01-2.01c-.15-.15-.38-.15-.53,0s-.15,.38,0,.53l2.01,2.01c-.5,.47-1.06,.89-1.65,1.25,0,0,0,0,0-.01l-.84-1.46c-.07-.12-.22-.16-.34-.09-.12,.07-.16,.22-.09,.34l.84,1.46s.01,.01,.02,.02c-.64,.35-1.32,.63-2.03,.84,0,0,0,0,0,0l-.44-1.62c-.04-.13-.17-.21-.31-.18-.13,.04-.21,.17-.18,.31l.44,1.62s0,0,0,0c-.66,.16-1.34,.25-2.04,.28v-3.13c0-.21-.17-.38-.38-.38s-.38,.17-.38,.38v3.13c-.7-.03-1.38-.12-2.03-.28l.43-1.6c.04-.13-.04-.27-.18-.31-.13-.03-.27,.04-.31,.18l-.43,1.61c-.7-.21-1.38-.48-2.01-.83l.83-1.44c.07-.12,.03-.27-.09-.34-.12-.07-.27-.03-.34,.09l-.82,1.43c-.59-.36-1.13-.77-1.63-1.23l1.96-1.96c.15-.15,.15-.38,0-.53s-.38-.15-.53,0l-1.96,1.96c-.47-.5-.88-1.04-1.24-1.62l1.42-.82c.12-.07,.16-.22,.09-.34-.07-.12-.22-.16-.34-.09l-1.42,.82c-.35-.63-.63-1.3-.84-2l1.59-.43c.13-.04,.21-.17,.18-.31-.04-.13-.17-.21-.31-.18l-1.58,.42c-.16-.65-.26-1.33-.29-2.02h3.1c.21,0,.38-.17,.38-.38s-.17-.38-.38-.38h-3.11c.02-.7,.11-1.37,.26-2.03l1.59,.43s.04,0,.06,0c.11,0,.21-.07,.24-.19,.04-.13-.04-.27-.18-.31l-1.6-.43c.2-.71,.47-1.38,.81-2.02l1.44,.83s.08,.03,.12,.03c.09,0,.17-.04,.22-.12,.07-.12,.03-.27-.09-.34l-1.43-.83c.35-.59,.76-1.14,1.22-1.64l1.98,1.98c.07,.07,.17,.11,.27,.11s.19-.04,.27-.11c.15-.15,.15-.38,0-.53l-1.99-1.99c.5-.47,1.04-.89,1.62-1.26l.84,1.45c.05,.08,.13,.12,.22,.12,.04,0,.09-.01,.12-.03,.12-.07,.16-.22,.09-.34l-.84-1.46s0,0,0,0c.64-.36,1.31-.65,2.02-.86,0,0,0,.02,0,.02l.43,1.62c.03,.11,.13,.19,.24,.19,.02,0,.04,0,.06,0,.13-.04,.21-.17,.18-.31l-.43-1.62s0,0-.01-.02c.66-.17,1.34-.27,2.05-.3v3.17c0,.21,.17,.38,.38,.38s.38-.17,.38-.38v-3.18c.71,.02,1.4,.11,2.06,.27,0,.01-.02,.02-.03,.03l-.44,1.62c-.04,.13,.04,.27,.18,.31,.02,0,.04,0,.06,0,.11,0,.21-.07,.24-.19l.44-1.62s0-.03,0-.05c.73,.21,1.42,.48,2.07,.83-.01,.01-.04,.02-.05,.04l-.84,1.46c-.07,.12-.03,.27,.09,.34,.04,.02,.08,.03,.12,.03,.09,0,.17-.04,.22-.12l.84-1.46s0-.03,0-.05c.6,.36,1.16,.78,1.67,1.25l-2.03,2.03c-.15,.15-.15,.38,0,.53,.07,.07,.17,.11,.27,.11s.19-.04,.27-.11l2.03-2.03c.48,.51,.9,1.06,1.27,1.66-.02,0-.04,0-.06,0l-1.46,.84c-.12,.07-.16,.22-.09,.34,.05,.08,.13,.12,.22,.12,.04,0,.09-.01,.12-.03l1.46-.84s.03-.04,.04-.06c.36,.65,.66,1.35,.87,2.08-.02,0-.05-.02-.07,0l-1.62,.44c-.13,.04-.21,.17-.18,.31,.03,.11,.13,.19,.24,.19,.02,0,.04,0,.06,0l1.62-.44s.03-.03,.05-.04c.17,.67,.27,1.36,.29,2.07h-3.2c-.21,0-.38,.17-.38,.38s.17,.38,.38,.38Z" />
    <circle cx="40.37" cy="33.1" r="3.42" />
    <path d="M40.37,27.28c-3.21,0-5.82,2.61-5.82,5.82s2.61,5.82,5.82,5.82,5.82-2.61,5.82-5.82-2.61-5.82-5.82-5.82Zm0,10.33c-2.49,0-4.51-2.02-4.51-4.51s2.02-4.51,4.51-4.51,4.51,2.02,4.51,4.51-2.02,4.51-4.51,4.51Z" />
    <path d="M20.7,40.89c-.69,0-1.25-.56-1.25-1.25v-12.89c0-.69,.56-1.25,1.25-1.25s1.25,.56,1.25,1.25v12.89c0,.69-.56,1.25-1.25,1.25Z" />
    <rect x=".36" y=".36" width="71.28" height="71.28" fill="none"/>
</svg>