<?xml version="1.0" encoding="UTF-8"?>
<svg xmlns="http://www.w3.org/2000/svg" viewBox="0 0 72 72">
    <path d="M35.96,7.75c-15.62,0-28.32,12.7-28.32,28.32s12.7,28.32,28.32,28.32,28.32-12.7,28.32-28.32S51.57,7.75,35.96,7.75Zm17.95,12.3l-.75,9.98-21.64,18.77-9.26-9.26,1.46-4.63,6.32,7.01c.35,.39,.84,.61,1.36,.62h0c.55,0,1.02-.2,1.38-.57l21.12-21.91Zm-17.95,41.34c-13.96,0-25.32-11.36-25.32-25.32S21.99,10.75,35.96,10.75c6.5,0,12.43,2.46,16.91,6.5-.42,.15-.8,.39-1.12,.72l-20.29,21.05-5.51-6.11c-.58-.64-1.39-.99-2.23-.99-.21,0-.43,.02-.64,.07-1.05,.23-1.9,1-2.22,2.03l-1.46,4.63c-.34,1.07-.05,2.23,.74,3.02l9.26,9.26c.58,.58,1.35,.88,2.12,.88,.7,0,1.4-.24,1.97-.73l21.64-18.77c.6-.52,.97-1.25,1.03-2.04l.64-8.55c2.82,4.08,4.48,9.03,4.48,14.36,0,13.96-11.36,25.32-25.32,25.32Z" />
    <rect x=".36" y=".36" width="71.28" height="71.28" fill="none"/>
</svg>