<?xml version="1.0" encoding="UTF-8"?>
<svg xmlns="http://www.w3.org/2000/svg" viewBox="0 0 72 72">
  <path d="M53.29,7.43H18.73c-5.71,0-9.54,3.82-9.54,9.5V54.99c0,5.68,3.84,9.5,9.54,9.5H53.29c5.71,0,9.54-3.82,9.54-9.5V16.94c0-5.68-3.84-9.5-9.54-9.5Zm6.54,9.5v27.71l-12.51-13.3c3.9-4.32,6.28-10.03,6.28-16.29,0-1.56-.15-3.1-.44-4.62h.13c4.04,0,6.54,2.49,6.54,6.5Zm-47.65,2.62c2,7.58,8.89,13.19,17.08,13.19,3.96,0,7.61-1.33,10.56-3.53l3.21,3.41c-3.8,2.99-8.58,4.77-13.78,4.77-6.35,0-12.42-2.72-16.66-7.45-.12-.13-.27-.21-.42-.26v-10.13Zm8.77-9.12h4.1c-1.26,1.15-2.06,2.79-2.06,4.63,0,3.45,2.81,6.26,6.26,6.26,.93,0,1.81-.21,2.61-.57l2.31,2.46c-1.44,.87-3.12,1.38-4.92,1.38-5.25,0-9.53-4.27-9.53-9.53,0-1.63,.43-3.22,1.22-4.63Zm16.61,0c.79,1.41,1.23,2.99,1.23,4.63,0,2.01-.63,3.87-1.69,5.41l-2.31-2.46c.47-.88,.74-1.89,.74-2.95,0-1.83-.8-3.48-2.06-4.63h4.1Zm-4.28,5.98l-2.47-2.63c-.76-.8-2.02-.84-2.83-.09-.8,.76-.84,2.02-.09,2.83l2.47,2.63c-.36,.1-.72,.17-1.11,.17-2.35,0-4.26-1.91-4.26-4.26s1.91-4.26,4.26-4.26,4.26,1.91,4.26,4.26c0,.48-.1,.93-.24,1.36Zm7.51-1.36c0-1.61-.34-3.18-.97-4.63h4.42c.46,1.49,.71,3.05,.71,4.63,0,3.78-1.34,7.25-3.58,9.96l-2.88-3.07c1.44-1.92,2.31-4.3,2.31-6.89Zm10.32-4.63c.32,1.51,.49,3.06,.49,4.62,0,5.69-2.14,10.88-5.65,14.83l-3.2-3.41c2.62-3.08,4.2-7.07,4.2-11.42,0-1.57-.21-3.12-.62-4.63h4.79Zm-32.41,0c-.64,1.45-.97,3.02-.97,4.63,0,6.36,5.17,11.53,11.53,11.53,2.33,0,4.5-.7,6.31-1.89l2.87,3.05c-2.58,1.88-5.75,3-9.18,3-8.65,0-15.68-7.04-15.68-15.68,0-.93,.08-1.85,.24-2.75,1.13-1.2,2.8-1.87,4.88-1.87Zm-6.52,44.56v-22.6c4.54,4.47,10.68,7,17.08,7,5.72,0,10.99-1.99,15.15-5.31l11.67,12.41-11.56,10.88-6.47-6.99c.25-.6,.39-1.26,.39-1.95,0-2.77-2.25-5.02-5.02-5.02s-5.02,2.25-5.02,5.02,2.25,5.02,5.02,5.02c.6,0,1.18-.12,1.71-.32l7.73,8.35H18.73c-4.04,0-6.54-2.49-6.54-6.5Zm41.11,6.5h-7.3l13.84-13.04v6.53c0,4.01-2.51,6.5-6.54,6.5Z" />
  <rect x=".36" y=".36" width="71.28" height="71.28" fill="none"/>
</svg>