<?xml version="1.0" encoding="UTF-8"?>
<svg xmlns="http://www.w3.org/2000/svg" viewBox="0 0 72 72">
    <polygon points="34.52 20.65 34.52 18.06 57.04 18.06 57.04 20.65 34.52 20.65 34.52 20.65" />
    <polygon points="16.02 20.65 16.02 18.06 27.79 18.06 27.79 20.65 16.02 20.65 16.02 20.65" />
    <polygon points="34.52 27.19 34.52 24.6 57.04 24.6 57.04 27.19 34.52 27.19 34.52 27.19" />
    <polygon points="16.02 27.19 16.02 24.6 27.79 24.6 27.79 27.19 16.02 27.19 16.02 27.19" />
    <polygon points="34.52 33.73 34.52 31.14 57.04 31.14 57.04 33.73 34.52 33.73 34.52 33.73" />
    <polygon points="16.02 33.73 16.02 31.14 27.79 31.14 27.79 33.73 16.02 33.73 16.02 33.73" />
    <polygon points="34.52 40.27 34.52 37.68 57.04 37.68 57.04 40.26 34.52 40.26 34.52 40.27" />
    <polygon points="34.52 46.81 34.52 44.22 57.04 44.22 57.04 46.8 34.52 46.8 34.52 46.81" />
    <polygon points="34.52 53.34 34.52 50.76 57.04 50.76 57.04 53.34 34.52 53.34 34.52 53.34" />
    <path d="M60.59,64.72H11.94c-2.41,0-4.36-1.96-4.36-4.37V11.68c0-2.41,1.96-4.37,4.36-4.37H60.59c2.41,0,4.36,1.96,4.36,4.37V60.35c0,2.41-1.96,4.37-4.36,4.37ZM11.94,10.81c-.48,0-.86,.39-.86,.87V60.35c0,.48,.39,.87,.86,.87H60.59c.48,0,.86-.39,.86-.87V11.68c0-.48-.39-.87-.86-.87H11.94Z" />
    <rect x=".36" y=".36" width="71.28" height="71.28" fill="none"/>
</svg>