<?xml version="1.0" encoding="UTF-8"?>
<svg xmlns="http://www.w3.org/2000/svg" viewBox="0 0 72 72">
      <polygon points="37.27 19.13 37.27 28.11 41.47 23.99 37.27 19.13" fill="gray"/>
      <polygon points="37.27 43.64 41.5 38.52 37.27 34.26 37.27 43.64" fill="gray"/>
      <path d="M52.69,48.21h-2.55c1.28-2.16,2.02-4.68,2.02-7.38V21.17c0-8.02-6.5-14.52-14.52-14.52h-2.89c-8.02,0-14.52,6.5-14.52,14.52v19.66c0,2.7,.74,5.22,2.02,7.38h-2.5c-2.62,0-4.75,2.13-4.75,4.75v6.69c0,2.62,2.13,4.75,4.75,4.75H52.69c2.62,0,4.75-2.13,4.75-4.75v-6.69c0-2.62-2.13-4.75-4.75-4.75Zm-23.7-8.28l-1.85-1.89,7.03-6.9-7.05-7.09,1.88-1.86,5.62,5.66V12.03l10.47,12.11-7.17,7.03,7.14,7.19-8.14,9.86h-2.3v-13.8l-5.64,5.52Zm26.95,19.72c0,1.79-1.46,3.25-3.25,3.25H19.76c-1.79,0-3.25-1.46-3.25-3.25v-6.69c0-1.79,1.46-3.25,3.25-3.25H52.69c1.79,0,3.25,1.46,3.25,3.25v6.69Z" fill="gray"/>
      <path d="M25.87,60.41c-.91,0-1.64-.29-2.19-.88s-.82-1.33-.82-2.23v-.23c0-.94,.26-1.72,.78-2.33s1.21-.91,2.08-.91c.86,0,1.52,.26,1.99,.77s.71,1.21,.71,2.09v.93h-3.79v.04c.02,.42,.16,.76,.41,1.03,.25,.27,.58,.4,1.01,.4,.38,0,.69-.04,.94-.11s.52-.19,.82-.36l.46,1.05c-.26,.21-.6,.39-1.01,.52s-.88,.21-1.39,.21Zm-.15-5.26c-.32,0-.57,.12-.75,.36s-.3,.56-.34,.96l.02,.03h2.1v-.15c0-.36-.08-.65-.25-.87s-.43-.33-.77-.33Z" fill="gray"/>
      <path d="M34.68,58.06c0-.33-.12-.59-.35-.79s-.64-.39-1.22-.56c-1.02-.29-1.78-.64-2.3-1.04s-.78-.95-.78-1.65,.3-1.27,.89-1.71,1.36-.67,2.28-.67,1.7,.25,2.29,.75,.88,1.11,.86,1.84v.04h-1.67c0-.39-.13-.71-.4-.96s-.63-.37-1.11-.37-.81,.1-1.06,.3-.38,.46-.38,.78c0,.29,.13,.53,.4,.71s.73,.38,1.39,.59c.94,.26,1.65,.61,2.14,1.04s.73,.99,.73,1.69-.29,1.31-.86,1.73-1.34,.63-2.28,.63-1.74-.24-2.43-.72-1.03-1.15-1.01-2.01v-.04h1.68c0,.51,.16,.88,.47,1.12s.74,.35,1.3,.35c.46,0,.82-.1,1.07-.29s.37-.45,.37-.77Z" fill="gray"/>
      <path d="M40.61,60.41c-.91,0-1.64-.29-2.19-.88s-.82-1.33-.82-2.23v-.23c0-.94,.26-1.72,.78-2.33s1.21-.91,2.08-.91c.86,0,1.52,.26,1.99,.77s.71,1.21,.71,2.09v.93h-3.79v.04c.02,.42,.16,.76,.41,1.03,.25,.27,.58,.4,1.01,.4,.38,0,.69-.04,.94-.11s.52-.19,.82-.36l.46,1.05c-.26,.21-.6,.39-1.01,.52s-.88,.21-1.39,.21Zm-.15-5.26c-.32,0-.57,.12-.75,.36s-.3,.56-.34,.96l.02,.03h2.1v-.15c0-.36-.08-.65-.25-.87s-.43-.33-.77-.33Z" fill="gray"/>
      <path d="M47.32,59.1c.3,0,.55-.09,.73-.27,.18-.18,.28-.41,.28-.71h1.55l.02,.04c.02,.64-.23,1.18-.72,1.61s-1.12,.65-1.85,.65c-.95,0-1.67-.3-2.19-.9s-.77-1.37-.77-2.3v-.18c0-.93,.25-1.7,.76-2.3s1.24-.9,2.18-.9c.78,0,1.41,.22,1.89,.67s.71,1.03,.69,1.76v.04h-1.57c0-.33-.09-.6-.27-.82s-.43-.33-.74-.33c-.45,0-.77,.18-.96,.53-.19,.35-.28,.8-.28,1.36v.18c0,.57,.09,1.02,.28,1.37s.51,.52,.96,.52Z" fill="gray"/>
    <rect x=".36" y=".36" width="71.28" height="71.28" fill="none"/>
</svg>