<?xml version="1.0" encoding="UTF-8"?>
<svg xmlns="http://www.w3.org/2000/svg" viewBox="0 0 72 72">
    <path d="M50.78,20.48l-4.83-4.7c-.39-.38-1.02-.38-1.41,.01l-27.57,27.74c-.09,.09-.16,.2-.21,.32l-3.39,8.08c-.16,.37-.07,.8,.21,1.09,.19,.19,.45,.29,.71,.29,.13,0,.26-.02,.38-.08l8.22-3.39c.12-.05,.23-.12,.33-.22l2.4-2.41c.39-.39,.39-1.02,0-1.41-.39-.39-1.02-.39-1.41,0l-2.26,2.27-5.79,2.39,2.38-5.67,23.5-23.65,3.4,3.3-9.13,9.2c-.39,.39-.39,1.03,0,1.41,.39,.39,1.02,.39,1.41,0l13.08-13.17c.19-.19,.29-.45,.29-.71,0-.27-.11-.52-.3-.71Zm-4.29,2.92l-3.4-3.3,2.18-2.19,3.39,3.3-2.18,2.19Z" />
    <path d="M53.12,64.52H18.94c-6.34,0-11.5-5.16-11.5-11.5V18.84c0-6.34,5.16-11.5,11.5-11.5H53.12c6.34,0,11.5,5.16,11.5,11.5V53.02c0,6.34-5.16,11.5-11.5,11.5ZM18.94,10.34c-4.69,0-8.5,3.81-8.5,8.5V53.02c0,4.69,3.81,8.5,8.5,8.5H53.12c4.69,0,8.5-3.81,8.5-8.5V18.84c0-4.69-3.81-8.5-8.5-8.5H18.94Z" />
    <path d="M29.45,37.42h2.2c1.72,0,2.59,1.07,2.59,3.21,0,.82-.11,1.42-.34,1.82s-.62,.7-1.19,.9c.65,.26,1.1,.59,1.34,1,.25,.4,.37,1,.37,1.81,0,2.21-.95,3.32-2.84,3.32h-2.12v-12.06Zm1.53,5.31c.63,0,1.07-.15,1.31-.44,.25-.31,.37-.85,.37-1.62,0-1.3-.47-1.95-1.41-1.95h-.2s-.07,0-.08,0v4Zm0,5.36c.67,0,1.13-.14,1.38-.43s.38-.8,.38-1.55-.13-1.31-.4-1.62c-.26-.31-.72-.47-1.37-.47v4.07Z" />
    <path d="M35.36,43.23h2.34v1.22h-2.34v-1.22Z" />
    <path d="M42.9,37.67v1.59c-.5-.35-.94-.53-1.34-.53-.43,0-.78,.15-1.05,.45-.27,.29-.41,.67-.41,1.15,0,.42,.1,.78,.29,1.09,.1,.16,.26,.37,.49,.62s.52,.56,.88,.92c.66,.67,1.11,1.25,1.35,1.74,.24,.47,.36,1.05,.36,1.74,0,.93-.26,1.7-.79,2.3-.53,.59-1.2,.88-2.02,.88-.69,0-1.28-.19-1.77-.57v-1.61c.58,.42,1.1,.63,1.58,.63,.44,0,.79-.15,1.04-.44s.38-.69,.38-1.2c0-.44-.1-.83-.29-1.18-.1-.17-.24-.36-.41-.57s-.4-.46-.66-.72c-.41-.41-.75-.77-1.02-1.08s-.47-.59-.6-.82c-.25-.46-.38-1.04-.38-1.73,0-.94,.25-1.69,.73-2.24,.5-.56,1.16-.84,1.99-.84,.58,0,1.13,.14,1.66,.41Z" />
    <path d="M48.87,37.67v1.59c-.5-.35-.94-.53-1.34-.53-.43,0-.78,.15-1.05,.45-.27,.29-.41,.67-.41,1.15,0,.42,.1,.78,.29,1.09,.1,.16,.26,.37,.49,.62s.52,.56,.88,.92c.66,.67,1.11,1.25,1.35,1.74,.24,.47,.36,1.05,.36,1.74,0,.93-.26,1.7-.79,2.3-.53,.59-1.2,.88-2.02,.88-.69,0-1.28-.19-1.77-.57v-1.61c.58,.42,1.1,.63,1.58,.63,.44,0,.79-.15,1.04-.44s.38-.69,.38-1.2c0-.44-.1-.83-.29-1.18-.1-.17-.24-.36-.41-.57s-.4-.46-.66-.72c-.41-.41-.75-.77-1.02-1.08s-.47-.59-.6-.82c-.25-.46-.38-1.04-.38-1.73,0-.94,.25-1.69,.73-2.24,.5-.56,1.16-.84,1.99-.84,.58,0,1.13,.14,1.66,.41Z" />
    <path d="M56.86,43.75c0,2.13-.24,3.64-.71,4.54s-1.27,1.34-2.38,1.34c-1.17,0-2-.48-2.48-1.45-.47-.94-.71-2.62-.71-5.02,0-2.15,.23-3.66,.7-4.55,.47-.9,1.28-1.34,2.41-1.34,1.01,0,1.76,.35,2.25,1.04,.32,.46,.56,1.12,.7,1.98,.15,.79,.22,1.95,.22,3.47Zm-1.7,.17c0-2.09-.09-3.47-.28-4.16-.19-.69-.57-1.03-1.15-1.03s-.96,.32-1.16,.95c-.19,.64-.28,1.91-.28,3.83,0,1.77,.1,2.99,.3,3.67,.2,.65,.58,.97,1.14,.97s.92-.3,1.12-.91c.2-.6,.3-1.71,.3-3.32Z" />
    <rect x=".36" y=".36" width="71.28" height="71.28" fill="none"/>
</svg>