<?xml version="1.0" encoding="UTF-8"?>
<svg xmlns="http://www.w3.org/2000/svg" viewBox="0 0 72 72">
    <path d="M53.59,20.63c-.57,0-1.11,.04-1.63,.11-3.22-5.8-9.27-9.37-15.95-9.37-8.92,0-16.47,6.41-17.98,15.06-.79-.18-1.6-.28-2.43-.28-5.99,0-10.86,4.87-10.86,10.86s4.76,10.71,10.65,10.82h8.65c.2,0,.39-.04,.58-.1v4.67c0,.54,.29,1.04,.76,1.3,2.57,1.46,6.09,2.15,11.07,2.15s8.54-.69,11.12-2.18c.46-.27,.75-.76,.75-1.3v-4.67c.22,.08,.45,.13,.69,.13h0l5.13-.02c6.93-.27,12.36-6.23,12.36-13.58s-5.79-13.61-12.91-13.61Zm-8.27,30.84c-2.06,.94-4.98,1.39-8.87,1.39s-6.78-.45-8.83-1.37v-8.46c2.05-.92,4.95-1.37,8.83-1.37s6.82,.46,8.87,1.39v8.41Zm-4.05-12.53c-1.44-.18-3.03-.27-4.82-.27s-3.39,.09-4.82,.27v-3.06c0-2.66,2.16-4.82,4.82-4.82s4.82,2.16,4.82,4.82v3.06Zm12.79,4.88l-5.06,.02c-.24,0-.47,.05-.68,.13v-1.82c0-.54-.29-1.03-.75-1.3-.96-.55-2.05-.99-3.3-1.33v-3.63c0-4.31-3.51-7.82-7.82-7.82s-7.82,3.51-7.82,7.82v3.63c-1.23,.33-2.3,.76-3.25,1.3-.47,.27-.76,.76-.76,1.3v1.81c-.18-.06-.37-.09-.58-.09H15.44c-3.69-.07-6.69-3.13-6.69-6.82s3.08-6.86,6.86-6.86c.76,0,1.49,.12,2.17,.36,.89,.31,1.86,.21,2.66-.3,.8-.5,1.32-1.32,1.43-2.26,.83-7.18,6.92-12.59,14.16-12.59,5.4,0,10.26,2.98,12.7,7.79,.64,1.25,2.04,1.91,3.41,1.62,.44-.1,.93-.14,1.47-.14,4.92,0,8.91,4.31,8.91,9.61s-3.74,9.39-8.44,9.58Z" />
    <rect x=".36" y=".36" width="71.28" height="71.28" fill="none"/>
</svg>