<?xml version="1.0" encoding="UTF-8"?>
<svg xmlns="http://www.w3.org/2000/svg"  viewBox="0 0 72 72">
  <path d="M62.83,43.03c-1.1,0-2,.9-2,2v12.84l-12.54-12.54c2.99-3.51,4.94-7.92,5.37-12.77,0-.04,0-.09,.01-.13,.05-.64,.09-1.28,.09-1.93,0-12.62-10.27-22.89-22.89-22.89S7.98,17.88,7.98,30.5c0,.66,.03,1.32,.09,1.97,0,.04,0,.08,0,.12,1.06,11.65,10.87,20.8,22.79,20.8,5.53,0,10.61-1.97,14.57-5.25l12.56,12.56h-13.33c-1.1,0-2,.9-2,2s.9,2,2,2h18.15c1.1,0,2-.9,2-2v-17.67c0-1.1-.9-2-2-2Zm-12.37-12.53c0,.62-.04,1.22-.09,1.83-.03,.36-.09,.72-.15,1.08-.03,.21-.06,.43-.1,.64-.09,.48-.2,.95-.33,1.43-.02,.08-.04,.15-.06,.23-.14,.52-.31,1.03-.5,1.54-1.53,4.15-4.42,7.64-8.14,9.93,1.14-1.91,1.81-4.13,1.81-6.48,0-7.37-4.75-12.12-12.09-12.12-5.5,0-8.79-3.3-8.79-8.82,0-4.85,3.94-8.79,8.79-8.79,.11,0,.22-.01,.32-.03,10.68,.14,19.33,8.86,19.33,19.58Zm-37.92,6.85c-.19-.52-.37-1.04-.52-1.57-.02-.07-.04-.15-.06-.22-.13-.49-.25-.97-.34-1.46-.04-.21-.07-.43-.1-.64-.06-.37-.12-.74-.15-1.11-.06-.61-.09-1.22-.09-1.84,0-6.83,3.52-12.84,8.83-16.35-.88,1.68-1.38,3.58-1.38,5.6,0,7.37,4.75,12.12,12.09,12.12,5.5,0,8.79,3.3,8.79,8.82,0,4.97-4.17,9.33-8.93,9.33-.12,0-.23,.01-.34,.04-8.16-.22-15.07-5.45-17.8-12.72Z" />
  <circle cx="30.81" cy="19.8" r="2.02" />
  <circle cx="30.81" cy="40.91" r="2.02" />
  <rect x=".36" y=".36" width="71.28" height="71.28" fill="none"/>
</svg>