<?xml version="1.0" encoding="UTF-8"?>
<svg xmlns="http://www.w3.org/2000/svg" viewBox="0 0 72 72">
  <path d="M59.65,11.95H12.47c-2.65,0-4.81,2.16-4.81,4.81V50.32c0,2.65,2.16,4.81,4.81,4.81h23.61v-3H12.47c-1,0-1.81-.81-1.81-1.81V22.86l24.3,20.72c.28,.24,.63,.36,.97,.36s.69-.12,.97-.36l24.54-20.93v15.96h3V16.76c0-2.65-2.16-4.81-4.81-4.81Zm-23.71,28.52L10.67,18.92v-2.16c0-1,.81-1.81,1.81-1.81H59.65c1,0,1.81,.81,1.81,1.81v1.96l-25.51,21.76Z" />
  <path d="M59.46,44.88l-1.06,8.82c-.04,.33-.08,.64-.09,.93-.02,.3-.03,.57-.03,.83,0,.84,.35,1.26,1.04,1.26,.97,0,1.86-.69,2.65-2.07,.78-1.35,1.18-2.9,1.18-4.63,0-2.75-.96-5.01-2.89-6.77-1.91-1.78-4.36-2.67-7.34-2.67s-5.73,1.06-7.86,3.19-3.17,4.74-3.17,7.86c0,1.72,.38,3.41,1.14,5.07,.77,1.56,1.85,2.84,3.24,3.85,1.86,1.34,4.19,2.02,6.99,2.02,2.62,0,5.36-.67,8.23-2l.25-.13,.87,2.42-.2,.1c-2.92,1.41-5.97,2.12-9.14,2.12-3.5,0-6.44-.85-8.8-2.54-1.74-1.23-3.09-2.8-4.06-4.72-.96-2.02-1.44-4.06-1.44-6.15,0-3.8,1.34-6.98,4.01-9.55,2.68-2.57,5.98-3.86,9.91-3.86,3.62,0,6.64,1.11,9.08,3.32,2.43,2.19,3.64,4.94,3.64,8.25,0,2.55-.66,4.74-1.98,6.57-1.33,1.85-2.89,2.77-4.69,2.77-1.43,0-2.41-.68-2.92-2.03-1.38,1.41-2.91,2.12-4.6,2.12-1.85,0-3.39-.67-4.62-2-1.21-1.32-1.81-3.01-1.81-5.05,0-2.21,.68-4.02,2.03-5.44,1.35-1.45,3.06-2.18,5.1-2.18,1.88,0,3.4,.73,4.55,2.18l.24-1.86h2.54Zm-3.43,6.48c0-1.04-.35-1.91-1.06-2.6-.73-.69-1.61-1.04-2.65-1.04-1.13,0-2.05,.44-2.77,1.31-.73,.86-1.09,1.96-1.09,3.31,0,1.16,.29,2.12,.87,2.87,.58,.75,1.33,1.13,2.25,1.13,1.18,0,2.21-.5,3.11-1.49,.9-1,1.34-2.15,1.34-3.48Z" />
  <rect x=".36" y=".36" width="71.28" height="71.28" fill="none"/>
</svg>