<?xml version="1.0" encoding="utf-8"?>
<svg xmlns="http://www.w3.org/2000/svg" x="0px" y="0px"
	 viewBox="0 0 72 72" >
<path d="M41.3,60.9c-0.3,0-0.7-0.1-0.9-0.4l-1.8-1.8l1.8-1.8l0.9,0.9l0.9-0.9l1.8,1.8l-1.8,1.8C42,60.7,41.7,60.9,41.3,60.9z"/>
	<rect x="21.7" y="38.8" transform="matrix(0.7071 -0.7071 0.7071 0.7071 -22.4224 28.2662)" width="2.5" height="4.7"/>
	<rect x="30.8" y="48" transform="matrix(0.7071 -0.7071 0.7071 0.7071 -26.2168 37.427)" width="2.5" height="4.7"/>
	<rect x="26.2" y="43.4" transform="matrix(0.7071 -0.7071 0.7071 0.7071 -24.3197 32.847)" width="2.5" height="4.7"/>
<path d="M19.1,39.2l-1.8-1.8c-0.5-0.5-0.5-1.3,0-1.8l1.8-1.8l1.8,1.8L20,36.5l0.9,0.9L19.1,39.2L19.1,39.2z"/>
	<path d="M57.3,36c0-0.4-0.2-0.9-0.5-1.2l0,0L33,11c-0.6-0.6-1.7-0.6-2.4,0L6.7,35c-0.6,0.7-0.6,1.7,0,2.4l23.8,23.8
		c0.3,0.3,0.8,0.5,1.2,0.5s0.8-0.2,1.2-0.5L37,57l0.5,0.5l1.8-1.8l-0.5-0.5l18.1-18.1C57.1,36.9,57.3,36.5,57.3,36z M36.9,53.4l-1-1
		l-1.8,1.8l1,1l-3.4,3.4h0L9.3,36.2l22.5-22.5l3.7,3.7l-1.5,1.5l1.8,1.8l1.5-1.5L54.2,36L36.9,53.4z"/>
	<rect x="20.5" y="30.6" transform="matrix(0.7071 -0.7071 0.7071 0.7071 -15.7859 25.5103)" width="4.7" height="2.5"/>
	<rect x="25.1" y="26" transform="matrix(0.7071 -0.7071 0.7071 0.7071 -11.2058 27.4068)" width="4.7" height="2.5"/>
	<rect x="29.7" y="21.4" transform="matrix(0.7071 -0.7071 0.7071 0.7071 -6.6258 29.3039)" width="4.7" height="2.5"/>
<path d="M42.2,16l-0.9-0.9L40.5,16l-1.8-1.8l1.8-1.8c0.5-0.5,1.3-0.5,1.8,0l1.8,1.8L42.2,16L42.2,16z"/>
<path d="M60.6,34.4L57.2,31l1.8-1.8l3.3,3.3L60.6,34.4z M56,29.8l-3.3-3.3l1.8-1.8l3.3,3.3C57.8,28,56,29.8,56,29.8z M51.4,25.2
	l-3.3-3.3l1.8-1.8l3.3,3.3C53.2,23.4,51.4,25.2,51.4,25.2z M46.8,20.6l-3.3-3.3l1.8-1.8l3.3,3.3C48.6,18.9,46.8,20.6,46.8,20.6z"/>
<path d="M63.6,39.2l-1.8-1.8l0.9-0.9l-0.9-0.9l1.8-1.8l1.8,1.8c0.5,0.5,0.5,1.3,0,1.8L63.6,39.2L63.6,39.2z"/>
<path d="M45.2,57.5l-1.8-1.8l3.3-3.3l1.8,1.8C48.6,54.2,45.2,57.5,45.2,57.5z M49.8,52.9l-1.8-1.8l3.3-3.3l1.8,1.8L49.8,52.9z
	 M54.4,48.3l-1.8-1.8l3.3-3.3l1.8,1.8L54.4,48.3z M59,43.8L57.2,42l3.3-3.3l1.8,1.8L59,43.8z"/>
<path d="M40.9,37.3c-1.3,2.1-2.7,3.9-4.2,5.2c-1.5,1.3-2.9,2-4,2c-1.6,0-2.3-1.3-2.3-3.8c0-3.5,1.1-6.5,3.4-9c2.3-2.5,5-3.8,8.1-3.8
	c1.2,0,2.2,0.1,3,0.4c-0.1,0.2-0.1,0.3-0.1,0.4l-0.2,0.9c-0.1,0.6-0.2,1-0.2,1.1l-1.1,7.5L43,39.5c-0.2,1.1-0.2,1.8-0.2,2.2
	c0,0.5,0.1,0.7,0.4,0.7c1,0,1.9-1.1,2.9-3.2c0.3,0.2,0.5,0.4,0.5,0.5c0,0.4-0.5,1.2-1.5,2.4c-1.3,1.6-2.6,2.5-3.7,2.5
	c-0.8,0-1.2-0.6-1.2-1.7c0-0.3,0-0.8,0.1-1.4l0.2-1.4l0.2-1.5L40.9,37.3L40.9,37.3z M41.9,30.6c-1-0.6-2.1-0.9-3.2-0.9
	c-1.6,0-2.9,1-4,2.9s-1.6,4.4-1.6,7.2c0,1.5,0.4,2.2,1.3,2.2c1,0,2.2-0.8,3.7-2.3c1.9-2.1,3.1-4.5,3.5-7.3L41.9,30.6L41.9,30.6z"/>
</svg>
