<?xml version="1.0" encoding="UTF-8"?>
<svg xmlns="http://www.w3.org/2000/svg" viewBox="0 0 72 72">
  <defs>
    <style>
      .cls-1 {
        fill: none;
      }

      .cls-2 {
        fill: black;
      }
    </style>
  </defs>
  <g id="SVG_icons" data-name="SVG icons">
    <rect class="cls-2" x="21.39" y="16.58" width="17.67" height="3"/>
    <path class="cls-2" d="M49.96,24.54h-27.97c-.55,0-1,.45-1,1v5.6c0,.55.45,1,1,1h27.97c.55,0,1-.45,1-1v-5.6c0-.55-.45-1-1-1ZM48.96,30.14h-25.97v-3.6h25.97v3.6Z"/>
    <path class="cls-2" d="M21.99,42.01h15.16c.55,0,1-.45,1-1v-5.6c0-.55-.45-1-1-1h-15.16c-.55,0-1,.45-1,1v5.6c0,.55.45,1,1,1ZM22.99,36.41h13.16v3.6h-13.16v-3.6Z"/>
    <path class="cls-2" d="M49.96,34.41h-8.81c-.55,0-1,.45-1,1v5.6c0,.55.45,1,1,1h8.81c.55,0,1-.45,1-1v-5.6c0-.55-.45-1-1-1ZM48.96,40.01h-6.81v-3.6h6.81v3.6Z"/>
    <path class="cls-2" d="M56.23,7.33H16.14c-1.93,0-3.5,1.57-3.5,3.5v50.58c0,1.93,1.57,3.5,3.5,3.5l39.85-.02h.1s.1.02.15.02c1.93,0,3.5-1.57,3.5-3.5V10.83c0-1.93-1.57-3.5-3.5-3.5ZM56.73,61.41c0,.26-.2.47-.45.5h-.08s-.1-.02-.15-.02h0l-39.92.02c-.28,0-.5-.22-.5-.5V10.83c0-.28.22-.5.5-.5h40.1c.28,0,.5.22.5.5v50.58Z"/>
  </g>
  <g id="Rectangles">
    <rect class="cls-1" x=".36" y=".36" width="71.28" height="71.28"/>
  </g>
</svg>