<?xml version="1.0" encoding="utf-8"?>
<!-- Generator: Adobe Illustrator 26.5.2, SVG Export Plug-In . SVG Version: 6.00 Build 0)  -->
<svg version="1.1" id="Layer_1" xmlns="http://www.w3.org/2000/svg" xmlns:xlink="http://www.w3.org/1999/xlink" x="0px" y="0px"
	 viewBox="0 0 72 72" style="enable-background:new 0 0 72 72;" xml:space="preserve">
<style type="text/css">
	.st0{fill:#808080;}
	.st1{fill:none;}
</style>
<path class="st0" d="M57.9,15.5H50V9.9c0-1.9-1.5-3.5-3.5-3.5c0,0,0,0,0,0H14.1c-1.9,0-3.5,1.6-3.5,3.5c0,0,0,0,0,0v42.2
	c0,1.9,1.6,3.5,3.5,3.5h8v5.3c0,1.8,1.4,3.2,3.2,3.2h32.6c1.8,0,3.2-1.5,3.2-3.2V18.7C61.1,16.9,59.7,15.5,57.9,15.5z M13.6,52.2
	V9.9c0-0.3,0.2-0.5,0.5-0.5h32.5c0.3,0,0.5,0.2,0.5,0.5v28.8H35.9c-1.9,0-3.5,1.6-3.5,3.5c0,0,0,0,0,0v10.4H14.1
	C13.8,52.6,13.6,52.4,13.6,52.2L13.6,52.2z M46.9,41.8L46.9,41.8L35.4,52.4V42.3c0-0.3,0.2-0.5,0.5-0.5H46.9z M58.6,60.9
	c0,0.4-0.3,0.7-0.7,0.7H25.4c-0.4,0-0.7-0.3-0.7-0.7v-5.3H35c0.9,0,1.7-0.3,2.3-0.9l11.6-10.7c0.7-0.7,1.1-1.6,1.1-2.6V18h7.9
	c0.4,0,0.7,0.3,0.7,0.7L58.6,60.9z"/>
<g>
	<rect x="72" class="st1" width="71.3" height="71.3"/>
	<rect x="0.2" y="0.4" class="st1" width="71.3" height="71.3"/>
</g>
<g>
	<rect x="36.1" y="15.7" class="st0" width="4.2" height="2"/>
	<rect x="30.2" y="15.7" class="st0" width="4.2" height="2"/>
	<rect x="42" y="15.7" class="st0" width="3.3" height="2"/>
</g>
<g>
	<rect x="22.4" y="40.6" class="st0" width="2" height="4.2"/>
	<rect x="22.4" y="34.7" class="st0" width="2" height="4.2"/>
	<rect x="22.4" y="28.8" class="st0" width="2" height="4.2"/>
	<path class="st0" d="M25.4,15.7c-1.8,0-3,1.2-3,3v2.6h2v-2.5c0-0.4,0.6-1,1-1h3.2v-2H25.4z"/>
	<rect x="22.4" y="22.9" class="st0" width="2" height="4.2"/>
	<rect x="22.4" y="46.4" class="st0" width="2" height="4.5"/>
</g>
</svg>
