<?xml version="1.0" encoding="UTF-8"?>
<svg xmlns="http://www.w3.org/2000/svg" viewBox="0 0 72 72">
    <path d="M60.84,10.93h-3.29v-1.07c0-2.31-1.88-4.19-4.18-4.19H25.97c-2.31,0-4.18,1.88-4.18,4.19v1.07h-4.36c-1.56,0-2.86,1.06-3.26,2.5h-3.49c-1.87,0-3.4,1.53-3.4,3.4V52.48c0,1.87,1.52,3.4,3.4,3.4h3.35v1.6c0,1.87,1.52,3.4,3.4,3.4h4.36v.8c0,2.31,1.88,4.19,4.18,4.19h7.68v-3h-7.68c-.65,0-1.18-.53-1.18-1.19V9.86c0-.65,.53-1.19,1.18-1.19h27.4c.65,0,1.18,.53,1.18,1.19V61.68c0,.65-.53,1.19-1.18,1.19h-8.07v3h8.07c2.31,0,4.18-1.88,4.18-4.19v-.8h3.29c1.87,0,3.4-1.52,3.4-3.4V14.33c0-1.87-1.52-3.4-3.4-3.4ZM10.68,53.38c-.49,0-.9-.4-.9-.9V16.83c0-.5,.4-.9,.9-.9h3.35V53.38h-3.35Zm11.11,5h-4.36c-.49,0-.9-.4-.9-.9V14.33c0-.5,.4-.9,.9-.9h4.36V58.38Zm39.95-.9c0,.5-.4,.9-.9,.9h-3.29V13.43h3.29c.49,0,.9,.4,.9,.9V57.48Z" />
    <path d="M44.76,18.03h-10.19c-.55,0-1-.45-1-1s.45-1,1-1h10.19c.55,0,1,.45,1,1s-.45,1-1,1Z" />
    <path d="M44.76,25.1h-10.19c-.55,0-1-.45-1-1s.45-1,1-1h10.19c.55,0,1,.45,1,1s-.45,1-1,1Z" />
    <rect x=".36" y=".36" width="71.28" height="71.28" fill="none"/>
</svg>