<?xml version="1.0" encoding="UTF-8"?>
<svg xmlns="http://www.w3.org/2000/svg" viewBox="0 0 72 72">
    <rect x="21.39" y="16.42" width="17.67" height="3" />
    <path d="M49.96,24.39H21.99c-.55,0-1,.45-1,1v5.6c0,.55,.45,1,1,1h27.97c.55,0,1-.45,1-1v-5.6c0-.55-.45-1-1-1Zm-1,5.6H22.99v-3.6h25.97v3.6Z" />
    <path d="M21.99,41.86h15.16c.55,0,1-.45,1-1v-5.6c0-.55-.45-1-1-1h-15.16c-.55,0-1,.45-1,1v5.6c0,.55,.45,1,1,1Zm1-5.6h13.16v3.6h-13.16v-3.6Z" />
    <path d="M49.96,34.26h-8.81c-.55,0-1,.45-1,1v5.6c0,.55,.45,1,1,1h8.81c.55,0,1-.45,1-1v-5.6c0-.55-.45-1-1-1Zm-1,5.6h-6.81v-3.6h6.81v3.6Z" />
    <path d="M49.96,44.13H21.99c-.55,0-1,.45-1,1v5.6c0,.55,.45,1,1,1h27.97c.55,0,1-.45,1-1v-5.6c0-.55-.45-1-1-1Zm-1,5.6H22.99v-3.6h25.97v3.6Z" />
    <path d="M56.23,7.18H16.14c-1.93,0-3.5,1.57-3.5,3.5V61.26c0,1.93,1.57,3.5,3.5,3.5l39.85-.02h.1s.1,.02,.15,.02c1.93,0,3.5-1.57,3.5-3.5V10.68c0-1.93-1.57-3.5-3.5-3.5Zm.5,54.08c0,.26-.2,.47-.45,.5h-.08s-.1-.02-.15-.02h0l-39.92,.02c-.28,0-.5-.22-.5-.5V10.68c0-.28,.22-.5,.5-.5H56.23c.28,0,.5,.22,.5,.5V61.26Z" />
    <rect x=".36" y=".36" width="71.28" height="71.28" fill="none"/>
</svg>