<?xml version="1.0" encoding="UTF-8"?>
<svg xmlns="http://www.w3.org/2000/svg" viewBox="0 0 72 72">
    <path d="M53.12,64.88H18.94c-6.34,0-11.5-5.16-11.5-11.5V19.2c0-6.34,5.16-11.5,11.5-11.5H53.12c6.34,0,11.5,5.16,11.5,11.5V53.38c0,6.34-5.16,11.5-11.5,11.5ZM18.94,10.7c-4.69,0-8.5,3.81-8.5,8.5V53.38c0,4.69,3.81,8.5,8.5,8.5H53.12c4.69,0,8.5-3.81,8.5-8.5V19.2c0-4.69-3.81-8.5-8.5-8.5H18.94Z" />
      <path d="M31.28,52.13l-.96,3.46h-3.16l4.12-13.48h4l4.18,13.48h-3.28l-1.04-3.46h-3.86Zm3.42-2.28l-.84-2.86c-.24-.8-.48-1.8-.68-2.6h-.04c-.2,.8-.4,1.82-.62,2.6l-.8,2.86h2.98Z" />
      <path d="M41.26,42.29c.94-.16,2.26-.28,4.12-.28s3.22,.36,4.12,1.08c.86,.68,1.44,1.8,1.44,3.12s-.44,2.44-1.24,3.2c-1.04,.98-2.58,1.42-4.38,1.42-.4,0-.76-.02-1.04-.06v4.82h-3.02v-13.3Zm3.02,6.12c.26,.06,.58,.08,1.02,.08,1.62,0,2.62-.82,2.62-2.2,0-1.24-.86-1.98-2.38-1.98-.62,0-1.04,.06-1.26,.12v3.98Z" />
      <path d="M55.94,42.11v13.48h-3.06v-13.48h3.06Z" />
      <path d="M27.18,32.25c-2.76,0-5.01-2.24-5.01-4.99s2.25-4.99,5.01-4.99,5.01,2.24,5.01,4.99-2.25,4.99-5.01,4.99Zm0-8.28c-1.83,0-3.31,1.48-3.31,3.29s1.49,3.29,3.31,3.29,3.31-1.48,3.31-3.29-1.49-3.29-3.31-3.29Z" />
      <path d="M36.56,28.95c-.6,.12-1.08,.54-1.28,1.11-.11,.31-.24,.62-.38,.92-.27,.55-.22,1.19,.12,1.69l1.62,2.35-1.65,1.64-2.37-1.61c-.29-.19-.62-.29-.95-.29-.25,0-.51,.06-.75,.17-.3,.14-.6,.27-.92,.38-.57,.2-1,.68-1.12,1.28l-.53,2.84h-2.33l-.53-2.84c-.12-.59-.54-1.08-1.12-1.28-.32-.11-.62-.24-.92-.38-.24-.12-.49-.17-.75-.17-.33,0-.66,.1-.95,.29l-2.36,1.6-1.65-1.64,1.61-2.34c.34-.5,.38-1.15,.12-1.69-.14-.3-.27-.6-.38-.92-.2-.57-.69-.99-1.28-1.11l-3.07-.52v-2.32s3.07-.52,3.07-.52c.6-.12,1.08-.54,1.28-1.11,.11-.31,.24-.62,.38-.92,.27-.54,.22-1.19-.12-1.69l-1.65-2.38,1.65-1.64,2.4,1.64c.29,.19,.62,.29,.95,.29,.25,0,.51-.06,.75-.17,.3-.14,.6-.27,.92-.38,.57-.2,1-.68,1.12-1.28l.53-3h2.33s.53,3,.53,3c.12,.59,.54,1.08,1.12,1.28,.32,.11,.62,.24,.92,.38,.24,.11,.49,.17,.75,.17,.33,0,.66-.1,.95-.29l2.41-1.65,1.65,1.64-1.66,2.39c-.34,.5-.38,1.15-.12,1.69,.14,.3,.27,.6,.39,.92,.2,.57,.69,.99,1.28,1.11l2.84,.52v2.32s-2.84,.52-2.84,.52Zm3.09-4.55l-2.65-.53c-.13-.38-.29-.75-.47-1.11l1.5-2.24c.46-.68,.37-1.59-.22-2.17l-1.67-1.66c-.34-.33-.78-.5-1.23-.5-.33,0-.67,.09-.96,.29l-2.26,1.49c-.36-.17-.73-.33-1.12-.46l-.53-2.64c-.16-.81-.87-1.39-1.7-1.39h-2.36c-.83,0-1.54,.58-1.7,1.39l-.53,2.64c-.38,.13-.76,.29-1.12,.46l-2.26-1.49c-.29-.19-.63-.29-.96-.29-.45,0-.89,.17-1.23,.5l-1.67,1.66c-.58,.58-.67,1.49-.22,2.17l1.5,2.24c-.18,.36-.33,.73-.46,1.11l-2.66,.53c-.81,.16-1.39,.87-1.39,1.69v2.34c0,.82,.58,1.53,1.39,1.69l2.66,.53c.13,.38,.29,.75,.46,1.11l-1.5,2.24c-.46,.68-.37,1.59,.22,2.17l1.67,1.66c.34,.33,.78,.5,1.23,.5,.33,0,.67-.1,.96-.29l2.26-1.5c.36,.17,.73,.33,1.12,.46l.53,2.64c.16,.81,.87,1.39,1.7,1.39h2.36c.83,0,1.54-.58,1.7-1.39l.53-2.64c.38-.13,.76-.29,1.12-.46l2.26,1.5c.29,.19,.63,.29,.96,.29,.45,0,.89-.17,1.23-.5l1.67-1.66c.58-.58,.67-1.49,.22-2.17l-1.5-2.24c.18-.36,.33-.73,.47-1.11l2.65-.53c.81-.16,1.39-.87,1.39-1.69v-2.34c0-.82-.58-1.53-1.39-1.69Z"  fill-rule="evenodd"/>
    <rect x=".36" y=".36" width="71.28" height="71.28" fill="none"/>
</svg>