<?xml version="1.0" encoding="UTF-8"?>
<svg xmlns="http://www.w3.org/2000/svg" viewBox="0 0 72 72">
      <rect x="37.49" y="16.28" width="4.23" height="2.02" />
      <rect x="31.61" y="16.28" width="4.23" height="2.02" />
      <rect x="43.37" y="16.28" width="3.25" height="2.02" />
      <rect x="23.78" y="42.11" width="2" height="4.23" />
      <path d="M26.76,16.28c-1.79,0-2.98,1.2-2.98,2.99v2.57h2v-2.55c0-.4,.58-.98,.98-.99h3.21v-2.02h-3.21Z" />
      <rect x="23.78" y="48.24" width="2" height="4.48" />
      <rect x="23.78" y="23.79" width="2" height="4.23" />
      <rect x="23.78" y="29.92" width="2" height="4.48" />
      <rect x="23.78" y="35.91" width="2" height="4.48" />
    <path d="M66.44,38.57c-.38-.17-.84-.08-1.13,.22l-2.05,2.12V19.27c0-1.79-1.44-3.23-3.23-3.24h-12.41v-5.54c0-1.92-1.55-3.48-3.47-3.49H12.73c-1.92,0-3.48,1.56-3.48,3.48h0V52.71c0,1.92,1.56,3.48,3.48,3.48h10.75v5.3c0,1.79,1.44,3.23,3.23,3.24H60.04c1.79,0,3.23-1.45,3.23-3.24v-10.33l2.79-2.42c.2-.17,.32-.42,.34-.68l.64-8.5c.03-.42-.2-.81-.59-.99ZM12.73,53.19c-.27,0-.48-.21-.48-.48V10.49c0-.27,.21-.48,.48-.49h31.46c.27,0,.48,.22,.48,.49v28.84h-11.16c-1.92,0-3.48,1.56-3.48,3.48h0v10.38H12.73Zm31.84-10.86v.07l-11.54,10.58v-10.16c0-.27,.21-.48,.48-.49h11.06Zm16.2,19.16c0,.4-.33,.73-.73,.74H26.76c-.4,0-.73-.34-.73-.74v-5.3h6.6c.87,0,1.71-.32,2.35-.92l11.57-10.66c.7-.67,1.09-1.6,1.08-2.57V18.55h12.37c.4,0,.73,.34,.73,.74v24.25s-7.86,8.17-7.86,8.17l-3.82-4.24c-.24-.27-.6-.38-.96-.31-.35,.08-.63,.33-.74,.68l-1.49,4.72c-.11,.36-.02,.74,.25,1.01l6.03,6.03c.19,.19,.45,.29,.71,.29,.23,0,.47-.08,.66-.24l7.25-6.29,.02,8.14Zm3.66-13.99l-11.54,10.01-4.94-4.94,.78-2.47,3.37,3.74c.19,.21,.45,.33,.73,.33,.29,0,.54-.11,.74-.31l11.27-11.69-.4,5.32Z" />
    <rect x=".36" y=".36" width="71.28" height="71.28" fill="none"/>
</svg>