<?xml version="1.0" encoding="UTF-8"?>
<svg id="a" data-name="SVG icons" xmlns="http://www.w3.org/2000/svg" viewBox="0 0 72 72">
    <path d="M40.84,60.38c-.33,0-.65-.13-.89-.37l-1.77-1.77,1.77-1.77,.89,.89,.89-.89,1.77,1.77-1.77,1.77c-.23,.23-.55,.37-.89,.37Z" />
    <path d="M18.6,38.65l-1.77-1.77c-.49-.49-.49-1.28,0-1.77l1.77-1.77,1.77,1.77-.89,.89,.89,.89-1.77,1.77Z" />
      <path d="M56.81,34.82L33.02,11.04c-.62-.62-1.73-.62-2.36,0L6.73,34.98c-.65,.65-.65,1.71,0,2.36l23.79,23.79c.33,.33,.75,.49,1.18,.49s.85-.16,1.18-.49l23.94-23.94c.31-.31,.49-.74,.49-1.18s-.18-.87-.49-1.18Zm-19.96,18.54l-1.48-1.48-1.77,1.77,1.48,1.48-3.39,3.39L9.33,36.15,31.85,13.63l3.23,3.23-1.48,1.48,1.77,1.77,1.48-1.48,17.36,17.36-17.36,17.36Z" />
      <rect x="25.73" y="42.91" width="2.5" height="4.71" transform="translate(-24.11 32.34) rotate(-45)" />
      <rect x="21.15" y="38.33" width="2.5" height="4.71" transform="translate(-22.21 27.76) rotate(-45)" />
      <rect x="30.32" y="47.5" width="2.5" height="4.71" transform="translate(-26 36.92) rotate(-45)" />
      <rect x="29.21" y="20.89" width="4.71" height="2.5" transform="translate(-6.41 28.81) rotate(-45)" />
      <rect x="24.63" y="25.47" width="4.71" height="2.5" transform="translate(-10.99 26.91) rotate(-45)" />
      <rect x="20.05" y="30.06" width="4.71" height="2.5" transform="translate(-15.58 25.01) rotate(-45)" />
    <path d="M41.73,15.53l-.89-.89-.89,.89-1.77-1.77,1.77-1.77c.49-.49,1.28-.49,1.77,0l1.77,1.77-1.77,1.77Z" />
    <rect x="58.03" y="28.95" width="2.5" height="4.71" transform="translate(-4.78 51.09) rotate(-45)" />
    <rect x="53.44" y="24.37" width="2.5" height="4.71" transform="translate(-2.88 46.5) rotate(-45)" />
    <rect x="48.86" y="19.79" width="2.5" height="4.71" transform="translate(-.98 41.92) rotate(-45)" />
    <rect x="44.28" y="15.2" width="2.5" height="4.71" transform="translate(.92 37.34) rotate(-45)" />
    <path d="M63.08,38.65l-1.77-1.77,.89-.89-.89-.89,1.77-1.77,1.77,1.77c.49,.49,.49,1.28,0,1.77l-1.77,1.77Z" />
    <rect x="43.17" y="53.18" width="4.71" height="2.5" transform="translate(-25.16 48.14) rotate(-45)" />
    <rect x="47.76" y="48.6" width="4.71" height="2.5" transform="translate(-20.57 50.04) rotate(-45)" />
    <rect x="52.34" y="44.02" width="4.71" height="2.5" transform="translate(-15.99 51.93) rotate(-45)" />
    <rect x="56.92" y="39.43" width="4.71" height="2.5" transform="translate(-11.41 53.83) rotate(-45)" />
  <path d="M40.89,37.34c-1.29,2.12-2.7,3.86-4.24,5.21-1.54,1.35-2.88,2.03-4.02,2.03-1.56,0-2.34-1.26-2.34-3.78,0-3.47,1.14-6.47,3.41-9,2.27-2.54,4.97-3.8,8.08-3.8,1.19,0,2.19,.15,3.03,.44-.06,.21-.09,.33-.1,.38l-.21,.91c-.14,.63-.21,.99-.22,1.09l-1.09,7.55-.15,1.09c-.15,1.08-.22,1.81-.22,2.17,0,.49,.14,.73,.43,.73,.95,0,1.93-1.07,2.93-3.2,.31,.18,.46,.37,.46,.55,0,.4-.49,1.2-1.47,2.41-1.33,1.64-2.57,2.46-3.71,2.46-.83,0-1.25-.56-1.25-1.68,0-.34,.04-.81,.12-1.42l.17-1.37,.22-1.5,.19-1.27Zm.98-6.77c-1.04-.58-2.09-.87-3.15-.87-1.6,0-2.94,.97-4.02,2.92-1.08,1.95-1.63,4.36-1.63,7.24,0,1.48,.44,2.22,1.32,2.22,1.01,0,2.24-.77,3.68-2.32,1.94-2.08,3.11-4.53,3.52-7.34l.27-1.84Z" />
</svg>
