<?xml version="1.0" encoding="UTF-8"?>
<svg xmlns="http://www.w3.org/2000/svg" viewBox="0 0 72 72">
    <path d="M47.58,37.71c-1.25,2.06-2.62,3.74-4.12,5.06s-2.8,1.97-3.9,1.97c-1.51,0-2.27-1.22-2.27-3.67,0-3.36,1.1-6.28,3.31-8.74,2.21-2.46,4.82-3.69,7.84-3.69,1.15,0,2.13,.14,2.94,.43-.06,.2-.09,.32-.1,.36l-.2,.88c-.13,.61-.21,.96-.22,1.06l-1.06,7.33-.15,1.06c-.14,1.05-.22,1.75-.22,2.11,0,.48,.14,.71,.41,.71,.93,0,1.87-1.03,2.84-3.1,.3,.18,.45,.35,.45,.53,0,.39-.48,1.17-1.43,2.34-1.29,1.59-2.5,2.39-3.6,2.39-.81,0-1.21-.54-1.21-1.63,0-.33,.04-.79,.12-1.38l.17-1.33,.22-1.46,.18-1.23Zm.95-6.58c-1.01-.56-2.03-.85-3.06-.85-1.55,0-2.85,.94-3.9,2.83-1.05,1.89-1.58,4.23-1.58,7.03,0,1.44,.43,2.16,1.28,2.16,.99,0,2.18-.75,3.57-2.25,1.88-2.02,3.02-4.4,3.42-7.13l.27-1.79Z" />
      <path d="M23.84,33.91c-1.12,0-2.03,.91-2.03,2.02s.91,2.02,2.03,2.02,2.03-.91,2.03-2.02-.91-2.02-2.03-2.02Z"  fill-rule="evenodd"/>
      <path d="M28.63,41.71l1.01-1.01-1-1.45c-.21-.31-.23-.7-.07-1.04,.09-.18,.17-.37,.24-.56,.12-.35,.42-.61,.79-.68l1.74-.32v-1.42s-1.74-.32-1.74-.32c-.37-.07-.67-.33-.79-.68-.07-.19-.15-.38-.24-.56-.16-.33-.13-.73,.07-1.04l1.02-1.47-1.01-1.01-1.48,1.01c-.18,.12-.38,.18-.58,.18-.16,0-.31-.03-.46-.1-.18-.09-.37-.17-.57-.23-.35-.12-.61-.42-.69-.78l-.32-1.84h-1.43s-.32,1.84-.32,1.84c-.07,.36-.33,.66-.69,.78-.19,.07-.38,.15-.57,.23-.15,.07-.3,.1-.46,.1-.2,0-.41-.06-.58-.18l-1.47-1.01-1.01,1.01,1.01,1.46c.21,.31,.23,.7,.07,1.04-.09,.18-.17,.37-.24,.56-.12,.35-.42,.61-.79,.68l-1.89,.32v1.43s1.89,.32,1.89,.32c.37,.07,.67,.33,.79,.68,.07,.19,.15,.38,.24,.56,.16,.33,.13,.73-.07,1.04l-.99,1.44,1.01,1.01,1.45-.98c.18-.12,.38-.18,.58-.18,.16,0,.31,.03,.46,.11,.18,.09,.37,.17,.57,.23,.35,.12,.61,.42,.69,.78l.32,1.74h1.43l.32-1.74c.07-.36,.33-.66,.69-.78,.2-.07,.38-.15,.57-.24,.14-.07,.3-.1,.46-.1,.2,0,.41,.06,.58,.18l1.45,.99Zm-4.79-2.71c-1.7,0-3.08-1.38-3.08-3.07s1.38-3.06,3.08-3.06,3.08,1.37,3.08,3.06-1.38,3.07-3.08,3.07Z"  fill-rule="evenodd"/>
      <path d="M62.76,34.73L37.32,9.3c-.67-.67-1.85-.67-2.52,0L9.2,34.9c-.7,.7-.7,1.82,0,2.52l25.44,25.44c.35,.35,.8,.52,1.26,.52s.91-.17,1.26-.52l25.6-25.6c.33-.33,.52-.79,.52-1.26s-.19-.93-.52-1.26Zm-37.15,8.82c-.1,.49-.54,.85-1.04,.85h-1.45c-.51,0-.94-.36-1.04-.85l-.33-1.62c-.24-.08-.46-.18-.69-.28l-1.39,.92c-.18,.12-.39,.18-.59,.18-.28,0-.55-.11-.75-.31l-1.02-1.02c-.36-.36-.41-.92-.13-1.34l.92-1.38c-.11-.22-.2-.45-.29-.68l-1.63-.33c-.5-.1-.86-.53-.86-1.04v-1.44c0-.5,.36-.94,.86-1.04l1.63-.32c.08-.23,.18-.46,.29-.68l-.92-1.38c-.28-.42-.23-.98,.13-1.34l1.02-1.02c.21-.2,.48-.31,.75-.31,.2,0,.41,.06,.59,.18l1.38,.92c.22-.11,.45-.2,.69-.28l.33-1.62c.1-.49,.54-.85,1.04-.85h1.45c.51,0,.94,.36,1.04,.85l.33,1.62c.24,.08,.46,.18,.69,.28l1.39-.92c.18-.12,.39-.18,.59-.18,.28,0,.55,.11,.75,.31l1.02,1.02c.36,.36,.41,.92,.13,1.34l-.92,1.38c.11,.22,.2,.45,.29,.68l1.63,.32c.5,.1,.86,.53,.86,1.04v1.44c0,.5-.36,.94-.86,1.04l-1.63,.32c-.08,.23-.18,.46-.29,.68l.92,1.38c.28,.42,.23,.98-.13,1.34l-1.02,1.02c-.21,.2-.48,.31-.75,.31-.2,0-.41-.06-.59-.18l-1.39-.92c-.22,.11-.45,.2-.69,.28l-.33,1.62Zm10.29,16.53l-9.81-9.81c5.59-2.36,9.52-7.89,9.52-14.35s-3.78-11.77-9.2-14.2l9.65-9.65,23.92,23.92-24.08,24.08Z" fill-rule="evenodd"/>
    <rect x=".36" y=".36" width="71.28" height="71.28" fill="none"/>
</svg>