<?xml version="1.0" encoding="utf-8"?>
<!-- Generator: Adobe Illustrator 26.5.3, SVG Export Plug-In . SVG Version: 6.00 Build 0)  -->
<svg version="1.1" id="Layer_1" xmlns="http://www.w3.org/2000/svg" xmlns:xlink="http://www.w3.org/1999/xlink" x="0px" y="0px"
	 viewBox="0 0 72 72" style="enable-background:new 0 0 72 72;" xml:space="preserve">
<style type="text/css">
	.st0{fill:none;}
</style>
<path d="M63.6,17.7C63,11.5,48.8,7.6,36.1,7.6s-27,3.9-27.5,10.1c0,0,0,0.1,0,0.1v35.8c0,6.5,14.6,10.8,27.5,10.8
	s27.5-4.3,27.5-10.8V17.8C63.6,17.8,63.6,17.8,63.6,17.7L63.6,17.7z M60.1,44.8c0,3.6-9.7,7.5-24,7.5s-24-4-24-7.5v-4.3
	c4.6,3.7,14.4,5.6,24,5.6s19.5-1.9,24-5.6V44.8z M60.1,36c0,3.6-9.7,7.5-24,7.5s-24-4-24-7.5v-4.4c4.6,3.7,14.4,5.6,24,5.6
	s19.5-1.9,24-5.6V36z M60.1,27.3c0,3.6-9.7,7.5-24,7.5s-24-4-24-7.5v-4.5c4.6,3.7,14.4,5.4,24,5.4s19.5-1.9,24-5.6V27.3z M36.1,10.8
	c14.3,0,24,4.2,24,7.8s-9.7,7.3-24,7.3s-24-3.7-24-7.3S21.8,10.8,36.1,10.8z M36.1,60.6c-14.3,0-24-4.5-24-8v-3.4
	c4.6,3.7,14.4,5.6,24,5.6s19.5-1.9,24-5.6v3.4C60.1,56.2,50.4,60.6,36.1,60.6z"/>
<rect x="0.4" y="0.4" class="st0" width="71.3" height="71.3"/>
</svg>
