<?xml version="1.0" encoding="UTF-8"?>
<svg xmlns="http://www.w3.org/2000/svg" viewBox="0 0 72 72">
      <rect x="33.88" y="16.28" width="4.23" height="2.02" />
      <rect x="28" y="16.28" width="4.23" height="2.02" />
      <rect x="39.76" y="16.28" width="3.25" height="2.02" />
      <rect x="20.16" y="41.11" width="2" height="4.23" />
      <rect x="20.16" y="35.23" width="2" height="4.23" />
      <rect x="20.16" y="29.36" width="2" height="4.23" />
      <path d="M23.14,16.28c-1.79,0-2.98,1.2-2.98,2.99v2.57h2v-2.55c0-.4,.58-.98,.98-.99h3.21v-2.02h-3.21Z" />
      <rect x="20.16" y="23.48" width="2" height="4.23" />
      <rect x="20.16" y="46.99" width="2" height="4.48" />
      <path d="M58.65,50.66c-1.99,0-3.61-1.61-3.61-3.6s1.62-3.6,3.61-3.6,3.61,1.61,3.61,3.6-1.62,3.6-3.61,3.6Zm0-6c-1.33,0-2.41,1.08-2.41,2.4s1.08,2.4,2.41,2.4,2.41-1.08,2.41-2.4-1.08-2.4-2.41-2.4Z" />
      <path d="M65.44,48.28c-.43,.09-.78,.39-.93,.81-.08,.23-.17,.45-.28,.66-.19,.39-.16,.86,.08,1.22l1.17,1.7-1.19,1.19-1.71-1.17c-.21-.14-.45-.21-.69-.21-.18,0-.37,.04-.54,.12-.22,.1-.44,.2-.67,.28-.41,.14-.72,.49-.81,.92l-.38,2.05h-1.69l-.38-2.05c-.09-.43-.39-.78-.81-.92-.23-.08-.45-.17-.67-.28-.17-.08-.36-.12-.54-.12-.24,0-.48,.07-.69,.21l-1.71,1.16-1.19-1.19,1.17-1.7c.24-.36,.28-.83,.09-1.22-.1-.21-.2-.44-.28-.66-.14-.41-.5-.72-.93-.8l-2.22-.38v-1.68s2.22-.38,2.22-.38c.43-.09,.78-.39,.93-.81,.08-.23,.17-.45,.28-.66,.19-.39,.16-.86-.08-1.22l-1.19-1.73,1.19-1.19,1.73,1.19c.21,.14,.45,.21,.69,.21,.18,0,.37-.04,.54-.12,.22-.1,.44-.2,.67-.28,.42-.14,.72-.5,.81-.92l.38-2.17h1.69s.38,2.17,.38,2.17c.09,.43,.39,.78,.81,.92,.23,.08,.45,.17,.67,.28,.17,.08,.36,.12,.54,.12,.24,0,.48-.07,.69-.21l1.74-1.2,1.19,1.19-1.2,1.73c-.24,.36-.28,.83-.09,1.22,.1,.21,.2,.44,.28,.66,.14,.41,.5,.72,.93,.81l2.05,.38v1.68s-2.05,.38-2.05,.38Zm2.23-3.29l-1.92-.38c-.1-.28-.21-.54-.34-.8l1.09-1.62c.33-.49,.27-1.15-.16-1.57l-1.21-1.2c-.24-.24-.56-.37-.89-.37-.24,0-.48,.07-.69,.21l-1.63,1.08c-.26-.13-.53-.24-.81-.33l-.39-1.91c-.12-.58-.63-1-1.23-1h-1.71c-.6,0-1.11,.42-1.23,1l-.39,1.91c-.28,.1-.55,.21-.81,.33l-1.63-1.08c-.21-.14-.45-.21-.7-.21-.32,0-.64,.12-.89,.37l-1.21,1.2c-.42,.42-.49,1.08-.16,1.57l1.09,1.62c-.13,.26-.24,.53-.34,.8l-1.92,.38c-.59,.12-1.01,.63-1.01,1.22v1.7c0,.59,.42,1.11,1.01,1.22l1.92,.38c.1,.28,.21,.54,.34,.8l-1.09,1.62c-.33,.49-.27,1.15,.16,1.57l1.21,1.2c.24,.24,.56,.37,.89,.37,.24,0,.48-.07,.7-.21l1.63-1.08c.26,.13,.53,.24,.81,.34l.38,1.91c.12,.58,.63,1,1.23,1h1.71c.6,0,1.11-.42,1.23-1l.39-1.91c.28-.1,.55-.21,.81-.34l1.63,1.08c.21,.14,.45,.21,.69,.21,.32,0,.65-.12,.89-.37l1.21-1.2c.42-.42,.49-1.08,.16-1.57l-1.09-1.62c.13-.26,.24-.53,.34-.81l1.92-.38c.59-.12,1.01-.63,1.01-1.22v-1.7c0-.59-.42-1.11-1.01-1.22Z" />
    <path d="M57.38,58.54l.03,2.95c0,.4-.33,.73-.73,.74H23.14c-.4,0-.73-.34-.73-.74v-5.3h10.35c.87,0,1.71-.32,2.35-.92l11.57-10.66c.7-.67,1.09-1.6,1.08-2.57V18.55h8.87c.4,0,.73,.34,.73,.74v16.41h2.54V19.27c0-1.79-1.44-3.23-3.23-3.24h-8.91v-5.54c0-1.92-1.55-3.48-3.47-3.49H11.86c-1.92,0-3.48,1.56-3.48,3.48,0,0,0,0,0,.01V52.71c0,1.92,1.56,3.48,3.48,3.48h8v5.3c0,1.79,1.44,3.23,3.23,3.24H56.67c1.79,0,3.23-1.45,3.23-3.24v-2.95h-2.53Zm-12.67-16.14l-11.54,10.58v-10.16c0-.27,.21-.48,.48-.49h11.06v.07ZM11.86,53.19c-.27,0-.48-.21-.48-.48V10.49c0-.27,.21-.48,.48-.49H44.32c.27,0,.48,.22,.48,.49v28.84h-11.16c-1.92,0-3.48,1.56-3.48,3.48h0v10.38H11.86Z" />
    <rect x=".36" y=".36" width="71.28" height="71.28" fill="none"/>
</svg>