<?xml version="1.0" encoding="UTF-8"?>
<svg xmlns="http://www.w3.org/2000/svg" viewBox="0 0 72 72">
    <path d="M50.32,58.79H29.47c-.27,0-.53-.11-.72-.3s-.29-.46-.28-.73c.04-1.27,.13-4.27,.19-4.67,.07-.52,.2-1.45,1.38-2.12,1.17-.66,2.29-1.15,3.2-1.55,.81-.35,1.52-.67,1.94-.95,.2-.39,.51-1.7,.47-2.09-.08-.25-.8-1.21-1.04-1.53-.13-.18-.24-.32-.29-.4-.33-.5-.77-1.26-.77-2.19,0-.41,.04-.62,.09-.83,.03-.12,.05-.21,.05-.54v-.15c0-.81,0-1.45,.49-3.44,.24-.98,1.02-2.08,1.86-2.61,.62-.39,1-.39,1.45-.35,.3,.03,.8,.08,2.19-.23,1.54-.34,3.28,.47,4.3,1.27,1.04,.82,1.62,1.77,1.64,2.68,.03,1.38,.09,1.67,.16,2,.04,.17,.08,.35,.11,.62,.02,.12,.03,.15,.06,.23,.11,.24,.2,.5,.2,1.06,0,.94-.47,1.99-.77,2.44l-.08,.12c-1,1.48-1.15,1.92-1.17,2.02,0,.29,.26,1.47,.45,1.85,.45,.32,1.25,.68,2.16,1.1,.89,.4,1.9,.86,2.98,1.45,1.17,.64,1.33,1.65,1.39,2.09,.07,.43,.16,3.43,.2,4.7,0,.27-.09,.53-.28,.73s-.45,.3-.72,.3Zm-19.82-2h18.79c-.05-1.63-.11-3.17-.14-3.4-.06-.37-.09-.51-.37-.66-1.02-.55-1.99-.99-2.85-1.38-1.12-.51-2-.9-2.62-1.38h0c-.95-.72-1.17-3.32-1.16-3.53,.03-.6,.45-1.44,1.51-3l.08-.11c.15-.22,.43-.89,.43-1.33,0-.15-.01-.2-.01-.2-.1-.22-.18-.43-.24-.8-.03-.21-.06-.35-.09-.48-.11-.51-.18-.92-.21-2.39,0-.19-.24-.65-.87-1.15-.85-.67-1.95-1.05-2.63-.9-1.7,.38-2.4,.31-2.81,.27-.05,0-.12-.01-.13-.01,.04,0,0,.03-.05,.06-.41,.26-.87,.91-.99,1.4-.43,1.75-.43,2.23-.43,2.95v.15c0,.53-.05,.77-.1,1.01-.03,.11-.04,.16-.04,.36,0,.43,.3,.88,.43,1.07,.04,.06,.12,.17,.23,.31,.91,1.21,1.38,1.94,1.43,2.56,.06,.68-.34,3.15-1.17,3.79-.59,.45-1.41,.81-2.43,1.26-.91,.4-1.94,.85-3.01,1.45-.32,.18-.33,.28-.37,.56l-.02,.12c-.03,.22-.08,1.76-.14,3.39Z" />
    <path d="M61.03,10.93h-3.29v-1.07c0-2.31-1.88-4.19-4.18-4.19H26.16c-2.31,0-4.18,1.88-4.18,4.19v1.07h-4.36c-1.56,0-2.86,1.06-3.26,2.5h-3.49c-1.87,0-3.4,1.53-3.4,3.4V52.48c0,1.87,1.52,3.4,3.4,3.4h3.35v1.6c0,1.87,1.52,3.4,3.4,3.4h4.36v.8c0,2.31,1.88,4.19,4.18,4.19h7.68v-3h-7.68c-.65,0-1.18-.53-1.18-1.19V9.86c0-.65,.53-1.19,1.18-1.19h27.4c.65,0,1.18,.53,1.18,1.19V61.68c0,.65-.53,1.19-1.18,1.19h-8.07v3h8.07c2.31,0,4.18-1.88,4.18-4.19v-.8h3.29c1.87,0,3.4-1.52,3.4-3.4V14.33c0-1.87-1.52-3.4-3.4-3.4ZM10.87,53.38c-.49,0-.9-.4-.9-.9V16.83c0-.5,.4-.9,.9-.9h3.35V53.38h-3.35Zm11.11,5h-4.36c-.49,0-.9-.4-.9-.9V14.33c0-.5,.4-.9,.9-.9h4.36V58.38Zm39.95-.9c0,.5-.4,.9-.9,.9h-3.29V13.43h3.29c.49,0,.9,.4,.9,.9V57.48Z" />
    <path d="M44.95,18.03h-10.19c-.55,0-1-.45-1-1s.45-1,1-1h10.19c.55,0,1,.45,1,1s-.45,1-1,1Z" />
    <path d="M44.95,25.1h-10.19c-.55,0-1-.45-1-1s.45-1,1-1h10.19c.55,0,1,.45,1,1s-.45,1-1,1Z" />
    <rect x=".36" y=".36" width="71.28" height="71.28" fill="none"/>
</svg>