<?xml version="1.0" encoding="UTF-8"?>
<svg xmlns="http://www.w3.org/2000/svg" viewBox="0 0 72 72">
    <path d="M62.86,17.7c-.57-6.25-14.06-9.62-26.77-9.62s-26.2,3.37-26.77,9.62c0,.05-.03,.09-.03,.13V53.61c0,6.51,13.81,10.02,26.8,10.02s26.8-3.51,26.8-10.02V17.84s-.02-.09-.03-.13Zm-2.47,27.12c0,3.56-9.98,7.52-24.3,7.52s-24.3-3.97-24.3-7.52v-4.35c4.56,3.66,14.65,5.6,24.3,5.6s19.74-1.94,24.3-5.6v4.35Zm0-8.77c0,3.56-9.98,7.52-24.3,7.52s-24.3-3.97-24.3-7.52v-4.35c4.56,3.66,14.65,5.6,24.3,5.6s19.74-1.94,24.3-5.6v4.35Zm0-8.77c0,3.56-9.98,7.52-24.3,7.52s-24.3-3.97-24.3-7.52v-4.74c4.56,3.66,14.65,5.6,24.3,5.6s19.74-1.94,24.3-5.6v4.74ZM36.09,10.59c14.32,0,24.3,3.97,24.3,7.52s-9.98,7.52-24.3,7.52-24.3-3.97-24.3-7.52,9.98-7.52,24.3-7.52Zm0,50.55c-14.32,0-24.3-3.97-24.3-7.52v-4.37c4.56,3.66,14.65,5.6,24.3,5.6s19.74-1.94,24.3-5.6v4.37c0,3.56-9.98,7.52-24.3,7.52Z" />
    <rect x=".36" y=".36" width="71.28" height="71.28" fill="none"/>
</svg>