<?xml version="1.0" encoding="utf-8"?>
<svg version="1.1" xmlns="http://www.w3.org/2000/svg" xmlns:xlink="http://www.w3.org/1999/xlink" x="0px" y="0px"
	 viewBox="0 0 72 72" >
<path d="M57.9,15.5H50V9.9c0-1.9-1.5-3.5-3.5-3.5l0,0H14.1c-1.9,0-3.5,1.6-3.5,3.5l0,0v42.2c0,1.9,1.6,3.5,3.5,3.5h8v5.3
	c0,1.8,1.4,3.2,3.2,3.2h32.6c1.8,0,3.2-1.5,3.2-3.2V18.7C61.1,16.9,59.7,15.5,57.9,15.5z M13.6,52.2V9.9c0-0.3,0.2-0.5,0.5-0.5h32.5
	c0.3,0,0.5,0.2,0.5,0.5v28.8H35.9c-1.9,0-3.5,1.6-3.5,3.5l0,0v10.4H14.1C13.8,52.6,13.6,52.4,13.6,52.2L13.6,52.2z M46.9,41.8
	L46.9,41.8L35.4,52.4V42.3c0-0.3,0.2-0.5,0.5-0.5H46.9z M58.6,60.9c0,0.4-0.3,0.7-0.7,0.7H25.4c-0.4,0-0.7-0.3-0.7-0.7v-5.3H35
	c0.9,0,1.7-0.3,2.3-0.9L48.9,44c0.7-0.7,1.1-1.6,1.1-2.6V18h7.9c0.4,0,0.7,0.3,0.7,0.7L58.6,60.9z"/>
<rect x="36.1" y="15.7" width="4.2" height="2"/>
<rect x="30.2" y="15.7" width="4.2" height="2"/>
<rect x="42" y="15.7" width="3.3" height="2"/>
<rect x="22.4" y="40.6" width="2" height="4.2"/>
<rect x="22.4" y="34.7" width="2" height="4.2"/>
<rect x="22.4" y="28.8" width="2" height="4.2"/>
<path d="M25.4,15.7c-1.8,0-3,1.2-3,3v2.6h2v-2.5c0-0.4,0.6-1,1-1h3.2v-2h-3.2V15.7z"/>
<rect x="22.4" y="22.9" width="2" height="4.2"/>
<rect x="22.4" y="46.4" width="2" height="4.5"/>
</svg>
