<?xml version="1.0" encoding="UTF-8"?>
<svg xmlns="http://www.w3.org/2000/svg" viewBox="0 0 72 72">
    <rect x="21.1" y="16.42" width="17.67" height="3" />
    <path d="M49.68,24.39H21.71c-.55,0-1,.45-1,1v5.6c0,.55,.45,1,1,1h27.97c.55,0,1-.45,1-1v-5.6c0-.55-.45-1-1-1Zm-1,5.6H22.71v-3.6h25.97v3.6Z" />
    <path d="M21.71,41.86h15.16c.55,0,1-.45,1-1v-5.6c0-.55-.45-1-1-1h-15.16c-.55,0-1,.45-1,1v5.6c0,.55,.45,1,1,1Zm1-5.6h13.16v3.6h-13.16v-3.6Z" />
    <path d="M64.61,30.19l-3.21-3.13c-.29-.29-.77-.28-1.06,0l-.9,.9V10.68c0-1.93-1.57-3.5-3.5-3.5H15.85c-1.93,0-3.5,1.57-3.5,3.5V61.26c0,1.93,1.57,3.5,3.5,3.5l39.85-.02h.1s.1,.02,.15,.02c1.93,0,3.5-1.57,3.5-3.5v-24.81l5.18-5.2c.14-.14,.22-.33,.22-.54s-.08-.39-.23-.53Zm-8.17,31.08c0,.26-.2,.47-.45,.5h-.08s-.1-.02-.15-.02h0l-39.92,.02c-.28,0-.5-.22-.5-.5V10.68c0-.28,.22-.5,.5-.5H55.94c.28,0,.5,.22,.5,.5V30.99l-5.77,5.79v-1.52c0-.55-.45-1-1-1h-8.81c-.55,0-1,.45-1,1v5.6c0,.55,.45,1,1,1h4.76l-2.26,2.27H21.71c-.55,0-1,.45-1,1v5.6c0,.55,.45,1,1,1h15.15l-1.06,3.23c-.09,.27-.02,.56,.18,.76,.14,.14,.33,.22,.53,.22,.08,0,.15-.01,.23-.04l4.73-1.52c.11-.04,.22-.1,.3-.19l2.46-2.48h5.44c.55,0,1-.45,1-1v-5.47l5.77-5.79v21.79Zm-7.77-22.47l-1.06,1.07h-5.75v-3.6h6.81v2.53Zm-7.31,7.34l-3.58,3.6h-15.08v-3.6h18.67Zm4.86,3.6l2.45-2.46v2.46h-2.45Zm-5.39,3.29l-3.16,1.01,1.01-3.08,19.02-19.1,2.14,2.08-19,19.08Zm19.71-19.79l-2.14-2.08,2.47-2.49,2.14,2.08-2.47,2.49Z" />
    <rect x=".36" y=".36" width="71.28" height="71.28" fill="none"/>
</svg>