<?xml version="1.0" encoding="UTF-8"?>
<svg xmlns="http://www.w3.org/2000/svg" viewBox="0 0 72 72">
    <path d="M41.08,59.9c-.33,0-.65-.13-.89-.37l-1.77-1.77,1.77-1.77,.89,.89,.89-.89,1.77,1.77-1.77,1.77c-.23,.23-.55,.37-.89,.37Z" />
    <path d="M18.84,38.18l-1.77-1.77c-.49-.49-.49-1.28,0-1.77l1.77-1.77,1.77,1.77-.89,.89,.89,.89-1.77,1.77Z" />
    <path d="M57.05,34.35L33.27,10.56c-.62-.62-1.73-.62-2.36,0L6.97,34.5c-.65,.65-.65,1.71,0,2.36l23.79,23.79c.33,.33,.75,.49,1.18,.49s.85-.16,1.18-.49l23.94-23.94c.31-.31,.49-.74,.49-1.18s-.18-.87-.49-1.18Zm-19.96,18.54l-1.48-1.48-1.77,1.77,1.48,1.48-3.39,3.39L9.57,35.68,32.09,13.16l3.23,3.23-1.48,1.48,1.77,1.77,1.48-1.48,17.36,17.36-17.36,17.36Z" />
    <path d="M41.97,15.05l-.89-.89-.89,.89-1.77-1.77,1.77-1.77c.49-.49,1.28-.49,1.77,0l1.77,1.77-1.77,1.77Z" />
    <path d="M63.32,38.18l-1.77-1.77,.89-.89-.89-.89,1.77-1.77,1.77,1.77c.49,.49,.49,1.28,0,1.77l-1.77,1.77Z" />
    <path d="M41.13,36.86c-1.29,2.12-2.7,3.86-4.24,5.21-1.54,1.35-2.88,2.03-4.02,2.03-1.56,0-2.34-1.26-2.34-3.78,0-3.47,1.14-6.47,3.41-9,2.27-2.54,4.97-3.8,8.08-3.8,1.19,0,2.19,.15,3.03,.44-.06,.21-.09,.33-.1,.38l-.21,.91c-.14,.63-.21,.99-.22,1.09l-1.09,7.55-.15,1.09c-.15,1.08-.22,1.81-.22,2.17,0,.49,.14,.73,.43,.73,.95,0,1.93-1.07,2.93-3.2,.31,.18,.46,.37,.46,.55,0,.4-.49,1.2-1.47,2.41-1.33,1.64-2.57,2.46-3.71,2.46-.83,0-1.25-.56-1.25-1.68,0-.34,.04-.81,.12-1.42l.17-1.37,.22-1.5,.19-1.27Zm.98-6.77c-1.04-.58-2.09-.87-3.15-.87-1.6,0-2.94,.97-4.02,2.92-1.08,1.95-1.63,4.36-1.63,7.24,0,1.48,.44,2.22,1.32,2.22,1.01,0,2.24-.77,3.68-2.32,1.94-2.08,3.11-4.53,3.52-7.34l.27-1.84Z" />
    <rect x="29.38" y="20.61" width="4.48" height="2.47" transform="translate(-6.19 28.76) rotate(-45)" />
    <rect x="24.83" y="25.16" width="4.48" height="2.47" transform="translate(-10.74 26.87) rotate(-45)" />
    <rect x="20.36" y="29.64" width="4.48" height="2.47" transform="translate(-15.21 25.02) rotate(-45)" />
    <rect x="20.33" y="39.03" width="4.48" height="2.47" transform="translate(10.07 84.69) rotate(-135)" />
    <rect x="24.88" y="43.57" width="4.48" height="2.47" transform="translate(14.61 95.67) rotate(-135)" />
    <rect x="29.36" y="48.05" width="4.48" height="2.47" transform="translate(19.09 106.47) rotate(-135)" />
    <rect x="48.06" y="20.4" width="4.48" height="2.47" transform="translate(70.57 72.49) rotate(-135)" />
    <rect x="52.61" y="24.95" width="4.48" height="2.47" transform="translate(75.12 83.47) rotate(-135)" />
    <rect x="43.5" y="15.84" width="4.48" height="2.47" transform="translate(66.01 61.49) rotate(-135)" />
    <rect x="57.08" y="29.42" width="4.48" height="2.47" transform="translate(79.59 94.28) rotate(-135)" />
    <rect x="48.08" y="48.2" width="4.48" height="2.47" transform="translate(120.85 48.82) rotate(135)" />
    <rect x="52.62" y="43.65" width="4.48" height="2.47" transform="translate(125.4 37.83) rotate(135)" />
    <rect x="43.52" y="52.76" width="4.48" height="2.47" transform="translate(116.29 59.82) rotate(135)" />
    <rect x="57.1" y="39.18" width="4.48" height="2.47" transform="translate(129.87 27.03) rotate(135)" />
    <rect x=".36" y=".36" width="71.28" height="71.28" fill="none"/>
</svg>