<svg xmlns="http://www.w3.org/2000/svg" version="1.1" viewBox="0 0 72 72">
    <rect x="21.4" y="16.6" width="17.7" height="3"/>
    <path d="M50,24.5h-28c-.5,0-1,.5-1,1v5.6c0,.5.5,1,1,1h28c.5,0,1-.5,1-1v-5.6c0-.5-.5-1-1-1ZM49,30.1h-26v-3.6h26v3.6Z"/>
    <path d="M22,42h15.2c.5,0,1-.5,1-1v-5.6c0-.5-.5-1-1-1h-15.2c-.5,0-1,.5-1,1v5.6c0,.5.5,1,1,1ZM23,36.4h13.2v3.6h-13.2s0-3.6,0-3.6Z"/>
    <path d="M50,34.4h-8.8c-.5,0-1,.5-1,1v5.6c0,.5.5,1,1,1h8.8c.5,0,1-.5,1-1v-5.6c0-.5-.5-1-1-1ZM49,40h-6.8v-3.6h6.8v3.6Z"/>
    <path d="M56.2,7.3H16.1c-1.9,0-3.5,1.6-3.5,3.5v50.6c0,1.9,1.6,3.5,3.5,3.5h39.8s0,0,0,0c0,0,0,0,.2,0,1.9,0,3.5-1.6,3.5-3.5V10.8c0-1.9-1.6-3.5-3.5-3.5h0ZM56.7,61.4c0,.3-.2.5-.5.5h0s0,0-.2,0H16.1c-.3,0-.5-.2-.5-.5V10.8c0-.3.2-.5.5-.5h40.1c.3,0,.5.2.5.5,0,0,0,50.6,0,50.6Z"/>
</svg>