<?xml version="1.0" encoding="UTF-8"?>
<svg xmlns="http://www.w3.org/2000/svg" viewBox="0 0 72 72">
  <path d="M56.81,34.82L33.02,11.04c-.62-.62-1.73-.62-2.36,0L6.73,34.98c-.65,.65-.65,1.71,0,2.36l23.79,23.79c.33,.33,.75,.49,1.18,.49s.85-.16,1.18-.49l23.94-23.94c.31-.31,.49-.74,.49-1.18s-.18-.87-.49-1.18Zm-25.12,23.7L9.33,36.15,31.85,13.63l22.37,22.37-22.52,22.52Z"  fill-rule="evenodd"/>
    <path d="M45.78,57.35c-.29,0-.57-.12-.78-.32l-1.56-1.56,1.56-1.56,.78,.78,.78-.78,1.56,1.56-1.56,1.56c-.21,.21-.49,.32-.78,.32Z" />
    <path d="M42.35,54.38l-2.93-2.93,1.56-1.56,2.93,2.93-1.56,1.56Zm-4.03-4.03l-2.93-2.93,1.56-1.56,2.93,2.93-1.56,1.56Zm-4.03-4.03l-2.93-2.93,1.56-1.56,2.93,2.93-1.56,1.56Zm-4.03-4.03l-2.93-2.93,1.56-1.56,2.93,2.93-1.56,1.56Z" />
    <path d="M26.24,38.27l-1.56-1.56c-.43-.43-.43-1.13,0-1.56l1.56-1.56,1.56,1.56-.78,.78,.78,.78-1.56,1.56Z" />
    <path d="M28.89,34.06l-1.56-1.56,2.93-2.93,1.56,1.56-2.93,2.93Zm4.03-4.03l-1.56-1.56,2.93-2.93,1.56,1.56-2.93,2.93Zm4.03-4.03l-1.56-1.56,2.93-2.93,1.56,1.56-2.93,2.93Zm4.03-4.03l-1.56-1.56,2.93-2.93,1.56,1.56-2.93,2.93Z" />
    <path d="M46.55,17.96l-.78-.78-.78,.78-1.56-1.56,1.56-1.56c.43-.43,1.13-.43,1.56,0l1.56,1.56-1.56,1.56Z" />
    <path d="M62.66,34.06l-2.93-2.93,1.56-1.56,2.93,2.93-1.56,1.56Zm-4.03-4.03l-2.93-2.93,1.56-1.56,2.93,2.93-1.56,1.56Zm-4.03-4.03l-2.93-2.93,1.56-1.56,2.93,2.93-1.56,1.56Zm-4.03-4.03l-2.93-2.93,1.56-1.56,2.93,2.93-1.56,1.56Z" />
    <path d="M65.31,38.27l-1.56-1.56,.78-.78-.78-.78,1.56-1.56,1.56,1.56c.43,.43,.43,1.13,0,1.56l-1.56,1.56Z" />
    <path d="M49.21,54.38l-1.56-1.56,2.93-2.93,1.56,1.56-2.93,2.93Zm4.03-4.03l-1.56-1.56,2.93-2.93,1.56,1.56-2.93,2.93Zm4.03-4.03l-1.56-1.56,2.93-2.93,1.56,1.56-2.93,2.93Zm4.03-4.03l-1.56-1.56,2.93-2.93,1.56,1.56-2.93,2.93Z" />
  <path d="M43.8,37c-.99,1.64-2.08,2.98-3.27,4.02s-2.22,1.56-3.1,1.56c-1.2,0-1.81-.97-1.81-2.92,0-2.67,.88-4.99,2.63-6.95,1.75-1.96,3.83-2.94,6.23-2.94,.91,0,1.69,.11,2.34,.34-.04,.16-.07,.25-.08,.29l-.16,.7c-.11,.48-.16,.76-.17,.84l-.84,5.83-.12,.84c-.11,.83-.17,1.39-.17,1.67,0,.38,.11,.57,.33,.57,.74,0,1.49-.82,2.26-2.47,.24,.14,.35,.28,.35,.42,0,.31-.38,.93-1.13,1.86-1.03,1.27-1.98,1.9-2.86,1.9-.64,0-.96-.43-.96-1.29,0-.26,.03-.63,.09-1.1l.13-1.06,.17-1.16,.15-.98Zm.75-5.23c-.8-.45-1.61-.67-2.43-.67-1.23,0-2.27,.75-3.1,2.25-.84,1.5-1.25,3.36-1.25,5.59,0,1.14,.34,1.71,1.02,1.71,.78,0,1.73-.6,2.84-1.79,1.5-1.61,2.4-3.5,2.72-5.67l.21-1.42Z" />
</svg>