<?xml version="1.0" encoding="UTF-8"?>
<svg xmlns="http://www.w3.org/2000/svg" viewBox="0 0 72 72">
      <path d="M36.38,46.23c-1.63,0-2.95,1.31-2.95,2.93s1.32,2.93,2.95,2.93,2.95-1.31,2.95-2.93-1.32-2.93-2.95-2.93Z" />
      <path d="M36.23,7.63c-15.62,0-28.32,12.7-28.32,28.32s12.7,28.32,28.32,28.32,28.32-12.7,28.32-28.32S51.84,7.63,36.23,7.63Zm25.25,26.48h-10.37c-.12-3.57-.56-6.94-1.29-10h8.78c1.61,3.02,2.62,6.41,2.88,10Zm-4.75-13h-7.73c-1.19-3.73-2.82-6.86-4.76-9.17,5.06,1.69,9.42,4.94,12.49,9.17Zm-18.99-10.26c3.27,.92,6.17,4.78,8.07,10.26h-8.07V10.85Zm0,13.26h8.97c.78,3.04,1.27,6.43,1.4,10h-10.37v-10Zm10.39,13c-.02,1.06-.09,2.1-.17,3.13-.89-1.2-1.95-2.25-3.15-3.13h3.33Zm-13.4-26.26v10.26h-8.07c1.9-5.48,4.8-9.34,8.07-10.26Zm-10.37,23.26c.13-3.57,.62-6.96,1.4-10h8.97v10h-10.37Zm3.14,3c-1.14,.83-2.15,1.82-3.01,2.93-.08-.96-.13-1.94-.15-2.93h3.16Zm.73-25.17c-1.94,2.31-3.57,5.44-4.76,9.17h-7.73c3.08-4.24,7.43-7.48,12.49-9.17Zm-14.37,12.17h8.78c-.72,3.06-1.17,6.43-1.29,10H10.98c.26-3.59,1.27-6.98,2.88-10Zm-2.92,13h10.4c.05,2.69,.31,5.26,.72,7.69-.29,.98-.48,2.01-.56,3.06h-7.6c-1.73-3.23-2.78-6.88-2.95-10.75Zm34.89,19.98l-1.48,1.47c-.3,.3-.69,.45-1.09,.45-.29,0-.59-.09-.85-.26l-2.01-1.33c-.32,.15-.65,.29-.99,.41l-.47,2.35c-.14,.72-.78,1.23-1.51,1.23h-2.09c-.73,0-1.37-.52-1.51-1.23l-.47-2.35c-.34-.12-.67-.26-.99-.41l-2.01,1.33c-.26,.17-.56,.26-.85,.26-.4,0-.79-.15-1.09-.45l-1.48-1.47c-.52-.52-.6-1.33-.19-1.93l1.34-1.99c-.15-.32-.29-.65-.41-.99l-2.36-.47c-.72-.14-1.24-.77-1.24-1.5v-2.08c0-.73,.52-1.36,1.24-1.5l2.36-.47c.12-.34,.26-.67,.41-.99l-1.34-1.99c-.41-.61-.33-1.42,.19-1.93l1.48-1.47c.3-.3,.69-.45,1.09-.45,.3,0,.59,.08,.85,.26l2,1.33c.32-.15,.65-.29,.99-.41l.47-2.35c.14-.72,.78-1.23,1.51-1.23h2.09c.73,0,1.37,.51,1.51,1.23l.47,2.35c.34,.12,.67,.26,.99,.41l2.01-1.33c.26-.17,.56-.26,.85-.26,.4,0,.79,.15,1.09,.45l1.48,1.47c.52,.52,.6,1.32,.19,1.93l-1.34,1.99c.15,.32,.29,.65,.41,.99l2.36,.47c.72,.14,1.24,.77,1.24,1.5v2.08c0,.73-.52,1.36-1.24,1.5l-2.36,.47c-.12,.34-.26,.67-.41,.99l1.34,1.99c.41,.61,.33,1.42-.19,1.93Zm4.97-9.23c-.07-.91-.22-1.8-.45-2.65,.45-2.54,.72-5.26,.78-8.1h10.4c-.18,3.87-1.22,7.52-2.95,10.75h-7.77Z" />
      <path d="M43.23,52.47c.13-.26,.24-.53,.34-.81,.18-.51,.61-.88,1.14-.99l2.52-.47v-2.06s-2.52-.47-2.52-.47c-.53-.11-.96-.48-1.14-.99-.1-.28-.21-.55-.34-.82-.23-.48-.2-1.05,.1-1.5l1.48-2.13-1.47-1.46-2.14,1.47c-.25,.17-.55,.25-.85,.25-.23,0-.45-.05-.67-.15-.26-.13-.54-.24-.82-.34-.51-.18-.89-.61-.99-1.13l-.47-2.67h-2.07s-.47,2.67-.47,2.67c-.11,.53-.48,.96-.99,1.13-.28,.1-.56,.21-.82,.34-.21,.1-.44,.15-.66,.15-.3,0-.59-.09-.85-.25l-2.13-1.46-1.47,1.46,1.47,2.12c.3,.45,.34,1.02,.1,1.5-.13,.26-.24,.54-.34,.82-.18,.51-.61,.88-1.14,.99l-2.73,.46v2.06s2.73,.47,2.73,.47c.53,.11,.96,.48,1.14,.99,.1,.28,.21,.55,.34,.82,.23,.48,.2,1.05-.1,1.5l-1.43,2.08,1.47,1.46,2.09-1.42c.25-.17,.55-.25,.85-.25,.23,0,.45,.05,.66,.15,.26,.13,.54,.24,.82,.34,.51,.18,.89,.61,.99,1.13l.47,2.52h2.07l.47-2.52c.11-.53,.48-.96,.99-1.13,.28-.1,.56-.21,.82-.34,.21-.1,.44-.15,.66-.15,.3,0,.59,.09,.85,.25l2.1,1.43,1.47-1.46-1.44-2.09c-.3-.45-.34-1.02-.1-1.5Zm-6.86,1.13c-2.45,0-4.45-1.99-4.45-4.43s2-4.43,4.45-4.43,4.45,1.99,4.45,4.43-2,4.43-4.45,4.43Z" />
    <rect x=".36" y=".36" width="71.28" height="71.28" fill="none"/>
</svg>