<?xml version="1.0" encoding="UTF-8"?>
<svg xmlns="http://www.w3.org/2000/svg" viewBox="0 0 72 72">
    <path d="M55.83,64.76s-.1,0-.15,0h-.1s-39.85,0-39.85,0c-1.93,0-3.5-1.57-3.5-3.5V10.68c0-1.93,1.57-3.5,3.5-3.5H55.83c1.93,0,3.5,1.57,3.5,3.5V61.26c0,1.93-1.57,3.5-3.5,3.5ZM15.73,10.18c-.28,0-.5,.22-.5,.5V61.26c0,.28,.22,.5,.5,1.73l39.92-.02v-1.23s.1,0,.15,0h.08c.25-.02,.45-.23,.45-.49V10.68c0-.28-.22-.5-.5-.5H15.73Z" />
    <rect x="20.99" y="14.92" width="17.67" height="3" />
    <path d="M49.56,21.64H21.59c-.55,0-1,.45-1,1v5.6c0,.55,.45,1,1,1h27.97c.55,0,1-.45,1-1v-5.6c0-.55-.45-1-1-1Zm-1,5.6H22.59v-3.6h25.97v3.6Z" />
    <path d="M21.59,39.11h15.17c.55,0,1-.45,1-1v-5.6c0-.55-.45-1-1-1h-15.17c-.55,0-1,.45-1,1v5.6c0,.55,.45,1,1,1Zm1-5.6h13.17v3.6h-13.17v-3.6Z" />
    <path d="M49.56,31.51h-8.81c-.55,0-1,.45-1,1v5.6c0,.55,.45,1,1,1h8.81c.55,0,1-.45,1-1v-5.6c0-.55-.45-1-1-1Zm-1,5.6h-6.81v-3.6h6.81v3.6Z" />
    <path d="M41.27,53.57c-.33-.07-.6-.3-.71-.61-.06-.17-.13-.34-.21-.5-.14-.3-.12-.65,.06-.93l.91-1.32-.91-.9-1.32,.91c-.16,.1-.34,.16-.52,.16-.14,0-.28-.03-.41-.09-.16-.08-.33-.15-.51-.21-.32-.11-.55-.38-.62-.7l-.29-1.65h-1.28s-.29,1.65-.29,1.65c-.07,.33-.3,.59-.62,.7-.17,.06-.34,.13-.51,.21-.13,.06-.27,.09-.41,.09-.18,0-.37-.05-.52-.16l-1.32-.9-.91,.9,.91,1.31c.19,.28,.21,.63,.06,.93-.08,.16-.15,.33-.21,.5-.11,.31-.38,.55-.71,.61l-1.69,.29v1.28s1.69,.29,1.69,.29c.33,.07,.6,.3,.71,.61,.06,.17,.13,.34,.21,.51,.14,.3,.12,.65-.06,.93l-.89,1.29,.91,.9,1.3-.88c.16-.1,.34-.16,.52-.16,.14,0,.28,.03,.41,.09,.16,.08,.33,.15,.51,.21,.32,.11,.55,.38,.62,.7l.29,1.56h1.28l.29-1.56c.07-.33,.3-.59,.61-.7,.18-.06,.34-.13,.51-.21,.13-.06,.27-.09,.41-.09,.18,0,.37,.05,.52,.16l1.3,.89,.91-.9-.89-1.29c-.19-.28-.21-.63-.06-.93,.08-.16,.15-.33,.21-.5,.11-.31,.38-.55,.71-.61l1.56-.29v-1.28s-1.56-.29-1.56-.29Zm-5.16,3.95c-1.67,0-3.04-1.36-3.04-3.02s1.36-3.02,3.04-3.02,3.04,1.36,3.04,3.02-1.36,3.02-3.04,3.02Z" />
    <ellipse cx="36.11" cy="54.5" rx="1.93" ry="1.92" />
    <path d="M56.4,55.17h-4.04c-.8-2.33-2.09-4.43-3.74-6.19h.93c.55,0,1-.45,1-1v-5.6c0-.55-.45-1-1-1H21.59c-.55,0-1,.45-1,1v5.6c0,.55,.45,1,1,1h1.94c-1.65,1.76-2.94,3.86-3.74,6.19h-5.29c-.83,0-1.5,.67-1.5,1.5v4.86c0,.83,.67,1.5,1.5,1.5H56.4c.83,0,1.5-.67,1.5-1.5v-4.86c0-.83-.67-1.5-1.5-1.5Zm-33.81-11.79h25.97v3.6h-2.15c-2.88-2.17-6.45-3.46-10.33-3.46s-7.46,1.29-10.33,3.46h-3.15v-3.6Zm21.55,11.8c0,.48-.34,.89-.81,.98l-1.54,.31c-.08,.22-.17,.44-.27,.64l.87,1.3c.27,.4,.21,.92-.13,1.26l-.97,.96c-.19,.19-.45,.29-.71,.29-.19,0-.39-.06-.56-.17l-1.31-.87c-.21,.1-.42,.19-.65,.27l-.31,1.53c-.09,.47-.51,.8-.98,.8h-1.36c-.48,0-.89-.34-.98-.8l-.31-1.53c-.22-.08-.44-.17-.65-.27l-1.31,.87c-.17,.11-.36,.17-.56,.17-.26,0-.52-.1-.71-.29l-.97-.96c-.34-.34-.39-.86-.13-1.26l.87-1.3c-.1-.21-.19-.42-.27-.64l-1.54-.31c-.47-.09-.81-.5-.81-.98v-1.36c0-.48,.34-.89,.81-.98l1.54-.31c.08-.22,.17-.44,.27-.64l-.87-1.3c-.27-.4-.21-.92,.13-1.26l.96-.96c.19-.19,.45-.29,.71-.29,.19,0,.39,.05,.56,.17l1.31,.87c.21-.1,.42-.19,.65-.27l.31-1.53c.09-.47,.51-.8,.98-.8h1.36c.48,0,.89,.34,.98,.8l.31,1.53c.22,.08,.44,.17,.65,.27l1.31-.87c.17-.11,.36-.17,.56-.17,.26,0,.52,.1,.71,.29l.97,.96c.34,.34,.39,.86,.13,1.26l-.87,1.3c.1,.21,.19,.42,.27,.64l1.54,.31c.47,.09,.81,.5,.81,.98v1.36Z" />
    <rect x=".36" y=".36" width="71.28" height="71.28" fill="none"/>
</svg>