<?xml version="1.0" encoding="UTF-8"?>
<svg xmlns="http://www.w3.org/2000/svg" viewBox="0 0 72 72">
    <circle cx="26.39" cy="28.24" r="4.2" />
    <circle cx="54.41" cy="28.24" r="4.2" />
    <circle cx="40.33" cy="28.24" r="4.2" />
    <path d="M27.12,11.85h31.37v-3H27.12c-10.5,0-19.04,8.7-19.04,19.39,0,9.32,6.61,17.31,15.53,19.03-.17,.89-.27,1.81-.27,2.76,0,8.08,6.58,14.66,14.66,14.66s14.66-6.58,14.66-14.66c0-.82-.08-1.62-.21-2.4h6.04v-3h-6.87c-2.16-5.42-7.44-9.26-13.62-9.26s-11.31,3.73-13.53,9.02c-7.67-1.33-13.39-8.16-13.39-16.14,0-8.88,7.35-16.39,16.04-16.39Zm10.88,26.01c6.71,0,12.16,5.46,12.16,12.16s-5.46,12.16-12.16,12.16-12.16-5.45-12.16-12.16c0-.81,.08-1.6,.24-2.37h.02s.03-.23,.03-.23c1.19-5.46,6.06-9.56,11.87-9.56Z" />
    <path d="M33.5,44.74c.53,0,1.04-.04,1.54-.13,.5-.09,.95-.23,1.35-.44,.4-.21,.75-.47,1.03-.79,.29-.32,.47-.72,.56-1.19h2.05v15.4h-2.75v-10.87h-3.78v-1.98Z" />
    <rect x=".36" y=".36" width="71.28" height="71.28" fill="none"/>
</svg>
