<?xml version="1.0" encoding="UTF-8"?>
<svg xmlns="http://www.w3.org/2000/svg" viewBox="0 0 72 72">
    <circle cx="46.78" cy="61.2" r="2.36" />
    <circle cx="53.78" cy="61.2" r="2.36" />
    <circle cx="60.53" cy="61.2" r="2.36" />
    <path d="M27.35,33.54c-2.73,0-4.95-2.22-4.95-4.95s2.22-4.95,4.95-4.95,4.95,2.22,4.95,4.95-2.22,4.95-4.95,4.95Zm0-8.39c-1.9,0-3.45,1.55-3.45,3.45s1.55,3.45,3.45,3.45,3.45-1.55,3.45-3.45-1.55-3.45-3.45-3.45Z" />
    <path d="M55.37,33.54c-2.73,0-4.95-2.22-4.95-4.95s2.22-4.95,4.95-4.95,4.95,2.22,4.95,4.95-2.22,4.95-4.95,4.95Zm0-8.39c-1.9,0-3.45,1.55-3.45,3.45s1.55,3.45,3.45,3.45,3.45-1.55,3.45-3.45-1.55-3.45-3.45-3.45Z" />
    <path d="M41.29,33.54c-2.73,0-4.95-2.22-4.95-4.95s2.22-4.95,4.95-4.95,4.95,2.22,4.95,4.95-2.22,4.95-4.95,4.95Zm0-8.39c-1.9,0-3.45,1.55-3.45,3.45s1.55,3.45,3.45,3.45,3.45-1.55,3.45-3.45-1.55-3.45-3.45-3.45Z" />
    <path d="M59.79,44.97H30.63c.13-.35,.2-.72,.2-1.1,0-.87-.34-1.68-.95-2.3l-7.41-7.41c-.59-.59-1.43-.93-2.3-.93s-1.71,.34-2.3,.93l-3.24,3.24c-1.69-2.66-2.59-5.69-2.59-8.82,0-8.88,7.35-16.39,16.04-16.39h31.37v-3H28.08c-10.5,0-19.04,8.7-19.04,19.39,0,3.93,1.18,7.72,3.42,10.99l-1.91,1.91c-.61,.61-.95,1.43-.95,2.3s.34,1.68,.95,2.3c.61,.61,1.43,.95,2.3,.95s1.68-.34,2.3-.95l1.82-1.82c.72,12.43,8.92,20.07,21.75,20.07,1.79,0,3.25-1.46,3.25-3.25s-1.46-3.25-3.25-3.25c-7.85,0-12.88-3.46-14.62-9.86H59.79v-3Zm-21.07,14.36c.97,0,1.75,.78,1.75,1.75s-.78,1.75-1.75,1.75c-12.71,0-20.31-7.62-20.31-20.38v-1.76l-4.33,4.33c-.34,.34-.79,.51-1.24,.51s-.9-.17-1.24-.51c-.68-.68-.68-1.79,0-2.47l7.32-7.32c.33-.33,.78-.49,1.24-.49s.91,.16,1.24,.49l7.41,7.41c.68,.68,.68,1.79,0,2.47-.34,.34-.79,.51-1.24,.51s-.9-.17-1.24-.51l-4.43-4.43v1.77c0,10.72,6.12,16.88,16.81,16.88Z" />
    <rect x="71.97" width="71.28" height="71.28" fill="none"/>
    <rect x=".22" y=".36" width="71.28" height="71.28" fill="none"/>
</svg>