<?xml version="1.0" encoding="UTF-8"?>
<svg xmlns="http://www.w3.org/2000/svg" viewBox="0 0 72 72">
      <path d="M26.26,53.69l-2.5-.08v.28H10.24c.1-3.24,.22-6.42,.27-6.85l.03-.22c.08-.57,.12-.92,.9-1.35,2.06-1.16,4.01-2.02,5.73-2.77,1.92-.84,3.44-1.5,4.52-2.33,1.44-1.1,2.16-5.62,2.06-6.82-.09-1.07-.99-2.45-2.63-4.64-.2-.27-.36-.48-.44-.6-.26-.4-.88-1.32-.88-2.25,0-.43,.03-.56,.08-.78,.1-.43,.19-.86,.19-1.82v-.28c0-1.4,0-2.32,.82-5.68,.25-1.02,1.18-2.34,2.04-2.88,.22-.14,.3-.17,.3-.17,.08,0,.18,.01,.3,.02,.77,.07,2.05,.19,5.2-.51,1.44-.32,3.82,.52,5.52,1.95,.16,.14,.35,.23,.54,.29-.13,.3-.23,.6-.3,.9l-.09,.37,2.43,.58,.08-.34c.2-.81,.81-1.82,1.52-2.52l-1.76-1.78c-.12,.12-.22,.25-.33,.38-.05-.05-.1-.11-.15-.16-2.05-1.73-5.36-3.2-8.11-2.59-2.68,.6-3.67,.51-4.26,.45-.81-.08-1.42-.08-2.49,.6-1.5,.95-2.91,2.93-3.35,4.7-.91,3.72-.91,4.9-.91,6.4v.28c0,.68-.05,.88-.1,1.12-.09,.38-.17,.75-.17,1.48,0,1.64,.79,3.02,1.39,3.91,.1,.15,.29,.41,.54,.74,.47,.63,1.9,2.54,2.04,3.09,.07,.86-.57,3.58-.99,4.26-.81,.58-2.2,1.19-3.8,1.89-1.7,.74-3.82,1.67-6.01,2.9-2.07,1.17-2.29,2.78-2.4,3.56l-.02,.16c-.11,.74-.3,6.9-.35,8.77-.01,.41,.14,.8,.42,1.09,.28,.29,.67,.45,1.08,.45h15.24c.18,0,.35-.04,.51-.1,.16,.07,.33,.11,.5,.11h2v-2.5h-.71l.02-.71Z" />
      <path d="M26.49,47.7l-2.5-.15c-.05,.85-.11,2.48-.17,4.06l2.5,.09c.05-1.55,.11-3.15,.17-3.99Z" />
      <path d="M28.34,42.28c-.65,.33-1.32,.68-2,1.06-.82,.46-1.42,1.05-1.79,1.74l2.2,1.18c.15-.27,.41-.51,.82-.74,.64-.36,1.27-.69,1.89-1l-1.12-2.24Z" />
      <path d="M36.07,23.2c0-.92,.02-1.69,.32-3.22l-2.45-.48c-.34,1.75-.37,2.68-.37,3.7v.54h2.5v-.54Z" />
      <path d="M62.98,51.64l2.5-.09c-.05-1.59-.12-3.23-.17-4.06l-2.5,.15c.05,.81,.11,2.42,.17,3.99Z" />
      <path d="M33.88,39.76c-.48,.22-1,.44-1.54,.68-.67,.29-1.39,.61-2.14,.95l1.04,2.27c.74-.34,1.44-.64,2.1-.93,.56-.24,1.09-.47,1.58-.7l-1.04-2.28Z" />
      <path d="M36.22,38.5c-.19,.14-.41,.28-.65,.42l1.25,2.17c.38-.22,.7-.43,.98-.64,.23-.17,.92-.7,1.57-3.48l-2.43-.57c-.28,1.18-.58,1.9-.72,2.11Z" />
      <path d="M33.3,26.33c0,1.76,.98,3.22,1.33,3.75l.08,.12,2.02-1.48c-.43-.65-.92-1.5-.92-2.39,0-.2,0-.35,.02-.48l-2.48-.28c-.02,.19-.04,.43-.04,.75Z" />
      <path d="M52.69,22.85c.05,.24,.11,.5,.16,.87l2.47-.37c-.07-.43-.13-.74-.19-1.02-.12-.57-.23-1.06-.29-2.81l-2.5,.09c.07,1.97,.2,2.59,.35,3.25Z" />
      <path d="M37.95,30.37l-2.03,1.46c1.2,1.66,1.34,2.16,1.35,2.23v.11c0,.12,0,.26-.02,.41l2.49,.23c.02-.24,.03-.45,.03-.64,0-.12,0-.23-.01-.33-.06-.77-.59-1.77-1.82-3.47Z" />
      <path d="M52.22,17.99l2.36-.84c-.45-1.26-1.52-2.54-3.02-3.62l-1.46,2.03c1.06,.76,1.85,1.67,2.12,2.43Z" />
      <path d="M53.34,25.79c0,.92-.52,2.24-.9,2.83l2.12,1.33c.52-.82,1.28-2.6,1.28-4.17,0-.14,0-.27,0-.39l-2.5,.13c0,.08,0,.16,0,.26Z" />
      <path d="M59.04,41.39c-.59-.28-1.17-.54-1.71-.78-.69-.31-1.34-.61-1.93-.89l-1.07,2.26c.6,.29,1.27,.59,1.98,.91,.54,.24,1.11,.5,1.69,.77l1.05-2.27Z" />
      <path d="M52.03,34.36c0-.06,.1-.66,1.41-2.72l-2.11-1.34c-1.54,2.42-1.77,3.36-1.8,3.91,0,.06,0,.12,0,.18,0,.09,0,.19,.01,.29l2.49-.16v-.17Z" />
      <path d="M51.55,40.41c.26,.19,.55,.38,.88,.58l1.28-2.15c-.26-.15-.49-.3-.69-.45-.14-.23-.42-.93-.68-2.08l-2.44,.57c.64,2.76,1.31,3.32,1.65,3.53Z" />
      <path d="M48.56,14.66l1.07-2.26c-1.57-.74-3.15-1.08-4.54-.95l.23,2.49c.96-.09,2.09,.18,3.24,.73Z" />
      <path d="M43.44,14.29l-.43-2.46c-1.37,.24-2.41,.23-2.97,.18-.21-.02-.38-.03-.54-.03-.19,0-.34,.01-.51,.04l.5,2.46c.09,0,.19,.01,.31,.02,.26,.03,.59,.06,1.03,.06,.74,0,1.59-.09,2.6-.26Z" />
      <path d="M64.69,45.02c-.39-.7-.98-1.27-1.76-1.69-.7-.38-1.38-.73-2.05-1.06l-1.11,2.24c.64,.32,1.3,.65,1.97,1.02,.36,.19,.61,.42,.76,.7l2.19-1.21Z" />
      <path d="M65.54,53.61l-2.5,.08,.02,.71h-.71v2.5h2c.34,0,.66-.14,.9-.38s.36-.57,.35-.91l-.06-2Z" />
      <rect x="56.76" y="54.4" width="3.73" height="2.5" />
      <rect x="45.58" y="54.4" width="3.73" height="2.5" />
      <rect x="34.4" y="54.4" width="3.73" height="2.5" />
      <rect x="39.99" y="54.4" width="3.73" height="2.5" />
      <rect x="51.17" y="54.4" width="3.73" height="2.5" />
      <rect x="28.81" y="54.4" width="3.73" height="2.5" />
    <rect width="71.28" height="71.28" fill="none"/>
    <rect x="72" y=".72" width="71.28" height="71.28" fill="none"/>
</svg>