<?xml version="1.0" encoding="UTF-8"?>
<svg xmlns="http://www.w3.org/2000/svg" viewBox="0 0 72 72">
    <path d="M39.12,18.29h-10.19c-.55,0-1-.45-1-1s.45-1,1-1h10.19c.55,0,1,.45,1,1s-.45,1-1,1Z" />
    <path d="M39.12,25.36h-10.19c-.55,0-1-.45-1-1s.45-1,1-1h10.19c.55,0,1,.45,1,1s-.45,1-1,1Z" />
    <path d="M34.66,61.49c-4.38,0-7.74-4.78-9.99-7.98l-.1-.14c-3.53-5.02-4.64-8.95-3.3-11.67,.12-.29,1.46-3.26,3.95-3.26,.33,0,.63,.16,.82,.42l3.57,5.07c.31,.44,.22,1.04-.21,1.37l-1.89,1.45s-.02,.09,0,.19c.05,.3,.66,1.52,2.16,3.66,1.17,1.67,2.24,2.87,2.58,3.05h0c.11,.06,.18,.07,.21,.07,0,0,.01,0,.02-.01l2.1-1.16c.45-.25,1.01-.12,1.3,.3l3.56,5.06c.12,.17,.18,.37,.18,.58,0,2.35-3.71,2.88-4.45,2.96-.17,.01-.34,.02-.5,.02Zm-9.89-20.94c-.81,.35-1.48,1.53-1.68,1.99-.99,2.01,.13,5.43,3.12,9.68l.09,.14c2.07,2.95,5.19,7.42,8.67,7.12,1.09-.12,2.18-.52,2.53-.82l-2.75-3.9-1.27,.7c-.46,.3-1.28,.46-2.19-.03h0c-.97-.53-2.47-2.52-3.27-3.66-2.4-3.41-2.49-4.31-2.52-4.61-.1-1.01,.36-1.69,.81-2l1.1-.85-2.65-3.77Zm7.59,13.25s0,0,0,0c0,0,0,0,0,0Zm0,0s0,0,0,0c0,0,0,0,0,0Zm.11-.06h0Zm-5.06-6.9s0,0,0,0c0,0,0,0,0,0Zm0,0s0,0,0,0c0,0,0,0,0,0Zm0,0s0,0,0,0c0,0,0,0,0,0Z" />
    <circle cx="33.09" cy="39.88" r="1.48" />
    <circle cx="37.98" cy="39.88" r="1.48" />
    <circle cx="33.09" cy="44.77" r="1.48" />
    <circle cx="37.98" cy="44.77" r="1.48" />
    <circle cx="33.09" cy="49.66" r="1.48" />
    <circle cx="37.98" cy="49.66" r="1.48" />
    <circle cx="42.87" cy="49.66" r="1.48" />
    <polygon points="50.8 42.58 45.65 37.42 47.77 35.3 50.8 38.33 57.34 31.79 59.47 33.91 50.8 42.58" />
    <path d="M63.89,26.75l-10.48-3.19V11.11c0-2.31-1.88-4.19-4.18-4.19H18.83c-2.31,0-4.18,1.88-4.18,4.19V61.93c0,2.31,1.88,4.19,4.18,4.19h9.18v-3h-9.18c-.65,0-1.18-.53-1.18-1.19V11.11c0-.65,.53-1.19,1.18-1.19h30.4c.65,0,1.18,.53,1.18,1.19v12.4l-10.64,3.24c-.57,.17-.94,.73-.88,1.33l1.02,9.76c.27,2.26,.54,3.81,.88,5.05,.12,.46,.35,.94,.68,1.43-.05,.14-.08,.3-.08,.46,0,.82,.66,1.48,1.48,1.48,.1,0,.2-.01,.29-.03,1.6,1.45,3.99,3.05,7.25,4.84v10.86c0,.65-.53,1.19-1.18,1.19h-9.57v3h9.57c2.31,0,4.18-1.88,4.18-4.19v-10.95c5.83-3.23,8.84-5.81,9.46-8.09,.33-1.23,.6-2.79,.88-5.07l1.02-9.74c.06-.6-.31-1.15-.88-1.33Zm-2.62,10.79c-.26,2.13-.51,3.58-.81,4.7-.19,.72-1.43,2.82-8.63,6.76-7.2-3.94-8.43-6.04-8.63-6.76-.3-1.11-.55-2.56-.8-4.67l-.91-8.72,10.34-3.15,10.34,3.15-.91,8.7Z" />
    <rect x=".36" y=".36" width="71.28" height="71.28" fill="none"/>
</svg>