<?xml version="1.0" encoding="utf-8"?>
<svg xmlns="http://www.w3.org/2000/svg" viewBox="0 0 72 72">
	<path d="M43.2,56.3c-0.3,0-0.7-0.1-1-0.3l-4.6-3.8c-0.3-0.3-0.5-0.7-0.5-1.2v-9.3c0-0.8,0.7-1.5,1.5-1.5s1.5,0.7,1.5,1.5v8.6
		l4.1,3.4c0.6,0.5,0.7,1.5,0.2,2.1C44,56.1,43.6,56.3,43.2,56.3L43.2,56.3z"/>
	<circle cx="27.1" cy="28.2" r="4.2"/>
	<circle cx="55.2" cy="28.2" r="4.2"/>
	<circle cx="41.1" cy="28.2" r="4.2"/>
	<path d="M27.9,11.9h31.4v-3H27.9c-10.5,0-19,8.7-19,19.4c0,9.4,6.7,17.4,15.7,19.1c-0.2,0.9-0.3,1.9-0.3,2.8
		c0,8,6.5,14.5,14.5,14.5s14.5-6.5,14.5-14.5c0-0.9-0.1-1.7-0.2-2.5h6.2v-3h-7c-2.2-5.3-7.4-9-13.5-9s-11.1,3.6-13.4,8.8
		c-7.8-1.3-13.6-8.1-13.6-16.2C11.8,19.4,19.2,11.8,27.9,11.9L27.9,11.9z M38.8,38.1c6.6,0,12,5.4,12,12s-5.4,12-12,12
		s-12-5.4-12-12S32.1,38.1,38.8,38.1z"/>
</svg>
