<?xml version="1.0" encoding="UTF-8"?>
<svg xmlns="http://www.w3.org/2000/svg" viewBox="0 0 72 72">
    <circle cx="26.38" cy="28.24" r="4.2" />
    <circle cx="54.4" cy="28.24" r="4.2" />
    <circle cx="40.32" cy="28.24" r="4.2" />
    <path d="M51.75,39.79c-3.92,0-7.4,1.9-9.59,4.83h-15.05c-8.7,0-16.04-7.5-16.04-16.39S18.42,11.85,27.11,11.85h31.37v-3H27.11c-10.5,0-19.04,8.7-19.04,19.39s8.54,19.39,19.04,19.39h13.42c-.48,1.3-.76,2.69-.76,4.15,0,6.6,5.37,11.98,11.98,11.98s11.98-5.37,11.98-11.98-5.37-11.98-11.98-11.98Zm0,21.46c-5.23,0-9.48-4.25-9.48-9.48s4.25-9.48,9.48-9.48,9.48,4.25,9.48,9.48-4.25,9.48-9.48,9.48Z" />
    <path d="M47.58,47c.48,0,.94-.04,1.39-.12,.45-.08,.85-.21,1.22-.4,.36-.18,.67-.42,.93-.71,.26-.29,.43-.65,.5-1.07h1.84v13.86h-2.48v-9.78h-3.41v-1.78Z" />
      <path d="M9.79,61.4v-11.39h1.63v4.88h2.02v-4.88h1.63v11.39h-1.63v-5.07h-2.02v5.07h-1.63Z" />
      <path d="M16.92,61.4v-11.39h1.57l2.1,6.03h.03l2.08-6.03h1.58v11.39h-1.63v-6.93h-.03l-1.62,4.9h-.82l-1.6-4.9h-.03v6.93h-1.63Z" />
      <path d="M25.08,61.4l2.54-11.39h1.36l2.54,11.39h-1.63l-.48-2.45h-2.22l-.48,2.45h-1.63Zm4.03-3.98l-.8-4.13h-.03l-.8,4.13h1.63Z" />
      <path d="M37.52,58.16v.7c0,.35-.07,.69-.2,1-.13,.31-.32,.59-.55,.84-.24,.25-.51,.44-.82,.58s-.65,.22-1.02,.22c-.31,0-.62-.04-.94-.13-.32-.08-.61-.23-.86-.45s-.47-.49-.63-.82c-.17-.34-.25-.77-.25-1.29v-6.27c0-.37,.06-.72,.19-1.04,.13-.32,.31-.6,.54-.83,.23-.23,.51-.42,.84-.55,.33-.13,.69-.2,1.08-.2,.77,0,1.39,.25,1.87,.75,.23,.25,.42,.54,.55,.87,.13,.34,.2,.7,.2,1.1v.64h-1.63v-.54c0-.32-.09-.6-.27-.83-.18-.23-.43-.35-.74-.35-.41,0-.67,.13-.81,.38s-.2,.57-.2,.95v5.82c0,.33,.07,.61,.22,.83,.14,.22,.4,.34,.78,.34,.11,0,.22-.02,.34-.06,.12-.04,.24-.1,.34-.18,.1-.09,.18-.2,.24-.35,.06-.15,.1-.34,.1-.56v-.56h1.63Z" />
    <rect x=".36" y=".36" width="71.28" height="71.28" fill="none"/>
</svg>
