<?xml version="1.0" encoding="UTF-8"?>
<svg xmlns="http://www.w3.org/2000/svg" viewBox="0 0 72 72">
      <circle cx="43.45" cy="27.59" r="2.64" />
      <circle cx="61.1" cy="27.59" r="2.64" />
      <circle cx="52.23" cy="27.59" r="2.64" />
      <path d="M43.91,17.32h19.82v-2h-19.82c-6.64,0-12.05,5.5-12.05,12.27,0,5.82,4.08,10.83,9.62,12-.1,.56-.16,1.13-.16,1.72,0,.51,.05,1,.13,1.49-.23,0-.47,.05-.69,.17l-5.12,2.82s-.05,.03-.06,.03c-.01,0,0-.01-.05,.04-.05,.03-.5,.25-1.36-.21-1.11-.6-3.9-3.85-6.63-7.74-3.61-5.13-5.35-8.46-5.45-9.37-.09-.88,.25-1.2,.23-1.2,.11-.05,.05-.03,.15-.1l4.61-3.55c.64-.49,.77-1.39,.31-2.05l-8.71-12.38c-.28-.4-.74-.64-1.23-.64-5.58,0-8.7,7.19-8.79,7.43-3.87,7.86,2.21,19.31,7.98,27.53l.23,.33c5.38,7.66,13.42,19.09,23.62,19.09,.38,0,.76-.02,1.14-.05,1.67-.19,10.03-1.36,10.03-6.3,0-.31-.1-.61-.27-.86l-3.96-5.63c1.04,.39,2.16,.62,3.33,.62,5.21,0,9.45-4.24,9.45-9.45,0-.85-.12-1.67-.34-2.46h3.85v-2h-4.64c-1.6-2.97-4.73-4.99-8.33-4.99-3.92,0-7.28,2.4-8.71,5.8-4.7-.91-8.19-5.15-8.19-10.08,0-5.57,4.6-10.27,10.05-10.27Zm-2.57,42.63c-8.97,.74-16.83-10.4-22.01-17.78l-.23-.33c-7.51-10.68-10.26-19.37-7.71-24.55,.62-1.45,2.7-5.02,5.35-5.6l7.38,10.49-3.43,2.65c-.44,.31-1.82,1.48-1.57,4,.22,2.22,3.37,7.1,5.98,10.8,1.54,2.19,5.37,7.42,7.66,8.66h0c2.28,1.23,3.91,.41,4.39,.1l3.89-2.14,7.57,10.76c-.58,1.46-4.44,2.63-7.25,2.95Zm9.42-26.09c4.11,0,7.45,3.34,7.45,7.45s-3.34,7.45-7.45,7.45-7.45-3.34-7.45-7.45,3.34-7.45,7.45-7.45Z" />
      <path d="M47.93,37.98c.33,0,.66-.03,.97-.08,.31-.06,.6-.15,.85-.28,.25-.13,.47-.3,.65-.5,.18-.2,.3-.45,.35-.75h1.29v9.7h-1.73v-6.85h-2.38v-1.25Z" />
    <rect x=".36" y=".36" width="71.28" height="71.28" fill="none"/>
</svg>
