<?xml version="1.0" encoding="UTF-8"?>
<svg xmlns="http://www.w3.org/2000/svg" viewBox="0 0 72 72">
      <circle cx="36.09" cy="55" r="2.42" />
      <polyline points="35.7 52.84 33.48 49.21 33.73 47.97 32.32 48.12 30.6 45.82 27.77 43.03 29.41 46.65 30.96 49.06 30.33 50.34 31.58 50.53 34.21 53.88" />
    <path d="M35.88,36.04c-8.95,0-16.24,7.28-16.24,16.24,0,.55,.45,1,1,1,.16,0,.3-.04,.44-.11h3.4s0,0,0,0c.28,0,.5-.22,.5-.5,0-.28-.22-.5-.5-.5h-2.83c.02-2.28,.58-4.43,1.55-6.33l2.55,1.48c.08,.05,.17,.07,.25,.07,.17,0,.34-.09,.43-.25,.14-.24,.06-.54-.18-.68l-2.57-1.49c1.14-1.9,2.71-3.51,4.58-4.7l1.51,2.62c.09,.16,.26,.25,.43,.25,.08,0,.17-.02,.25-.07,.24-.14,.32-.44,.18-.68l-1.52-2.64c1.9-1.03,4.06-1.62,6.36-1.69v2.99c0,.28,.22,.5,.5,.5s.5-.22,.5-.5v-2.98c2.27,.09,4.41,.68,6.29,1.69l-1.51,2.62c-.14,.24-.06,.54,.18,.68,.08,.05,.16,.07,.25,.07,.17,0,.34-.09,.43-.25l1.5-2.61c1.89,1.18,3.47,2.78,4.63,4.67l-2.6,1.51c-.24,.14-.32,.44-.18,.68,.09,.16,.26,.25,.43,.25,.08,0,.17-.02,.25-.07l2.6-1.5c.99,1.91,1.57,4.07,1.59,6.35h-2.91c-.28,0-.5,.23-.5,.51,0,.28,.22,.5,.5,.5h3.48c.13,.06,.28,.1,.44,.1,.55,0,1-.45,1-1,0-8.95-7.39-16.24-16.47-16.24Z" />
    <path d="M35.2,32.2h.6c.25,0,.44-.07,.56-.2s.18-.32,.18-.55c0-.21-.06-.38-.18-.51-.12-.13-.3-.19-.53-.19-.2,0-.37,.06-.5,.17s-.2,.27-.2,.46h-1.03v-.02c-.02-.41,.14-.76,.47-1.02,.33-.27,.74-.4,1.24-.4,.55,0,.98,.13,1.31,.39,.33,.26,.49,.63,.49,1.12,0,.23-.07,.45-.22,.66-.15,.21-.35,.37-.6,.49,.29,.1,.52,.26,.67,.48,.15,.22,.23,.47,.23,.75,0,.48-.18,.87-.53,1.14-.35,.28-.8,.42-1.35,.42-.49,0-.91-.13-1.27-.39s-.52-.63-.51-1.1v-.02h1.04c0,.2,.07,.37,.22,.5,.15,.13,.33,.2,.55,.2,.24,0,.44-.07,.58-.2s.21-.32,.21-.55c0-.28-.07-.48-.21-.61-.14-.13-.34-.19-.62-.19h-.6v-.8Z" />
    <path d="M46.63,36.6l.51,.32-.43,.7-.51-.32-.6,.98-.9-.56,.6-.98-1.84-1.13,.29-.57,3.71-1.83,.91,.56-1.75,2.83Zm-1.94-1.19l1.04,.64,1-1.62v-.02s-.16,.08-.16,.08l-1.87,.92Z" />
    <path d="M28.65,36.52l-3.09,1.88-.36-.59,.51-2.46c.06-.37,.09-.67,.08-.89-.01-.22-.06-.4-.15-.55-.12-.19-.26-.31-.44-.37-.18-.06-.36-.03-.55,.08-.21,.13-.32,.29-.35,.5-.02,.21,.04,.43,.18,.67l-.88,.54h-.02c-.26-.42-.33-.84-.23-1.3,.11-.45,.4-.82,.87-1.11,.47-.28,.91-.38,1.32-.3,.41,.08,.74,.32,.99,.73,.17,.27,.25,.57,.23,.89,0,.32-.07,.78-.19,1.36l-.27,1.36h.02s1.9-1.14,1.9-1.14l.42,.7Z" />
    <path d="M53.82,41.9c-.11-.09-.22-.16-.34-.21l1.12-.5,.82,1.37,.66-.39-1.18-2.16-2.69,1.24,.42,.83c.13-.03,.26-.01,.38,.04,.12,.05,.23,.17,.34,.34,.13,.21,.14,.42,.05,.62-.09,.2-.27,.38-.53,.54-.24,.14-.47,.21-.68,.2-.21-.01-.38-.12-.51-.34-.11-.19-.14-.37-.1-.55,.05-.18,.17-.33,.37-.45l-.57-.85h-.02c-.41,.23-.63,.56-.69,.99-.05,.43,.05,.86,.3,1.28,.29,.5,.67,.79,1.11,.88,.45,.09,.89,0,1.32-.25,.48-.29,.79-.63,.92-1.03,.13-.4,.06-.82-.21-1.25-.09-.14-.19-.26-.3-.36Z" />
    <polygon points="16.72 40.88 16.32 41.75 16.55 43.1 17.02 42.26 20.82 44.39 21.33 43.46 16.72 40.88" />
    <polygon points="33.9 23.93 27.6 17.63 29.73 15.51 33.9 19.69 42.58 11.01 44.7 13.13 33.9 23.93" />
    <path d="M61.65,18.05c-2.6-1.5-5.53-2.73-8.69-3.7l-3.86-1c-.38-.08-.77-.15-1.15-.22v-4.17c0-.41-.34-.75-.75-.75H24.91c-.41,0-.75,.34-.75,.75v4.13c-.45,.09-.9,.16-1.35,.26l-3.86,1c-3.11,.95-6,2.16-8.57,3.63-.6,.34-.97,.98-.97,1.68V55.5c0,.69,.37,1.33,.97,1.68,6.83,3.9,15.91,6.04,25.57,6.04s18.84-2.17,25.69-6.11c.6-.34,.97-.98,.97-1.67V19.73c0-.69-.37-1.33-.97-1.67ZM25.66,9.72h20.79v3.13h0v12.92H25.66V9.72ZM59.45,54.79c-6.35,3.37-14.63,5.22-23.49,5.22s-17.04-1.82-23.37-5.15V20.28c3.38-1.78,7.31-3.1,11.57-3.97v10.21c0,.41,.34,.75,.75,.75h22.29c.41,0,.75-.34,.75-.75v-10.17c4.23,.88,8.14,2.21,11.5,3.99V54.79Z" />
    <rect x=".36" y=".36" width="71.28" height="71.28" fill="none"/>
</svg>