<?xml version="1.0" encoding="UTF-8"?>
<svg xmlns="http://www.w3.org/2000/svg" viewBox="0 0 72 72">
    <path d="M19.46,30.16h-1.73c-1.32,0-2.33,1.38-2.33,2.42v1.1h-1.59v2.15h1.57v4.78h1.98v-4.76h2.11v-2.14h-2.11v-.96c0-.16,.17-.42,.31-.42h1.79l-.02-2.17Z" />
    <path d="M39.77,31.31c-.93-.84-2.17-1.36-3.53-1.36-2.91,0-5.27,2.36-5.27,5.27s2.36,5.27,5.27,5.27,5.08-1.98,5.08-5.27c0-.33-.03-.66-.09-.98h-5v2.06s2.89-.02,2.89,0c-.15,1.03-1.28,2.1-2.88,2.1-1.75,0-3.17-1.42-3.17-3.17s1.42-3.17,3.17-3.17c.78,0,1.49,.28,2.05,.75l1.49-1.49Z" />
    <path d="M61.03,32.54c-.41,.18-.84,.3-1.3,.36,.47-.28,.83-.73,1-1.26-.44,.26-.93,.45-1.44,.55-.41-.44-1-.72-1.66-.72-1.25,0-2.27,1.02-2.27,2.27,0,.18,.02,.35,.06,.52-1.89-.1-3.56-1-4.68-2.37-.2,.34-.31,.73-.31,1.14,0,.79,.4,1.48,1.01,1.89-.37-.01-.72-.11-1.03-.28v.03c0,1.1,.78,2.02,1.82,2.23-.19,.05-.39,.08-.6,.08-.15,0-.29-.01-.43-.04,.29,.9,1.13,1.56,2.12,1.58-.78,.61-1.76,.97-2.82,.97-.18,0-.36-.01-.54-.03,1.01,.65,2.2,1.02,3.48,1.02,4.18,0,6.46-3.46,6.46-6.46,0-.1,0-.2,0-.29,.44-.32,.83-.72,1.13-1.18h0Z" />
    <path d="M20.81,27.15c4.63-1.51,9.91-2.33,15.45-2.33s10.51,.78,15.04,2.2c1.07-.45,2.25-.7,3.49-.7,2.11,0,4.06,.73,5.59,1.96-.12-.44-.41-.83-.82-1.07-2.36-1.36-5.01-2.48-7.88-3.35v-2.71c0-8.5-6.92-15.42-15.42-15.42s-15.42,6.92-15.42,15.42v2.71c-2.82,.86-5.44,1.96-7.77,3.29-.14,.08-.27,.18-.38,.3,1.29-.71,2.77-1.12,4.35-1.12,1.35,0,2.62,.3,3.77,.84Zm3.05-6.09c0-6.84,5.56-12.4,12.4-12.4s12.4,5.56,12.4,12.4v1.94c-3.9-.87-8.09-1.34-12.4-1.34s-8.5,.47-12.4,1.34v-1.94Z" />
    <path d="M64.64,35.37c0-4.56-3.14-8.4-7.36-9.49-1.05-.21-1.39-.29-3-.29-4.24,.24-7.77,3.18-8.88,7.14-1.16-4.13-4.94-7.16-9.44-7.16s-8.28,3.04-9.43,7.16c-1.09-3.88-4.5-6.79-8.63-7.12-1.25-.06-2.45,.14-3,.22-4.35,1-7.61,4.9-7.61,9.55,0,3.62,1.97,6.78,4.9,8.48v12.11c0,.63,.34,1.21,.88,1.52,6.2,3.53,14.43,5.48,23.19,5.48s17.09-1.97,23.3-5.54c.54-.31,.88-.89,.88-1.52v-12.49c2.54-1.77,4.2-4.71,4.2-8.04Zm-17.17,6.45c-.7-.16-1.43-.26-2.18-.26-.65,0-1.29,.07-1.9,.19,.92-1.07,1.62-2.34,2.01-3.74,.4,1.43,1.12,2.72,2.07,3.81Zm-2.18,17.74c-4.55,0-8.25-3.7-8.25-8.25s3.7-8.25,8.25-8.25,8.25,3.7,8.25,8.25-3.7,8.25-8.25,8.25Zm-9.38-10.9c-.39-1.39-1.08-2.65-2-3.71,.66,.14,1.35,.23,2.05,.23,.66,0,1.3-.07,1.93-.2-.91,1.06-1.59,2.31-1.98,3.69Zm-9.38,10.9c-4.55,0-8.25-3.7-8.25-8.25s3.7-8.25,8.25-8.25,8.25,3.7,8.25,8.25-3.7,8.25-8.25,8.25Zm9.43-32.5c4.58,0,8.31,3.73,8.31,8.31s-3.73,8.31-8.31,8.31-8.31-3.73-8.31-8.31,3.73-8.31,8.31-8.31Zm-7.4,14.72c-.65-.14-1.33-.22-2.03-.22s-1.39,.08-2.05,.22c.93-1.08,1.64-2.36,2.04-3.77,.4,1.41,1.1,2.69,2.04,3.77Zm-19.78-6.41c0-4.58,3.73-8.31,8.31-8.31s8.31,3.73,8.31,8.31-3.73,8.31-8.31,8.31-8.31-3.73-8.31-8.31Zm6.49,9.63c.59,.11,1.2,.18,1.82,.18,.71,0,1.41-.08,2.07-.23-1.48,1.71-2.38,3.93-2.38,6.37,0,1.93,.57,3.73,1.54,5.24-1.06-.43-2.09-.88-3.06-1.39v-10.17Zm20.99,14.8c-1.55,0-3.08-.08-4.59-.21,2.04-1.27,3.57-3.26,4.24-5.63,.68,2.39,2.24,4.41,4.32,5.67-1.31,.1-2.63,.16-3.97,.16Zm21.09-4.68c-1.28,.68-2.66,1.28-4.11,1.81,1.12-1.59,1.79-3.52,1.79-5.61,0-2.45-.91-4.68-2.41-6.39,.71,.16,1.44,.26,2.2,.26,.87,0,1.71-.13,2.52-.34v10.27Zm-2.52-11.43c-4.58,0-8.31-3.73-8.31-8.31s3.73-8.31,8.31-8.31,8.31,3.73,8.31,8.31-3.73,8.31-8.31,8.31Z" />
    <path d="M28.71,56.41h-4.36c-1.56,0-2.83-1.27-2.83-2.83v-4.55c0-1.56,1.27-2.83,2.83-2.83h4.36c1.56,0,2.83,1.27,2.83,2.83v4.55c0,1.56-1.27,2.83-2.83,2.83Zm-4.36-9.61c-1.23,0-2.23,1-2.23,2.23v4.55c0,1.23,1,2.23,2.23,2.23h4.36c1.23,0,2.23-1,2.23-2.23v-4.55c0-1.23-1-2.23-2.23-2.23h-4.36Z" />
    <rect x="23.91" y="50.05" width="1.11" height="4" />
    <path d="M24.4,49.47c-.27,0-.49-.22-.49-.49s.22-.49,.49-.49h.14c.27,0,.49,.22,.49,.49s-.22,.49-.49,.49h-.14Z" />
    <path d="M29.67,51.39c0-.85-.39-1.47-1.36-1.47-.67,0-1.07,.32-1.31,.58v-.45h-1.11v4h1.11v-2.28c0-.17,.02-.55,.39-.79,.36-.23,.68-.13,.86-.06,.33,.14,.3,.78,.3,.86h0v2.27h1.11v-2.65Z" />
    <path d="M47.59,47.25c.94,0,1.71,.77,1.71,1.71v4.61c0,.94-.77,1.71-1.71,1.71h-4.62c-.94,0-1.71-.77-1.71-1.71v-4.61c0-.94,.77-1.71,1.71-1.71h4.62m0-.76h-4.62c-1.36,0-2.47,1.11-2.47,2.47v4.61c0,1.36,1.11,2.47,2.47,2.47h4.62c1.36,0,2.47-1.11,2.47-2.47v-4.61c0-1.36-1.11-2.47-2.47-2.47h0Z" />
    <path d="M45.28,49.66c.89,0,1.62,.72,1.62,1.62s-.72,1.62-1.62,1.62-1.62-.72-1.62-1.62,.72-1.62,1.62-1.62m0-.76c-1.31,0-2.38,1.07-2.38,2.38s1.07,2.38,2.38,2.38,2.38-1.07,2.38-2.38-1.07-2.38-2.38-2.38h0Z" />
    <circle cx="47.94" cy="48.59" r=".56" />
    <rect x=".36" y=".36" width="71.28" height="71.28" fill="none"/>
</svg>