<?xml version="1.0" encoding="utf-8"?>
<svg xmlns="http://www.w3.org/2000/svg"	viewBox="0 0 72 72">
	<path d="M42.4,56.3c-0.3,0-0.7-0.1-1-0.3l-4.6-3.8c-0.3-0.3-0.5-0.7-0.5-1.2v-9.3c0-0.8,0.7-1.5,1.5-1.5s1.5,0.7,1.5,1.5v8.6
		l4.1,3.4c0.6,0.5,0.7,1.5,0.2,2.1C43.3,56.1,42.9,56.3,42.4,56.3L42.4,56.3z"/>
	<circle cx="26.4" cy="28.2" r="4.2"/>
	<circle cx="54.4" cy="28.2" r="4.2"/>
	<circle cx="40.3" cy="28.2" r="4.2"/>
	<path d="M27.1,11.9h31.4v-3H27.1c-10.5,0-19,8.7-19,19.4c0,9.4,6.7,17.4,15.7,19.1c-0.2,0.9-0.3,1.9-0.3,2.8
		c0,8,6.5,14.5,14.5,14.5s14.5-6.5,14.5-14.5c0-0.9-0.1-1.7-0.2-2.5h6.2v-3h-7c-2.2-5.3-7.4-9-13.5-9s-11.1,3.6-13.4,8.8
		C16.8,43.2,11,36.4,11,28.3C11.1,19.4,18.4,11.8,27.1,11.9L27.1,11.9z M38,38.1c6.6,0,12,5.4,12,12s-5.4,12-12,12s-12-5.4-12-12
		S31.4,38.1,38,38.1z"/>
</svg>
