<?xml version="1.0" encoding="UTF-8"?>
<svg xmlns="http://www.w3.org/2000/svg" viewBox="0 0 72 72">
    <path d="M-90.96,50.52c.8,0,1.43-.3,1.91-.9s.72-1.5,.72-2.68v-.55c-.27,.39-.61,.69-1.02,.89-.41,.2-.86,.3-1.36,.3-1.17,0-2.09-.36-2.78-1.08-.69-.72-1.03-1.72-1.03-2.98s.36-2.21,1.09-2.98c.73-.78,1.61-1.16,2.65-1.16,1.26,0,2.26,.39,2.98,1.18,.73,.79,1.09,1.95,1.09,3.48v2.88c0,1.58-.39,2.79-1.18,3.63-.79,.84-1.82,1.26-3.08,1.26-.43,0-.86-.04-1.3-.12-.44-.08-.83-.2-1.18-.37l.25-1.26c.33,.17,.67,.29,1.02,.36s.76,.1,1.22,.1ZM50.8,13.11c-4.99,0-9.12,3.65-9.86,8.39H15.23c-.88,0-1.6,.72-1.6,1.6s.72,1.6,1.6,1.6h3.79v5.11h3.7v-5.11h3.5v5.11h3.7v-5.11h11.06c.81,4.66,4.9,8.23,9.83,8.23,5.51,0,9.99-4.44,9.99-9.91s-4.48-9.91-9.99-9.91Zm0,16.62c-3.74,0-6.79-3.01-6.79-6.71s3.04-6.71,6.79-6.71,6.79,3.01,6.79,6.71-3.05,6.71-6.79,6.71Zm3.45,27.48H17.91c-.41,0-.75-.34-.75-.75v-21.86c0-.41,.34-.75,.75-.75H54.26c.41,0,.75,.34,.75,.75v21.86c0,.41-.34,.75-.75,.75Zm-35.6-1.5H53.51v-20.36H18.66v20.36Zm-109.37-9.41c.6,0,1.11-.13,1.51-.39s.69-.59,.87-1v-1.04c0-1.06-.2-1.85-.61-2.4-.41-.54-1-.81-1.78-.81-.6,0-1.11,.27-1.53,.8s-.63,1.22-.63,2.05,.2,1.5,.58,2.01c.39,.51,.92,.77,1.59,.77Z"/>
    <polygon points="34.48 52.76 27.29 45.57 29.84 43.02 34.48 47.65 44.19 37.94 46.75 40.49 34.48 52.76" />
    <rect x=".36" y=".36" width="71.28" height="71.28" fill="none"/>
</svg>