<?xml version="1.0" encoding="UTF-8"?>
<svg xmlns="http://www.w3.org/2000/svg" viewBox="0 0 72 72">
    <circle cx="27.14" cy="28.24" r="4.2" />
    <circle cx="55.16" cy="28.24" r="4.2" />
    <circle cx="41.08" cy="28.24" r="4.2" />
    <polygon points="38.06 55.16 32.91 50.01 35.03 47.88 38.06 50.92 44.61 44.37 46.73 46.49 38.06 55.16" />
    <path d="M27.88,11.85h31.37v-3H27.88c-10.5,0-19.04,8.7-19.04,19.39,0,9.66,7.1,17.92,16.52,19.21l1.49,.2,.03-.2,.31,2.98c.27,2.26,.54,3.81,.88,5.05,.63,2.36,3.83,5.04,10.05,8.42l.37,.2c.19,.11,.4,.16,.62,.16s.43-.05,.62-.16l.37-.2c6.22-3.38,9.42-6.06,10.05-8.42,.33-1.23,.6-2.79,.88-5.07l.29-2.78h7.94v-3h-7.63l.41-3.96c.06-.6-.31-1.15-.88-1.33l-11.69-3.56c-.24-.07-.49-.07-.73,0l-11.69,3.56c-.57,.17-.94,.73-.88,1.33l.41,3.92-.81-.11c-7.94-1.09-13.93-8.07-13.93-16.24,0-8.88,7.35-16.39,16.04-16.39Zm11.22,26.43l10.34,3.15-.91,8.7c-.26,2.14-.51,3.58-.81,4.7-.19,.72-1.43,2.82-8.63,6.76-7.2-3.94-8.43-6.04-8.63-6.76-.3-1.11-.55-2.56-.8-4.67l-.91-8.72,10.34-3.15Z" />
    <rect x=".36" y=".36" width="71.28" height="71.28" fill="none"/>
</svg>