<?xml version="1.0" encoding="UTF-8"?>
<svg xmlns="http://www.w3.org/2000/svg" viewBox="0 0 72 72">
    <path d="M53.73,49.22h-13.85c-4.68,0-8.48-3.87-8.48-8.63s3.81-8.63,8.48-8.63h13.85v1.7h-13.85c-3.68,0-6.78,3.18-6.78,6.93s3.11,6.93,6.78,6.93h13.85v1.7Z" />
    <circle cx="39.56" cy="40.58" r="1.83" />
    <circle cx="51.76" cy="40.58" r="1.83" />
    <circle cx="45.63" cy="40.58" r="1.83" />
    <path d="M59.18,28.76c-2.36-1.36-5.01-2.48-7.88-3.35v-4.21c0-8.5-6.92-15.42-15.42-15.42s-15.42,6.92-15.42,15.42v4.21c-2.82,.86-5.44,1.96-7.77,3.29-.55,.31-.88,.89-.88,1.52v24.8c0,.63,.34,1.21,.88,1.52,1.3,.74,2.72,1.4,4.19,2v6.86c0,.28,.22,.5,.5,.5H55.18c.28,0,.5-.22,.5-.5v-7.2c1.22-.53,2.4-1.08,3.5-1.71,.54-.31,.88-.89,.88-1.52V30.28c0-.63-.33-1.2-.88-1.52Zm-35.22-7.56c0-6.57,5.35-11.92,11.92-11.92s11.92,5.35,11.92,11.92v3.31c-3.75-.84-7.77-1.29-11.92-1.29s-8.17,.45-11.92,1.29v-3.31Zm30.72,43.69H17.87v-12.81H54.68v12.81Zm1.88-10.97c-.28,.15-.58,.28-.88,.42v-2.76c0-.28-.22-.5-.5-.5H17.37c-.28,0-.5,.22-.5,.5v3.15c-.53-.24-1.07-.49-1.57-.75V31.26c5.57-2.93,12.83-4.54,20.57-4.54s15.09,1.63,20.68,4.59v22.61Z" />
      <path d="M26.88,62.84h-1.71l-3.45-5.83h-.04v5.83h-1.71v-8.53h1.71l3.45,5.82h.04v-5.82h1.71v8.53Z" />
      <path d="M30.71,54.31l2.17,6.29h.04l2.19-6.29h2.24v8.53h-1.71v-2.54l.16-3.77h-.04s-2.29,6.31-2.29,6.31h-1.15l-2.27-6.29h-.04s.16,3.75,.16,3.75v2.54h-1.71v-8.53h2.23Z" />
      <path d="M43.52,61h-2.99l-.58,1.84h-1.73l2.94-8.53h1.75l2.92,8.53h-1.73l-.58-1.84Zm-2.57-1.34h2.15l-1.05-3.35h-.04l-1.06,3.35Z" />
      <path d="M51.24,60.61c0-.33-.12-.59-.35-.79s-.64-.39-1.22-.56c-1.02-.29-1.78-.64-2.3-1.04s-.78-.95-.78-1.65,.3-1.27,.89-1.71,1.36-.67,2.28-.67,1.7,.25,2.29,.75,.88,1.11,.86,1.84v.04h-1.67c0-.39-.13-.71-.4-.96s-.63-.37-1.11-.37-.81,.1-1.06,.3-.38,.46-.38,.78c0,.29,.13,.53,.4,.71s.73,.38,1.39,.59c.94,.26,1.65,.61,2.14,1.04s.73,.99,.73,1.69-.29,1.31-.86,1.73-1.34,.63-2.28,.63-1.74-.24-2.43-.72-1.03-1.15-1.01-2.01v-.04h1.68c0,.51,.16,.88,.47,1.12s.74,.35,1.3,.35c.46,0,.82-.1,1.07-.29s.37-.45,.37-.77Z" />
    <rect x=".36" y=".36" width="71.28" height="71.28" fill="none"/>
</svg>