<?xml version="1.0" encoding="UTF-8"?>
<svg xmlns="http://www.w3.org/2000/svg" viewBox="0 0 72 72">
    <circle cx="27.53" cy="28.24" r="4.2" />
    <circle cx="55.54" cy="28.24" r="4.2" />
    <circle cx="41.46" cy="28.24" r="4.2" />
      <path d="M28.05,11.85h31.37v-3H28.05c-10.5,0-19.04,8.7-19.04,19.39,0,9.66,7.1,17.92,16.52,19.21,2.2,.23,5.38,.26,6.56,.26,.05,.07,.1,.14,.16,.22,.27,.37,1.11,1.48,1.2,1.78,.04,.48-.32,2.03-.56,2.45-.47,.34-1.29,.69-2.23,1.1-1.01,.44-2.28,.99-3.58,1.73-1.28,.72-1.42,1.72-1.49,2.29-.07,.43-.17,3.8-.21,5.23,0,.27,.09,.53,.28,.73,.19,.19,.45,.3,.72,.3h9.07c.11,0,.21-.03,.3-.06,.1,.03,.2,.06,.3,.06h1.5v-2h-.47v-.46s-1.98-.06-1.98-.06l-.02,.53h-7.68c.05-1.73,.12-3.69,.16-3.96l.02-.13c.05-.34,.07-.49,.48-.73,1.22-.69,2.38-1.19,3.4-1.64,1.15-.5,2.06-.9,2.71-1.4,.89-.68,1.33-3.43,1.27-4.15-.05-.67-.58-1.47-1.59-2.82-.12-.16-.21-.28-.26-.35-.15-.23-.51-.76-.51-1.28,0-.25,.02-.31,.05-.44,.06-.26,.11-.52,.11-1.1v-.17c0-.82,0-1.37,.49-3.35,.14-.57,.69-1.35,1.17-1.65,.09-.06,.14-.08,.14-.08,.05,0,.09,0,.15,.01,.46,.04,1.24,.12,3.13-.31,.83-.19,2.2,.3,3.19,1.14,.03,.02,.06,.03,.08,.05-.04,.12-.09,.25-.12,.36-.21,.83-.34,1.48-.43,2.03l1.98,.31c.08-.48,.2-1.09,.39-1.85,.05-.21,.16-.45,.3-.69l-.73-.44c.26-.42,.2-.97-.18-1.29-1.24-1.05-3.25-1.94-4.92-1.56-1.58,.35-2.16,.3-2.5,.27-.49-.05-.88-.05-1.55,.37-.92,.58-1.77,1.78-2.04,2.86-.55,2.22-.55,2.94-.54,3.84v.16c0,.39-.03,.51-.06,.64-.03,.14-.06,.29-.08,.48-.74,.03-2.63,.05-5.17-.2-7.94-1.09-13.93-8.07-13.93-16.24,0-8.88,7.35-16.39,16.04-16.39Z" />
      <path d="M42.93,43.55v-.31h-2v.31c0,.39-.03,.51-.06,.64-.06,.23-.1,.46-.1,.91,0,.5,.12,1.02,.36,1.54l1.82-.83c-.12-.26-.18-.5-.18-.71,0-.25,.02-.31,.05-.44,.06-.26,.12-.53,.12-1.11Z" />
      <path d="M45.13,49.76v-.21c-.05-.58-.44-1.27-1.47-2.65l-1.6,1.2c.89,1.19,1.05,1.57,1.07,1.67,0,.08,0,.18-.02,.29l1.99,.22c.02-.19,.03-.37,.03-.51Z" />
      <path d="M42.56,52.16c-.33,.23-.79,.46-1.18,.64l.84,1.82c.76-.35,1.25-.63,1.62-.92,.25-.19,.58-.57,.92-1.78l-1.93-.54c-.12,.44-.23,.68-.28,.78Z" />
      <path d="M58.31,57.59c0,.07,.04,.4,.09,1.93l2-.07c-.06-1.74-.09-2.03-.12-2.2-.04-.29-.12-.78-.43-1.28l-1.7,1.06c.09,.14,.12,.32,.15,.56Z" />
      <path d="M51.86,46.83c-1.22,1.84-1.41,2.52-1.43,2.96,0,.02,0,.1,0,.11,0,.08,0,.18,.01,.29l1.99-.18v-.09s.1-.48,1.09-1.98l-1.67-1.11Z" />
      <path d="M52.41,43.63c.06,.4,.15,.62,.23,.82,.03,.08,.05,.1,.05,.33,0,.24-.08,.58-.21,.93l1.88,.69c.15-.41,.33-1.02,.33-1.63s-.1-.87-.22-1.14c-.04-.09-.06-.13-.08-.29-.02-.17-.05-.31-.07-.43l-1.96,.39c.02,.09,.04,.2,.05,.33Z" />
      <path d="M44.58,38.38c.09-.06,.14-.08,.14-.08,.05,0,.09,0,.15,.01,.41,.04,1.15,.05,2.05-.09l-.32-1.97c-.71,.11-1.25,.11-1.54,.08-.64-.06-.99,.02-1.55,.37-.1,.06-.2,.13-.29,.21l1.24,1.57s.08-.06,.13-.09Z" />
      <path d="M52.08,40.42c0,.53,.03,.93,.04,1.25l2-.11c-.02-.3-.03-.68-.04-1.17-.02-.75-.38-1.53-1.07-2.26l-1.46,1.37c.38,.41,.52,.75,.53,.93Z" />
      <path d="M40.02,53.41c-.88,.38-1.83,.81-2.81,1.34l.95,1.76c.97-.52,1.88-.93,2.67-1.27l-.8-1.83Z" />
      <path d="M55.49,53.39l-.82,1.82c.77,.35,1.72,.78,2.69,1.28l.92-1.77c-1.02-.53-2-.98-2.79-1.33Z" />
      <path d="M52.96,52.1c-.05-.1-.15-.35-.27-.78l-1.93,.52c.34,1.24,.67,1.64,.98,1.84,.36,.27,.84,.55,1.53,.88l.87-1.8c-.54-.26-.92-.48-1.18-.66Z" />
      <path d="M51.64,37.01c-1.07-.67-2.23-1.04-3.25-1.04-.06,0-.12,0-.19,0l.17,2c.64,0,1.46,.28,2.2,.74l1.06-1.7Z" />
      <path d="M35.15,59.5l2,.07c.06-1.62,.09-1.93,.09-1.98l.02-.13c.02-.19,.04-.31,.1-.41l-1.71-1.03c-.28,.46-.33,.9-.38,1.26-.02,.1-.04,.29-.11,2.21Z" />
      <path d="M60.46,61.02l-2,.07v.46s-.46,0-.46,0v2h1.5c.27,0,.53-.11,.72-.3,.19-.19,.29-.46,.28-.73l-.05-1.5Z" />
      <rect x="43.84" y="61.55" width="3.15" height="2" />
      <rect x="39.12" y="61.55" width="3.15" height="2" />
      <rect x="53.28" y="61.55" width="3.15" height="2" />
      <rect x="48.56" y="61.55" width="3.15" height="2" />
    <rect x=".42" y=".36" width="71.28" height="71.28" fill="none"/>
</svg>