<?xml version="1.0" encoding="UTF-8"?>
<svg xmlns="http://www.w3.org/2000/svg" viewBox="0 0 72 72">
    <path d="M31.06,59.07c-.22,0-.45-.08-.64-.23l-2.78-2.3c-.23-.19-.36-.47-.36-.77v-5.59c0-.55,.45-1,1-1s1,.45,1,1v5.12l2.42,2c.43,.35,.49,.98,.13,1.41-.2,.24-.48,.36-.77,.36Z" />
    <path d="M51.01,44.12h-12.46c-4.21,0-7.64-3.49-7.64-7.77s3.43-7.77,7.64-7.77h12.46v1.53h-12.46c-3.31,0-6.11,2.86-6.11,6.24s2.8,6.24,6.11,6.24h12.46v1.53Z" />
    <circle cx="38.26" cy="36.35" r="1.64" />
    <circle cx="49.24" cy="36.35" r="1.64" />
    <circle cx="43.72" cy="36.35" r="1.64" />
    <path d="M54.78,49.57c.31-.16,.52-.29,.77-.46,.17-.11,.38-.25,.73-.45,.47-.27,.75-.76,.75-1.3V25.88c0-.54-.29-1.03-.75-1.3-2.08-1.2-4.42-2.18-6.95-2.95v-3.42c0-7.46-6.07-13.53-13.53-13.53s-13.53,6.07-13.53,13.53v3.41c-2.49,.76-4.8,1.73-6.86,2.9-.47,.27-.76,.76-.76,1.3v21.58c0,.54,.29,1.04,.76,1.3,1.22,.69,3.73,1.75,5.05,2.28-.49,1.11-.77,2.34-.77,3.63,0,4.95,4.03,8.97,8.97,8.97,3.61,0,6.72-2.14,8.14-5.22h12.66v4.2c0,.4,.24,.77,.62,.92,.12,.05,.25,.08,.38,.08,.26,0,.52-.1,.71-.29l7.97-7.95c.19-.19,.29-.44,.29-.71s-.11-.52-.29-.71l-4.35-4.34ZM25.26,18.21c0-5.81,4.72-10.53,10.53-10.53s10.53,4.72,10.53,10.53v2.64c-3.31-.74-6.86-1.14-10.53-1.14s-7.22,.4-10.53,1.14v-2.64Zm3.39,43.38c-3.85,0-6.97-3.13-6.97-6.97s3.13-6.97,6.97-6.97,6.97,3.13,6.97,6.97-3.13,6.97-6.97,6.97Zm7.99-11.11c-1.49-2.9-4.51-4.84-7.99-4.84-2.56,0-4.87,1.08-6.5,2.81-.04-.02-.08-.05-.13-.06-1.22-.48-3.14-1.28-4.38-1.89V26.72c4.91-2.59,11.32-4.01,18.15-4.01s13.31,1.44,18.24,4.06v19.76c-.05,.03-.1,.06-.14,.09-.3,.2-.44,.29-1.14,.57-.08,.03-.16,.08-.24,.13l-1.35-1.35c-.29-.29-.72-.37-1.09-.22-.37,.16-.62,.52-.62,.92v3.82h-12.82Zm14.82,9.67v-2.79c0-.55-.45-1-1-1h-13c.11-.57,.17-1.15,.17-1.75s-.06-1.21-.18-1.78h13.01c.55,0,1-.45,1-1v-2.76l5.55,5.54-5.55,5.54Z" />
    <rect x=".36" y=".36" width="71.28" height="71.28" fill="none"/>
</svg>