<?xml version="1.0" encoding="UTF-8"?>
<svg xmlns="http://www.w3.org/2000/svg" viewBox="0 0 71.84 72">
    <path d="M59.36,29.26c-2.36-1.36-5.01-2.48-7.88-3.35v-4.21c0-8.5-6.92-15.42-15.42-15.42s-15.42,6.92-15.42,15.42v4.21c-2.82,.86-5.44,1.96-7.77,3.29-.55,.31-.88,.89-.88,1.52v27.3c0,.63,.34,1.21,.88,1.52,6.2,3.53,14.43,5.48,23.19,5.48s17.09-1.97,23.3-5.54c.54-.31,.88-.89,.88-1.52V30.78c0-.63-.33-1.2-.88-1.52Zm-35.22-7.56c0-6.57,5.35-11.92,11.92-11.92s11.92,5.35,11.92,11.92v3.31c-3.75-.84-7.77-1.29-11.92-1.29s-8.17,.45-11.92,1.29v-3.31ZM56.74,56.92c-5.59,2.97-12.88,4.59-20.68,4.59s-15-1.61-20.57-4.54V31.76c5.57-2.93,12.83-4.54,20.57-4.54s15.09,1.63,20.68,4.59v25.11Z" />
    <path d="M54.13,54.74h-16.29c-5.5,0-9.98-4.56-9.98-10.16s4.48-10.16,9.98-10.16h16.29v2h-16.29c-4.33,0-7.98,3.74-7.98,8.16s3.65,8.16,7.98,8.16h16.29v2Z" />
    <circle cx="37.47" cy="44.59" r="2.15" />
    <circle cx="51.81" cy="44.59" r="2.15" />
    <circle cx="44.6" cy="44.59" r="2.15" />
    <rect x="-.05" y=".36" width="71.28" height="71.28" fill="none"/>
</svg>