<?xml version="1.0" encoding="utf-8"?>
<!-- Generator: Adobe Illustrator 26.5.3, SVG Export Plug-In . SVG Version: 6.00 Build 0)  -->
<svg version="1.1" id="Layer_1" xmlns="http://www.w3.org/2000/svg" xmlns:xlink="http://www.w3.org/1999/xlink" x="0px" y="0px"
	 viewBox="0 0 72 72" style="enable-background:new 0 0 72 72;" xml:space="preserve">
<style type="text/css">
	.st0{fill:none;}
</style>
<path d="M50.8,13.1c-5,0-9.1,3.7-9.9,8.4H15.2c-0.9,0-1.6,0.7-1.6,1.6s0.7,1.6,1.6,1.6H19v5.1h3.7v-5.1h3.5v5.1h3.7v-5.1H41
	c0.8,4.7,4.9,8.2,9.8,8.2c5.5,0,10-4.4,10-9.9S56.3,13.1,50.8,13.1L50.8,13.1z M50.8,29.7c-3.7,0-6.8-3-6.8-6.7s3-6.7,6.8-6.7
	s6.8,3,6.8,6.7S54.5,29.7,50.8,29.7z M54.2,57.2H17.9c-0.4,0-0.8-0.3-0.8-0.8V34.6c0-0.4,0.3-0.8,0.8-0.8h36.3
	c0.4,0,0.8,0.3,0.8,0.8v21.9C55,56.9,54.7,57.2,54.2,57.2L54.2,57.2z M18.7,55.7h34.9V35.3H18.7L18.7,55.7L18.7,55.7z"/>
<polygon points="34.5,52.8 27.3,45.6 29.8,43 34.5,47.7 44.2,37.9 46.8,40.5 "/>
<rect x="0.4" y="0.4" class="st0" width="71.3" height="71.3"/>
</svg>
