<?xml version="1.0" encoding="UTF-8"?>
<svg xmlns="http://www.w3.org/2000/svg" viewBox="0 0 72 72">
  <path d="M39.12,18.29h-10.19c-.55,0-1-.45-1-1s.45-1,1-1h10.19c.55,0,1,.45,1,1s-.45,1-1,1Z"/>
  <path d="M39.12,25.36h-10.19c-.55,0-1-.45-1-1s.45-1,1-1h10.19c.55,0,1,.45,1,1s-.45,1-1,1Z"/>
  <polygon points="50.8 42.58 45.65 37.42 47.77 35.3 50.8 38.33 57.34 31.79 59.47 33.91 50.8 42.58"/>
  <path d="M37.55,52.44l-2.08-3.81c.12-.04.24-.09.34-.14.47-.24.81-.57,1.04-.99s.34-.91.34-1.46-.11-1.05-.34-1.48-.57-.77-1.04-1.02-1.06-.37-1.78-.37h-3.18v9.28h1.18v-3.6h2c.08,0,.14,0,.21,0l1.94,3.61h1.37ZM32.04,44.2h1.93c.5,0,.89.08,1.19.22s.52.37.66.64.21.59.21.96-.07.67-.21.94-.35.47-.65.61-.69.21-1.18.21h-1.94v-3.58h0Z"/>
  <path d="M63.89,26.75l-10.48-3.19v-12.45c0-2.31-1.88-4.19-4.18-4.19h-30.4c-2.31,0-4.18,1.88-4.18,4.19v50.82c0,2.31,1.88,4.19,4.18,4.19h9.18v-3h-9.18c-.65,0-1.18-.53-1.18-1.19V11.11c0-.65.53-1.19,1.18-1.19h30.4c.65,0,1.18.53,1.18,1.19v12.4l-10.64,3.24c-.57.17-.94.73-.88,1.33l1.02,9.76c.1.83.2,1.56.3,2.21h-14.89c-.49,0-.89.4-.89.89l-.02,14.17c0,.49.4.89.89.89h7.87v1.95h-3.66v1.77h9.08v-1.77h-3.64v-1.95h7.91c.49,0,.89-.4.89-.89v-8.37c1.58,1.31,3.78,2.75,6.66,4.33v10.86c0,.65-.53,1.19-1.18,1.19h-9.57v3h9.57c2.31,0,4.18-1.88,4.18-4.19v-10.95c5.83-3.23,8.84-5.81,9.46-8.09.33-1.23.6-2.79.88-5.07l1.02-9.74c.06-.6-.31-1.15-.88-1.33ZM26.17,54.22v-12.4h14.36c.08.38.17.74.26,1.07.15.66.65,1.42,1.15,2.06v9.28h-15.77ZM61.27,37.54c-.26,2.13-.51,3.58-.81,4.7-.19.72-1.43,2.82-8.63,6.76-7.2-3.94-8.43-6.04-8.63-6.76-.3-1.11-.55-2.56-.8-4.67l-.91-8.72,10.34-3.15,10.34,3.15-.91,8.7h.01Z"/>
</svg>