<?xml version="1.0" encoding="UTF-8"?>
<svg xmlns="http://www.w3.org/2000/svg" viewBox="0 0 72 72">
    <path d="M21.89,31.86h-1.73c-1.32,0-2.33,1.38-2.33,2.42v1.1h-1.59v2.15h1.57v4.78h1.98v-4.76h2.11v-2.14h-2.11v-.96c0-.16,.17-.42,.31-.42h1.79l-.02-2.17Z" />
    <path d="M39.7,33.01c-.93-.84-2.17-1.36-3.53-1.36-2.91,0-5.27,2.36-5.27,5.27s2.36,5.27,5.27,5.27,5.08-1.98,5.08-5.27c0-.33-.03-.66-.09-.98h-5v2.06s2.89-.02,2.89,0c-.15,1.03-1.28,2.1-2.88,2.1-1.75,0-3.17-1.42-3.17-3.17s1.42-3.17,3.17-3.17c.78,0,1.49,.28,2.05,.75l1.49-1.49Z" />
    <path d="M59.21,34.24c-.41,.18-.84,.3-1.3,.36,.47-.28,.83-.73,1-1.26-.44,.26-.93,.45-1.44,.55-.41-.44-1-.72-1.66-.72-1.25,0-2.27,1.02-2.27,2.27,0,.18,.02,.35,.06,.52-1.89-.1-3.56-1-4.68-2.37-.2,.34-.31,.73-.31,1.14,0,.79,.4,1.48,1.01,1.89-.37-.01-.72-.11-1.03-.28v.03c0,1.1,.78,2.02,1.82,2.23-.19,.05-.39,.08-.6,.08-.15,0-.29-.01-.43-.04,.29,.9,1.13,1.56,2.12,1.58-.78,.61-1.76,.97-2.82,.97-.18,0-.36-.01-.54-.03,1.01,.65,2.2,1.02,3.48,1.02,4.18,0,6.46-3.46,6.46-6.46,0-.1,0-.2,0-.29,.44-.32,.83-.72,1.13-1.18h0Z" />
    <path d="M29.89,56.61h-4.36c-1.56,0-2.83-1.27-2.83-2.83v-4.55c0-1.56,1.27-2.83,2.83-2.83h4.36c1.56,0,2.83,1.27,2.83,2.83v4.55c0,1.56-1.27,2.83-2.83,2.83Zm-4.36-9.61c-1.23,0-2.23,1-2.23,2.23v4.55c0,1.23,1,2.23,2.23,2.23h4.36c1.23,0,2.23-1,2.23-2.23v-4.55c0-1.23-1-2.23-2.23-2.23h-4.36Z" />
    <rect x="25.09" y="50.25" width="1.11" height="4" />
    <path d="M25.58,49.67c-.27,0-.49-.22-.49-.49s.22-.49,.49-.49h.14c.27,0,.49,.22,.49,.49s-.22,.49-.49,.49h-.14Z" />
    <path d="M30.84,51.59c0-.85-.39-1.47-1.36-1.47-.67,0-1.07,.32-1.31,.58v-.45h-1.11v4h1.11v-2.28c0-.17,.02-.55,.39-.79,.36-.23,.68-.13,.86-.06,.33,.14,.3,.78,.3,.86h0v2.27h1.11v-2.65Z" />
    <path d="M46.77,47.45c.94,0,1.71,.77,1.71,1.71v4.61c0,.94-.77,1.71-1.71,1.71h-4.62c-.94,0-1.71-.77-1.71-1.71v-4.61c0-.94,.77-1.71,1.71-1.71h4.62m0-.76h-4.62c-1.36,0-2.47,1.11-2.47,2.47v4.61c0,1.36,1.11,2.47,2.47,2.47h4.62c1.36,0,2.47-1.11,2.47-2.47v-4.61c0-1.36-1.11-2.47-2.47-2.47h0Z" />
    <path d="M44.46,49.86c.89,0,1.62,.72,1.62,1.62s-.72,1.62-1.62,1.62-1.62-.72-1.62-1.62,.72-1.62,1.62-1.62m0-.76c-1.31,0-2.38,1.07-2.38,2.38s1.07,2.38,2.38,2.38,2.38-1.07,2.38-2.38-1.07-2.38-2.38-2.38h0Z" />
    <circle cx="47.12" cy="48.79" r=".56" />
    <path d="M61.83,37.09c0-1.81-.54-3.49-1.46-4.9v-3.64c0-.63-.33-1.2-.88-1.52-2.36-1.36-5.01-2.48-7.88-3.35v-2.96c0-8.5-6.92-15.42-15.42-15.42s-15.42,6.92-15.42,15.42v2.96c-2.82,.86-5.44,1.96-7.77,3.29-.55,.31-.88,.89-.88,1.52v3.5c-1,1.45-1.59,3.21-1.59,5.1s.59,3.65,1.59,5.1v14.84c0,.63,.34,1.21,.88,1.52,6.2,3.53,14.43,5.48,23.19,5.48s17.09-1.97,23.3-5.54c.54-.31,.88-.89,.88-1.52v-14.98c.92-1.41,1.46-3.09,1.46-4.9Zm-25.81,10.97c-.31-.75-.73-1.45-1.22-2.08,.45,.07,.9,.12,1.37,.12,.35,0,.69-.02,1.03-.06-.47,.62-.88,1.3-1.18,2.03Zm-15.83,3.44c0-4.14,3.37-7.51,7.51-7.51s7.51,3.37,7.51,7.51-3.37,7.51-7.51,7.51-7.51-3.37-7.51-7.51Zm7.66-10.97c.31,.75,.73,1.45,1.22,2.08-.45-.07-.9-.12-1.37-.12-.35,0-.69,.02-1.03,.06,.48-.62,.88-1.3,1.18-2.03Zm16.65,0c.31,.75,.73,1.45,1.22,2.08-.45-.07-.9-.12-1.37-.12-.35,0-.69,.02-1.03,.06,.47-.62,.88-1.3,1.18-2.03Zm-8.32,4.07c-4.14,0-7.51-3.37-7.51-7.51s3.37-7.51,7.51-7.51,7.51,3.37,7.51,7.51-3.37,7.51-7.51,7.51Zm8.17-.6c4.14,0,7.51,3.37,7.51,7.51s-3.37,7.51-7.51,7.51-7.51-3.37-7.51-7.51,3.37-7.51,7.51-7.51Zm.97-6.9c0-4.14,3.37-7.51,7.51-7.51s7.51,3.37,7.51,7.51-3.37,7.51-7.51,7.51-7.51-3.37-7.51-7.51ZM24.27,20.72c0-6.57,5.35-11.92,11.92-11.92s11.92,5.35,11.92,11.92v2.06c-3.75-.84-7.77-1.29-11.92-1.29s-8.17,.45-11.92,1.29v-2.06Zm11.92,4.27c6.39,0,12.43,1.11,17.48,3.14-.28-.03-.56-.04-.85-.04-3.75,0-6.97,2.3-8.32,5.57-1.35-3.27-4.57-5.57-8.32-5.57s-6.97,2.3-8.32,5.57c-1.35-3.27-4.57-5.57-8.32-5.57-.28,0-.55,.02-.82,.04,5.05-2.03,11.09-3.13,17.48-3.13Zm-16.66,4.59c4.14,0,7.51,3.37,7.51,7.51s-3.37,7.51-7.51,7.51-7.51-3.37-7.51-7.51,3.37-7.51,7.51-7.51Zm-3.92,15.61c1.19,.58,2.51,.91,3.92,.91,.35,0,.69-.02,1.03-.06-1.16,1.52-1.86,3.41-1.86,5.47,0,2.89,1.38,5.46,3.5,7.11-2.37-.7-4.58-1.57-6.58-2.62v-10.81Zm14.46,14.99c2.7-.74,4.89-2.69,5.95-5.24,1.07,2.59,3.32,4.56,6.07,5.27-1.92,.21-3.89,.32-5.9,.32s-4.13-.13-6.12-.35Zm19.57-1.41c2.24-1.64,3.71-4.28,3.71-7.27,0-2.08-.72-3.99-1.9-5.52,.45,.07,.9,.12,1.37,.12,1.46,0,2.83-.36,4.05-.97v10.82c-2.17,1.15-4.61,2.1-7.22,2.83Z" />
    <rect x=".36" y=".36" width="71.28" height="71.28" fill="none"/>
</svg>