<?xml version="1.0" encoding="UTF-8"?>
<svg xmlns="http://www.w3.org/2000/svg" viewBox="0 0 72 72">
    <path d="M19.85,63.85c-3.49,0-6.33-2.84-6.33-6.33s2.84-6.33,6.33-6.33,6.33,2.84,6.33,6.33-2.84,6.33-6.33,6.33Zm0-11.66c-2.94,0-5.33,2.39-5.33,5.33s2.39,5.33,5.33,5.33,5.33-2.39,5.33-5.33-2.39-5.33-5.33-5.33Z" />
    <path d="M52.39,63.85c-3.49,0-6.33-2.84-6.33-6.33s2.84-6.33,6.33-6.33,6.33,2.84,6.33,6.33-2.84,6.33-6.33,6.33Zm0-11.66c-2.94,0-5.33,2.39-5.33,5.33s2.39,5.33,5.33,5.33,5.33-2.39,5.33-5.33-2.39-5.33-5.33-5.33Z" />
    <path d="M19.85,8.18c-3.49,0-6.33,2.84-6.33,6.33s2.84,6.33,6.33,6.33,6.33-2.84,6.33-6.33-2.84-6.33-6.33-6.33Zm.57,9.35h-.87v-5.55l-1.31,.02v-.62l2.17-.24v6.4Z" />
      <path d="M19.85,22.46c-3.49,0-6.33,2.84-6.33,6.33s2.84,6.33,6.33,6.33,6.33-2.84,6.33-6.33-2.84-6.33-6.33-6.33Zm2.19,7.94h-.88v1.47h-.86v-1.47h-2.87v-.49l2.82-4.44h.91v4.25h.88v.68Z" />
      <polygon points="20.18 26.94 18.34 29.72 20.29 29.72 20.29 26.72 20.27 26.72 20.18 26.94" />
    <path d="M19.85,36.74c-3.49,0-6.33,2.84-6.33,6.33s2.84,6.33,6.33,6.33,6.33-2.84,6.33-6.33-2.84-6.33-6.33-6.33Zm2.25,3.88c-.77,.92-1.3,1.74-1.57,2.45-.27,.71-.47,1.57-.59,2.58l-.07,.69h-.87l.07-.69c.12-1.01,.36-1.91,.72-2.7s.84-1.57,1.45-2.32h-3.48v-.68h4.33v.68Z" />
    <path d="M36.12,8.18c-3.49,0-6.33,2.84-6.33,6.33s2.84,6.33,6.33,6.33,6.33-2.84,6.33-6.33-2.84-6.33-6.33-6.33Zm2.26,9.35h-4.15v-.6l2.1-2.33c.37-.42,.63-.75,.76-1,.13-.25,.2-.5,.2-.76,0-.32-.09-.59-.28-.81-.19-.22-.43-.33-.74-.33-.44,0-.77,.11-.98,.34-.21,.23-.31,.55-.31,.96h-.83v-.03c-.02-.55,.16-1.01,.54-1.39s.91-.56,1.58-.56c.57,0,1.03,.17,1.37,.5,.34,.34,.51,.76,.51,1.28,0,.35-.1,.7-.31,1.05-.21,.35-.5,.73-.87,1.13l-1.68,1.83v.02h3.08v.68Z" />
    <path d="M36.12,22.46c-3.49,0-6.33,2.84-6.33,6.33s2.84,6.33,6.33,6.33,6.33-2.84,6.33-6.33-2.84-6.33-6.33-6.33Zm1.41,8.92c-.34,.39-.85,.58-1.5,.58-.54,0-.99-.15-1.35-.44-.36-.3-.53-.73-.52-1.31v-.03h.79c0,.35,.1,.62,.3,.81,.2,.19,.46,.29,.78,.29,.37,0,.65-.13,.85-.39,.2-.26,.3-.61,.3-1.06,0-.41-.1-.75-.31-1.01s-.49-.4-.85-.4c-.34,0-.59,.05-.74,.15-.15,.1-.26,.26-.33,.47l-.72-.07,.37-3.51h3.2v.77h-2.47l-.21,1.8c.13-.1,.29-.18,.45-.25,.17-.07,.36-.1,.57-.11,.59,0,1.05,.19,1.39,.58,.34,.39,.51,.91,.51,1.57s-.17,1.16-.52,1.55Z" />
      <path d="M36.25,42.71c.3,0,.55-.1,.75-.29s.29-.46,.29-.78-.1-.58-.3-.79c-.2-.21-.45-.31-.75-.31s-.56,.1-.75,.3c-.19,.2-.29,.47-.29,.8s.1,.59,.29,.78c.19,.2,.44,.29,.75,.29Z" />
      <path d="M36.24,43.39c-.36,0-.65,.11-.88,.34-.22,.23-.34,.51-.34,.86s.11,.65,.33,.85c.22,.21,.52,.31,.89,.31s.65-.1,.88-.31c.23-.21,.34-.49,.34-.85s-.12-.64-.35-.86c-.23-.23-.53-.34-.88-.34Z" />
      <path d="M36.12,36.74c-3.49,0-6.33,2.84-6.33,6.33s2.84,6.33,6.33,6.33,6.33-2.84,6.33-6.33-2.84-6.33-6.33-6.33Zm1.63,9.22c-.38,.31-.89,.47-1.5,.47s-1.13-.16-1.51-.47c-.38-.31-.57-.76-.57-1.36,0-.36,.11-.68,.33-.95s.51-.48,.88-.61c-.32-.12-.57-.31-.75-.56-.18-.25-.27-.54-.27-.88,0-.56,.17-1,.52-1.3,.35-.31,.81-.46,1.38-.46s1.02,.15,1.38,.46c.36,.31,.53,.74,.53,1.3,0,.33-.09,.63-.28,.88-.19,.25-.44,.44-.76,.56,.37,.13,.67,.33,.89,.61,.22,.28,.33,.59,.33,.95,0,.59-.19,1.04-.58,1.36Z" />
      <path d="M36.25,54.74c-.38,0-.67,.14-.87,.42-.2,.28-.3,.7-.3,1.25v1.88c0,.55,.1,.97,.3,1.25,.2,.28,.49,.42,.87,.42s.67-.14,.87-.42c.2-.28,.3-.7,.3-1.26v-1.88c0-.55-.1-.97-.3-1.25-.2-.28-.49-.42-.87-.42Z" />
      <path d="M36.12,51.1c-3.49,0-6.33,2.84-6.33,6.33s2.84,6.33,6.33,6.33,6.33-2.84,6.33-6.33-2.84-6.33-6.33-6.33Zm2.16,7.01c0,.82-.18,1.44-.54,1.88-.36,.44-.86,.65-1.49,.65s-1.13-.22-1.49-.65-.55-1.06-.55-1.88v-1.52c0-.81,.18-1.44,.55-1.88,.36-.44,.86-.66,1.49-.66s1.13,.22,1.49,.66c.36,.44,.55,1.06,.55,1.88v1.52Z" />
    <path d="M17.77,55.68l1.83,1.03v-2.11h.81v2.11l1.83-1.03,.4,.69-1.85,1.06,1.85,1-.4,.74-1.83-1.05v2.11h-.81v-2.11l-1.83,1.05-.4-.74,1.81-1.02-1.81-1.04,.4-.69Z"/>
    <path d="M49.71,56.33h1.35l.37-1.68h.83l-.37,1.68h1.58l.35-1.68h.83l-.36,1.68h.75v.83h-.91l-.28,1.33h1.18v.83h-1.34l-.36,1.67h-.83l.37-1.67h-1.58l-.35,1.67h-.84l.35-1.67h-.74v-.83h.91l.28-1.33h-1.19v-.83Zm2.03,.83l-.28,1.33h1.56l.28-1.33h-1.56Z"/>
    <path d="M52.39,8.18c-3.49,0-6.33,2.84-6.33,6.33s2.84,6.33,6.33,6.33,6.33-2.84,6.33-6.33-2.84-6.33-6.33-6.33Zm1.51,8.94c-.38,.33-.87,.5-1.46,.5s-1.07-.16-1.45-.47c-.38-.31-.57-.74-.55-1.28v-.03h.84c0,.34,.1,.6,.31,.8,.21,.2,.49,.3,.85,.3s.65-.1,.86-.3c.21-.2,.31-.49,.31-.88s-.09-.68-.28-.87c-.19-.19-.48-.28-.88-.28h-.76v-.68h.76c.38,0,.66-.1,.82-.29,.16-.19,.24-.46,.24-.8,0-.37-.09-.64-.27-.83s-.45-.29-.8-.29-.61,.1-.81,.3c-.2,.2-.31,.46-.31,.79h-.83v-.03c-.02-.48,.15-.89,.52-1.23,.36-.34,.84-.51,1.43-.51s1.06,.16,1.41,.47c.35,.32,.53,.76,.53,1.35,0,.26-.08,.53-.24,.79-.16,.26-.4,.46-.72,.6,.38,.13,.66,.32,.81,.59,.16,.27,.24,.57,.24,.91,0,.58-.19,1.04-.57,1.38Z" />
      <path d="M52.42,28.27c-.3,0-.55,.06-.76,.18-.21,.12-.37,.28-.47,.48v.52c0,.59,.12,1.04,.37,1.36s.56,.48,.94,.48c.35,0,.63-.15,.83-.45,.2-.3,.3-.67,.3-1.12,0-.42-.11-.77-.32-1.04-.21-.27-.51-.41-.89-.41Z" />
      <path d="M52.39,22.46c-3.49,0-6.33,2.84-6.33,6.33s2.84,6.33,6.33,6.33,6.33-2.84,6.33-6.33-2.84-6.33-6.33-6.33Zm1.55,8.88c-.36,.42-.84,.63-1.45,.63s-1.15-.23-1.56-.68-.62-1.09-.62-1.92v-1.22c0-.82,.23-1.49,.69-2s1.02-.76,1.7-.76c.22,0,.44,.02,.65,.07,.21,.05,.39,.11,.53,.19l-.18,.66c-.14-.07-.29-.13-.45-.18-.16-.05-.34-.07-.55-.07-.46,0-.83,.18-1.11,.55-.28,.37-.42,.84-.42,1.43v.1c.19-.16,.4-.29,.64-.38,.24-.09,.5-.14,.78-.14,.57,0,1.03,.2,1.37,.59,.34,.4,.51,.9,.51,1.5,0,.66-.18,1.2-.54,1.62Z" />
      <path d="M52.37,40.53c-.32,0-.59,.14-.81,.42s-.33,.64-.33,1.09,.1,.79,.31,1.07c.21,.27,.49,.41,.84,.41,.32,0,.58-.07,.8-.21,.21-.14,.37-.31,.46-.53v-.55c0-.56-.11-.98-.32-1.27-.21-.29-.53-.43-.94-.43Z" />
      <path d="M52.39,36.74c-3.49,0-6.33,2.84-6.33,6.33s2.84,6.33,6.33,6.33,6.33-2.84,6.33-6.33-2.84-6.33-6.33-6.33Zm2.11,7.1c0,.83-.21,1.48-.63,1.92-.42,.45-.96,.67-1.63,.67-.23,0-.46-.02-.69-.06-.23-.04-.44-.11-.63-.2l.13-.67c.17,.09,.35,.15,.54,.19,.19,.04,.4,.05,.64,.05,.42,0,.76-.16,1.01-.48,.25-.32,.38-.79,.38-1.42v-.29c-.14,.21-.32,.37-.54,.47-.22,.11-.46,.16-.72,.16-.62,0-1.11-.19-1.47-.57-.36-.38-.54-.91-.54-1.58s.19-1.17,.58-1.58c.39-.41,.85-.62,1.4-.62,.67,0,1.19,.21,1.58,.63,.38,.42,.58,1.03,.58,1.84v1.52Z" />
    <rect x=".36" y=".36" width="71.28" height="71.28" fill="none"/>
</svg>