<?xml version="1.0" encoding="UTF-8"?>
<svg xmlns="http://www.w3.org/2000/svg" viewBox="0 0 72 72">
    <path d="M56.03,33.14l-3.38-3.29c-.27-.27-.71-.26-.98,0l-19.3,19.42c-.06,.06-.11,.14-.15,.22l-2.37,5.66c-.11,.26-.05,.56,.15,.76,.13,.13,.31,.21,.5,.21,.09,0,.18-.02,.27-.05l5.75-2.37c.09-.04,.16-.09,.23-.15l19.3-19.42c.13-.13,.21-.31,.2-.5,0-.19-.08-.37-.21-.5Zm-20.19,19.33l-4.05,1.67,1.66-3.97,16.45-16.55,2.38,2.31-16.44,16.54Zm17.18-17.29l-2.38-2.31,1.52-1.53,2.38,2.31-1.52,1.53Z" />
    <path d="M56.35,23.78c-.23-4.09-3.44-7.39-7.5-7.75-.24-4.33-3.83-7.79-8.23-7.79H16.7c-4.55,0-8.25,3.7-8.25,8.25v23.92c0,4.3,3.31,7.84,7.52,8.21,.23,4.09,3.44,7.39,7.5,7.75,.24,4.33,3.83,7.79,8.23,7.79h23.92c4.55,0,8.25-3.7,8.25-8.25V31.99c0-4.3-3.31-7.84-7.52-8.21Zm-40.4,.46v21.87c-2.82-.37-5-2.78-5-5.7V16.49c0-3.17,2.58-5.75,5.75-5.75h23.92c3,0,5.47,2.31,5.72,5.25H24.2c-4.55,0-8.25,3.7-8.25,8.25Zm7.5,7.75v21.87c-2.82-.37-5-2.78-5-5.7V24.24c0-3.17,2.58-5.75,5.75-5.75h23.92c3,0,5.47,2.31,5.72,5.25H31.7c-4.55,0-8.25,3.7-8.25,8.25Zm37.92,23.92c0,3.17-2.58,5.75-5.75,5.75H31.7c-3.17,0-5.75-2.58-5.75-5.75V31.99c0-3.17,2.58-5.75,5.75-5.75h23.92c3.17,0,5.75,2.58,5.75,5.75v23.92Z" />
    <rect x=".36" y=".36" width="71.28" height="71.28" fill="none"/>
</svg>