<?xml version="1.0" encoding="UTF-8"?>
<svg xmlns="http://www.w3.org/2000/svg" viewBox="0 0 72 72">
    <path d="M63.79,46.74l-2.17-4.88c-.2-.45-.61-.78-1.1-.87l-4.71-.86c1.82-4.92,1.96-10.06,.34-14.48l3.43-.97,1.49,1.49c.29,.29,.68,.44,1.06,.44s.77-.15,1.06-.44c.59-.59,.59-1.54,0-2.12l-2.11-2.11c-.38-.38-.94-.53-1.47-.38l-4.74,1.34c-.69-1.18-1.52-2.28-2.52-3.27-1-1-2.12-1.84-3.31-2.53l1.34-4.75c.15-.52,0-1.08-.38-1.47l-2.11-2.11c-.59-.59-1.54-.59-2.12,0-.59,.59-.59,1.54,0,2.12l1.49,1.49-.97,3.45c-4.42-1.6-9.56-1.46-14.47,.36l-.87-4.75c-.09-.49-.41-.9-.87-1.1l-4.88-2.17c-.76-.34-1.64,0-1.98,.76s0,1.64,.76,1.98l4.16,1.85,.86,4.7c-2.34,1.21-4.57,2.8-6.59,4.79l-3.56-3.56c-.35-.35-.85-.51-1.34-.41l-5.26,.99c-.81,.15-1.35,.94-1.2,1.75,.15,.81,.94,1.35,1.75,1.2l4.48-.84,3.1,3.1c-1.65,2.02-2.95,4.19-3.9,6.43l-5.24-1.1c-.48-.1-.99,.04-1.35,.39l-3.86,3.7c-.6,.57-.62,1.52-.05,2.12,.29,.31,.69,.46,1.08,.46,.37,0,.75-.14,1.04-.42l3.29-3.15,4.05,.85c-1.98,6.88-.72,14,4.03,18.75,3.32,3.32,7.79,4.94,12.53,4.94,2.04,0,4.13-.31,6.2-.9l.84,4.01-3.15,3.29c-.57,.6-.55,1.55,.05,2.12,.29,.28,.66,.42,1.04,.42,.39,0,.79-.15,1.08-.46l3.7-3.86c.34-.36,.49-.86,.39-1.35l-1.09-5.18c2.25-.96,4.43-2.27,6.46-3.92l3.06,3.06-.84,4.48c-.15,.81,.38,1.6,1.2,1.75,.09,.02,.19,.03,.28,.03,.71,0,1.34-.5,1.47-1.22l.99-5.26c.09-.49-.06-.99-.41-1.34l-3.53-3.53c1.99-2.03,3.59-4.27,4.8-6.62l4.66,.85,1.85,4.16c.25,.56,.8,.89,1.37,.89,.2,0,.41-.04,.61-.13,.76-.34,1.1-1.22,.76-1.98Zm-13.56-25c3.64,3.64,4.78,8.99,3.64,14.37l-18.02-18.01c1.33-.28,2.66-.43,3.96-.43,3.97,0,7.67,1.33,10.42,4.07Zm-25.86,2.76c2.47-2.47,5.31-4.27,8.24-5.4l9.07,9.07-21.07,21.07c-5.21-6.54-3.69-17.29,3.75-24.74Zm-1.63,26.86l21.07-21.07,9.09,9.09c-1.14,2.92-2.95,5.75-5.42,8.22-7.45,7.45-18.2,8.96-24.74,3.75Z"/>
    <rect x=".36" y=".36" width="71.28" height="71.28" fill="none"/>
</svg>