<?xml version="1.0" encoding="UTF-8"?>
<svg xmlns="http://www.w3.org/2000/svg" viewBox="0 0 72 72">
    <path d="M43.32,48.19c-2.45,0-4.45-1.99-4.45-4.43s2-4.43,4.45-4.43,4.45,1.99,4.45,4.43-2,4.43-4.45,4.43Zm0-7.36c-1.63,0-2.95,1.31-2.95,2.93s1.32,2.93,2.95,2.93,2.95-1.31,2.95-2.93-1.32-2.93-2.95-2.93Z" />
    <path d="M51.66,45.26c-.53,.11-.96,.48-1.14,.99-.1,.28-.21,.55-.34,.81-.24,.48-.2,1.06,.1,1.5l1.44,2.09-1.47,1.46-2.1-1.43c-.25-.17-.55-.25-.85-.25-.23,0-.45,.05-.66,.15-.27,.13-.54,.24-.82,.34-.51,.18-.89,.61-.99,1.13l-.47,2.52h-2.07l-.47-2.52c-.11-.53-.48-.96-.99-1.13-.28-.1-.56-.21-.82-.34-.21-.1-.44-.15-.66-.15-.3,0-.59,.09-.85,.25l-2.09,1.42-1.47-1.46,1.43-2.08c.3-.45,.34-1.02,.1-1.5-.13-.26-.24-.53-.34-.82-.18-.51-.61-.88-1.14-.99l-2.73-.47v-2.06s2.73-.46,2.73-.46c.53-.11,.96-.48,1.14-.99,.1-.28,.21-.55,.34-.82,.24-.48,.2-1.06-.1-1.5l-1.47-2.12,1.47-1.46,2.13,1.46c.25,.17,.55,.25,.85,.25,.23,0,.45-.05,.66-.15,.26-.13,.54-.24,.82-.34,.51-.18,.89-.61,.99-1.13l.47-2.67h2.07s.47,2.67,.47,2.67c.11,.53,.48,.96,.99,1.13,.28,.1,.55,.21,.82,.34,.21,.1,.44,.15,.67,.15,.3,0,.59-.09,.85-.25l2.14-1.47,1.47,1.46-1.48,2.13c-.3,.45-.34,1.02-.1,1.5,.13,.26,.24,.53,.34,.82,.18,.51,.61,.88,1.14,.99l2.52,.47v2.06s-2.52,.47-2.52,.47Zm2.74-4.04l-2.36-.47c-.12-.34-.26-.67-.41-.99l1.34-1.99c.41-.61,.33-1.42-.19-1.93l-1.48-1.47c-.3-.3-.69-.45-1.09-.45-.29,0-.59,.08-.85,.26l-2.01,1.33c-.32-.15-.65-.29-.99-.41l-.47-2.35c-.14-.72-.78-1.23-1.51-1.23h-2.09c-.73,0-1.37,.52-1.51,1.23l-.47,2.35c-.34,.12-.67,.26-.99,.41l-2-1.33c-.26-.17-.56-.26-.85-.26-.4,0-.79,.15-1.09,.45l-1.48,1.47c-.52,.52-.6,1.32-.19,1.93l1.34,1.99c-.16,.32-.29,.65-.41,.99l-2.36,.47c-.72,.14-1.24,.77-1.24,1.5v2.08c0,.73,.52,1.36,1.24,1.5l2.36,.47c.12,.34,.26,.67,.41,.99l-1.34,1.99c-.41,.61-.33,1.42,.19,1.93l1.48,1.47c.3,.3,.69,.45,1.09,.45,.3,0,.59-.09,.85-.26l2.01-1.33c.32,.16,.65,.29,.99,.41l.47,2.35c.14,.72,.78,1.23,1.51,1.23h2.09c.73,0,1.37-.52,1.51-1.23l.47-2.35c.34-.12,.67-.26,.99-.41l2.01,1.33c.26,.17,.56,.26,.85,.26,.4,0,.79-.15,1.09-.45l1.48-1.47c.52-.52,.6-1.32,.19-1.93l-1.34-1.99c.16-.32,.29-.65,.41-.99l2.36-.47c.72-.14,1.24-.77,1.24-1.5v-2.08c0-.73-.52-1.36-1.24-1.5Z" fill-rule="evenodd"/>
    <path d="M55.93,23.78c-.23-4.09-3.44-7.39-7.5-7.75-.24-4.33-3.83-7.79-8.23-7.79H16.28c-4.55,0-8.25,3.7-8.25,8.25v23.92c0,4.3,3.31,7.84,7.52,8.21,.23,4.09,3.44,7.39,7.5,7.75,.24,4.33,3.83,7.79,8.23,7.79h23.92c4.55,0,8.25-3.7,8.25-8.25V31.99c0-4.3-3.31-7.84-7.52-8.21Zm-40.4,.46v21.87c-2.82-.37-5-2.78-5-5.7V16.49c0-3.17,2.58-5.75,5.75-5.75h23.92c3,0,5.47,2.31,5.72,5.25H23.78c-4.55,0-8.25,3.7-8.25,8.25Zm7.5,7.75v21.87c-2.82-.37-5-2.78-5-5.7V24.24c0-3.17,2.58-5.75,5.75-5.75h23.92c3,0,5.47,2.31,5.72,5.25H31.28c-4.55,0-8.25,3.7-8.25,8.25Zm37.92,23.92c0,3.17-2.58,5.75-5.75,5.75H31.28c-3.17,0-5.75-2.58-5.75-5.75V31.99c0-3.17,2.58-5.75,5.75-5.75h23.92c3.17,0,5.75,2.58,5.75,5.75v23.92Z" />
    <rect x=".36" y=".36" width="71.28" height="71.28" fill="none"/>
</svg>