<?xml version="1.0" encoding="UTF-8"?>
<svg xmlns="http://www.w3.org/2000/svg" viewBox="0 0 72 72">
    <path d="M36.25,61.1c-.31,0-.62-.1-.89-.29-7.16-5.24-14.68-3.92-20.16-2.97-1.81,.32-3.38,.59-4.7,.59-.83,0-1.5-.67-1.5-1.5V14.17c0-.83,.67-1.5,1.5-1.5,1.06,0,2.51-.25,4.18-.54,5.47-.95,13.64-2.38,21.56,2.89,7.92-5.26,16.09-3.84,21.56-2.89,1.67,.29,3.12,.54,4.18,.54,.83,0,1.5,.67,1.5,1.5V56.93c0,.83-.67,1.5-1.5,1.5-1.32,0-2.89-.27-4.7-.59-5.48-.96-13-2.27-20.16,2.97-.26,.19-.57,.29-.89,.29Zm-13.1-7.14c4.09,0,8.63,.84,13.1,3.81,7.92-5.27,16.09-3.84,21.56-2.89,.98,.17,1.89,.33,2.68,.43V15.58c-.96-.11-2.03-.29-3.2-.5-5.48-.96-12.99-2.27-20.16,2.97-.53,.39-1.24,.39-1.77,0-7.17-5.24-14.68-3.93-20.16-2.97-1.17,.2-2.23,.39-3.2,.5V55.32c.79-.1,1.7-.26,2.68-.43,2.39-.42,5.29-.92,8.46-.92Z"/>
    <path d="M34.99,24.49c-.18,0-.37-.05-.53-.15-6.36-4.02-12.77-3.36-18.28-2.42-.55,.09-1.06-.27-1.15-.82-.09-.54,.27-1.06,.82-1.15,4.24-.72,12.13-2.06,19.68,2.71,.47,.29,.61,.91,.31,1.38-.19,.3-.51,.47-.85,.47Z"/>
    <path d="M34.99,29.9c-.18,0-.37-.05-.53-.15-6.36-4.02-12.77-3.36-18.28-2.42-.55,.1-1.06-.27-1.15-.82-.09-.54,.27-1.06,.82-1.15,4.24-.72,12.13-2.06,19.68,2.71,.47,.29,.61,.91,.31,1.38-.19,.3-.51,.47-.85,.47Z"/>
    <path d="M34.99,35.32c-.18,0-.37-.05-.53-.15-6.36-4.02-12.77-3.36-18.28-2.42-.55,.09-1.06-.27-1.15-.82-.09-.54,.27-1.06,.82-1.15,4.24-.72,12.13-2.06,19.68,2.71,.47,.29,.61,.91,.31,1.38-.19,.3-.51,.47-.85,.47Z"/>
    <path d="M34.99,40.74c-.18,0-.37-.05-.53-.15-6.36-4.02-12.77-3.36-18.28-2.42-.55,.09-1.06-.27-1.15-.82-.09-.54,.27-1.06,.82-1.15,4.24-.72,12.13-2.06,19.68,2.71,.47,.29,.61,.91,.31,1.38-.19,.3-.51,.47-.85,.47Z"/>
    <path d="M34.99,46.15c-.18,0-.37-.05-.53-.15-6.36-4.02-12.77-3.36-18.28-2.42-.55,.1-1.06-.27-1.15-.82-.09-.54,.27-1.06,.82-1.15,4.24-.72,12.13-2.06,19.68,2.71,.47,.29,.61,.91,.31,1.38-.19,.3-.51,.47-.85,.47Z"/>
    <path d="M34.99,51.57c-.18,0-.37-.05-.53-.15-6.36-4.02-12.77-3.36-18.28-2.42-.55,.09-1.06-.27-1.15-.82-.09-.54,.27-1.06,.82-1.15,4.24-.72,12.13-2.06,19.68,2.71,.47,.29,.61,.91,.31,1.38-.19,.3-.51,.47-.85,.47Z"/>
    <rect x=".36" y=".36" width="71.28" height="71.28" fill="none"/>
</svg>