<?xml version="1.0" encoding="UTF-8"?>
<svg xmlns="http://www.w3.org/2000/svg" viewBox="0 0 72 72">
    <path d="M53.2,64.86H19.03c-6.34,0-11.5-5.16-11.5-11.5V19.19c0-6.34,5.16-11.5,11.5-11.5H53.2c6.34,0,11.5,5.16,11.5,11.5V53.36c0,6.34-5.16,11.5-11.5,11.5ZM19.03,10.69c-4.69,0-8.5,3.81-8.5,8.5V53.36c0,4.69,3.81,8.5,8.5,8.5H53.2c4.69,0,8.5-3.81,8.5-8.5V19.19c0-4.69-3.81-8.5-8.5-8.5H19.03Z" />
      <path d="M13.52,46.55h1.81l.54,3.65c.1,.82,.22,1.65,.32,2.47h.05c.15-.82,.31-1.66,.47-2.47l.84-3.65h1.5l.84,3.65c.16,.79,.31,1.64,.47,2.47h.05c.1-.83,.21-1.67,.31-2.47l.54-3.65h1.69l-1.39,7.82h-2.22l-.76-3.55c-.12-.6-.23-1.23-.31-1.81h-.05c-.09,.58-.19,1.21-.32,1.81l-.74,3.55h-2.18l-1.45-7.82Z" />
      <path d="M23.27,53.38l1.02-1.21c.56,.48,1.28,.82,1.92,.82,.74,0,1.1-.29,1.1-.75,0-.49-.44-.65-1.13-.93l-1.02-.43c-.81-.33-1.58-1-1.58-2.13,0-1.3,1.16-2.33,2.78-2.33,.9,0,1.84,.36,2.51,1.02l-.89,1.11c-.51-.4-1-.61-1.62-.61s-1,.25-1,.7c0,.48,.51,.65,1.19,.93l1,.4c.95,.39,1.55,1.02,1.55,2.13,0,1.3-1.08,2.42-2.94,2.42-1.02,0-2.1-.38-2.9-1.13Z" />
      <path d="M30.02,50.71h2.95v1.25h-2.95v-1.25Z" />
      <path d="M35.02,48.03h-2.15v-1.48h6.07v1.48h-2.15v6.33h-1.77v-6.33Z" />
      <path d="M39.3,48.42h1.44l.13,1.04h.04c.43-.79,1.08-1.18,1.69-1.18,.34,0,.54,.04,.71,.12l-.29,1.52c-.21-.05-.39-.1-.64-.1-.45,0-.99,.29-1.31,1.1v3.45h-1.76v-5.95Z" />
      <path d="M44.02,52.11v-3.69h1.76v3.47c0,.86,.23,1.12,.74,1.12,.44,0,.71-.19,1.06-.65v-3.94h1.76v5.95h-1.44l-.13-.83h-.04c-.5,.59-1.06,.97-1.87,.97-1.29,0-1.85-.91-1.85-2.4Z" />
      <path d="M50.12,53.68l.79-1.1c.54,.41,1.04,.62,1.54,.62,.52,0,.75-.2,.75-.51,0-.39-.59-.57-1.2-.81-.73-.28-1.57-.77-1.57-1.75,0-1.11,.9-1.86,2.27-1.86,.91,0,1.59,.37,2.1,.75l-.79,1.06c-.42-.31-.84-.51-1.25-.51-.46,0-.68,.18-.68,.48,0,.38,.56,.52,1.17,.75,.75,.28,1.6,.7,1.6,1.79s-.85,1.92-2.44,1.92c-.78,0-1.68-.34-2.28-.83Z" />
      <path d="M55.73,52.2v-2.4h-.81v-1.32l.91-.07,.21-1.58h1.46v1.58h1.43v1.38h-1.43v2.38c0,.67,.31,.95,.77,.95,.2,0,.41-.06,.57-.11l.28,1.28c-.32,.1-.75,.22-1.32,.22-1.47,0-2.06-.93-2.06-2.31Z" />
    <polygon points="35.52 24.11 32.27 20.86 33.61 19.52 35.52 21.43 39.64 17.31 40.98 18.65 35.52 24.11" />
    <path d="M43.76,18.86l.41-3.9c.03-.3-.15-.58-.44-.67l-7.37-2.25c-.12-.04-.25-.04-.37,0l-7.37,2.25c-.29,.09-.47,.37-.44,.67l.41,3.93c-3.48,2.42-5.78,6.43-5.78,10.98,0,7.38,6,13.38,13.38,13.38s13.38-6,13.38-13.38c0-4.57-2.31-8.59-5.82-11.01Zm4.36,10.14h-4.9c-.05-1.47-.22-2.86-.49-4.16,.11-.19,.19-.38,.24-.57h3.79c.76,1.43,1.24,3.03,1.36,4.72Zm-17.27-2.7c.9,.82,2.21,1.72,3.94,2.7h-4.21c.03-.94,.14-1.83,.27-2.7Zm6.05,4.12h4.91c-.04,1.82-.28,3.54-.68,5.08h-4.23v-5.08Zm4.9-1.42h-4.25c1.75-1,3.07-1.9,3.98-2.73,.14,.88,.24,1.79,.27,2.73Zm4.07-6.14h-2.6c.09-.5,.17-1.08,.25-1.76l.06-.6c.86,.68,1.64,1.47,2.29,2.36Zm-9.7-9.55l6.69,2.04-.59,5.61c-.16,1.35-.32,2.27-.51,2.98-.16,.59-1.1,1.95-5.59,4.4-4.49-2.45-5.43-3.8-5.59-4.4-.19-.71-.35-1.63-.51-2.97l-.59-5.62,6.69-2.04Zm-7.41,7.22l.06,.58c.08,.68,.16,1.25,.25,1.75h-2.56c.64-.88,1.4-1.66,2.25-2.33Zm-3.14,3.75h3.75c.05,.2,.15,.4,.27,.61-.26,1.28-.43,2.66-.48,4.11h-4.9c.12-1.7,.6-3.3,1.36-4.72Zm-1.38,6.14h4.91c.04,1.82,.26,3.53,.62,5.08h-4.14c-.82-1.53-1.31-3.25-1.4-5.08Zm2.29,6.5h3.64c.56,1.75,1.33,3.22,2.24,4.3-2.38-.8-4.43-2.32-5.88-4.3Zm8.95,4.82c-1.54-.43-2.9-2.25-3.8-4.82h3.8v4.82Zm0-6.23h-4.23c-.4-1.54-.64-3.26-.68-5.08h4.91v5.08Zm1.42,6.23v-4.82h3.8c-.9,2.57-2.27,4.38-3.8,4.82Zm3.07-.51c.91-1.08,1.68-2.56,2.24-4.3h3.64c-1.45,1.99-3.5,3.51-5.88,4.3Zm2.63-5.72c.37-1.55,.59-3.26,.62-5.08h4.91c-.08,1.83-.58,3.55-1.4,5.08h-4.14Z" />
    <rect x=".36" y=".36" width="71.28" height="71.28" fill="none"/>
</svg>
