<?xml version="1.0" encoding="UTF-8"?>
<svg xmlns="http://www.w3.org/2000/svg" viewBox="0 0 72 72">
	<path d="M50.59,18.06l-4.83-4.7c-.39-.39-1.02-.39-1.41,0l-27.53,27.75c-.09,.09-.17,.2-.21,.32l-3.4,8.09c-.21,.51,.03,1.1,.54,1.3,.12,.05,.25,.08,.39,.08,.13,0,.26-.02,.38-.07l8.22-3.39c.12-.05,.23-.13,.33-.22l2.39-2.41c.39-.39,.39-1.03,0-1.42-.39-.39-1.03-.39-1.41,0l-2.25,2.29-5.79,2.38,2.37-5.67,23.51-23.66,3.4,3.3-9,9c-.39,.39-.39,1.03,0,1.41,.39,.39,1.03,.39,1.41,0h0l12.9-13c.19-.19,.29-.45,.29-.72-.01-.25-.12-.49-.3-.67Zm-4.3,2.92l-3.35-3.29,2.17-2.19,3.4,3.3-2.22,2.18Z"/>
    <path d="M32.07,36.69c-.23-.2-.49-.35-.77-.46-.23-.1-.49-.15-.74-.15-.26-.01-.52,.06-.74,.21-.19,.13-.29,.34-.29,.57,0,.14,.05,.28,.14,.39,.11,.12,.24,.21,.38,.27,.17,.09,.35,.15,.53,.2l.58,.18c.64,.17,1.23,.52,1.69,1,.4,.51,.59,1.15,.53,1.79,0,.43-.07,.86-.23,1.26-.15,.38-.39,.72-.69,1-.32,.27-.7,.48-1.1,.62-.48,.15-.98,.23-1.48,.22-1.14,0-2.25-.34-3.18-1l1-1.89c.31,.28,.67,.52,1.05,.69,.31,.14,.65,.22,1,.23,.31,.02,.62-.07,.86-.26,.17-.15,.27-.37,.28-.6,0-.12-.02-.25-.07-.36-.06-.11-.14-.2-.24-.27-.13-.1-.28-.18-.44-.24l-.66-.24c-.3-.09-.6-.2-.89-.32-.29-.11-.55-.26-.78-.46-.23-.2-.42-.44-.55-.72-.15-.35-.22-.73-.21-1.11,0-.42,.07-.83,.22-1.22,.14-.35,.35-.67,.62-.94,.29-.27,.63-.47,1-.6,.42-.15,.86-.23,1.3-.22,.47,0,.94,.07,1.4,.19,.49,.12,.96,.3,1.41,.54l-.93,1.7Z"/>
    <path d="M39.51,41.89h-3.36l-.56,1.57h-2.49l3.49-9.05h2.57l3.43,9.05h-2.54l-.54-1.57Zm-.62-1.79l-1.06-3-1.05,3h2.11Z"/>
    <path d="M42.46,43.46l1.54-9.05h2.33l1.81,4.83,1.8-4.83h2.33l1.53,9.05h-2.34l-.78-5.21-2.09,5.21h-1l-2-5.21-.78,5.21h-2.35Z"/>
    <path d="M56.92,34.41v7.06h2.82v2h-5.15v-9.06h2.33Z"/>
    <path d="M47.7,52.04h-.91v2.63h.91c1.01,0,1.51-.44,1.51-1.32s-.5-1.32-1.51-1.32Z"/>
    <path d="M52.97,7.42H18.79c-6.35,0-11.49,5.15-11.5,11.5V53.09c0,6.35,5.15,11.49,11.5,11.5H52.97c6.35,0,11.49-5.15,11.5-11.5V18.92c0-6.35-5.15-11.49-11.5-11.5Zm-10.64,51.15c-.18,.44-.45,.81-.8,1.13-.35,.31-.78,.56-1.29,.73-.51,.17-1.08,.26-1.73,.26-1.33,0-2.57-.4-3.71-1.19l1.18-2.21c.41,.36,.82,.63,1.22,.81,.4,.18,.8,.27,1.19,.27,.45,0,.78-.1,1-.31s.33-.44,.33-.7c0-.16-.03-.3-.08-.41-.06-.12-.15-.22-.28-.32-.13-.1-.3-.19-.51-.27s-.46-.18-.76-.28c-.36-.11-.7-.24-1.04-.37-.34-.13-.64-.31-.91-.54-.27-.22-.48-.51-.64-.85-.16-.34-.24-.77-.24-1.29s.09-1,.26-1.42c.17-.42,.42-.79,.73-1.09,.31-.3,.7-.54,1.15-.71,.45-.17,.96-.25,1.52-.25,.52,0,1.07,.07,1.64,.22,.57,.14,1.11,.36,1.64,.64l-1.09,2.14c-.3-.24-.6-.42-.9-.54-.3-.12-.59-.18-.87-.18-.35,0-.64,.08-.87,.25-.22,.17-.34,.39-.34,.66,0,.19,.06,.34,.17,.46,.11,.12,.26,.23,.44,.32s.39,.17,.62,.23c.23,.07,.46,.14,.68,.21,.9,.3,1.55,.7,1.97,1.2,.42,.5,.62,1.15,.62,1.95,0,.54-.09,1.03-.27,1.47Zm8.81-2.6c-.63,.62-1.54,.92-2.72,.92h-1.62v3.5h-2.74v-10.56h4.37c1.19,0,2.09,.31,2.72,.92s.94,1.48,.94,2.6-.31,1.99-.94,2.6Zm10.34-9.4H26.72v15.03h-7.92c-4.69,0-8.49-3.81-8.5-8.5V18.92c0-4.69,3.81-8.49,8.5-8.5H52.97c4.69,0,8.49,3.81,8.5,8.5v27.64Z"/>
    <rect x=".36" y=".36" width="71.28" height="71.28" fill="none"/>
</svg>