<?xml version="1.0" encoding="UTF-8"?>
<svg xmlns="http://www.w3.org/2000/svg" viewBox="0 0 72 72">
    <path d="M53.32,64.86H19.14c-6.34,0-11.5-5.16-11.5-11.5V19.19c0-6.34,5.16-11.5,11.5-11.5H53.32c6.34,0,11.5,5.16,11.5,11.5V53.36c0,6.34-5.16,11.5-11.5,11.5ZM19.14,10.69c-4.69,0-8.5,3.81-8.5,8.5V53.36c0,4.69,3.81,8.5,8.5,8.5H53.32c4.69,0,8.5-3.81,8.5-8.5V19.19c0-4.69-3.81-8.5-8.5-8.5H19.14Z" />
      <path d="M17.42,46.55h1.81l.54,3.65c.1,.82,.22,1.65,.32,2.47h.05c.15-.82,.31-1.66,.47-2.47l.84-3.65h1.5l.84,3.65c.16,.79,.31,1.64,.47,2.47h.05c.1-.83,.21-1.67,.31-2.47l.54-3.65h1.69l-1.39,7.82h-2.22l-.76-3.55c-.12-.6-.23-1.23-.31-1.81h-.05c-.09,.58-.19,1.21-.32,1.81l-.74,3.55h-2.18l-1.45-7.82Z" />
      <path d="M27.17,53.38l1.02-1.21c.56,.48,1.28,.82,1.92,.82,.74,0,1.1-.29,1.1-.75,0-.49-.44-.65-1.13-.93l-1.02-.43c-.81-.33-1.58-1-1.58-2.13,0-1.3,1.16-2.33,2.78-2.33,.9,0,1.84,.36,2.51,1.02l-.89,1.11c-.51-.4-1-.61-1.62-.61s-1,.25-1,.7c0,.48,.51,.65,1.19,.93l1,.4c.95,.39,1.55,1.02,1.55,2.13,0,1.3-1.08,2.42-2.94,2.42-1.02,0-2.1-.38-2.9-1.13Z" />
      <path d="M33.92,50.71h2.95v1.25h-2.95v-1.25Z" />
      <path d="M37.87,46.55h4.93v1.48h-3.17v1.81h2.7v1.48h-2.7v3.04h-1.77v-7.82Z" />
      <path d="M43.21,51.39c0-1.93,1.38-3.12,2.81-3.12,1.69,0,2.53,1.23,2.53,2.86,0,.32-.04,.63-.07,.78h-3.56c.16,.86,.75,1.26,1.54,1.26,.45,0,.85-.14,1.29-.39l.58,1.06c-.61,.42-1.41,.67-2.11,.67-1.7,0-3.01-1.15-3.01-3.12Zm3.83-.65c0-.65-.28-1.12-.99-1.12-.56,0-1.04,.37-1.16,1.12h2.15Z" />
      <path d="M49.23,51.39c0-1.95,1.21-3.12,2.47-3.12,.66,0,1.06,.24,1.46,.62l-.06-.9v-2.03h1.76v8.4h-1.44l-.13-.59h-.04c-.42,.42-1.01,.73-1.58,.73-1.48,0-2.43-1.17-2.43-3.12Zm3.86,1.14v-2.44c-.31-.28-.66-.38-.98-.38-.57,0-1.07,.53-1.07,1.66s.4,1.69,1.09,1.69c.38,0,.68-.14,.97-.53Z" />
    <polygon points="35.64 24.1 32.39 20.85 33.73 19.51 35.64 21.42 39.76 17.3 41.1 18.64 35.64 24.1" />
    <path d="M43.87,18.85l.41-3.9c.03-.3-.15-.58-.44-.67l-7.37-2.25c-.12-.04-.25-.04-.37,0l-7.37,2.25c-.29,.09-.47,.37-.44,.67l.41,3.93c-3.48,2.42-5.78,6.43-5.78,10.98,0,7.38,6,13.38,13.38,13.38s13.38-6,13.38-13.38c0-4.57-2.31-8.59-5.82-11.01Zm4.36,10.14h-4.9c-.05-1.47-.22-2.86-.49-4.16,.11-.19,.19-.39,.24-.57h3.79c.76,1.43,1.24,3.03,1.36,4.73Zm-17.27-2.7c.9,.82,2.21,1.72,3.94,2.7h-4.21c.03-.94,.14-1.83,.27-2.7Zm6.05,4.12h4.91c-.04,1.82-.28,3.54-.68,5.08h-4.23v-5.08Zm4.9-1.42h-4.25c1.75-1,3.07-1.9,3.98-2.73,.14,.88,.24,1.79,.27,2.73Zm4.07-6.14h-2.6c.09-.5,.17-1.08,.25-1.76l.06-.6c.86,.68,1.64,1.47,2.29,2.36Zm-9.7-9.55l6.69,2.04-.59,5.61c-.16,1.35-.32,2.27-.51,2.98-.16,.59-1.1,1.95-5.59,4.4-4.49-2.45-5.43-3.8-5.59-4.4-.19-.71-.35-1.63-.51-2.97l-.59-5.62,6.69-2.04Zm-7.41,7.22l.06,.58c.08,.68,.16,1.25,.25,1.75h-2.56c.64-.88,1.4-1.66,2.25-2.33Zm-3.14,3.75h3.75c.05,.2,.15,.4,.27,.61-.26,1.28-.43,2.66-.48,4.11h-4.9c.12-1.7,.6-3.3,1.36-4.73Zm-1.38,6.14h4.91c.04,1.82,.26,3.53,.62,5.08h-4.14c-.82-1.53-1.31-3.25-1.4-5.08Zm2.29,6.5h3.64c.56,1.75,1.33,3.22,2.24,4.3-2.38-.8-4.43-2.32-5.88-4.3Zm8.95,4.82c-1.54-.43-2.9-2.25-3.8-4.82h3.8v4.82Zm0-6.23h-4.23c-.4-1.54-.64-3.26-.68-5.08h4.91v5.08Zm1.42,6.23v-4.82h3.8c-.9,2.57-2.27,4.38-3.8,4.82Zm3.07-.51c.91-1.08,1.68-2.56,2.24-4.3h3.64c-1.45,1.99-3.5,3.51-5.88,4.3Zm2.63-5.72c.37-1.55,.59-3.26,.62-5.08h4.91c-.08,1.83-.58,3.55-1.4,5.08h-4.14Z" />
    <rect x=".36" y=".36" width="71.28" height="71.28" fill="none"/>
</svg>
