<?xml version="1.0" encoding="UTF-8"?>
<svg xmlns="http://www.w3.org/2000/svg" viewBox="0 0 72 72">
	<path d="M50.75,17.96l-4.83-4.7c-.39-.39-1.02-.39-1.41,0l-27.61,27.75c-.09,.09-.17,.2-.22,.32l-3.39,8.09c-.21,.51,.03,1.1,.54,1.3,.12,.05,.25,.08,.39,.08,.13,0,.26-.02,.38-.07l8.22-3.39c.12-.05,.23-.13,.32-.22l2.4-2.41c.39-.39,.39-1.03,0-1.42-.39-.39-1.03-.39-1.41,0l-2.25,2.29-5.79,2.38,2.37-5.67,23.51-23.66,3.4,3.3-9.14,9.2c-.4,.39-.41,1.03-.02,1.44,.39,.4,1.03,.41,1.44,.01l13.11-13.21c.19-.19,.29-.45,.29-.72,0-.26-.11-.51-.29-.7Zm-4.3,2.92l-3.43-3.29,2.17-2.19,3.4,3.3-2.14,2.18Z"/>
    <path d="M35,39.67c.09,1.36-.12,2.73-.62,4-.4,.77-1.21,1.22-2.07,1.17-.91,.07-1.77-.43-2.17-1.26-.51-1.41-.72-2.91-.62-4.4-.09-1.36,.12-2.73,.62-4,.4-.78,1.23-1.25,2.1-1.18,.78-.07,1.54,.28,2,.91,.33,.53,.54,1.12,.62,1.73,.13,1,.18,2.02,.14,3.03Zm-1.47,.17c.05-1.22-.03-2.43-.25-3.63-.16-.6-.5-.9-1-.9-.49,0-.91,.34-1,.82-.22,1.1-.31,2.21-.28,3.33-.05,1.08,.04,2.16,.26,3.21,.07,.49,.5,.86,1,.85,.48,.01,.9-.32,1-.79,.23-.95,.32-1.92,.27-2.89Z"/>
    <path d="M37.9,34.14h1.1l2.26,10.55h-1.4l-.39-2.06h-2.09l-.38,2.06h-1.39l2.29-10.55Zm1.36,7.39l-.26-1.69c-.21-1.14-.38-2.36-.51-3.66-.07,.63-.15,1.27-.25,1.92s-.22,1.34-.36,2.07l-.26,1.35h1.64Z"/>
    <path d="M42.11,34.14h1.39v7.45c-.04,.52,.03,1.03,.21,1.52,.18,.27,.5,.42,.83,.38,.31,.04,.62-.08,.82-.33,.17-.42,.24-.87,.21-1.32v-7.7h1.43v7.7c.09,.81-.1,1.63-.53,2.33-.51,.5-1.21,.75-1.92,.69-.78,.08-1.54-.26-2-.89-.34-.73-.47-1.54-.4-2.34l-.04-7.49Z"/>
    <path d="M47.75,34.14h4.62v1.24h-1.59v9.31h-1.39v-9.31h-1.64v-1.24Z"/>
    <path d="M53.16,34.14h1.42v4.13h2.09v-4.13h1.42v10.55h-1.42v-5.22h-2.09v5.22h-1.42v-10.55Z"/>
    <path d="M53.04,7.32H18.87c-6.35,0-11.49,5.15-11.5,11.5V52.99c0,6.35,5.15,11.49,11.5,11.5H53.04c6.35,0,11.49-5.15,11.5-11.5V18.82c0-6.35-5.15-11.49-11.5-11.5Zm-9.93,51.24c-.18,.44-.45,.81-.8,1.13-.35,.31-.78,.56-1.29,.73-.51,.17-1.08,.26-1.73,.26-1.33,0-2.57-.4-3.71-1.19l1.18-2.21c.41,.36,.82,.63,1.22,.81,.4,.18,.8,.27,1.19,.27,.45,0,.78-.1,1-.31s.33-.44,.33-.7c0-.16-.03-.3-.08-.41-.06-.12-.15-.22-.28-.32-.13-.1-.3-.19-.51-.27s-.46-.18-.76-.28c-.36-.11-.7-.24-1.04-.37-.34-.13-.64-.31-.91-.54-.27-.22-.48-.51-.64-.85-.16-.34-.24-.77-.24-1.29s.09-1,.26-1.42c.17-.42,.42-.79,.73-1.09,.31-.3,.7-.54,1.15-.71,.45-.17,.96-.25,1.52-.25,.52,0,1.07,.07,1.64,.22,.57,.14,1.11,.36,1.64,.64l-1.09,2.14c-.3-.24-.6-.42-.9-.54-.3-.12-.59-.18-.87-.18-.35,0-.64,.08-.87,.25-.22,.17-.34,.39-.34,.66,0,.19,.06,.34,.17,.46,.11,.12,.26,.23,.44,.32s.39,.17,.62,.23c.23,.07,.46,.14,.68,.21,.9,.3,1.55,.7,1.97,1.2,.42,.5,.62,1.15,.62,1.95,0,.54-.09,1.03-.27,1.47Zm8.81-2.6c-.63,.62-1.54,.92-2.72,.92h-1.62v3.5h-2.74v-10.56h4.37c1.19,0,2.09,.31,2.72,.92s.94,1.48,.94,2.6-.31,1.99-.94,2.6Zm9.62-9.4H26.91v14.93h-8.04c-4.69,0-8.49-3.81-8.5-8.5V18.82c0-4.69,3.81-8.49,8.5-8.5H53.04c4.69,0,8.49,3.81,8.5,8.5v27.74Z"/>
    <path d="M48.48,52.04h-.91v2.63h.91c1.01,0,1.51-.44,1.51-1.32s-.5-1.32-1.51-1.32Z"/>
    <rect x=".36" y=".36" width="71.28" height="71.28" fill="none"/>
</svg>