<?xml version="1.0" encoding="UTF-8"?>
<svg xmlns="http://www.w3.org/2000/svg" viewBox="0 0 72 72">
    <path d="M49.45,13.11c-4.99,0-9.12,3.65-9.86,8.39H13.87c-.88,0-1.6,.72-1.6,1.6s.72,1.6,1.6,1.6h3.79v5.11h3.7v-5.11h3.5v5.11h3.7v-5.11h11.06c.81,4.66,4.9,8.23,9.83,8.23,5.51,0,9.99-4.44,9.99-9.91s-4.48-9.91-9.99-9.91Zm0,16.62c-3.74,0-6.79-3.01-6.79-6.71s3.04-6.71,6.79-6.71,6.79,3.01,6.79,6.71-3.05,6.71-6.79,6.71Z" />
    <path d="M62.9,57.21H9.06c-.41,0-.75-.34-.75-.75v-21.86c0-.41,.34-.75,.75-.75H62.9c.41,0,.75,.34,.75,.75v21.86c0,.41-.34,.75-.75,.75Zm-53.1-1.5H62.15v-20.36H9.81v20.36Z"/>
      <path d="M19.74,44.26l2.82-4.71h1.98l-3.83,5.99,3.92,6.09h-1.95l-2.9-4.8-2.91,4.8h-1.98l3.92-6.09-3.83-5.99h1.96l2.81,4.71Z"/>
      <path d="M28.07,51.63h-1.64v-1.69h1.64v1.69Z"/>
      <path d="M31.1,46.18l.7-6.63h6.05v1.45h-4.67l-.4,3.39c.25-.19,.54-.34,.85-.47,.31-.12,.67-.19,1.08-.2,1.11-.01,1.99,.35,2.63,1.09,.64,.74,.96,1.73,.96,2.97s-.33,2.19-.98,2.92-1.6,1.1-2.84,1.1c-1.02,0-1.88-.28-2.56-.84-.68-.56-1.01-1.38-.98-2.46l.02-.05h1.48c0,.66,.19,1.17,.57,1.53,.38,.36,.87,.54,1.47,.54,.69,0,1.23-.24,1.61-.73,.38-.49,.57-1.15,.57-2,0-.77-.19-1.41-.58-1.91s-.92-.75-1.6-.75c-.64,0-1.11,.1-1.39,.29-.29,.19-.5,.49-.63,.89l-1.36-.14Z"/>
      <path d="M47.85,47.03c0,1.54-.34,2.73-1.03,3.55-.68,.82-1.62,1.23-2.81,1.23s-2.13-.41-2.82-1.24-1.04-2.01-1.04-3.54v-2.86c0-1.54,.34-2.72,1.03-3.55,.69-.83,1.62-1.24,2.81-1.24s2.13,.41,2.82,1.24c.69,.83,1.03,2.01,1.03,3.55v2.86Zm-1.63-3.21c0-1.04-.19-1.83-.57-2.36s-.93-.79-1.65-.79-1.27,.26-1.64,.79-.56,1.31-.56,2.36v3.54c0,1.04,.19,1.83,.57,2.37,.38,.53,.93,.8,1.65,.8s1.27-.27,1.64-.8c.37-.53,.56-1.32,.56-2.37v-3.54Z"/>
      <path d="M53.04,50.52c.8,0,1.43-.3,1.91-.9s.72-1.5,.72-2.68v-.55c-.27,.39-.61,.69-1.02,.89-.41,.2-.86,.3-1.36,.3-1.17,0-2.09-.36-2.78-1.08-.69-.72-1.03-1.72-1.03-2.98s.36-2.21,1.09-2.98c.73-.78,1.61-1.16,2.65-1.16,1.26,0,2.26,.39,2.98,1.18,.73,.79,1.09,1.95,1.09,3.48v2.88c0,1.58-.39,2.79-1.18,3.63-.79,.84-1.82,1.26-3.08,1.26-.43,0-.86-.04-1.3-.12-.44-.08-.83-.2-1.18-.37l.25-1.26c.33,.17,.67,.29,1.02,.36s.76,.1,1.22,.1Zm.26-4.23c.6,0,1.11-.13,1.51-.39s.69-.59,.87-1v-1.04c0-1.06-.2-1.85-.61-2.4-.41-.54-1-.81-1.78-.81-.6,0-1.11,.27-1.53,.8s-.63,1.22-.63,2.05,.2,1.5,.58,2.01c.39,.51,.92,.77,1.59,.77Z"/>
    <rect x=".36" y=".36" width="71.28" height="71.28" fill="none"/>
</svg>