<?xml version="1.0" encoding="UTF-8"?>
<svg xmlns="http://www.w3.org/2000/svg" viewBox="0 0 72 72">
    <polygon points="34.68 29.4 28.84 23.55 31.25 21.15 34.68 24.58 42.11 17.16 44.51 19.57 34.68 29.4" />
    <path d="M49.62,20.02l.74-7.08c.06-.59-.31-1.15-.88-1.33l-13.26-4.04c-.24-.07-.49-.07-.73,0l-13.26,4.04c-.57,.17-.94,.73-.88,1.33l.75,7.13c-6.21,4.36-10.29,11.55-10.29,19.7,0,13.28,10.8,24.09,24.09,24.09s24.09-10.8,24.09-24.09c0-8.18-4.11-15.39-10.36-19.74Zm7.74,18.18h-8.82c-.08-2.58-.38-5.03-.85-7.31,.24-.41,.41-.8,.52-1.19,0,0,0,0,0,0h6.7c1.37,2.57,2.22,5.45,2.45,8.51Zm-31.13-4.73c1.6,1.44,3.9,3.01,6.89,4.73h-7.33c.06-1.63,.21-3.21,.44-4.73Zm10.94,7.28h8.84c-.07,3.27-.51,6.38-1.22,9.14h-7.62v-9.14Zm8.82-2.55h-7.4c3.03-1.74,5.35-3.32,6.96-4.78,.23,1.53,.39,3.13,.44,4.78Zm7.33-11.06h-4.56c.15-.9,.3-1.94,.45-3.16l.11-1.01c1.51,1.21,2.87,2.6,4.01,4.17ZM35.85,10.07l11.91,3.63-1.05,10c-.29,2.42-.58,4.07-.92,5.35-.28,1.05-1.95,3.45-9.94,7.81-7.99-4.36-9.66-6.76-9.94-7.81-.34-1.27-.63-2.92-.92-5.33l-1.05-10.02,11.91-3.63Zm-13.45,12.95l.1,.98c.15,1.21,.29,2.24,.44,3.14h-4.49c1.12-1.55,2.46-2.92,3.95-4.12Zm-5.54,6.67h6.63s0,0,0,0c.11,.41,.31,.84,.57,1.27-.45,2.26-.75,4.67-.83,7.22H14.42c.22-3.05,1.08-5.93,2.45-8.51Zm-2.48,11.06h8.84c.07,3.27,.46,6.36,1.12,9.14h-7.45c-1.47-2.75-2.36-5.85-2.51-9.14Zm4.12,11.69h6.55c1.01,3.15,2.39,5.8,4.03,7.75-4.28-1.43-7.97-4.17-10.59-7.75Zm16.12,8.67c-2.77-.78-5.23-4.04-6.85-8.67h6.85v8.67Zm0-11.22h-7.62c-.71-2.76-1.15-5.87-1.22-9.14h8.84v9.14Zm2.55,11.22v-8.67h6.85c-1.62,4.63-4.08,7.89-6.85,8.67Zm5.53-.92c1.64-1.95,3.02-4.6,4.03-7.75h6.55c-2.61,3.58-6.3,6.32-10.59,7.75Zm4.74-10.3c.66-2.79,1.06-5.87,1.12-9.14h8.84c-.15,3.29-1.04,6.39-2.51,9.14h-7.45Z" />
    <rect x=".36" y=".36" width="71.28" height="71.28" fill="none"/>
</svg>
