<?xml version="1.0" encoding="UTF-8"?>
<svg xmlns="http://www.w3.org/2000/svg" viewBox="0 0 72 72">
    <polygon points="33.95 44.6 24 34.65 27.54 31.11 33.95 37.53 47.4 24.09 50.93 27.62 33.95 44.6" />
    <path d="M36.02,63.5c-.3,0-.6-.08-.86-.23-.16-.09-.42-.23-.76-.42-12.08-6.57-18.54-11.92-19.74-16.37-.66-2.43-1.19-5.51-1.73-9.99l-2.04-19.51c-.09-.83,.43-1.61,1.23-1.86l23.38-7.13c.33-.1,.69-.1,1.02,0l23.38,7.13c.8,.24,1.32,1.02,1.23,1.86l-2.04,19.48c-.54,4.5-1.08,7.58-1.73,10.02-1.2,4.45-7.65,9.8-19.73,16.37-.34,.18-.6,.32-.76,.42-.27,.15-.57,.23-.86,.23ZM14.52,18.06l1.89,18.05c.52,4.27,1.02,7.2,1.63,9.47,.52,1.93,3.54,6.33,17.98,14.18,14.43-7.85,17.46-12.25,17.98-14.18,.61-2.27,1.12-5.2,1.63-9.5l1.88-18.02-21.49-6.55-21.49,6.55Z" />
    <rect x=".36" y=".36" width="71.28" height="71.28" fill="none"/>
</svg>