<?xml version="1.0" encoding="utf-8"?>
<!-- Generator: Adobe Illustrator 27.9.0, SVG Export Plug-In . SVG Version: 6.00 Build 0)  -->
<svg version="1.1" id="Layer_1" xmlns="http://www.w3.org/2000/svg" xmlns:xlink="http://www.w3.org/1999/xlink" x="0px" y="0px"
	 viewBox="0 0 72 72" style="enable-background:new 0 0 72 72;" xml:space="preserve">
<g>
	<g id="Checkmark_16_">
		<path d="M49.1,42.7c-0.4,0-0.8-0.1-1.1-0.4l-3.8-3.8c-0.6-0.6-0.6-1.5,0-2.1s1.5-0.6,2.1,0l2.7,2.7l6.9-6.9c0.6-0.6,1.5-0.6,2.1,0
			c0.6,0.6,0.6,1.5,0,2.1l-8,7.9C49.9,42.5,49.5,42.7,49.1,42.7z"/>
	</g>
	<g id="Checkmark_15_">
		<path d="M49.1,56.2c-0.4,0-0.8-0.1-1.1-0.4L44.3,52c-0.6-0.6-0.6-1.5,0-2.1s1.5-0.6,2.1,0l2.7,2.7l6.9-6.9c0.6-0.6,1.5-0.6,2.1,0
			s0.6,1.5,0,2.1l-8,8C49.9,56.1,49.5,56.2,49.1,56.2z"/>
	</g>
	<path d="M62.7,25.2h-3.6v2h3.6c0.4,0,0.7,0.3,0.7,0.7v34c0,0.4-0.3,0.7-0.7,0.7h-23c-0.4,0-0.7-0.3-0.7-0.7V28
		c0-0.4,0.3-0.7,0.7-0.7h3.6v-2H43V22l9.2-9.2v10c-0.3-0.1-0.6-0.2-1-0.2c-1.1,0-2.2,0.7-2.6,1.7h-1.8c-0.6,0-1.1,0.5-1.1,1.1v1.5
		c0,0.6,0.5,1.1,1.1,1.1h8.9c0.6,0,1.1-0.5,1.1-1.1v-1.5c0-0.6-0.5-1.1-1.1-1.1H55v-15C55,8.6,54.4,8,53.6,8H23.9
		c-0.3,0-0.6,0.1-0.9,0.3L9,19.8c-0.2,0.2-0.4,0.5-0.5,0.8c-0.1,0.2-0.2,0.4-0.2,0.7v31c0,0.7,0.6,1.4,1.4,1.4H37v8.4
		c0,1.5,1.2,2.7,2.7,2.7h23c1.5,0,2.7-1.2,2.7-2.7V28C65.5,26.4,64.2,25.2,62.7,25.2z M24.4,10.7h26.2l-9.3,9.2H13.2L24.4,10.7z
		 M37,28v22.9H11.1V22.6h29.2v2.6h-0.6C38.2,25.2,37,26.4,37,28z"/>
</g>
</svg>
