<?xml version="1.0" encoding="UTF-8"?>
<svg xmlns="http://www.w3.org/2000/svg" viewBox="0 0 72 72">
    <polygon points="34.57 43.69 28.56 37.68 30.68 35.55 34.57 39.44 42.71 31.3 44.83 33.42 34.57 43.69"/>
    <path d="M35.82,55.62c-.21,0-.43-.05-.62-.16l-.46-.25c-7.36-4-11.29-7.28-12.03-10.02-.4-1.48-.72-3.35-1.05-6.07l-1.23-11.81c-.06-.6,.31-1.15,.88-1.33l14.15-4.31c.24-.07,.49-.07,.73,0l14.15,4.31c.57,.17,.94,.73,.88,1.33l-1.23,11.79c-.33,2.73-.65,4.61-1.05,6.09-.74,2.74-4.67,6.02-12.03,10.02l-.46,.25c-.19,.11-.4,.16-.62,.16Zm-12.8-27.54l1.12,10.76c.31,2.57,.61,4.34,.98,5.7,.3,1.13,2.1,3.72,10.69,8.41,8.59-4.68,10.39-7.28,10.69-8.41,.37-1.36,.67-3.13,.98-5.72l1.12-10.74-12.8-3.9-12.8,3.9Z"/>
    <path d="M62.95,10.29H8.89c-.69,0-1.25,.56-1.25,1.25V59.52c0,.69,.56,1.25,1.25,1.25H62.95c.69,0,1.25-.56,1.25-1.25V11.54c0-.69-.56-1.25-1.25-1.25Zm-1.25,2.5v4.76H10.14v-4.76H61.7ZM10.14,58.27V19.14H61.7V58.27H10.14Z"/>
    <circle cx="12.97" cy="15.26" r="1.16"/>
    <circle cx="16.63" cy="15.26" r="1.16"/>
    <circle cx="20.29" cy="15.26" r="1.16"/>
    <rect x=".36" y=".36" width="71.28" height="71.28" fill="none"/>
</svg>