<?xml version="1.0" encoding="UTF-8"?>
<svg xmlns="http://www.w3.org/2000/svg" viewBox="0 0 72 72">
    <path d="M51.18,45.06c-1.1,0-1.99-.89-2-1.99,0-1.1,.88-2,1.99-2.01l3.08-.02c4.71-.18,8.44-4.39,8.44-9.58s-4-9.61-8.91-9.61c-.54,0-1.03,.05-1.47,.14-1.37,.3-2.77-.36-3.41-1.62-2.44-4.81-7.3-7.79-12.7-7.79-7.25,0-13.33,5.41-14.16,12.59-.11,.94-.63,1.76-1.43,2.26-.8,.5-1.77,.61-2.66,.3-.68-.24-1.41-.36-2.17-.36-3.78,0-6.86,3.08-6.86,6.86s3,6.75,6.69,6.82h6.39s0,0,0,0c1.1,0,2,.9,2,2,0,1.1-.89,2-2,2h-6.43c-5.89-.11-10.65-4.97-10.65-10.82s4.87-10.86,10.86-10.86c.83,0,1.65,.09,2.43,.28,1.51-8.66,9.06-15.06,17.98-15.06,6.68,0,12.73,3.57,15.95,9.37,.52-.07,1.06-.11,1.63-.11,7.12,0,12.91,6.11,12.91,13.61s-5.43,13.31-12.36,13.58l-3.15,.02h-.01ZM19.28,23.96s0,0,0,0c0,0,0,0,0,0Zm32.19-5.87s0,0,0,0c0,0,0,0,0,0Z"/>
    <polygon points="35.51 46.48 30.61 41.58 32.38 39.81 35.51 42.94 42.08 36.37 43.84 38.14 35.51 46.48"/>
    <path d="M36.52,56.08c-.17,0-.34-.04-.49-.13l-.37-.2c-5.96-3.24-9.14-5.89-9.74-8.11-.32-1.2-.59-2.71-.85-4.91l-1-9.56c-.05-.48,.25-.92,.7-1.06l11.46-3.49c.19-.06,.39-.06,.58,0l11.46,3.49c.46,.14,.75,.58,.7,1.06l-1,9.55c-.27,2.22-.53,3.73-.85,4.93-.6,2.22-3.78,4.87-9.74,8.11l-.37,.2c-.15,.09-.32,.13-.49,.13Zm-10.38-22.31l.91,8.73c.25,2.09,.5,3.52,.8,4.62,.25,.92,1.7,3.02,8.67,6.82,6.97-3.8,8.42-5.9,8.67-6.82,.3-1.1,.54-2.53,.8-4.63l.91-8.71-10.38-3.16-10.38,3.16Z"/>
    <rect x=".36" y=".36" width="71.28" height="71.28" fill="none"/>
</svg>
