<?xml version="1.0" encoding="UTF-8"?>
<svg xmlns="http://www.w3.org/2000/svg" viewBox="0 0 72 72">
    <path d="M51.37,65.37h-9.57v-3h9.57c.65,0,1.18-.53,1.18-1.19V10.37c0-.65-.53-1.19-1.18-1.19H20.97c-.65,0-1.18,.53-1.18,1.19V61.19c0,.65,.53,1.19,1.18,1.19h9.18v3h-9.18c-2.31,0-4.18-1.88-4.18-4.19V10.37c0-2.31,1.88-4.19,4.18-4.19h30.4c2.31,0,4.18,1.88,4.18,4.19V61.19c0,2.31-1.88,4.19-4.18,4.19Z"/>
    <path d="M41.27,17.54h-10.19c-.55,0-1-.45-1-1s.45-1,1-1h10.19c.55,0,1,.45,1,1s-.45,1-1,1Z"/>
    <path d="M41.27,24.61h-10.19c-.55,0-1-.45-1-1s.45-1,1-1h10.19c.55,0,1,.45,1,1s-.45,1-1,1Z"/>
    <polygon points="48.28 58.19 23.99 58.19 23.99 33.94 25.99 33.94 25.99 56.19 48.28 56.19 48.28 58.19"/>
    <path d="M40.35,46.95c-.21,0-.41-.08-.57-.22l-4.71-4.19-6.21,3.44c-.42,.23-.94,.08-1.17-.34-.23-.42-.08-.94,.34-1.17l6.74-3.73c.32-.18,.72-.13,.99,.11l4.51,4.01,6.89-7.95c.31-.36,.85-.4,1.21-.09,.36,.31,.4,.85,.09,1.21l-7.46,8.61c-.15,.17-.36,.28-.59,.29-.02,0-.04,0-.06,0Z"/>
    <path d="M28.77,54.16c-.39,0-.7-.31-.7-.7v-4.16c0-.39,.31-.7,.7-.7s.7,.31,.7,.7v4.16c0,.39-.31,.7-.7,.7Z"/>
    <path d="M32.74,54.16c-.39,0-.7-.31-.7-.7v-6.96c0-.39,.31-.7,.7-.7s.7,.31,.7,.7v6.96c0,.39-.31,.7-.7,.7Z"/>
    <path d="M36.61,54.16c-.39,0-.7-.31-.7-.7v-4.66c0-.39,.31-.7,.7-.7s.7,.31,.7,.7v4.66c0,.39-.31,.7-.7,.7Z"/>
    <path d="M40.56,54.16c-.39,0-.7-.31-.7-.7v-2.01c0-.39,.31-.7,.7-.7s.7,.31,.7,.7v2.01c0,.39-.31,.7-.7,.7Z"/>
    <path d="M44.37,54.16c-.39,0-.7-.31-.7-.7v-7.75c0-.39,.31-.7,.7-.7s.7,.31,.7,.7v7.75c0,.39-.31,.7-.7,.7Z"/>
    <rect x=".36" y=".36" width="71.28" height="71.28" fill="none"/>
</svg>
