<?xml version="1.0" encoding="utf-8"?>
<!-- Generator: Adobe Illustrator 26.5.3, SVG Export Plug-In . SVG Version: 6.00 Build 0)  -->
<svg version="1.1" id="Layer_1" xmlns="http://www.w3.org/2000/svg" xmlns:xlink="http://www.w3.org/1999/xlink" x="0px" y="0px"
	 viewBox="0 0 72 72" style="enable-background:new 0 0 72 72;" xml:space="preserve">
<path d="M63,15.3c-0.4-0.4-0.9-0.7-1.5-0.7h-2.4V9.3c0-1.1-0.9-2-2-2H42.6c-1.2,0-2,0.8-2,2v17.5h-1.2v-9c0-1.1-0.9-2-2-2h-9
	c-1.2,0-2,0.8-2,2v3.1h-4.5v-2.2c0-0.4-0.1-0.9-0.4-1.3l-4.7-5.8c-0.8-1-2.4-1-3.2,0L9,17.5l-0.1,0.2c-0.1,0.3-0.3,0.6-0.3,1v28.7
	c0,1.2,0.8,2,2,2h7.7c0.2,0,0.4-0.1,0.5-0.2c0.3,0.4,0.6,0.8,0.7,1c0,0.4-0.3,1.8-0.5,2.2c-0.4,0.3-1.2,0.6-2,1
	c-0.9,0.4-2.1,0.9-3.3,1.6s-1.3,1.6-1.4,2.1c-0.1,0.4-0.2,3.5-0.2,4.8c0,0.3,0.1,0.5,0.3,0.7c0.2,0.2,0.5,0.3,0.7,0.3h21.3
	c0.3,0,0.5-0.1,0.7-0.3c0.2-0.2,0.3-0.5,0.3-0.7c0-1.3-0.1-4.4-0.2-4.8c-0.1-0.4-0.2-1.5-1.4-2.1c-1.1-0.6-2.2-1.1-3.1-1.5
	c-0.9-0.4-1.8-0.8-2.2-1.1C28.3,52,28,50.8,28,50.5c0-0.1,0.2-0.5,1.2-2.1l0.1-0.1c0.3-0.5,0.8-1.5,0.8-2.5c0-0.6-0.1-0.8-0.2-1.1
	c0-0.1,0-0.1-0.1-0.2c0-0.3-0.1-0.5-0.1-0.6c-0.1-0.3-0.1-0.6-0.2-2c0-0.4-0.1-0.7-0.3-1.1c0-0.1,0-0.1,0-0.2V18.8h7v9h-1.6
	c-0.5,0-1,0.5-1,1v18.6c0,0.5,0.5,1,1,1h7.8c0,0.1,0.1,0.1,0.2,0.2c0.2,0.3,1,1.3,1.1,1.6c0,0.4-0.3,1.8-0.5,2.2
	c-0.4,0.3-1.2,0.6-2,1c-0.9,0.4-2.1,0.9-3.3,1.6c-1.2,0.7-1.3,1.6-1.4,2.2c-0.1,0.4-0.2,3.5-0.2,4.8c0,0.3,0.1,0.5,0.3,0.7
	c0.2,0.2,0.4,0.3,0.7,0.3h21.4c0.3,0,0.5-0.1,0.7-0.3c0.2-0.2,0.3-0.5,0.3-0.7c0-1.3-0.1-4.4-0.2-4.8c-0.1-0.4-0.2-1.5-1.4-2.1
	C57,54.3,56,53.8,55,53.4c-0.9-0.4-1.8-0.8-2.2-1.1c-0.2-0.4-0.5-1.6-0.5-1.9c0-0.1,0.1-0.4,0.6-1.2c0.2,0.1,0.4,0.2,0.6,0.2h7.9
	c1.2,0,2-0.8,2-2V16.7C63.5,16.2,63.3,15.7,63,15.3z M27.4,38.6c-1.1-0.7-2.5-1.2-3.8-0.9c-1.4,0.3-1.9,0.3-2.2,0.2
	c-0.2,0-0.3,0-0.5,0v-14h6.4L27.4,38.6z M18.9,39.2c-0.4,0.5-0.8,1.2-1,1.8c-0.5,2-0.5,2.7-0.5,3.5v0.2c0,0.3,0,0.4,0,0.6
	s-0.1,0.4-0.1,0.8c0,0.2,0,0.3,0,0.4h-5.8V19h0.1l3.6-4.5l3.6,4.5v19.8C18.8,38.9,18.8,39.1,18.9,39.2z M27.8,47.1l-0.1,0.1
	c-1.1,1.6-1.5,2.5-1.5,3.1c0,0.4,0.3,2.9,1.2,3.6c0.6,0.5,1.5,0.9,2.7,1.4c0.9,0.4,1.9,0.8,2.9,1.4c0.3,0.2,0.3,0.3,0.4,0.7
	c0,0.2,0.1,1.8,0.1,3.5H14.2c0-1.7,0.1-3.3,0.1-3.5v-0.1c0-0.3,0.1-0.4,0.4-0.6c1.1-0.6,2.2-1.1,3.1-1.5c1-0.5,1.9-0.8,2.5-1.3
	c0.8-0.6,1.2-3.2,1.2-3.9c0-0.6-0.5-1.4-1.5-2.6c-0.1-0.1-0.2-0.2-0.2-0.3c-0.1-0.2-0.5-0.7-0.5-1.1c0-0.2,0-0.3,0-0.4
	c0.1-0.2,0.1-0.5,0.1-1v-0.2c0-0.7,0-1.2,0.4-3c0.1-0.5,0.6-1.2,1-1.4l0.1-0.1c0.1,0,0.1,0,0.1,0c0.4,0,1.1,0.1,2.9-0.3
	c0.7-0.2,1.8,0.2,2.7,0.9c0.6,0.5,0.9,1,0.9,1.2c0,1.5,0.1,1.9,0.2,2.4c0,0.1,0.1,0.3,0.1,0.5c0.1,0.4,0.1,0.6,0.2,0.8
	c0,0,0,0,0,0.2C28.2,46.2,27.9,46.8,27.8,47.1z M41.7,44.6c0,0.3,0,0.4-0.1,0.6c0,0.2-0.1,0.4-0.1,0.8c0,0.2,0,0.3,0,0.4h-5.9V29.8
	h5.8v13.8c0,0.2,0.1,0.3,0.1,0.5C41.7,44.2,41.7,44.3,41.7,44.6L41.7,44.6z M54.3,55.3c0.9,0.4,1.9,0.8,2.9,1.4
	c0.3,0.2,0.3,0.3,0.4,0.7c0,0.2,0.1,1.8,0.1,3.5H38.4c0-1.7,0.1-3.3,0.1-3.5v-0.1c0-0.3,0.1-0.4,0.4-0.6c1.1-0.6,2.2-1.1,3.1-1.5
	c1-0.5,1.9-0.8,2.5-1.3c0.8-0.6,1.2-3.2,1.2-3.9c-0.1-0.6-0.5-1.4-1.5-2.6c-0.1-0.1-0.2-0.2-0.2-0.3c-0.1-0.2-0.5-0.7-0.5-1.1
	c0-0.2,0-0.3,0-0.4c0.1-0.2,0.1-0.5,0.1-1v-0.2c0-0.7,0-1.2,0.4-3c0.1-0.5,0.6-1.2,1-1.4l0.1-0.1c0.1,0,0.1,0,0.1,0
	c0.4,0,1.1,0.1,2.9-0.3c0.7-0.2,1.8,0.2,2.7,0.9c0.6,0.5,0.9,1,0.9,1.2c0,1.5,0.1,1.9,0.2,2.4c0,0.1,0.1,0.3,0.1,0.5
	c0,0.4,0.1,0.6,0.2,0.8c0,0,0,0,0,0.2c0.2,0.6-0.1,1.2-0.2,1.5l-0.1,0.1c-1.1,1.6-1.5,2.5-1.5,3.1c0,0.4,0.3,2.9,1.2,3.6
	C52.2,54.4,53.1,54.8,54.3,55.3z M52.1,39.1c-1-0.8-2.8-1.7-4.4-1.3c-1.4,0.3-1.9,0.3-2.2,0.2c-0.5,0-0.8,0-1.5,0.3
	c-0.2,0.1-0.4,0.3-0.5,0.4V10.3H56v5.3h-2.5c-0.6,0-1,0.5-1,1v11.7c0,0.6,0.4,1,1,1c0.5,0,1-0.4,1-1V17.6h5.9v28.8h-6.1
	c0.1-0.2,0.1-0.5,0.1-0.7c0-0.6-0.1-0.8-0.2-1.1c0-0.1-0.1-0.1-0.1-0.2c0-0.3-0.1-0.5-0.1-0.6c-0.1-0.3-0.1-0.6-0.2-2
	C53.8,40.9,53.2,39.9,52.1,39.1z"/>
</svg>
