<?xml version="1.0" encoding="UTF-8"?>
<svg id="Layer_1" xmlns="http://www.w3.org/2000/svg" version="1.1" viewBox="0 0 72 72">
  <!-- Generator: Adobe Illustrator 29.0.1, SVG Export Plug-In . SVG Version: 2.1.0 Build 192)  -->
  <defs>
    <style>
      .st0 {
        fill: none;
      }
    </style>
  </defs>
  <path d="M52,65.5h-9.6v-3h9.6c.7,0,1.2-.5,1.2-1.2V10.5c0-.6-.5-1.2-1.2-1.2H19.6c-.6,0-1.2.5-1.2,1.2v50.8c0,.7.5,1.2,1.2,1.2h9.2v3h-9.2c-2.3,0-4.2-1.9-4.2-4.2V10.5c0-2.3,1.9-4.2,4.2-4.2h32.4c2.3,0,4.2,1.9,4.2,4.2v50.8c0,2.3-1.9,4.2-4.2,4.2h0Z"/>
  <path d="M40.9,17.7h-10.2c-.5,0-1-.5-1-1s.5-1,1-1h10.2c.5,0,1,.5,1,1s-.5,1-1,1Z"/>
  <path d="M40.9,24.8h-10.2c-.5,0-1-.5-1-1s.5-1,1-1h10.2c.5,0,1,.5,1,1s-.5,1-1,1Z"/>
  <polygon points="34.9 51 30 46.1 31.8 44.3 34.9 47.4 41.5 40.9 43.2 42.6 34.9 51"/>
  <path d="M35.9,60.6c-.2,0-.3,0-.5,0l-.4-.2c-6-3.2-9.1-5.9-9.7-8.1-.3-1.2-.6-2.7-.9-4.9l-1-9.6c0-.5.2-.9.7-1.1l11.5-3.5h.6l11.5,3.5c.5,0,.8.6.7,1.1l-1,9.5c-.3,2.2-.5,3.7-.8,4.9-.6,2.2-3.8,4.9-9.7,8.1l-.4.2c-.2,0-.3,0-.5,0h0ZM25.5,38.3l.9,8.7c.2,2.1.5,3.5.8,4.6.2.9,1.7,3,8.7,6.8,7-3.8,8.4-5.9,8.7-6.8.3-1.1.5-2.5.8-4.6l.9-8.7-10.4-3.2-10.4,3.2h0Z"/>
  <rect class="st0" x=".4" y=".4" width="71.3" height="71.3"/>
</svg>