<?xml version="1.0" encoding="UTF-8"?>
<svg xmlns="http://www.w3.org/2000/svg" viewBox="0 0 72 72">
	<path d="m33.88,44.71c-.39,0-.7.01-1.03.03v6.22c.28.01.58.01.95.01,1.96,0,3.28-1.14,3.28-3.25s-1.32-3.01-3.2-3.01Z" stroke-width="0"/>
    <path d="m43.02,44.71c-.49,0-.87.01-1.03.03v3.22c.24.01.42.01.88.01,1.17,0,2.15-.39,2.15-1.65,0-1.01-.72-1.61-2-1.61Z" stroke-width="0"/>
    <path d="m62.77,11.09H8.9c-.83,0-1.5.67-1.5,1.5v42.43c0,.83.67,1.5,1.5,1.5h25.37v5h-9.11c-.83,0-1.5.67-1.5,1.5s.67,1.5,1.5,1.5h21.08c.83,0,1.5-.67,1.5-1.5s-.67-1.5-1.5-1.5h-8.98v-5h25.51c.83,0,1.5-.67,1.5-1.5V12.59c0-.83-.67-1.5-1.5-1.5ZM28.88,52.28c0,.1-.03.12-.11.12h-1.46c-.08,0-.11-.04-.11-.12v-8.89c0-.1.04-.11.11-.11h1.46c.08,0,.11.03.11.11v8.89Zm4.99.15c-.88,0-2.15,0-2.6-.03-.06,0-.1-.04-.1-.12v-8.88c0-.07.02-.1.1-.11.4-.01,1.35-.04,2.62-.04,3.27,0,4.91,1.85,4.91,4.43,0,3.39-2.58,4.75-4.93,4.75Zm9-2.99h-.88v2.85c0,.07-.03.11-.11.11h-1.46c-.07,0-.11-.03-.11-.1v-8.91c0-.07.03-.11.1-.11.53-.01,1.56-.04,2.57-.04,2.69,0,3.7,1.5,3.7,3.03,0,2.21-1.71,3.17-3.81,3.17Zm18.4,4.07h-5.53c-.07-2.28-.17-5.05-.24-5.52-.08-1.28-.8-2.42-1.92-3.04-1.98-1.01-4.02-1.89-6.12-2.61-1.36-.43-2.67-1.01-3.91-1.71-.48-1.11-.78-2.3-.88-3.51.02-.17.22-.91,2.04-3.59l.13-.2c.7-1.11,1.1-2.38,1.17-3.69.03-.52-.07-1.03-.28-1.5-.08-.17-.14-.35-.15-.53-.06-.43-.12-.71-.18-.98-.23-1.13-.32-2.27-.28-3.42-.03-1.32-.88-2.72-2.47-3.97-1.59-1.24-4.26-2.51-6.59-1.99-1.23.35-2.52.48-3.8.39-.71-.12-1.44.06-2.02.48-1.37.95-2.36,2.35-2.81,3.95-.56,1.8-.84,3.67-.84,5.55v.25c.01.35-.02.69-.1,1.03-.1.4-.15.81-.14,1.23.06,1.18.47,2.32,1.17,3.27.08.13.25.36.46.64.42.55,1.73,2.3,1.83,2.81-.06,1.35-.37,2.68-.92,3.92-1.24.64-2.54,1.14-3.88,1.5-2.37.68-4.66,1.6-6.85,2.73-1.13.55-1.88,1.67-1.97,2.92v.14c-.06.42-.15,3.18-.22,5.46h-5.55s0-39.44,0-39.44h50.88v39.44Z" stroke-width="0"/>
    <rect x=".36" y=".36" width="71.28" height="71.28" fill="none" stroke-width="0"/>
</svg>