<?xml version="1.0" encoding="UTF-8"?>
<svg xmlns="http://www.w3.org/2000/svg" viewBox="0 0 72 72">
    <path d="m61.46,18.59h-5.05v-7.71c0-2.16-1.76-3.91-3.91-3.91h-10.81c-2.16,0-3.91,1.76-3.91,3.91v6.13c-.64-.05-1.29-.03-1.91.11-2.76.62-3.78.52-4.38.46-.06,0-.13-.01-.19-.02v-1.46c0-2.88-2.34-5.22-5.22-5.22h-14.42c-2.88,0-5.22,2.34-5.22,5.22v14.42c0,2.88,2.34,5.22,5.22,5.22h4.07v3.62c0,2.07,1.68,3.75,3.75,3.75h8.5c-.22.84-.45,1.47-.6,1.71-.75.51-2.63,1.12-4.45,1.71-2.62.85-5.6,1.82-8.09,3.23-2.11,1.19-2.33,2.84-2.44,3.63l-.02.17c-.12.76-.31,7.5-.36,9.55-.01.4.14.8.42,1.09.28.29.67.45,1.08.45h13.28v-3h-11.74c.1-3.6.23-7.18.29-7.64l.03-.22c.08-.6.13-.96.94-1.42,2.23-1.26,5.06-2.18,7.54-2.98,2.43-.79,4.35-1.41,5.44-2.24.98-.75,1.56-2.9,1.88-4.57h-.05c1.09-.66,1.83-1.85,1.83-3.21v-9.73c0-2.07-1.68-3.75-3.75-3.75h-1.25c.12-.62.28-1.33.49-2.17.26-1.06,1.22-2.42,2.11-2.98.24-.15.33-.18.33-.18.1,0,.19.01.31.02.78.07,2.1.2,5.32-.52,1.44-.32,3.68.43,5.46,1.82,1.36,1.07,1.85,2.05,1.86,2.56.06,3,.21,3.71.39,4.54.06.27.12.54.18.96.09.66.24,1.03.39,1.35.07.16.1.22.1.65,0,.96-.59,2.35-.91,2.83l-.15.22c-1.58,2.34-2.4,3.8-2.7,4.84h-1.13c-2.21,0-4.01,1.8-4.01,4.01v10.81c0,2.21,1.8,4.01,4.01,4.01h10.81c2.21,0,4.01-1.8,4.01-4.01v-2.5c.11.06.23.13.4.22.77.42.84.91.95,1.61.06.47.18,4.05.29,7.65h-11.7v3h13.24c.41,0,.79-.16,1.08-.45.28-.29.44-.68.42-1.09-.06-2.05-.25-8.79-.37-9.63-.13-.84-.39-2.6-2.47-3.73-.91-.5-.98-.53-1.67-.82l-.16-.07v-5.02c0-2.21-1.8-4.01-4.01-4.01h-6.45c.32-.62.89-1.6,1.95-3.16l.16-.24c.55-.82,1.41-2.77,1.41-4.49,0-.99-.16-1.43-.36-1.87-.07-.16-.11-.25-.16-.55-.07-.51-.15-.85-.22-1.17-.12-.55-.23-1.07-.29-2.73h2.53v5.05c0,1.83,1.49,3.31,3.31,3.31h8.76c1.83,0,3.31-1.49,3.31-3.31v-8.76c0-1.83-1.49-3.31-3.31-3.31Zm-30.32,11.04v9.73c0,1.07-.87,1.95-1.95,1.95h-9.73c-1.07,0-1.95-.87-1.95-1.95v-9.73c0-1.07.87-1.95,1.95-1.95h9.73c1.07,0,1.95.87,1.95,1.95Zm-5.62-6.64c-.28,1.15-.49,2.09-.63,2.89h-5.43c-2.07,0-3.75,1.68-3.75,3.75v4.11h-4.07c-1.77,0-3.22-1.44-3.22-3.22v-14.42c0-1.77,1.44-3.22,3.22-3.22h14.42c1.77,0,3.22,1.44,3.22,3.22v1.89c-.11.06-.22.12-.34.2-1.54.97-2.97,2.99-3.42,4.8Zm27.59,20.85v10.81c0,1.28-1.04,2.31-2.31,2.31h-10.81c-1.28,0-2.31-1.04-2.31-2.31v-10.81c0-1.28,1.04-2.31,2.31-2.31h10.81c1.28,0,2.31,1.04,2.31,2.31Zm-6.31-19.74c-.14-1.56-1.18-3.18-2.98-4.6-1.16-.91-2.81-1.82-4.55-2.26v-6.37c0-1.33,1.08-2.41,2.41-2.41h10.81c1.33,0,2.41,1.08,2.41,2.41v7.71h-2.2c-1.83,0-3.31,1.49-3.31,3.31v2.2h-2.59Zm8.11-4.02v1.6c0,1.33-1.08,2.41-2.41,2.41h-1.6v-2.2c0-1,.81-1.81,1.81-1.81h2.2Zm8.37,10.57c0,1-.81,1.81-1.81,1.81h-8.76c-1,0-1.81-.81-1.81-1.81v-5.05h1.6c2.16,0,3.91-1.76,3.91-3.91v-1.6h5.05c1,0,1.81.81,1.81,1.81v8.76Z" stroke-width="0"/>
    <rect x=".36" y=".36" width="71.28" height="71.28" fill="none" stroke-width="0"/>
</svg>