<?xml version="1.0" encoding="utf-8"?>
<svg xmlns="http://www.w3.org/2000/svg" viewBox="0 0 72 72" >
<path class="st0" d="M61.5,15.6h-3.4V9.3c0-0.6-0.5-1-1-1H42.6c-0.6,0-1,0.4-1,1v18.5h-3.2v-10c0-0.6-0.5-1-1-1h-9c-0.6,0-1,0.4-1,1
	v4.1c0,0-0.1,0-0.1,0h-6.4v-3.2c0-0.2-0.1-0.5-0.2-0.6L16,12.3c-0.4-0.5-1.2-0.5-1.6,0l-4.6,5.8c-0.1,0.2-0.2,0.4-0.2,0.6v28.7
	c0,0.6,0.4,1,1,1h7.7c0,0.1,0.1,0.1,0.1,0.2c0.2,0.3,1,1.3,1.1,1.6c0,0.4-0.3,1.8-0.5,2.2c-0.4,0.3-1.2,0.6-2,1
	c-0.9,0.4-2.1,0.9-3.3,1.6c-1.2,0.7-1.3,1.6-1.4,2.1c-0.1,0.4-0.2,3.5-0.2,4.8c0,0.3,0.1,0.5,0.3,0.7c0.2,0.2,0.5,0.3,0.7,0.3h21.3
	c0.3,0,0.5-0.1,0.7-0.3s0.3-0.5,0.3-0.7c0-1.3-0.1-4.4-0.2-4.8s-0.2-1.5-1.4-2.1c-1.1-0.6-2.2-1.1-3.1-1.5c-0.9-0.4-1.8-0.8-2.2-1.1
	c-0.2-0.4-0.5-1.6-0.5-1.9c0-0.1,0.2-0.5,1.2-2.1l0.1-0.1c0.3-0.5,0.8-1.5,0.8-2.5c0-0.6-0.1-0.8-0.2-1.1c0-0.1,0-0.1-0.1-0.2
	c0-0.3-0.1-0.5-0.1-0.6c-0.1-0.3-0.1-0.6-0.2-2c0-0.4-0.1-0.7-0.3-1.1c0-0.1,0-0.1,0-0.2V18.8h7v9h-1.6c-0.5,0-1,0.5-1,1v18.6
	c0,0.5,0.5,1,1,1h7.8c0,0.1,0.1,0.1,0.2,0.2c0.2,0.3,1,1.3,1.1,1.6c0,0.4-0.3,1.8-0.5,2.2c-0.4,0.3-1.2,0.6-2,1
	c-0.9,0.4-2.1,0.9-3.3,1.6c-1.2,0.7-1.3,1.6-1.4,2.2c-0.1,0.4-0.2,3.5-0.2,4.8c0,0.3,0.1,0.5,0.3,0.7c0.2,0.2,0.4,0.3,0.7,0.3h21.4
	c0.3,0,0.5-0.1,0.7-0.3s0.3-0.5,0.3-0.7c0-1.3-0.1-4.4-0.2-4.8s-0.2-1.5-1.4-2.1C57,54.3,56,53.8,55,53.4c-0.9-0.4-1.8-0.8-2.2-1.1
	c-0.2-0.4-0.5-1.6-0.5-1.9c0-0.1,0.2-0.5,1.1-2c0,0,0,0,0.1,0h7.9c0.6,0,1-0.4,1-1V16.6C62.5,16,62,15.6,61.5,15.6z M27.3,23.9
	C27.3,23.9,27.4,23.8,27.3,23.9l0.1,14.7c-1.1-0.7-2.5-1.2-3.8-0.9c-1.4,0.3-1.9,0.3-2.2,0.2c-0.2,0-0.3,0-0.5,0v-14H27.3z M11.6,19
	l3.6-4.5l3.6,4.5v19.8c0,0.1,0,0.3,0.1,0.4c-0.4,0.5-0.8,1.2-1,1.8c-0.5,2-0.5,2.7-0.5,3.5v0.2c0,0.3,0,0.4,0,0.6
	c0,0.2-0.1,0.4-0.1,0.8c0,0.2,0,0.3,0,0.4h-5.8V19z M27.8,47.1L27.8,47.1l-0.1,0.1c-1.1,1.6-1.5,2.5-1.5,3.1c0,0.4,0.3,2.9,1.2,3.6
	c0.6,0.5,1.5,0.9,2.7,1.4c0.9,0.4,1.9,0.8,2.9,1.4c0.3,0.2,0.3,0.3,0.4,0.7c0,0.2,0.1,1.8,0.1,3.5H14.2c0-1.7,0.1-3.3,0.1-3.5l0-0.1
	c0-0.3,0.1-0.4,0.4-0.6c1.1-0.6,2.2-1.1,3.1-1.5c1-0.5,1.9-0.8,2.5-1.3c0.8-0.6,1.2-3.2,1.2-3.9c0-0.6-0.5-1.4-1.5-2.6
	c-0.1-0.1-0.2-0.2-0.2-0.3c-0.1-0.2-0.5-0.7-0.5-1.1c0-0.2,0-0.3,0-0.4c0.1-0.2,0.1-0.5,0.1-1v-0.2c0-0.7,0-1.2,0.4-3
	c0.1-0.5,0.6-1.2,1-1.4c0,0,0.1-0.1,0.1-0.1c0.1,0,0.1,0,0.1,0c0.4,0,1.1,0.1,2.9-0.3c0.7-0.2,1.8,0.2,2.7,0.9
	c0.6,0.5,0.9,1,0.9,1.2c0,1.5,0.1,1.9,0.2,2.4c0,0.1,0.1,0.3,0.1,0.5c0.1,0.4,0.1,0.6,0.2,0.8c0,0,0,0,0,0.2
	C28.2,46.2,27.9,46.8,27.8,47.1z M41.7,44.5v0.1c0,0.3,0,0.4-0.1,0.6c0,0.2-0.1,0.4-0.1,0.8c0,0.2,0,0.3,0,0.4h-5.9V29.8h5.8v13.8
	c0,0.2,0.1,0.3,0.1,0.5C41.7,44.2,41.7,44.3,41.7,44.5z M52,47.1L52,47.1l-0.1,0.1c-1.1,1.6-1.5,2.5-1.5,3.1c0,0.4,0.3,2.9,1.2,3.6
	c0.6,0.5,1.5,0.9,2.7,1.4c0.9,0.4,1.9,0.8,2.9,1.4c0.3,0.2,0.3,0.3,0.4,0.7c0,0.2,0.1,1.8,0.1,3.5H38.4c0-1.7,0.1-3.3,0.1-3.5l0-0.1
	c0-0.3,0.1-0.4,0.4-0.6c1.1-0.6,2.2-1.1,3.1-1.5c1-0.5,1.9-0.8,2.5-1.3c0.8-0.6,1.2-3.2,1.2-3.9c-0.1-0.6-0.5-1.4-1.5-2.6
	c-0.1-0.1-0.2-0.2-0.2-0.3c-0.1-0.2-0.5-0.7-0.5-1.1c0-0.2,0-0.3,0-0.4c0.1-0.2,0.1-0.5,0.1-1v-0.2c0-0.7,0-1.2,0.4-3
	c0.1-0.5,0.6-1.2,1-1.4c0,0,0.1-0.1,0.1-0.1c0.1,0,0.1,0,0.1,0c0.4,0,1.1,0.1,2.9-0.3c0.7-0.2,1.8,0.2,2.7,0.9
	c0.6,0.5,0.9,1,0.9,1.2c0,1.5,0.1,1.9,0.2,2.4c0,0.1,0.1,0.3,0.1,0.5c0,0.4,0.1,0.6,0.2,0.8c0,0,0,0,0,0.2
	C52.4,46.2,52.1,46.8,52,47.1z M54.3,46.4c0.1-0.2,0.1-0.5,0.1-0.7c0-0.6-0.1-0.8-0.2-1.1c0-0.1-0.1-0.1-0.1-0.2
	c0-0.3-0.1-0.5-0.1-0.6c-0.1-0.3-0.1-0.6-0.2-2c0-0.9-0.6-1.9-1.7-2.7c-1-0.8-2.8-1.7-4.4-1.3c-1.4,0.3-1.9,0.3-2.2,0.2
	c-0.5,0-0.8,0-1.5,0.3c-0.2,0.1-0.4,0.3-0.5,0.4V10.3h12.5v5.3h-2.5c-0.6,0-1,0.5-1,1v11.7c0,0.6,0.4,1,1,1c0.5,0,1-0.4,1-1V17.6
	h5.9v28.8H54.3z"/>
</svg>
