<?xml version="1.0" encoding="UTF-8"?>
<svg xmlns="http://www.w3.org/2000/svg" viewBox="0 0 72 72">
        <path d="M43.83,43.04h-3v-8.78c0-.83,.67-1.5,1.5-1.5h7.95l-14.07-14.11-14.07,14.11h7.88c.83,0,1.5,.67,1.5,1.5v8.78h-3v-7.28h-10c-.61,0-1.15-.37-1.39-.93s-.1-1.2,.32-1.63L35.15,15.47c.28-.28,.66-.44,1.06-.44h0c.4,0,.78,.16,1.06,.44l17.68,17.73c.43,.43,.56,1.07,.32,1.63s-.78,.93-1.39,.93h-10.06v7.28Z"/>
        <rect x="28.73" y="45.35" width="14.98" height="3"/>
        <rect x="28.73" y="51.05" width="14.98" height="2.19"/>
        <rect x="28.73" y="55.76" width="14.98" height="1.5"/>
    <path d="M35.94,64.53c-15.62,0-28.32-12.7-28.32-28.32S20.33,7.89,35.94,7.89s28.32,12.7,28.32,28.32-12.7,28.32-28.32,28.32Zm0-53.64c-13.96,0-25.32,11.36-25.32,25.32s11.36,25.32,25.32,25.32,25.32-11.36,25.32-25.32-11.36-25.32-25.32-25.32Z"/>
    <rect x=".36" y=".36" width="71.28" height="71.28" fill="none"/>
</svg>
