<?xml version="1.0" encoding="UTF-8"?>
<svg xmlns="http://www.w3.org/2000/svg" viewBox="0 0 72 72">
    <rect x="38.39" y="35.23" width="15.77" height="2.59" />
    <polyline points="38.39 29.06 54.17 29.06 54.17 31.65 38.39 31.65" />
    <rect x="38.39" y="41.42" width="15.77" height="2.59" />
    <rect x="38.39" y="47.61" width="15.77" height="2.59" />
    <polygon points="38.39 25.65 38.39 23.06 54.17 23.06 54.17 25.65 38.39 25.65 38.39 25.65" />
    <polygon points="38.39 19.49 38.39 16.9 54.17 16.9 54.17 19.48 38.39 19.48 38.39 19.49" />
    <polygon points="19.64 25.65 19.64 23.06 31.42 23.06 31.42 25.65 19.64 25.65 19.64 25.65" />
    <polygon points="19.64 19.49 19.64 16.9 31.42 16.9 31.42 19.48 19.64 19.48 19.64 19.49" />
    <path d="M57.72,64.8H14.06c-2.41,0-4.36-1.96-4.36-4.37V11.76c0-2.41,1.96-4.37,4.36-4.37H57.72c2.41,0,4.36,1.96,4.36,4.37V60.43c0,2.41-1.96,4.37-4.36,4.37ZM14.06,10.89c-.48,0-.86,.39-.86,.87V60.43c0,.48,.39,.87,.86,.87H57.72c.48,0,.86-.39,.86-.87V11.76c0-.48-.39-.87-.86-.87H14.06Z" />
    <path d="M35.33,54.52l-4.14-8.88c1.77-1.53,2.9-3.79,2.9-6.32,0-4.6-3.75-8.35-8.35-8.35s-8.35,3.75-8.35,8.35c0,2.34,.98,4.46,2.54,5.98l-4.08,9.19c-.09,.2-.04,.43,.12,.57,.16,.15,.39,.17,.58,.07l3.89-2.15,.94,4.31c.05,.21,.22,.37,.44,.39,.02,0,.03,0,.05,0,.2,0,.38-.11,.46-.29l3.27-7.3,3.25,7.3c.08,.18,.26,.3,.46,.3,.02,0,.03,0,.05,0,.21-.02,.39-.18,.44-.39l.99-4.33,3.84,2.18c.19,.11,.42,.08,.58-.06s.21-.38,.12-.57Zm-16.06-15.2c0-3.57,2.9-6.47,6.47-6.47s6.47,2.9,6.47,6.47-2.9,6.47-6.47,6.47-6.47-2.9-6.47-6.47Z" />
    <rect x=".36" y=".36" width="71.28" height="71.28" fill="none"/>
</svg>