<?xml version="1.0" encoding="utf-8"?>
<svg version="1.1" xmlns="http://www.w3.org/2000/svg" viewBox="0 0 72 72">
    <style type="text/css">
	    .st0{fill:none;}
    </style>
	<polygon points="34.6,43.7 28.6,37.7 30.7,35.5 34.6,39.4 42.7,31.3 44.8,33.4"/>
	<path d="M35.8,55.6c-0.2,0-0.4-0.1-0.6-0.2c-0.1-0.1-0.3-0.1-0.5-0.3c-7.4-4.1-11.3-7.2-12-10c-0.4-1.5-0.7-3.4-1.1-6.1l-1.2-11.8
		c-0.1-0.6,0.3-1.2,0.9-1.3l14.1-4.3c0.2-0.1,0.5-0.1,0.7,0L50.3,26c0.6,0.2,0.9,0.7,0.9,1.3L50,39.1c-0.3,2.8-0.7,4.6-1.1,6.1
		c-0.7,2.8-4.6,5.9-12,10c-0.2,0.1-0.4,0.2-0.5,0.3C36.2,55.6,36,55.6,35.8,55.6z M23,28.1l1.1,10.8c0.3,2.5,0.6,4.3,1,5.7
		c0.3,1.1,2.1,3.7,10.7,8.4c8.6-4.7,10.4-7.3,10.7-8.4c0.4-1.3,0.7-3.1,1-5.7l1.1-10.7l-12.8-3.9L23,28.1z"/>
    <path d="M63,10.3H8.9c-0.7,0-1.2,0.6-1.2,1.2v48c0,0.7,0.6,1.2,1.2,1.2H63c0.7,0,1.2-0.6,1.2-1.2v-48C64.2,10.8,63.6,10.3,63,10.3z
	 M61.7,12.8v4.8H10.1v-4.8H61.7z M10.1,58.3V19.1h51.6v39.1H10.1z"/>
    <circle cx="13" cy="15.3" r="1.2"/>
    <circle cx="16.6" cy="15.3" r="1.2"/>
    <circle cx="20.3" cy="15.3" r="1.2"/>
    <rect x="0.4" y="0.4" class="st0" width="71.3" height="71.3"/>
</svg>
