<?xml version="1.0" encoding="UTF-8"?>
<svg xmlns="http://www.w3.org/2000/svg" viewBox="0 0 72 72">
        <path d="M46.38,45.62h-4v-12.04c0-1.1,.9-2,2-2h11.04L35.98,12.09,16.54,31.58h10.95c1.1,0,2,.9,2,2v12.04h-4v-10.04H11.72c-.81,0-1.54-.49-1.85-1.23-.31-.75-.14-1.61,.43-2.18L34.57,7.85c.75-.75,2.08-.75,2.83,0l24.26,24.32c.57,.57,.74,1.43,.43,2.18-.31,.75-1.04,1.23-1.85,1.23h-13.86v10.04Z"/>
        <rect x="25.72" y="48.85" width="20.54" height="4"/>
        <rect x="25.72" y="56.6" width="20.54" height="3"/>
        <rect x="25.72" y="63.1" width="20.54" height="2"/>
    <rect x=".36" y=".36" width="71.28" height="71.28" fill="none"/>
</svg>
