<?xml version="1.0" encoding="UTF-8"?>
<svg xmlns="http://www.w3.org/2000/svg" viewBox="0 0 72 72">
    <path d="M44.68,37.94c-1.67,2.76-3.51,5.01-5.52,6.77-2.01,1.76-3.75,2.63-5.23,2.63-2.03,0-3.04-1.64-3.04-4.91,0-4.5,1.48-8.41,4.43-11.7,2.96-3.3,6.46-4.95,10.5-4.95,1.54,0,2.85,.19,3.93,.58-.07,.27-.12,.43-.13,.49l-.27,1.18c-.18,.81-.27,1.29-.29,1.42l-1.42,9.81-.2,1.42c-.19,1.41-.29,2.35-.29,2.82,0,.64,.18,.95,.55,.95,1.24,0,2.51-1.39,3.81-4.16,.4,.24,.6,.47,.6,.71,0,.52-.64,1.56-1.91,3.13-1.73,2.13-3.34,3.2-4.82,3.2-1.08,0-1.62-.73-1.62-2.18,0-.44,.05-1.06,.16-1.85l.22-1.78,.29-1.96,.25-1.65v.03Zm1.27-8.81c-1.35-.75-2.71-1.13-4.09-1.13-2.08,0-3.82,1.27-5.23,3.8-1.41,2.53-2.11,5.67-2.11,9.41,0,1.92,.57,2.89,1.71,2.89,1.32,0,2.91-1.01,4.78-3.02,2.52-2.71,4.05-5.89,4.58-9.55,0,0,.36-2.4,.36-2.4Z"/>
      <path d="M62.53,38.61l-1.77-1.77,.88-.88-.88-.88,1.77-1.77,1.77,1.77c.23,.23,.37,.55,.37,.88s-.13,.65-.37,.88l-1.77,1.77Z"/>
      <path d="M40.73,60.4l-1.77-1.77,3.41-3.41,1.77,1.77-3.41,3.41Zm5.45-5.45l-1.77-1.77,3.41-3.41,1.77,1.77-3.41,3.41Zm5.45-5.45l-1.77-1.77,3.41-3.41,1.77,1.77-3.41,3.41Zm5.45-5.45l-1.77-1.77,3.41-3.41,1.77,1.77-3.41,3.41Z"/>
      <path d="M36.04,64.58c-.33,0-.65-.13-.88-.37l-1.77-1.77,1.77-1.77,.88,.88,.88-.88,1.77,1.77-1.77,1.77c-.23,.23-.55,.37-.88,.37Z"/>
      <path d="M31.35,60.4l-3.41-3.41,1.77-1.77,3.41,3.41-1.77,1.77Zm-5.45-5.45l-3.41-3.41,1.77-1.77,3.41,3.41-1.77,1.77Zm-5.45-5.45l-3.41-3.41,1.77-1.77,3.41,3.41-1.77,1.77Zm-5.45-5.45l-3.41-3.41,1.77-1.77,3.41,3.41-1.77,1.77Z"/>
      <path d="M9.55,38.61l-1.77-1.77c-.49-.49-.49-1.28,0-1.77l1.77-1.77,1.77,1.77-.88,.88,.88,.88-1.77,1.77Z"/>
      <path d="M13.36,33.03l-1.77-1.77,3.41-3.41,1.77,1.77-3.41,3.41Zm5.45-5.45l-1.77-1.77,3.41-3.41,1.77,1.77-3.41,3.41Zm5.45-5.45l-1.77-1.77,3.41-3.41,1.77,1.77-3.41,3.41Zm5.45-5.45l-1.77-1.77,3.41-3.41,1.77,1.77-3.41,3.41Z"/>
      <path d="M36.92,11.24l-.88-.88-.88,.88-1.77-1.77,1.77-1.77c.49-.49,1.28-.49,1.77,0l1.77,1.77-1.77,1.77Z"/>
      <path d="M58.72,33.03l-3.41-3.41,1.77-1.77,3.41,3.41-1.77,1.77Zm-5.45-5.45l-3.41-3.41,1.77-1.77,3.41,3.41-1.77,1.77Zm-5.45-5.45l-3.41-3.41,1.77-1.77,3.41,3.41-1.77,1.77Zm-5.45-5.45l-3.41-3.41,1.77-1.77,3.41,3.41-1.77,1.77Z"/>
    <rect x=".36" y=".36" width="71.28" height="71.28" fill="none"/>
</svg>