<?xml version="1.0" encoding="utf-8"?>
<!-- Generator: Adobe Illustrator 26.5.3, SVG Export Plug-In . SVG Version: 6.00 Build 0)  -->
<svg version="1.1" id="Layer_1" xmlns="http://www.w3.org/2000/svg" xmlns:xlink="http://www.w3.org/1999/xlink" x="0px" y="0px"
	 viewBox="0 0 72 72" style="enable-background:new 0 0 72 72;" xml:space="preserve">
<path d="M36.3,62.6c0,0,0,0.3,0.2,0.7c0.3,0.4,0.8,0.5,1.3,0.5h20.9c0.5,0,0.9-0.2,1.3-0.5c0.3-0.3,0.5-0.8,0.5-1.3
	c0-1-0.1-4.4-0.2-5l0-0.1c-0.1-0.5-0.4-1.8-1.7-2.5c-1-0.7-2-1.3-3.2-1.8c-0.7-0.3-1.4-0.6-1.9-0.9c-0.1-0.4-0.3-1-0.3-1.3
	c0.1-0.2,0.3-0.5,0.7-1.3h7.5c1,0,1.8-0.8,1.8-1.8V16.7c0.1-0.5-0.1-0.9-0.4-1.2c-0.3-0.4-0.8-0.6-1.3-0.6h-2.6V9.3
	c0-1-0.8-1.8-1.8-1.8H42.6c-1,0-1.8,0.8-1.8,1.8V27h-1.6v-9.2c0-1-0.8-1.8-1.8-1.8h-9c-1,0-1.8,0.8-1.8,1.8v3.3h-4.9v-2.4
	c0-0.3-0.1-0.8-0.4-1.1l-4.7-5.8c-0.3-0.4-0.9-0.7-1.4-0.7c-0.6,0-1.1,0.2-1.4,0.7l-4.6,5.8l-0.1,0.1l0,0.1c-0.1,0.3-0.3,0.6-0.3,1
	v28.7c0,1,0.8,1.8,1.8,1.8h7.2c0.1,0.1,0.1,0.2,0.2,0.3c0.2,0.2,0.5,0.6,0.6,0.9c0,0.4-0.2,1.1-0.3,1.5c-0.2,0.1-0.5,0.3-0.9,0.4
	c-0.3,0.1-0.6,0.3-0.9,0.4l-0.4,0.2c-0.9,0.4-1.9,0.8-3,1.5c-1.4,0.8-1.7,2-1.8,2.5l0,0.1c-0.1,0.5-0.2,4-0.2,5
	c0,0.5,0.2,0.9,0.5,1.3c0.3,0.3,0.8,0.5,1.3,0.5h20.8c0.5,0,0.9-0.1,1.3-0.5c0.2-0.2,0.2-0.6,0.2-0.6l0-0.6c0-1.3-0.1-4.4-0.2-4.8
	c-0.1-0.4-0.2-1.5-1.4-2.1c-1.1-0.6-2.2-1.1-3.1-1.5c-0.9-0.4-1.8-0.8-2.2-1.1C28.3,52,28,50.8,28,50.5c0-0.1,0.2-0.5,1.2-2.1
	l0.1-0.1c0.3-0.5,0.8-1.5,0.8-2.5c0-0.6-0.1-0.8-0.2-1.1c0-0.1,0-0.1-0.1-0.2c0-0.3-0.1-0.5-0.1-0.6c-0.1-0.3-0.1-0.6-0.2-2
	c0-0.4-0.1-0.7-0.3-1.1c0-0.1,0-0.1,0-0.2V18.8h7v9h-1.6c-0.5,0-1,0.5-1,1v18.6c0,0.5,0.5,1,1,1h7.8c0,0.1,0.1,0.1,0.2,0.2
	c0.2,0.3,1,1.3,1.1,1.6c0,0.4-0.3,1.8-0.5,2.2c-0.4,0.3-1.2,0.6-2,1c-0.9,0.4-2.1,0.9-3.3,1.6c-1.2,0.7-1.3,1.6-1.4,2.2
	c-0.1,0.4-0.2,3.5-0.2,4.8L36.3,62.6z M60.4,46.4h-6.1c0.1-0.2,0.1-0.5,0.1-0.7c0-0.6-0.1-0.8-0.2-1.1c0-0.1-0.1-0.1-0.1-0.2
	c0-0.3-0.1-0.5-0.1-0.6c-0.1-0.3-0.1-0.6-0.2-2c0-0.9-0.6-1.9-1.7-2.7c-1-0.8-2.8-1.7-4.4-1.3c-1.4,0.3-1.9,0.3-2.2,0.2
	c-0.5,0-0.8,0-1.5,0.3c-0.2,0.1-0.4,0.3-0.5,0.4V10.3H56v5.3h-2.5c-0.6,0-1,0.5-1,1v11.7c0,0.6,0.4,1,1,1c0.5,0,1-0.4,1-1V17.6h5.9
	V46.4z M57.6,57.4c0,0.2,0.1,1.8,0.1,3.5H38.4c0-1.7,0.1-3.3,0.1-3.5v-0.1c0-0.3,0.1-0.4,0.4-0.6c1.1-0.6,2.2-1.1,3.1-1.5
	c1-0.5,1.9-0.8,2.5-1.3c0.8-0.6,1.2-3.2,1.2-3.9c-0.1-0.6-0.5-1.4-1.5-2.6c-0.1-0.1-0.2-0.2-0.2-0.3c-0.1-0.2-0.5-0.7-0.5-1.1
	c0-0.2,0-0.3,0-0.4c0.1-0.2,0.1-0.5,0.1-1v-0.2c0-0.7,0-1.2,0.4-3c0.1-0.5,0.6-1.2,1-1.4l0.1-0.1c0.1,0,0.1,0,0.1,0
	c0.4,0,1.1,0.1,2.9-0.3c0.7-0.2,1.8,0.2,2.7,0.9c0.6,0.5,0.9,1,0.9,1.2c0,1.5,0.1,1.9,0.2,2.4c0,0.1,0.1,0.3,0.1,0.5
	c0,0.4,0.1,0.6,0.2,0.8c0,0,0,0,0,0.2c0.2,0.6-0.1,1.2-0.2,1.5l-0.1,0.1c-1.1,1.6-1.5,2.5-1.5,3.1c0,0.4,0.3,2.9,1.2,3.6
	c0.6,0.5,1.5,0.9,2.7,1.4c0.9,0.4,1.9,0.8,2.9,1.4C57.5,56.9,57.5,57,57.6,57.4z M41.4,29.8v13.8c0,0.2,0.1,0.3,0.1,0.5
	c0.2,0.1,0.2,0.2,0.2,0.4v0.1c0,0.3,0,0.4-0.1,0.6c0,0.2-0.1,0.4-0.1,0.8c0,0.2,0,0.3,0,0.4h-5.9V29.8H41.4z M27.4,53.9
	c0.6,0.5,1.5,0.9,2.7,1.4c0.9,0.4,1.9,0.8,2.9,1.4c0.3,0.2,0.3,0.3,0.4,0.7c0,0.2,0.1,1.8,0.1,3.5H14.2c0-1.7,0.1-3.3,0.1-3.5v-0.1
	c0-0.3,0.1-0.4,0.4-0.6c1.1-0.6,2.2-1.1,3.1-1.5c1-0.5,1.9-0.8,2.5-1.3c0.8-0.6,1.2-3.2,1.2-3.9c0-0.6-0.5-1.4-1.5-2.6
	c-0.1-0.1-0.2-0.2-0.2-0.3c-0.1-0.2-0.5-0.7-0.5-1.1c0-0.2,0-0.3,0-0.4c0.1-0.2,0.1-0.5,0.1-1v-0.2c0-0.7,0-1.2,0.4-3
	c0.1-0.5,0.6-1.2,1-1.4l0.1-0.1c0.1,0,0.1,0,0.1,0c0.4,0,1.1,0.1,2.9-0.3c0.7-0.2,1.8,0.2,2.7,0.9c0.6,0.5,0.9,1,0.9,1.2
	c0,1.5,0.1,1.9,0.2,2.4c0,0.1,0.1,0.3,0.1,0.5c0.1,0.4,0.1,0.6,0.2,0.8c0,0,0,0,0,0.2c0.2,0.6-0.1,1.2-0.2,1.5l-0.1,0.1
	c-1.1,1.6-1.5,2.5-1.5,3.1C26.2,50.7,26.5,53.2,27.4,53.9z M17.4,44.5v0.2c0,0.3,0,0.4,0,0.6s-0.1,0.4-0.1,0.8c0,0.2,0,0.3,0,0.4
	h-5.8V19h0.1l3.6-4.5l3.6,4.5v19.8c0,0.1,0,0.3,0.1,0.4c-0.4,0.5-0.8,1.2-1,1.8C17.4,43,17.4,43.7,17.4,44.5z M27.4,38.6
	c-1.1-0.7-2.5-1.2-3.8-0.9c-1.4,0.3-1.9,0.3-2.2,0.2c-0.2,0-0.3,0-0.5,0v-14h6.4L27.4,38.6z"/>
</svg>
