<?xml version="1.0" encoding="UTF-8"?>
<svg xmlns="http://www.w3.org/2000/svg" viewBox="0 0 72 72">
    <path d="M53.69,24.52L37.4,8.24c-.78-.78-2.05-.78-2.83,0L18.28,24.52c-.78,.78-.78,2.05,0,2.83,.78,.78,2.05,.78,2.83,0l12.87-12.87V50.61c0,1.1,.9,2,2,2s2-.9,2-2V14.48l12.87,12.87c.39,.39,.9,.59,1.41,.59s1.02-.2,1.41-.59c.78-.78,.78-2.05,0-2.83Z" />
    <path d="M60.54,64.86H11.69c-2.57,0-4.67-2.09-4.67-4.66v-15.38h4v15.38c0,.37,.3,.66,.67,.66H60.54c.37,0,.67-.3,.67-.66v-15.38h4v15.38c0,2.57-2.09,4.66-4.67,4.66Z" />
    <rect x=".36" y=".36" width="71.28" height="71.28" fill="none"/>
</svg>