<?xml version="1.0" encoding="UTF-8"?>
<svg xmlns="http://www.w3.org/2000/svg" viewBox="0 0 72 72">
      <path d="M39.77,38.3c-1.67,2.76-3.51,5.01-5.52,6.77-2.01,1.76-3.75,2.63-5.23,2.63-2.03,0-3.04-1.64-3.04-4.91,0-4.5,1.48-8.41,4.43-11.7,2.96-3.3,6.46-4.95,10.5-4.95,1.54,0,2.85,.19,3.93,.58-.07,.27-.12,.43-.13,.49l-.27,1.18c-.18,.81-.27,1.29-.29,1.42l-1.42,9.81-.2,1.42c-.19,1.41-.29,2.35-.29,2.82,0,.64,.18,.95,.55,.95,1.24,0,2.51-1.39,3.81-4.16,.4,.24,.6,.47,.6,.71,0,.52-.64,1.56-1.91,3.13-1.73,2.13-3.34,3.2-4.82,3.2-1.08,0-1.62-.73-1.62-2.18,0-.44,.05-1.06,.16-1.85l.22-1.78,.29-1.96,.25-1.65v.03Zm1.27-8.81c-1.35-.75-2.71-1.13-4.09-1.13-2.08,0-3.82,1.27-5.23,3.8-1.41,2.53-2.11,5.67-2.11,9.41,0,1.92,.57,2.89,1.71,2.89,1.32,0,2.91-1.01,4.78-3.02,2.52-2.71,4.05-5.89,4.58-9.55,0,0,.36-2.4,.36-2.4Z"/>
      <rect x="56.95" y="26.45" width="2" height="3.83" transform="translate(-3.09 49.29) rotate(-45)"/>
      <rect x="51.88" y="21.38" width="2" height="3.83" transform="translate(-.98 44.21) rotate(-45)"/>
      <rect x="46.8" y="16.3" width="2" height="3.83" transform="translate(1.12 39.14) rotate(-45)"/>
      <rect x="56.03" y="44.91" width="3.83" height="2" transform="translate(-15.49 54.42) rotate(-45)"/>
      <rect x="50.96" y="49.98" width="3.83" height="2" transform="translate(-20.57 52.32) rotate(-45)"/>
      <polygon points="62.38 31.38 60.97 32.8 65.31 37.14 60.96 41.48 62.37 42.9 68.12 37.14 62.38 31.38"/>
      <rect x="45.88" y="55.06" width="3.83" height="2" transform="translate(-25.64 50.22) rotate(-45)"/>
      <rect x="21.55" y="27.37" width="3.83" height="2" transform="translate(-13.19 24.9) rotate(-45)"/>
      <rect x="26.62" y="22.3" width="3.83" height="2" transform="translate(-8.11 27) rotate(-45)"/>
      <rect x="31.7" y="17.22" width="3.83" height="2" transform="translate(-3.04 29.1) rotate(-45)"/>
      <path d="M59.6,36.39c0-.47-.19-.93-.52-1.26L38.6,14.65l2.11-2.11,2.67,2.67,1.41-1.41-4.06-4.06-.02,.02-.02-.02-3.51,3.51-3.54-3.54c-.67-.67-1.85-.67-2.52,0L5.52,35.29c-.7,.7-.7,1.82,0,2.52l25.44,25.44c.35,.35,.8,.52,1.26,.52s.91-.17,1.26-.52l2.96-2.96,4.26,4.26h.01s.01,0,.01,0l4.06-4.06-1.41-1.41-2.66,2.66-2.85-2.85,21.22-21.22c.33-.33,.52-.79,.52-1.26Zm-27.38,24.07h0S8.3,36.55,8.3,36.55L32.38,12.46l23.92,23.92-24.08,24.08Z"/>
      <rect x="22.22" y="43.74" width="2" height="3.83" transform="translate(-25.48 29.79) rotate(-45)"/>
      <rect x="27.05" y="48.57" width="2" height="3.83" transform="translate(-27.48 34.62) rotate(-45)"/>
      <polygon points="19.04 31.38 20.45 32.8 16.11 37.14 20.46 41.48 19.04 42.9 13.29 37.14 19.04 31.38"/>
      <rect x="31.87" y="53.39" width="2" height="3.83" transform="translate(-29.48 39.44) rotate(-45)"/>
	 <rect x=".36" y=".36" width="71.28" height="71.28" fill="none"/>
</svg>