<?xml version="1.0" encoding="UTF-8"?>
<svg xmlns="http://www.w3.org/2000/svg" viewBox="0 0 72 72">
    <path d="M50.98,65.52h-9.57v-3h9.57c.65,0,1.18-.53,1.18-1.19V10.52c0-.65-.53-1.19-1.18-1.19H20.59c-.65,0-1.18,.53-1.18,1.19V61.33c0,.65,.53,1.19,1.18,1.19h9.18v3h-9.18c-2.31,0-4.18-1.88-4.18-4.19V10.52c0-2.31,1.88-4.19,4.18-4.19h30.4c2.31,0,4.18,1.88,4.18,4.19V61.33c0,2.31-1.88,4.19-4.18,4.19Z"/>
    <path d="M40.88,17.69h-10.19c-.55,0-1-.45-1-1s.45-1,1-1h10.19c.55,0,1,.45,1,1s-.45,1-1,1Z"/>
    <path d="M40.88,24.76h-10.19c-.55,0-1-.45-1-1s.45-1,1-1h10.19c.55,0,1,.45,1,1s-.45,1-1,1Z"/>
    <polygon points="34.89 50.98 29.99 46.08 31.76 44.31 34.89 47.44 41.46 40.87 43.22 42.64 34.89 50.98"/>
    <path d="M35.9,60.58c-.17,0-.34-.04-.49-.13l-.37-.2c-5.96-3.24-9.14-5.89-9.74-8.11-.32-1.2-.59-2.72-.85-4.91l-1-9.56c-.05-.48,.25-.92,.7-1.06l11.46-3.49c.19-.06,.39-.06,.58,0l11.46,3.49c.46,.14,.75,.58,.7,1.06l-1,9.55c-.27,2.21-.53,3.73-.85,4.93-.6,2.22-3.78,4.87-9.74,8.11l-.37,.2c-.15,.09-.32,.13-.49,.13Zm-10.38-22.31l.91,8.73c.25,2.08,.5,3.51,.79,4.62,.25,.92,1.7,3.02,8.67,6.82,6.97-3.8,8.42-5.9,8.67-6.82,.3-1.11,.54-2.54,.8-4.63l.91-8.71-10.38-3.16-10.38,3.16Z"/>
    <rect x=".36" y=".36" width="71.28" height="71.28" fill="none"/>
</svg>