<?xml version="1.0" encoding="UTF-8"?>
<svg xmlns="http://www.w3.org/2000/svg" viewBox="0 0 72 72">
  <g id="a" data-name="SVG icons">
    <g id="f" data-name="Layer 7">
      <path d="M40.02,37.8c-1.67,2.76-3.51,5.01-5.52,6.77-2.01,1.76-3.75,2.63-5.23,2.63-2.03,0-3.04-1.64-3.04-4.91,0-4.5,1.48-8.41,4.43-11.7,2.96-3.3,6.46-4.95,10.5-4.95,1.54,0,2.85,.19,3.93,.58-.07,.27-.12,.43-.13,.49l-.27,1.18c-.18,.81-.27,1.29-.29,1.42l-1.42,9.81-.2,1.42c-.19,1.41-.29,2.35-.29,2.82,0,.64,.18,.95,.55,.95,1.24,0,2.51-1.39,3.81-4.16,.4,.24,.6,.47,.6,.71,0,.52-.64,1.56-1.91,3.13-1.73,2.13-3.34,3.2-4.82,3.2-1.08,0-1.62-.73-1.62-2.18,0-.44,.05-1.06,.16-1.85l.22-1.78,.29-1.96,.25-1.65v.03Zm1.27-8.81c-1.35-.75-2.71-1.13-4.09-1.13-2.08,0-3.82,1.27-5.23,3.8-1.41,2.53-2.11,5.67-2.11,9.41,0,1.92,.57,2.89,1.71,2.89,1.32,0,2.91-1.01,4.78-3.02,2.52-2.71,4.05-5.89,4.58-9.55,0,0,.36-2.4,.36-2.4Z"/>
      <path d="M59.33,37.15c.33-.33,.52-.79,.52-1.26s-.19-.93-.52-1.26L33.89,9.19c-.67-.67-1.85-.67-2.52,0L5.77,34.79c-.7,.7-.7,1.82,0,2.52l25.44,25.44c.35,.35,.8,.52,1.26,.52s.91-.17,1.26-.52l25.6-25.6Zm-26.86,22.81h0S8.55,36.05,8.55,36.05L32.63,11.96l23.92,23.92-24.08,24.08Z"/>
      <g>
        <rect x="54.77" y="43.93" width="2.8" height="2.08" transform="translate(-15.35 52.89) rotate(-45)"/>
        <rect x="50.96" y="47.73" width="2.8" height="2.08" transform="translate(-19.15 51.31) rotate(-45)"/>
        <rect x="58.58" y="40.12" width="2.8" height="2.08" transform="translate(-11.54 54.47) rotate(-45)"/>
        <rect x="58.97" y="29.25" width="2.07" height="2.8" transform="translate(-4.1 51.41) rotate(-45)"/>
        <rect x="47.16" y="51.54" width="2.8" height="2.08" transform="translate(-22.96 49.74) rotate(-45)"/>
        <rect x="55.17" y="25.44" width="2.07" height="2.8" transform="translate(-2.52 47.6) rotate(-45)"/>
        <rect x="43.35" y="55.35" width="2.8" height="2.08" transform="translate(-26.77 48.16) rotate(-45)"/>
        <rect x="51.36" y="21.63" width="2.07" height="2.8" transform="translate(-.94 43.8) rotate(-45)"/>
        <path d="M34.33,17.5l5.53-5.53,1.37,1.37,1.46-1.46-1.63-1.63c-.64-.64-1.78-.64-2.42,0l-5.78,5.78,1.47,1.47Z"/>
        <rect x="47.55" y="17.83" width="2.07" height="2.8" transform="translate(.63 39.99) rotate(-45)"/>
        <rect x="43.75" y="14.02" width="2.07" height="2.8" transform="translate(2.21 36.18) rotate(-45)"/>
        <path d="M65.51,34.69l-1.95-1.95-1.46,1.46,1.69,1.69-1.73,1.73,1.47,1.47,1.98-1.98c.32-.32,.5-.76,.5-1.21s-.18-.89-.5-1.21Z"/>
        <rect x="22" y="43.38" width="2.07" height="2.8" transform="translate(-24.91 29.41) rotate(-45)"/>
        <rect x="29.62" y="50.99" width="2.07" height="2.8" transform="translate(-28.07 37.02) rotate(-45)"/>
        <rect x="25.81" y="47.18" width="2.07" height="2.8" transform="translate(-26.49 33.21) rotate(-45)"/>
        <path d="M41.2,58.47l-1.5,1.5h0s-5.5-5.49-5.5-5.49l-1.47,1.47,5.76,5.76c.34,.34,.77,.5,1.21,.5s.87-.16,1.21-.5l1.76-1.76-1.47-1.47Z"/>
        <rect x="29.38" y="18.54" width="2.8" height="2.07" transform="translate(-4.83 27.5) rotate(-45)"/>
        <path d="M17.15,37.42l-1.37-1.37,1.5-1.5-1.47-1.47-1.76,1.76c-.67,.67-.67,1.75,0,2.42l1.63,1.63,1.47-1.47Z"/>
        <rect x="25.58" y="22.35" width="2.8" height="2.07" transform="translate(-8.64 25.93) rotate(-45.01)"/>
        <rect x="18.2" y="39.57" width="2.07" height="2.8" transform="translate(-23.34 25.6) rotate(-45)"/>
        <rect x="21.77" y="26.16" width="2.8" height="2.08" transform="translate(-12.44 24.36) rotate(-45.01)"/>
        <rect x="17.96" y="29.96" width="2.8" height="2.08" transform="translate(-16.25 22.78) rotate(-45.01)"/>
      </g>
    </g>
  </g>
  <g id="g" data-name="Rectangles">
    <rect x=".36" y=".36" width="71.28" height="71.28" fill="none"/>
  </g>
</svg>