<?xml version="1.0" encoding="utf-8"?>
<svg version="1.1" xmlns="http://www.w3.org/2000/svg" viewBox="-755 343 72 72" xml:space="preserve">
	<path d="M-714.3,380.8c-1.7,2.8-3.5,5-5.5,6.8s-3.8,2.6-5.2,2.6c-2,0-3-1.6-3-4.9c0-4.5,1.5-8.4,4.4-11.7c3-3.3,6.5-5,10.5-5
		c1.5,0,2.9,0.2,3.9,0.6c-0.1,0.3-0.1,0.4-0.1,0.5l-0.3,1.2c-0.2,0.8-0.3,1.3-0.3,1.4l-1.4,9.8l-0.2,1.4c-0.2,1.4-0.3,2.4-0.3,2.8
		c0,0.6,0.2,0.9,0.5,0.9c1.2,0,2.5-1.4,3.8-4.2c0.4,0.2,0.6,0.5,0.6,0.7c0,0.5-0.6,1.6-1.9,3.1c-1.7,2.1-3.3,3.2-4.8,3.2
		c-1.1,0-1.6-0.7-1.6-2.2c0-0.4,0.1-1.1,0.2-1.9l0.2-1.8l0.3-2L-714.3,380.8L-714.3,380.8z M-713,372c-1.3-0.8-2.7-1.1-4.1-1.1
		c-2.1,0-3.8,1.3-5.2,3.8c-1.4,2.5-2.1,5.7-2.1,9.4c0,1.9,0.6,2.9,1.7,2.9c1.3,0,2.9-1,4.8-3c2.5-2.7,4.1-5.9,4.6-9.5
		C-713.4,374.4-713,372-713,372z"/>
		<rect x="-699.5" y="386.9" transform="matrix(0.7071 -0.7071 0.7071 0.7071 -478.8432 -380.0315)" width="2.8" height="2.1"/>
		<rect x="-703.4" y="390.7" transform="matrix(0.7071 -0.7071 0.7071 0.7071 -482.6498 -381.6082)" width="2.8" height="2.1"/>
		<rect x="-695.7" y="383.1" transform="matrix(0.7071 -0.7071 0.7071 0.7071 -475.0209 -378.4503)" width="2.8" height="2.1"/>
		<rect x="-695.3" y="372.3" transform="matrix(0.7071 -0.7071 0.7071 0.7071 -467.5779 -381.5088)" width="2.1" height="2.8"/>
		<rect x="-707.2" y="394.6" transform="matrix(0.7071 -0.7071 0.7071 0.7071 -486.4402 -383.1804)" width="2.8" height="2.1"/>
		<rect x="-699.2" y="368.5" transform="matrix(0.7071 -0.7071 0.7071 0.7071 -465.9895 -385.3116)" width="2.1" height="2.8"/>
		<rect x="-711" y="398.4" transform="matrix(0.7071 -0.7071 0.7071 0.7071 -490.2467 -384.757)" width="2.8" height="2.1"/>
		<rect x="-703" y="364.6" transform="matrix(0.7071 -0.7071 0.7071 0.7071 -464.4245 -389.1216)" width="2.1" height="2.8"/>
		<rect x="-706.8" y="360.8" transform="matrix(0.7071 -0.7071 0.7071 0.7071 -462.8478 -392.9281)" width="2.1" height="2.8"/>
		<rect x="-710.6" y="357" transform="matrix(0.7071 -0.7071 0.7071 0.7071 -461.2711 -396.7345)" width="2.1" height="2.8"/>
		<path d="M-688.8,377.7l-2-2l-1.5,1.5l1.7,1.7l-1.7,1.7l1.5,1.5l2-2c0.3-0.3,0.5-0.8,0.5-1.2C-688.3,378.5-688.5,378-688.8,377.7z"/>
		<rect x="-732.3" y="386.4" transform="matrix(0.7071 -0.7071 0.7071 0.7071 -488.3841 -403.5069)" width="2.1" height="2.8"/>
		<rect x="-724.7" y="394" transform="matrix(0.7071 -0.7071 0.7071 0.7071 -491.5618 -395.9013)" width="2.1" height="2.8"/>
		<rect x="-728.5" y="390.2" transform="matrix(0.7071 -0.7071 0.7071 0.7071 -489.973 -399.7042)" width="2.1" height="2.8"/>
		<path d="M-714.6,403L-714.6,403l-1.6-1.6l21.2-21.2c0.3-0.3,0.5-0.8,0.5-1.3c0-0.5-0.2-0.9-0.5-1.3l-21.1-21.1l1.6-1.6l1.4,1.4
			l1.5-1.5l-1.6-1.6c-0.6-0.6-1.8-0.6-2.4,0l-1.9,1.9l-2.9-2.9c-0.7-0.7-1.8-0.7-2.5,0l-25.6,25.6c-0.7,0.7-0.7,1.8,0,2.5l25.4,25.4
			c0.4,0.3,0.8,0.5,1.3,0.5s0.9-0.2,1.3-0.5l2.9-2.9l1.9,1.9c0.3,0.3,0.8,0.5,1.2,0.5s0.9-0.2,1.2-0.5l1.8-1.8l-1.5-1.5L-714.6,403z
			 M-721.9,403L-721.9,403l-23.9-23.9l24.1-24.1l2.2,2.2l-1.9,1.9l1.5,1.5l1.9-1.9l20.3,20.3l-20.5,20.5l-1.9-1.9l-1.5,1.5l1.9,1.9
			L-721.9,403z"/>
		<rect x="-724.9" y="361.6" transform="matrix(0.7071 -0.7071 0.7071 0.7071 -468.3112 -405.4153)" width="2.8" height="2.1"/>
		<path d="M-738.5,376.1l-1.8,1.8c-0.7,0.7-0.7,1.7,0,2.4l1.6,1.6l1.5-1.5l-1.4-1.4l1.5-1.5L-738.5,376.1z"/>
		<rect x="-728.7" y="365.4" transform="matrix(0.7071 -0.7071 0.7071 0.7071 -472.1178 -406.9915)" width="2.8" height="2.1"/>
		<rect x="-736.1" y="382.6" transform="matrix(0.7071 -0.7071 0.7071 0.7071 -486.8196 -407.317)" width="2.1" height="2.8"/>
		<rect x="-732.5" y="369.2" transform="matrix(0.7071 -0.7071 0.7071 0.7071 -475.9244 -408.5678)" width="2.8" height="2.1"/>
		<rect x="-736.4" y="373" transform="matrix(0.7071 -0.7071 0.7071 0.7071 -479.731 -410.1441)" width="2.8" height="2.1"/>
</svg>
