<?xml version="1.0" encoding="utf-8"?>
<!-- Generator: Adobe Illustrator 26.5.3, SVG Export Plug-In . SVG Version: 6.00 Build 0)  -->
<svg version="1.1" id="Layer_1" xmlns="http://www.w3.org/2000/svg" xmlns:xlink="http://www.w3.org/1999/xlink" x="0px" y="0px"
	 viewBox="0 0 72 72" style="enable-background:new 0 0 72 72;" xml:space="preserve">
<style type="text/css">
	.st0{fill:none;}
</style>
<path d="M51.2,65.5h-9.6v-3h9.6c0.7,0,1.2-0.5,1.2-1.2V10.5c0-0.6-0.5-1.2-1.2-1.2H20.8c-0.6,0-1.2,0.5-1.2,1.2v50.8
	c0,0.7,0.5,1.2,1.2,1.2H30v3h-9.2c-2.3,0-4.2-1.9-4.2-4.2V10.5c0-2.3,1.9-4.2,4.2-4.2h30.4c2.3,0,4.2,1.9,4.2,4.2v50.8
	C55.4,63.6,53.5,65.5,51.2,65.5L51.2,65.5z"/>
<path d="M41.1,17.7H30.9c-0.5,0-1-0.5-1-1s0.5-1,1-1h10.2c0.5,0,1,0.5,1,1S41.7,17.7,41.1,17.7z"/>
<path d="M41.1,24.8H30.9c-0.5,0-1-0.5-1-1s0.5-1,1-1h10.2c0.5,0,1,0.5,1,1S41.7,24.8,41.1,24.8z"/>
<polygon points="35.1,51 30.2,46.1 32,44.3 35.1,47.4 41.7,40.9 43.5,42.6 "/>
<path d="M36.2,60.6c-0.2,0-0.3,0-0.5-0.1l-0.4-0.2c-6-3.2-9.1-5.9-9.7-8.1c-0.3-1.2-0.6-2.7-0.9-4.9l-1-9.6c0-0.5,0.2-0.9,0.7-1.1
	l11.5-3.5c0.2-0.1,0.4-0.1,0.6,0L48,36.6c0.5,0.1,0.8,0.6,0.7,1.1l-1,9.5c-0.3,2.2-0.5,3.7-0.8,4.9C46.2,54.4,43,57,37,60.3
	l-0.4,0.2C36.5,60.5,36.3,60.6,36.2,60.6L36.2,60.6z M25.8,38.3l0.9,8.7c0.2,2.1,0.5,3.5,0.8,4.6c0.2,0.9,1.7,3,8.7,6.8
	c7-3.8,8.4-5.9,8.7-6.8c0.3-1.1,0.5-2.5,0.8-4.6l0.9-8.7l-10.4-3.2L25.8,38.3L25.8,38.3z"/>
<rect x="0.4" y="0.4" class="st0" width="71.3" height="71.3"/>
</svg>
