<?xml version="1.0" encoding="UTF-8"?>
<svg xmlns="http://www.w3.org/2000/svg" viewBox="0 0 72 72">
    <rect x="34.68" y="12.05" width="6.21" height="1.02" />
    <path d="M30.85,29.8h-10.81s0,0,0,0c-.06,0-.12,.04-.14,.1s-.01,.12,.03,.17l3.34,3.33-7.07,7.07-3.32-3.32s-.07-.05-.11-.05c-.02,0-.04,0-.06,.01-.06,.02-.1,.08-.1,.14v10.8c0,.09,.06,.15,.15,.15h10.81s0,0,0,0c.06,0,.12-.04,.14-.1,.02-.06,.01-.12-.03-.17l-3.35-3.35,7.07-7.07,3.32,3.34s.07,.05,.11,.05c.02,0,.04,0,.06-.01,.06-.02,.1-.08,.1-.14v-10.8c0-.09-.06-.15-.15-.15Z" />
    <path d="M38.85,21.68H12.79c-.11,0-.2,.09-.2,.2v9.84c0,.05,.02,.1,.06,.14l1.35,1.35s.09,.06,.14,.06c.03,0,.05,0,.08-.02,.07-.03,.12-.1,.12-.18v-9.69h22.97v23h-9.66c-.08,0-.15,.05-.18,.12-.03,.07-.01,.16,.04,.22l1.38,1.38s.09,.06,.14,.06h9.81c.11,0,.2-.09,.2-.2V21.88c0-.11-.09-.2-.2-.2Z" />
    <path d="M46.89,6.05H28.68c-4.76,0-8.63,3.87-8.63,8.63v4.46h3v-4.46c0-3.1,2.53-5.63,5.63-5.63h18.21c3.1,0,5.63,2.53,5.63,5.63V56.18c0,3.1-2.53,5.63-5.63,5.63H28.68c-3.1,0-5.63-2.53-5.63-5.63v-5.44h-3v5.44c0,4.76,3.87,8.63,8.63,8.63h18.21c4.76,0,8.63-3.87,8.63-8.63V14.68c0-4.76-3.87-8.63-8.63-8.63Z" />
    <path d="M49.8,15.41H25.77c-.28,0-.5,.22-.5,.5v3.23h1v-2.73h23.04V53.97H26.27v-3.23h-1v3.73c0,.28,.22,.5,.5,.5h24.04c.28,0,.5-.22,.5-.5V15.91c0-.28-.22-.5-.5-.5Z" />
    <rect x=".36" y=".36" width="71.28" height="71.28" fill="none"/>
</svg>