<?xml version="1.0" encoding="UTF-8"?>
<svg xmlns="http://www.w3.org/2000/svg" viewBox="0 0 72 72">
    <path d="m63.05,10.3H8.99c-.69,0-1.25.56-1.25,1.25v47.98c0,.69.56,1.25,1.25,1.25h54.06c.69,0,1.25-.56,1.25-1.25V11.55c0-.69-.56-1.25-1.25-1.25Zm-1.25,2.5v5.56H10.24v-5.56h51.56ZM10.24,58.28V20.36h51.56v37.92H10.24Z" />
    <circle cx="13.07" cy="15.53" r="1.16" />
    <circle cx="17.23" cy="15.53" r="1.16" />
    <circle cx="21.4" cy="15.53" r="1.16" />
    <path d="m35.9,26.44c-.51,0-1.03.04-1.54.09l2.43-2.43c.49-.49.49-1.28,0-1.77s-1.28-.49-1.77,0l-4.78,4.78c-.49.49-.49,1.28,0,1.77l4.85,4.85c.24.24.56.37.88.37s.64-.12.88-.37c.49-.49.49-1.28,0-1.77l-2.84-2.84c.62-.1,1.24-.17,1.88-.17,6.31,0,11.44,5.11,11.44,11.38s-5.14,11.38-11.46,11.38-11.46-5.11-11.46-11.38c0-2.4.75-4.71,2.15-6.63l8.42,8.42c.49.49,1.28.49,1.77,0,.49-.49.49-1.28,0-1.77l-9.39-9.39c-.24-.24-.56-.37-.91-.37-.34,0-.66.15-.89.41-2.34,2.56-3.63,5.88-3.63,9.34,0,7.65,6.26,13.88,13.96,13.88s13.96-6.23,13.96-13.88-6.25-13.88-13.94-13.88Z" />
    <rect x=".36" y=".36" width="71.28" height="71.28" fill="none" />
</svg>