<?xml version="1.0" encoding="UTF-8"?>
<svg id="Layer_1" xmlns="http://www.w3.org/2000/svg" version="1.1" viewBox="0 0 72 72">
  <!-- Generator: Adobe Illustrator 29.0.1, SVG Export Plug-In . SVG Version: 2.1.0 Build 192)  -->
  <path d="M47.1,28h-5.5c-.2,0-.5-.2-.5-.5v-5.5c0-.2.2-.5.5-.5h5.5c.2,0,.5.2.5.5v5.5c0,.2-.2.5-.5.5ZM42.1,27.1h4.6v-4.6h-4.6v4.6Z"/>
  <path d="M55.4,28h-5.5c-.2,0-.5-.2-.5-.5v-5.5c0-.2.2-.5.5-.5h5.5c.2,0,.5.2.5.5v5.5c0,.2-.2.5-.5.5ZM50.3,27.1h4.6v-4.6h-4.6v4.6Z"/>
  <path d="M47.1,36h-5.5c-.2,0-.5-.2-.5-.5v-5.5c0-.2.2-.5.5-.5h5.5c.2,0,.5.2.5.5v5.5c0,.2-.2.5-.5.5ZM42.1,35.1h4.6v-4.6h-4.6v4.6Z"/>
  <path d="M55.4,36h-5.5c-.2,0-.5-.2-.5-.5v-5.5c0-.2.2-.5.5-.5h5.5c.2,0,.5.2.5.5v5.5c0,.2-.2.5-.5.5ZM50.3,35.1h4.6v-4.6h-4.6v4.6Z"/>
  <path d="M47.1,44h-5.5c-.2,0-.5-.2-.5-.5v-5.5c0-.2.2-.5.5-.5h5.5c.2,0,.5.2.5.5v5.5c0,.2-.2.5-.5.5ZM42.1,43.1h4.6v-4.6h-4.6v4.6Z"/>
  <path d="M55.4,44h-5.5c-.2,0-.5-.2-.5-.5v-5.5c0-.2.2-.5.5-.5h5.5c.2,0,.5.2.5.5v5.5c0,.2-.2.5-.5.5ZM50.3,43.1h4.6v-4.6h-4.6v4.6Z"/>
  <path d="M62.7,10H8.7c-.8,0-1.5.7-1.5,1.5v42.5c0,.8.7,1.5,1.5,1.5h25.4v6.4h-9.1c-.8,0-1.5.7-1.5,1.5s.7,1.5,1.5,1.5h21.1c.8,0,1.5-.7,1.5-1.5s-.7-1.5-1.5-1.5h-9v-6.4h25.6c.8,0,1.5-.7,1.5-1.5V11.5c0-.8-.6-1.5-1.5-1.5ZM61.2,52.5H10.2v-11c.2.2.5.3.9.3h1.4v.7c0,.8.7,1.5,1.5,1.5h1.9v.3c0,1,.8,1.8,1.8,1.8h3.3v-1.3h-3.3c-.3,0-.5-.2-.5-.5v-22.3c0-.3.2-.5.5-.5h11.8c.3,0,.5.2.5.5v22.3c0,.3-.2.5-.5.5h-3.5v1.3h3.5c1,0,1.8-.8,1.8-1.8v-.3h1.4c.8,0,1.5-.7,1.5-1.5v-18.6c0-.8-.7-1.5-1.5-1.5h-1.4v-.4c0-1-.8-1.8-1.8-1.8h-11.8c-1,0-1.8.8-1.8,1.8v.5h-1.9c-.7,0-1.2.5-1.4,1.1h-1.5c-.3,0-.6.1-.9.3v-10.9h51v39.5ZM10.7,40.4v-15.4c0-.2.2-.4.4-.4h1.4v16.1h-1.4c-.2,0-.4-.1-.4-.3ZM13.6,42.5v-18.6c0-.2.2-.4.4-.4h1.9v19.3h-1.9c-.2.1-.4,0-.4-.3ZM31.3,42.9v-19.3h1.4c.2,0,.4.2.4.4v18.6c0,.2-.2.4-.4.4h-1.4Z"/>
  <path d="M25.8,25.5h-4.4c-.2,0-.4-.2-.4-.4s.2-.4.4-.4h4.4c.2,0,.4.2.4.4s-.2.4-.4.4Z"/>
  <path d="M25.8,28.6h-4.4c-.2,0-.4-.2-.4-.4s.2-.4.4-.4h4.4c.2,0,.4.2.4.4,0,.2-.2.4-.4.4Z"/>
</svg>