<svg xmlns="http://www.w3.org/2000/svg" viewBox="0 0 72 71.9">
    <path d="m47.14,26.66h-6.93c-.31,0-.56-.25-.56-.56v-6.93c0-.31.25-.56.56-.56h6.93c.31,0,.56.25.56.56v6.93c0,.31-.25.56-.56.56Zm-6.37-1.12h5.81v-5.81h-5.81v5.81Z" stroke-width="0"/>
    <path d="m57.39,26.66h-6.93c-.31,0-.56-.25-.56-.56v-6.93c0-.31.25-.56.56-.56h6.93c.31,0,.56.25.56.56v6.93c0,.31-.25.56-.56.56Zm-6.37-1.12h5.81v-5.81h-5.81v5.81Z" stroke-width="0"/>
    <path d="m47.14,36.65h-6.93c-.31,0-.56-.25-.56-.56v-6.93c0-.31.25-.56.56-.56h6.93c.31,0,.56.25.56.56v6.93c0,.31-.25.56-.56.56Zm-6.37-1.12h5.81v-5.81h-5.81v5.81Z" stroke-width="0"/>
    <path d="m57.39,36.65h-6.93c-.31,0-.56-.25-.56-.56v-6.93c0-.31.25-.56.56-.56h6.93c.31,0,.56.25.56.56v6.93c0,.31-.25.56-.56.56Zm-6.37-1.12h5.81v-5.81h-5.81v5.81Z" stroke-width="0"/>
    <path d="m47.14,46.63h-6.93c-.31,0-.56-.25-.56-.56v-6.93c0-.31.25-.56.56-.56h6.93c.31,0,.56.25.56.56v6.93c0,.31-.25.56-.56.56Zm-6.37-1.12h5.81v-5.81h-5.81v5.81Z" stroke-width="0"/>
    <path d="m57.39,46.63h-6.93c-.31,0-.56-.25-.56-.56v-6.93c0-.31.25-.56.56-.56h6.93c.31,0,.56.25.56.56v6.93c0,.31-.25.56-.56.56Zm-6.37-1.12h5.81v-5.81h-5.81v5.81Z" stroke-width="0"/>
    <path d="m63.06,9.84H9.05c-.83,0-1.5.67-1.5,1.5v42.54c0,.83.67,1.5,1.5,1.5h25.44v6.38h-9.12c-.83,0-1.5.67-1.5,1.5s.67,1.5,1.5,1.5h21.12c.83,0,1.5-.67,1.5-1.5s-.67-1.5-1.5-1.5h-9v-6.38h25.56c.83,0,1.5-.67,1.5-1.5V11.34c0-.83-.67-1.5-1.5-1.5Zm-52.5,3h51v39.54H10.55V12.84Z" stroke-width="0"/>
        <path d="m22.98,30.94c-.28,0-.56-.11-.77-.32l-2.76-2.76c-.43-.43-.43-1.12,0-1.55.43-.43,1.12-.43,1.55,0l1.99,1.99,5.02-5.02c.43-.43,1.12-.43,1.55,0,.43.43.43,1.12,0,1.55l-5.8,5.8c-.21.21-.49.32-.77.32Z" stroke-width="0"/>
        <path d="m22.98,40.82c-.28,0-.56-.11-.77-.32l-2.76-2.76c-.43-.43-.43-1.12,0-1.55.43-.43,1.12-.43,1.55,0l1.99,1.99,5.02-5.02c.43-.43,1.12-.43,1.55,0,.43.43.43,1.12,0,1.55l-5.8,5.8c-.21.21-.49.32-.77.32Z" stroke-width="0"/>
      <path d="m32.87,46.96h-16.75c-1.1,0-2-.9-2-2v-24.76c0-1.1.9-2,2-2h2.61v1.46h-2.61c-.3,0-.54.24-.54.54v24.76c0,.3.24.54.54.54h16.75c.3,0,.54-.24.54-.54v-24.76c0-.3-.24-.54-.54-.54h-2.59v-1.46h2.59c1.1,0,2,.9,2,2v24.76c0,1.1-.9,2-2,2Z" stroke-width="0"/>
      <path d="m27.78,17.45h-1.26c-.35-.76-1.12-1.27-1.98-1.27s-1.63.5-1.98,1.27h-1.26c-.53,0-.96.43-.96.96v1.06c0,.53.43.96.96.96h6.48c.53,0,.96-.43.96-.96v-1.06c0-.53-.43-.96-.96-.96Z" stroke-width="0"/>
    <rect x=".28" y=".22" width="71.28" height="71.28" fill="none" stroke-width="0"/>
</svg>