<?xml version="1.0" encoding="UTF-8"?>
<svg id="Layer_1" xmlns="http://www.w3.org/2000/svg" version="1.1" viewBox="0 0 72 72">
  <!-- Generator: Adobe Illustrator 29.0.1, SVG Export Plug-In . SVG Version: 2.1.0 Build 192)  -->
  <polygon points="21.1 37.8 16.2 32.9 18.1 31 21.1 34 27.6 27.6 29.5 29.5 21.1 37.8"/>
  <path d="M47.7,28h-5.5c-.2,0-.4-.2-.4-.4v-5.5c0-.2.2-.4.4-.4h5.5c.2,0,.4.2.4.4v5.5c0,.2-.2.4-.4.4ZM42.6,27.1h4.6v-4.6h-4.6v4.6Z"/>
  <path d="M55.9,28h-5.6c-.2,0-.4-.2-.4-.4v-5.5c0-.2.2-.4.4-.4h5.6c.2,0,.4.2.4.4v5.5c0,.2-.2.4-.4.4ZM50.8,27.1h4.6v-4.6h-4.6v4.6Z"/>
  <path d="M47.7,36h-5.5c-.2,0-.4-.2-.4-.4v-5.5c0-.2.2-.4.4-.4h5.5c.2,0,.4.2.4.4v5.5c0,.2-.2.4-.4.4ZM42.6,35.1h4.6v-4.6h-4.6v4.6Z"/>
  <path d="M55.9,36h-5.6c-.2,0-.4-.2-.4-.4v-5.5c0-.2.2-.4.4-.4h5.6c.2,0,.4.2.4.4v5.5c0,.2-.2.4-.4.4ZM50.8,35.1h4.6v-4.6h-4.6v4.6Z"/>
  <path d="M47.7,44h-5.5c-.2,0-.4-.2-.4-.4v-5.5c0-.2.2-.4.4-.4h5.5c.2,0,.4.2.4.4v5.5c0,.2-.2.4-.4.4ZM42.6,43.1h4.6v-4.6h-4.6v4.6Z"/>
  <path d="M55.9,44h-5.6c-.2,0-.4-.2-.4-.4v-5.5c0-.2.2-.4.4-.4h5.6c.2,0,.4.2.4.4v5.5c0,.2-.2.4-.4.4ZM50.8,43.1h4.6v-4.6h-4.6v4.6Z"/>
  <path d="M63.3,10H9.3c-.8,0-1.5.7-1.5,1.5v42.5c0,.8.7,1.5,1.5,1.5h25.4v6.4h-9.1c-.8,0-1.5.7-1.5,1.5s.7,1.5,1.5,1.5h21.1c.8,0,1.5-.7,1.5-1.5s-.7-1.5-1.5-1.5h-9v-6.4h25.6c.8,0,1.5-.7,1.5-1.5V11.5c0-.8-.7-1.5-1.5-1.5ZM61.8,52.5H10.8v-18.5.4c.3,2.2.6,3.7.9,4.9.6,2.2,3.7,4.8,9.6,8l.4.2c.1,0,.3.1.4.1s.3,0,.4-.1l.4-.2c5.9-3.2,9-5.8,9.6-8,.3-1.2.6-2.7.8-4.9l1-10.4c0-.4-.2-.8-.6-1l-11.4-3.5c-.2,0-.4,0-.5,0l-11,3.4v-10h51v39.5ZM11.7,24.6l10.4-3.2,10.4,3.2-.9,9.7c-.2,2.1-.5,3.5-.8,4.6-.2.9-1.7,3-8.7,6.8-7-3.8-8.4-5.9-8.7-6.8-.3-1.1-.5-2.5-.8-4.6l-.9-9.7h0Z"/>
</svg>