<?xml version="1.0" encoding="UTF-8"?>
<svg id="Layer_1" xmlns="http://www.w3.org/2000/svg" version="1.1" viewBox="0 0 72 72">
  <!-- Generator: Adobe Illustrator 29.0.1, SVG Export Plug-In . SVG Version: 2.1.0 Build 192)  -->
  <path d="M47.2,28h-5.6c-.2,0-.4-.2-.4-.4v-5.5c0-.2.2-.4.4-.4h5.6c.2,0,.4.2.4.4v5.5c0,.2-.2.4-.4.4ZM42.1,27.1h4.6v-4.6h-4.6v4.6Z"/>
  <path d="M55.4,28h-5.6c-.2,0-.4-.2-.4-.4v-5.5c0-.2.2-.4.4-.4h5.6c.2,0,.4.2.4.4v5.5c0,.2-.2.4-.4.4ZM50.3,27.1h4.6v-4.6h-4.6v4.6Z"/>
  <path d="M47.2,36h-5.6c-.2,0-.4-.2-.4-.4v-5.5c0-.2.2-.4.4-.4h5.6c.2,0,.4.2.4.4v5.5c0,.2-.2.4-.4.4ZM42.1,35.1h4.6v-4.6h-4.6v4.6Z"/>
  <path d="M55.4,36h-5.6c-.2,0-.4-.2-.4-.4v-5.5c0-.2.2-.4.4-.4h5.6c.2,0,.4.2.4.4v5.5c0,.2-.2.4-.4.4ZM50.3,35.1h4.6v-4.6h-4.6v4.6Z"/>
  <path d="M47.2,44h-5.6c-.2,0-.4-.2-.4-.4v-5.5c0-.2.2-.4.4-.4h5.6c.2,0,.4.2.4.4v5.5c0,.2-.2.4-.4.4ZM42.1,43.1h4.6v-4.6h-4.6v4.6Z"/>
  <path d="M55.4,44h-5.6c-.2,0-.4-.2-.4-.4v-5.5c0-.2.2-.4.4-.4h5.6c.2,0,.4.2.4.4v5.5c0,.2-.2.4-.4.4ZM50.3,43.1h4.6v-4.6h-4.6v4.6Z"/>
  <path d="M46.2,64.9h-21.1c-.8,0-1.5-.7-1.5-1.5s.7-1.5,1.5-1.5h9.1v-6.4H8.7c-.8,0-1.5-.7-1.5-1.5V11.5c0-.8.7-1.5,1.5-1.5h54c.8,0,1.5.7,1.5,1.5v42.5c0,.8-.7,1.5-1.5,1.5h-25.6v6.4h9c.8,0,1.5.7,1.5,1.5s-.7,1.5-1.5,1.5h.1ZM35.7,52.5h25.6V13H10.2v39.5h25.5Z"/>
  <path d="M28.1,28.5h-8.9c0,.1,2.7,2.8,2.7,2.8l-5.7,5.7-2.7-2.7h0v8.9s0,0,.1,0h8.9c0,0-2.7-2.8-2.7-2.8l5.7-5.7,2.7,2.7h0v-8.9s0-.1-.1,0Z"/>
  <path d="M34.5,21.8H13.4c-.1,0-.2,0-.2.2v8h0c0,.1,1.1,1.2,1.1,1.2h.1c.1,0,0,0,0,0,0,0,.1-.1.1-.2v-7.9h18.7v18.7h-7.9s-.2,0-.2,0v.2l1.1,1.1h8.1c0,0,.2,0,.2-.2v-21.2h0Z"/>
</svg>