<?xml version="1.0" encoding="UTF-8"?>
<svg id="Layer_1" xmlns="http://www.w3.org/2000/svg" version="1.1" viewBox="0 0 72 72">
  <!-- Generator: Adobe Illustrator 29.0.1, SVG Export Plug-In . SVG Version: 2.1.0 Build 192)  -->
  <polygon points="19.7 31.4 15.4 27.1 16.8 25.8 19.7 28.8 25.8 22.7 27.1 24 19.7 31.4"/>
  <rect x="16.2" y="33.4" width="10.1" height="1.4"/>
  <rect x="16.2" y="36.6" width="10.1" height="1.4"/>
  <rect x="16.2" y="39.8" width="10.1" height="1.4"/>
  <path d="M47.1,27.1h-5.7c-.2,0-.5-.2-.5-.5v-5.7c0-.2.2-.5.5-.5h5.7c.2,0,.5.2.5.5v5.7c0,.2-.2.5-.5.5ZM41.8,26.2h4.8v-4.8h-4.8v4.8Z"/>
  <path d="M55.7,27.1h-5.7c-.2,0-.5-.2-.5-.5v-5.7c0-.2.2-.5.5-.5h5.7c.2,0,.5.2.5.5v5.7c0,.2-.2.5-.5.5ZM50.3,26.2h4.8v-4.8h-4.8v4.8Z"/>
  <path d="M47.1,35.4h-5.7c-.2,0-.5-.2-.5-.5v-5.7c0-.2.2-.5.5-.5h5.7c.2,0,.5.2.5.5v5.7c0,.2-.2.5-.5.5ZM41.8,34.5h4.8v-4.8h-4.8v4.8Z"/>
  <path d="M55.7,35.4h-5.7c-.2,0-.5-.2-.5-.5v-5.7c0-.2.2-.5.5-.5h5.7c.2,0,.5.2.5.5v5.7c0,.2-.2.5-.5.5ZM50.3,34.5h4.8v-4.8h-4.8v4.8Z"/>
  <path d="M47.1,43.7h-5.7c-.2,0-.5-.2-.5-.5v-5.7c0-.2.2-.5.5-.5h5.7c.2,0,.5.2.5.5v5.7c0,.2-.2.5-.5.5ZM41.8,42.8h4.8v-4.8h-4.8v4.8Z"/>
  <path d="M55.7,43.7h-5.7c-.2,0-.5-.2-.5-.5v-5.7c0-.2.2-.5.5-.5h5.7c.2,0,.5.2.5.5v5.7c0,.2-.2.5-.5.5ZM50.3,42.8h4.8v-4.8h-4.8v4.8Z"/>
  <path d="M62.8,9.3H8.8c-.8,0-1.5.7-1.5,1.5v42.5c0,.8.7,1.5,1.5,1.5h25.4v6.4h-9.1c-.8,0-1.5.7-1.5,1.5s.7,1.5,1.5,1.5h21.1c.8,0,1.5-.7,1.5-1.5s-.7-1.5-1.5-1.5h-9v-6.4h25.6c.8,0,1.5-.7,1.5-1.5V10.8c0-.8-.7-1.5-1.5-1.5h0ZM61.3,51.9H10.3v-8c.7,1.3,2.1,2,3.8,2h14.4c2.6,0,4.4-1.8,4.4-4.4v-17.7c0-2.6-1.8-4.4-4.4-4.4h-14.4c-1.7,0-3.1.8-3.8,2v-9.1h51v39.5h0ZM11.1,41.5v-17.7c0-1.9,1.2-3,3-3h14.4c1.9,0,3,1.2,3,3v17.7c0,1.9-1.2,3-3,3h-14.4c-1.9,0-3-1.2-3-3Z"/>
</svg>