<?xml version="1.0" encoding="UTF-8"?>
<svg id="Layer_1" xmlns="http://www.w3.org/2000/svg" version="1.1" viewBox="0 0 72 72">
  <!-- Generator: Adobe Illustrator 29.0.1, SVG Export Plug-In . SVG Version: 2.1.0 Build 192)  -->
  <path d="M47.2,27.8h-5.6c-.2,0-.4-.2-.4-.4v-5.5c0-.2.2-.4.4-.4h5.6c.2,0,.4.2.4.4v5.5c0,.2-.2.4-.4.4ZM42.1,26.9h4.6v-4.6h-4.6v4.6Z"/>
  <path d="M55.4,27.8h-5.6c-.2,0-.4-.2-.4-.4v-5.5c0-.2.2-.4.4-.4h5.6c.2,0,.4.2.4.4v5.5c0,.2-.2.4-.4.4ZM50.3,26.9h4.6v-4.6h-4.6v4.6Z"/>
  <path d="M47.2,35.8h-5.6c-.2,0-.4-.2-.4-.4v-5.5c0-.2.2-.4.4-.4h5.6c.2,0,.4.2.4.4v5.5c0,.2-.2.4-.4.4ZM42.1,34.9h4.6v-4.6h-4.6v4.6Z"/>
  <path d="M55.4,35.8h-5.6c-.2,0-.4-.2-.4-.4v-5.5c0-.2.2-.4.4-.4h5.6c.2,0,.4.2.4.4v5.5c0,.2-.2.4-.4.4ZM50.3,34.9h4.6v-4.6h-4.6v4.6Z"/>
  <path d="M47.2,43.8h-5.6c-.2,0-.4-.2-.4-.4v-5.5c0-.2.2-.4.4-.4h5.6c.2,0,.4.2.4.4v5.5c0,.2-.2.4-.4.4ZM42.1,42.9h4.6v-4.6h-4.6v4.6Z"/>
  <path d="M55.4,43.8h-5.6c-.2,0-.4-.2-.4-.4v-5.5c0-.2.2-.4.4-.4h5.6c.2,0,.4.2.4.4v5.5c0,.2-.2.4-.4.4ZM50.3,42.9h4.6v-4.6h-4.6v4.6Z"/>
  <path d="M46.2,64.7h-21.1c-.8,0-1.5-.7-1.5-1.5s.7-1.5,1.5-1.5h9.1v-6.4H8.7c-.8,0-1.5-.7-1.5-1.5V11.3c0-.8.7-1.5,1.5-1.5h54c.8,0,1.5.7,1.5,1.5v42.5c0,.8-.7,1.5-1.5,1.5h-25.6v6.4h9c.8,0,1.5.7,1.5,1.5s-.7,1.5-1.5,1.5h0ZM35.7,52.3h25.6V12.8H10.2v39.5h25.4Z"/>
  <path d="M35.1,22.1h-13.5c-.3,0-.6.1-.8.4-.2.2-6.8,6.2-6.8,6.2h0c-.2.2-.3.5-.3.7v12c0,.6.5,1.1,1.1,1.1h14.1c.3,0,.6,0,.8-.4,0,0,0,0,.1,0,.8-.9,6-6.5,6.2-6.7s.3-.4.3-.7v-11.5c0-.6-.6-1-1.2-1ZM21.9,24.2h10.5l-3.8,4.1h-11.1l4.4-4.1ZM27.8,40.3h-11.9v-9.8h11.9v9.8ZM29.9,38.6v-8.6c1-1,2.8-3,4.2-4.5v8.6l-4.2,4.5Z"/>
</svg>