<svg xmlns="http://www.w3.org/2000/svg" viewBox="0 0 72 72">
    <path d="m47.21,26.8h-6.93c-.31,0-.56-.25-.56-.56v-6.93c0-.31.25-.56.56-.56h6.93c.31,0,.56.25.56.56v6.93c0,.31-.25.56-.56.56Zm-6.37-1.12h5.81v-5.81h-5.81v5.81Z" stroke-width="0"/>
    <path d="m57.46,26.8h-6.93c-.31,0-.56-.25-.56-.56v-6.93c0-.31.25-.56.56-.56h6.93c.31,0,.56.25.56.56v6.93c0,.31-.25.56-.56.56Zm-6.37-1.12h5.81v-5.81h-5.81v5.81Z" stroke-width="0"/>
    <path d="m47.21,36.79h-6.93c-.31,0-.56-.25-.56-.56v-6.93c0-.31.25-.56.56-.56h6.93c.31,0,.56.25.56.56v6.93c0,.31-.25.56-.56.56Zm-6.37-1.12h5.81v-5.81h-5.81v5.81Z" stroke-width="0"/>
    <path d="m57.46,36.79h-6.93c-.31,0-.56-.25-.56-.56v-6.93c0-.31.25-.56.56-.56h6.93c.31,0,.56.25.56.56v6.93c0,.31-.25.56-.56.56Zm-6.37-1.12h5.81v-5.81h-5.81v5.81Z" stroke-width="0"/>
    <path d="m47.21,46.77h-6.93c-.31,0-.56-.25-.56-.56v-6.93c0-.31.25-.56.56-.56h6.93c.31,0,.56.25.56.56v6.93c0,.31-.25.56-.56.56Zm-6.37-1.12h5.81v-5.81h-5.81v5.81Z" stroke-width="0"/>
    <path d="m57.46,46.77h-6.93c-.31,0-.56-.25-.56-.56v-6.93c0-.31.25-.56.56-.56h6.93c.31,0,.56.25.56.56v6.93c0,.31-.25.56-.56.56Zm-6.37-1.12h5.81v-5.81h-5.81v5.81Z" stroke-width="0"/>
    <path d="m63.12,9.98H9.12c-.83,0-1.5.67-1.5,1.5v42.54c0,.83.67,1.5,1.5,1.5h25.44v6.38h-9.12c-.83,0-1.5.67-1.5,1.5s.67,1.5,1.5,1.5h21.12c.83,0,1.5-.67,1.5-1.5s-.67-1.5-1.5-1.5h-9v-6.38h25.56c.83,0,1.5-.67,1.5-1.5V11.48c0-.83-.67-1.5-1.5-1.5Zm-1.5,42.54H10.62v-22.66l3.11,3.11v5.96c0,.55.45,1,1,1h9.92v2.09c0,.55.45,1,1,1h9.26c.55,0,1-.45,1-1v-6.32c0-.55-.45-1-1-1h-9.26c-.55,0-1,.45-1,1v2.23h-8.92v-4.97l4.77-4.77h4.15v2.11c0,.55.45,1,1,1h9.26c.55,0,1-.45,1-1v-6.32c0-.55-.45-1-1-1h-9.26c-.55,0-1,.45-1,1v2.21h-4.15l-5.07-5.06c-.38-.38-1.04-.38-1.41,0l-3.4,3.4v-11.53h51v39.54ZM10.78,27.18l3.94-3.94,3.94,3.94-3.94,3.94-3.94-3.94Zm15.86,13.83v-4.32h7.26v4.32h-7.26Zm0-11.71v-4.32h7.26v4.32h-7.26Z" stroke-width="0"/>
    <rect x=".36" y=".36" width="71.28" height="71.28" fill="none" stroke-width="0"/>
</svg>