<?xml version="1.0" encoding="UTF-8"?>
<svg id="Layer_1" xmlns="http://www.w3.org/2000/svg" version="1.1" viewBox="0 0 72 72">
  <!-- Generator: Adobe Illustrator 29.0.1, SVG Export Plug-In . SVG Version: 2.1.0 Build 192)  -->
  <path d="M47.4,28h-5.5c-.2,0-.4-.2-.4-.4v-5.5c0-.2.2-.4.4-.4h5.5c.2,0,.4.2.4.4v5.5c0,.2-.2.4-.4.4ZM42.3,27.1h4.6v-4.6h-4.6v4.6Z"/>
  <path d="M55.6,28h-5.5c-.2,0-.4-.2-.4-.4v-5.5c0-.2.2-.4.4-.4h5.5c.2,0,.4.2.4.4v5.5c0,.2-.2.4-.4.4ZM50.5,27.1h4.6v-4.6h-4.6v4.6Z"/>
  <path d="M47.4,36h-5.5c-.2,0-.4-.2-.4-.4v-5.5c0-.2.2-.4.4-.4h5.5c.2,0,.4.2.4.4v5.5c0,.2-.2.4-.4.4ZM42.3,35.1h4.6v-4.6h-4.6v4.6Z"/>
  <path d="M55.6,36h-5.5c-.2,0-.4-.2-.4-.4v-5.5c0-.2.2-.4.4-.4h5.5c.2,0,.4.2.4.4v5.5c0,.2-.2.4-.4.4ZM50.5,35.1h4.6v-4.6h-4.6v4.6Z"/>
  <path d="M47.4,44h-5.5c-.2,0-.4-.2-.4-.4v-5.5c0-.2.2-.4.4-.4h5.5c.2,0,.4.2.4.4v5.5c0,.2-.2.4-.4.4ZM42.3,43.1h4.6v-4.6h-4.6v4.6Z"/>
  <path d="M55.6,44h-5.5c-.2,0-.4-.2-.4-.4v-5.5c0-.2.2-.4.4-.4h5.5c.2,0,.4.2.4.4v5.5c0,.2-.2.4-.4.4ZM50.5,43.1h4.6v-4.6h-4.6v4.6Z"/>
  <path d="M63,10H9c-.8,0-1.5.7-1.5,1.5v42.5c0,.8.7,1.5,1.5,1.5h25.4v6.4h-9.1c-.8,0-1.5.7-1.5,1.5s.7,1.5,1.5,1.5h21.1c.8,0,1.5-.7,1.5-1.5s-.7-1.5-1.5-1.5h-9v-6.4h25.6c.8,0,1.5-.7,1.5-1.5V11.5c0-.8-.7-1.5-1.5-1.5ZM61.5,52.5H10.5v-14.6c1.7,2.6,4.6,4.3,7.9,4.3h15.3v-2h-15.3c-4,0-7.4-3.5-7.4-7.5s3.4-7.5,7.4-7.5h15.3v-2h-15.3c-3.3,0-6.2,1.7-7.9,4.4v-14.6h51v39.5Z"/>
  <circle cx="18" cy="32.7" r="2"/>
  <circle cx="31.4" cy="32.7" r="2"/>
  <circle cx="24.7" cy="32.7" r="2"/>
</svg>