<?xml version="1.0" encoding="UTF-8"?>
<svg xmlns="http://www.w3.org/2000/svg" viewBox="0 0 72 72">
    <path d="M47.79,26.78h-6.93c-.31,0-.56-.25-.56-.56v-6.94c0-.31,.25-.56,.56-.56h6.93c.31,0,.56,.25,.56,.56v6.94c0,.31-.25,.56-.56,.56Zm-6.37-1.12h5.81v-5.81h-5.81v5.81Z"/>
    <path d="M58.03,26.78h-6.93c-.31,0-.56-.25-.56-.56v-6.94c0-.31,.25-.56,.56-.56h6.93c.31,0,.56,.25,.56,.56v6.94c0,.31-.25,.56-.56,.56Zm-6.37-1.12h5.81v-5.81h-5.81v5.81Z"/>
    <path d="M47.79,36.76h-6.93c-.31,0-.56-.25-.56-.56v-6.93c0-.31,.25-.56,.56-.56h6.93c.31,0,.56,.25,.56,.56v6.93c0,.31-.25,.56-.56,.56Zm-6.37-1.12h5.81v-5.81h-5.81v5.81Z"/>
    <path d="M58.03,36.76h-6.93c-.31,0-.56-.25-.56-.56v-6.93c0-.31,.25-.56,.56-.56h6.93c.31,0,.56,.25,.56,.56v6.93c0,.31-.25,.56-.56,.56Zm-6.37-1.12h5.81v-5.81h-5.81v5.81Z"/>
    <path d="M47.79,46.75h-6.93c-.31,0-.56-.25-.56-.56v-6.93c0-.31,.25-.56,.56-.56h6.93c.31,0,.56,.25,.56,.56v6.93c0,.31-.25,.56-.56,.56Zm-6.37-1.12h5.81v-5.81h-5.81v5.81Z"/>
    <path d="M58.03,46.75h-6.93c-.31,0-.56-.25-.56-.56v-6.93c0-.31,.25-.56,.56-.56h6.93c.31,0,.56,.25,.56,.56v6.93c0,.31-.25,.56-.56,.56Zm-6.37-1.12h5.81v-5.81h-5.81v5.81Z"/>
    <path d="M63.22,9.86H9.22c-.83,0-1.5,.67-1.5,1.5V53.89c0,.83,.67,1.5,1.5,1.5h25.44v6.38h-9.12c-.83,0-1.5,.67-1.5,1.5s.67,1.5,1.5,1.5h21.12c.83,0,1.5-.67,1.5-1.5s-.67-1.5-1.5-1.5h-9v-6.38h25.56c.83,0,1.5-.67,1.5-1.5V11.36c0-.83-.67-1.5-1.5-1.5ZM10.72,33.17h4.31c.04,1.9,.27,3.7,.65,5.32h-4.34c-.24-.44-.44-.91-.63-1.38v-3.94Zm5.38,6.81c.59,1.83,1.39,3.37,2.35,4.51-2.49-.83-4.64-2.43-6.16-4.51h3.82Zm1.58,0h3.99v5.05c-1.61-.45-3.04-2.35-3.99-5.05Zm-.45-1.49c-.41-1.61-.67-3.42-.71-5.32h5.15v5.32h-4.43Zm-.7-6.81c.06-1.77,.31-3.45,.69-4.95h4.44v4.95h-5.13Zm1.14-6.43c.94-2.71,2.38-4.62,4-5.08v5.08h-4Zm-1.58,0h-3.83c1.52-2.1,3.68-3.7,6.18-4.54-.96,1.14-1.77,2.69-2.36,4.54Zm-.41,1.48c-.36,1.52-.58,3.18-.64,4.95h-4.32v-3.59c.18-.46,.38-.92,.61-1.36h4.35Zm46.04,25.66H10.72v-12.06c2.51,3.79,6.81,6.29,11.68,6.29,7.73,0,14.02-6.29,14.02-14.02s-6.29-14.02-14.02-14.02c-4.87,0-9.17,2.5-11.68,6.29V12.86H61.72V52.39Zm-32.6-13.9c.39-1.62,.62-3.42,.65-5.32h5.15c-.09,1.92-.61,3.72-1.46,5.32h-4.34Zm3.4,1.49c-1.52,2.08-3.67,3.68-6.16,4.51,.96-1.14,1.76-2.68,2.35-4.51h3.81Zm-2.76-8.29c-.06-1.77-.28-3.43-.64-4.95h4.35c.8,1.5,1.29,3.17,1.42,4.95h-5.13Zm-1.05-6.43c-.59-1.85-1.39-3.4-2.36-4.54,2.51,.84,4.66,2.44,6.18,4.54h-3.83Zm-1.58,0h-4v-5.08c1.62,.46,3.05,2.37,4,5.08Zm.45,1.48c.39,1.5,.63,3.18,.69,4.95h-5.13v-4.95h4.44Zm.7,6.43c-.04,1.9-.3,3.71-.71,5.32h-4.43v-5.32h5.15Zm-1.16,6.81c-.94,2.69-2.37,4.59-3.99,5.05v-5.05h3.99Z"/>
    <rect x=".36" y=".36" width="71.28" height="71.28" fill="none"/>
</svg>
