<?xml version="1.0" encoding="UTF-8"?>
<svg id="Layer_1" xmlns="http://www.w3.org/2000/svg" version="1.1" viewBox="0 0 72 71.9">
  <!-- Generator: Adobe Illustrator 29.0.1, SVG Export Plug-In . SVG Version: 2.1.0 Build 192)  -->
  <path d="M47.5,27.9h-5.5c-.2,0-.4-.2-.4-.4v-5.5c0-.2.2-.4.4-.4h5.5c.2,0,.4.2.4.4v5.5c0,.2-.2.4-.4.4ZM42.4,27h4.6v-4.6h-4.6v4.6Z"/>
  <path d="M55.7,27.9h-5.5c-.2,0-.4-.2-.4-.4v-5.5c0-.2.2-.4.4-.4h5.5c.2,0,.4.2.4.4v5.5c0,.2-.2.4-.4.4ZM50.6,27h4.6v-4.6h-4.6v4.6Z"/>
  <path d="M47.5,35.8h-5.5c-.2,0-.4-.2-.4-.4v-5.5c0-.2.2-.4.4-.4h5.5c.2,0,.4.2.4.4v5.5c0,.2-.2.4-.4.4ZM42.4,34.9h4.6v-4.6h-4.6v4.6Z"/>
  <path d="M55.7,35.8h-5.5c-.2,0-.4-.2-.4-.4v-5.5c0-.2.2-.4.4-.4h5.5c.2,0,.4.2.4.4v5.5c0,.2-.2.4-.4.4ZM50.6,34.9h4.6v-4.6h-4.6v4.6Z"/>
  <path d="M47.5,43.8h-5.5c-.2,0-.4-.2-.4-.4v-5.5c0-.2.2-.4.4-.4h5.5c.2,0,.4.2.4.4v5.5c0,.2-.2.4-.4.4ZM42.4,42.9h4.6v-4.6h-4.6v4.6Z"/>
  <path d="M55.7,43.8h-5.5c-.2,0-.4-.2-.4-.4v-5.5c0-.2.2-.4.4-.4h5.5c.2,0,.4.2.4.4v5.5c0,.2-.2.4-.4.4ZM50.6,42.9h4.6v-4.6h-4.6v4.6Z"/>
  <path d="M63.1,9.8H9.1c-.8,0-1.5.7-1.5,1.5v42.5c0,.8.7,1.5,1.5,1.5h25.4v6.4h-9.1c-.8,0-1.5.7-1.5,1.5s.7,1.5,1.5,1.5h21.1c.8,0,1.5-.7,1.5-1.5s-.7-1.5-1.5-1.5h-9v-6.4h25.6c.8,0,1.5-.7,1.5-1.5V11.3c0-.8-.7-1.5-1.5-1.5h0ZM10.6,12.8h51v39.5H10.6V12.8h0Z"/>
  <path d="M23,30.9c-.3,0-.6-.1-.8-.3l-2.8-2.8c-.4-.4-.4-1.1,0-1.5.4-.4,1.1-.4,1.5,0l2,2,5-5c.4-.4,1.1-.4,1.5,0,.4.4.4,1.1,0,1.5l-5.8,5.8c-.2.2-.5.3-.8.3h0Z"/>
  <path d="M23,40.8c-.3,0-.6-.1-.8-.3l-2.8-2.8c-.4-.4-.4-1.1,0-1.5s1.1-.4,1.5,0l2,2,5-5c.4-.4,1.1-.4,1.5,0,.4.4.4,1.1,0,1.5l-5.8,5.8c-.2.2-.5.3-.8.3h0Z"/>
  <path d="M32.9,47h-16.8c-1.1,0-2-.9-2-2v-24.8c0-1.1.9-2,2-2h2.6v1.5h-2.6c-.3,0-.5.2-.5.5v24.8c0,.3.2.5.5.5h16.8c.3,0,.5-.2.5-.5v-24.8c0-.3-.2-.5-.5-.5h-2.6v-1.5h2.6c1.1,0,2,.9,2,2v24.8c0,1.1-.9,2-2,2Z"/>
  <path d="M27.8,17.5h-1.3c-.4-.8-1.1-1.3-2-1.3s-1.6.5-2,1.3h-1.3c-.5,0-1,.4-1,1v1.1c0,.5.4,1,1,1h6.5c.5,0,1-.4,1-1v-1.1c0-.5-.4-1-1-1Z"/>
</svg>