<?xml version="1.0" encoding="UTF-8"?>
<svg xmlns="http://www.w3.org/2000/svg" viewBox="0 0 72 72">
    <path d="M47.79,26.78h-6.93c-.31,0-.56-.25-.56-.56v-6.94c0-.31,.25-.56,.56-.56h6.93c.31,0,.56,.25,.56,.56v6.94c0,.31-.25,.56-.56,.56Zm-6.37-1.12h5.81v-5.81h-5.81v5.81Z"/>
    <path d="M58.03,26.78h-6.93c-.31,0-.56-.25-.56-.56v-6.94c0-.31,.25-.56,.56-.56h6.93c.31,0,.56,.25,.56,.56v6.94c0,.31-.25,.56-.56,.56Zm-6.37-1.12h5.81v-5.81h-5.81v5.81Z"/>
    <path d="M47.79,36.76h-6.93c-.31,0-.56-.25-.56-.56v-6.93c0-.31,.25-.56,.56-.56h6.93c.31,0,.56,.25,.56,.56v6.93c0,.31-.25,.56-.56,.56Zm-6.37-1.12h5.81v-5.81h-5.81v5.81Z"/>
    <path d="M58.03,36.76h-6.93c-.31,0-.56-.25-.56-.56v-6.93c0-.31,.25-.56,.56-.56h6.93c.31,0,.56,.25,.56,.56v6.93c0,.31-.25,.56-.56,.56Zm-6.37-1.12h5.81v-5.81h-5.81v5.81Z"/>
    <path d="M47.79,46.75h-6.93c-.31,0-.56-.25-.56-.56v-6.93c0-.31,.25-.56,.56-.56h6.93c.31,0,.56,.25,.56,.56v6.93c0,.31-.25,.56-.56,.56Zm-6.37-1.12h5.81v-5.81h-5.81v5.81Z"/>
    <path d="M58.03,46.75h-6.93c-.31,0-.56-.25-.56-.56v-6.93c0-.31,.25-.56,.56-.56h6.93c.31,0,.56,.25,.56,.56v6.93c0,.31-.25,.56-.56,.56Zm-6.37-1.12h5.81v-5.81h-5.81v5.81Z"/>
    <path d="M63.48,9.86H9.47c-.83,0-1.5,.67-1.5,1.5V53.89c0,.83,.67,1.5,1.5,1.5h25.44v6.38h-9.12c-.83,0-1.5,.67-1.5,1.5s.67,1.5,1.5,1.5h21.12c.83,0,1.5-.67,1.5-1.5s-.67-1.5-1.5-1.5h-9v-6.38h25.57c.83,0,1.5-.67,1.5-1.5V11.36c0-.83-.67-1.5-1.5-1.5ZM16.49,33.4v4.51h-5.52v-4.51h5.52Zm45.48,18.99H10.97v-13.39h2.04v.74h-1.34v1.1h3.77v-1.1h-1.32v-.74h2.93c.3,0,.55-.25,.55-.55v-2.1h2.99v6.57c0,.41,.33,.74,.74,.74h5.49v1.17h-2.61v1.49h6.68v-1.49h-2.58v-1.17h5.52c.41,0,.74-.33,.74-.74v-10.09c0-.41-.33-.74-.74-.74h-12.49c-.41,0-.74,.33-.74,.74v2.42h-2.99v-2.41c0-.3-.25-.55-.55-.55h-2.95v-7.44h4.24v2.2c0,.3,.25,.55,.55,.55h2.91v.74h-1.34v1.1h3.77v-1.1h-1.32v-.74h2.93c.3,0,.55-.25,.55-.55v-2.2h2.22v2.2c0,.3,.25,.55,.55,.55h2.91v.74h-1.34v1.1h3.77v-1.1h-1.32v-.74h2.93c.3,0,.55-.25,.55-.55v-5.61c0-.3-.25-.55-.55-.55h-6.94c-.3,0-.55,.25-.55,.55v2.31h-2.22v-2.31c0-.3-.25-.55-.55-.55h-6.94c-.3,0-.55,.25-.55,.55v2.31h-4.79c-.3,0-.55,.25-.55,.55v7.99h-2.01V12.86H61.98V52.39Zm-39.91-10.21v-8.61h11.01v8.61h-11.01Zm-2.63-15.67v-4.51h5.84v4.51h-5.84Zm10.26,0v-4.51h5.84v4.51h-5.84Z"/>
    <rect x=".36" y=".36" width="71.28" height="71.28" fill="none"/>
</svg>
