<?xml version="1.0" encoding="UTF-8"?>
<svg xmlns="http://www.w3.org/2000/svg" viewBox="0 0 72 72">
    <path d="M47.1,26.8h-6.93c-.31,0-.56-.25-.56-.56v-6.93c0-.31,.25-.56,.56-.56h6.93c.31,0,.56,.25,.56,.56v6.93c0,.31-.25,.56-.56,.56Zm-6.37-1.12h5.81v-5.81h-5.81v5.81Z"/>
    <path d="M57.35,26.8h-6.93c-.31,0-.56-.25-.56-.56v-6.93c0-.31,.25-.56,.56-.56h6.93c.31,0,.56,.25,.56,.56v6.93c0,.31-.25,.56-.56,.56Zm-6.37-1.12h5.81v-5.81h-5.81v5.81Z"/>
    <path d="M47.1,36.79h-6.93c-.31,0-.56-.25-.56-.56v-6.93c0-.31,.25-.56,.56-.56h6.93c.31,0,.56,.25,.56,.56v6.93c0,.31-.25,.56-.56,.56Zm-6.37-1.12h5.81v-5.81h-5.81v5.81Z"/>
    <path d="M57.35,36.79h-6.93c-.31,0-.56-.25-.56-.56v-6.93c0-.31,.25-.56,.56-.56h6.93c.31,0,.56,.25,.56,.56v6.93c0,.31-.25,.56-.56,.56Zm-6.37-1.12h5.81v-5.81h-5.81v5.81Z"/>
    <path d="M47.1,46.77h-6.93c-.31,0-.56-.25-.56-.56v-6.93c0-.31,.25-.56,.56-.56h6.93c.31,0,.56,.25,.56,.56v6.93c0,.31-.25,.56-.56,.56Zm-6.37-1.12h5.81v-5.81h-5.81v5.81Z"/>
    <path d="M57.35,46.77h-6.93c-.31,0-.56-.25-.56-.56v-6.93c0-.31,.25-.56,.56-.56h6.93c.31,0,.56,.25,.56,.56v6.93c0,.31-.25,.56-.56,.56Zm-6.37-1.12h5.81v-5.81h-5.81v5.81Z"/>
    <path d="M63.02,9.98H9.02c-.83,0-1.5,.67-1.5,1.5V54.02c0,.83,.67,1.5,1.5,1.5h25.44v6.38h-9.12c-.83,0-1.5,.67-1.5,1.5s.67,1.5,1.5,1.5h21.12c.83,0,1.5-.67,1.5-1.5s-.67-1.5-1.5-1.5h-9v-6.38h25.56c.83,0,1.5-.67,1.5-1.5V11.48c0-.83-.67-1.5-1.5-1.5Zm-1.5,42.54H10.52v-14.57c1.68,2.62,4.57,4.35,7.87,4.35h15.29v-2h-15.29c-4.01,0-7.39-3.46-7.39-7.55s3.38-7.55,7.39-7.55h15.29v-2h-15.29c-3.29,0-6.19,1.74-7.87,4.35V12.98H61.52V52.52Z"/>
    <circle cx="18.03" cy="32.75" r="2.01"/>
    <circle cx="31.43" cy="32.75" r="2.01"/>
    <circle cx="24.7" cy="32.75" r="2.01"/>
    <rect x=".36" y=".36" width="71.28" height="71.28" fill="none"/>
</svg>
