<svg xmlns="http://www.w3.org/2000/svg" viewBox="0 0 72 72">
      <path d="m32.73,39.77H8.9c-.69,0-1.25-.56-1.25-1.25V9.22c0-.69.56-1.25,1.25-1.25h23.83c.69,0,1.25.56,1.25,1.25v29.3c0,.69-.56,1.25-1.25,1.25Zm-22.58-2.5h21.33V10.47H10.15v26.8Z" stroke-width="0"/>
      <path d="m32.73,63.81H8.9c-.69,0-1.25-.56-1.25-1.25v-17.55c0-.69.56-1.25,1.25-1.25h23.83c.69,0,1.25.56,1.25,1.25v17.55c0,.69-.56,1.25-1.25,1.25Zm-22.58-2.5h21.33v-15.05H10.15v15.05Z" stroke-width="0"/>
      <path d="m62.91,63.81h-23.33c-.69,0-1.25-.56-1.25-1.25v-29.05c0-.69.56-1.25,1.25-1.25h23.33c.69,0,1.25.56,1.25,1.25v29.05c0,.69-.56,1.25-1.25,1.25Zm-22.08-2.5h20.83v-26.55h-20.83v26.55Z" stroke-width="0"/>
      <path d="m62.91,28.27h-23.33c-.69,0-1.25-.56-1.25-1.25V9.22c0-.69.56-1.25,1.25-1.25h23.33c.69,0,1.25.56,1.25,1.25v17.8c0,.69-.56,1.25-1.25,1.25Zm-22.08-2.5h20.83v-15.3h-20.83v15.3Z" stroke-width="0"/>
      <path d="m32.73,39.77H8.9c-.69,0-1.25-.56-1.25-1.25V9.22c0-.69.56-1.25,1.25-1.25h23.83c.69,0,1.25.56,1.25,1.25v29.3c0,.69-.56,1.25-1.25,1.25Zm-22.58-2.5h21.33V10.47H10.15v26.8Z" stroke-width="0"/>
      <path d="m32.73,63.81H8.9c-.69,0-1.25-.56-1.25-1.25v-17.55c0-.69.56-1.25,1.25-1.25h23.83c.69,0,1.25.56,1.25,1.25v17.55c0,.69-.56,1.25-1.25,1.25Zm-22.58-2.5h21.33v-15.05H10.15v15.05Z" stroke-width="0"/>
      <path d="m62.91,63.81h-23.33c-.69,0-1.25-.56-1.25-1.25v-29.05c0-.69.56-1.25,1.25-1.25h23.33c.69,0,1.25.56,1.25,1.25v29.05c0,.69-.56,1.25-1.25,1.25Zm-22.08-2.5h20.83v-26.55h-20.83v26.55Z" stroke-width="0"/>
      <path d="m62.91,28.27h-23.33c-.69,0-1.25-.56-1.25-1.25V9.22c0-.69.56-1.25,1.25-1.25h23.33c.69,0,1.25.56,1.25,1.25v17.8c0,.69-.56,1.25-1.25,1.25Zm-22.08-2.5h20.83v-15.3h-20.83v15.3Z" stroke-width="0"/>
    <rect x=".36" y=".36" width="71.28" height="71.28" fill="none" stroke-width="0"/>
</svg>