<?xml version="1.0" encoding="UTF-8"?>
<svg id="Layer_1" xmlns="http://www.w3.org/2000/svg" version="1.1" viewBox="0 0 72 72">
  <!-- Generator: Adobe Illustrator 29.0.1, SVG Export Plug-In . SVG Version: 2.1.0 Build 192)  -->
  <path d="M48.3,28h-5.5c-.2,0-.4-.2-.4-.4v-5.6c0-.2.2-.4.4-.4h5.5c.2,0,.4.2.4.4v5.6c0,.2-.2.4-.4.4ZM43.2,27.1h4.6v-4.6h-4.6v4.6Z"/>
  <path d="M56.5,28h-5.5c-.2,0-.4-.2-.4-.4v-5.6c0-.2.2-.4.4-.4h5.5c.2,0,.4.2.4.4v5.6c0,.2-.2.4-.4.4ZM51.4,27.1h4.6v-4.6h-4.6v4.6Z"/>
  <path d="M48.3,36h-5.5c-.2,0-.4-.2-.4-.4v-5.5c0-.2.2-.4.4-.4h5.5c.2,0,.4.2.4.4v5.5c0,.2-.2.4-.4.4ZM43.2,35.1h4.6v-4.6h-4.6v4.6Z"/>
  <path d="M56.5,36h-5.5c-.2,0-.4-.2-.4-.4v-5.5c0-.2.2-.4.4-.4h5.5c.2,0,.4.2.4.4v5.5c0,.2-.2.4-.4.4ZM51.4,35.1h4.6v-4.6h-4.6v4.6Z"/>
  <path d="M48.3,43.9h-5.5c-.2,0-.4-.2-.4-.4v-5.5c0-.2.2-.4.4-.4h5.5c.2,0,.4.2.4.4v5.5c0,.2-.2.4-.4.4ZM43.2,43.1h4.6v-4.6h-4.6v4.6Z"/>
  <path d="M56.5,43.9h-5.5c-.2,0-.4-.2-.4-.4v-5.5c0-.2.2-.4.4-.4h5.5c.2,0,.4.2.4.4v5.5c0,.2-.2.4-.4.4ZM51.4,43.1h4.6v-4.6h-4.6v4.6Z"/>
  <path d="M63.4,9.9H9.4c-.8,0-1.5.7-1.5,1.5v42.5c0,.8.7,1.5,1.5,1.5h25.4v6.4h-9.1c-.8,0-1.5.7-1.5,1.5s.7,1.5,1.5,1.5h21.1c.8,0,1.5-.7,1.5-1.5s-.7-1.5-1.5-1.5h-9v-6.4h25.6c.8,0,1.5-.7,1.5-1.5V11.4c0-.8-.7-1.5-1.5-1.5ZM61.9,52.4H10.9v-10.4c.4.5.9,1,1.4,1.5.2.2.4.2.6.2s.4,0,.6-.3c.3-.3.3-.9,0-1.2-.5-.4-.9-.9-1.3-1.4-.3-.4-.8-.4-1.2-.2,0,0,0,0,0,0v-1.4c.1-.2.1-.5,0-.7v-10.5c.6-1.1,1.3-2.2,2.1-3.1.3-.3.3-.9,0-1.2-.3-.3-.9-.3-1.2,0-.3.4-.6.7-.9,1.1v-12.1h51v39.5h0Z"/>
  <path d="M34.9,32.6c-.5,0-.8.4-.8.8,0,3.9-1.9,7.6-5,9.9-.4.3-.5.8-.2,1.2.2.2.4.3.7.3s.3,0,.5-.2c3.6-2.6,5.7-6.8,5.7-11.2s-.4-.8-.8-.8Z"/>
  <path d="M33.8,31.3c0,.4.4.7.8.7s0,0,.1,0c.5,0,.8-.5.7-1-.3-1.5-.8-2.9-1.5-4.2-.2-.4-.7-.6-1.1-.3s-.6.7-.3,1.1c.6,1.2,1.1,2.4,1.3,3.7h0Z"/>
  <path d="M21.9,21.3c3.3,0,6.4,1.3,8.7,3.7.2.2.4.2.6.2s.4,0,.6-.2c.3-.3.3-.9,0-1.2-2.6-2.7-6.2-4.2-9.9-4.2s-.8.4-.8.8.4.8.8.8Z"/>
  <path d="M14.9,23.3c.1,0,.3,0,.4-.1,1.2-.8,2.4-1.3,3.8-1.6.5-.1.7-.6.6-1-.1-.5-.6-.7-1-.6-1.5.4-3,1-4.3,1.8-.4.2-.5.8-.2,1.2.2.2.4.4.7.4Z"/>
  <path d="M13.4,33.4c0-4.6,3.8-8.4,8.4-8.4s.8-.4.8-.8-.4-.8-.8-.8c-5.6,0-10.1,4.5-10.1,10.1s.2,2.1.5,3c.1.4.4.6.8.6s.2,0,.2,0c.4-.1.7-.6.5-1-.3-.8-.4-1.7-.4-2.5h0Z"/>
  <path d="M14.3,38.8c-.4.3-.4.8-.1,1.2h0c.5.6,1.7,2,1,5-.1.5.2.9.6,1,0,0,.1,0,.2,0,.4,0,.7-.3.8-.7.5-2.5,0-4.6-1.5-6.4-.3-.3-.8-.4-1.2-.1Z"/>
  <path d="M29.2,39.1c-.3-.3-.9-.3-1.2,0-.2.2-.4.4-.6.6-1,.9-2.3,2-2.6,5.2,0,.5.3.9.8.9h0c.4,0,.8-.3.8-.8.2-2.5,1.1-3.3,2-4.1.3-.2.5-.5.8-.7.3-.3.3-.9,0-1.2h0Z"/>
  <path d="M30.1,37.7c.1,0,.2,0,.3,0,.3,0,.6-.2.8-.5.5-1.2.8-2.5.8-3.8,0-3.8-2.1-7.2-5.5-9-.4-.2-.9,0-1.1.4s0,.9.4,1.1c2.8,1.5,4.6,4.3,4.6,7.5s-.2,2.2-.6,3.2c-.2.4,0,.9.5,1.1h0Z"/>
  <path d="M25.8,38.7c1.3-1,2.1-2.4,2.4-4,.2-1.4,0-2.8-.6-4.1-.2-.4-.7-.6-1.1-.4-.4.2-.6.7-.4,1.1.5.9.6,2,.5,3-.2,1.2-.9,2.2-1.8,2.9-.4.3-.4.8-.2,1.2.2.2.4.3.7.3s.4,0,.5-.2h0Z"/>
  <path d="M17.8,28.6c-.4.3-.4.8-.1,1.2.2.2.4.3.6.3s.4,0,.5-.2c1.4-1.2,3.5-1.4,5.1-.6.4.2.9,0,1.1-.4.2-.4,0-.9-.4-1.1-2.2-1.1-5-.8-6.9.8Z"/>
  <path d="M19.3,37.6c-1.1-1.2-2.2-2.4-2.2-4s.1-1.3.4-1.9c.2-.4,0-.9-.5-1.1s-.9,0-1.1.5c-.3.8-.5,1.6-.5,2.5,0,2.2,1.4,3.7,2.6,5.1h.1c1.3,1.6,1.9,4.4.5,7-.2.4,0,.9.3,1.1.1,0,.3.1.4.1.3,0,.6-.2.7-.4,1.9-3.4,1-6.9-.7-8.8h-.1c0-.1,0-.1,0-.1Z"/>
  <path d="M22,35.4c-.6-.6-1.4-1.2-1.4-1.9s.6-1.2,1.3-1.2c.4,0,.7.1.8.2.2.2.6.8.6,2.4h0c0,.5.4.9.8.9h0c.5,0,.8-.4.8-.9,0-1.7-.4-2.9-1.1-3.6-.5-.5-1.2-.7-2-.7-1.6.1-2.8,1.4-2.8,2.9s1.1,2.4,1.9,3.1c.2.2.4.4.5.5.6.7,2.2,2.5.4,8.6-.1.4.1.9.6,1,0,0,.2,0,.2,0,.4,0,.7-.2.8-.6,1.9-6.3.5-8.8-.8-10.2-.2-.2-.4-.4-.7-.7h0Z"/>
</svg>