<?xml version="1.0" encoding="UTF-8"?>
<svg xmlns="http://www.w3.org/2000/svg" viewBox="0 0 72 72">
    <path d="M47.94,26.78h-6.93c-.31,0-.56-.25-.56-.56v-6.94c0-.31,.25-.56,.56-.56h6.93c.31,0,.56,.25,.56,.56v6.94c0,.31-.25,.56-.56,.56Zm-6.37-1.12h5.81v-5.81h-5.81v5.81Z"/>
    <path d="M58.19,26.78h-6.93c-.31,0-.56-.25-.56-.56v-6.94c0-.31,.25-.56,.56-.56h6.93c.31,0,.56,.25,.56,.56v6.94c0,.31-.25,.56-.56,.56Zm-6.37-1.12h5.81v-5.81h-5.81v5.81Z"/>
    <path d="M47.94,36.76h-6.93c-.31,0-.56-.25-.56-.56v-6.93c0-.31,.25-.56,.56-.56h6.93c.31,0,.56,.25,.56,.56v6.93c0,.31-.25,.56-.56,.56Zm-6.37-1.12h5.81v-5.81h-5.81v5.81Z"/>
    <path d="M58.19,36.76h-6.93c-.31,0-.56-.25-.56-.56v-6.93c0-.31,.25-.56,.56-.56h6.93c.31,0,.56,.25,.56,.56v6.93c0,.31-.25,.56-.56,.56Zm-6.37-1.12h5.81v-5.81h-5.81v5.81Z"/>
    <path d="M47.94,46.75h-6.93c-.31,0-.56-.25-.56-.56v-6.93c0-.31,.25-.56,.56-.56h6.93c.31,0,.56,.25,.56,.56v6.93c0,.31-.25,.56-.56,.56Zm-6.37-1.12h5.81v-5.81h-5.81v5.81Z"/>
    <path d="M58.19,46.75h-6.93c-.31,0-.56-.25-.56-.56v-6.93c0-.31,.25-.56,.56-.56h6.93c.31,0,.56,.25,.56,.56v6.93c0,.31-.25,.56-.56,.56Zm-6.37-1.12h5.81v-5.81h-5.81v5.81Z"/>
      <path d="M63.44,9.86H9.44c-.83,0-1.5,.67-1.5,1.5V53.89c0,.83,.67,1.5,1.5,1.5h25.44v6.38h-9.12c-.83,0-1.5,.67-1.5,1.5s.67,1.5,1.5,1.5h21.12c.83,0,1.5-.67,1.5-1.5s-.67-1.5-1.5-1.5h-9v-6.38h25.56c.83,0,1.5-.67,1.5-1.5V11.36c0-.83-.67-1.5-1.5-1.5Zm-1.5,42.54H10.94v-10.44c.42,.54,.88,1.05,1.38,1.52,.16,.15,.37,.23,.57,.23,.22,0,.44-.09,.61-.26,.32-.34,.3-.87-.03-1.18-.47-.44-.9-.92-1.29-1.43-.28-.37-.81-.44-1.17-.15-.03,.02-.04,.05-.07,.08v-1.43c.1-.22,.11-.46,0-.69v-10.48c.55-1.14,1.27-2.2,2.14-3.12,.32-.33,.31-.86-.03-1.18-.33-.32-.86-.31-1.18,.03-.33,.35-.64,.71-.93,1.09V12.86H61.94V52.39Z"/>
      <path d="M34.86,32.58c-.46,0-.84,.37-.84,.84,0,3.89-1.89,7.58-5.04,9.86-.38,.27-.46,.79-.19,1.17,.16,.23,.42,.35,.68,.35,.17,0,.34-.05,.49-.16,3.59-2.6,5.74-6.79,5.74-11.22,0-.46-.37-.84-.84-.84Z"/>
      <path d="M33.85,31.33c.07,.41,.42,.69,.82,.69,.05,0,.1,0,.14-.01,.46-.08,.76-.51,.68-.97-.26-1.48-.75-2.9-1.47-4.23-.22-.41-.73-.56-1.14-.34-.41,.22-.56,.73-.34,1.14,.63,1.16,1.06,2.41,1.29,3.71Z"/>
      <path d="M21.87,21.26c3.32,0,6.42,1.31,8.74,3.7,.16,.17,.38,.25,.6,.25s.42-.08,.58-.24c.33-.32,.34-.85,.02-1.18-2.63-2.72-6.16-4.21-9.94-4.21-.46,0-.84,.37-.84,.84s.37,.84,.84,.84Z"/>
      <path d="M14.87,23.3c.15,0,.31-.04,.45-.13,1.16-.75,2.43-1.28,3.76-1.6,.45-.11,.73-.56,.62-1.01-.11-.45-.56-.73-1.01-.62-1.52,.36-2.96,.97-4.28,1.82-.39,.25-.5,.77-.25,1.16,.16,.25,.43,.38,.71,.38Z"/>
      <path d="M13.45,33.43c0-4.64,3.78-8.42,8.42-8.42,.46,0,.84-.37,.84-.84s-.37-.84-.84-.84c-5.57,0-10.09,4.53-10.09,10.09,0,1.04,.16,2.07,.47,3.05,.11,.36,.44,.58,.8,.58,.08,0,.17-.01,.25-.04,.44-.14,.68-.61,.54-1.05-.26-.82-.39-1.68-.39-2.55Z"/>
      <path d="M14.26,38.76c-.35,.3-.4,.83-.1,1.18l.08,.09c.46,.52,1.67,1.91,1.03,4.87-.1,.45,.19,.9,.64,.99,.06,.01,.12,.02,.18,.02,.39,0,.73-.27,.82-.66,.54-2.51,.07-4.63-1.47-6.39-.3-.35-.83-.4-1.18-.1Z"/>
      <path d="M29.22,39.12c-.34-.31-.87-.3-1.18,.04-.2,.21-.42,.41-.65,.6-1.03,.9-2.32,2.02-2.62,5.19-.04,.46,.29,.87,.75,.91,.03,0,.05,0,.08,0,.43,0,.79-.32,.83-.76,.24-2.5,1.12-3.27,2.05-4.08,.27-.24,.54-.47,.77-.73,.31-.34,.3-.87-.04-1.18Z"/>
      <path d="M30.13,37.7c.1,.04,.21,.06,.32,.06,.33,0,.64-.2,.78-.52,.49-1.21,.75-2.49,.75-3.81,0-3.8-2.1-7.24-5.48-8.98-.41-.21-.92-.05-1.13,.36-.21,.41-.05,.92,.36,1.13,2.82,1.45,4.57,4.32,4.57,7.49,0,1.1-.21,2.17-.62,3.18-.17,.43,.03,.92,.46,1.09Z"/>
      <path d="M25.77,38.69c1.28-.98,2.14-2.39,2.42-3.98,.25-1.4,.04-2.8-.6-4.06-.21-.41-.72-.58-1.13-.36-.41,.21-.57,.71-.36,1.13,.48,.93,.63,1.97,.45,3-.21,1.17-.85,2.22-1.79,2.94-.37,.28-.44,.81-.16,1.17,.17,.21,.41,.33,.67,.33,.18,0,.36-.06,.51-.17Z"/>
      <path d="M17.82,28.58c-.36,.29-.41,.82-.12,1.18,.17,.2,.41,.31,.65,.31,.19,0,.37-.06,.53-.19,1.43-1.16,3.47-1.38,5.11-.57,.41,.21,.92,.04,1.12-.38,.21-.41,.04-.92-.38-1.12-2.2-1.09-4.99-.79-6.91,.77Z"/>
      <path d="M19.26,37.56c-1.11-1.24-2.16-2.42-2.16-3.98,0-.64,.13-1.26,.37-1.85,.18-.43-.02-.92-.45-1.1-.43-.18-.92,.02-1.1,.45-.33,.79-.5,1.63-.5,2.5,0,2.2,1.37,3.74,2.58,5.09l.1,.11c1.31,1.46,1.89,4.29,.46,6.85-.22,.4-.08,.91,.32,1.14,.13,.07,.27,.11,.41,.11,.29,0,.58-.16,.73-.43,1.89-3.39,.97-6.93-.68-8.77l-.1-.11Z"/>
      <path d="M21.98,35.43c-.63-.57-1.35-1.21-1.35-1.89,0-.75,.65-1.19,1.3-1.24,.44-.04,.66,.11,.78,.22,.23,.22,.62,.81,.61,2.4v.06c0,.46,.37,.81,.83,.81h0c.46,0,.83-.4,.84-.86,0-1.69-.38-2.92-1.15-3.63-.54-.5-1.24-.73-2.05-.67-1.62,.13-2.84,1.38-2.84,2.91,0,1.43,1.1,2.42,1.91,3.14,.21,.19,.4,.36,.55,.52,.61,.69,2.25,2.5,.41,8.6-.13,.44,.12,.91,.56,1.04,.08,.02,.16,.04,.24,.04,.36,0,.69-.23,.8-.6,1.89-6.27,.47-8.83-.77-10.2-.18-.2-.42-.41-.68-.65Z"/>
    <rect x=".36" y=".36" width="71.28" height="71.28" fill="none"/>
</svg>
