<?xml version="1.0" encoding="utf-8"?>
<svg xmlns="http://www.w3.org/2000/svg" viewBox="0 0 72 72" >
    <path d="M46.8,26.8h-6.9c-0.3,0-0.6-0.2-0.6-0.6v-6.9c0-0.3,0.2-0.6,0.6-0.6h6.9c0.3,0,0.6,0.2,0.6,0.6v6.9
	    C47.4,26.5,47.1,26.8,46.8,26.8z M40.5,25.7h5.8v-5.8h-5.8V25.7z"/>
    <path d="M57.1,26.8h-6.9c-0.3,0-0.6-0.2-0.6-0.6v-6.9c0-0.3,0.2-0.6,0.6-0.6h6.9c0.3,0,0.6,0.2,0.6,0.6v6.9
	    C57.6,26.5,57.4,26.8,57.1,26.8z M50.7,25.7h5.8v-5.8h-5.8V25.7z"/>
    <path d="M46.8,36.8h-6.9c-0.3,0-0.6-0.2-0.6-0.6v-6.9c0-0.3,0.2-0.6,0.6-0.6h6.9c0.3,0,0.6,0.2,0.6,0.6v6.9
	    C47.4,36.5,47.1,36.8,46.8,36.8z M40.5,35.7h5.8v-5.8h-5.8V35.7z"/>
    <path d="M57.1,36.8h-6.9c-0.3,0-0.6-0.2-0.6-0.6v-6.9c0-0.3,0.2-0.6,0.6-0.6h6.9c0.3,0,0.6,0.2,0.6,0.6v6.9
	    C57.6,36.5,57.4,36.8,57.1,36.8z M50.7,35.7h5.8v-5.8h-5.8V35.7z"/>
    <path d="M46.8,46.8h-6.9c-0.3,0-0.6-0.2-0.6-0.6v-6.9c0-0.3,0.2-0.6,0.6-0.6h6.9c0.3,0,0.6,0.2,0.6,0.6v6.9
	    C47.4,46.5,47.1,46.8,46.8,46.8z M40.5,45.7h5.8v-5.8h-5.8V45.7z"/>
    <path d="M57.1,46.8h-6.9c-0.3,0-0.6-0.2-0.6-0.6v-6.9c0-0.3,0.2-0.6,0.6-0.6h6.9c0.3,0,0.6,0.2,0.6,0.6v6.9
	    C57.6,46.5,57.4,46.8,57.1,46.8z M50.7,45.7h5.8v-5.8h-5.8V45.7z"/>
	<path d="M62.7,10h-54c-0.8,0-1.5,0.7-1.5,1.5V54c0,0.8,0.7,1.5,1.5,1.5h25.4v6.4H25c-0.8,0-1.5,0.7-1.5,1.5c0,0.8,0.7,1.5,1.5,1.5
		h21.1l0,0c0.8,0,1.5-0.7,1.5-1.5c0-0.8-0.7-1.5-1.5-1.5h-9v-6.4h25.6c0.8,0,1.5-0.7,1.5-1.5V11.5C64.2,10.7,63.6,10,62.7,10z
		 M61.2,52.5H35.7v0H10.2v-11c0.2,0.2,0.5,0.3,0.9,0.3h1.4v0.7c0,0.8,0.7,1.5,1.5,1.5h1.9v0.3c0,1,0.8,1.8,1.8,1.8H21v-1.3h-3.3
		c-0.3,0-0.5-0.2-0.5-0.5V22c0-0.3,0.2-0.5,0.5-0.5h11.8c0.3,0,0.5,0.2,0.5,0.5v22.3c0,0.3-0.2,0.5-0.5,0.5H26v1.3h3.5
		c1,0,1.8-0.8,1.8-1.8V44h1.4c0.8,0,1.5-0.7,1.5-1.5V23.9c0-0.8-0.7-1.5-1.5-1.5h-1.4V22c0-1-0.8-1.8-1.8-1.8H17.7
		c-1,0-1.8,0.8-1.8,1.8v0.5H14c-0.7,0-1.2,0.5-1.4,1.1h-1.5c-0.3,0-0.6,0.1-0.9,0.3V13h51V52.5z M10.7,40.4V25
		c0-0.2,0.2-0.4,0.4-0.4h1.4v16.1h-1.4C10.9,40.8,10.7,40.6,10.7,40.4z M13.6,42.5V23.9c0-0.2,0.2-0.4,0.4-0.4h1.9v19.3H14
		C13.8,42.9,13.6,42.7,13.6,42.5z M31.3,42.9V23.6h1.4c0.2,0,0.4,0.2,0.4,0.4v18.6c0,0.2-0.2,0.4-0.4,0.4H31.3z"/>
	<path d="M25.8,25.5h-4.4c-0.2,0-0.4-0.2-0.4-0.4s0.2-0.4,0.4-0.4h4.4c0.2,0,0.4,0.2,0.4,0.4S26,25.5,25.8,25.5z"/>
	<path d="M25.8,28.6h-4.4c-0.2,0-0.4-0.2-0.4-0.4c0-0.2,0.2-0.4,0.4-0.4h4.4c0.2,0,0.4,0.2,0.4,0.4C26.2,28.4,26,28.6,25.8,28.6z"/>
</svg>
