<?xml version="1.0" encoding="UTF-8"?>
<svg xmlns="http://www.w3.org/2000/svg" viewBox="0 0 72 72">
    <path d="M46.97,26.8h-6.94c-.31,0-.56-.25-.56-.56v-6.93c0-.31,.25-.56,.56-.56h6.94c.31,0,.56,.25,.56,.56v6.93c0,.31-.25,.56-.56,.56Zm-6.37-1.12h5.81v-5.81h-5.81v5.81Z"/>
    <path d="M57.22,26.8h-6.94c-.31,0-.56-.25-.56-.56v-6.93c0-.31,.25-.56,.56-.56h6.94c.31,0,.56,.25,.56,.56v6.93c0,.31-.25,.56-.56,.56Zm-6.37-1.12h5.81v-5.81h-5.81v5.81Z"/>
    <path d="M46.97,36.79h-6.94c-.31,0-.56-.25-.56-.56v-6.93c0-.31,.25-.56,.56-.56h6.94c.31,0,.56,.25,.56,.56v6.93c0,.31-.25,.56-.56,.56Zm-6.37-1.12h5.81v-5.81h-5.81v5.81Z"/>
    <path d="M57.22,36.79h-6.94c-.31,0-.56-.25-.56-.56v-6.93c0-.31,.25-.56,.56-.56h6.94c.31,0,.56,.25,.56,.56v6.93c0,.31-.25,.56-.56,.56Zm-6.37-1.12h5.81v-5.81h-5.81v5.81Z"/>
    <path d="M46.97,46.77h-6.94c-.31,0-.56-.25-.56-.56v-6.93c0-.31,.25-.56,.56-.56h6.94c.31,0,.56,.25,.56,.56v6.93c0,.31-.25,.56-.56,.56Zm-6.37-1.12h5.81v-5.81h-5.81v5.81Z"/>
    <path d="M57.22,46.77h-6.94c-.31,0-.56-.25-.56-.56v-6.93c0-.31,.25-.56,.56-.56h6.94c.31,0,.56,.25,.56,.56v6.93c0,.31-.25,.56-.56,.56Zm-6.37-1.12h5.81v-5.81h-5.81v5.81Z"/>
    <path d="M29.77,25.81l-2.13-2.07c-.29-.28-.75-.28-1.03,0l-12.16,12.24c-.07,.07-.12,.15-.16,.23l-1.5,3.57c-.12,.27-.05,.59,.16,.8,.14,.14,.33,.22,.52,.22,.09,0,.19-.02,.28-.06l3.62-1.49c.09-.04,.17-.09,.24-.16l12.16-12.24c.14-.14,.22-.33,.21-.52,0-.2-.08-.38-.22-.52Zm-13.09,12.14l-1.84,.76,.75-1.79,9.15-9.2,1.08,1.05-9.13,9.19Zm9.99-10.05l-1.08-1.05,1.55-1.56,1.08,1.05-1.55,1.56Z"/>
    <path d="M62.88,9.98H8.88c-.83,0-1.5,.67-1.5,1.5V54.02c0,.83,.67,1.5,1.5,1.5h25.44v6.38h-9.12c-.83,0-1.5,.67-1.5,1.5s.67,1.5,1.5,1.5h21.12c.83,0,1.5-.67,1.5-1.5s-.67-1.5-1.5-1.5h-9v-6.38h25.57c.83,0,1.5-.67,1.5-1.5V11.48c0-.83-.67-1.5-1.5-1.5ZM10.38,24.66c.3-1.6,1.7-2.81,3.38-2.81h15.07c1.9,0,3.44,1.54,3.44,3.44v15.07c0,1.9-1.54,3.44-3.44,3.44H13.76c-1.68,0-3.08-1.21-3.38-2.81V24.66Zm51,27.86H10.38v-8c.93,.76,2.09,1.23,3.38,1.23h15.07c2.97,0,5.38-2.41,5.38-5.38v-15.07c0-2.97-2.41-5.38-5.38-5.38H13.76c-1.29,0-2.45,.47-3.38,1.23V12.98H61.38V52.52Z"/>
    <rect x=".36" y=".36" width="71.28" height="71.28" fill="none"/>
</svg>
