<?xml version="1.0" encoding="UTF-8"?>
<svg id="Layer_1" xmlns="http://www.w3.org/2000/svg" version="1.1" viewBox="0 0 72 72">
  <!-- Generator: Adobe Illustrator 29.0.1, SVG Export Plug-In . SVG Version: 2.1.0 Build 192)  -->
  <defs>
    <style>
      .st0 {
        fill-rule: evenodd;
      }
    </style>
  </defs>
  <path d="M48.2,28h-5.5c-.2,0-.4-.2-.4-.4v-5.6c0-.2.2-.4.4-.4h5.5c.2,0,.4.2.4.4v5.6c0,.2-.2.4-.4.4ZM43.1,27.1h4.6v-4.6h-4.6v4.6Z"/>
  <path d="M56.4,28h-5.5c-.2,0-.4-.2-.4-.4v-5.6c0-.2.2-.4.4-.4h5.5c.2,0,.4.2.4.4v5.6c0,.2-.2.4-.4.4ZM51.3,27.1h4.6v-4.6h-4.6v4.6Z"/>
  <path d="M48.2,36h-5.5c-.2,0-.4-.2-.4-.4v-5.5c0-.2.2-.4.4-.4h5.5c.2,0,.4.2.4.4v5.5c0,.2-.2.4-.4.4ZM43.1,35.1h4.6v-4.6h-4.6v4.6Z"/>
  <path d="M56.4,36h-5.5c-.2,0-.4-.2-.4-.4v-5.5c0-.2.2-.4.4-.4h5.5c.2,0,.4.2.4.4v5.5c0,.2-.2.4-.4.4ZM51.3,35.1h4.6v-4.6h-4.6v4.6Z"/>
  <path d="M48.2,43.9h-5.5c-.2,0-.4-.2-.4-.4v-5.5c0-.2.2-.4.4-.4h5.5c.2,0,.4.2.4.4v5.5c0,.2-.2.4-.4.4ZM43.1,43.1h4.6v-4.6h-4.6v4.6Z"/>
  <path d="M56.4,43.9h-5.5c-.2,0-.4-.2-.4-.4v-5.5c0-.2.2-.4.4-.4h5.5c.2,0,.4.2.4.4v5.5c0,.2-.2.4-.4.4ZM51.3,43.1h4.6v-4.6h-4.6v4.6Z"/>
  <path class="st0" d="M63.8,9.9H9.7c-.8,0-1.5.7-1.5,1.5v42.5c0,.8.7,1.5,1.5,1.5h25.4v6.4h-9.1c-.8,0-1.5.7-1.5,1.5s.7,1.5,1.5,1.5h21.1c.8,0,1.5-.7,1.5-1.5s-.7-1.5-1.5-1.5h-9v-6.4h25.6c.8,0,1.5-.7,1.5-1.5V11.4c0-.8-.7-1.5-1.5-1.5h0ZM15.5,27.9l-1.6-2.3,1.6-1.6,2.3,1.6c.3.2.6.3.9.3s.5,0,.7-.2c.3-.1.6-.3.9-.4.6-.2,1-.7,1.1-1.2l.5-2.9h2.3l.5,2.9c.1.6.5,1,1.1,1.2.3.1.6.2.9.4.2.1.5.2.7.2s.6,0,.9-.3l2.4-1.6,1.6,1.6-1.6,2.3c-.3.5-.4,1.1-.1,1.6.1.3.3.6.4.9.2.6.7,1,1.2,1.1l2.8.5v2.3l-2.8.5c-.6.1-1.1.5-1.2,1.1-.1.3-.2.6-.4.9-.3.5-.2,1.2.1,1.7l1.6,2.3-1.6,1.6-2.3-1.6c-.3-.2-.6-.3-.9-.3s-.5,0-.7.2c-.3.1-.6.3-.9.4-.6.2-1,.7-1.1,1.2l-.5,2.8h-2.3l-.5-2.8c-.1-.6-.5-1-1.1-1.2-.3-.1-.6-.2-.9-.4-.2-.1-.5-.2-.7-.2s-.6,0-.9.3l-2.3,1.6-1.6-1.6,1.6-2.3c.3-.5.4-1.1.1-1.7-.1-.3-.3-.6-.4-.9-.2-.6-.7-1-1.2-1.1l-2.7-.5v-2.4l2.7-.5c.6-.1,1.1-.5,1.2-1.1.1-.3.2-.6.4-.9.3-.5.2-1.2-.1-1.6h0ZM62.2,52.4H11.2v-16.4l2.3.5c.1.4.3.7.4,1.1l-1.5,2.2c-.4.7-.4,1.6.2,2.1l1.6,1.6c.3.3.8.5,1.2.5s.6,0,.9-.3l2.2-1.5c.4.2.7.3,1.1.5l.5,2.6c.2.8.9,1.4,1.7,1.4h2.3c.8,0,1.5-.6,1.7-1.4l.5-2.6c.4-.1.7-.3,1.1-.5l2.2,1.5c.3.2.6.3.9.3s.9-.2,1.2-.5l1.6-1.6c.6-.6.7-1.5.2-2.1l-1.5-2.2c.2-.3.3-.7.5-1.1l2.6-.5c.8-.2,1.4-.8,1.4-1.7v-2.3c0-.8-.6-1.5-1.4-1.6l-2.6-.5c-.1-.4-.3-.7-.5-1.1l1.5-2.2c.5-.7.4-1.6-.2-2.1l-1.6-1.6c-.3-.3-.8-.5-1.2-.5s-.6,0-.9.3l-2.2,1.5c-.4-.2-.7-.3-1.1-.5l-.5-2.6c-.2-.8-.9-1.4-1.7-1.4h-2.3c-.8,0-1.5.6-1.7,1.4l-.5,2.6c-.4.1-.7.3-1.1.5l-2.2-1.5c-.3-.2-.6-.3-.9-.3s-.9.2-1.2.5l-1.6,1.6c-.6.6-.7,1.5-.2,2.1l1.5,2.2c-.2.4-.3.7-.4,1.1l-2.3.5V12.9h51v39.5h0Z"/>
  <path class="st0" d="M23.1,38c2.7,0,4.9-2.2,4.9-4.9s-2.2-4.9-4.9-4.9-4.9,2.2-4.9,4.9,2.2,4.9,4.9,4.9ZM23.1,29.9c1.8,0,3.2,1.5,3.2,3.2s-1.5,3.2-3.2,3.2-3.2-1.5-3.2-3.2,1.5-3.2,3.2-3.2Z"/>
</svg>