<?xml version="1.0" encoding="UTF-8"?>
<svg xmlns="http://www.w3.org/2000/svg" viewBox="0 0 72 72">
    <path d="M46.83,26.8h-6.94c-.31,0-.56-.25-.56-.56v-6.93c0-.31,.25-.56,.56-.56h6.94c.31,0,.56,.25,.56,.56v6.93c0,.31-.25,.56-.56,.56Zm-6.37-1.12h5.81v-5.81h-5.81v5.81Z"/>
    <path d="M57.08,26.8h-6.94c-.31,0-.56-.25-.56-.56v-6.93c0-.31,.25-.56,.56-.56h6.94c.31,0,.56,.25,.56,.56v6.93c0,.31-.25,.56-.56,.56Zm-6.37-1.12h5.81v-5.81h-5.81v5.81Z"/>
    <path d="M46.83,36.79h-6.94c-.31,0-.56-.25-.56-.56v-6.93c0-.31,.25-.56,.56-.56h6.94c.31,0,.56,.25,.56,.56v6.93c0,.31-.25,.56-.56,.56Zm-6.37-1.12h5.81v-5.81h-5.81v5.81Z"/>
    <path d="M57.08,36.79h-6.94c-.31,0-.56-.25-.56-.56v-6.93c0-.31,.25-.56,.56-.56h6.94c.31,0,.56,.25,.56,.56v6.93c0,.31-.25,.56-.56,.56Zm-6.37-1.12h5.81v-5.81h-5.81v5.81Z"/>
    <path d="M46.83,46.77h-6.94c-.31,0-.56-.25-.56-.56v-6.93c0-.31,.25-.56,.56-.56h6.94c.31,0,.56,.25,.56,.56v6.93c0,.31-.25,.56-.56,.56Zm-6.37-1.12h5.81v-5.81h-5.81v5.81Z"/>
    <path d="M57.08,46.77h-6.94c-.31,0-.56-.25-.56-.56v-6.93c0-.31,.25-.56,.56-.56h6.94c.31,0,.56,.25,.56,.56v6.93c0,.31-.25,.56-.56,.56Zm-6.37-1.12h5.81v-5.81h-5.81v5.81Z"/>
    <path d="M46.18,64.89H25.05c-.83,0-1.5-.67-1.5-1.5s.67-1.5,1.5-1.5h9.12v-6.38H8.74c-.83,0-1.5-.67-1.5-1.5V11.48c0-.83,.67-1.5,1.5-1.5H62.74c.83,0,1.5,.67,1.5,1.5V54.02c0,.83-.67,1.5-1.5,1.5h-25.57v6.38h9c.83,0,1.5,.67,1.5,1.5s-.67,1.5-1.5,1.5Zm-10.5-12.38h25.57V12.98H10.24V52.52h25.44Z"/>
    <path d="M28.12,28.52h-8.84s0,0,0,0c-.05,0-.1,.03-.12,.08-.02,.05,0,.1,.03,.14l2.73,2.72-5.71,5.71-2.71-2.71s-.06-.04-.09-.04c-.02,0-.03,0-.05,0-.05,.02-.08,.07-.08,.12v8.83c0,.07,.05,.13,.12,.13h8.84s0,0,0,0c.05,0,.1-.03,.12-.08,.02-.05,0-.1-.03-.14l-2.74-2.74,5.71-5.71,2.72,2.73s.06,.04,.09,.04c.02,0,.03,0,.05,0,.05-.02,.08-.07,.08-.12v-8.83c0-.07-.05-.13-.12-.13Zm-6.06,2.89h0s0,0,0,0h0Z"/>
    <path d="M34.65,21.84H13.35c-.12,0-.21,.09-.21,.21v8.05c0,.06,.02,.11,.06,.15l1.11,1.11s.09,.06,.15,.06c.03,0,.05,0,.08-.02,.08-.03,.13-.11,.13-.19v-7.87h18.69v18.71h-7.85c-.08,0-.16,.05-.19,.13-.03,.08-.01,.17,.05,.23l1.13,1.13s.09,.06,.15,.06h8.02c.12,0,.21-.09,.21-.21V22.05c0-.12-.09-.21-.21-.21Z"/>
    <rect x=".36" y=".36" width="71.28" height="71.28" fill="none"/>
</svg>
