<?xml version="1.0" encoding="UTF-8"?>
<svg xmlns="http://www.w3.org/2000/svg" viewBox="0 0 72 72">
  <path d="M47.6,28h-5.5c-.2,0-.4-.2-.4-.4v-5.6c0-.2.2-.4.4-.4h5.5c.2,0,.4.2.4.4v5.6c0,.2-.2.4-.4.4ZM42.5,27.1h4.6v-4.6h-4.6v4.6Z"/>
  <path d="M55.8,28h-5.5c-.2,0-.4-.2-.4-.4v-5.6c0-.2.2-.4.4-.4h5.5c.2,0,.4.2.4.4v5.6c0,.2-.2.4-.4.4ZM50.7,27.1h4.6v-4.6h-4.6v4.6Z"/>
  <path d="M47.6,36h-5.5c-.2,0-.4-.2-.4-.4v-5.5c0-.2.2-.4.4-.4h5.5c.2,0,.4.2.4.4v5.5c0,.2-.2.4-.4.4ZM42.5,35.1h4.6v-4.6h-4.6v4.6Z"/>
  <path d="M55.8,36h-5.5c-.2,0-.4-.2-.4-.4v-5.5c0-.2.2-.4.4-.4h5.5c.2,0,.4.2.4.4v5.5c0,.2-.2.4-.4.4ZM50.7,35.1h4.6v-4.6h-4.6v4.6Z"/>
  <path d="M47.6,43.9h-5.5c-.2,0-.4-.2-.4-.4v-5.5c0-.2.2-.4.4-.4h5.5c.2,0,.4.2.4.4v5.5c0,.2-.2.4-.4.4ZM42.5,43.1h4.6v-4.6h-4.6v4.6Z"/>
  <path d="M55.8,43.9h-5.5c-.2,0-.4-.2-.4-.4v-5.5c0-.2.2-.4.4-.4h5.5c.2,0,.4.2.4.4v5.5c0,.2-.2.4-.4.4ZM50.7,43.1h4.6v-4.6h-4.6v4.6Z"/>
  <path d="M30.6,27.2h-5.6c-.3,0-.5-.2-.5-.5s.2-.5.5-.5h5.6c.3,0,.5.2.5.5s-.2.5-.5.5Z"/>
  <path d="M30.6,29.6h-5.6c-.3,0-.5-.2-.5-.5s.2-.5.5-.5h5.6c.3,0,.5.2.5.5s-.2.5-.5.5Z"/>
  <path d="M30.6,31.9h-5.6c-.3,0-.5-.2-.5-.5s.2-.5.5-.5h5.6c.3,0,.5.2.5.5s-.2.5-.5.5Z"/>
  <path d="M30.6,34.3h-5.6c-.3,0-.5-.2-.5-.5s.2-.5.5-.5h5.6c.3,0,.5.2.5.5s-.2.5-.5.5Z"/>
  <path d="M63.2,9.9H9.2c-.8,0-1.5.7-1.5,1.5v42.5c0,.8.7,1.5,1.5,1.5h25.4v6.4h-9.1c-.8,0-1.5.7-1.5,1.5s.7,1.5,1.5,1.5h21.1c.8,0,1.5-.7,1.5-1.5s-.7-1.5-1.5-1.5h-9v-6.4h25.6c.8,0,1.5-.7,1.5-1.5V11.4c0-.8-.7-1.5-1.5-1.5ZM10.7,25c2.4-3,6.1-4.7,10-4.7,7.1,0,13,5.8,13,13s-5.8,13-13,13c-4.35,0-7.5-1.8-10-4.7v-16.6ZM61.7,52.4H10.7v-8c2.7,2.4,6.3,3.8,10,3.8,8.2,0,15-6.7,15-15s-6.7-15-15-15c-3.36,0-7.2,1.4-10,3.8v-9.2h51v39.6Z"/>
  <path d="M25.51,37.9c-.04-.28-.13-.85-.81-1.22-.67-.36-1.3-.65-1.86-.9-.6-.27-1.12-.51-1.41-.72-.13-.22-.32-1.05-.31-1.27.01-.06.09-.34.76-1.32l.05-.08c.18-.27.46-.9.46-1.46,0-.22-.05-.45-.11-.73-.1-.43-.21-.97-.23-1.72,0-.54-.36-1.1-.98-1.59-.62-.48-1.67-.98-2.59-.78-.89.2-1.22.17-1.42.15-.27-.03-.47-.03-.83.2-.5.32-.97.97-1.11,1.57-.3,1.23-.3,1.63-.3,2.13v.1c0,.22-.02.29-.03.37-.03.12-.05.24-.05.49,0,.54.26,1.01.46,1.3.04.05.1.14.18.24.16.21.63.85.68,1.03.02.29-.18,1.19-.33,1.41-.27.2-.73.4-1.27.63-.57.24-1.27.55-1.99.97-.68.39-.76.92-.79,1.18v.05c-.05.24-.11,2.12-.12,2.7,0,.14.04.27.14.36s.23.15.36.15h13.1c.14,0,.27-.05.36-.16.1-.1.14-.23.14-.36-.02-.57-.08-2.45-.12-2.72ZM12.54,40.14h.01c.04-.99.08-1.93.09-2.07v-.07c.04-.19.05-.3.31-.45.68-.39,1.33-.67,1.9-.92.64-.28,1.15-.5,1.51-.78.48-.36.72-1.87.68-2.27-.03-.35-.33-.82-.88-1.54-.07-.09-.12-.16-.15-.2-.14-.2-.3-.47-.3-.74,0-.14.01-.19.03-.26.03-.14.06-.28.06-.6v-.09c0-.46,0-.77.28-1.89.08-.34.39-.78.67-.96.07-.04.1-.05.1-.05.03,0,.06,0,.1,0,.26.02.68.07,1.73-.17.46-.11,1.18.13,1.76.58.41.32.6.65.6.82.02.85.15,1.47.25,1.91.05.22.09.41.09.52,0,.31-.2.76-.29.91l-.05.07c-.64.96-.9,1.47-.92,1.82-.02.27.18,1.74.68,2.11.38.29.92.54,1.62.85.54.24,1.16.52,1.8.88.24.14.27.28.3.52.02.13.05,1.08.09,2.06h-12.07Z"/>
</svg>