<?xml version="1.0" encoding="UTF-8"?>
<svg id="Layer_1" xmlns="http://www.w3.org/2000/svg" version="1.1" viewBox="0 0 72 72">
  <!-- Generator: Adobe Illustrator 29.0.1, SVG Export Plug-In . SVG Version: 2.1.0 Build 192)  -->
  <path d="M47.6,28h-5.5c-.2,0-.4-.2-.4-.4v-5.6c0-.2.2-.4.4-.4h5.5c.2,0,.4.2.4.4v5.6c0,.2-.2.4-.4.4ZM42.5,27.1h4.6v-4.6h-4.6v4.6Z"/>
  <path d="M55.8,28h-5.5c-.2,0-.4-.2-.4-.4v-5.6c0-.2.2-.4.4-.4h5.5c.2,0,.4.2.4.4v5.6c0,.2-.2.4-.4.4ZM50.7,27.1h4.6v-4.6h-4.6v4.6Z"/>
  <path d="M47.6,36h-5.5c-.2,0-.4-.2-.4-.4v-5.5c0-.2.2-.4.4-.4h5.5c.2,0,.4.2.4.4v5.5c0,.2-.2.4-.4.4ZM42.5,35.1h4.6v-4.6h-4.6v4.6Z"/>
  <path d="M55.8,36h-5.5c-.2,0-.4-.2-.4-.4v-5.5c0-.2.2-.4.4-.4h5.5c.2,0,.4.2.4.4v5.5c0,.2-.2.4-.4.4ZM50.7,35.1h4.6v-4.6h-4.6v4.6Z"/>
  <path d="M47.6,43.9h-5.5c-.2,0-.4-.2-.4-.4v-5.5c0-.2.2-.4.4-.4h5.5c.2,0,.4.2.4.4v5.5c0,.2-.2.4-.4.4ZM42.5,43.1h4.6v-4.6h-4.6v4.6Z"/>
  <path d="M55.8,43.9h-5.5c-.2,0-.4-.2-.4-.4v-5.5c0-.2.2-.4.4-.4h5.5c.2,0,.4.2.4.4v5.5c0,.2-.2.4-.4.4ZM50.7,43.1h4.6v-4.6h-4.6v4.6Z"/>
  <path d="M25.6,41.2h-13.9c-.1,0-.3,0-.4-.2s-.1-.2-.1-.4c0-.6,0-2.6.1-2.9,0-.3.1-.9.9-1.3.8-.4,1.5-.8,2.1-1,.6-.3,1.1-.5,1.4-.7.1-.2.3-1.2.3-1.5,0-.2-.6-.9-.7-1.1,0-.1-.1-.2-.2-.3-.1-.2-.5-.7-.5-1.4s0-.4,0-.5c0,0,0-.1,0-.4,0-.6,0-1,.3-2.4.1-.6.6-1.3,1.2-1.7.4-.2.6-.2.9-.2.2,0,.6,0,1.5-.2,1-.2,2.1.3,2.8.8s1,1.1,1,1.7c0,.8.1,1.4.2,1.8,0,.3.1.5.1.8,0,.6-.3,1.3-.5,1.5-.8,1.1-.9,1.4-.9,1.5,0,.2.2,1.1.3,1.4.4.2.9.5,1.5.8.6.3,1.3.6,2,1s.8,1,.9,1.3.1,2.3.1,2.9c0,.1,0,.3-.1.4-.1,0-.2.2-.4.2h0ZM12.3,40.1h12.8c0-1,0-2-.1-2.2,0-.2,0-.4-.3-.5-.7-.4-1.3-.7-1.9-.9-.7-.3-1.3-.6-1.7-.9-.5-.3-.7-2-.7-2.2,0-.4.3-.9,1-1.9.2-.2.4-.7.4-1s0-.3-.1-.5c-.1-.5-.2-1.1-.3-2,0-.2-.2-.5-.6-.9-.6-.5-1.4-.7-1.9-.6-1.1.2-1.6.2-1.8.2h-.1s0,0-.1,0c-.3.2-.6.7-.7,1-.3,1.2-.3,1.5-.3,2h0c0,.4,0,.6,0,.7,0,0,0,.1,0,.3,0,.3.2.6.3.8,0,0,0,.1.2.2.6.8.9,1.3.9,1.6,0,.4-.2,2-.7,2.4-.4.3-.9.5-1.6.8-.6.3-1.3.6-2,1-.3.2-.3.3-.3.5s0,1.2-.1,2.3h0ZM21.6,34.6s0,0,0,0c0,0,0,0,0,0Z"/>
  <path d="M30.6,27.2h-5.6c-.3,0-.5-.2-.5-.5s.2-.5.5-.5h5.6c.3,0,.5.2.5.5s-.2.5-.5.5Z"/>
  <path d="M30.6,29.6h-5.6c-.3,0-.5-.2-.5-.5s.2-.5.5-.5h5.6c.3,0,.5.2.5.5s-.2.5-.5.5Z"/>
  <path d="M30.6,31.9h-5.6c-.3,0-.5-.2-.5-.5s.2-.5.5-.5h5.6c.3,0,.5.2.5.5s-.2.5-.5.5Z"/>
  <path d="M30.6,34.3h-5.6c-.3,0-.5-.2-.5-.5s.2-.5.5-.5h5.6c.3,0,.5.2.5.5s-.2.5-.5.5Z"/>
  <path d="M63.2,9.9H9.2c-.8,0-1.5.7-1.5,1.5v42.5c0,.8.7,1.5,1.5,1.5h25.4v6.4h-9.1c-.8,0-1.5.7-1.5,1.5s.7,1.5,1.5,1.5h21.1c.8,0,1.5-.7,1.5-1.5s-.7-1.5-1.5-1.5h-9v-6.4h25.6c.8,0,1.5-.7,1.5-1.5V11.4c0-.8-.7-1.5-1.5-1.5ZM10.7,25c2.4-3,6.1-4.7,10-4.7,7.1,0,13,5.8,13,13s-5.8,13-13,13-7.5-1.8-10-4.7c0,0,0-16.5,0-16.5ZM61.7,52.4H10.7v-8c2.7,2.4,6.3,3.8,10,3.8,8.2,0,15-6.7,15-15s-6.7-15-15-15-7.2,1.4-10,3.8v-9.2h51v39.5Z"/>
</svg>