<?xml version="1.0" encoding="UTF-8"?>
<svg id="Layer_1" xmlns="http://www.w3.org/2000/svg" version="1.1" viewBox="0 0 72 72">
  <!-- Generator: Adobe Illustrator 29.0.1, SVG Export Plug-In . SVG Version: 2.1.0 Build 192)  -->
  <path d="M48.1,28h-5.5c-.2,0-.4-.2-.4-.4v-5.6c0-.2.2-.4.4-.4h5.5c.2,0,.4.2.4.4v5.6c0,.2-.2.4-.4.4ZM43,27.1h4.6v-4.6h-4.6v4.6Z"/>
  <path d="M56.3,28h-5.5c-.2,0-.4-.2-.4-.4v-5.6c0-.2.2-.4.4-.4h5.5c.2,0,.4.2.4.4v5.6c0,.2-.2.4-.4.4ZM51.2,27.1h4.6v-4.6h-4.6v4.6Z"/>
  <path d="M48.1,36h-5.5c-.2,0-.4-.2-.4-.4v-5.5c0-.2.2-.4.4-.4h5.5c.2,0,.4.2.4.4v5.5c0,.2-.2.4-.4.4ZM43,35.1h4.6v-4.6h-4.6v4.6Z"/>
  <path d="M56.3,36h-5.5c-.2,0-.4-.2-.4-.4v-5.5c0-.2.2-.4.4-.4h5.5c.2,0,.4.2.4.4v5.5c0,.2-.2.4-.4.4ZM51.2,35.1h4.6v-4.6h-4.6v4.6Z"/>
  <path d="M48.1,43.9h-5.5c-.2,0-.4-.2-.4-.4v-5.5c0-.2.2-.4.4-.4h5.5c.2,0,.4.2.4.4v5.5c0,.2-.2.4-.4.4ZM43,43.1h4.6v-4.6h-4.6v4.6Z"/>
  <path d="M56.3,43.9h-5.5c-.2,0-.4-.2-.4-.4v-5.5c0-.2.2-.4.4-.4h5.5c.2,0,.4.2.4.4v5.5c0,.2-.2.4-.4.4ZM51.2,43.1h4.6v-4.6h-4.6v4.6Z"/>
  <path d="M63.5,9.9H9.5c-.8,0-1.5.7-1.5,1.5v42.5c0,.8.7,1.5,1.5,1.5h25.4v6.4h-9.1c-.8,0-1.5.7-1.5,1.5s.7,1.5,1.5,1.5h21.1c.8,0,1.5-.7,1.5-1.5s-.7-1.5-1.5-1.5h-9v-6.4h25.6c.8,0,1.5-.7,1.5-1.5V11.4c0-.8-.7-1.5-1.5-1.5ZM16.5,33.4v4.5h-5.5v-4.5h5.5ZM62,52.4H11v-13.4h2v.7h-1.3v1.1h3.8v-1.1h-1.3v-.7h2.9c.3,0,.5-.2.5-.5v-2.1h3v6.6c0,.4.3.7.7.7h5.5v1.2h-2.6v1.5h6.7v-1.5h-2.6v-1.2h5.5c.4,0,.7-.3.7-.7v-10.1c0-.4-.3-.7-.7-.7h-12.5c-.4,0-.7.3-.7.7v2.4h-3v-2.4c0-.3-.2-.5-.5-.5h-2.9v-7.4h4.2v2.2c0,.3.2.5.5.5h2.9v.7h-1.3v1.1h3.8v-1.1h-1.3v-.7h2.9c.3,0,.5-.2.5-.5v-2.2h2.2v2.2c0,.3.2.5.5.5h2.9v.7h-1.3v1.1h3.8v-1.1h-1.3v-.7h2.9c.3,0,.5-.2.5-.5v-5.6c0-.3-.2-.5-.5-.5h-6.9c-.3,0-.5.2-.5.5v2.3h-2.2v-2.3c0-.3-.2-.5-.5-.5h-6.9c-.3,0-.5.2-.5.5v2.3h-4.8c-.3,0-.6.2-.6.5v8h-2V12.9h51v39.5h0ZM22.1,42.2v-8.6h11v8.6s-11,0-11,0ZM19.4,26.5v-4.5h5.8v4.5h-5.8ZM29.7,26.5v-4.5h5.8v4.5s-5.8,0-5.8,0Z"/>
</svg>