<?xml version="1.0" encoding="UTF-8"?>
<svg xmlns="http://www.w3.org/2000/svg" viewBox="0 0 72 72">
    <polygon points="15.37 32.85 15.37 31.19 25.55 31.19 25.55 32.84 15.37 32.84 15.37 32.85" stroke-width="0"/>
    <polygon points="15.37 28.4 15.37 26.74 25.55 26.74 25.55 28.4 15.37 28.4 15.37 28.4" stroke-width="0"/>
    <polygon points="15.37 24.06 15.37 22.4 25.55 22.4 25.55 24.06 15.37 24.06 15.37 24.06" stroke-width="0"/>
    <polygon points="15.37 19.61 15.37 17.96 25.55 17.96 25.55 19.61 15.37 19.61 15.37 19.61" stroke-width="0"/>
    <polygon points="15.37 37.08 15.37 35.42 25.55 35.42 25.55 37.08 15.37 37.08 15.37 37.08" stroke-width="0"/>
    <path d="m47.34,26.05h-6.93c-.31,0-.56-.25-.56-.56v-6.93c0-.31.25-.56.56-.56h6.93c.31,0,.56.25.56.56v6.93c0,.31-.25.56-.56.56Zm-6.37-1.12h5.81v-5.81h-5.81v5.81Z" stroke-width="0"/>
    <path d="m57.59,26.05h-6.93c-.31,0-.56-.25-.56-.56v-6.93c0-.31.25-.56.56-.56h6.93c.31,0,.56.25.56.56v6.93c0,.31-.25.56-.56.56Zm-6.37-1.12h5.81v-5.81h-5.81v5.81Z" stroke-width="0"/>
    <path d="m47.34,36.04h-6.93c-.31,0-.56-.25-.56-.56v-6.93c0-.31.25-.56.56-.56h6.93c.31,0,.56.25.56.56v6.93c0,.31-.25.56-.56.56Zm-6.37-1.12h5.81v-5.81h-5.81v5.81Z" stroke-width="0"/>
    <path d="m57.59,36.04h-6.93c-.31,0-.56-.25-.56-.56v-6.93c0-.31.25-.56.56-.56h6.93c.31,0,.56.25.56.56v6.93c0,.31-.25.56-.56.56Zm-6.37-1.12h5.81v-5.81h-5.81v5.81Z" stroke-width="0"/>
    <path d="m47.34,46.02h-6.93c-.31,0-.56-.25-.56-.56v-6.93c0-.31.25-.56.56-.56h6.93c.31,0,.56.25.56.56v6.93c0,.31-.25.56-.56.56Zm-6.37-1.12h5.81v-5.81h-5.81v5.81Z" stroke-width="0"/>
    <path d="m57.59,46.02h-6.93c-.31,0-.56-.25-.56-.56v-6.93c0-.31.25-.56.56-.56h6.93c.31,0,.56.25.56.56v6.93c0,.31-.25.56-.56.56Zm-6.37-1.12h5.81v-5.81h-5.81v5.81Z" stroke-width="0"/>
    <path d="m63.26,9.98H9.25c-.83,0-1.5.67-1.5,1.5v42.54c0,.83.67,1.5,1.5,1.5h25.44v6.38h-9.12c-.83,0-1.5.67-1.5,1.5s.67,1.5,1.5,1.5h21.13c.83,0,1.5-.67,1.5-1.5s-.67-1.5-1.5-1.5h-9v-6.38h25.56c.83,0,1.5-.67,1.5-1.5V11.48c0-.83-.67-1.5-1.5-1.5Zm-52.5,3h51v39.54H10.75V12.98Zm.16,14.2" stroke-width="0"/>
    <rect x=".03" y=".36" width="71.28" height="71.28" fill="none" stroke-width="0"/>
</svg>