<?xml version="1.0" encoding="UTF-8"?>
<svg id="Layer_1" xmlns="http://www.w3.org/2000/svg" version="1.1" viewBox="0 0 72 72">
  <!-- Generator: Adobe Illustrator 29.0.1, SVG Export Plug-In . SVG Version: 2.1.0 Build 192)  -->
  <path d="M47.3,28h-5.6c-.2,0-.4-.2-.4-.4v-5.5c0-.2.2-.4.4-.4h5.6c.2,0,.4.2.4.4v5.5c0,.2-.2.4-.4.4ZM42.2,27.1h4.6v-4.6h-4.6v4.6Z"/>
  <path d="M55.5,28h-5.6c-.2,0-.4-.2-.4-.4v-5.5c0-.2.2-.4.4-.4h5.6c.2,0,.4.2.4.4v5.5c0,.2-.2.4-.4.4ZM50.4,27.1h4.6v-4.6h-4.6v4.6Z"/>
  <path d="M47.3,36h-5.6c-.2,0-.4-.2-.4-.4v-5.5c0-.2.2-.4.4-.4h5.6c.2,0,.4.2.4.4v5.5c0,.2-.2.4-.4.4ZM42.2,35.1h4.6v-4.6h-4.6v4.6Z"/>
  <path d="M55.5,36h-5.6c-.2,0-.4-.2-.4-.4v-5.5c0-.2.2-.4.4-.4h5.6c.2,0,.4.2.4.4v5.5c0,.2-.2.4-.4.4ZM50.4,35.1h4.6v-4.6h-4.6v4.6Z"/>
  <path d="M47.3,44h-5.6c-.2,0-.4-.2-.4-.4v-5.5c0-.2.2-.4.4-.4h5.6c.2,0,.4.2.4.4v5.5c0,.2-.2.4-.4.4ZM42.2,43.1h4.6v-4.6h-4.6v4.6Z"/>
  <path d="M55.5,44h-5.6c-.2,0-.4-.2-.4-.4v-5.5c0-.2.2-.4.4-.4h5.6c.2,0,.4.2.4.4v5.5c0,.2-.2.4-.4.4ZM50.4,43.1h4.6v-4.6h-4.6v4.6Z"/>
  <path d="M29.8,25.8l-2.1-2.1c-.3-.3-.8-.3-1,0l-12.2,12.2c0,0-.1.2-.2.2l-1.5,3.6c-.1.3,0,.6.2.8.1.1.3.2.5.2s.2,0,.3,0l3.6-1.5c0,0,.2,0,.2-.2l12.2-12.2c.1-.1.2-.3.2-.5,0-.2,0-.4-.2-.5h0ZM16.7,38l-1.8.8.8-1.8,9.1-9.2,1.1,1-9.1,9.2h0ZM26.7,27.9l-1.1-1,1.5-1.6,1.1,1-1.5,1.6Z"/>
  <path d="M62.9,10H8.9c-.8,0-1.5.7-1.5,1.5v42.5c0,.8.7,1.5,1.5,1.5h25.4v6.4h-9.1c-.8,0-1.5.7-1.5,1.5s.7,1.5,1.5,1.5h21.1c.8,0,1.5-.7,1.5-1.5s-.7-1.5-1.5-1.5h-9v-6.4h25.6c.8,0,1.5-.7,1.5-1.5V11.5c0-.8-.7-1.5-1.5-1.5h0ZM10.4,24.7c.3-1.6,1.7-2.8,3.4-2.8h15.1c1.9,0,3.4,1.5,3.4,3.4v15.1c0,1.9-1.5,3.4-3.4,3.4h-15.1c-1.7,0-3.1-1.2-3.4-2.8v-16.3ZM61.4,52.5H10.4v-8c.9.8,2.1,1.2,3.4,1.2h15.1c3,0,5.4-2.4,5.4-5.4v-15.1c0-3-2.4-5.4-5.4-5.4h-15.1c-1.3,0-2.4.5-3.4,1.2v-8.2h51v39.5Z"/>
</svg>