<?xml version="1.0" encoding="UTF-8"?>
<svg id="Layer_1" xmlns="http://www.w3.org/2000/svg" version="1.1" viewBox="0 0 72 72">
  <!-- Generator: Adobe Illustrator 29.0.1, SVG Export Plug-In . SVG Version: 2.1.0 Build 192)  -->
  <path d="M48.1,28h-5.5c-.2,0-.4-.2-.4-.4v-5.6c0-.2.2-.4.4-.4h5.5c.2,0,.4.2.4.4v5.6c0,.2-.2.4-.4.4ZM43,27.1h4.6v-4.6h-4.6v4.6Z"/>
  <path d="M56.3,28h-5.5c-.2,0-.4-.2-.4-.4v-5.6c0-.2.2-.4.4-.4h5.5c.2,0,.4.2.4.4v5.6c0,.2-.2.4-.4.4ZM51.2,27.1h4.6v-4.6h-4.6v4.6Z"/>
  <path d="M48.1,36h-5.5c-.2,0-.4-.2-.4-.4v-5.5c0-.2.2-.4.4-.4h5.5c.2,0,.4.2.4.4v5.5c0,.2-.2.4-.4.4ZM43,35.1h4.6v-4.6h-4.6v4.6Z"/>
  <path d="M56.3,36h-5.5c-.2,0-.4-.2-.4-.4v-5.5c0-.2.2-.4.4-.4h5.5c.2,0,.4.2.4.4v5.5c0,.2-.2.4-.4.4ZM51.2,35.1h4.6v-4.6h-4.6v4.6Z"/>
  <path d="M48.1,43.9h-5.5c-.2,0-.4-.2-.4-.4v-5.5c0-.2.2-.4.4-.4h5.5c.2,0,.4.2.4.4v5.5c0,.2-.2.4-.4.4ZM43,43.1h4.6v-4.6h-4.6v4.6Z"/>
  <path d="M56.3,43.9h-5.5c-.2,0-.4-.2-.4-.4v-5.5c0-.2.2-.4.4-.4h5.5c.2,0,.4.2.4.4v5.5c0,.2-.2.4-.4.4ZM51.2,43.1h4.6v-4.6h-4.6v4.6Z"/>
  <path d="M63.2,9.9H9.2c-.8,0-1.5.7-1.5,1.5v42.5c0,.8.7,1.5,1.5,1.5h25.4v6.4h-9.1c-.8,0-1.5.7-1.5,1.5s.7,1.5,1.5,1.5h21.1c.8,0,1.5-.7,1.5-1.5s-.7-1.5-1.5-1.5h-9v-6.4h25.6c.8,0,1.5-.7,1.5-1.5V11.4c0-.8-.7-1.5-1.5-1.5ZM10.7,33.2h4.3c0,1.9.3,3.7.6,5.3h-4.3c-.2-.4-.4-.9-.6-1.4v-3.9h0ZM16.1,40c.6,1.8,1.4,3.4,2.4,4.5-2.5-.8-4.6-2.4-6.2-4.5h3.8,0ZM17.7,40h4v5c-1.6-.5-3-2.3-4-5ZM17.2,38.5c-.4-1.6-.7-3.4-.7-5.3h5.1v5.3h-4.4ZM16.5,31.7c0-1.8.3-3.5.7-4.9h4.4v5s-5.1,0-5.1,0ZM17.7,25.2c.9-2.7,2.4-4.6,4-5.1v5.1h-4ZM16.1,25.2h-3.8c1.5-2.1,3.7-3.7,6.2-4.5-1,1.1-1.8,2.7-2.4,4.5h0ZM15.7,26.7c-.4,1.5-.6,3.2-.6,4.9h-4.3v-3.6c.2-.5.4-.9.6-1.4,0,0,4.3,0,4.4,0ZM61.7,52.4H10.7v-12.1c2.5,3.8,6.8,6.3,11.7,6.3,7.7,0,14-6.3,14-14s-6.3-14-14-14-9.2,2.5-11.7,6.3v-12h51v39.5ZM29.1,38.5c.4-1.6.6-3.4.6-5.3h5.1c0,1.9-.6,3.7-1.5,5.3h-4.3ZM32.5,40c-1.5,2.1-3.7,3.7-6.2,4.5,1-1.1,1.8-2.7,2.4-4.5,0,0,3.8,0,3.8,0ZM29.8,31.7c0-1.8-.3-3.4-.6-5h4.4c.8,1.5,1.3,3.2,1.4,5,0,0-5.1,0-5.1,0ZM28.7,25.3c-.6-1.9-1.4-3.4-2.4-4.5,2.5.8,4.7,2.4,6.2,4.5h-3.8,0ZM27.1,25.3h-4v-5.1c1.6.5,3,2.4,4,5.1ZM27.6,26.7c.4,1.5.6,3.2.7,5h-5.1v-5s4.4,0,4.4,0ZM28.3,33.2c0,1.9-.3,3.7-.7,5.3h-4.4v-5.3h5.1,0ZM27.1,40c-.9,2.7-2.4,4.6-4,5v-5h4Z"/>
</svg>