<?xml version="1.0" encoding="UTF-8"?>
<svg xmlns="http://www.w3.org/2000/svg" viewBox="0 0 72 72">
    <path d="M47.25,26.78h-6.93c-.31,0-.56-.25-.56-.56v-6.94c0-.31,.25-.56,.56-.56h6.93c.31,0,.56,.25,.56,.56v6.94c0,.31-.25,.56-.56,.56Zm-6.37-1.12h5.81v-5.81h-5.81v5.81Z"/>
    <path d="M57.5,26.78h-6.93c-.31,0-.56-.25-.56-.56v-6.94c0-.31,.25-.56,.56-.56h6.93c.31,0,.56,.25,.56,.56v6.94c0,.31-.25,.56-.56,.56Zm-6.37-1.12h5.81v-5.81h-5.81v5.81Z"/>
    <path d="M47.25,36.76h-6.93c-.31,0-.56-.25-.56-.56v-6.93c0-.31,.25-.56,.56-.56h6.93c.31,0,.56,.25,.56,.56v6.93c0,.31-.25,.56-.56,.56Zm-6.37-1.12h5.81v-5.81h-5.81v5.81Z"/>
    <path d="M57.5,36.76h-6.93c-.31,0-.56-.25-.56-.56v-6.93c0-.31,.25-.56,.56-.56h6.93c.31,0,.56,.25,.56,.56v6.93c0,.31-.25,.56-.56,.56Zm-6.37-1.12h5.81v-5.81h-5.81v5.81Z"/>
    <path d="M47.25,46.75h-6.93c-.31,0-.56-.25-.56-.56v-6.93c0-.31,.25-.56,.56-.56h6.93c.31,0,.56,.25,.56,.56v6.93c0,.31-.25,.56-.56,.56Zm-6.37-1.12h5.81v-5.81h-5.81v5.81Z"/>
    <path d="M57.5,46.75h-6.93c-.31,0-.56-.25-.56-.56v-6.93c0-.31,.25-.56,.56-.56h6.93c.31,0,.56,.25,.56,.56v6.93c0,.31-.25,.56-.56,.56Zm-6.37-1.12h5.81v-5.81h-5.81v5.81Z"/>
    <path d="M25.65,41.17H11.73c-.14,0-.28-.06-.38-.16-.1-.1-.15-.24-.15-.39,.02-.61,.09-2.6,.12-2.86,.05-.33,.12-.9,.86-1.32,.77-.44,1.52-.76,2.12-1.03,.59-.26,1.1-.48,1.38-.69,.1-.16,.34-1.17,.31-1.48-.05-.19-.55-.87-.72-1.09-.09-.12-.15-.21-.19-.26-.13-.2-.49-.74-.49-1.38,0-.26,.03-.39,.06-.52,.02-.08,.04-.15,.04-.39,0-.63,0-1.05,.32-2.36,.15-.63,.65-1.33,1.18-1.66,.38-.24,.59-.24,.88-.21,.21,.02,.56,.05,1.51-.16,.98-.22,2.1,.31,2.76,.83,.66,.52,1.03,1.12,1.04,1.69,.02,.8,.14,1.37,.24,1.83,.07,.31,.12,.55,.12,.78,0,.6-.3,1.27-.49,1.55-.76,1.12-.85,1.42-.86,1.48-.01,.23,.19,1.13,.33,1.36,.37,.25,.89,.49,1.49,.76,.59,.27,1.26,.57,1.98,.96,.72,.39,.82,1,.86,1.29,.04,.29,.11,2.28,.13,2.89,0,.14-.05,.28-.15,.39-.1,.1-.24,.16-.38,.16Zm-13.38-1.06h12.83c-.04-1.04-.08-2.05-.1-2.19-.04-.25-.06-.41-.32-.55-.69-.37-1.34-.67-1.92-.93-.74-.33-1.32-.6-1.72-.9-.53-.29-.73-2.04-.72-2.25,.02-.38,.3-.92,.98-1.93,.16-.24,.36-.71,.36-1.04,0-.11-.04-.32-.1-.55-.1-.48-.25-1.13-.27-2.04,0-.19-.2-.53-.64-.87-.61-.48-1.37-.73-1.87-.62-1.11,.25-1.57,.21-1.84,.18-.04,0-.07,0-.1,0,0,0-.03,.01-.11,.06-.3,.19-.63,.66-.72,1.02-.29,1.19-.29,1.51-.29,2.01v.1c0,.34-.03,.49-.07,.64-.02,.08-.03,.12-.03,.27,0,.33,.22,.65,.31,.79,.03,.04,.09,.12,.16,.21,.58,.77,.9,1.26,.93,1.64,.03,.42-.22,2.02-.73,2.41-.38,.29-.92,.53-1.6,.82-.61,.27-1.3,.57-2.03,.98-.27,.15-.29,.28-.32,.48-.03,.2-.07,1.22-.11,2.26Zm9.35-5.46s.05,.04,.07,.05c-.02-.02-.04-.03-.07-.05Z"/>
    <path d="M30.62,27.22h-5.6c-.29,0-.53-.24-.53-.53s.24-.53,.53-.53h5.6c.29,0,.53,.24,.53,.53s-.24,.53-.53,.53Z"/>
    <path d="M30.62,29.58h-5.6c-.29,0-.53-.24-.53-.53s.24-.53,.53-.53h5.6c.29,0,.53,.24,.53,.53s-.24,.53-.53,.53Z"/>
    <path d="M30.62,31.94h-5.6c-.29,0-.53-.24-.53-.53s.24-.53,.53-.53h5.6c.29,0,.53,.24,.53,.53s-.24,.53-.53,.53Z"/>
    <path d="M30.62,34.29h-5.6c-.29,0-.53-.24-.53-.53s.24-.53,.53-.53h5.6c.29,0,.53,.24,.53,.53s-.24,.53-.53,.53Z"/>
    <path d="M63.16,9.86H9.16c-.83,0-1.5,.67-1.5,1.5V53.89c0,.83,.67,1.5,1.5,1.5h25.44v6.38h-9.12c-.83,0-1.5,.67-1.5,1.5s.67,1.5,1.5,1.5h21.12c.83,0,1.5-.67,1.5-1.5s-.67-1.5-1.5-1.5h-9v-6.38h25.56c.83,0,1.5-.67,1.5-1.5V11.36c0-.83-.67-1.5-1.5-1.5ZM10.66,24.99c2.45-2.95,6.1-4.7,9.96-4.7,7.14,0,12.96,5.81,12.96,12.96s-5.81,12.96-12.96,12.96c-3.85,0-7.5-1.75-9.96-4.7V24.99Zm51,27.4H10.66v-8.01c2.72,2.42,6.26,3.82,9.96,3.82,8.25,0,14.96-6.71,14.96-14.96s-6.71-14.96-14.96-14.96c-3.7,0-7.24,1.4-9.96,3.82V12.86H61.66V52.39Z"/>
    <rect x=".36" y=".36" width="71.28" height="71.28" fill="none"/>
</svg>
