<?xml version="1.0" encoding="UTF-8"?>
<svg xmlns="http://www.w3.org/2000/svg" viewBox="0 0 72 72">
    <path d="m46.83,26.61h-6.94c-.31,0-.56-.25-.56-.56v-6.93c0-.31.25-.56.56-.56h6.94c.31,0,.56.25.56.56v6.93c0,.31-.25.56-.56.56Zm-6.37-1.12h5.81v-5.81h-5.81v5.81Z" stroke-width="0"/>
    <path d="m57.08,26.61h-6.94c-.31,0-.56-.25-.56-.56v-6.93c0-.31.25-.56.56-.56h6.94c.31,0,.56.25.56.56v6.93c0,.31-.25.56-.56.56Zm-6.37-1.12h5.81v-5.81h-5.81v5.81Z" stroke-width="0"/>
    <path d="m46.83,36.59h-6.94c-.31,0-.56-.25-.56-.56v-6.93c0-.31.25-.56.56-.56h6.94c.31,0,.56.25.56.56v6.93c0,.31-.25.56-.56.56Zm-6.37-1.12h5.81v-5.81h-5.81v5.81Z" stroke-width="0"/>
    <path d="m57.08,36.59h-6.94c-.31,0-.56-.25-.56-.56v-6.93c0-.31.25-.56.56-.56h6.94c.31,0,.56.25.56.56v6.93c0,.31-.25.56-.56.56Zm-6.37-1.12h5.81v-5.81h-5.81v5.81Z" stroke-width="0"/>
    <path d="m46.83,46.58h-6.94c-.31,0-.56-.25-.56-.56v-6.93c0-.31.25-.56.56-.56h6.94c.31,0,.56.25.56.56v6.93c0,.31-.25.56-.56.56Zm-6.37-1.12h5.81v-5.81h-5.81v5.81Z" stroke-width="0"/>
    <path d="m57.08,46.58h-6.94c-.31,0-.56-.25-.56-.56v-6.93c0-.31.25-.56.56-.56h6.94c.31,0,.56.25.56.56v6.93c0,.31-.25.56-.56.56Zm-6.37-1.12h5.81v-5.81h-5.81v5.81Z" stroke-width="0"/>
      <path d="m46.18,64.7h-21.12c-.83,0-1.5-.67-1.5-1.5s.67-1.5,1.5-1.5h9.12v-6.38H8.74c-.83,0-1.5-.67-1.5-1.5V11.29c0-.83.67-1.5,1.5-1.5h54c.83,0,1.5.67,1.5,1.5v42.54c0,.83-.67,1.5-1.5,1.5h-25.57v6.38h9c.83,0,1.5.67,1.5,1.5s-.67,1.5-1.5,1.5Zm-10.5-12.38h25.57V12.79H10.24v39.54h25.44Z" stroke-width="0"/>
    <path d="m35.06,19.11h-13.5c-.3,0-.6.1-.8.4-.2.2-6.8,6.2-6.8,6.2h0c-.2.2-.3.5-.3.7v12c0,.6.5,1.1,1.1,1.1h14.1c.3,0,.6-.1.8-.4,0,0,0-.1.1-.1.8-.9,6-6.5,6.2-6.7s.3-.4.3-.7v-11.5c-.1-.6-.6-1-1.2-1Zm-13.2,2.1h10.5l-3.8,4.1h-11.1l4.4-4.1Zm5.9,16.1h-11.9v-9.8h11.9v9.8Zm2.1-1.7v-8.6c1-1,2.8-3,4.2-4.5v8.6l-4.2,4.5Z" stroke-width="0"/>
    <rect x=".36" y=".36" width="71.28" height="71.28" fill="none" stroke-width="0"/>
</svg>