<?xml version="1.0" encoding="UTF-8"?>
<svg xmlns="http://www.w3.org/2000/svg" viewBox="0 0 72 72">
    <polygon points="21.13 37.82 16.2 32.89 18.11 30.98 21.13 34 27.57 27.56 29.48 29.47 21.13 37.82"/>
    <path d="M47.41,26.8h-6.93c-.31,0-.56-.25-.56-.56v-6.93c0-.31,.25-.56,.56-.56h6.93c.31,0,.56,.25,.56,.56v6.93c0,.31-.25,.56-.56,.56Zm-6.37-1.12h5.81v-5.81h-5.81v5.81Z"/>
    <path d="M57.66,26.8h-6.94c-.31,0-.56-.25-.56-.56v-6.93c0-.31,.25-.56,.56-.56h6.94c.31,0,.56,.25,.56,.56v6.93c0,.31-.25,.56-.56,.56Zm-6.37-1.12h5.81v-5.81h-5.81v5.81Z"/>
    <path d="M47.41,36.79h-6.93c-.31,0-.56-.25-.56-.56v-6.93c0-.31,.25-.56,.56-.56h6.93c.31,0,.56,.25,.56,.56v6.93c0,.31-.25,.56-.56,.56Zm-6.37-1.12h5.81v-5.81h-5.81v5.81Z"/>
    <path d="M57.66,36.79h-6.94c-.31,0-.56-.25-.56-.56v-6.93c0-.31,.25-.56,.56-.56h6.94c.31,0,.56,.25,.56,.56v6.93c0,.31-.25,.56-.56,.56Zm-6.37-1.12h5.81v-5.81h-5.81v5.81Z"/>
    <path d="M47.41,46.77h-6.93c-.31,0-.56-.25-.56-.56v-6.93c0-.31,.25-.56,.56-.56h6.93c.31,0,.56,.25,.56,.56v6.93c0,.31-.25,.56-.56,.56Zm-6.37-1.12h5.81v-5.81h-5.81v5.81Z"/>
    <path d="M57.66,46.77h-6.94c-.31,0-.56-.25-.56-.56v-6.93c0-.31,.25-.56,.56-.56h6.94c.31,0,.56,.25,.56,.56v6.93c0,.31-.25,.56-.56,.56Zm-6.37-1.12h5.81v-5.81h-5.81v5.81Z"/>
    <path d="M63.33,9.98H9.32c-.83,0-1.5,.67-1.5,1.5V54.02c0,.83,.67,1.5,1.5,1.5h25.44v6.38h-9.12c-.83,0-1.5,.67-1.5,1.5s.67,1.5,1.5,1.5h21.12c.83,0,1.5-.67,1.5-1.5s-.67-1.5-1.5-1.5h-9v-6.38h25.57c.83,0,1.5-.67,1.5-1.5V11.48c0-.83-.67-1.5-1.5-1.5Zm-1.5,42.54H10.82v-18.45l.04,.4c.26,2.18,.52,3.68,.84,4.86,.59,2.18,3.73,4.79,9.62,7.99l.37,.2c.14,.08,.29,.12,.44,.12s.31-.04,.44-.12l.37-.2c5.88-3.2,9.03-5.81,9.62-7.99,.32-1.19,.58-2.68,.84-4.88l.99-10.44c.04-.43-.22-.82-.63-.95l-11.36-3.46c-.17-.05-.35-.05-.52,0l-11.04,3.37V12.98H61.83V52.52ZM11.73,24.57l10.4-3.17,10.4,3.17-.92,9.69c-.25,2.09-.5,3.51-.79,4.61-.25,.93-1.71,3.05-8.69,6.85-6.98-3.8-8.44-5.92-8.69-6.85-.3-1.1-.54-2.52-.79-4.58l-.92-9.71Z"/>
    <rect x=".36" y=".36" width="71.28" height="71.28" fill="none"/>
</svg>
