<?xml version="1.0" encoding="UTF-8"?>
<svg id="Layer_1" xmlns="http://www.w3.org/2000/svg" version="1.1" viewBox="0 0 72 72">
  <!-- Generator: Adobe Illustrator 29.0.1, SVG Export Plug-In . SVG Version: 2.1.0 Build 192)  -->
  <path d="M47.5,28h-5.5c-.2,0-.4-.2-.4-.4v-5.5c0-.2.2-.4.4-.4h5.5c.2,0,.4.2.4.4v5.5c0,.2-.2.4-.4.4ZM42.4,27.1h4.6v-4.6h-4.6v4.6Z"/>
  <path d="M55.7,28h-5.5c-.2,0-.4-.2-.4-.4v-5.5c0-.2.2-.4.4-.4h5.5c.2,0,.4.2.4.4v5.5c0,.2-.2.4-.4.4ZM50.6,27.1h4.6v-4.6h-4.6v4.6Z"/>
  <path d="M47.5,36h-5.5c-.2,0-.4-.2-.4-.4v-5.5c0-.2.2-.4.4-.4h5.5c.2,0,.4.2.4.4v5.5c0,.2-.2.4-.4.4ZM42.4,35.1h4.6v-4.6h-4.6v4.6Z"/>
  <path d="M55.7,36h-5.5c-.2,0-.4-.2-.4-.4v-5.5c0-.2.2-.4.4-.4h5.5c.2,0,.4.2.4.4v5.5c0,.2-.2.4-.4.4ZM50.6,35.1h4.6v-4.6h-4.6v4.6Z"/>
  <path d="M47.5,44h-5.5c-.2,0-.4-.2-.4-.4v-5.5c0-.2.2-.4.4-.4h5.5c.2,0,.4.2.4.4v5.5c0,.2-.2.4-.4.4ZM42.4,43.1h4.6v-4.6h-4.6v4.6Z"/>
  <path d="M55.7,44h-5.5c-.2,0-.4-.2-.4-.4v-5.5c0-.2.2-.4.4-.4h5.5c.2,0,.4.2.4.4v5.5c0,.2-.2.4-.4.4ZM50.6,43.1h4.6v-4.6h-4.6v4.6Z"/>
  <path d="M63.1,10H9.1c-.8,0-1.5.7-1.5,1.5v42.5c0,.8.7,1.5,1.5,1.5h25.4v6.4h-9.1c-.8,0-1.5.7-1.5,1.5s.7,1.5,1.5,1.5h21.1c.8,0,1.5-.7,1.5-1.5s-.7-1.5-1.5-1.5h-9v-6.4h25.6c.8,0,1.5-.7,1.5-1.5V11.5c0-.8-.7-1.5-1.5-1.5ZM61.6,52.5H10.6v-22.7l3.1,3.1v6c0,.5.4,1,1,1h9.9v2.1c0,.5.5,1,1,1h9.3c.5,0,1-.5,1-1v-6.3c0-.5-.5-1-1-1h-9.3c-.5,0-1,.5-1,1v2.2h-8.9v-5l4.8-4.8h4.1v2.1c0,.5.5,1,1,1h9.3c.5,0,1-.5,1-1v-6.3c0-.5-.5-1-1-1h-9.3c-.5,0-1,.5-1,1v2.2h-4.1l-5.1-5.1c-.4-.4-1-.4-1.4,0l-3.4,3.4v-11.5h51v39.5h0ZM10.8,27.2l3.9-3.9,3.9,3.9-3.9,3.9s-3.9-3.9-3.9-3.9ZM26.6,41v-4.3h7.3v4.3h-7.3ZM26.6,29.3v-4.3h7.3v4.3h-7.3Z"/>
</svg>