<?xml version="1.0" encoding="UTF-8"?>
<svg xmlns="http://www.w3.org/2000/svg" viewBox="0 0 72 72">
    <path d="M47.83,26.78h-6.93c-.31,0-.56-.25-.56-.56v-6.94c0-.31,.25-.56,.56-.56h6.93c.31,0,.56,.25,.56,.56v6.94c0,.31-.25,.56-.56,.56Zm-6.37-1.12h5.81v-5.81h-5.81v5.81Z"/>
    <path d="M58.08,26.78h-6.93c-.31,0-.56-.25-.56-.56v-6.94c0-.31,.25-.56,.56-.56h6.93c.31,0,.56,.25,.56,.56v6.94c0,.31-.25,.56-.56,.56Zm-6.37-1.12h5.81v-5.81h-5.81v5.81Z"/>
    <path d="M47.83,36.76h-6.93c-.31,0-.56-.25-.56-.56v-6.93c0-.31,.25-.56,.56-.56h6.93c.31,0,.56,.25,.56,.56v6.93c0,.31-.25,.56-.56,.56Zm-6.37-1.12h5.81v-5.81h-5.81v5.81Z"/>
    <path d="M58.08,36.76h-6.93c-.31,0-.56-.25-.56-.56v-6.93c0-.31,.25-.56,.56-.56h6.93c.31,0,.56,.25,.56,.56v6.93c0,.31-.25,.56-.56,.56Zm-6.37-1.12h5.81v-5.81h-5.81v5.81Z"/>
    <path d="M47.83,46.75h-6.93c-.31,0-.56-.25-.56-.56v-6.93c0-.31,.25-.56,.56-.56h6.93c.31,0,.56,.25,.56,.56v6.93c0,.31-.25,.56-.56,.56Zm-6.37-1.12h5.81v-5.81h-5.81v5.81Z"/>
    <path d="M58.08,46.75h-6.93c-.31,0-.56-.25-.56-.56v-6.93c0-.31,.25-.56,.56-.56h6.93c.31,0,.56,.25,.56,.56v6.93c0,.31-.25,.56-.56,.56Zm-6.37-1.12h5.81v-5.81h-5.81v5.81Z"/>
    <path d="M63.75,9.86H9.74c-.83,0-1.5,.67-1.5,1.5V53.89c0,.83,.67,1.5,1.5,1.5h25.44v6.38h-9.12c-.83,0-1.5,.67-1.5,1.5s.67,1.5,1.5,1.5h21.12c.83,0,1.5-.67,1.5-1.5s-.67-1.5-1.5-1.5h-9v-6.38h25.56c.83,0,1.5-.67,1.5-1.5V11.36c0-.83-.67-1.5-1.5-1.5ZM15.47,27.86l-1.61-2.33,1.61-1.6,2.34,1.61c.28,.19,.6,.28,.93,.28,.25,0,.5-.06,.73-.17,.29-.14,.59-.27,.9-.37,.56-.19,.98-.67,1.09-1.25l.51-2.94h2.28s.51,2.94,.51,2.94c.12,.58,.53,1.05,1.09,1.25,.31,.11,.61,.23,.9,.37,.23,.11,.48,.17,.73,.17,.33,0,.65-.09,.93-.28l2.35-1.62,1.61,1.6-1.62,2.34c-.33,.49-.37,1.12-.11,1.65,.14,.29,.27,.59,.38,.9,.19,.56,.67,.97,1.25,1.09l2.77,.51v2.27s-2.77,.51-2.77,.51c-.58,.12-1.06,.53-1.25,1.09-.11,.31-.23,.61-.37,.9-.26,.53-.22,1.16,.11,1.65l1.58,2.3-1.61,1.6-2.31-1.58c-.28-.19-.6-.28-.93-.28-.25,0-.5,.06-.73,.17-.29,.14-.59,.27-.9,.37-.56,.19-.98,.67-1.09,1.25l-.52,2.77h-2.28l-.51-2.77c-.12-.58-.53-1.05-1.09-1.25-.31-.11-.61-.23-.9-.37-.23-.11-.48-.17-.73-.17-.33,0-.65,.09-.93,.28l-2.3,1.57-1.61-1.6,1.57-2.29c.33-.49,.37-1.12,.11-1.65-.14-.29-.27-.59-.38-.9-.19-.56-.67-.97-1.25-1.09l-2.72-.46v-2.37l2.72-.46c.58-.12,1.06-.53,1.25-1.09,.11-.31,.23-.61,.37-.9,.26-.53,.22-1.16-.11-1.65Zm46.77,24.53H11.24v-16.39l2.29,.46c.13,.37,.28,.74,.45,1.09l-1.47,2.19c-.45,.67-.36,1.56,.21,2.13l1.63,1.62c.33,.33,.76,.49,1.2,.49,.33,0,.65-.09,.94-.28l2.21-1.46c.35,.17,.72,.32,1.09,.45l.52,2.58c.16,.79,.85,1.36,1.66,1.36h2.3c.81,0,1.5-.57,1.66-1.36l.52-2.58c.38-.13,.74-.28,1.09-.45l2.21,1.46c.29,.19,.61,.28,.94,.28,.44,0,.87-.17,1.2-.49l1.63-1.62c.57-.57,.66-1.46,.21-2.13l-1.47-2.19c.17-.35,.32-.71,.45-1.09l2.6-.52c.79-.16,1.36-.85,1.36-1.65v-2.29c0-.8-.57-1.49-1.36-1.65l-2.6-.52c-.13-.37-.28-.74-.45-1.09l1.47-2.19c.45-.67,.36-1.56-.21-2.13l-1.63-1.62c-.33-.33-.76-.49-1.2-.49-.32,0-.65,.09-.94,.28l-2.21,1.46c-.35-.17-.72-.32-1.09-.45l-.52-2.58c-.16-.79-.85-1.35-1.66-1.35h-2.3c-.81,0-1.5,.57-1.66,1.35l-.52,2.58c-.38,.13-.74,.28-1.09,.45l-2.21-1.46c-.29-.19-.61-.28-.94-.28-.44,0-.87,.17-1.2,.49l-1.63,1.62c-.57,.57-.66,1.46-.21,2.13l1.47,2.19c-.17,.35-.32,.71-.45,1.09l-2.29,.45V12.86H62.25V52.39Z" fill-rule="evenodd"/>
    <path d="M23.13,38.02c2.7,0,4.9-2.19,4.9-4.87s-2.2-4.87-4.9-4.87-4.9,2.19-4.9,4.87,2.2,4.87,4.9,4.87Zm0-8.1c1.79,0,3.25,1.45,3.25,3.22s-1.46,3.22-3.25,3.22-3.25-1.45-3.25-3.22,1.46-3.22,3.25-3.22Z" fill-rule="evenodd"/>
    <rect x=".36" y=".36" width="71.28" height="71.28" fill="none"/>
</svg>
