<?xml version="1.0" encoding="UTF-8"?>
<svg xmlns="http://www.w3.org/2000/svg" width="72" height="72" viewBox="0 0 72 72">
  <g id="SVG_icons" data-name="SVG icons">
    <path d="M52.74,54.17c-.38,0-.77-.15-1.06-.44L18.07,20.12c-.59-.59-.59-1.54,0-2.12.59-.59,1.54-.59,2.12,0l33.61,33.61c.59.59.59,1.54,0,2.12-.29.29-.68.44-1.06.44Z"/>
    <g>
      <path d="M41.74,30.07l3.46-3.06c1.15-1.15,3.74-.61,5,.63,1.26,1.24,1.78,3.82.63,5l-7.47,7.47,2.1,2.09,7.48-7.48c2.45-2.45,1.69-6.89-.64-9.21-2.33-2.32-6.76-3.07-9.21-.62l-3.48,3.07c.86.53,1.59,1.25,2.14,2.1Z"/>
      <path d="M39.72,42.84c-1.2.09-2.63-.42-3.48-1.24-.85-.83-1.35-2.27-1.24-3.48l-2.4-2.4c-1.29,2.51-.44,6,1.52,7.97,1.97,1.98,5.46,2.81,7.97,1.52l-2.38-2.38Z"/>
    </g>
    <g>
      <path d="M30.17,26.92c.62.03,1.23.16,1.74.4,1.3.64,2.38,2.29,2.35,3.68l2.4,2.4.09-.18c1.56-3.09-.54-7.06-3.48-8.55-1.69-.85-3.87-1-5.72-.38l2.62,2.62Z"/>
      <path d="M28.89,42.24l-1.36,2.41c-.73,1.45-3.37,1.74-4.95.96-1.58-.78-2.89-3.08-2.17-4.55l5.93-11.59-2.2-2.2-6.33,12.49c-1.56,3.09.54,7.06,3.48,8.55,2.94,1.49,7.41.78,8.93-2.31l1.36-2.41c-.51-.14-1-.33-1.47-.57-.43-.22-.85-.48-1.23-.79Z"/>
    </g>
  </g>
  <g id="Rectangles">
    <rect x=".36" y=".36" width="71.28" height="71.28" fill="none"/>
  </g>
</svg>