<?xml version="1.0" encoding="UTF-8"?>
<svg id="Layer_1" xmlns="http://www.w3.org/2000/svg" version="1.1" viewBox="0 0 72 72">
  <!-- Generator: Adobe Illustrator 29.0.1, SVG Export Plug-In . SVG Version: 2.1.0 Build 192)  -->
  <path d="M60.6,10.2H27.6c-.3,0-.7.1-1,.4l-15.6,12.8c-.3.2-.4.5-.5.8-.1.2-.2.5-.2.8v34.4c0,.8.7,1.5,1.5,1.5h35.5c.6,0,1.1-.3,1.3-.8h0l13-14.4c.3-.3.4-.6.4-1V11.7c0-.8-.7-1.5-1.5-1.5h0ZM28.1,13.2h29.1l-10.3,10.2H15.7l12.5-10.2h-.1ZM45.8,57.8H13.3v-31.4h32.5v31.4ZM48.8,55.3v-29.6l10.2-10.2v28.4l-10.2,11.3h0Z"/>
</svg>