<?xml version="1.0" encoding="UTF-8"?>
<svg xmlns="http://www.w3.org/2000/svg" viewBox="0 0 72 72">
    <polygon points="40.82 43.98 40.82 41.39 56.73 41.39 56.73 43.97 40.82 43.97 40.82 43.98" stroke-width="0"/>
    <polygon points="40.82 37.81 40.82 35.22 56.73 35.22 56.73 37.81 40.82 37.81 40.82 37.81" stroke-width="0"/>
    <polygon points="40.82 31.81 40.82 29.22 56.73 29.22 56.73 31.81 40.82 31.81 40.82 31.81" stroke-width="0"/>
    <polygon points="40.82 25.65 40.82 23.06 56.73 23.06 56.73 25.64 40.82 25.64 40.82 25.65" stroke-width="0"/>
    <polygon points="40.82 49.81 40.82 47.22 56.73 47.22 56.73 49.81 40.82 49.81 40.82 49.81" stroke-width="0"/>
    <path d="m60.28,11.8H11.62c-2.41,0-4.36,1.96-4.36,4.37v40.17c0,2.41,1.96,4.37,4.36,4.37h48.66c2.41,0,4.36-1.96,4.36-4.37V16.17c0-2.41-1.96-4.37-4.36-4.37Zm.86,44.54c0,.48-.39.87-.86.87H11.62c-.48,0-.86-.39-.86-.87v-23.88l4.22,4.22v5.96c0,.55.45,1,1,1h10.17v2.09c0,.55.45,1,1,1h9.26c.55,0,1-.45,1-1v-6.32c0-.55-.45-1-1-1h-9.26c-.55,0-1,.45-1,1v2.23h-9.17v-4.97l4.77-4.77h4.4v2.11c0,.55.45,1,1,1h9.26c.55,0,1-.45,1-1v-6.32c0-.55-.45-1-1-1h-9.26c-.55,0-1,.45-1,1v2.21h-4.4l-5.07-5.06c-.38-.38-1.04-.38-1.41,0l-4.51,4.51v-13.18c0-.48.39-.87.86-.87h48.66c.48,0,.86.39.86.87v40.17ZM12.03,30.91l3.94-3.94,3.94,3.94-3.94,3.94-3.94-3.94Zm16.11,13.83v-4.32h7.26v4.32h-7.26Zm0-11.71v-4.32h7.26v4.32h-7.26Z" stroke-width="0"/>
    <rect x=".36" y=".36" width="71.28" height="71.28" fill="none" stroke-width="0"/>
</svg>