<?xml version="1.0" encoding="UTF-8"?>
<svg id="Layer_1" xmlns="http://www.w3.org/2000/svg" version="1.1" viewBox="0 0 72 72">
  <!-- Generator: Adobe Illustrator 29.0.1, SVG Export Plug-In . SVG Version: 2.1.0 Build 192)  -->
  <g id="SVG_icons">
    <path d="M35.9,7.4c-15.8,0-28.6,12.8-28.6,28.6s12.8,28.6,28.6,28.6,28.6-12.8,28.6-28.6S51.7,7.4,35.9,7.4ZM48.6,13.8c-.7-.2-1.3-.4-2-.5,0-.3-.3-.5-.5-.8.9.4,1.7.8,2.5,1.3h0ZM38.1,10.6c.2.6.2,1,.2,1.4-5.2.8-10.2,2.6-14.6,5.5-.2.1-.3.4-.2.6,0,.2.3.4.6.3,4.2-.8,8.4-.7,12.4.2-.7,3-1.2,5.9-1,9s0,.4.3.5c.2,0,.4,0,.6-.2,1.9-2.5,4.4-4.7,7.3-6.4,2.9,1.7,5.4,4,7.2,6.6,0,.1.2.2.4.2s0,0,0,0c.2,0,.3-.2.4-.5,0-3-.2-6-.8-9,.9,0,2.6.1,4.6.8,3.8,4.5,6,10.2,6,16.5s-3.4,8.1-4.4,8.8c-3.1,2.3-12.1,2.9-24.3-1.2s-18-10.2-19.9-12.7-1-3.8-.7-4.5c3.8-9.4,13-16,23.7-16,0,0,1.4,0,2.1.1h0ZM10,38.3c-.2-2.6,0-2.9.6-1.5,1.3,2.7,6.8,10.7,18.9,14.3,18.4,5.5,26.2.5,26.7.6-16.7,19.6-44.3,6.6-46.2-13.5h0Z"/>
  </g>
</svg>