<?xml version="1.0" encoding="UTF-8"?>
<svg xmlns="http://www.w3.org/2000/svg" viewBox="0 0 72 72">
    <polygon points="40.95 43.98 40.95 41.39 56.85 41.39 56.85 43.97 40.95 43.97 40.95 43.98" stroke-width="0"/>
    <polygon points="40.95 37.81 40.95 35.22 56.85 35.22 56.85 37.81 40.95 37.81 40.95 37.81" stroke-width="0"/>
    <polygon points="40.95 31.81 40.95 29.22 56.85 29.22 56.85 31.81 40.95 31.81 40.95 31.81" stroke-width="0"/>
    <polygon points="40.95 25.65 40.95 23.06 56.85 23.06 56.85 25.64 40.95 25.64 40.95 25.65" stroke-width="0"/>
    <polygon points="40.95 49.81 40.95 47.22 56.85 47.22 56.85 49.81 40.95 49.81 40.95 49.81" stroke-width="0"/>
    <path d="m60.4,11.8H11.75c-2.41,0-4.36,1.96-4.36,4.37v40.17c0,2.41,1.96,4.37,4.36,4.37h48.66c2.41,0,4.36-1.96,4.36-4.37V16.17c0-2.41-1.96-4.37-4.36-4.37ZM10.88,35.59h6.27v5.04h-6.27v-5.04Zm50.39,20.75c0,.48-.39.87-.86.87H11.75c-.48,0-.86-.39-.86-.87v-14.61h2.46v.62h-1.47v1.1h4.02v-1.1h-1.45v-.62h3.26c.3,0,.55-.25.55-.55v-2.35h3.29v7.4c0,.41.34.75.75.75h6.08v1.41h-2.86v1.5h7.19v-1.5h-2.83v-1.41h6.11c.41,0,.75-.34.75-.75v-11.06c0-.41-.34-.75-.75-.75h-13.69c-.41,0-.75.34-.75.75v2.56h-3.29v-2.69c0-.3-.25-.55-.55-.55h-3.29v-7.05h3.91v2.46c0,.3.25.55.55.55h3.24v.62h-1.47v1.1h4.02v-1.1h-1.45v-.62h3.26c.3,0,.55-.25.55-.55v-2.46h2.54v2.46c0,.3.25.55.55.55h3.24v.62h-1.47v1.1h4.02v-1.1h-1.45v-.62h3.26c.3,0,.55-.25.55-.55v-6.14c0-.3-.25-.55-.55-.55h-7.6c-.3,0-.55.25-.55.55v2.58h-2.54v-2.58c0-.3-.25-.55-.55-.55h-7.6c-.3,0-.55.25-.55.55v2.58h-4.46c-.3,0-.55.25-.55.55v7.6h-2.43v-18.32c0-.48.39-.87.86-.87h48.66c.48,0,.86.39.86.87v40.17Zm-38.22-10.85v-9.56h12.19v9.56h-12.19Zm-3.62-16.13v-5.04h6.5v5.04h-6.5Zm11.24,0v-5.04h6.5v5.04h-6.5Z" stroke-width="0"/>
    <rect x=".36" y=".36" width="71.28" height="71.28" fill="none" stroke-width="0"/>
</svg>