<?xml version="1.0" encoding="UTF-8"?>
<svg id="Layer_1" xmlns="http://www.w3.org/2000/svg" version="1.1" viewBox="0 0 72 72">
  <!-- Generator: Adobe Illustrator 29.0.1, SVG Export Plug-In . SVG Version: 2.1.0 Build 192)  -->
  <g id="SVG_icons">
    <path d="M36,7.4c-15.8,0-28.6,12.8-28.6,28.6s12.8,28.6,28.6,28.6,28.6-12.8,28.6-28.6S51.8,7.4,36,7.4ZM59.9,40.3c.6-.2,1.2-.6,1.5-1,0,.3,0,.6,0,.9-.4,0-.8.2-1.1.3,0,0-.2,0-.2-.2h-.1ZM45.8,11.9c0,.2.2,1,.5,1.1.2,0,.9.4,1.8.6-.2.2-.3.4-.5.5-1,0-2.1-.4-2.6-.6-.2-.1-.5,0-.7.2s0,.6.2.7c.2,0,.9.4,1.9.6-.4.3-.8.5-1.2.8-.8-.2-1.7-.6-2.1-.8-.2-.1-.5,0-.7.2,0,.2,0,.6.2.7,0,0,.7.4,1.4.6-.4.2-.9.5-1.3.7-.8-.3-1.7-.9-2-1.2-.2-.2-.5-.2-.7,0-.2.2-.2.5,0,.7,0,.1.7.6,1.5,1-.5.2-.9.4-1.4.6-.9-.3-1.9-1-2.3-1.3-.2-.2-.5-.2-.7,0s-.2.5,0,.7c0,.1.8.6,1.6,1.1-.5.2-1,.4-1.5.5-.8-.5-1.6-1.3-1.9-1.7-.2-.2-.5-.3-.7,0s-.3.5,0,.7c0,.1.7.8,1.4,1.4-.5.2-1.1.3-1.7.5-.8-.5-1.6-1.4-1.9-1.8-.2-.2-.5-.3-.7-.1-.2.2-.3.5-.1.7.1.1.7.9,1.4,1.5h-.3c-.4,0-.7.1-1.1.2-.8-.5-1.6-1.4-1.8-1.8-.1-.2-.5-.3-.7-.1-.2.1-.3.5-.1.7,0,.1.6.9,1.3,1.5-.5,0-1.1.2-1.6.2-.6-.6-1.1-1.5-1.3-1.9-.1-.2-.4-.4-.7-.2s-.4.4-.2.7c0,.1.4.9,1,1.6-.4,0-.9,0-1.3.1-.6-.6-1.2-1.5-1.4-2-.1-.2-.4-.4-.7-.2s-.4.4-.2.7c0,.1.4.9,1,1.6h-1.5c-.5-.7-.9-1.7-1-2.1,0-.3-.4-.4-.6-.4-.3,0-.4.4-.4.6s.3,1,.8,1.9h-1.7c-.5-.7-.9-1.7-1-2.1,0-.3-.4-.4-.6-.4-.3,0-.4.4-.4.6s.3.9.7,1.7c-.3,0-.6,0-.9-.1-.5-.8-.7-1.9-.8-2.4,0-.2-.1-.3-.2-.4,11.2-11.7,23.5-8,28.5-6.6ZM16.4,20.9c-.2-.2-.3-.5-.4-.8.2-.2.4-.5.6-.7,0,.4.2,1,.5,1.7-.2,0-.5-.1-.7-.2h0ZM13.8,23.3c.4-.3,1-.5,1.6-.6.1,0,.2,0,.3.1-.6.3-1.2.8-1.5,1.4s0,.5.2.7h.2c.2,0,.4-.1.5-.3.3-.7,1.4-1.1,2.3-1.4.4,0,.7.1,1.1.2-.7.4-1.4,1-1.6,1.8,0,.3,0,.5.4.6h.1c.2,0,.4-.1.5-.4.2-.8,1.5-1.5,2.5-1.9h.7c-.6.4-1,.9-1.2,1.6,0,.3,0,.5.4.6h.1c.2,0,.4-.1.5-.4.2-.8,1.4-1.4,2.3-1.8h1.2c-.6.5-1.1,1.2-1.2,1.9,0,.3.2.5.4.5h0c.2,0,.5-.2.5-.4,0-.8,1.1-1.6,2-2.1h.7c-.6.5-1,1.2-1.1,1.9,0,.3.2.5.4.5h0c.2,0,.5-.2.5-.4.1-.9,1.3-1.8,2.2-2.2.3,0,.7,0,1-.1-.5.6-.8,1.3-.8,2s.2.5.5.5h0c.3,0,.5-.2.5-.5,0-.8.7-1.6,1.4-2.3.4,0,.8-.1,1.1-.2-.4.6-.8,1.3-.7,2,0,.3.2.5.5.5h0c.3,0,.5-.3.5-.5,0-.8.6-1.6,1.3-2.3.5-.1,1-.2,1.4-.4-.4.6-.7,1.4-.6,2.1,0,.2.2.4.5.4h0c.3,0,.5-.3.4-.6,0-.8.6-1.7,1.3-2.4.6-.2,1.1-.4,1.6-.5-.3.8-.5,1.6-.3,2.3,0,.2.3.3.5.3h.2c.3,0,.4-.4.3-.6-.2-.7.2-1.7.8-2.5.5-.2,1-.4,1.5-.6-.4.8-.6,1.7-.3,2.4,0,.2.3.3.5.3h.2c.3,0,.4-.4.3-.6-.3-.8.4-2,1-2.9.6-.3,1.1-.6,1.6-.8-.3.9-.4,1.9,0,2.7,0,.2.3.3.5.2h.2c.2-.1.3-.4.2-.7-.4-.8,0-2.1.4-3.1.2-.1.5-.3.7-.5,0,.8,0,1.6.4,2.3,0,.1.2.2.4.2h.3c.2-.2.3-.5,0-.7-.4-.6-.3-1.7,0-2.6.2-.1.3-.3.5-.4,0,.8,0,1.6.4,2.2,0,.1.2.2.4.2h.3c.2-.2.3-.5,0-.7-.4-.6,0-1.9.3-2.8,6.9,4.6,12.9,13.7,12,23.3s0,0,0,.7c0,0-.9,0-1,0-.2,0-.5,0-.7.2-.3.6-1.2.9-2.1,1.1-.3-.2-.6-.3-1-.4.7-.3,1.2-.8,1.5-1.4,0-.2,0-.5-.3-.7-.2,0-.5,0-.7.3-.3.7-1.2,1.1-2.1,1.3-.4,0-.8-.2-1.3-.3.6-.4,1.1-1,1.3-1.7,0-.3,0-.5-.3-.6-.3,0-.5,0-.6.3-.2.7-1.1,1.3-1.9,1.7-.4,0-.8,0-1.2,0,.6-.4,1.1-1,1.3-1.6,0-.3,0-.5-.3-.6-.3,0-.5,0-.6.3-.2.8-1.3,1.4-2.3,1.8h-1c.5-.6,1-1.2,1-2s-.2-.5-.5-.5-.5.2-.5.5c0,.8-.8,1.5-1.6,2.1h-1.5c.6-.6,1-1.4,1-2.2s-.2-.5-.5-.5-.5.2-.5.5c0,.8-.9,1.7-1.7,2.3-.3,0-.7,0-1,0,.5-.6.9-1.4.9-2.2s-.3-.5-.5-.5c-.3,0-.5.3-.5.5,0,.8-.7,1.7-1.5,2.3-.4,0-.9.2-1.3.2.5-.7,1-1.5.9-2.3,0-.3-.3-.5-.5-.4-.3,0-.5.3-.4.5,0,.9-.8,1.9-1.6,2.6-.3,0-.6,0-.9.2.5-.8.8-1.7.6-2.5,0-.3-.3-.4-.6-.4s-.4.3-.4.6c.2.8-.5,1.9-1.2,2.7-.5,0-1,.3-1.4.4.4-.7.7-1.6.5-2.4,0-.3-.3-.4-.6-.4s-.4.3-.4.6c.2.8-.5,1.9-1.2,2.6-.3,0-.6.2-.8.3.3-.7.5-1.4.3-2.1,0-.3-.3-.4-.6-.4s-.4.3-.4.6c.2.7-.3,1.7-.9,2.4-.4.2-.8.3-1.2.5.4-.7.6-1.5.4-2.2,0-.3-.3-.4-.6-.4s-.4.3-.4.6c.2.8-.5,1.9-1.1,2.7-.4.2-.8.4-1.2.6.4-.8.6-1.6.3-2.3,0-.3-.4-.4-.6-.3-.3,0-.4.4-.3.6.3.9-.5,2.1-1.1,3-.3.2-.6.4-.9.5.3-.8.5-1.8.1-2.6s-.4-.4-.7-.2-.4.4-.2.7c.4.9-.3,2.4-.9,3.3-.3.2-.5.4-.8.5.1-.9,0-1.8-.5-2.5-.2-.2-.5-.3-.7,0-.2.2-.3.5-.1.7.5.7.3,1.9,0,2.9-.1,0-.3.3-.5.4,0-.8-.2-1.7-.7-2.2s-.5-.2-.7,0-.2.5,0,.7c.5.5.5,1.7.4,2.6-.1.2-.3.3-.4.5,0-.7-.2-1.5-.7-2s-.5-.2-.7,0-.2.5,0,.7c.5.6.5,1.7.4,2.7-.1.2-.2.4-.4.6-.2-.6-.5-1.2-1-1.6-.2-.2-.5,0-.7,0s-.1.5,0,.7c.5.4.7,1.2.8,2-9.9-12.6-4.9-26.5-2-29.2ZM18.2,54.4h0c.9-.3,1.9-.2,2.4-.2s.5-.2.5-.4c0-.3-.2-.5-.4-.5s-1.1,0-2.2,0c.1-.3.3-.7.5-1,.9,0,2,0,2.5.2.3,0,.5,0,.6-.3,0-.3,0-.5-.3-.6-.2,0-1-.3-2-.3.2-.2.4-.5.6-.7,1-.2,2.2,0,2.7.2.3,0,.5,0,.6-.3,0-.3,0-.5-.3-.6-.1,0-1-.3-1.9-.3.2-.2.4-.3.6-.5.9,0,2,.3,2.4.5h.2c.2,0,.4,0,.5-.3.1-.3,0-.5-.3-.7-.1,0-.8-.3-1.7-.5.3-.2.7-.5,1.1-.8.8.2,1.6.7,2,1h.3c.2,0,.3,0,.4-.2.2-.2.1-.5-.1-.7-.1,0-.7-.5-1.5-.8.4-.2.7-.4,1.1-.7.8.3,1.6.9,1.9,1.2.1,0,.2,0,.3,0s.3,0,.4-.2c.2-.2.2-.5,0-.7-.1,0-.7-.6-1.5-1.1.5-.2,1-.5,1.5-.7.8.4,1.6,1,2,1.4.1,0,.2.2.4.2s.3,0,.4-.2c.2-.2.2-.5,0-.7-.1,0-.7-.7-1.5-1.2.4-.2.8-.3,1.2-.5.9.3,1.9,1.1,2.2,1.5,0,0,.2.2.3.2s.3,0,.3-.2c.2-.2.2-.5,0-.7s-.8-.8-1.7-1.3c.5-.2,1-.3,1.5-.5.8.4,1.7,1.1,2,1.4,0,0,.3.2.4.2s.2,0,.3,0c.2-.2.2-.5,0-.7s-.7-.7-1.4-1.2c.6-.2,1.2-.3,1.8-.5.8.4,1.6,1.1,1.9,1.4s.3.2.4.2.2,0,.3,0c.2-.2.2-.5,0-.7s-.6-.6-1.3-1.1c.3,0,.7-.2,1-.2.7.5,1.4,1.2,1.7,1.6,0,0,.2.2.4.2h.3c.2-.2.3-.5,0-.7,0,0-.5-.7-1.2-1.3.4,0,.8-.2,1.2-.2.8.5,1.5,1.4,1.8,1.8,0,0,.2.2.4.2h.3c.2-.2.3-.5,0-.7,0,0-.6-.8-1.3-1.4.5,0,.9,0,1.3-.2.7.5,1.4,1.4,1.6,1.8,0,.2.3.3.5.2h.2c.2,0,.3-.5.2-.7,0,0-.5-.8-1.1-1.4h1.3c.8.6,1.4,1.6,1.7,2.1,0,.2.3.3.5.3h.2c.2,0,.3-.4.2-.7,0,0-.5-.9-1.1-1.6h1.2c.5.7.9,1.7,1,2.2,0,.2.3.4.5.4s0,0,0,0c.3,0,.4-.3.3-.6,0-.2-.3-1-.8-1.9.5,0,.9,0,1.4,0,.6.7,1.1,1.9,1.2,2.4,0,.2.3.4.5.4s0,0,0,0c.3,0,.4-.3.3-.6,0-.2-.3-1.1-.8-2,.4,0,.8,0,1.2.2.5.8.8,2,.9,2.6,0,.2.2.4.5.4h0c.3,0,.5-.3.4-.6,0-.2-.2-1.1-.6-2.1.2,0,.5.2.7.2.6.8.8,2.3.8,2.8s.2.5.5.5h0c.3,0,.5-.2.5-.5s0-1.2-.4-2.2c0,0,.2,0,.3.2.2,0,.4.3.5.4.4.8.2,2,.5,2.4.6.7.8,0,1,0-5.5,16.2-30.7,22.8-42.5,9.2Z"/>
  </g>
</svg>