<?xml version="1.0" encoding="UTF-8"?>
<svg xmlns="http://www.w3.org/2000/svg" viewBox="0 0 72 72">
  <defs>
    <style>
      .cls-1 {
        fill: none;
      }
    </style>
  </defs>
  <g id="SVG_icons" data-name="SVG icons">
    <path d="M36,7.37c-15.78,0-28.63,12.84-28.63,28.63s12.84,28.63,28.63,28.63,28.63-12.84,28.63-28.63S51.78,7.37,36,7.37ZM59.9,40.28c.6-.23,1.15-.57,1.51-1.04-.04.32-.08.63-.13.94-.38.12-.77.21-1.14.26-.08-.05-.15-.11-.23-.16ZM36,10.37c3.54,0,6.92.72,9.99,2.03-.08.24.02.51.26.61.15.07.92.4,1.85.59-.17.18-.35.35-.55.52-.96.01-2.12-.4-2.58-.61-.25-.11-.55,0-.66.25-.11.25,0,.55.25.66.15.07.93.41,1.87.59-.37.27-.76.54-1.19.8-.85-.16-1.73-.56-2.12-.78-.24-.13-.55-.05-.68.19-.14.24-.05.55.19.68.12.07.67.37,1.38.62-.42.23-.87.46-1.33.68-.83-.31-1.65-.91-2-1.21-.21-.18-.53-.16-.71.05-.18.21-.16.52.05.7.11.1.69.58,1.46,1-.46.2-.93.4-1.42.59-.92-.26-1.92-.98-2.3-1.31-.21-.18-.53-.16-.71.05-.18.21-.16.52.05.7.12.1.76.63,1.59,1.07-.5.18-1.02.35-1.54.52-.8-.46-1.57-1.27-1.87-1.66-.17-.22-.48-.26-.7-.09-.22.17-.26.48-.09.7.1.13.66.81,1.42,1.41-.55.16-1.11.31-1.67.45-.82-.47-1.6-1.36-1.9-1.76-.16-.22-.48-.27-.7-.11-.22.16-.27.48-.11.7.1.13.65.85,1.41,1.47-.1.02-.2.05-.3.07-.37.08-.74.15-1.11.22-.81-.5-1.56-1.43-1.84-1.84-.15-.23-.46-.29-.69-.13-.23.15-.29.47-.13.69.09.14.61.87,1.34,1.52-.55.09-1.1.18-1.64.25-.61-.63-1.09-1.49-1.28-1.9-.11-.25-.41-.36-.66-.25-.25.11-.36.41-.25.66.07.14.42.89.99,1.63-.43.05-.85.09-1.27.12-.64-.63-1.16-1.55-1.35-1.98-.11-.25-.41-.36-.66-.25-.25.11-.36.41-.25.66.07.14.43.9,1,1.64-.51.03-1.01.04-1.5.05-.52-.72-.88-1.7-1-2.14-.07-.27-.35-.42-.61-.35-.27.07-.42.35-.35.61.04.16.29,1.02.77,1.87-.6-.01-1.18-.04-1.73-.08-.5-.72-.85-1.66-.96-2.09-.07-.27-.35-.42-.61-.35-.27.07-.42.35-.35.61.04.15.26.9.68,1.7-.32-.04-.62-.09-.92-.14-.47-.81-.71-1.93-.77-2.42-.02-.16-.11-.28-.23-.36,4.68-5.03,11.35-8.18,18.75-8.18ZM16.35,20.88c-.16-.25-.29-.52-.4-.81.19-.24.39-.48.59-.72.07.38.21,1.04.47,1.71-.23-.06-.46-.12-.67-.18ZM10.37,36c0-4.62,1.24-8.96,3.39-12.71.45-.29,1.03-.5,1.58-.65.11.04.21.08.32.11-.65.33-1.24.78-1.52,1.41-.11.25,0,.55.25.66.07.03.13.04.2.04.19,0,.38-.11.46-.3.31-.69,1.36-1.13,2.3-1.37.36.08.73.15,1.11.2-.71.44-1.35,1.02-1.57,1.78-.07.27.08.54.35.62.05.01.09.02.14.02.22,0,.42-.14.48-.36.24-.84,1.51-1.49,2.48-1.85.22.02.45.03.68.05-.57.41-1.05.93-1.23,1.57-.07.27.08.54.35.62.05.01.09.02.14.02.22,0,.42-.14.48-.36.22-.8,1.38-1.42,2.33-1.79.4,0,.81-.02,1.22-.04-.59.53-1.08,1.18-1.16,1.93-.03.27.17.52.44.55.02,0,.04,0,.06,0,.25,0,.47-.19.5-.44.09-.83,1.15-1.63,2.02-2.15.22-.02.44-.04.66-.06-.58.53-1.05,1.17-1.13,1.9-.03.27.17.52.44.55.02,0,.04,0,.06,0,.25,0,.47-.19.5-.44.1-.89,1.3-1.75,2.21-2.25.34-.05.68-.09,1.02-.14-.47.61-.82,1.31-.78,2.04.01.27.24.47.5.47,0,0,.02,0,.03,0,.28-.02.49-.25.47-.53-.04-.76.71-1.63,1.43-2.28.38-.07.76-.14,1.15-.22-.44.63-.75,1.34-.68,2.05.02.26.24.45.5.45.02,0,.03,0,.05,0,.27-.03.48-.27.45-.55-.07-.76.63-1.65,1.33-2.32.48-.12.95-.24,1.42-.37-.42.64-.72,1.36-.63,2.07.03.25.25.44.5.44.02,0,.04,0,.06,0,.27-.03.47-.28.43-.56-.1-.78.64-1.74,1.34-2.44.56-.17,1.1-.35,1.63-.53-.33.75-.53,1.58-.28,2.32.07.21.26.34.47.34.05,0,.1,0,.16-.03.26-.09.4-.37.32-.63-.23-.71.23-1.72.75-2.52.53-.2,1.05-.42,1.55-.63-.36.78-.59,1.66-.33,2.43.07.21.26.34.47.34.05,0,.1,0,.16-.03.26-.09.4-.37.32-.63-.27-.81.38-2.01.97-2.85.56-.27,1.1-.56,1.61-.84-.26.91-.37,1.94.08,2.73.1.17.28.26.47.25.07,0,.15-.03.21-.06.24-.14.32-.44.19-.68-.43-.76,0-2.12.43-3.06.23-.15.45-.3.66-.45-.1.8-.05,1.64.38,2.27.09.12.22.2.36.21.11.01.23-.02.34-.09.23-.16.28-.47.13-.7-.42-.61-.26-1.72.01-2.63.16-.13.32-.27.46-.41-.09.78-.03,1.58.39,2.19.09.12.22.2.36.21.11.01.23-.02.34-.09.23-.16.28-.47.13-.7-.4-.58-.27-1.58-.03-2.46,6.89,4.6,11.44,12.44,11.44,21.33,0,.81-.04,1.61-.12,2.4-.03-.03-.07-.07-.11-.09-.24-.13-.55-.05-.68.2-.32.59-1.21.92-2.06,1.1-.31-.15-.63-.28-.97-.41.66-.33,1.25-.8,1.52-1.44.11-.25,0-.55-.26-.66-.25-.11-.55,0-.66.26-.28.66-1.24,1.09-2.13,1.35-.41-.11-.84-.21-1.29-.3.61-.43,1.13-.97,1.31-1.65.07-.27-.09-.54-.35-.61-.27-.08-.54.08-.61.35-.19.69-1.08,1.26-1.92,1.65-.39-.05-.79-.09-1.2-.13.6-.42,1.11-.96,1.3-1.63.07-.27-.08-.54-.35-.61-.27-.08-.54.08-.61.35-.21.79-1.33,1.41-2.27,1.79-.34,0-.68-.01-1.03-.01.55-.56,1-1.24,1.04-1.98.02-.28-.2-.51-.47-.53-.27-.01-.51.2-.53.47-.04.75-.85,1.51-1.63,2.07-.5.02-1.01.05-1.53.09.58-.63,1.05-1.39,1.04-2.21,0-.28-.23-.5-.51-.49-.27,0-.5.23-.49.51.01.82-.91,1.73-1.71,2.35-.32.04-.65.08-.98.13.51-.64.91-1.39.86-2.17-.02-.28-.26-.48-.53-.47-.28.02-.48.26-.47.53.05.78-.74,1.69-1.48,2.35-.43.07-.86.15-1.29.23.54-.69.96-1.52.87-2.34-.03-.27-.27-.47-.55-.44-.27.03-.47.27-.44.55.09.86-.82,1.9-1.58,2.6-.3.07-.6.14-.9.21.47-.77.81-1.66.62-2.5-.06-.27-.33-.44-.6-.38-.27.06-.44.33-.38.6.18.8-.52,1.89-1.17,2.67-.48.13-.95.27-1.42.41.43-.73.72-1.57.54-2.36-.06-.27-.33-.44-.6-.38-.27.06-.44.33-.38.6.18.8-.51,1.87-1.15,2.64-.29.1-.57.19-.85.29.32-.67.51-1.4.34-2.08-.07-.27-.34-.43-.61-.36-.27.07-.43.34-.36.61.18.71-.33,1.65-.89,2.41-.4.16-.78.31-1.17.48.35-.7.58-1.47.4-2.19-.07-.27-.34-.43-.61-.36-.27.07-.43.34-.36.61.2.8-.49,1.91-1.12,2.7-.39.19-.78.37-1.16.57.35-.75.56-1.57.33-2.31-.08-.26-.36-.41-.62-.33-.26.08-.41.36-.33.62.27.86-.5,2.14-1.13,2.97-.32.18-.62.36-.93.55.31-.85.48-1.8.13-2.58-.11-.25-.41-.36-.66-.25-.25.11-.36.41-.25.66.4.88-.33,2.38-.87,3.26-.26.18-.51.37-.76.55.11-.88.06-1.82-.45-2.5-.17-.22-.48-.27-.7-.1-.22.17-.27.48-.1.7.49.66.29,1.92.01,2.89-.15.13-.31.26-.45.39,0-.83-.18-1.68-.72-2.25-.19-.2-.51-.21-.71-.02-.2.19-.21.5-.02.71.51.55.51,1.66.37,2.61-.15.16-.3.32-.44.48-.04-.74-.23-1.48-.71-1.99-.19-.2-.51-.21-.71-.02-.2.19-.21.5-.02.71.53.56.5,1.74.36,2.71-.12.19-.24.37-.35.56-.17-.64-.46-1.23-.96-1.61-.22-.17-.53-.13-.7.09-.17.22-.13.53.09.7.48.37.69,1.18.76,1.98-3.76-4.46-6.04-10.22-6.04-16.5ZM36,61.63c-6.91,0-13.19-2.76-17.8-7.22,0-.02,0-.04,0-.05.87-.22,1.91-.19,2.37-.13.27.04.52-.16.55-.44.03-.27-.16-.52-.44-.55-.17-.02-1.15-.12-2.19.04.13-.32.29-.66.49-.99.92-.1,2.02.11,2.48.24.27.08.54-.08.62-.34.08-.27-.08-.54-.34-.62-.16-.05-1.05-.29-2.05-.31.19-.24.4-.49.62-.73.95-.16,2.17.08,2.66.22.27.08.54-.08.62-.34.08-.27-.08-.54-.34-.62-.15-.04-.96-.26-1.89-.31.19-.17.37-.35.58-.52.92,0,1.97.33,2.41.51.06.03.13.04.19.04.2,0,.38-.12.46-.31.1-.26-.02-.55-.27-.65-.14-.06-.83-.33-1.68-.48.34-.25.7-.5,1.07-.75.8.24,1.6.71,1.95.95.09.06.19.09.29.09.16,0,.31-.07.41-.21.16-.23.1-.54-.12-.7-.12-.08-.7-.48-1.46-.81.36-.22.73-.44,1.11-.66.8.33,1.59.93,1.92,1.23.1.09.21.13.33.13.14,0,.27-.06.37-.17.18-.21.17-.52-.04-.71-.12-.1-.72-.63-1.52-1.07.47-.24.96-.48,1.45-.72.83.36,1.65,1.05,1.99,1.38.1.1.23.15.35.15s.26-.05.35-.15c.19-.2.19-.51,0-.71-.11-.11-.73-.7-1.54-1.2.4-.17.8-.35,1.21-.52.92.31,1.88,1.12,2.25,1.49.1.1.23.15.35.15s.26-.05.35-.15c.19-.2.19-.51,0-.71-.12-.12-.79-.76-1.66-1.27.48-.18.97-.35,1.47-.52.83.38,1.65,1.09,1.98,1.44.11.11.26.17.41.15.11-.01.21-.06.3-.14.2-.19.21-.51.01-.71-.11-.11-.66-.67-1.41-1.17.57-.18,1.17-.34,1.76-.5.82.38,1.62,1.08,1.94,1.42.11.11.26.17.41.15.11-.01.21-.06.3-.14.2-.19.21-.51.01-.71-.1-.1-.6-.61-1.29-1.09.33-.08.65-.16.98-.23.74.48,1.43,1.24,1.7,1.61.1.13.25.2.4.2.1,0,.21-.03.3-.1.22-.17.27-.48.1-.7-.09-.12-.55-.71-1.19-1.28.41-.08.82-.16,1.23-.23.79.5,1.52,1.38,1.8,1.79.1.14.25.22.41.22.1,0,.2-.03.28-.09.23-.16.28-.47.13-.69-.09-.13-.57-.8-1.26-1.43.45-.06.89-.12,1.33-.17.72.55,1.36,1.41,1.61,1.81.11.17.3.26.48.23.07,0,.14-.03.2-.07.24-.14.31-.45.16-.69-.08-.13-.5-.78-1.11-1.42.43-.04.86-.07,1.29-.09.76.58,1.42,1.61,1.66,2.06.09.18.28.28.47.27.07,0,.14-.02.21-.06.24-.13.34-.43.21-.67-.08-.14-.5-.92-1.14-1.64.4,0,.8,0,1.19,0,.55.72.92,1.72,1.05,2.17.06.22.26.36.48.36.04,0,.09,0,.14-.02.27-.07.42-.35.35-.62-.04-.16-.3-1.01-.79-1.86.47.03.94.06,1.39.11.64.72,1.09,1.9,1.23,2.4.06.22.26.36.48.36.04,0,.09,0,.14-.02.27-.07.42-.35.35-.62-.05-.16-.32-1.07-.84-1.95.42.07.83.14,1.22.23.54.81.82,2.04.89,2.56.03.25.25.43.5.43.02,0,.04,0,.07,0,.27-.04.47-.29.43-.56-.02-.17-.16-1.12-.56-2.07.24.08.47.15.7.24.56.84.75,2.28.77,2.85,0,.27.23.48.5.48,0,0,.01,0,.02,0,.28,0,.49-.24.48-.52,0-.17-.05-1.15-.37-2.15.1.06.21.11.3.17.2.13.36.26.53.4.36.83.49,1.9.51,2.37,0,.15.08.27.18.36-3.66,9.68-13.03,16.58-23.97,16.58Z"/>
  </g>
  <g id="Rectangles">
    <rect class="cls-1" x=".36" y=".36" width="71.28" height="71.28"/>
  </g>
</svg>