<?xml version="1.0" encoding="UTF-8"?>
<svg xmlns="http://www.w3.org/2000/svg" viewBox="0 0 72 72">
  <g id="SVG_icons" data-name="SVG icons">
    <g>
      <path d="M35.48,21.66c-.95,0-1.72.77-1.72,1.72s.77,1.72,1.72,1.72,1.72-.77,1.72-1.72-.77-1.72-1.72-1.72Z"/>
      <path d="M37.21,41.63c0-.95-.77-1.72-1.72-1.72s-1.72.77-1.72,1.72.77,1.72,1.72,1.72,1.72-.77,1.72-1.72Z"/>
      <path d="M67.69,8.23c-.2-.44-.65-.73-1.14-.73H7.19c-.48,0-.92.28-1.13.71s-.14.95.16,1.33l12.04,14.74c-1.19,2.49-1.87,5.27-1.87,8.22,0,8.05,4.97,14.93,12.01,17.76v12.82c0,.42.21.81.56,1.04.21.14.45.21.69.21.17,0,.33-.03.49-.1l13.3-5.65c.46-.2.76-.65.76-1.15v-7.87c6.21-3.16,10.48-9.6,10.48-17.05,0-2.32-.44-4.54-1.2-6.6l14.02-16.33c.32-.37.39-.89.19-1.34ZM18.42,32.51c0-6.78,4-12.91,10.2-15.66-1.69,1.76-2.64,4.12-2.64,6.56,0,5.79,3.72,9.53,9.46,9.53,5.1,0,8.15,3.06,8.15,8.18,0,4.6-3.73,8.49-8.15,8.49-9.41-.06-17.02-7.7-17.03-17.11ZM41.7,56.6l-10.8,4.59v-10.13c1.49.37,3.03.59,4.63.59,2.16,0,4.23-.37,6.17-1.03v5.99ZM41.73,48.45c2.06-1.88,3.24-4.54,3.25-7.33,0-5.88-3.64-9.53-9.5-9.53s-8.11-4.22-8.11-8.18c0-3.75,2.56-7,6.2-7.9.67-.08,1.35-.12,2.03-.12,9.45.02,17.09,7.7,17.06,17.15-.02,7.05-4.36,13.36-10.93,15.91ZM52.36,23.37c-3.24-5.96-9.56-10-16.82-10.01-6.67,0-12.53,3.41-15.96,8.58l-9.75-11.93h54l-11.47,13.37Z"/>
    </g>
  </g>
  <g id="Rectangles">
    <rect x=".36" y=".36" width="71.28" height="71.28" fill="none"/>
  </g>
</svg>