<?xml version="1.0" encoding="UTF-8"?>
<svg xmlns="http://www.w3.org/2000/svg" viewBox="0 0 72 72">
      <path d="m17.41,46.27h1.81l.54,3.65c.1.82.22,1.65.32,2.47h.05c.15-.82.31-1.66.47-2.47l.84-3.65h1.5l.84,3.65c.16.79.31,1.64.47,2.47h.05c.1-.83.21-1.67.31-2.47l.54-3.65h1.69l-1.39,7.82h-2.22l-.76-3.55c-.12-.6-.23-1.23-.31-1.81h-.05c-.09.58-.19,1.21-.32,1.81l-.74,3.55h-2.18l-1.45-7.82Z" stroke-width="0"/>
      <path d="m27.16,53.1l1.02-1.21c.56.48,1.28.82,1.92.82.74,0,1.1-.29,1.1-.75,0-.49-.44-.65-1.13-.93l-1.02-.43c-.81-.33-1.58-1-1.58-2.13,0-1.3,1.16-2.33,2.78-2.33.9,0,1.84.36,2.51,1.02l-.89,1.11c-.51-.4-1-.61-1.62-.61s-1,.25-1,.7c0,.48.51.65,1.19.93l1,.4c.95.39,1.55,1.02,1.55,2.13,0,1.3-1.08,2.42-2.94,2.42-1.02,0-2.1-.38-2.9-1.13Z" stroke-width="0"/>
      <path d="m33.91,50.42h2.95v1.25h-2.95v-1.25Z" stroke-width="0"/>
      <path d="m37.86,46.27h4.93v1.48h-3.17v1.81h2.7v1.48h-2.7v3.04h-1.77v-7.82Z" stroke-width="0"/>
      <path d="m43.2,51.11c0-1.93,1.38-3.12,2.81-3.12,1.69,0,2.53,1.23,2.53,2.86,0,.32-.04.63-.07.78h-3.56c.16.86.75,1.26,1.54,1.26.45,0,.85-.14,1.29-.39l.58,1.06c-.61.42-1.41.67-2.11.67-1.7,0-3.01-1.15-3.01-3.12Zm3.83-.65c0-.65-.28-1.12-.99-1.12-.56,0-1.04.37-1.16,1.12h2.15Z" stroke-width="0"/>
      <path d="m49.22,51.11c0-1.95,1.21-3.12,2.47-3.12.66,0,1.06.24,1.46.62l-.06-.9v-2.03h1.76v8.4h-1.44l-.13-.59h-.04c-.42.42-1.01.73-1.58.73-1.48,0-2.43-1.17-2.43-3.12Zm3.86,1.14v-2.44c-.31-.28-.66-.38-.98-.38-.57,0-1.07.53-1.07,1.66s.4,1.69,1.09,1.69c.38,0,.68-.14.97-.53Z" stroke-width="0"/>
    <polygon points="35.65 24.24 32.56 21.15 33.83 19.87 35.65 21.69 39.58 17.77 40.85 19.04 35.65 24.24" stroke-width="0"/>
      <path d="m49.14,35.28c0-2.5-1.2-3.27-2.97-3.27h-.45v6.63h.45c1.77,0,2.97-.87,2.97-3.36Z" stroke-width="0"/>
      <path d="m55.25,31.98v3.15h1.15c1.3,0,1.91-.58,1.91-1.66s-.7-1.48-1.97-1.48h-1.09Z" stroke-width="0"/>
      <path d="m53.31,7.41H19.13c-6.34,0-11.5,5.16-11.5,11.5v34.18c0,6.34,5.16,11.5,11.5,11.5h34.18c6.34,0,11.5-5.16,11.5-11.5V18.91c0-6.34-5.16-11.5-11.5-11.5Zm8.5,20.89h-12.88c-.42-3.75-2.47-7.01-5.43-9.05l.39-3.72c.03-.29-.15-.55-.42-.64l-7.02-2.14c-.11-.04-.24-.04-.35,0l-7.02,2.14c-.27.08-.45.35-.42.64l.39,3.74c-3.32,2.3-5.5,6.13-5.5,10.46,0,6.98,5.65,12.67,12.61,12.74h0s.09,0,.09,0c.01,0,.03,0,.04,0s.03,0,.04,0h25.48v10.61c0,4.69-3.81,8.5-8.5,8.5H19.13c-4.69,0-8.5-3.81-8.5-8.5V18.91c0-4.69,3.81-8.5,8.5-8.5h34.18c4.69,0,8.5,3.81,8.5,8.5v9.39Zm-1.19,5.18c0,2.45-1.87,3.54-4.08,3.54h-1.29v3.54h-2.36v-10.43h3.58c2.3,0,4.15.82,4.15,3.36Zm-19.07-3.36v10.43h-2.36v-10.43h2.36Zm-11.75-5.71c.05.2.15.4.27.6-.25,1.22-.43,2.51-.47,3.9h-4.67c.12-1.62.57-3.14,1.29-4.5h3.57Zm-2.73-1.35c.61-.84,1.34-1.58,2.15-2.22l.06.56c.08.65.16,1.19.24,1.67h-2.44Zm2.52,7.2c.04,1.73.24,3.36.6,4.84h-3.94c-.78-1.45-1.25-3.1-1.33-4.84h4.68Zm.97,6.19c.53,1.67,1.26,3.07,2.13,4.1-2.27-.76-4.22-2.21-5.6-4.1h3.47Zm1.44,0h3.62v4.59c-1.47-.41-2.77-2.14-3.62-4.59Zm-.41-1.35c-.38-1.46-.61-3.11-.65-4.84h4.68v4.84h-4.03Zm-.64-6.19c.03-.89.13-1.74.26-2.57.86.78,2.11,1.64,3.75,2.57h-4.01Zm0-4.82c-.18-.67-.33-1.55-.49-2.83l-.56-5.35,6.37-1.94,6.37,1.94-.56,5.34c-.15,1.28-.31,2.16-.49,2.84-.15.56-1.05,1.86-5.32,4.19-4.27-2.33-5.17-3.62-5.32-4.19Zm15.41.32c.63,1.19,1.04,2.5,1.22,3.89h-4.64c-.07-1.17-.21-2.29-.43-3.33.11-.19.19-.38.24-.56h3.61Zm-3.32-1.35c.08-.48.16-1.03.24-1.68l.06-.57c.82.65,1.56,1.4,2.18,2.25h-2.48Zm-1.66,3.25c.1.65.17,1.31.22,2h-2.98c1.17-.71,2.09-1.38,2.76-2Zm2,3.82h2.95c3.19,0,5.24,1.59,5.24,5.17s-2.05,5.26-5.11,5.26h-3.08v-10.43Z" stroke-width="0"/>
    <rect x=".36" y=".36" width="71.28" height="71.28" fill="none" stroke-width="0"/>
</svg>