<?xml version="1.0" encoding="utf-8"?>
<!-- Generator: Adobe Illustrator 27.9.0, SVG Export Plug-In . SVG Version: 6.00 Build 0)  -->
<svg version="1.1" id="Layer_1" xmlns="http://www.w3.org/2000/svg" xmlns:xlink="http://www.w3.org/1999/xlink" x="0px" y="0px"
	 viewBox="0 0 72 72" style="enable-background:new 0 0 72 72;" xml:space="preserve">
<g>
	<path d="M38,43.2L38,43.2c-0.4,0-0.8-0.2-1.1-0.4L33.2,39c-0.6-0.6-0.5-1.6,0.1-2.1c0.6-0.5,1.5-0.5,2,0l2.7,2.7l6.9-6.9
		c0.6-0.6,1.6-0.5,2.1,0.1c0.5,0.6,0.5,1.5,0,2l-8,8C38.7,43.1,38.4,43.2,38,43.2z"/>
	<path d="M38,56.8L38,56.8c-0.4,0-0.8-0.2-1.1-0.4l-3.8-3.8c-0.6-0.6-0.5-1.6,0.1-2.1c0.6-0.5,1.5-0.5,2,0l2.7,2.7l6.9-6.9
		c0.6-0.6,1.6-0.5,2.1,0.1c0.5,0.6,0.5,1.5,0,2l-8,8C38.8,56.6,38.4,56.8,38,56.8z"/>
	<path d="M68.2,42.5v-0.1c-0.1-1.2-0.8-2.2-1.9-2.8c-1.5-0.8-2.9-1.5-4.1-2.1c-1.2-0.5-2.4-1.2-3.6-1.9c-0.4-1-0.7-2.1-0.8-3.3
		c0-0.2,0.2-0.9,1.9-3.3l0.1-0.2c0.7-1,1-2.2,1.1-3.5c0-0.5-0.1-1-0.3-1.4c-0.1-0.2-0.1-0.3-0.1-0.5c-0.1-0.4-0.1-0.7-0.2-0.9
		c-0.2-1-0.3-2.1-0.3-3.2c-0.2-1.5-1-2.9-2.3-3.7c-1.5-1.2-4-2.3-6.1-1.8c-1.1,0.3-2.3,0.5-3.5,0.4c-0.7-0.1-1.3,0.1-1.9,0.4
		c-1.3,0.9-2.2,2.2-2.6,3.7c-0.5,1.7-0.7,3.4-0.7,5.1v0.2c0,0.3,0,0.7-0.1,1c-0.1,0.2-0.1,0.5-0.1,0.7h-0.3c-0.3-1.2-1.6-2-2.8-1.7
		c-0.4,0.1-0.7,0.3-1,0.5c-0.1-0.7-0.2-1.5-0.4-1.9c-0.1-0.2-0.1-0.4-0.2-0.6c0-0.5-0.1-0.8-0.2-1.2c-0.3-1.3-0.4-2.7-0.3-4.1
		c0-1.7-1.1-3.4-3.1-5c-2-1.6-5.3-3.1-8.2-2.5c-1.5,0.4-3,0.6-4.5,0.5c-0.9-0.1-1.8,0.1-2.6,0.6c-1.7,1.2-2.9,2.9-3.5,4.9
		c-0.7,2.2-1,4.5-1,6.8v0.3c0,0.4,0,0.8-0.1,1.2c-0.1,0.5-0.2,1-0.2,1.5c0.1,1.5,3.1,7.3,4,8l0.2,0.3c-0.1,1.5-0.5,3.1-1.1,4.5
		c-1.3,0.8-2.6,1.5-4.1,2c-2.2,0.9-4.3,1.9-6.4,3.1c-1.4,0.7-2.4,2.1-2.5,3.7v0.2c-0.1,0.8-0.3,7.3-0.4,9.3c0,0.8,0.6,1.5,1.5,1.5
		c0,0,0,0,0,0h20.1l0,5c0,1.5,1.2,2.7,2.7,2.7h23c1.5,0,2.7-1.2,2.7-2.7V50.5h13.2c0.6,0,1-0.4,1-1C68.5,48,68.3,43,68.2,42.5z
		 M54.3,48.5V28.4c0-1.5-1.3-2.7-2.8-2.7c0,0,0,0,0,0H48v2h3.5c0.4,0,0.7,0.3,0.7,0.7v34c0,0.4-0.3,0.7-0.7,0.7h-23
		c-0.4,0-0.7-0.3-0.7-0.7l0-34c0-0.4,0.3-0.7,0.7-0.7h3.6v-2h-3.5c0,0,0,0,0,0c-1.5,0-2.8,1.2-2.8,2.7l0,26H7.4
		c0.1-3.5,0.2-6.9,0.3-7.3v-0.2c0-0.7,0.4-1.3,1-1.5c2-1.1,4-2.1,6.1-2.9c1.7-0.6,3.3-1.4,4.8-2.4c1.5-1.1,2.2-5.9,2.1-7.1
		c-0.1-0.8-0.5-1.5-1.1-2c-0.4-0.3-3-5-3.1-5.9c0-0.3,0-0.6,0.1-0.8c0.2-0.6,0.2-1.3,0.2-1.9v-0.3c0-2,0.3-4.1,0.9-6
		c0.4-1.2,1.2-2.3,2.2-3.1c0.1-0.1,0.2-0.1,0.4-0.2c0.1,0,0.2,0,0.3,0c1.8,0.1,3.7-0.1,5.5-0.6c1.5-0.3,3.8,0.4,5.7,1.9
		c1.4,1.1,1.9,2.1,1.9,2.7c0,1.6,0.1,3.1,0.4,4.7c0.1,0.3,0.1,0.6,0.2,1c0.1,0.5,0.2,0.9,0.4,1.4c0.1,0.2,0.1,0.5,0.1,0.7
		c0,0.4,0.1,0.8,0.2,1h-0.2c-0.3,0-0.6,0.3-0.6,0.6v1.5c0,0.3,0.3,0.6,0.6,0.6h8.9c0.3,0,0.6-0.3,0.6-0.6V26c0-0.3-0.2-0.6-0.5-0.6
		c0-0.1,0-0.2,0-0.3c0.1-0.5,0.2-0.9,0.2-1.4v-0.2c0-1.6,0.2-3.1,0.7-4.7c0.3-1,0.9-1.9,1.8-2.5c0.2-0.2,0.4-0.2,0.7-0.2
		c1.4,0.1,2.8,0,4.2-0.4c1.6-0.1,3.2,0.4,4.5,1.5c0.8,0.5,1.3,1.3,1.5,2.2c0,1.2,0.1,2.4,0.3,3.6c0,0.2,0.1,0.4,0.1,0.8
		c0,0.3,0.1,0.7,0.3,1c0.1,0.2,0.1,0.4,0.1,0.6c-0.1,0.8-0.3,1.6-0.8,2.3l-0.1,0.2c-1.5,2.3-2.2,3.5-2.2,4.3c0,0.6,0.4,4.2,1.6,5
		c1.2,0.8,2.5,1.6,3.9,2.1c1.2,0.6,2.5,1.2,4,2c0.5,0.2,0.8,0.7,0.8,1.3v0.1c0,0.3,0.2,3.1,0.2,5.8H54.3z"/>
</g>
</svg>
