<?xml version="1.0" encoding="UTF-8"?>
<svg xmlns="http://www.w3.org/2000/svg" viewBox="0 0 72 72">
    <polygon points="40.88 43.98 40.88 41.39 56.79 41.39 56.79 43.97 40.88 43.97 40.88 43.98" stroke-width="0"/>
    <polygon points="40.88 37.81 40.88 35.22 56.79 35.22 56.79 37.81 40.88 37.81 40.88 37.81" stroke-width="0"/>
    <polygon points="40.88 31.81 40.88 29.22 56.79 29.22 56.79 31.81 40.88 31.81 40.88 31.81" stroke-width="0"/>
    <polygon points="40.88 25.65 40.88 23.06 56.79 23.06 56.79 25.64 40.88 25.64 40.88 25.65" stroke-width="0"/>
    <polygon points="40.88 49.81 40.88 47.22 56.79 47.22 56.79 49.81 40.88 49.81 40.88 49.81" stroke-width="0"/>
      <path d="m60.34,11.8H11.68c-2.41,0-4.36,1.96-4.36,4.37v40.17c0,2.41,1.96,4.37,4.36,4.37h48.66c2.41,0,4.36-1.96,4.36-4.37V16.17c0-2.41-1.96-4.37-4.36-4.37Zm.86,44.54c0,.48-.39.87-.86.87H11.68c-.48,0-.86-.39-.86-.87v-11.39c2.75,4.14,7.45,6.87,12.79,6.87,4.52,0,8.78-1.98,11.71-5.42.39-.46.34-1.16-.13-1.55-.46-.39-1.16-.34-1.55.13-2.51,2.95-6.16,4.64-10.03,4.64-7.25,0-13.15-5.9-13.15-13.15s5.9-13.15,13.15-13.15,13.15,5.9,13.15,13.15c0,.61.49,1.1,1.1,1.1s1.1-.49,1.1-1.1c0-8.47-6.89-15.35-15.35-15.35-5.33,0-10.03,2.73-12.79,6.87v-11.82c0-.48.39-.87.86-.87h48.66c.48,0,.86.39.86.87v40.17Z" stroke-width="0"/>
      <path d="m28.41,41.59c-.25,0-.5-.08-.7-.25l-4.92-4.07c-.25-.21-.4-.52-.4-.85v-9.91c0-.61.49-1.1,1.1-1.1s1.1.49,1.1,1.1v9.39l4.53,3.74c.47.39.53,1.08.15,1.55-.22.26-.53.4-.85.4Z" stroke-width="0"/>
    <rect x=".36" y=".36" width="71.28" height="71.28" fill="none" stroke-width="0"/>
</svg>