<?xml version="1.0" encoding="UTF-8"?>
<svg xmlns="http://www.w3.org/2000/svg" viewBox="0 0 72 72">
    <polygon points="41.06 37.9 41.06 35.31 56.97 35.31 56.97 37.89 41.06 37.89 41.06 37.9" stroke-width="0"/>
    <polygon points="41.06 31.9 41.06 29.31 56.97 29.31 56.97 31.89 41.06 31.89 41.06 31.9" stroke-width="0"/>
    <polygon points="41.06 25.73 41.06 23.14 56.97 23.14 56.97 25.73 41.06 25.73 41.06 25.73" stroke-width="0"/>
    <polygon points="41.06 49.9 41.06 47.31 56.97 47.31 56.97 49.89 41.06 49.89 41.06 49.9" stroke-width="0"/>
    <path d="m60.52,11.89H11.86c-2.41,0-4.36,1.96-4.36,4.37v40.17c0,2.41,1.96,4.37,4.36,4.37h48.66c2.41,0,4.36-1.96,4.36-4.37V16.25c0-2.41-1.96-4.37-4.36-4.37Zm-43.36,23.92c-.05-.64-.55-1.42-1.52-2.7-.11-.15-.2-.27-.25-.33-.14-.21-.47-.71-.47-1.19,0-.23.02-.29.04-.4.06-.25.11-.51.11-1.06v-.16c0-.78,0-1.29.46-3.17.13-.54.64-1.25,1.09-1.54.07-.04.11-.07.12-.07.04,0,.08,0,.13.01.44.04,1.18.11,2.99-.29.73-.17,1.94.24,2.86.97.65.51.95,1.02.96,1.28.03,1.56.1,2,.22,2.54.03.14.06.29.1.52.06.38.14.6.25.85,0,0,.01.05.01.23,0,.49-.31,1.22-.47,1.46l-.08.12c-1.11,1.65-1.56,2.54-1.6,3.17-.02.39.27,3,1.21,3.72h0c.66.5,1.6.93,2.79,1.47.92.42,1.96.89,3.05,1.48.35.19.38.39.43.76.03.24.09,1.93.15,3.71H11v-4.95c.83-.43,1.63-.77,2.35-1.09,1.1-.48,1.96-.86,2.59-1.33.87-.67,1.28-3.27,1.22-3.99Zm44.23,20.62c0,.48-.39.87-.86.87H11.86c-.48,0-.86-.39-.86-.87v-7.26h19.77c.27,0,.53-.11.72-.3s.29-.46.28-.73c-.04-1.36-.14-4.56-.21-5.02-.07-.45-.23-1.52-1.45-2.18-.76-.42-1.92-.91-2.6-1.23.3-.16,2.4-1.08,2.95-1.73.1-.12.59-1.86.52-2.6-.03-.32-.28-.87-1.16-2.04-.09-.13-.17-.23-.21-.29-.1-.15-.37-.56-.37-.9,0-.17,0-.2.03-.29.06-.23.11-.48.11-1v-.14c0-.67,0-1.11.4-2.74.1-.39.47-.93.88-1.21,0,0,0,0,.01,0,.53.05,1.21.07,2.72-.26.56-.13,1.55.22,2.3.8.55.43.74.82.75.93.03,1.39.1,1.81.2,2.29.03.12.05.25.08.44.05.37.14.59.22.76,0,.04,0,.08,0,.15,0,.36-.24.95-.38,1.14l-.08.12c-1.02,1.51-1.1,1.71-1.13,2.41-.01.26.19,1.9.32,2.19.32.71,3.67,2.07,4.46,2.5.17.09.39.63.43.92.02.19.07,1.45.11,2.71h-5.8c-.55,0-1,.33-1,.88s.45.94,1.01.94h6.58c.27,0,.53-.11.72-.3.19-.19.26-.56.25-.83,0-.21.01-.27,0-.51h14.55v-2.59h-14.65c-.02-.3-.03-.53-.05-.63-.05-.38-.18-1.25-1.23-1.82-.82-.45-1.57-.81-2.21-1.12-.75-.36-1.36-.66-1.74-.92-.14-.32-.33-1.16-.34-1.36.03-.1.17-.46.92-1.59l.08-.11c.27-.4.66-1.29.66-2.1,0-.44-.07-.68-.18-.94-.02-.05-.03-.06-.04-.14-.03-.23-.06-.38-.1-.52-.06-.27-.11-.5-.13-1.61-.02-.8-.52-1.63-1.41-2.34-.87-.68-2.35-1.37-3.67-1.08-1.11.25-1.5.21-1.74.19-.38-.04-.74-.04-1.3.31-.73.46-1.39,1.39-1.6,2.25-.39,1.57-.41,2.11-.4,2.86v.12c0,.25-.02.32-.04.4-.04.18-.08.37-.08.72,0,.81.38,1.47.66,1.89.05.07.64.75,1.06,1.49.02.27-.18,1.21-.34,1.57-.24.14-.76.41-1.19.63-.77.4-1.62.84-2.2,1.2-.46-.22-.85-.43-1.12-.63-.21-.4-.51-1.7-.49-2.03.02-.11.17-.58,1.26-2.18l.09-.14c.31-.47.81-1.58.81-2.57,0-.58-.1-.85-.21-1.1-.04-.08-.05-.12-.07-.26-.04-.29-.08-.48-.12-.66-.08-.36-.15-.68-.17-2.15-.02-.96-.63-1.95-1.72-2.81-1.08-.85-2.91-1.71-4.53-1.35-1.49.33-2.04.28-2.36.25-.47-.04-.86-.05-1.5.36-.88.56-1.7,1.71-1.96,2.75-.52,2.12-.52,2.8-.52,3.66v.16c0,.37-.02.47-.06.6-.05.22-.1.44-.1.87,0,.97.46,1.77.81,2.3.06.09.17.24.31.42.26.34,1.04,1.39,1.12,1.67.04.44-.3,1.88-.52,2.29-.45.31-1.21.65-2.09,1.03-.47.2-.99.43-1.55.7v-23.74c0-.48.39-.87.86-.87h48.66c.48,0,.86.39.86.87v40.17Z" stroke-width="0"/>
    <rect x=".36" y=".36" width="71.28" height="71.28" fill="none" stroke-width="0"/>
</svg>