<?xml version="1.0" encoding="UTF-8"?>
<svg xmlns="http://www.w3.org/2000/svg" width="72" height="72" viewBox="0 0 72 72">
  <g id="SVG_icons" data-name="SVG icons">
    <path d="M58.8,60.82c-.38,0-.77-.15-1.06-.44L12.45,15.09c-.59-.59-.59-1.54,0-2.12.59-.59,1.54-.59,2.12,0l45.29,45.29c.59.59.59,1.54,0,2.12-.29.29-.68.44-1.06.44Z"/>
    <g>
      <path d="M39.4,35.84c2.7-.87,5.78-.11,7.76,2.17,1.71,1.98,2.17,4.64,1.41,7l2.42,2.42c2.22-3.93,1.66-9-1.69-12.34-1.94-1.94-4.57-3.02-7.3-3.01-1.78,0-3.52.46-5.05,1.32l2.44,2.44Z"/>
      <path d="M45.01,49.71l-9.33,9.33c-2.93,2.77-7.55,2.65-10.32-.28-2.67-2.82-2.67-7.23,0-10.04l1.25-1.18c-.41-.31-.88-.55-1.25-.91-.35-.35-.97-.44-1.28-.83l-.84.8c-4.14,3.9-4.33,10.42-.43,14.56,3.9,4.14,10.42,4.33,14.56.43.15-.14.29-.28.43-.43l9.33-9.32-2.12-2.12Z"/>
    </g>
    <g>
      <path d="M24.19,20.63l2.11-5.88c1.46-3.76,5.7-5.61,9.45-4.15,3.61,1.41,5.5,5.4,4.28,9.08l-1.95,5.75c.5.1.99.24,1.48.41.47.16.93.35,1.38.58l1.96-5.74c1.92-5.36-.88-11.26-6.24-13.18s-11.26.88-13.18,6.24l-1.63,4.55,2.34,2.34Z"/>
      <path d="M32.92,37.62c-1.94,1.99-4.93,2.79-7.71,1.79-3.8-1.37-5.76-5.55-4.4-9.35l1.2-3.35-2.34-2.34-1.68,4.68c-1.92,5.35.86,11.25,6.22,13.17,2.57.92,5.4.79,7.86-.38,1.12-.52,2.11-1.24,2.96-2.1l-2.12-2.12Z"/>
    </g>
  </g>
  <g id="Rectangles">
    <rect x=".36" y=".36" width="71.28" height="71.28" fill="none"/>
  </g>
</svg>