<?xml version="1.0" encoding="UTF-8"?>
<svg xmlns="http://www.w3.org/2000/svg" viewBox="0 0 72 72">
    <polygon points="41.01 43.98 41.01 41.39 56.92 41.39 56.92 43.97 41.01 43.97 41.01 43.98" stroke-width="0"/>
    <polygon points="41.01 37.81 41.01 35.22 56.92 35.22 56.92 37.81 41.01 37.81 41.01 37.81" stroke-width="0"/>
    <polygon points="41.01 31.81 41.01 29.22 56.92 29.22 56.92 31.81 41.01 31.81 41.01 31.81" stroke-width="0"/>
    <polygon points="41.01 25.65 41.01 23.06 56.92 23.06 56.92 25.64 41.01 25.64 41.01 25.65" stroke-width="0"/>
    <polygon points="41.01 49.81 41.01 47.22 56.92 47.22 56.92 49.81 41.01 49.81 41.01 49.81" stroke-width="0"/>
    <path d="m60.47,11.8H11.81c-2.41,0-4.36,1.96-4.36,4.37v40.17c0,2.41,1.96,4.37,4.36,4.37h48.66c2.41,0,4.36-1.96,4.36-4.37V16.17c0-2.41-1.96-4.37-4.36-4.37Zm-33.53,26.29c.02-.07.14-.4.92-1.55.25-.38.62-1.22.62-1.99,0-.31-.07-.62-.15-.97-.11-.5-.25-1.12-.26-1.99-.01-.77-.49-1.56-1.34-2.22-.82-.64-2.21-1.29-3.47-1.01-1.02.23-1.37.19-1.58.17-.37-.04-.72-.04-1.25.3-.69.44-1.32,1.32-1.52,2.13-.38,1.56-.48,3.18-.48,3.82,0,.77.36,1.39.62,1.79.04.06.13.17.23.31.17.22.68.9.74,1.02.01.25-.16,1.08-.31,1.4-.3.19-.8.41-1.37.66-.69.3-1.55.68-2.45,1.18-1.01.57-1.12,1.38-1.17,1.78-.04.23-.08,1.59-.12,2.97h-3.65v-19.66c.51-.89,1.45-1.4,2.74-1.4h19.61c1.98,0,3.16,1.17,3.16,3.14v17.92h-4.1c-.04-1.38-.09-2.75-.13-3-.05-.33-.18-1.22-1.18-1.76-.83-.45-1.6-.8-2.28-1.11-.65-.29-1.21-.55-1.54-.77-.13-.3-.29-1.03-.3-1.18Zm34.4,18.25c0,.48-.39.87-.86.87H11.81c-.48,0-.86-.39-.86-.87v-8.42h4.63c.55,0,.99-.43,1.01-.98.04-1.64.1-3.48.14-3.79,0-.05.02-.13.03-.15,0,0,.03-.04.13-.1.81-.46,1.58-.79,2.26-1.09.8-.35,1.42-.62,1.9-.98.74-.56,1.03-2.56.98-3.09-.04-.53-.42-1.11-1.13-2.07-.07-.1-.13-.18-.17-.22-.08-.12-.29-.43-.29-.68,0-.45.08-1.91.43-3.34.07-.29.35-.7.65-.91.42.04.99.06,2.19-.21.4-.09,1.1.14,1.67.54.49.35.67.68.68.77.02,1.07.2,1.86.31,2.39.05.21.1.45.1.54,0,.26-.19.72-.34.95-.84,1.24-1.16,1.89-1.19,2.4,0,.02.1,2.22.98,2.89h0c.49.38,1.17.69,2.04,1.08.65.29,1.38.62,2.15,1.04.11.06.12.07.16.31.03.24.08,2.08.13,3.72.01.55.46.98,1.01.98h6.08c.56,0,1.01-.45,1.01-1.01v-18.92c0-3.08-2.08-5.15-5.17-5.15H13.69c-1.05,0-1.97.25-2.74.69v-7.36c0-.48.39-.87.86-.87h48.66c.48,0,.86.39.86.87v40.17Z" stroke-width="0"/>
    <polygon points="21.8 53.48 18.02 49.7 19.49 48.24 21.8 50.55 27.46 44.89 28.93 46.36 21.8 53.48" stroke-width="0"/>
    <rect x=".36" y=".36" width="71.28" height="71.28" fill="none" stroke-width="0"/>
</svg>