<?xml version="1.0" encoding="UTF-8"?>
<svg xmlns="http://www.w3.org/2000/svg" viewBox="0 0 72 72">
    <polygon points="40.78 43.98 40.78 41.39 56.69 41.39 56.69 43.97 40.78 43.97 40.78 43.98" stroke-width="0"/>
    <polygon points="40.78 37.81 40.78 35.22 56.69 35.22 56.69 37.81 40.78 37.81 40.78 37.81" stroke-width="0"/>
    <polygon points="40.78 31.81 40.78 29.22 56.69 29.22 56.69 31.81 40.78 31.81 40.78 31.81" stroke-width="0"/>
    <polygon points="40.78 25.65 40.78 23.06 56.69 23.06 56.69 25.64 40.78 25.64 40.78 25.65" stroke-width="0"/>
    <polygon points="40.78 49.81 40.78 47.22 56.69 47.22 56.69 49.81 40.78 49.81 40.78 49.81" stroke-width="0"/>
    <path d="m60.24,11.8H11.58c-2.41,0-4.36,1.96-4.36,4.37v40.17c0,2.41,1.96,4.37,4.36,4.37h48.66c2.41,0,4.36-1.96,4.36-4.37V16.17c0-2.41-1.96-4.37-4.36-4.37Zm-49.52,4.37c0-.48.39-.87.86-.87h48.66c.48,0,.86.39.86.87v40.17c0,.48-.39.87-.86.87H11.58c-.48,0-.86-.39-.86-.87V16.17Z" stroke-width="0"/>
    <rect x=".36" y=".36" width="71.28" height="71.28" fill="none" stroke-width="0"/>
</svg>