<?xml version="1.0" encoding="UTF-8"?>
<svg xmlns="http://www.w3.org/2000/svg" viewBox="0 0 72 72">
  <defs>
    <style>
      .cls-1 {
        fill: none;
      }
    </style>
  </defs>
  <g id="SVG_icons" data-name="SVG icons">
    <path d="M42.47,21.52c-.71,0-1.42-.11-2.12-.32-3.75-1.17-5.86-5.17-4.69-8.92s5.16-5.86,8.92-4.69c1.82.56,3.31,1.8,4.19,3.49.89,1.68,1.06,3.61.5,5.43h0c-.56,1.82-1.8,3.31-3.49,4.19-1.04.55-2.17.82-3.31.82ZM42.46,9.37c-.8,0-1.6.2-2.33.58-1.19.62-2.06,1.67-2.46,2.95-.82,2.64.66,5.46,3.31,6.29,2.65.82,5.46-.66,6.29-3.31h0c.4-1.28.27-2.64-.35-3.83-.62-1.19-1.67-2.06-2.96-2.46-.49-.15-.99-.23-1.49-.23Z"/>
    <path d="M43.37,66.17h-.04c-2.28-.02-4.12-1.9-4.1-4.18l.07-11.58-6.23-5.46c-1.47,1.22-4.42,3.69-4.81,4.02-1.09,1.08-3.19,1.13-3.43,1.14l-13.35.1c-1.08.02-2.15-.41-2.94-1.18-.79-.77-1.23-1.81-1.24-2.91-.03-2.28,1.81-4.16,4.09-4.19l11.55-.09,4.98-6.42,1.84-8.34c-.65-.53-1.79-1.44-2.94-2.35l-7.62,3.58c-2.1.88-4.54-.11-5.42-2.22-.43-1.02-.43-2.14-.01-3.17s1.21-1.82,2.23-2.25c0,0,9.35-4.3,9.36-4.31,1.01-.45,2.16-.46,3.21-.04l6.67,2.73c.22.09.4.23.54.42,1.06,1.46,2.52,2.51,4.23,3.04,1.31.41,2.71.48,4.05.22.2-.04.41-.03.61.03l5.91,1.84,8.06-3.78c.98-.51,2.1-.62,3.15-.29,1.06.33,1.92,1.05,2.44,2.03h0c1.06,2.02.28,4.53-1.74,5.59l-9.57,4.58c-1.17.52-2.22.4-2.85.33h-.11s-.01-.01-.02-.01c-.32-.03-4.27-.43-6.04-.6l-2.68,6.46c1.29,1.69,4.95,6.52,5.24,6.91.8.92,1.16,1.84,1.15,2.88l-.09,13.35c-.01,1.11-.45,2.14-1.24,2.92-.78.76-1.81,1.18-2.9,1.18ZM33.09,42.06c.29,0,.59.1.82.31l7.47,6.54c.27.24.43.59.43.95l-.08,12.15c0,.91.72,1.65,1.62,1.66.41-.02.85-.16,1.16-.47.31-.31.49-.72.49-1.15l.09-13.35c0-.37-.09-.72-.55-1.25t-5.77-7.59c-.27-.36-.33-.84-.15-1.25l3.33-7.96q.3-.85,4.75-.41c2.42.24,3.21.31,3.51.35h0s.13.01.13.01c.45.05,1.01.11,1.49-.1l9.5-4.54c.8-.42,1.11-1.41.69-2.21h0c-.2-.39-.55-.67-.96-.8-.42-.13-.86-.09-1.25.11l-8.51,4.02c-.29.15-.64.19-.95.09l-6.11-1.9c-1.65.27-3.35.15-4.95-.34-2.11-.66-3.93-1.92-5.29-3.67l-6.35-2.6c-.41-.17-.87-.16-1.28.02-.11.05-9.38,4.31-9.38,4.31-.83.35-1.23,1.31-.88,2.15.35.83,1.31,1.23,2.15.88l8.3-3.87c.42-.17.9-.11,1.26.17,4.81,3.78,4.9,3.85,4.58,4.72l-2.1,9.28c-.04.16-.12.31-.22.43l-5.51,7.1c-.23.3-.59.48-.98.48l-12.15.09c-.9.01-1.63.75-1.62,1.66,0,.44.18.85.49,1.15.31.3.71.47,1.15.47h.02l13.35-.1c.77,0,1.54-.26,1.7-.42q.09-.08,5.79-4.84c.23-.19.52-.29.8-.29Z"/>
  </g>
  <g id="Rectangles">
    <rect class="cls-1" x=".36" y=".36" width="71.28" height="71.28"/>
  </g>
</svg>