<?xml version="1.0" encoding="UTF-8"?>
<svg xmlns="http://www.w3.org/2000/svg" viewBox="0 0 72 72">
    <polygon points="40.49 43.98 40.49 41.39 56.4 41.39 56.4 43.97 40.49 43.97 40.49 43.98" stroke-width="0"/>
    <polygon points="40.49 37.81 40.49 35.22 56.4 35.22 56.4 37.81 40.49 37.81 40.49 37.81" stroke-width="0"/>
    <polygon points="40.49 31.81 40.49 29.22 56.4 29.22 56.4 31.81 40.49 31.81 40.49 31.81" stroke-width="0"/>
    <polygon points="40.49 25.65 40.49 23.06 56.4 23.06 56.4 25.64 40.49 25.64 40.49 25.65" stroke-width="0"/>
    <polygon points="40.49 49.81 40.49 47.22 56.4 47.22 56.4 49.81 40.49 49.81 40.49 49.81" stroke-width="0"/>
    <path d="m59.95,11.8H11.29c-2.41,0-4.36,1.96-4.36,4.37v40.17c0,2.41,1.96,4.37,4.36,4.37h48.66c2.41,0,4.36-1.96,4.36-4.37V16.17c0-2.41-1.96-4.37-4.36-4.37Zm.86,44.54c0,.48-.39.87-.86.87H11.29c-.48,0-.86-.39-.86-.87v-15.69l5.44,9.05c.18.3.51.48.86.48h6.62c.55,0,1-.45,1-1v-4.63c2.22-.55,3.25-2.22,3.25-3.9,0-2.45-1.77-3.46-3.5-4.13-1.85-.72-2.17-1.2-2.17-1.96,0-.64.49-1.38,1.87-1.38.96,0,1.69.29,2.14.53.13.07.28.08.41.03.13-.05.24-.16.28-.3l.44-1.32c.07-.22-.02-.47-.22-.58-.41-.23-1.28-.59-2.62-.65v-2.17c0-.55-.45-1-1-1s-1,.45-1,1v2.39c-1.75.52-2.91,1.89-2.91,3.64s1.19,3.14,3.61,4c1.72.66,2.04,1.22,2.04,2.03,0,1.03-.79,1.64-2.13,1.64-.89,0-1.88-.28-2.64-.74-.13-.08-.29-.09-.43-.04-.14.05-.25.17-.29.32l-.41,1.35c-.06.21.02.43.2.55.71.47,1.93.82,3.07.88v3.44h-5.06l-6.86-11.42v-.03l6.86-11.37h12.06l6.87,11.38-7.16,11.92c-.28.47-.13,1.09.34,1.37.16.1.34.14.51.14.34,0,.67-.17.86-.48l7.47-12.44c.19-.32.19-.71,0-1.03l-7.47-12.38c-.18-.3-.51-.48-.86-.48h-13.19c-.35,0-.68.18-.86.48l-5.44,9.01v-16.7c0-.48.39-.87.86-.87h48.66c.48,0,.86.39.86.87v40.17Z" stroke-width="0"/>
    <rect x=".36" y=".36" width="71.28" height="71.28" fill="none" stroke-width="0"/>
</svg>