<svg xmlns="http://www.w3.org/2000/svg" version="1.1" viewBox="0 0 72 72">
    <path d="M42.5,21.5c-.7,0-1.4-.1-2.1-.3-3.8-1.2-5.9-5.2-4.7-8.9s5.2-5.9,8.9-4.7c1.8.6,3.3,1.8,4.2,3.5s1.1,3.6.5,5.4h0c-.6,1.8-1.8,3.3-3.5,4.2-1,.5-2.2.8-3.3.8ZM42.5,9.4c-.8,0-1.6.2-2.3.6-1.2.6-2.1,1.7-2.5,2.9-.8,2.6.7,5.5,3.3,6.3,2.7.8,5.5-.7,6.3-3.3h0c.4-1.3.3-2.6-.3-3.8-.6-1.2-1.7-2.1-3-2.5-.5-.1-1-.2-1.5-.2h0Z"/>
    <path d="M39.3,62v-11.6l-6.2-5.5c-1.5,1.2-4.4,3.7-4.8,4-1.1,1.1-3.2,1.1-3.4,1.1h-13.4c-5.5,0-5.2-8.2,0-8.2h11.5l5-6.5,1.8-8.3c-.6-.5-2-1.6-3.1-2.6l-7.6,3.6c-5,2.3-8.7-4.9-3-7.4l9.4-4.3c1-.4,2.2-.5,3.2,0l6.7,2.7c.2,0,.4.2.5.4,1.1,1.5,2.5,2.5,4.2,3,1.3.4,2.7.5,4,.2h.6l5.9,1.8,8.1-3.8c5.2-2.4,8.5,5,3.9,7.3l-9.4,4.4c-1.2.5-2.2.4-2.8.3h0c-.3,0-4.5-.2-6.2-.4l-2.7,6.5c1.3,1.7,5,6.5,5.2,6.9.8.9,1.2,1.8,1.2,2.9v13.4c0,4.1-4.2,4.1-4.2,4.1,0,0-4.3.3-4.3-4ZM34,42.2l7.5,6.5c.3.2.4.6.4,1v12.1c0,2.1,3.2,2.5,3.2,0v-13.4c0-.4,0-.7-.5-1.2-.3-.4-2.2-2.9-5.8-7.6-.3-.4-.3-.8-.2-1.2l3.3-8c0-.2.1-.7,1.3-.6s8.2.7,8.6.6l9.5-4.5c1.9-.9.8-3.9-1.5-2.9l-8.5,4c-.3.1-.6.2-1,0l-6.1-1.9c-1.7.3-3.3.1-5-.3-2.1-.7-3.9-1.9-5.3-3.7l-6.4-2.6c-.4-.2-.9-.2-1.3,0-.1,0-9.4,4.3-9.4,4.3-.8.4-1.2,1.3-.9,2.1.4.8,1.3,1.2,2.1.9l8.3-3.9c.4-.2.9-.1,1.3.2,4.8,3.8,4.9,3.9,4.6,4.7l-2.1,9.3c0,.2-.1.3-.2.4l-5.5,7.1c-.2.3-.6.5-1,.5h-12.1c-2,0-1.9,3.5,0,3.5h13.4c.8,0,1.5-.4,1.7-.5,0,0,2-1.7,5.8-4.8.4-.4,1.2-.6,1.8-.1Z"/>
</svg>