<?xml version="1.0" encoding="UTF-8"?>
<svg id="Layer_1" data-name="Layer 1" xmlns="http://www.w3.org/2000/svg" width="72" height="72" viewBox="0 0 72 72">
  <path d="M59.74,47.29c-4.41,9.1-13.74,15.4-24.51,15.4-7.97,0-15.13-3.45-20.11-8.91h22.92c.27-.01.53-.11.72-.31.19-.2.28-.46.28-.73-.03-1.14-.16-4.9-.24-5.44-.09-.55-.26-1.7-1.62-2.44h-.01l23.47-.03s4.64.28,4.64-4.28v-24.47c0-2.37-1.93-4.3-4.3-4.3h-25.29c-2.37,0-4.3,1.93-4.3,4.3v12.98c-.1-1.07-.21-1.86-.59-2.93-.26-.29-.56-.58-.91-.85-1.24-.97-3.35-1.96-5.19-1.55-1.78.4-2.44.34-2.83.3-.54-.05-.95-.05-1.66.4-1,.64-1.94,1.95-2.23,3.13-.6,2.47-.6,3.26-.6,4.26v.19c0,.45-.03.58-.07.74-.06.25-.11.49-.11.98,0,1.09.52,2.01.92,2.6.07.1.2.27.36.49.32.42,1.27,1.69,1.36,2.05.05.57-.37,2.38-.65,2.83-.54.39-1.46.79-2.53,1.26-1.13.49-2.53,1.11-3.99,1.93-1.37.78-1.52,1.85-1.59,2.37l-.02.11c-.01.09-.03.29-.04.55-1.93-3.74-3.04-7.97-3.04-12.47,0-15.02,12.22-27.23,27.23-27.23h.02c3.03,0,5.95.51,8.68,1.43h7.87c-4.78-3.08-10.46-4.87-16.55-4.87-16.91,0-30.67,13.76-30.67,30.67s13.76,30.67,30.67,30.67c12.72,0,23.63-7.79,28.27-18.84h-3.75ZM33.16,16.08c0-1.39,1.13-2.52,2.52-2.52h10.12l-3.74,3.74c-.59-.36-1.27-.57-2.01-.57-2.14,0-3.88,1.74-3.88,3.88s1.74,3.88,3.88,3.88,3.88-1.74,3.88-3.88c0-.76-.22-1.46-.6-2.06l4.98-4.98h12.65c1.39,0,2.52,1.13,2.52,2.52v8.6h-8.25c-.24,0-.46.09-.63.26l-2.31,2.31c-.6-.39-1.33-.62-2.1-.62-2.14,0-3.88,1.74-3.88,3.88s1.74,3.88,3.88,3.88,3.88-1.74,3.88-3.88c0-.72-.2-1.39-.55-1.97l2.07-2.07h7.89v1.78h-6.06c-.49,0-.89.4-.89.89v4.26c-1.71.4-2.99,1.94-2.99,3.77,0,2.14,1.74,3.88,3.88,3.88s3.88-1.74,3.88-3.88c0-1.83-1.28-3.37-2.99-3.77v-3.37h5.17v10.53c0,2.73-2.73,2.49-2.73,2.49h-.09l-24.98.03c-1.39,0-2.52-1.13-2.52-2.52v-6.6h3.14c.4,1.71,1.94,2.99,3.77,2.99,2.14,0,3.88-1.74,3.88-3.88s-1.74-3.88-3.88-3.88c-1.83,0-3.37,1.28-3.77,2.99h-3.14v-4.3h10.35c.24,0,.46-.09.63-.26l3.94-3.94c.61.4,1.34.63,2.12.63,2.14,0,3.88-1.74,3.88-3.88s-1.74-3.88-3.88-3.88-3.88,1.74-3.88,3.88c0,.71.2,1.38.53,1.95l-3.71,3.71h-9.98v-10.02ZM42.15,20.61c0,1.16-.94,2.1-2.1,2.1s-2.1-.94-2.1-2.1.94-2.1,2.1-2.1,2.1.94,2.1,2.1ZM52.3,30.52h-.01c0,1.16-.94,2.1-2.1,2.1s-2.1-.94-2.1-2.1.94-2.1,2.1-2.1c.57,0,1.1.23,1.48.61.02.02.02.05.05.07,0,0,.02,0,.03.02.33.37.55.86.55,1.4ZM59.52,37.16c0,1.16-.94,2.1-2.1,2.1s-2.1-.94-2.1-2.1.94-2.1,2.1-2.1,2.1.94,2.1,2.1ZM37.97,33.07c0-1.16.94-2.1,2.1-2.1s2.1.94,2.1,2.1-.94,2.1-2.1,2.1-2.1-.94-2.1-2.1ZM48.09,20.45c0-1.16.94-2.1,2.1-2.1s2.1.94,2.1,2.1-.94,2.1-2.1,2.1-2.1-.94-2.1-2.1ZM31.38,35.75v4.8c0,.61.13,1.18.36,1.71-.45-.23-.84-.44-1.12-.65-.26-.45-.64-2.11-.62-2.54.02-.09-.22-.84.46-1.92.36-.58.66-.94.92-1.4ZM12.89,51.78c.07-1.97.15-3.86.18-4.12l.02-.14c.06-.39.09-.61.6-.9,1.37-.77,2.66-1.34,3.81-1.84,1.28-.56,2.29-1,3.01-1.55.96-.73,1.44-3.74,1.37-4.53-.06-.71-.66-1.64-1.75-3.09-.14-.18-.24-.32-.3-.4-.18-.26-.59-.88-.59-1.49,0-.29.02-.38.05-.52.06-.29.12-.57.12-1.21v-.19c0-.92,0-1.54.55-3.77.16-.68.78-1.56,1.35-1.92.14-.09.2-.11.2-.11.06,0,.12.01.2.01.51.05,1.36.13,3.46-.34.92-.21,2.37.27,3.51,1.17.82.64,1.2,1.29,1.2,1.64.03,1.71.3,2.93.5,3.83.1.44.18.82.18,1.04,0,.62-.39,1.51-.59,1.82l-.09.14c-1.29,1.91-1.81,2.93-1.85,3.64-.03.53.37,3.47,1.36,4.23.75.58,1.85,1.07,3.24,1.7,1.08.49,2.31,1.05,3.6,1.75.48.27.53.56.6,1.03.04.27.11,2.16.18,4.12H12.89Z"/>
</svg>