<?xml version="1.0" encoding="UTF-8"?>
<svg xmlns="http://www.w3.org/2000/svg" viewBox="0 0 72 72">
    <path d="m24.06,25.77h-2.2l-4.44-7.5h-.05v7.5h-2.2v-10.97h2.2l4.44,7.49h.05v-7.49h2.2s0,10.97,0,10.97Z" stroke-width="0"/>
    <path d="m28.99,14.8l2.79,8.09h.05l2.82-8.09h2.88v10.97h-2.2v-3.27l.21-4.85h-.05l-2.95,8.12h-1.48l-2.92-8.09h-.05l.21,4.82v3.27h-2.2v-10.97h2.89Z" stroke-width="0"/>
    <path d="m45.46,23.4h-3.85l-.75,2.37h-2.23l3.78-10.97h2.25l3.76,10.97h-2.23s-.75-2.37-.75-2.37Zm-3.31-1.72h2.77l-1.35-4.31h-.05l-1.36,4.31Z" stroke-width="0"/>
    <path d="m55.39,22.9c0-.42-.15-.76-.45-1.02s-.82-.5-1.57-.72c-1.31-.37-2.29-.82-2.96-1.34s-1-1.22-1-2.12.39-1.63,1.14-2.2,1.75-.86,2.93-.86,2.19.32,2.95.96,1.13,1.43,1.11,2.37v.05h-2.15c0-.5-.17-.91-.51-1.23s-.81-.48-1.43-.48-1.04.13-1.36.39-.49.59-.49,1c0,.37.17.68.51.91s.94.49,1.79.76c1.21.33,2.12.78,2.75,1.34s.94,1.27.94,2.17-.37,1.68-1.11,2.23-1.72.81-2.93.81-2.24-.31-3.13-.93-1.32-1.48-1.3-2.59v-.05h2.16c0,.66.21,1.13.6,1.44s.95.45,1.67.45c.59,0,1.05-.13,1.38-.37s.48-.58.48-.99h-.03Z" stroke-width="0"/>
      <path d="m46.41,60.93c-.62-.01-1.11-.52-1.1-1.13,0-.33.16-.65.42-.86,4.23-3.06,6.74-7.96,6.75-13.18,0-.62.5-1.12,1.12-1.12s1.12.5,1.12,1.12c0,5.92-2.85,11.48-7.65,14.96-.19.14-.42.22-.65.22Z" stroke-width="0"/>
      <path d="m53.34,43.91c-.54,0-1-.38-1.1-.91-.3-1.73-.88-3.4-1.72-4.95-.26-.56-.03-1.22.53-1.49.51-.24,1.13-.06,1.43.42.96,1.76,1.62,3.66,1.96,5.63.1.6-.31,1.17-.91,1.28l-.19.02Z" stroke-width="0"/>
      <path d="m19.85,41.38c-.62,0-1.12-.5-1.12-1.12,0-.12.02-.24.06-.35.86-2.57,2.27-4.91,4.14-6.88.43-.45,1.13-.46,1.58-.04s.46,1.13.04,1.58c-1.64,1.72-2.88,3.78-3.64,6.03-.15.46-.58.77-1.06.77Z" stroke-width="0"/>
      <path d="m20.68,54.15c-.37,0-.7-.21-.86-.55-1.39-2.9-1.98-6.12-1.72-9.33.04-.53.5-.92,1.03-.88.53.04.92.5.88,1.03-.23,2.87.3,5.75,1.54,8.35.23.48.03,1.05-.45,1.28-.13.06-.27.09-.41.09h0Z" stroke-width="0"/>
      <path d="m24.3,59.32c-.24,0-.46-.1-.64-.26-.69-.66-1.33-1.38-1.91-2.15-.41-.34-.46-.94-.12-1.35.34-.41.94-.46,1.35-.12.1.09.19.19.24.31.53.68,1.11,1.32,1.73,1.91.38.36.4.97.04,1.35-.18.19-.42.29-.68.3h-.02Z" stroke-width="0"/>
      <path d="m24.49,50.65c-.5,0-.95-.32-1.08-.8-.42-1.32-.64-2.69-.64-4.07,0-7.44,6.05-13.47,13.49-13.46,0,0,0,0,0,0,.62,0,1.12.5,1.12,1.12s-.5,1.12-1.12,1.12c-6.21,0-11.23,5.04-11.23,11.24,0,1.15.18,2.29.52,3.38.18.59-.14,1.21-.73,1.4-.11.04-.22.07-.34.08Z" stroke-width="0"/>
      <path d="m28.56,62.43c-.08,0-.16,0-.24,0-.6-.14-.98-.73-.85-1.33.85-3.93-.77-5.79-1.37-6.49l-.13-.13c-.41-.46-.38-1.16.08-1.58.46-.41,1.16-.38,1.58.08.02.02.03.04.05.06l.08.1c1.97,2.25,2.6,5.1,1.88,8.42-.11.5-.55.86-1.06.87Z" stroke-width="0"/>
      <path d="m41.27,62.36h-.13c-.61-.06-1.06-.61-1-1.22.4-4.22,2.11-5.74,3.49-6.91.3-.25.59-.52.86-.81.42-.45,1.13-.48,1.58-.05.45.42.48,1.13.05,1.58-.32.34-.67.66-1.03.96-1.28,1.09-2.42,2.12-2.74,5.45-.05.56-.52,1-1.09,1.01Z" stroke-width="0"/>
      <path d="m47.7,51.56c-.14,0-.29-.03-.42-.08-.58-.23-.86-.88-.64-1.45,0,0,0,0,0,0,.55-1.35.83-2.79.83-4.24.02-4.2-2.33-8.06-6.07-9.99-.55-.28-.77-.96-.48-1.51.28-.55.96-.77,1.51-.48,6.2,3.2,8.94,10.6,6.31,17.06-.17.42-.58.7-1.03.7Z" stroke-width="0"/>
      <path d="m40.79,52.87c-.53,0-.96-.42-.96-.95,0-.3.14-.58.37-.76,1.29-.99,2.16-2.42,2.45-4.02.25-1.4.03-2.85-.64-4.11-.24-.47-.05-1.05.42-1.29.47-.24,1.05-.05,1.29.42,1.84,3.62.84,8.04-2.38,10.52-.16.12-.35.19-.55.2Z" stroke-width="0"/>
      <path d="m31.57,41.14c-.29,0-.56-.13-.75-.35-.33-.41-.27-1.01.15-1.35,0,0,0,0,0,0,1.49-1.23,3.37-1.9,5.3-1.91,1.3,0,2.57.32,3.72.91.49.2.72.76.52,1.25-.2.49-.76.72-1.25.52-.04-.02-.09-.04-.13-.06-2.29-1.14-5.03-.84-7.02.78-.16.13-.36.2-.56.21Z" stroke-width="0"/>
      <path d="m32.85,63.55c-.16,0-.32-.04-.46-.11-.45-.25-.62-.82-.38-1.28,1.91-3.48,1.14-7.32-.64-9.31l-.13-.15c-1.59-1.79-3.4-3.83-3.4-6.68,0-1.12.21-2.24.64-3.28.21-.49.77-.72,1.26-.51.49.21.72.77.51,1.26-.34.81-.51,1.67-.51,2.55,0,2.14,1.42,3.72,2.91,5.4l.13.15c2.16,2.42,3.36,7.06.89,11.51-.18.28-.49.45-.82.45Z" stroke-width="0"/>
      <path d="m37.27,63.55c-.09,0-.19-.01-.27-.04-.51-.15-.79-.69-.64-1.19,2.48-8.21.26-10.69-.58-11.62-.24-.24-.49-.47-.75-.68-1.05-.94-2.49-2.23-2.49-4.06.04-2,1.62-3.63,3.62-3.74.95-.11,1.91.2,2.61.85.99.92,1.49,2.51,1.47,4.72v.07c0,.53-.43.96-.96.96s-.96-.43-.96-.96v-.08c0-2.07-.46-2.94-.86-3.32-.32-.28-.74-.4-1.16-.34-1.02,0-1.86.79-1.91,1.81,0,.98.98,1.86,1.85,2.63.31.27.61.55.89.85,1.62,1.8,3.48,5.16.98,13.45-.11.38-.46.65-.85.68Z" stroke-width="0"/>
    <path d="m60.46,10.65H11.83c-.36,0-.64.28-.64.64v17.77c.01.36.3.64.66.64h15.48c-.33.18-.67.33-.99.54-.3.2-.48.54-.49.9-.01.62.47,1.13,1.09,1.14.22.01.45-.04.64-.16,1.54-.99,3.23-1.71,5.01-2.13.2-.05.36-.16.49-.29h6.38c3.24.64,6.24,2.25,8.56,4.67.18.19.43.29.69.29.26,0,.51-.09.69-.27.37-.37.37-.98,0-1.35-1.3-1.36-2.81-2.47-4.43-3.34h15.49c.36,0,.64-.28.64-.64V11.29c0-.36-.28-.64-.64-.64Zm-.64,17.76H12.47V11.93h47.34v16.48Z" stroke-width="0"/>
    <rect x=".36" y=".36" width="71.28" height="71.28" fill="none" stroke-width="0"/>
</svg>