<?xml version="1.0" encoding="UTF-8"?>
<svg xmlns="http://www.w3.org/2000/svg" viewBox="0 0 72 72">
    <path d="m36.04,65.41c-2.75,0-5.36-1.05-7.35-2.96l-.08-.08c-1.2-1.33-3.04-1.99-4.83-1.72-.47.05-.88.08-1.27.08-5.86,0-10.63-4.77-10.63-10.63,0-.43.03-.87.08-1.28.26-1.82-.41-3.61-1.77-4.82-2.21-2.03-3.47-4.88-3.47-7.84s1.26-5.81,3.44-7.82c1.39-1.22,2.05-3.01,1.8-4.81-.05-.44-.08-.88-.08-1.31,0-5.86,4.77-10.63,10.63-10.63.4,0,.81.02,1.22.07,1.84.27,3.69-.38,4.88-1.71l.08-.08c1.99-1.91,4.6-2.96,7.35-2.96,2.95,0,5.8,1.26,7.82,3.44,1.22,1.39,3.01,2.05,4.81,1.8.45-.05.89-.08,1.31-.08,5.86,0,10.63,4.77,10.63,10.63,0,.4-.02.81-.07,1.22-.28,1.83.38,3.68,1.71,4.88l.08.08c1.91,1.99,2.96,4.58,2.96,7.29s-1.05,5.3-2.96,7.29l-.08.08c-1.33,1.2-1.99,3.05-1.72,4.83.05.46.08.87.08,1.27,0,5.86-4.77,10.63-10.63,10.63-.42,0-.86-.03-1.28-.08-1.83-.26-3.62.41-4.82,1.77-2.04,2.21-4.88,3.47-7.84,3.47Zm-5.23-5.09c1.42,1.35,3.28,2.09,5.23,2.09,2.12,0,4.16-.9,5.61-2.48,1.85-2.1,4.64-3.13,7.43-2.74.27.03.58.05.89.05,4.21,0,7.63-3.42,7.63-7.63,0-.29-.02-.59-.05-.88-.41-2.69.6-5.55,2.64-7.41,1.37-1.44,2.09-3.23,2.09-5.17s-.72-3.73-2.09-5.17c-2.04-1.86-3.05-4.72-2.64-7.46.03-.23.04-.53.04-.83,0-4.21-3.42-7.63-7.63-7.63-.31,0-.62.02-.92.05-2.77.39-5.55-.64-7.42-2.76-1.43-1.55-3.47-2.45-5.59-2.45-1.95,0-3.81.74-5.23,2.09-1.86,2.04-4.72,3.05-7.46,2.64-.23-.03-.53-.04-.83-.04-4.21,0-7.63,3.42-7.63,7.63,0,.31.02.62.05.92.39,2.77-.64,5.55-2.76,7.43-1.55,1.43-2.45,3.47-2.45,5.59s.9,4.17,2.48,5.61c2.1,1.85,3.13,4.64,2.74,7.43-.03.27-.05.58-.05.89,0,4.21,3.42,7.63,7.63,7.63.29,0,.59-.02.88-.05,2.69-.41,5.55.6,7.41,2.64Z" stroke-width="0"/>
    <polygon points="32.73 45.83 23.12 36.22 26.84 32.5 32.73 38.39 46.4 24.72 50.12 28.44 32.73 45.83" stroke-width="0"/>
    <rect x=".36" y=".36" width="71.28" height="71.28" fill="none" stroke-width="0"/>
</svg>