<?xml version="1.0" encoding="UTF-8"?>
<svg xmlns="http://www.w3.org/2000/svg" viewBox="0 0 72 72">
    <path d="m45.63,48.31h-26.2c-.27,0-.53-.11-.72-.3-.19-.19-.29-.46-.28-.73.04-1.14.16-4.9.24-5.39v-.1c.08-.52.23-1.59,1.61-2.37,1.46-.82,2.86-1.44,3.99-1.93,1.07-.47,1.99-.87,2.53-1.26.28-.45.7-2.26.65-2.83-.09-.37-1.04-1.64-1.36-2.05-.16-.22-.29-.39-.36-.49-.25-.38-.92-1.39-.92-2.6,0-.48.05-.73.11-.98.04-.16.07-.29.07-.74v-.18c0-1,0-1.79.6-4.26.29-1.18,1.23-2.49,2.23-3.13.71-.45,1.12-.45,1.65-.4.39.04,1.05.1,2.83-.3,1.84-.41,3.94.58,5.19,1.55,1.24.98,1.94,2.1,1.96,3.17.03,1.5.26,2.57.45,3.43.13.58.23,1.04.23,1.47,0,1.12-.57,2.39-.92,2.93l-.11.16c-1.32,1.96-1.49,2.51-1.51,2.64-.02.43.36,2.09.62,2.54.58.43,1.62.9,2.81,1.44,1.12.5,2.38,1.08,3.74,1.81,1.36.74,1.53,1.89,1.62,2.44.08.54.21,4.29.24,5.43,0,.27-.09.53-.28.73-.19.19-.45.3-.72.3Zm-25.17-2h24.14c-.07-1.96-.14-3.85-.18-4.12-.07-.46-.11-.76-.6-1.03-1.29-.7-2.52-1.26-3.6-1.75-1.39-.63-2.49-1.12-3.24-1.7h0c-.99-.76-1.39-3.7-1.36-4.23.04-.7.55-1.72,1.85-3.63l.1-.15c.21-.31.59-1.2.59-1.82,0-.22-.08-.6-.18-1.04-.2-.9-.47-2.12-.5-3.83,0-.35-.38-1-1.2-1.64-1.14-.9-2.59-1.38-3.51-1.17-2.09.47-2.95.39-3.46.34-.08,0-.14-.02-.2-.01,0,0-.05.02-.2.11-.57.36-1.19,1.24-1.36,1.92-.55,2.24-.55,2.85-.55,3.78v.19c0,.64-.06.92-.12,1.21-.03.14-.05.23-.05.52,0,.61.41,1.23.59,1.49.05.08.16.22.29.4,1.09,1.45,1.69,2.38,1.75,3.09.07.79-.41,3.8-1.37,4.53-.72.55-1.73.99-3.01,1.55-1.15.5-2.44,1.07-3.81,1.84-.51.29-.55.52-.6.9l-.02.14c-.04.27-.11,2.15-.18,4.11Zm6.31-10.05h0Z" stroke-width="0"/>
    <path d="m54.97,22.07h-10.53c-.55,0-1-.45-1-1s.45-1,1-1h10.53c.55,0,1,.45,1,1s-.45,1-1,1Z" stroke-width="0"/>
    <path d="m54.97,26.51h-10.53c-.55,0-1-.45-1-1s.45-1,1-1h10.53c.55,0,1,.45,1,1s-.45,1-1,1Z" stroke-width="0"/>
    <path d="m54.97,30.94h-10.53c-.55,0-1-.45-1-1s.45-1,1-1h10.53c.55,0,1,.45,1,1s-.45,1-1,1Z" stroke-width="0"/>
    <path d="m54.97,35.37h-10.53c-.55,0-1-.45-1-1s.45-1,1-1h10.53c.55,0,1,.45,1,1s-.45,1-1,1Z" stroke-width="0"/>
    <path d="m35.9,65.65c-.27,0-.54-.07-.78-.21-.26-.15-1-.5-1.85-.91-9.33-4.47-20.23-10.34-21.76-16.05-.68-2.51-3.62-28.33-3.95-31.27-.08-.73.35-1.42,1.04-1.66l26.78-9.48c.34-.12.71-.12,1.05,0l26.78,9.48c.69.24,1.12.93,1.04,1.66-.33,2.94-3.27,28.76-3.95,31.27-1.54,5.71-12.44,11.58-21.76,16.05-.85.41-1.59.76-1.85.91-.24.14-.51.21-.78.21ZM10.83,18.1c1.3,11.43,3.27,27.9,3.72,29.56,1.36,5.05,15.45,11.81,20.08,14.03.51.24.93.44,1.27.61.34-.17.76-.37,1.27-.61,18.73-8.98,19.75-12.78,20.09-14.03.45-1.67,2.42-18.13,3.72-29.56l-25.07-8.88-25.07,8.88Z" stroke-width="0"/>
    <rect x=".36" y=".36" width="71.28" height="71.28" fill="none" stroke-width="0"/>
</svg>