<?xml version="1.0" encoding="UTF-8"?>
<svg xmlns="http://www.w3.org/2000/svg" viewBox="0 0 72 72">
    <circle cx="33.26" cy="20.43" r="2.16" stroke-width="0"/>
    <circle cx="33.26" cy="43.38" r="2.16" stroke-width="0"/>
    <path d="m62.52,51.79c.21.03.41-.04.56-.19s.21-.36.18-.56c-.22-1.43-2.12-3.28-4.16-3.45-.26-.02-.54-.02-.84,0l.65-.97c.4-.6.32-1.41-.19-1.92l-1.47-1.46c-.3-.29-.69-.45-1.08-.45-.29,0-.59.08-.85.26l-1.99,1.32c-.32-.15-.65-.29-.99-.41l-.47-2.33c-.14-.71-.77-1.22-1.5-1.22h-2.08c-.73,0-1.36.51-1.5,1.22l-.47,2.33c-.34.12-.67.25-.99.41l-1.99-1.32c-.26-.17-.55-.26-.85-.26-.4,0-.79.15-1.08.45l-1.47,1.46c-.52.51-.6,1.31-.19,1.92l1.33,1.98c-.15.32-.29.64-.41.98l-2.34.47c-.71.14-1.23.77-1.23,1.49v2.07c0,.72.51,1.35,1.23,1.49l2.34.47c.12.34.26.66.41.98l-1.33,1.98c-.4.6-.32,1.41.19,1.92l1.47,1.46c.3.29.69.45,1.08.45.29,0,.59-.08.85-.26l1.99-1.32c.32.15.65.29.99.41l.47,2.33c.14.71.77,1.22,1.5,1.22h2.08c.73,0,1.36-.51,1.5-1.22l.47-2.33c.34-.12.67-.26.99-.41l1.99,1.32c.26.17.55.26.85.26.4,0,.79-.15,1.08-.45l1.47-1.46c.51-.51.6-1.31.19-1.92l-.59-.88c.11,0,.21.02.31.02,2.26,0,3.86-2.08,3.94-2.18.14-.19.17-.43.08-.65-.09-.21-.28-.37-.52-.4l-3.05-.42-.41-1.39c.45-.59.75-.99.95-1.27l2.9.43Zm-3.66-1.57s-.03.04-.05.06c-.08.11-1.39,1.83-1.39,1.83-.13.17-.17.38-.11.58l.63,2.11c.07.25.28.43.54.46l2.16.3c-.57.45-1.39.88-2.29.78-.78-.09-1.58-.39-2.02-.76-2.33-1.96-4.5-2.06-4.61-2.07h-7.52c-.28,0-.52.18-.61.43-.08.15-.1.33-.04.5.23.71.59,1.36,1.06,1.94,1.16,1.42,2.87,2.23,4.7,2.23s3.52-.8,4.68-2.21c.16-.19.3-.39.43-.6.34.21.7.46,1.06.77.17.14.36.27.57.39.04.13.1.26.18.38l1.43,2.08-1.46,1.45-2.09-1.42c-.25-.17-.55-.25-.84-.25-.22,0-.45.05-.66.15-.26.13-.53.24-.81.34-.51.17-.88.6-.99,1.13l-.47,2.5h-2.06l-.46-2.5c-.11-.52-.48-.95-.99-1.13-.28-.1-.55-.21-.81-.34-.21-.1-.43-.15-.66-.15-.29,0-.59.09-.84.25l-2.08,1.41-1.46-1.45,1.42-2.07c.3-.44.34-1.01.1-1.49-.13-.26-.24-.53-.34-.81-.18-.5-.61-.88-1.13-.98l-2.71-.46v-2.05s2.71-.46,2.71-.46c.53-.1.96-.48,1.13-.98.1-.28.21-.55.34-.81.23-.48.2-1.05-.1-1.49l-1.45-2.1,1.45-1.45,2.11,1.45c.25.17.55.25.84.25.22,0,.45-.05.66-.15.26-.13.53-.24.81-.34.51-.17.88-.6.99-1.13l.46-2.65h2.06s.46,2.65.46,2.65c.11.52.48.95.99,1.13.28.1.55.21.81.34.21.1.43.15.66.15.29,0,.59-.09.84-.25l2.12-1.46,1.46,1.45-1.82,2.63c-.19.12-.38.25-.55.4-.28.26-.57.47-.86.65-.3-.49-.66-.93-1.08-1.32-1.12-1.02-2.57-1.58-4.08-1.58s-3.06.6-4.19,1.68c-.72.69-1.27,1.56-1.58,2.51-.03.1-.04.21-.02.31,0,.01,0,.03,0,.04,0,.36.29.65.65.65h6.81c.31.02,2.94.09,5.23-1.99.76-.69,2.08-.86,2.77-.8.97.08,1.92.74,2.48,1.41l-2.04-.3c-.22-.03-.43.05-.58.21Zm-5.61,5c-.08.12-.17.24-.26.36-.91,1.1-2.24,1.73-3.67,1.73s-2.78-.64-3.69-1.75c-.19-.23-.35-.48-.49-.73h6.56s.63.03,1.55.4Zm.06-5.25c-1.24.46-2.23.41-2.25.41-.02,0-.03,0-.05,0h-5.92c.24-.47.55-.9.93-1.26.89-.85,2.06-1.32,3.29-1.32s2.32.44,3.2,1.24c.3.28.57.59.79.93Z" stroke-width="0"/>
    <path d="m33.11,53.42c-11.77-.12-21.31-9.72-21.31-21.51,0-8.77,5.28-16.33,12.83-19.67-2.05,2.15-3.32,5.05-3.32,8.24,0,7.28,4.69,11.98,11.95,11.98,5.32,0,8.85,2.66,9.9,7.23h1.74c-1.11-5.58-5.35-8.93-11.65-8.93-7.56,0-10.25-5.31-10.25-10.28s3.29-8.79,7.72-9.92c.85-.1,1.71-.17,2.59-.17,11.87,0,21.52,9.65,21.52,21.52,0,2.75-.53,5.37-1.48,7.79h2.73c.84-2.44,1.3-5.06,1.3-7.79,0-13.27-10.8-24.07-24.07-24.07S9.25,18.63,9.25,31.91s10.68,23.95,23.86,24.07v-2.56Z" stroke-width="0"/>
    <rect x=".36" y=".36" width="71.28" height="71.28" fill="none" stroke-width="0"/>
</svg>