<?xml version="1.0" encoding="UTF-8"?>
<svg xmlns="http://www.w3.org/2000/svg" viewBox="0 0 72 72">
    <circle cx="33.9" cy="20.43" r="2.16" stroke-width="0"/>
    <circle cx="33.9" cy="43.38" r="2.16" stroke-width="0"/>
    <rect x="38.57" y="42.04" width="22.11" height="21.04" fill="none" stroke="#000" stroke-linecap="round" stroke-linejoin="round" stroke-width="1.6"/>
    <polygon points="47.97 57.77 42.74 52.54 44.63 50.65 47.97 53.99 54.98 46.98 56.87 48.86 47.97 57.77" stroke-width="0"/>
    <path d="m33.11,53.38c-11.47-.45-20.67-9.9-20.67-21.48,0-8.77,5.28-16.33,12.83-19.67-2.05,2.15-3.32,5.05-3.32,8.24,0,7.28,4.69,11.98,11.95,11.98,5.32,0,8.85,2.66,9.9,7.23h1.74c-1.11-5.58-5.35-8.93-11.65-8.93-7.56,0-10.25-5.31-10.25-10.28s3.29-8.79,7.72-9.92c.85-.1,1.71-.17,2.59-.17,11.87,0,21.52,9.65,21.52,21.52,0,2.75-.53,5.37-1.48,7.79h2.73c.84-2.44,1.3-5.06,1.3-7.79,0-13.27-10.8-24.07-24.07-24.07S9.89,18.63,9.89,31.91s10.34,23.6,23.22,24.05v-2.57Z" stroke-width="0"/>
    <rect x=".36" y=".36" width="71.28" height="71.28" fill="none" stroke-width="0"/>
</svg>