<?xml version="1.0" encoding="UTF-8"?>
<svg id="Layer_1" xmlns="http://www.w3.org/2000/svg" version="1.1" viewBox="0 0 72 72">
  <!-- Generator: Adobe Illustrator 29.0.1, SVG Export Plug-In . SVG Version: 2.1.0 Build 192)  -->
  <defs>
    <style>
      .st0 {
        fill: none;
      }
    </style>
  </defs>
  <path d="M45.6,48.3h-26.2c-.3,0-.5-.1-.7-.3-.2-.2-.3-.5-.3-.7,0-1.1.2-4.9.2-5.4h0c0-.6.2-1.7,1.6-2.5,1.5-.8,2.9-1.4,4-1.9,1.1-.5,2-.9,2.5-1.3.3-.5.7-2.3.6-2.8,0-.4-1-1.6-1.4-2-.2-.2-.3-.4-.4-.5-.2-.4-.9-1.4-.9-2.6s0-.7.1-1c0-.2,0-.3,0-.7v-.2c0-1,0-1.8.6-4.3.3-1.2,1.2-2.5,2.2-3.1.7-.5,1.1-.5,1.6-.4.4,0,1,.1,2.8-.3,1.8-.4,3.9.6,5.2,1.5,1.2,1,1.9,2.1,2,3.2,0,1.5.3,2.6.5,3.4.1.6.2,1,.2,1.5,0,1.1-.6,2.4-.9,2.9v.2c-1.4,2-1.6,2.5-1.6,2.6,0,.4.4,2.1.6,2.5.6.4,1.6.9,2.8,1.4,1.1.5,2.4,1.1,3.7,1.8,1.4.7,1.5,1.9,1.6,2.4,0,.5.2,4.3.2,5.4,0,.3,0,.5-.3.7-.2.2-.5.3-.7.3h0ZM20.5,46.3h24.1c0-2-.1-3.8-.2-4.1,0-.5-.1-.8-.6-1-1.3-.7-2.5-1.3-3.6-1.8-1.4-.6-2.5-1.1-3.2-1.7h0c-1-.8-1.4-3.7-1.4-4.2,0-.7.5-1.7,1.8-3.6h0c.2-.5.6-1.4.6-2s0-.6-.2-1c-.2-.9-.5-2.1-.5-3.8,0-.4-.4-1-1.2-1.6-1.1-.9-2.6-1.4-3.5-1.2-2.1.5-3,.4-3.5.3,0,0-.1,0-.2,0,0,0,0,0-.2.1-.6.4-1.2,1.2-1.4,1.9-.5,2.2-.5,2.9-.5,3.8v.2c0,.6,0,.9-.1,1.2,0,.1,0,.2,0,.5,0,.6.4,1.2.6,1.5,0,0,.2.2.3.4,1.1,1.5,1.7,2.4,1.8,3.1,0,.8-.4,3.8-1.4,4.5-.7.5-1.7,1-3,1.5-1.1.5-2.4,1.1-3.8,1.8-.5.3-.5.5-.6.9h0c0,.4-.1,2.3-.2,4.2h0ZM26.8,36.3h0Z"/>
  <path d="M55,22.1h-10.5c-.5,0-1-.5-1-1s.5-1,1-1h10.5c.5,0,1,.5,1,1s-.5,1-1,1Z"/>
  <path d="M55,26.5h-10.5c-.5,0-1-.5-1-1s.5-1,1-1h10.5c.5,0,1,.5,1,1s-.5,1-1,1Z"/>
  <path d="M55,30.9h-10.5c-.5,0-1-.5-1-1s.5-1,1-1h10.5c.5,0,1,.5,1,1s-.5,1-1,1Z"/>
  <path d="M55,35.4h-10.5c-.5,0-1-.5-1-1s.5-1,1-1h10.5c.5,0,1,.5,1,1s-.5,1-1,1Z"/>
  <path d="M35.9,65.7c-.3,0-.5,0-.8-.2-.3-.2-1-.5-1.8-.9-9.3-4.5-20.2-10.3-21.8-16-.7-2.5-3.6-28.3-3.9-31.3,0-.7.3-1.4,1-1.7l26.8-9.5c.3-.1.7-.1,1,0l26.8,9.5c.7.2,1.1.9,1,1.7-.3,2.9-3.3,28.8-4,31.3-1.5,5.7-12.4,11.6-21.8,16-.8.4-1.6.8-1.8.9-.2.1-.5.2-.8.2h0ZM10.8,18.1c1.3,11.4,3.3,27.9,3.7,29.6,1.4,5,15.4,11.8,20.1,14,.5.2.9.4,1.3.6.3-.2.8-.4,1.3-.6,18.7-9,19.8-12.8,20.1-14,.5-1.7,2.4-18.1,3.7-29.6l-25.1-8.9-25.1,8.9h0Z"/>
  <rect class="st0" x=".4" y=".4" width="71.3" height="71.3"/>
</svg>