<?xml version="1.0" encoding="UTF-8"?>
<svg id="Layer_1" data-name="Layer 1" xmlns="http://www.w3.org/2000/svg" width="72" height="72" viewBox="0 0 72 72">
  <g>
    <path d="M30,56.68h-15.1c-.14,0-.26-.05-.36-.15-.1-.1-.15-.23-.14-.37,0-.75.09-3.23.14-3.52.03-.61.38-1.15.92-1.43.75-.42,1.39-.75,1.94-1,.58-.26,1.14-.58,1.67-.94.24-.57.38-1.17.4-1.79-.23-.46-.51-.9-.84-1.3l-.21-.29c-.33-.44-.52-.97-.55-1.52,0-.19.02-.38.07-.57.02-.16.02-.32,0-.48v-.11c0-.87.12-1.73.37-2.56.21-.75.67-1.4,1.3-1.84.27-.19.61-.27.94-.22.59.04,1.18-.03,1.75-.19,1.1-.13,2.21.21,3.06.93.64.41,1.06,1.09,1.15,1.84-.02.53.02,1.06.13,1.58.04.15.06.3.08.45,0,.09.03.17.07.25.11.22.16.46.14.7-.03.61-.22,1.2-.55,1.72l-.06.09c-.4.49-.72,1.05-.93,1.65.04.57.18,1.12.4,1.64.64.43,1.31.82,2,1.16.46.24,1,.51,1.56.83.53.28.88.8.93,1.4.05.32.13,2.8.15,3.55.01.28-.2.51-.48.52h-.02s.07-.03.07-.03ZM15.4,55.68h14.09c0-1.36-.09-2.72-.11-2.89,0-.29-.16-.57-.42-.71l-1.55-.81c-.77-.36-1.5-.79-2.2-1.27-.54-.3-.8-2.17-.78-2.48.2-.79.58-1.52,1.1-2.15l.06-.09c.23-.35.37-.75.41-1.16.02-.1.02-.2,0-.3-.08-.16-.13-.33-.15-.5-.01-.13-.04-.26-.07-.39-.12-.58-.17-1.18-.15-1.77-.1-.45-.37-.83-.76-1.08-.62-.53-1.42-.79-2.23-.73-.67.19-1.37.26-2.06.2-.11-.02-.23,0-.31.08-.42.3-.73.73-.87,1.23-.25.75-.39,1.53-.4,2.32v.11c0,.24-.02.48-.07.71-.02.11-.02.23,0,.34.02.36.15.71.38,1l.18.25c.47.52.81,1.14,1,1.82,0,.93-.28,1.83-.81,2.59-.58.39-1.19.73-1.83,1-.53.28-1.17.6-1.9,1-.25.1-.41.35-.41.62-.04.38-.09,1.7-.13,3.06h-.01ZM25.75,49.16s.04.04.07.05l-.07-.05Z"/>
    <path d="M60,40.62v18.21c0,1-.81,1.8-1.81,1.8H14c-.99,0-1.79-.81-1.8-1.8v-30.92h22v-1H12.12l-3.91-14.1c.09-.93.86-1.63,1.79-1.64h52.18c.94,0,1.73.7,1.82,1.64l-1,3.57c.86.99,1.61,2.09,2.21,3.26l1.73-6.26c.01-.13.01-.27,0-.4,0-2.65-2.16-4.8-4.81-4.81H10c-2.66.01-4.8,2.17-4.79,4.83h0c-.02.13-.02.27,0,.4l4,14.38v31.05c0,2.65,2.15,4.8,4.8,4.8h44.17c2.66,0,4.81-2.14,4.82-4.8h0v-20.92c-.89,1.02-1.89,1.93-3,2.71Z"/>
    <path d="M56.66,45.41h-3.84c-.28,0-.5-.22-.5-.5s.22-.5.5-.5h3.84c.28,0,.5.22.5.5s-.22.5-.5.5Z"/>
    <path d="M50.11,45.41h-16.85c-.28,0-.5-.22-.5-.5s.22-.5.5-.5h16.85c.27,0,.49.23.5.5,0,.28-.22.5-.5.5Z"/>
    <path d="M56.66,56.25h-6.17c-.28,0-.5-.22-.5-.5s.22-.5.5-.5h6.17c.28,0,.5.22.5.5s-.22.5-.5.5h0Z"/>
    <path d="M36.22,56.25h-3c-.28,0-.5-.22-.5-.5s.22-.5.5-.5h3c.27,0,.49.23.5.5,0,.28-.22.5-.5.5Z"/>
    <path d="M42,56.25h-3c-.28,0-.5-.22-.5-.5s.23-.49.5-.5h3c.27,0,.49.23.5.5,0,.28-.22.5-.5.5Z"/>
    <path d="M47.84,56.25h-3c-.28,0-.5-.22-.5-.5s.23-.49.5-.5h3c.28,0,.5.22.5.5s-.22.5-.5.5Z"/>
    <path d="M56.66,49h-10.17c-.28,0-.5-.22-.5-.5s.22-.5.5-.5h10.17c.28,0,.5.22.5.5s-.22.5-.5.5Z"/>
    <path d="M41.13,49h-7.87c-.28,0-.5-.22-.5-.5s.22-.5.5-.5h7.87c.28,0,.5.22.5.5s-.22.5-.5.5Z"/>
    <path d="M56.66,52.64h-23.4c-.28,0-.5-.22-.5-.5s.22-.5.5-.5h23.4c.28,0,.5.22.5.5s-.22.5-.5.5Z"/>
    <path d="M27.74,33.25h-10.58c-.55,0-1-.45-1-1s.45-1,1-1h10.58c.55,0,1,.45,1,1s-.45,1-1,1Z"/>
    <path d="M34.71,31.25h-1.45c-.55,0-1,.45-1,1s.45,1,1,1h2.1c-.26-.65-.48-1.32-.65-2Z"/>
    <path d="M37.62,37.19h-4.36c-.28,0-.5.22-.5.5s.22.5.5.5h5.2c-.29-.32-.57-.66-.84-1Z"/>
    <path d="M41.47,40.8h-8.21c-.28,0-.5.22-.5.5s.22.5.5.5h10c-.62-.29-1.22-.63-1.79-1Z"/>
  </g>
  <path d="M50.82,39.7c-7.06,0-12.8-5.74-12.8-12.8s5.74-12.8,12.8-12.8,12.8,5.74,12.8,12.8-5.74,12.8-12.8,12.8ZM50.82,14.8c-6.67,0-12.1,5.43-12.1,12.1s5.43,12.1,12.1,12.1,12.1-5.43,12.1-12.1-5.43-12.1-12.1-12.1Z"/>
  <polygon points="48.53 33.11 42.88 27.46 45.07 25.27 48.53 28.73 56.57 20.69 58.76 22.88 48.53 33.11"/>
</svg>