<?xml version="1.0" encoding="UTF-8"?>
<svg xmlns="http://www.w3.org/2000/svg" viewBox="0 0 72 72">
    <path d="m51.04,16.61h-26.3v3h26.3v-3Z" stroke-width="0"/>
    <path d="m18.25,20.96c-.28,0-.5-.23-.49-.51,0-.13.05-.25.14-.34l2.23-2.23-2.23-2.23c-.2-.2-.2-.51,0-.71s.51-.2.71,0h0l2.59,2.59c.2.19.2.51,0,.71h0l-2.59,2.59c-.1.09-.23.14-.36.13Z" stroke-width="0"/>
    <path d="m18.25,28.63c-.28,0-.5-.23-.49-.51,0-.13.05-.25.14-.34l2.23-2.23-2.23-2.23c-.2-.2-.2-.51,0-.71s.51-.2.71,0h0l2.59,2.59c.2.19.2.51,0,.71h0l-2.6,2.54c-.09.11-.21.17-.35.18Z" stroke-width="0"/>
    <path d="m18.25,36.31c-.28,0-.51-.21-.51-.49,0-.14.05-.28.15-.37l2.23-2.23-2.23-2.23c-.2-.2-.2-.51,0-.71s.51-.2.71,0l2.59,2.59c.2.19.2.51,0,.71h0l-2.59,2.59c-.09.09-.22.14-.35.14Z" stroke-width="0"/>
    <path d="m18.25,43.98c-.28,0-.5-.23-.49-.51,0-.13.05-.25.14-.34l2.23-2.23-2.23-2.23c-.2-.2-.2-.51,0-.71s.51-.2.71,0l2.59,2.59c.2.19.2.51,0,.71h0l-2.59,2.59c-.1.09-.23.14-.36.13Z" stroke-width="0"/>
    <path d="m18.25,51.66c-.28,0-.5-.23-.49-.51,0-.13.05-.25.14-.34l2.23-2.23-2.23-2.23c-.2-.2-.2-.51,0-.71s.51-.2.71,0l2.59,2.59c.2.19.2.51,0,.71h0l-2.59,2.59c-.1.09-.23.14-.36.13Z" stroke-width="0"/>
    <path d="m18.25,59.16c-.28,0-.5-.23-.49-.51,0-.13.05-.25.14-.34l2.23-2.23-2.23-2.23c-.2-.2-.2-.51,0-.71s.51-.2.71,0l2.59,2.59c.2.19.2.51,0,.71h0l-2.59,2.59c-.1.09-.23.14-.36.13Z" stroke-width="0"/>
    <path d="m39.99,32.76c0-.39.32-.72.71-.72s.71.33.71.72-.32.72-.71.72-.71-.33-.71-.72Zm0,3c0-.39.32-.72.71-.72s.71.32.71.72-.32.72-.71.72-.71-.32-.71-.72Z" stroke-width="0"/>
    <path d="m43.84,36.46v-.61h1.66v-4.25h-.06l-1.61,1.04v-.73l1.68-1.09h.68v5.03h1.59v.61h-3.93Z" stroke-width="0"/>
    <path d="m50.55,30.71c1.04,0,1.75.64,1.75,1.58,0,.59-.27,1.05-1.16,2.04l-1.33,1.45v.07h2.58v.62h-3.57v-.48l1.91-2.12c.71-.8.89-1.1.89-1.55,0-.61-.43-1-1.08-1s-1.08.43-1.08,1.1v.02h-.66v-.02c0-.99.73-1.7,1.76-1.7Z" stroke-width="0"/>
    <path d="m54.82,32.76c0-.39.32-.72.71-.72s.71.33.71.72-.32.72-.71.72-.71-.33-.71-.72Zm0,3c0-.39.32-.72.71-.72s.71.32.71.72-.32.72-.71.72-.71-.32-.71-.72Z" stroke-width="0"/>
    <path d="m33.78,43.35c0-.7.45-1.27,1.15-1.44v-.06c-.57-.16-.92-.64-.92-1.25,0-.88.73-1.5,1.76-1.5s1.76.62,1.76,1.5c0,.61-.35,1.09-.92,1.25v.06c.68.14,1.15.73,1.15,1.44,0,.96-.81,1.63-1.98,1.63s-1.99-.67-1.99-1.63Zm3.28-.05c0-.64-.53-1.09-1.29-1.09s-1.29.45-1.29,1.09.53,1.09,1.29,1.09,1.29-.45,1.29-1.09Zm-.21-2.64c0-.57-.43-.96-1.08-.96s-1.09.38-1.09.96.43.96,1.09.96,1.08-.38,1.08-.96Z" stroke-width="0"/>
    <path d="m39.99,41.16c0-.39.32-.72.71-.72s.71.33.71.72-.32.72-.71.72-.71-.33-.71-.72Zm0,3c0-.39.32-.72.71-.72s.71.32.71.72-.32.72-.71.72-.71-.32-.71-.72Z" stroke-width="0"/>
    <path d="m46.3,43.67h-2.57v-.56l1.91-3.89h.7l-1.89,3.8v.05h1.85v-1.61h.62v1.6h.86v.61h-.86v1.19h-.63v-1.19Z" stroke-width="0"/>
    <path d="m51.79,39.89v-.05h-3.06v-.62h3.76v.64l-2.53,5h-.73l2.56-4.97Z" stroke-width="0"/>
    <path d="m54.82,41.16c0-.39.32-.72.71-.72s.71.33.71.72-.32.72-.71.72-.71-.33-.71-.72Zm0,3c0-.39.32-.72.71-.72s.71.32.71.72-.32.72-.71.72-.71-.32-.71-.72Z" stroke-width="0"/>
    <path d="m61.46,33.56V11.12c0-1.93-1.57-3.5-3.5-3.5H14.25c-1.93,0-3.5,1.57-3.5,3.5v50.58c0,.83.67,1.5,1.5,1.5s1.5-.67,1.5-1.5V11.12c0-.28.22-.5.5-.5h43.71c.28,0,.5.22.5.5v18.29c-3.07-3.12-7.34-5.06-12.06-5.06-2.51,0-4.88.56-7.02,1.54v-1.69h-14.52v3h12.15c-1.82,1.22-3.39,2.77-4.62,4.58h-7.53v3h5.91c-.61,1.46-1.02,3.02-1.2,4.65h-4.71v3h4.65c.11,1.58.43,3.1.94,4.53h-5.6v3h7.01c.49.82,1.05,1.59,1.67,2.32l-2.04,2.18h-6.64v3h3.83l-4.44,4.74c-.63.66-.6,1.71.07,2.33.32.3.73.45,1.13.45.44,0,.88-.17,1.2-.52l9.27-9.9c2.89,2.28,6.52,3.66,10.48,3.66,4.72,0,8.98-1.94,12.06-5.06v8.52c0,.83.67,1.5,1.5,1.5s1.5-.67,1.5-1.5v-12.68c1.19-2.32,1.88-4.94,1.88-7.72s-.69-5.4-1.88-7.72Zm-1.42,7.72c0,.26-.02.52-.04.78l-.71.59c-.02-.19-.03-.4-.03-.62,0-1.16.24-1.9.7-2.19.05.47.08.95.08,1.43Zm-.1,1.59c-.05.39-.1.79-.18,1.17-.15-.17-.28-.41-.36-.71l.54-.45Zm-23.34-11.05c.09.15.18.33.23.55l-1.93,1.61c.5-.78,1.06-1.5,1.7-2.16Zm.34,1.19c.02.2.03.4.03.63,0,1.53-.42,2.34-1.21,2.34-.53,0-.89-.36-1.08-1.05l2.27-1.91Zm-.96,17.05c-.39-.46-.74-.95-1.07-1.46.19-.29.5-.47.93-.47.64,0,1.06.38,1.06.95,0,.54-.38.91-.92.98Zm10.42,4.86c-3.25,0-6.24-1.15-8.59-3.06,0-.04.01-.07.01-.11,0-.77-.45-1.3-1.2-1.39v-.06c.61-.15.96-.63.96-1.31,0-.86-.72-1.46-1.73-1.46-.55,0-1,.17-1.32.48-1.13-1.99-1.79-4.28-1.79-6.72,0-2.12.5-4.11,1.36-5.9.3.78.86,1.2,1.63,1.2,1.22,0,1.9-1.05,1.9-2.95,0-1.02-.2-1.79-.58-2.29,2.44-2.29,5.72-3.71,9.32-3.71,6.82,0,12.46,5.03,13.47,11.57-.83.31-1.29,1.28-1.29,2.83,0,1.36.35,2.28,1,2.69-1.53,5.85-6.85,10.19-13.18,10.19Z" stroke-width="0"/>
    <path d="m39.99,49.56c0-.39.32-.72.71-.72s.71.33.71.72-.32.72-.71.72-.71-.33-.71-.72Zm0,3c0-.39.32-.72.71-.72s.71.32.71.72-.32.72-.71.72-.71-.32-.71-.72Z" stroke-width="0"/>
    <path d="m43.74,51.76h.66c.06.59.57,1,1.23,1,.73,0,1.21-.51,1.21-1.28s-.49-1.3-1.21-1.3c-.5,0-.92.23-1.14.63h-.65l.29-3.18h3.08v.62h-2.54l-.16,1.84h.06c.28-.34.68-.51,1.18-.51,1.04,0,1.77.78,1.77,1.89s-.78,1.91-1.92,1.91c-1.05,0-1.79-.65-1.85-1.62Z" stroke-width="0"/>
    <path d="m48.69,50.44c0-1.9.68-2.95,1.9-2.95s1.9,1.05,1.9,2.95-.68,2.95-1.9,2.95-1.9-1.05-1.9-2.95Zm.71.62l2.27-1.9c-.18-.7-.55-1.06-1.08-1.06-.8,0-1.22.8-1.22,2.34,0,.22.01.43.03.62Zm2.41-.62c0-.23,0-.43-.03-.63l-2.27,1.91c.18.69.55,1.05,1.08,1.05.8,0,1.21-.81,1.21-2.34Z" stroke-width="0"/>
    <path d="m54.82,49.56c0-.39.32-.72.71-.72s.71.33.71.72-.32.72-.71.72-.71-.33-.71-.72Zm0,3c0-.39.32-.72.71-.72s.71.32.71.72-.32.72-.71.72-.71-.32-.71-.72Z" stroke-width="0"/>
    <rect x=".36" y=".36" width="71.28" height="71.28" fill="none" stroke-width="0"/>
</svg>