<?xml version="1.0" encoding="UTF-8"?>
<svg xmlns="http://www.w3.org/2000/svg" viewBox="0 0 72 72">
    <rect x="25.85" y="24.04" width="13.52" height="3" stroke-width="0"/>
    <rect x="25.85" y="31.62" width="17.31" height="3" stroke-width="0"/>
    <path d="m51.03,16.45h-25.3v3h25.3v-3Z" stroke-width="0"/>
    <path d="m58.45,61.54c0,.83.67,1.5,1.5,1.5s1.5-.67,1.5-1.5V10.96c0-1.93-1.57-3.5-3.5-3.5H14.24c-1.93,0-3.5,1.57-3.5,3.5v50.58c0,.83.67,1.5,1.5,1.5s1.5-.67,1.5-1.5V10.96c0-.28.22-.5.5-.5h43.71c.28,0,.5.22.5.5v50.58Z" stroke-width="0"/>
    <path d="m18.24,20.8c-.28,0-.5-.23-.49-.51,0-.13.05-.25.14-.34l2.23-2.23-2.23-2.23c-.2-.2-.2-.51,0-.71.2-.2.51-.2.71,0h0l2.59,2.59c.2.19.2.51,0,.71,0,0,0,0,0,0l-2.59,2.59c-.1.09-.23.14-.36.13Z" stroke-width="0"/>
    <path d="m18.24,28.47c-.28,0-.5-.23-.49-.51,0-.13.05-.25.14-.34l2.23-2.23-2.23-2.23c-.2-.2-.2-.51,0-.71s.51-.2.71,0h0l2.59,2.59c.2.19.2.51,0,.71,0,0,0,0,0,0l-2.6,2.54c-.09.11-.21.17-.35.18Z" stroke-width="0"/>
    <path d="m18.24,36.15c-.28,0-.51-.21-.51-.49,0-.14.05-.28.15-.37l2.23-2.23-2.23-2.23c-.2-.2-.2-.51,0-.71s.51-.2.71,0l2.59,2.59c.2.19.2.51,0,.71,0,0,0,0,0,0l-2.59,2.59c-.09.09-.22.14-.35.14Z" stroke-width="0"/>
    <path d="m35.95,56.38c-2.63,0-4.77-2.13-4.77-4.75s2.14-4.75,4.77-4.75,4.77,2.13,4.77,4.75-2.14,4.75-4.77,4.75Zm0-7.92c-1.76,0-3.18,1.43-3.18,3.17s1.43,3.17,3.18,3.17,3.18-1.43,3.18-3.17-1.43-3.17-3.18-3.17Z" stroke-width="0"/>
    <path d="m44.91,53.23c-.57.12-1.03.51-1.23,1.07-.11.3-.22.59-.37.87-.25.51-.21,1.14.11,1.61l1.54,2.24-1.57,1.57-2.26-1.54c-.28-.18-.59-.28-.91-.28-.24,0-.49.05-.71.16-.29.13-.58.26-.88.37-.54.18-.95.65-1.07,1.21l-.5,2.71h-2.23l-.5-2.71c-.12-.57-.51-1.03-1.07-1.21-.3-.11-.59-.22-.88-.37-.22-.11-.48-.16-.71-.16-.32,0-.63.09-.91.28l-2.26,1.53-1.57-1.57,1.54-2.24c.32-.48.37-1.1.12-1.61-.13-.28-.26-.58-.37-.87-.18-.54-.66-.95-1.23-1.06l-2.93-.5v-2.22l2.93-.5c.57-.12,1.03-.51,1.23-1.07.11-.3.22-.59.37-.87.25-.51.21-1.14-.11-1.61l-1.57-2.28,1.57-1.57,2.28,1.57c.28.18.59.28.91.28.24,0,.49-.05.71-.16.29-.13.58-.26.88-.37.55-.18.95-.66,1.07-1.21l.5-2.86h2.23l.5,2.86c.12.57.51,1.03,1.07,1.21.3.11.59.22.88.37.22.11.48.16.71.16.32,0,.63-.09.91-.28l2.3-1.58,1.57,1.57-1.58,2.28c-.32.48-.37,1.1-.12,1.61.13.28.26.58.37.87.18.54.66.95,1.23,1.07l2.71.5v2.22l-2.71.5h0Zm2.94-4.34l-2.53-.5c-.13-.37-.28-.71-.45-1.06l1.44-2.14c.44-.65.36-1.52-.21-2.07l-1.6-1.58c-.32-.32-.74-.49-1.17-.49-.32,0-.63.09-.91.28l-2.15,1.43c-.34-.17-.7-.32-1.07-.44l-.51-2.52c-.16-.77-.83-1.32-1.62-1.32h-2.26c-.79,0-1.47.55-1.62,1.32l-.51,2.52c-.37.13-.73.28-1.07.44l-2.15-1.43c-.28-.18-.59-.28-.92-.28-.42,0-.84.16-1.17.49l-1.6,1.58c-.55.55-.65,1.43-.21,2.07l1.44,2.14c-.17.34-.32.7-.45,1.06l-2.53.5c-.78.16-1.33.83-1.33,1.61v2.24c0,.78.55,1.47,1.33,1.61l2.53.5c.13.37.28.71.45,1.06l-1.44,2.14c-.44.65-.36,1.52.21,2.07l1.6,1.58c.32.32.74.49,1.17.49.32,0,.63-.09.92-.28l2.15-1.43c.34.17.7.32,1.07.45l.5,2.52c.16.77.83,1.32,1.62,1.32h2.26c.79,0,1.47-.55,1.62-1.32l.51-2.52c.37-.13.73-.28,1.07-.45l2.15,1.43c.28.18.59.28.91.28.42,0,.86-.16,1.17-.49l1.6-1.58c.55-.55.65-1.43.21-2.07l-1.44-2.14c.17-.34.32-.7.45-1.07l2.53-.5c.78-.16,1.33-.83,1.33-1.61v-2.24c0-.78-.55-1.47-1.33-1.61h.01Z" stroke-width="0"/>
    <rect x=".5" y=".36" width="71.28" height="71.28" fill="none" stroke-width="0"/>
</svg>