<?xml version="1.0" encoding="utf-8"?>
<svg xmlns="http://www.w3.org/2000/svg" viewBox="0 0 72 72">
    <circle cx="33.9" cy="20.4" r="2.2"/>
    <circle cx="33.9" cy="43.4" r="2.2"/>
	<path d="M60.7,63.9H38.6c-0.4,0-0.8-0.4-0.8-0.8V42c0-0.4,0.4-0.8,0.8-0.8h22.1c0.4,0,0.8,0.4,0.8,0.8v21
		C61.5,63.5,61.1,63.9,60.7,63.9z M39.4,62.3h20.5V42.8H39.4V62.3z"/>
    <polygon points="48,57.8 42.7,52.5 44.6,50.7 48,54 55,47 56.9,48.9 "/>
    <path d="M33.1,53.4c-11.5-0.5-20.7-9.9-20.7-21.5c0-8.8,5.3-16.3,12.8-19.7c-2,2.1-3.3,5.1-3.3,8.2c0,7.3,4.7,12,12,12
	    c5.3,0,8.8,2.7,9.9,7.2h1.7c-1.1-5.6-5.3-8.9-11.6-8.9c-7.6,0-10.2-5.3-10.2-10.3s3.3-8.8,7.7-9.9c0.9-0.1,1.7-0.2,2.6-0.2
	    c11.9,0,21.5,9.6,21.5,21.5c0,2.8-0.5,5.4-1.5,7.8h2.7c0.8-2.4,1.3-5.1,1.3-7.8C58,18.6,47.2,7.8,34,7.8S9.9,18.6,9.9,31.9
	    s10.3,23.6,23.2,24V53.4L33.1,53.4z"/>
</svg>
