<?xml version="1.0" encoding="UTF-8"?>
<svg xmlns="http://www.w3.org/2000/svg" viewBox="0 0 72 72">
    <circle cx="33.02" cy="20.43" r="2.16" stroke-width="0"/>
    <circle cx="33.02" cy="43.38" r="2.16" stroke-width="0"/>
    <polygon points="64.59 63.49 36.45 63.49 36.45 42.64 38.46 42.64 38.46 61.49 64.59 61.49 64.59 63.49" stroke-width="0"/>
    <path d="m55.35,50.56c-.24,0-.48-.08-.67-.25l-5.49-4.88-7.24,4c-.48.27-1.1.09-1.36-.39-.27-.49-.09-1.1.39-1.36l7.86-4.35c.37-.21.83-.15,1.15.13l5.31,4.72,6.16-6.23c.39-.39,1.02-.4,1.42,0,.39.39.4,1.02,0,1.42l-6.83,6.91c-.2.2-.45.3-.71.3Z" stroke-width="0"/>
    <path d="m41.85,58.9c-.42,0-.75-.34-.75-.75v-4.85c0-.42.34-.75.75-.75s.75.34.75.75v4.85c0,.42-.34.75-.75.75Z" stroke-width="0"/>
    <path d="m46.49,58.9c-.42,0-.75-.34-.75-.75v-8.11c0-.42.34-.75.75-.75s.75.34.75.75v8.11c0,.42-.34.75-.75.75Z" stroke-width="0"/>
    <path d="m51,58.9c-.42,0-.75-.34-.75-.75v-5.43c0-.42.34-.75.75-.75s.75.34.75.75v5.43c0,.42-.34.75-.75.75Z" stroke-width="0"/>
    <path d="m55.6,58.9c-.42,0-.75-.34-.75-.75v-2.34c0-.42.34-.75.75-.75s.75.34.75.75v2.34c0,.42-.34.75-.75.75Z" stroke-width="0"/>
    <path d="m59.71,58.85c-.4,0-.72-.32-.72-.72v-8.6c0-.4.32-.72.72-.72s.72.32.72.72v8.6c0,.4-.32.72-.72.72Z" stroke-width="0"/>
    <path d="m33.11,53.42s-.06,0-.09,0c0,0,0,0-.01,0-11.83-.04-21.45-9.68-21.45-21.52,0-8.77,5.28-16.33,12.83-19.67-2.05,2.15-3.32,5.05-3.32,8.24,0,7.28,4.69,11.98,11.95,11.98,5.32,0,8.85,2.66,9.9,7.23h1.74c-1.11-5.58-5.35-8.93-11.65-8.93-7.56,0-10.25-5.31-10.25-10.28s3.29-8.79,7.72-9.92c.85-.1,1.71-.17,2.59-.17,11.87,0,21.52,9.65,21.52,21.52,0,2.75-.53,5.37-1.48,7.79h2.73c.84-2.44,1.3-5.06,1.3-7.79,0-13.27-10.8-24.07-24.07-24.07S9.01,18.63,9.01,31.91s10.8,24.07,24.07,24.07c.01,0,.02,0,.03,0v-2.56Z" stroke-width="0"/>
    <rect x=".36" y=".36" width="71.28" height="71.28" fill="none" stroke-width="0"/>
</svg>