<?xml version="1.0" encoding="UTF-8"?>
<svg xmlns="http://www.w3.org/2000/svg" viewBox="0 0 72 72">
    <rect x="35.91" y="22.47" width="12.44" height="2.11" stroke-width="0"/>
    <path d="m56.03,28.62h-19.7c-.39,0-.7.32-.7.7v3.94c0,.39.32.7.7.7h19.7c.39,0,.7-.32.7-.7v-3.94c0-.39-.32-.7-.7-.7Zm-.7,3.94h-18.29v-2.54h18.29v2.54Z" stroke-width="0"/>
    <path d="m56.03,36.18h-19.7c-.39,0-.7.32-.7.7v3.94c0,.39.32.7.7.7h19.7c.39,0,.7-.32.7-.7v-3.94c0-.39-.32-.7-.7-.7Zm-.7,3.94h-18.29v-2.54h18.29v2.54Z" stroke-width="0"/>
    <path d="m60.46,16.23h-28.24c-1.36,0-2.46,1.11-2.46,2.46v25.81c-.3-.11-.59-.24-.89-.34-1.02-.33-1.4-.55-2.2-1-.31-.71-.5-1.47-.56-2.24.01-.11.14-.58,1.3-2.29l.08-.13c.45-.71.7-1.52.75-2.36.02-.33-.04-.66-.18-.96-.05-.11-.09-.22-.1-.34-.04-.27-.08-.45-.11-.63-.14-.72-.2-1.45-.18-2.19-.02-.84-.57-1.74-1.58-2.54-1.01-.79-2.72-1.61-4.22-1.27-.79.22-1.61.31-2.43.25-.45-.07-.92.04-1.29.31-.88.61-1.51,1.5-1.8,2.53-.36,1.15-.54,2.34-.54,3.55v.16c0,.22-.01.44-.06.66-.07.26-.1.52-.09.79.04.76.3,1.48.75,2.09.05.09.16.23.3.41.27.35,1.11,1.47,1.17,1.8-.04.86-.23,1.71-.59,2.51-.79.41-1.62.73-2.48.96-1.51.44-2.98,1.02-4.38,1.75-.72.35-1.2,1.06-1.26,1.87v.09c-.06.4-.16,4.07-.19,5.18,0,.18.06.36.19.48.12.13.3.2.48.21h24.74s0,0,0,0c0,0,0,0,0,0h25.89s.07-.01.07-.01c0,0,.07.01.11.01,1.36,0,2.46-1.11,2.46-2.46V18.7c0-1.36-1.11-2.46-2.46-2.46ZM10.34,52.45c.06-2.02.13-4.08.18-4.28v-.12c0-.39.23-.74.58-.9,1.32-.67,2.7-1.22,4.13-1.63,1.31-.43,2.34-.75,2.92-1.2.72-.55,1.14-3.01,1.08-3.66-.04-.56-.53-1.31-1.43-2.51-.12-.15-.21-.27-.26-.35-.3-.39-.48-.86-.52-1.35,0-.16.01-.32.05-.47.08-.32.11-.65.1-.97v-.16c-.01-1.09.14-2.17.45-3.21.2-.69.63-1.29,1.21-1.71.12-.12.29-.16.45-.11.96.08,1.92-.02,2.85-.28.84-.18,2.1.24,3.09,1.02.65.51,1.07,1.09,1.07,1.5-.02.82.05,1.64.21,2.44.04.18.08.35.1.53.03.24.1.48.2.7.06.13.08.27.06.41-.04.56-.22,1.11-.51,1.6l-.08.12c-1.08,1.56-1.5,2.42-1.53,2.97-.02.42.31,2.86,1.09,3.42.89.55,1.85.98,2.85,1.28.42.14.58.23,1.06.43v5.36c0,.31.06.61.17.88l-19.58.24h0ZM31.86,18.7c0-.2.16-.35.35-.35h28.24c.2,0,.35.15.35.35v32.63c0,.18-.14.33-.32.35h-.06s-.07-.01-.11-.01h-28.11c-.2.01-.35-.14-.35-.34V18.7Z" stroke-width="0"/>
    <rect x=".36" y=".36" width="71.28" height="71.28" fill="none" stroke-width="0"/>
</svg>