<?xml version="1.0" encoding="UTF-8"?>
<svg xmlns="http://www.w3.org/2000/svg" viewBox="0 0 72 72">
    <rect x="35.85" y="22.47" width="12.44" height="2.11" stroke-width="0"/>
    <path d="m55.97,28.62h-19.7c-.39,0-.7.32-.7.7v3.94c0,.39.32.7.7.7h19.7c.39,0,.7-.32.7-.7v-3.94c0-.39-.32-.7-.7-.7Zm-.7,3.94h-18.29v-2.54h18.29v2.54Z" stroke-width="0"/>
    <polygon points="30.8 52.72 26.46 48.38 28 46.84 30.8 49.64 36.66 43.78 38.2 45.32 30.8 52.72" stroke-width="0"/>
      <path d="m60.39,16.23h-28.24c-1.36,0-2.46,1.11-2.46,2.46v18.6l-1.94.59c.25-.55.39-1.14.42-1.75.02-.33-.04-.66-.18-.96-.05-.11-.09-.22-.1-.34-.04-.27-.08-.45-.11-.63-.14-.72-.2-1.45-.18-2.19-.02-.84-.57-1.74-1.58-2.54-1.01-.79-2.72-1.61-4.22-1.27-.79.22-1.61.31-2.43.25-.45-.07-.92.04-1.29.31-.88.61-1.51,1.5-1.8,2.53-.36,1.15-.54,2.34-.54,3.55v.16c0,.22-.01.44-.06.66-.07.26-.1.52-.09.79.04.76.3,1.48.75,2.09.05.09.16.23.3.41.27.35,1.11,1.47,1.17,1.8-.04.86-.23,1.71-.59,2.51-.79.41-1.62.73-2.48.96-1.51.44-2.98,1.02-4.38,1.75-.72.35-1.2,1.06-1.26,1.87v.09c-.06.4-.16,4.07-.19,5.18,0,.18.06.36.19.48.12.13.3.2.48.21h12.88c.69,1.89,3.48,4.14,8.52,6.89.15.08.26.14.33.18.11.07.24.1.37.1.13,0,.26-.03.37-.1.07-.04.18-.1.33-.18,5.05-2.75,7.84-5,8.52-6.89h19.29s.07,0,.07,0c0,0,.07.01.11.01,1.36,0,2.46-1.11,2.46-2.46V18.7c0-1.36-1.11-2.46-2.46-2.46ZM10.28,52.45c.06-2.02.13-4.08.18-4.28v-.12c0-.39.23-.74.58-.9,1.32-.67,2.7-1.22,4.13-1.63,1.31-.43,2.34-.75,2.92-1.2.72-.55,1.14-3.01,1.08-3.66-.04-.56-.53-1.31-1.43-2.51-.12-.15-.21-.27-.26-.35-.3-.39-.48-.86-.52-1.35,0-.16.01-.32.05-.47.08-.32.11-.65.1-.97v-.16c-.01-1.09.14-2.17.45-3.21.2-.69.63-1.29,1.21-1.71.12-.12.29-.16.45-.11.96.08,1.92-.02,2.85-.28.84-.18,2.1.24,3.09,1.02.65.51,1.07,1.09,1.07,1.5-.02.82.05,1.64.21,2.44.04.18.08.35.1.53.03.24.1.48.2.7.06.13.08.27.06.41-.04.56-.22,1.11-.51,1.6l-.08.12c-.16.22-.27.41-.4.61l-4.54,1.38c-.35.11-.58.45-.54.81l.89,8.51c.15,1.27.3,2.28.47,3.12l-11.82.14h0Zm21.42,6.89c-6.3-3.42-7.62-5.34-7.84-6.18-.27-.99-.48-2.27-.71-4.13l-.82-7.87h0l9.37-2.86,9.37,2.86-.82,7.86c-.22,1.88-.44,3.15-.71,4.14-.23.84-1.55,2.76-7.84,6.18Zm10.78-19.21c-.09-.12-.22-.21-.37-.26l-5.14-1.57v-.71h18.29v2.54h-12.78Zm18.25,11.21c0,.18-.14.33-.32.35h-.06s-.07-.01-.11-.01h-18.85c.12-.7.24-1.52.36-2.5l.8-7.64h13.41c.39,0,.7-.32.7-.7v-3.94c0-.39-.32-.7-.7-.7h-19.7c-.39,0-.7.32-.7.7v.98l-3.65-1.11s-.08-.01-.13-.02v-18.04c0-.2.16-.35.35-.35h28.24c.2,0,.35.15.35.35v32.63Z" stroke-width="0"/>
      <polygon points="31.7 60.97 31.7 60.96 31.69 60.97 31.7 60.97" stroke-width="0"/>
    <rect x=".36" y=".36" width="71.28" height="71.28" fill="none" stroke-width="0"/>
</svg>