<?xml version="1.0" encoding="utf-8"?>
<!-- Generator: Adobe Illustrator 27.9.0, SVG Export Plug-In . SVG Version: 6.00 Build 0)  -->
<svg version="1.1" id="Layer_1" xmlns="http://www.w3.org/2000/svg" xmlns:xlink="http://www.w3.org/1999/xlink" x="0px" y="0px"
	 viewBox="0 0 72 72" style="enable-background:new 0 0 72 72;" xml:space="preserve">
<path d="M41.4,36.1h20.3c0.8,0,1.5-0.7,1.5-1.5V23.1c0-0.8-0.7-1.5-1.5-1.5H41.4c-0.8,0-1.5,0.7-1.5,1.5v4.3h-8.2L20.6,16.4
	c-0.6-0.6-1.5-0.6-2.1,0L7,27.9c-0.6,0.6-0.6,1.5,0,2.1c0,0,0,0,0,0l10.8,10.9v9.6c0,0.8,0.7,1.5,1.5,1.5h20.5v4.2
	c0,0.8,0.7,1.5,1.5,1.5h20.3c0.8,0,1.5-0.7,1.5-1.5V44.7c0-0.8-0.7-1.5-1.5-1.5H41.4c-0.8,0-1.5,0.7-1.5,1.5V49h-19v-7.9l10.6-10.6
	h8.4v4.1C39.9,35.4,40.5,36.1,41.4,36.1z M42.9,46.2h17.3v8.5H42.9V46.2z M19.5,19.6l9.2,9.2c0,0.1,0,0.1,0,0.2l0,0l-9.3,9.3
	l-9.3-9.3L19.5,19.6z M42.9,24.6h17.3v8.4H42.9V24.6z"/>
</svg>
