<?xml version="1.0" encoding="UTF-8"?>
<svg xmlns="http://www.w3.org/2000/svg" viewBox="0 0 72 72">
  <defs>
    <style>
      .cls-1 {
        fill: none;
      }
    </style>
  </defs>
  <g id="SVG_icons" data-name="SVG icons">
    <path d="M61.9,50.68l-11.32-10.75c-.8-.76-2.07-.73-2.83.07-.76.8-.73,2.07.07,2.83l7.89,7.5h-24.28c-9.23,0-16.73-7.51-16.73-16.73s7.43-16.65,16.6-16.73c1.09,2.8,3.81,4.8,6.99,4.8,4.13,0,7.5-3.36,7.5-7.5s-3.36-7.5-7.5-7.5c-3.7,0-6.77,2.69-7.38,6.22-11.19.28-20.2,9.45-20.2,20.71s9.3,20.73,20.73,20.73h24.23l-7.19,7.57c-.76.8-.73,2.07.07,2.83.39.37.88.55,1.38.55.53,0,1.06-.21,1.45-.62l10.59-11.15c.37-.38.56-.9.55-1.43s-.24-1.03-.62-1.4ZM38.29,9.67c2.48,0,4.5,2.02,4.5,4.5s-2.02,4.5-4.5,4.5-4.5-2.02-4.5-4.5,2.02-4.5,4.5-4.5Z"/>
  </g>
  <g id="Rectangles">
    <rect class="cls-1" x=".36" y=".36" width="71.28" height="71.28"/>
  </g>
</svg>