<?xml version="1.0" encoding="UTF-8"?>
<svg xmlns="http://www.w3.org/2000/svg" viewBox="0 0 72 72">
  <defs>
    <style>
      .cls-1 {
        fill: none;
      }
    </style>
  </defs>
  <g id="SVG_icons" data-name="SVG icons">
    <path d="M62.01,37.85c0-11.43-9.3-20.73-20.73-20.73h-24.23l7.19-7.57c.76-.8.73-2.07-.07-2.83-.8-.76-2.07-.73-2.83.07l-10.59,11.15c-.76.8-.73,2.07.07,2.83l11.32,10.75c.39.37.88.55,1.38.55.53,0,1.06-.21,1.45-.62.76-.8.73-2.07-.07-2.83l-7.89-7.5h24.28c9.23,0,16.73,7.51,16.73,16.73s-7.51,16.73-16.73,16.73c0,0,0,0-.01,0-1.09-2.81-3.81-4.8-6.99-4.8-4.13,0-7.5,3.36-7.5,7.5s3.36,7.5,7.5,7.5c3.7,0,6.77-2.69,7.38-6.21,11.26-.2,20.36-9.41,20.36-20.72ZM34.28,61.78c-2.48,0-4.5-2.02-4.5-4.5s2.02-4.5,4.5-4.5,4.5,2.02,4.5,4.5-2.02,4.5-4.5,4.5Z"/>
  </g>
  <g id="Rectangles">
    <rect class="cls-1" x=".36" y=".36" width="71.28" height="71.28"/>
  </g>
</svg>