<?xml version="1.0" encoding="UTF-8"?>
<svg xmlns="http://www.w3.org/2000/svg" viewBox="0 0 72 72">
  <defs>
    <style>
      .cls-1 {
        fill: none;
      }
    </style>
  </defs>
  <g id="SVG_icons" data-name="SVG icons">
    <path d="M61.11,11.22H10.78c-.83,0-1.5.67-1.5,1.5v42.94c0,.83.67,1.5,1.5,1.5h50.32c.83,0,1.5-.67,1.5-1.5V12.72c0-.83-.67-1.5-1.5-1.5ZM59.61,54.16H12.28V14.22h47.32v39.94Z"/>
    <path d="M52.49,18.94s-.02-.06-.03-.1c-.01-.04-.02-.08-.04-.11-.02-.04-.04-.07-.06-.11-.02-.03-.03-.06-.05-.09-.08-.12-.19-.23-.31-.31-.03-.02-.06-.03-.09-.05-.03-.02-.07-.04-.1-.06-.04-.02-.08-.02-.12-.04-.03,0-.06-.02-.09-.03-.07-.01-.15-.02-.22-.02h-10.12c-.62,0-1.12.5-1.12,1.12s.5,1.12,1.12,1.12h7.41l-10.17,10.17c-.44.44-.44,1.15,0,1.59.22.22.51.33.8.33s.58-.11.8-.33l10.17-10.17v7.41c0,.62.5,1.12,1.12,1.12s1.12-.5,1.12-1.12v-10.12c0-.07,0-.15-.02-.22Z"/>
    <path d="M33.9,36.65c-.44-.44-1.15-.44-1.59,0l-10.17,10.17v-7.41c0-.62-.5-1.12-1.12-1.12s-1.12.5-1.12,1.12v10.12c0,.07,0,.15.02.22,0,.03.02.06.03.1.01.04.02.08.04.11.02.04.04.07.06.11.02.03.03.06.05.09.08.12.19.23.31.31.03.02.06.03.09.05.04.02.07.04.11.06.04.02.08.02.11.04.03,0,.06.02.1.03.07.01.15.02.22.02h10.12c.62,0,1.12-.5,1.12-1.12s-.5-1.12-1.12-1.12h-7.41l10.17-10.17c.44-.44.44-1.15,0-1.59Z"/>
  </g>
  <g id="Rectangles">
    <rect class="cls-1" x=".36" y=".36" width="71.28" height="71.28"/>
  </g>
</svg>