<?xml version="1.0" encoding="UTF-8"?>
<svg id="Layer_1" xmlns="http://www.w3.org/2000/svg" version="1.1" viewBox="0 0 72 72">
  <!-- Generator: Adobe Illustrator 29.0.1, SVG Export Plug-In . SVG Version: 2.1.0 Build 192)  -->
  <defs>
    <style>
      .st0 {
        fill: none;
      }

      .st1 {
        fill: black;
      }
    </style>
  </defs>
  <g id="SVG_icons">
    <g id="admin">
      <path class="st1" d="M46.2,64.2h-21.1c-.8,0-1.5-.7-1.5-1.5s.7-1.5,1.5-1.5h9.1v-6.4H8.8c-.8,0-1.5-.7-1.5-1.5V10.8c0-.8.7-1.5,1.5-1.5h54c.8,0,1.5.7,1.5,1.5v42.5c0,.8-.7,1.5-1.5,1.5h-25.6v6.4h9c.8,0,1.5.7,1.5,1.5s-.7,1.5-1.5,1.5ZM35.7,51.8h25.6V12.3H10.3v39.5h25.4,0Z"/>
    </g>
    <polygon class="st1" points="33.9 30.3 28.8 25.1 30.4 23.5 33.9 27.1 41.3 19.8 42.9 21.3 33.9 30.3"/>
    <path class="st1" d="M44.5,47.5v-1c0,0,0,0,0,0,1.7,0,3-.8,3.7-2.1l.9.4c-.8,1.7-2.4,2.7-4.6,2.7ZM42.4,47.5h-5.1v-1h5.1v1ZM35.4,47.5h-5.1v-1h5.1v1ZM28.3,47.5h-1.1c-1.6,0-3-.6-3.9-1.6l.8-.7c.7.8,1.8,1.3,3.1,1.3h1.1s0,1,0,1ZM22.2,43.9c-.1-.4-.1-.9-.1-1.3v-3.8h1v3.8c0,.4,0,.8.1,1.1,0,0-1,.2-1,.2ZM49.6,42.6h-1v-5.1h1v5.1ZM23.1,36.7h-1v-5.1h1v5.1ZM49.6,35.5h-1v-5.1h1v5.1ZM23.1,29.6h-1v-5.1h1v5.1ZM49.6,28.4h-1v-5.1h1v5.1ZM23.1,22.5h-1v-1.4c0-1.5.5-2.8,1.5-3.7l.7.7c-.8.7-1.1,1.7-1.1,3v1.4h0ZM49.6,21.4h-1v-.2c0-1.6-.7-2.9-2-3.5l.5-.9c1.6.8,2.5,2.4,2.5,4.4v.2ZM25.8,17.3l-.3-1c.5-.1,1-.2,1.6-.2h3.6v1h-3.6c-.5,0-.9,0-1.3.2h0ZM44.9,17.1h-5v-1h4.7c.1,0,.2,0,.4,0v1c0,0,0,0,0,0ZM37.8,17.1h-5.1v-1h5.1v1Z"/>
    <rect class="st1" x="29.7" y="32.7" width="12.3" height="1.7"/>
    <rect class="st1" x="29.7" y="36.6" width="12.3" height="1.7"/>
    <rect class="st1" x="29.7" y="40.4" width="12.3" height="1.7"/>
  </g>
  <g id="Rectangles">
    <rect class="st0" x=".5" y=".4" width="71.3" height="71.3"/>
  </g>
</svg>