<?xml version="1.0" encoding="UTF-8"?>
<svg id="Layer_1" xmlns="http://www.w3.org/2000/svg" version="1.1" viewBox="0 0 72 72">
  <!-- Generator: Adobe Illustrator 29.0.1, SVG Export Plug-In . SVG Version: 2.1.0 Build 192)  -->
  <g id="SVG_icons">
    <path d="M61.1,11.2H10.8c-.8,0-1.5.7-1.5,1.5v42.9c0,.8.7,1.5,1.5,1.5h50.3c.8,0,1.5-.7,1.5-1.5V12.7c0-.8-.7-1.5-1.5-1.5h0ZM59.6,54.2H12.3V14.2h47.3v39.9h0Z"/>
    <path d="M52.5,18.9s0,0,0-.1,0,0,0-.1c0,0,0,0,0-.1,0,0,0,0,0,0,0-.1-.2-.2-.3-.3,0,0,0,0,0,0,0,0,0,0,0,0,0,0,0,0-.1,0,0,0,0,0,0,0,0,0-.2,0-.2,0h-10.1c-.6,0-1.1.5-1.1,1.1s.5,1.1,1.1,1.1h7.4l-10.2,10.2c-.4.4-.4,1.1,0,1.6.2.2.5.3.8.3s.6-.1.8-.3l10.2-10.2v7.4c0,.6.5,1.1,1.1,1.1s1.1-.5,1.1-1.1v-10.1c0,0,0-.1,0-.2h0Z"/>
    <path d="M33.9,36.7c-.4-.4-1.2-.4-1.6,0l-10.2,10.2v-7.4c0-.6-.5-1.1-1.1-1.1s-1.1.5-1.1,1.1v10.1c0,0,0,.2,0,.2,0,0,0,0,0,0,0,0,0,0,0,.1,0,0,0,0,0,.1,0,0,0,0,0,0,0,.1.2.2.3.3,0,0,0,0,0,0,0,0,0,0,.1,0s0,0,.1,0c0,0,0,0,.1,0,0,0,.1,0,.2,0h10.1c.6,0,1.1-.5,1.1-1.1s-.5-1.1-1.1-1.1h-7.4l10.2-10.2c.4-.4.4-1.2,0-1.6h0Z"/>
  </g>
</svg>