<?xml version="1.0" encoding="UTF-8"?>
<svg id="Layer_1" xmlns="http://www.w3.org/2000/svg" version="1.1" viewBox="0 0 72 72">
  <!-- Generator: Adobe Illustrator 29.0.1, SVG Export Plug-In . SVG Version: 2.1.0 Build 192)  -->
  <g id="SVG_icons">
    <path d="M62,37.8c0-11.4-9.3-20.7-20.7-20.7h-24.2l7.2-7.6c.8-.8.7-2.1,0-2.8s-2.1-.7-2.8,0l-10.6,11.1c-.8.8-.7,2.1,0,2.8l11.3,10.8c.4.4.9.6,1.4.6s1.1-.2,1.5-.6c.8-.8.7-2.1,0-2.8l-7.9-7.5h24.3c9.2,0,16.7,7.5,16.7,16.7s-7.5,16.7-16.7,16.7h0c-1.1-2.8-3.8-4.8-7-4.8s-7.5,3.4-7.5,7.5,3.4,7.5,7.5,7.5,6.8-2.7,7.4-6.2c11.3-.2,20.4-9.4,20.4-20.7h0ZM34.3,61.8c-2.5,0-4.5-2-4.5-4.5s2-4.5,4.5-4.5,4.5,2,4.5,4.5-2,4.5-4.5,4.5Z"/>
  </g>
</svg>