<?xml version="1.0" encoding="UTF-8"?>
<svg id="Layer_1" xmlns="http://www.w3.org/2000/svg" version="1.1" viewBox="0 0 72 72">
  <!-- Generator: Adobe Illustrator 29.0.1, SVG Export Plug-In . SVG Version: 2.1.0 Build 192)  -->
  <g id="SVG_icons">
    <path d="M61.9,50.7l-11.3-10.8c-.8-.8-2.1-.7-2.8,0-.8.8-.7,2.1,0,2.8l7.9,7.5h-24.3c-9.2,0-16.7-7.5-16.7-16.7s7.4-16.6,16.6-16.7c1.1,2.8,3.8,4.8,7,4.8s7.5-3.4,7.5-7.5-3.4-7.5-7.5-7.5-6.8,2.7-7.4,6.2c-11.2.3-20.2,9.4-20.2,20.7s9.3,20.7,20.7,20.7h24.2l-7.2,7.6c-.8.8-.7,2.1,0,2.8.4.4.9.6,1.4.6s1.1-.2,1.5-.6l10.6-11.2c.4-.4.6-.9.5-1.4s-.2-1-.6-1.4ZM38.3,9.7c2.5,0,4.5,2,4.5,4.5s-2,4.5-4.5,4.5-4.5-2-4.5-4.5,2-4.5,4.5-4.5Z"/>
  </g>
</svg>