<?xml version="1.0" encoding="UTF-8"?>
<svg id="Layer_1" xmlns="http://www.w3.org/2000/svg" version="1.1" viewBox="0 0 72 72">
  <!-- Generator: Adobe Illustrator 29.0.1, SVG Export Plug-In . SVG Version: 2.1.0 Build 192)  -->
  <polygon points="32.4 33.3 23.4 24.2 26.2 21.3 32.4 27.7 45.5 14.8 48.3 17.4 32.4 33.3"/>
  <path d="M51.1,63.7v-1.8h0c3,0,5.3-1.4,6.5-3.7l1.6.7c-1.4,3-4.2,4.8-8.1,4.8ZM47.4,63.7h-9v-1.8h9v1.8ZM35.1,63.7h-9v-1.8h9v1.8ZM22.5,63.7h-1.9c-2.8,0-5.3-1.1-6.9-2.8l1.4-1.2c1.2,1.4,3.2,2.3,5.5,2.3h1.9v1.8ZM11.8,57.3c-.2-.7-.2-1.6-.2-2.3v-6.7h1.8v6.7c0,.7,0,1.4.2,1.9l-1.8.4ZM60.1,55h-1.8v-9h1.8v9ZM13.3,44.6h-1.8v-9h1.8v9ZM60.1,42.5h-1.8v-9h1.8v9ZM13.3,32.1h-1.8v-9h1.8v9ZM60.1,30h-1.8v-9h1.8v9ZM13.3,19.6h-1.8v-2.5c0-2.6.9-4.9,2.6-6.5l1.2,1.2c-1.4,1.2-1.9,3-1.9,5.3v2.5h-.2ZM60.1,17.6h-1.8v-.4c0-2.8-1.2-5.1-3.5-6.2l.9-1.6c2.8,1.4,4.4,4.2,4.4,7.8v.4ZM18.1,10.4l-.5-1.8c.9-.2,1.8-.4,2.8-.4h6.4v1.8h-6.4c-.9,0-1.6,0-2.3.4h0ZM51.8,10h-8.8v-1.8h9v1.8h-.2ZM39.3,10h-9v-1.8h9v1.8Z"/>
  <rect x="25" y="37.6" width="21.7" height="3"/>
  <rect x="25" y="44.5" width="21.7" height="3"/>
  <rect x="25" y="51.2" width="21.7" height="3"/>
</svg>