<?xml version="1.0" encoding="UTF-8"?>
<svg id="Layer_1" xmlns="http://www.w3.org/2000/svg" version="1.1" viewBox="0 0 72 72">
  <!-- Generator: Adobe Illustrator 29.0.1, SVG Export Plug-In . SVG Version: 2.1.0 Build 192)  -->
  <g id="SVG_icons">
    <path d="M48.4,27.4h-5.9c-.3,0-.5-.2-.5-.5v-5.9c0-.3.2-.5.5-.5h5.9c.3,0,.5.2.5.5v5.9c0,.3-.2.5-.5.5ZM43,26.4h4.9v-4.9h-4.9v4.9Z"/>
    <path d="M57.1,27.4h-5.9c-.3,0-.5-.2-.5-.5v-5.9c0-.3.2-.5.5-.5h5.9c.3,0,.5.2.5.5v5.9c0,.3-.2.5-.5.5ZM51.7,26.4h4.9v-4.9h-4.9v4.9Z"/>
    <path d="M48.4,35.9h-5.9c-.3,0-.5-.2-.5-.5v-5.9c0-.3.2-.5.5-.5h5.9c.3,0,.5.2.5.5v5.9c0,.3-.2.5-.5.5ZM43,34.9h4.9v-4.9h-4.9v4.9Z"/>
    <path d="M57.1,35.9h-5.9c-.3,0-.5-.2-.5-.5v-5.9c0-.3.2-.5.5-.5h5.9c.3,0,.5.2.5.5v5.9c0,.3-.2.5-.5.5ZM51.7,34.9h4.9v-4.9h-4.9v4.9Z"/>
    <path d="M48.4,44.4h-5.9c-.3,0-.5-.2-.5-.5v-5.9c0-.3.2-.5.5-.5h5.9c.3,0,.5.2.5.5v5.9c0,.3-.2.5-.5.5ZM43,43.4h4.9v-4.9h-4.9v4.9Z"/>
    <path d="M57.1,44.4h-5.9c-.3,0-.5-.2-.5-.5v-5.9c0-.3.2-.5.5-.5h5.9c.3,0,.5.2.5.5v5.9c0,.3-.2.5-.5.5ZM51.7,43.4h4.9v-4.9h-4.9v4.9Z"/>
    <path d="M63.1,9.7H9.1c-.8,0-1.5.7-1.5,1.5v42.5c0,.8.7,1.5,1.5,1.5h25.4v6.4h-9.1c-.8,0-1.5.7-1.5,1.5s.7,1.5,1.5,1.5h21.1c.8,0,1.5-.7,1.5-1.5s-.7-1.5-1.5-1.5h-9v-6.4h25.6c.8,0,1.5-.7,1.5-1.5V11.2c0-.8-.7-1.5-1.5-1.5h0ZM10.6,12.7h51v39.5H10.6V12.7Z"/>
    <path d="M37.1,30.3c-.2-.4-.5-.6-.9-.6H15.9l10-10c.3-.3.4-.7.2-1.1-.2-.4-.5-.6-.9-.6h-7.5c-.6,0-1,.5-1,1s.5,1,1,1h5l-10,10c-.3.3-.4.7-.2,1.1.2.4.5.6.9.6h20.2l-12.1,12.1v-5c0-.6-.5-1-1-1s-1,.5-1,1v7.5c0,.6.5,1,1,1h7.7c.6,0,1-.5,1-1s-.5-1-1-1h-5.3l13.9-13.9c.3-.3.4-.7.2-1.1Z"/>
  </g>
</svg>