<?xml version="1.0" encoding="utf-8"?>
<!-- Generator: Adobe Illustrator 27.9.0, SVG Export Plug-In . SVG Version: 6.00 Build 0)  -->
<svg version="1.1" id="Layer_1" xmlns="http://www.w3.org/2000/svg" xmlns:xlink="http://www.w3.org/1999/xlink" x="0px" y="0px"
	 viewBox="0 0 72 72" style="enable-background:new 0 0 72 72;" xml:space="preserve">
<g>
	<polygon points="40.8,44.2 40.8,41.6 56.7,41.6 56.7,44.2 	"/>
	<polygon points="40.8,38 40.8,35.5 56.7,35.5 56.7,38 	"/>
	<polygon points="40.8,32 40.8,29.5 56.7,29.5 56.7,32 	"/>
	<polygon points="40.8,25.9 40.8,23.3 56.7,23.3 56.7,25.9 	"/>
	<polygon points="40.8,50 40.8,47.5 56.7,47.5 56.7,50 	"/>
	<path d="M60.2,12H11.6c-2.4,0-4.4,2-4.4,4.4l0,0v40.2c0,2.4,2,4.4,4.4,4.4h48.7c2.4,0,4.4-2,4.4-4.4V16.4C64.6,14,62.6,12,60.2,12
		L60.2,12z M61.1,56.5c0,0.5-0.4,0.9-0.9,0.9H11.6c-0.5,0-0.9-0.4-0.9-0.9l0,0V28.3l4.8,4.8v6c0,0.6,0.4,1,1,1h10.2v2.1
		c0,0.6,0.4,1,1,1H37c0.6,0,1-0.4,1-1v-6.4c0-0.6-0.4-1-1-1h-9.3c-0.6,0-1,0.4-1,1V38h-9.2v-5l4.8-4.8h4.4v2.1c0,0.6,0.4,1,1,1H37
		c0.6,0,1-0.4,1-1V24c0-0.6-0.4-1-1-1h-9.3c-0.6,0-1,0.4-1,1v2.2h-4.4l-5.1-5.1c-0.4-0.4-1-0.4-1.4,0l0,0l-5.1,5.1v-10
		c0-0.5,0.4-0.9,0.8-0.9l0,0h48.7c0.5,0,0.9,0.4,0.9,0.9C61.1,16.2,61.1,56.5,61.1,56.5z M12.5,27.3l3.9-4l3.9,4l-3.9,3.9L12.5,27.3
		z M28.6,41.2v-4.3h7.3v4.3H28.6z M28.6,29.4v-4.3h7.3v4.3L28.6,29.4z"/>
</g>
</svg>
