<?xml version="1.0" encoding="utf-8"?>
<!-- Generator: Adobe Illustrator 27.9.0, SVG Export Plug-In . SVG Version: 6.00 Build 0)  -->
<svg version="1.1" id="Layer_1" xmlns="http://www.w3.org/2000/svg" xmlns:xlink="http://www.w3.org/1999/xlink" x="0px" y="0px"
	 viewBox="0 0 72 72" style="enable-background:new 0 0 72 72;" xml:space="preserve">
<g>
	<path d="M52.5,64.2H42v-3h10.5c0.7,0,1.2-0.5,1.2-1.2l0,0V11.2c0-0.7-0.5-1.2-1.1-1.2l0,0H19.1c-0.6,0-1.1,0.6-1.1,1.2V60
		c0,0.7,0.5,1.2,1.2,1.2l0,0h10.1v3H19.1c-2.3,0-4.1-1.9-4.1-4.2V11.2C15,8.9,16.8,7,19.1,7h33.4c2.3,0,4.2,1.9,4.2,4.2l0,0V60
		C56.7,62.3,54.9,64.2,52.5,64.2L52.5,64.2z"/>
	<path d="M41.4,18.4H30.2c-0.6,0-1-0.4-1-1s0.4-1,1-1h11.2c0.6,0,1,0.4,1,1S42,18.4,41.4,18.4z"/>
	<path d="M41.4,25.5H30.2c-0.6,0-1-0.4-1-1s0.4-1,1-1h11.2c0.6,0,1,0.4,1,1S42,25.5,41.4,25.5z"/>
	<path d="M38.5,44.5h9.3c0.6,0,1-0.4,1-1v-6.3c0-0.6-0.4-1-1-1h-9.3c-0.6,0-1,0.4-1,1v2.2H33l-5-5.1c-0.4-0.4-1-0.4-1.4,0l0,0
		l-5.4,5.4c-0.4,0.4-0.4,1,0,1.4l0,0l5.1,5.1v6c0,0.6,0.4,1,1,1h10.2v2.1c0,0.6,0.4,1,1,1h9.3c0.6,0,1-0.4,1-1v-6.4c0-0.6-0.4-1-1-1
		h-9.3c-0.6,0-1,0.4-1,1v2.2h-9.2v-5l4.8-4.8h4.4v2.1C37.4,44,37.9,44.5,38.5,44.5C38.4,44.5,38.4,44.5,38.5,44.5z M39.5,49.9h7.3
		v4.3h-7.3V49.9z M27.3,44.3l-3.9-3.9l3.9-3.9l3.9,3.9L27.3,44.3z M39.5,38.2h7.3v4.3h-7.3V38.2z"/>
</g>
</svg>
