<?xml version="1.0" encoding="UTF-8"?>
<svg xmlns="http://www.w3.org/2000/svg" viewBox="0 0 72 72">
  <polygon points="45.9 33.17 40.22 33.17 40.22 27.48 37.82 27.48 37.82 33.17 32.13 33.17 32.13 35.57 37.82 35.57 37.82 41.26 40.22 41.26 40.22 35.57 45.9 35.57 45.9 33.17"/>
  <path d="M61.93,11.22H15.63c-.8,0-1.5.7-1.5,1.5v38.9c0,.8.7,1.5,1.5,1.5h46.3c.8,0,1.5-.7,1.5-1.5V12.72c0-.8-.7-1.5-1.5-1.5ZM17.13,50.22v-31.7h43.3v31.7H17.13Z"/>
  <path d="M10.63,18.72h-2.4v38.9c0,.8.7,1.5,1.5,1.5h46.3v-2.5H10.63V18.72Z"/>
</svg>