<?xml version="1.0" encoding="UTF-8"?>
<svg id="Layer_1" xmlns="http://www.w3.org/2000/svg" version="1.1" viewBox="0 0 72 72">
  <!-- Generator: Adobe Illustrator 29.0.1, SVG Export Plug-In . SVG Version: 2.1.0 Build 192)  -->
  <g id="SVG_icons">
    <rect x="44.6" y="11.2" width="4.5" height="1"/>
    <rect x="21.9" y="11.2" width="4.5" height="1"/>
    <rect x="33.2" y="11.2" width="4.5" height="1"/>
    <path d="M60.9,11.2h-5v1h5.5v5.4h1v-4.9c0-.8-.7-1.5-1.5-1.5Z"/>
    <path d="M37.7,36H14.8c-.8,0-1.5.7-1.5,1.5v14c0,.8.7,1.5,1.5,1.5h22.9c.8,0,1.5-.7,1.5-1.5v-14c0-.8-.7-1.5-1.5-1.5ZM36.2,50h-19.9v-11h19.9v11Z"/>
    <path d="M58.6,16.2c-.4-.4-1.2-.4-1.6,0l-14.4,14.4v-7.4c0-.6-.5-1.1-1.1-1.1s-1.1.5-1.1,1.1v10.1c0,0,0,.2,0,.2,0,0,0,0,0,0,0,0,0,0,0,.1,0,0,0,0,0,.1,0,0,0,0,0,0,0,.1.2.2.3.3,0,0,0,0,0,0,0,0,0,0,.1,0s0,0,.1,0c0,0,0,0,0,0,0,0,.2,0,.2,0h10.1c.6,0,1.1-.5,1.1-1.1s-.5-1.1-1.1-1.1h-7.4l14.4-14.4c.4-.4.4-1.1,0-1.6h0Z"/>
    <g>
      <path d="M10.1,17.6v-5.4h5v-1h-4.5c-.8,0-1.5.7-1.5,1.5v4.9h1Z"/>
      <rect x="9.1" y="37.5" width="1" height="6.2"/>
      <rect x="9.1" y="24.5" width="1" height="6.2"/>
      <rect x="61.4" y="37.5" width="1" height="6.2"/>
      <rect x="61.4" y="24.5" width="1" height="6.2"/>
    </g>
    <g>
      <rect x="21.9" y="56.2" width="4.5" height="1"/>
      <rect x="44.6" y="56.2" width="4.5" height="1"/>
      <rect x="33.2" y="56.2" width="4.5" height="1"/>
      <path d="M15.1,56.2h-5v-5.7h-1v5.2c0,.8.7,1.5,1.5,1.5h4.5v-1Z"/>
      <path d="M61.4,50.5v5.7h-5.5v1h5c.8,0,1.5-.7,1.5-1.5v-5.2h-1Z"/>
    </g>
  </g>
</svg>