<?xml version="1.0" encoding="UTF-8"?>
<svg xmlns="http://www.w3.org/2000/svg" viewBox="0 0 72 72">
  <path d="M47.34,26.05h-6.93c-.31,0-.56-.25-.56-.56v-6.93c0-.31.25-.56.56-.56h6.93c.31,0,.56.25.56.56v6.93c0,.31-.25.56-.56.56ZM40.97,24.93h5.81v-5.81h-5.81v5.81Z"/>
  <path d="M57.59,26.05h-6.93c-.31,0-.56-.25-.56-.56v-6.93c0-.31.25-.56.56-.56h6.93c.31,0,.56.25.56.56v6.93c0,.31-.25.56-.56.56ZM51.22,24.93h5.81v-5.81h-5.81v5.81Z"/>
  <path d="M47.34,36.04h-6.93c-.31,0-.56-.25-.56-.56v-6.93c0-.31.25-.56.56-.56h6.93c.31,0,.56.25.56.56v6.93c0,.31-.25.56-.56.56ZM40.97,34.92h5.81v-5.81h-5.81v5.81Z"/>
  <path d="M57.59,36.04h-6.93c-.31,0-.56-.25-.56-.56v-6.93c0-.31.25-.56.56-.56h6.93c.31,0,.56.25.56.56v6.93c0,.31-.25.56-.56.56ZM51.22,34.92h5.81v-5.81h-5.81v5.81Z"/>
  <path d="M47.34,46.02h-6.93c-.31,0-.56-.25-.56-.56v-6.93c0-.31.25-.56.56-.56h6.93c.31,0,.56.25.56.56v6.93c0,.31-.25.56-.56.56ZM40.97,44.9h5.81v-5.81h-5.81v5.81Z"/>
  <path d="M57.59,46.02h-6.93c-.31,0-.56-.25-.56-.56v-6.93c0-.31.25-.56.56-.56h6.93c.31,0,.56.25.56.56v6.93c0,.31-.25.56-.56.56ZM51.22,44.9h5.81v-5.81h-5.81v5.81Z"/>
  <path d="M14.7,38.47c-.13,0-.23-.04-.32-.13s-.13-.22-.13-.32c0-.49.09-2.21.09-2.43h0c0-.27.09-.77.72-1.12.68-.36,1.3-.63,1.8-.86s.9-.41,1.12-.58c.13-.22.32-1.03.27-1.26,0-.18-.45-.72-.63-.9-.09-.09-.13-.18-.18-.23-.09-.18-.4-.63-.4-1.17s0-.32.05-.45v-.4c0-.45,0-.81.27-1.93.13-.54.54-1.12.99-1.4.32-.22.5-.22.72-.18.18,0,.45.05,1.26-.13.81-.18,1.75.27,2.34.68.54.45.86.95.9,1.44,0,.68.13,1.17.23,1.53.04.27.09.45.09.68,0,.5-.27,1.08-.41,1.3v.09c-.63.9-.72,1.12-.72,1.17,0,.18.18.94.27,1.12.27.18.72.41,1.26.63.49.22,1.08.49,1.67.81.63.32.68.86.72,1.08,0,.22.09,2.02.09,2.51,0,.37-.22.45-.45.45h0s-11.61,0-11.61,0ZM15.2,37.57h10.84c0-.9-.04-1.71-.09-1.84,0-.22-.04-.36-.27-.45-.58-.32-1.12-.58-1.62-.81-.63-.27-1.12-.49-1.44-.77h0c-.45-.36-.63-1.67-.63-1.89,0-.32.23-.77.81-1.62h0c.09-.22.27-.63.27-.9s0-.27-.09-.45c-.09-.4-.23-.95-.23-1.71,0-.18-.18-.45-.54-.72-.49-.4-1.17-.63-1.57-.54-.95.23-1.35.18-1.58.13h-.09l-.09.05c-.27.18-.54.54-.63.85-.23.99-.23,1.3-.23,1.71v.09c0,.27,0,.4-.05.54v.23c0,.27.18.54.27.68,0,0,.09.09.13.18.5.67.77,1.08.81,1.4,0,.36-.18,1.71-.63,2.02-.32.23-.77.45-1.35.68-.5.23-1.08.49-1.71.81-.23.13-.23.23-.27.41h0c0,.18-.05,1.03-.09,1.89h0s.05.04.05.04Z"/>
  <path d="M30.72,26.68h-4.72c-.23,0-.45-.23-.45-.45s.23-.45.45-.45h4.72c.23,0,.45.23.45.45s-.22.45-.45.45Z"/>
  <path d="M30.72,28.66h-4.72c-.23,0-.45-.23-.45-.45s.23-.45.45-.45h4.72c.23,0,.45.23.45.45s-.22.45-.45.45Z"/>
  <path d="M30.72,30.64h-4.72c-.23,0-.45-.22-.45-.45s.23-.45.45-.45h4.72c.23,0,.45.23.45.45s-.22.45-.45.45Z"/>
  <path d="M30.72,32.66h-4.72c-.23,0-.45-.22-.45-.45s.23-.45.45-.45h4.72c.23,0,.45.22.45.45s-.22.45-.45.45Z"/>
  <path d="M63.26,9.98H9.25c-.83,0-1.5.67-1.5,1.5v42.54c0,.83.67,1.5,1.5,1.5h25.44v6.38h-9.12c-.83,0-1.5.67-1.5,1.5s.67,1.5,1.5,1.5h21.13c.83,0,1.5-.67,1.5-1.5s-.67-1.5-1.5-1.5h-9v-6.38h25.56c.83,0,1.5-.67,1.5-1.5V11.48c0-.83-.67-1.5-1.5-1.5ZM61.76,52.52H10.75v-16.48c.17,1.31.32,2.28.4,2.57.72,2.57,5.62,5.18,9.81,7.2.36.18.67.32.81.41.12.08.21.09.33.09.13,0,.26-.04.35-.09.09-.05.45-.23.81-.41,4.23-1.98,9.14-4.64,9.81-7.2.32-1.12,1.67-12.78,1.8-14.08.04-.36-.14-.68-.45-.77l-12.06-4.28c-.14-.04-.32-.04-.45,0l-11.15,3.95v-10.45h51.01v39.54ZM10.83,24.88l11.29-4.01,11.3,4.01c-.59,5.17-1.44,12.55-1.67,13.32-.14.54-.63,2.25-9.04,6.3-.22.09-.45.18-.59.27-.18-.09-.36-.18-.58-.27-2.11-.99-8.42-4.05-9.05-6.3-.18-.77-1.08-8.19-1.66-13.32Z"/>
  <path d="M22.13,46.3s-.02,0-.03,0c0,0,0,0-.01,0h.04Z"/>
</svg>