<?xml version="1.0" encoding="UTF-8"?>
<svg xmlns="http://www.w3.org/2000/svg" viewBox="0 0 72 72">
  <defs>
    <style>
      .cls-1 {
        fill: none;
      }

      .cls-2 {
        fill: black;
      }
    </style>
  </defs>
  <g id="SVG_icons" data-name="SVG icons">
    <polygon class="cls-2" points="19.71 31.4 15.44 27.13 16.75 25.82 19.71 28.78 25.78 22.71 27.09 24.02 19.71 31.4"/>
    <rect class="cls-2" x="16.2" y="33.41" width="10.13" height="1.39"/>
    <rect class="cls-2" x="16.2" y="36.59" width="10.13" height="1.39"/>
    <rect class="cls-2" x="16.2" y="39.77" width="10.13" height="1.39"/>
    <path class="cls-2" d="M46.85,26.15h-6.94c-.31,0-.56-.25-.56-.56v-6.93c0-.31.25-.56.56-.56h6.94c.31,0,.56.25.56.56v6.93c0,.31-.25.56-.56.56ZM40.48,25.03h5.81v-5.81h-5.81v5.81Z"/>
    <path class="cls-2" d="M57.1,26.15h-6.93c-.31,0-.56-.25-.56-.56v-6.93c0-.31.25-.56.56-.56h6.93c.31,0,.56.25.56.56v6.93c0,.31-.25.56-.56.56ZM50.73,25.03h5.81v-5.81h-5.81v5.81Z"/>
    <path class="cls-2" d="M46.85,36.13h-6.94c-.31,0-.56-.25-.56-.56v-6.93c0-.31.25-.56.56-.56h6.94c.31,0,.56.25.56.56v6.93c0,.31-.25.56-.56.56ZM40.48,35.01h5.81v-5.81h-5.81v5.81Z"/>
    <path class="cls-2" d="M57.1,36.13h-6.93c-.31,0-.56-.25-.56-.56v-6.93c0-.31.25-.56.56-.56h6.93c.31,0,.56.25.56.56v6.93c0,.31-.25.56-.56.56ZM50.73,35.01h5.81v-5.81h-5.81v5.81Z"/>
    <path class="cls-2" d="M46.85,46.12h-6.94c-.31,0-.56-.25-.56-.56v-6.94c0-.31.25-.56.56-.56h6.94c.31,0,.56.25.56.56v6.94c0,.31-.25.56-.56.56ZM40.48,44.99h5.81v-5.81h-5.81v5.81Z"/>
    <path class="cls-2" d="M57.1,46.12h-6.93c-.31,0-.56-.25-.56-.56v-6.94c0-.31.25-.56.56-.56h6.93c.31,0,.56.25.56.56v6.94c0,.31-.25.56-.56.56ZM50.73,44.99h5.81v-5.81h-5.81v5.81Z"/>
    <path class="cls-2" d="M62.77,9.33H8.77c-.83,0-1.5.67-1.5,1.5v42.54c0,.83.67,1.5,1.5,1.5h25.44v6.38h-9.12c-.83,0-1.5.67-1.5,1.5s.67,1.5,1.5,1.5h21.12c.83,0,1.5-.67,1.5-1.5s-.67-1.5-1.5-1.5h-9v-6.38h25.57c.83,0,1.5-.67,1.5-1.5V10.83c0-.83-.67-1.5-1.5-1.5ZM61.27,51.87H10.27v-8c.73,1.26,2.08,2.03,3.82,2.03h14.37c2.65,0,4.43-1.77,4.43-4.41v-17.66c0-2.64-1.78-4.41-4.43-4.41h-14.37c-1.73,0-3.08.77-3.82,2.03v-9.13h51v39.54ZM11.05,41.49v-17.66c0-1.86,1.16-3.02,3.04-3.02h14.37c1.87,0,3.04,1.16,3.04,3.02v17.66c0,1.86-1.16,3.02-3.04,3.02h-14.37c-1.87,0-3.04-1.16-3.04-3.02Z"/>
  </g>
  <g id="Rectangles">
    <rect class="cls-1" x=".5" y=".36" width="71.28" height="71.28"/>
  </g>
</svg>