<?xml version="1.0" encoding="UTF-8"?>
<svg id="Layer_1" data-name="Layer 1" xmlns="http://www.w3.org/2000/svg" viewBox="0 0 72 72">
  <path d="M36.1,11.6c-12.7,0-27,3.9-27.5,10.1v27.89c0,6.5,14.6,10.8,27.5,10.8s27.5-4.3,27.5-10.8v-27.89c-.6-6.2-14.8-10.1-27.5-10.1ZM60.1,48.6c0,3.6-9.7,8-24,8s-24-4.5-24-8v-4.4c4.6,3.7,14.4,5.6,24,5.6s19.5-1.9,24-5.6v4.4ZM60.1,36.73c-5.17,3.7-14.72,5.48-24,5.48v4.6c12.7,0,21.76-3.08,24-6.47-.05,3.59-9.73,7.47-24,7.47s-24-4-24-7.5v-4.5c4.6,3.7,14.4,5.4,24,5.4s19.5-1.9,24-5.6v1.12ZM60.1,27.72c-5.17,3.7-14.72,5.48-24,5.48v4.6c12.7,0,21.76-3.08,24-6.47-.05,3.59-9.73,7.47-24,7.47s-24-4-24-7.5v-4.5c4.6,3.7,14.4,5.4,24,5.4s19.5-1.9,24-5.6v1.12ZM36.1,29.9c-14.3,0-24-3.7-24-7.3s9.7-7.8,24-7.8,24,4.2,24,7.8-9.7,7.3-24,7.3Z"/>
</svg>