<?xml version="1.0" encoding="UTF-8"?>
<svg xmlns="http://www.w3.org/2000/svg" viewBox="0 0 72 72">
    <path d="m58.45,50.25v-3.81c0-.55-.45-1-1-1h-8.05v-3c3.14-.48,5.55-3.19,5.55-6.46s-2.41-5.98-5.55-6.46v-4.05c0-.55-.45-1-1-1h-11.61v-3.27c3.14-.48,5.55-3.19,5.55-6.46,0-3.61-2.94-6.55-6.55-6.55s-6.55,2.94-6.55,6.55c0,3.27,2.41,5.98,5.55,6.46v3.27h-11.62c-.55,0-1,.45-1,1v4.05c-3.14.48-5.55,3.19-5.55,6.46s2.41,5.98,5.55,6.46v3h-7.75c-.55,0-1,.45-1,1v3.82c-3.14.48-5.55,3.19-5.55,6.46,0,3.61,2.94,6.55,6.55,6.55s6.55-2.94,6.55-6.55c0-3.27-2.41-5.98-5.55-6.46v-2.82h18.17v2.83c-3.1.52-5.47,3.21-5.47,6.45,0,3.61,2.94,6.55,6.55,6.55s6.55-2.94,6.55-6.55c0-3.3-2.45-6.02-5.62-6.48v-3.81c0-.55-.45-1-1-1h-10.42v-3c3.14-.48,5.55-3.19,5.55-6.46s-2.41-5.98-5.55-6.46v-3.05h23.24v3.05c-3.14.48-5.55,3.19-5.55,6.46s2.41,5.98,5.55,6.46v3h-7.38v2h16.42v2.83c-3.1.52-5.47,3.21-5.47,6.45,0,3.61,2.94,6.55,6.55,6.55s6.55-2.94,6.55-6.55c0-3.3-2.45-6.02-5.62-6.48ZM31.24,14.73c0-2.51,2.04-4.55,4.55-4.55s4.55,2.04,4.55,4.55-2.04,4.55-4.55,4.55-4.55-2.04-4.55-4.55Zm-12.28,42c0,2.51-2.04,4.55-4.55,4.55s-4.55-2.04-4.55-4.55,2.04-4.55,4.55-4.55,4.55,2.04,4.55,4.55Zm20.25,0c0,2.51-2.04,4.55-4.55,4.55s-4.55-2.04-4.55-4.55,2.04-4.55,4.55-4.55,4.55,2.04,4.55,4.55Zm-11.5-20.75c0,2.51-2.04,4.55-4.55,4.55s-4.55-2.04-4.55-4.55,2.04-4.55,4.55-4.55,4.55,2.04,4.55,4.55Zm16.14,0c0-2.51,2.04-4.55,4.55-4.55s4.55,2.04,4.55,4.55-2.04,4.55-4.55,4.55-4.55-2.04-4.55-4.55Zm13.67,25.3c-2.51,0-4.55-2.04-4.55-4.55s2.04-4.55,4.55-4.55,4.55,2.04,4.55,4.55-2.04,4.55-4.55,4.55Z" stroke-width="0"/>
    <rect x=".36" y=".36" width="71.28" height="71.28" fill="none" stroke-width="0"/>
</svg>