<?xml version="1.0" encoding="UTF-8"?>
<svg xmlns="http://www.w3.org/2000/svg" viewBox="0 0 72 72">
  <defs>
    <style>
      .cls-1 {
        fill: none;
      }
    </style>
  </defs>
  <g id="SVG_icons" data-name="SVG icons">
    <path d="M62.5,34.26l-15.38-15.42c-.78-.78-2.05-.78-2.83,0-.78.78-.78,2.05,0,2.83l11.98,12.01H10.94c-1.1,0-2,.9-2,2s.9,2,2,2h45.32l-11.98,12.01c-.78.78-.78,2.05,0,2.83.39.39.9.58,1.41.58s1.03-.2,1.42-.59l15.38-15.42c.78-.78.78-2.04,0-2.82Z"/>
  </g>
  <g id="Rectangles">
    <rect class="cls-1" x=".36" y=".36" width="71.28" height="71.28"/>
  </g>
</svg>