<?xml version="1.0" encoding="UTF-8"?>
<svg id="Layer_1" xmlns="http://www.w3.org/2000/svg" version="1.1" viewBox="0 0 72 72">
  <!-- Generator: Adobe Illustrator 29.0.1, SVG Export Plug-In . SVG Version: 2.1.0 Build 192)  -->
  <g id="SVG_icons">
    <path d="M65,8.6c0,0,0-.1,0-.2,0,0,0-.1,0-.2,0,0,0-.1,0-.2,0,0,0,0,0-.2-.2-.2-.3-.4-.6-.6,0,0-.1,0-.2,0,0,0-.1,0-.2,0,0,0-.1,0-.2,0,0,0-.1,0-.2,0-.1,0-.3,0-.4,0h-18c-1.1,0-2,.9-2,2s.9,2,2,2h13.2l-18.1,18.1c-.8.8-.8,2,0,2.8.4.4.9.6,1.4.6s1-.2,1.4-.6l18.1-18.1v13.2c0,1.1.9,2,2,2s2-.9,2-2V9c0-.1,0-.3,0-.4h0Z"/>
    <path d="M31.9,40.1c-.8-.8-2-.8-2.8,0l-18.1,18.1v-13.2c0-1.1-.9-2-2-2s-2,.9-2,2v18c0,.1,0,.3,0,.4,0,0,0,.1,0,.2,0,0,0,.1,0,.2,0,0,0,.1,0,.2,0,0,0,0,0,.2.2.2.3.4.6.6,0,0,0,0,.1,0,0,0,.1,0,.2,0s.1,0,.2,0c0,0,.1,0,.2,0,.1,0,.3,0,.4,0h18c1.1,0,2-.9,2-2s-.9-2-2-2h-13.2l18.1-18.1c.8-.8.8-2,0-2.8h0Z"/>
  </g>
</svg>