<?xml version="1.0" encoding="UTF-8"?>
<svg xmlns="http://www.w3.org/2000/svg" viewBox="0 0 72 72">
  <defs>
    <style>
      .cls-1 {
        fill: none;
      }
    </style>
  </defs>
  <g id="SVG_icons" data-name="SVG icons">
    <path d="M52.26,44.69c-.78-.78-2.05-.78-2.83,0l-12.01,11.98V11.35c0-1.1-.9-2-2-2s-2,.9-2,2v45.32l-12.01-11.98c-.78-.78-2.05-.78-2.83,0-.78.78-.78,2.05,0,2.83l15.42,15.38c.39.39.9.58,1.41.58s1.02-.19,1.41-.58l15.42-15.38c.78-.78.78-2.05,0-2.83Z"/>
  </g>
  <g id="Rectangles">
    <rect class="cls-1" x=".36" y=".36" width="71.28" height="71.28"/>
  </g>
</svg>