<?xml version="1.0" encoding="UTF-8"?>
<svg xmlns="http://www.w3.org/2000/svg" viewBox="0 0 72 72">
  <defs>
    <style>
      .cls-1 {
        fill: none;
      }
    </style>
  </defs>
  <g id="SVG_icons" data-name="SVG icons">
    <path d="M64.41,8.59c-.78-.78-2.05-.78-2.83,0l-18.48,18.48v-13.48c0-1.1-.9-2-2-2s-2,.9-2,2v18c0,1.1.9,2,2,2h18c1.1,0,2-.9,2-2s-.9-2-2-2h-12.87l18.18-18.18c.78-.78.78-2.05,0-2.83Z"/>
    <path d="M32.46,42.11c-.01-.06-.03-.11-.05-.17-.02-.07-.04-.14-.06-.2-.03-.07-.07-.13-.1-.19-.03-.05-.05-.1-.08-.15-.15-.22-.33-.41-.55-.55-.05-.03-.11-.06-.16-.09-.06-.03-.12-.07-.19-.1-.07-.03-.14-.04-.21-.06-.06-.02-.11-.04-.17-.05-.13-.03-.26-.04-.39-.04H12.5c-1.1,0-2,.9-2,2s.9,2,2,2h13.17L7.59,62.59c-.78.78-.78,2.05,0,2.83.39.39.9.59,1.41.59s1.02-.2,1.41-.59l18.09-18.09v13.17c0,1.1.9,2,2,2s2-.9,2-2v-18c0-.13-.01-.26-.04-.39Z"/>
  </g>
  <g id="Rectangles">
    <rect class="cls-1" x=".36" y=".36" width="71.28" height="71.28"/>
  </g>
</svg>