<?xml version="1.0" encoding="UTF-8"?>
<svg id="Layer_1" xmlns="http://www.w3.org/2000/svg" version="1.1" viewBox="0 0 72 72">
  <!-- Generator: Adobe Illustrator 29.0.1, SVG Export Plug-In . SVG Version: 2.1.0 Build 192)  -->
  <g id="SVG_icons">
    <path d="M64.4,8.6c-.8-.8-2-.8-2.8,0l-18.5,18.5v-13.5c0-1.1-.9-2-2-2s-2,.9-2,2v18c0,1.1.9,2,2,2h18c1.1,0,2-.9,2-2s-.9-2-2-2h-12.9l18.2-18.2c.8-.8.8-2.1,0-2.8h0Z"/>
    <path d="M32.5,42.1c0,0,0-.1,0-.2,0,0,0-.1,0-.2,0,0,0-.1,0-.2,0,0,0,0,0-.2-.2-.2-.3-.4-.5-.5,0,0-.1,0-.2,0,0,0-.1,0-.2,0s-.1,0-.2,0c0,0-.1,0-.2,0-.1,0-.3,0-.4,0H12.5c-1.1,0-2,.9-2,2s.9,2,2,2h13.2L7.6,62.6c-.8.8-.8,2,0,2.8s.9.6,1.4.6,1-.2,1.4-.6l18.1-18.1v13.2c0,1.1.9,2,2,2s2-.9,2-2v-18c0-.1,0-.3,0-.4Z"/>
  </g>
</svg>