<?xml version="1.0" encoding="utf-8"?>
<!-- Generator: Adobe Illustrator 27.9.0, SVG Export Plug-In . SVG Version: 6.00 Build 0)  -->
<svg version="1.1" id="Layer_1" xmlns="http://www.w3.org/2000/svg" xmlns:xlink="http://www.w3.org/1999/xlink" x="0px" y="0px"
	 viewBox="0 0 72 72" style="enable-background:new 0 0 72 72;" xml:space="preserve">
<path d="M54.4,42.3v-6.3c0-0.9-0.7-1.6-1.6-1.6h-15v-5c5.2-0.8,9.1-5.3,9.1-10.7C46.9,12.8,42,8,36.1,8s-10.8,4.8-10.8,10.8
	c0,5.4,4,9.9,9.1,10.7v5h-15c-0.9,0-1.6,0.7-1.6,1.6v6.3c-5.1,0.8-9.1,5.3-9.1,10.6c0,6,4.8,10.8,10.8,10.8S30.3,59,30.3,53
	c0-5.4-4-9.9-9.2-10.7v-4.6h30v4.7c-5.1,0.9-9,5.3-9,10.6c0,6,4.8,10.8,10.8,10.8S63.7,59,63.7,53C63.7,47.6,59.6,43,54.4,42.3z
	 M28.6,18.8c0-4.1,3.4-7.5,7.5-7.5c4.1,0,7.5,3.4,7.5,7.5s-3.4,7.5-7.5,7.5C31.9,26.3,28.6,22.9,28.6,18.8z M27,53
	c0,4.1-3.4,7.5-7.5,7.5S12,57.1,12,53s3.4-7.5,7.5-7.5S27,48.9,27,53z M52.9,60.5c-4.1,0-7.5-3.4-7.5-7.5s3.4-7.5,7.5-7.5
	s7.5,3.4,7.5,7.5S57,60.5,52.9,60.5z"/>
</svg>
