<?xml version="1.0" encoding="UTF-8"?>
<svg id="Layer_1" xmlns="http://www.w3.org/2000/svg" version="1.1" viewBox="0 0 72 72">
  <!-- Generator: Adobe Illustrator 29.0.1, SVG Export Plug-In . SVG Version: 2.1.0 Build 192)  -->
  <g id="SVG_icons">
    <path d="M63,24.3c-.5,0-1-.5-1-1v-10h-10c-.5,0-1-.4-1-1s.5-1,1-1h11c.5,0,1,.4,1,1v11c0,.5-.5,1-1,1Z"/>
    <path d="M9,24.3c-.6,0-1-.5-1-1v-11c0-.6.4-1,1-1h11c.5,0,1,.4,1,1s-.5,1-1,1h-10v10c0,.5-.4,1-1,1Z"/>
    <path d="M63,60.3h-11c-.5,0-1-.5-1-1s.5-1,1-1h10v-10c0-.5.5-1,1-1s1,.5,1,1v11c0,.5-.5,1-1,1Z"/>
    <path d="M20,60.3h-11c-.6,0-1-.5-1-1v-11c0-.5.4-1,1-1s1,.5,1,1v10h10c.5,0,1,.5,1,1s-.5,1-1,1Z"/>
    <path d="M61,57H11.3V14.4h49.7v42.6ZM14.3,54h43.7V17.4H14.3v36.6Z"/>
  </g>
</svg>