<?xml version="1.0" encoding="UTF-8"?>
<svg id="Layer_1" xmlns="http://www.w3.org/2000/svg" version="1.1" viewBox="0 0 72 72">
  <!-- Generator: Adobe Illustrator 29.0.1, SVG Export Plug-In . SVG Version: 2.1.0 Build 192)  -->
  <g id="SVG_icons">
    <path d="M62.2,12.8h-20.1v-1c0-.8-.7-1.5-1.5-1.5h-9.2c-.8,0-1.5.7-1.5,1.5v1H9.9c-.8,0-1.5.7-1.5,1.5v38.9c0,.8.7,1.5,1.5,1.5h14.2l-2.3,6.4c-.4,1,.2,2.2,1.2,2.6.2,0,.5.1.7.1.8,0,1.6-.5,1.9-1.3l2.6-7.2c0-.2,0-.3.1-.5h5.8v4.6c0,1.1.9,2,2,2s2-.9,2-2v-4.6h5.2c0,.2,0,.4.1.5l2.6,7.2c.3.8,1.1,1.3,1.9,1.3s.5,0,.7-.1c1-.4,1.6-1.5,1.2-2.6l-2.3-6.4h14.8c.8,0,1.5-.7,1.5-1.5V14.3c0-.8-.7-1.5-1.5-1.5h0ZM60.7,51.7H11.4V15.8h49.3v35.9Z"/>
  </g>
</svg>