<?xml version="1.0" encoding="UTF-8"?>
<svg xmlns="http://www.w3.org/2000/svg" viewBox="0 0 72 72">
  <defs>
    <style>
      .cls-1 {
        fill: none;
      }
    </style>
  </defs>
  <g id="SVG_icons" data-name="SVG icons">
    <path d="M63.01,24.27c-.55,0-1-.45-1-1v-10h-10c-.55,0-1-.45-1-1s.45-1,1-1h11c.55,0,1,.45,1,1v11c0,.55-.45,1-1,1Z"/>
    <path d="M9.01,24.27c-.55,0-1-.45-1-1v-11c0-.55.45-1,1-1h11c.55,0,1,.45,1,1s-.45,1-1,1h-10v10c0,.55-.45,1-1,1Z"/>
    <path d="M63.01,60.27h-11c-.55,0-1-.45-1-1s.45-1,1-1h10v-10c0-.55.45-1,1-1s1,.45,1,1v11c0,.55-.45,1-1,1Z"/>
    <path d="M20.01,60.27h-11c-.55,0-1-.45-1-1v-11c0-.55.45-1,1-1s1,.45,1,1v10h10c.55,0,1,.45,1,1s-.45,1-1,1Z"/>
    <path d="M60.98,57.04H11.29V14.41h49.69v42.63ZM14.29,54.04h43.69V17.41H14.29v36.63Z"/>
  </g>
  <g id="Rectangles">
    <rect class="cls-1" x=".36" y=".36" width="71.28" height="71.28"/>
  </g>
</svg>