<?xml version="1.0" encoding="UTF-8"?>
<svg id="Layer_1" xmlns="http://www.w3.org/2000/svg" version="1.1" viewBox="0 0 72 72">
  <!-- Generator: Adobe Illustrator 29.0.1, SVG Export Plug-In . SVG Version: 2.1.0 Build 192)  -->
  <g id="SVG_icons">
    <path d="M59.2,31.1c-.3-.8-1-1.2-1.8-1.2H17.7l19.6-19.6c.6-.6.7-1.4.4-2.2s-1-1.2-1.8-1.2h-14.6c-1.1,0-2,.9-2,2s.9,2,2,2h9.8L11.4,30.5c-.6.6-.7,1.4-.4,2.2.3.8,1,1.2,1.9,1.2h39.7l-23.7,23.7v-9.7c0-1.1-.9-2-2-2s-2,.9-2,2v14.7c0,1.1.9,2,2,2h15c1.1,0,2-.9,2-2s-.9-2-2-2h-10.3l27.2-27.2c.6-.6.7-1.4.4-2.2h0Z"/>
  </g>
</svg>