<?xml version="1.0" encoding="UTF-8"?>
<svg id="Layer_1" xmlns="http://www.w3.org/2000/svg" version="1.1" viewBox="0 0 72 72">
  <!-- Generator: Adobe Illustrator 29.0.1, SVG Export Plug-In . SVG Version: 2.1.0 Build 192)  -->
  <g id="SVG_icons">
    <path d="M62.9,24.3c.1,0,.3,0,.4,0,.4-.1.6-.5.6-.9v-11c0-.6-.5-1-1-1h-11c-.4,0-.8.2-.9.6,0,0,0,.2,0,.3h-30c0,0,0-.2,0-.3-.1-.4-.5-.6-.9-.6h-11c-.6,0-1,.4-1,1v11c0,.4.2.8.6.9.1,0,.2,0,.4,0s0,0,.1,0v23c-.2,0-.3,0-.5,0-.4.2-.6.5-.6.9v11c0,.5.4,1,1,1h11c.4,0,.8-.2.9-.6,0-.2,0-.4,0-.5h30c0,.2,0,.4,0,.5.2.4.5.6.9.6h11c.5,0,1-.5,1-1v-11c0-.4-.2-.8-.6-.9-.2,0-.3,0-.5,0v-23s0,0,0,0h0ZM61.9,13.3v7.5s0,0,0,0l-7.5-7.5h7.6ZM53.7,56.1H18.2l-6.1-6.1v-28.4l6.4-6.4h35l6.4,6.4v28.3l-6.2,6.2h0ZM9.9,13.3h7.5s0,0,0,.1l-7.5,7.5v-7.6h0ZM9.9,58.3v-7.4c0,0,.1,0,.2,0l7.4,7.4h-7.6ZM54.3,58.3s7.5-7.6,7.6-7.6v7.6h-7.6Z"/>
  </g>
</svg>