<?xml version="1.0" encoding="UTF-8"?>
<svg xmlns="http://www.w3.org/2000/svg" viewBox="0 0 72 72">
  <defs>
    <style>
      .cls-1 {
        fill: none;
      }
    </style>
  </defs>
  <g id="SVG_icons" data-name="SVG icons">
    <path d="M59.22,31.1c-.31-.75-1.04-1.23-1.85-1.23H17.68l19.59-19.59c.57-.57.74-1.43.43-2.18-.31-.75-1.04-1.23-1.85-1.23h-14.64c-1.1,0-2,.9-2,2s.9,2,2,2h9.81L11.43,30.45c-.57.57-.74,1.43-.43,2.18.31.75,1.04,1.23,1.85,1.23h39.7l-23.66,23.66v-9.74c0-1.1-.9-2-2-2s-2,.9-2,2v14.71c0,1.1.9,2,2,2h15.02c1.1,0,2-.9,2-2s-.9-2-2-2h-10.33l27.22-27.22c.57-.57.74-1.43.43-2.18Z"/>
  </g>
  <g id="Rectangles">
    <rect class="cls-1" x=".36" y=".36" width="71.28" height="71.28"/>
  </g>
</svg>