<?xml version="1.0" encoding="UTF-8"?>
<svg xmlns="http://www.w3.org/2000/svg" viewBox="0 0 72 72">
  <defs>
    <style>
      .cls-1 {
        fill: none;
      }
    </style>
  </defs>
  <g id="SVG_icons" data-name="SVG icons">
    <path d="M62.18,12.75h-20.06v-.97c0-.83-.67-1.5-1.5-1.5h-9.2c-.83,0-1.5.67-1.5,1.5v.97H9.86c-.83,0-1.5.67-1.5,1.5v38.94c0,.83.67,1.5,1.5,1.5h14.23l-2.33,6.41c-.38,1.04.16,2.19,1.2,2.56.23.08.46.12.68.12.82,0,1.58-.5,1.88-1.32l2.64-7.25c.06-.18.09-.35.11-.53h5.76v4.58c0,1.1.9,2,2,2s2-.9,2-2v-4.58h5.24c.01.18.04.36.11.53l2.64,7.25c.3.81,1.06,1.32,1.88,1.32.23,0,.46-.04.68-.12,1.04-.38,1.57-1.53,1.2-2.56l-2.33-6.41h14.75c.83,0,1.5-.67,1.5-1.5V14.25c0-.83-.67-1.5-1.5-1.5ZM60.68,51.69H11.36V15.75h49.32v35.94Z"/>
  </g>
  <g id="Rectangles">
    <rect class="cls-1" x=".36" y=".36" width="71.28" height="71.28"/>
  </g>
</svg>