<?xml version="1.0" encoding="UTF-8"?>
<svg xmlns="http://www.w3.org/2000/svg" viewBox="0 0 72 72">
  <defs>
    <style>
      .cls-1 {
        fill: none;
      }
    </style>
  </defs>
  <g id="SVG_icons" data-name="SVG icons">
    <path d="M62.93,24.27c.13,0,.26-.02.38-.08.37-.15.62-.52.62-.92v-11c0-.55-.45-1-1-1h-11c-.4,0-.77.24-.92.62-.04.09-.06.18-.07.27h-30.02c-.01-.09-.03-.18-.07-.27-.15-.37-.52-.62-.92-.62h-11c-.55,0-1,.45-1,1v11c0,.4.24.77.62.92.12.05.25.08.38.08.04,0,.07-.02.11-.02v23.04c-.16-.02-.33,0-.49.06-.37.15-.62.52-.62.92v11c0,.55.45,1,1,1h11c.4,0,.77-.24.92-.62.07-.18.09-.37.06-.55h30.04c-.03.18-.02.37.06.55.15.37.52.62.92.62h11c.55,0,1-.45,1-1v-11c0-.4-.24-.77-.62-.92-.15-.06-.31-.08-.47-.06v-23.03s.06.02.08.02ZM61.93,13.27v7.54s-.05-.01-.07-.02l-7.52-7.52h7.59ZM53.69,56.1H18.18l-6.14-6.14v-28.4l6.36-6.41h35.01l6.44,6.44v28.34l-6.16,6.16ZM9.93,13.27h7.5s-.02.08-.03.11l-7.47,7.47v-7.59ZM9.93,58.27v-7.44c.07.03.14.05.22.07l7.37,7.37h-7.59ZM54.35,58.27s7.51-7.56,7.59-7.59v7.59h-7.59Z"/>
  </g>
  <g id="Rectangles">
    <rect class="cls-1" x=".36" y=".36" width="71.28" height="71.28"/>
  </g>
</svg>