<svg xmlns="http://www.w3.org/2000/svg" viewBox="0 0 72 72">
  <g id="SVG_icons" data-name="SVG icons">
    <polygon points="51.85 30.25 43.62 38.48 43.62 17.95 39.62 17.95 39.62 38.48 31.45 30.31 28.62 33.14 41.62 46.14 54.68 33.07 51.85 30.25"/>
    <path d="M57.93,17.71l-9.38-8.64c-.53-.49-1.21-.75-1.93-.75h-20.55c-1.58,0-2.86,1.28-2.86,2.86v11.91h-7.66c-1.35,0-2.45,1.1-2.45,2.45v36.25c0,1.35,1.1,2.45,2.45,2.45h26.94c1.35,0,2.45-1.1,2.45-2.45v-7.47h11.06c1.57,0,2.86-1.28,2.86-2.86v-31.64c0-.8-.34-1.56-.92-2.1ZM42.94,61.78c0,.25-.2.45-.45.45H15.55c-.25,0-.45-.2-.45-.45V25.53c0-.25.2-.45.45-.45h7.66v26.37c0,1.58,1.28,2.86,2.86,2.86h16.87v7.47ZM56.35,51.45c0,.2-.16.36-.36.36h-29.93c-.2,0-.36-.16-.36-.36V11.17c0-.2.16-.36.36-.36h20.55c.09,0,.17.03.24.09l9.38,8.64c.07.07.12.16.12.26v31.64Z"/>
  </g>
  <g id="Rectangles">
    <rect x="0" y=".72" width="71.28" height="71.28" fill="none"/>
  </g>
</svg>