<?xml version="1.0" encoding="utf-8"?>
<svg xmlns="http://www.w3.org/2000/svg" viewBox="0 0 72 72">
	<path d="M54.5,63.9h-37c-1.9,0-3.5-1.6-3.5-3.5V10.6c0-1.9,1.6-3.5,3.5-3.5H43c0.9,0,1.7,0.3,2.4,0.9l11.5,10.7
		c0.7,0.7,1.1,1.6,1.1,2.6v39.1C58,62.3,56.5,63.8,54.5,63.9z M17.6,10.2c-0.3,0-0.5,0.2-0.5,0.5v49.7c0,0.3,0.2,0.5,0.5,0.5l0,0h37
		c0.3,0,0.5-0.2,0.5-0.5l0,0V21.3c0-0.1-0.1-0.3-0.2-0.4L43.3,10.3c-0.1-0.1-0.2-0.1-0.3-0.1H17.6z"/>
    <path d="M33.9,44.1l-0.1-1c-0.2-2,0.5-4.3,2.3-6.5c1.7-2,2.6-3.5,2.6-5.2c0-1.9-1.2-3.2-3.6-3.2c-1.4,0-2.7,0.4-3.8,1.2l-0.9-2.4
	    c1.6-1,3.5-1.5,5.4-1.5c4.3,0,6.3,2.7,6.3,5.6c0,2.6-1.4,4.5-3.2,6.6c-1.7,2-2.3,3.7-2.2,5.6l0,0.9H33.9z M35.3,51.8
	    c-1.2,0-2.2-1-2.2-2.2c0,0,0,0,0,0c0,0,0-0.1,0-0.1c-0.1-1.2,0.9-2.3,2.1-2.4c0,0,0,0,0,0h0.2c1.3,0.1,2.3,1.2,2.2,2.5
	    C37.6,50.8,36.6,51.8,35.3,51.8L35.3,51.8z"/>
</svg>
