<?xml version="1.0" encoding="UTF-8"?>
<svg xmlns="http://www.w3.org/2000/svg" viewBox="0 0 72 72">
  <path d="M54.5,63.9H17.5c-1.9,0-3.5-1.6-3.5-3.5V10.6c0-1.9,1.6-3.5,3.5-3.5h25.5c.9,0,1.7.3,2.4.9l11.5,10.7c.7.7,1.1,1.6,1.1,2.6v39.1c0,1.9-1.5,3.4-3.5,3.5ZM17.6,10.2c-.3,0-.5.2-.5.5v49.7c0,.3.2.5.5.5h37c.3,0,.5-.2.5-.5h0V21.3c0-.1-.1-.3-.2-.4l-11.6-10.6c-.1-.1-.2-.1-.3-.1h-25.4Z"/>
  <path d="M36.06,22.9c.3,0,.6.2.9.3l13.2,13.4c.3.3.5.9.2,1.3-.2.5-.6.7-1.1.7h-7.5v17.9s-2.4,0-2.4,0v-19.1c0-.6.6-1.2,1.2-1.2h5.8s-10.4-10.4-10.4-10.4l-10.4,10.4h5.7c.6,0,1.2.6,1.2,1.2v19.1s-2.4,0-2.4,0v-17.9h-7.4c-.5,0-1-.3-1.1-.7-.2-.4-.1-1,.2-1.3l13.4-13.4c.3-.2.5-.3.9-.3Z"/>
</svg>