<?xml version="1.0" encoding="utf-8"?>
<svg xmlns="http://www.w3.org/2000/svg" viewBox="0 0 72 72">
	<path d="M54.5,63.9h-37c-1.9,0-3.5-1.6-3.5-3.5V10.6c0-1.9,1.6-3.5,3.5-3.5H43c0.9,0,1.7,0.3,2.4,0.9l11.5,10.7
		c0.7,0.7,1.1,1.6,1.1,2.6v39.1C58,62.3,56.5,63.8,54.5,63.9z M17.6,10.2c-0.3,0-0.5,0.2-0.5,0.5v49.7c0,0.3,0.2,0.5,0.5,0.5l0,0h37
		c0.3,0,0.5-0.2,0.5-0.5l0,0V21.3c0-0.1-0.1-0.3-0.2-0.4L43.3,10.3c-0.1-0.1-0.2-0.1-0.3-0.1H17.6z"/>
    <path d="M46.4,49.5H26.7c-1.7,0-3.2-0.9-4.1-2.3c-0.8-1.3-0.7-3,0.1-4.3L32.5,26c1.4-2.2,4.3-2.9,6.5-1.5c0.6,0.4,1.1,0.9,1.5,1.5
	    l9.9,16.9c0.8,1.3,0.8,3,0.1,4.3C49.6,48.6,48.1,49.5,46.4,49.5z M36.5,25.8c-0.9,0-1.8,0.5-2.3,1.3l-9.8,16.8l0,0
	    c-0.5,0.7-0.5,1.6,0,2.4c0.5,0.9,1.4,1.4,2.4,1.3h19.7c1,0,1.9-0.5,2.4-1.3c0.4-0.7,0.4-1.6,0-2.4L38.8,27
	    C38.3,26.2,37.5,25.7,36.5,25.8z"/>
    <rect x="35.5" y="30.2" width="1.9" height="10.7"/>
    <rect x="35.5" y="43" width="1.9" height="2.3"/>
</svg>
