<?xml version="1.0" encoding="utf-8"?>
<svg xmlns="http://www.w3.org/2000/svg" viewBox="0 0 72 72">
	<path d="M54.5,63.9h-37c-1.9,0-3.5-1.6-3.5-3.5V10.6c0-1.9,1.6-3.5,3.5-3.5H43c0.9,0,1.7,0.3,2.4,0.9l11.5,10.7
		c0.7,0.7,1.1,1.6,1.1,2.6v39.1C58,62.3,56.5,63.8,54.5,63.9z M17.6,10.2c-0.3,0-0.5,0.2-0.5,0.5v49.7c0,0.3,0.2,0.5,0.5,0.5l0,0h37
		c0.3,0,0.5-0.2,0.5-0.5l0,0V21.3c0-0.1-0.1-0.3-0.2-0.4L43.3,10.3c-0.1-0.1-0.2-0.1-0.3-0.1H17.6z"/>
    <path d="M49.3,29.1l-3.3-3.2c-0.3-0.3-0.8-0.3-1.1,0l-19,19.2c-0.1,0.1-0.1,0.2-0.2,0.2l-2.3,5.6c-0.1,0.3-0.1,0.6,0.2,0.9
	    c0.1,0.2,0.4,0.2,0.6,0.2c0.1,0,0.2,0,0.3-0.1l5.7-2.3c0.1,0,0.2-0.1,0.3-0.2l19-19.2c0.2-0.1,0.2-0.4,0.2-0.6
	    C49.5,29.5,49.4,29.3,49.3,29.1z M29.2,48.2l-3.7,1.5l1.5-3.7l14.5-14.6l2.2,2.1L29.2,48.2z M44.9,32.4l-2.2-2.1l2.7-2.7l2.2,2.1
	    L44.9,32.4z"/>
</svg>
