<?xml version="1.0" encoding="utf-8"?>
<svg xmlns="http://www.w3.org/2000/svg" viewBox="0 0 72 72">
	<path d="M54.5,63.9h-37c-1.9,0-3.5-1.6-3.5-3.5V10.6c0-1.9,1.6-3.5,3.5-3.5H43c0.9,0,1.7,0.3,2.4,0.9l11.5,10.7
		c0.7,0.7,1.1,1.6,1.1,2.6v39.1C58,62.3,56.5,63.8,54.5,63.9z M17.6,10.2c-0.3,0-0.5,0.2-0.5,0.5v49.7c0,0.3,0.2,0.5,0.5,0.5l0,0h37
		c0.3,0,0.5-0.2,0.5-0.5l0,0V21.3c0-0.1-0.1-0.3-0.2-0.4L43.3,10.3c-0.1-0.1-0.2-0.1-0.3-0.1H17.6z"/>
<path d="M36.4,45.3c-2.6,0-4.8-2.1-4.8-4.8s2.1-4.8,4.8-4.8s4.8,2.1,4.8,4.8S39,45.3,36.4,45.3z M36.4,37.4c-1.8,0-3.2,1.4-3.2,3.2
	s1.4,3.2,3.2,3.2s3.2-1.4,3.2-3.2S38.1,37.4,36.4,37.4z"/>
<path d="M45.3,42.2c-0.6,0.1-1,0.5-1.2,1.1c-0.1,0.3-0.2,0.6-0.4,0.9c-0.2,0.5-0.2,1.1,0.1,1.6l1.5,2.2l-1.6,1.6L41.5,48
	c-0.3-0.2-0.6-0.3-0.9-0.3c-0.2,0-0.5,0-0.7,0.2c-0.3,0.1-0.6,0.3-0.9,0.4c-0.5,0.2-1,0.7-1.1,1.2l-0.5,2.7h-2.2l-0.5-2.7
	c-0.1-0.6-0.5-1-1.1-1.2c-0.3-0.1-0.6-0.2-0.9-0.4c-0.2-0.1-0.5-0.2-0.7-0.2c-0.3,0-0.6,0.1-0.9,0.3l-2.3,1.5L27.3,48l1.5-2.2
	c0.3-0.5,0.4-1.1,0.1-1.6c-0.1-0.3-0.3-0.6-0.4-0.9c-0.2-0.5-0.7-1-1.2-1.1l-2.9-0.5v-2.2l2.9-0.5c0.6-0.1,1-0.5,1.2-1.1
	c0.1-0.3,0.2-0.6,0.4-0.9c0.2-0.5,0.2-1.1-0.1-1.6l-1.6-2.3l1.6-1.6l2.3,1.6c0.3,0.2,0.6,0.3,0.9,0.3c0.2,0,0.5,0,0.7-0.2
	c0.3-0.1,0.6-0.3,0.9-0.4c0.5-0.2,1-0.7,1.1-1.2l0.5-2.9h2.2l0.5,2.9c0.1,0.6,0.5,1,1.1,1.2c0.3,0.1,0.6,0.2,0.9,0.4
	c0.2,0.1,0.5,0.2,0.7,0.2c0.3,0,0.6-0.1,0.9-0.3l2.3-1.6l1.6,1.6l-1.6,2.3c-0.3,0.5-0.4,1.1-0.1,1.6c0.1,0.3,0.3,0.6,0.4,0.9
	c0.2,0.5,0.7,1,1.2,1.1l2.7,0.5v2.2L45.3,42.2L45.3,42.2L45.3,42.2z M48.3,37.8l-2.5-0.5c-0.1-0.4-0.3-0.7-0.5-1.1l1.4-2.1
	c0.4-0.7,0.4-1.5-0.2-2.1l-1.6-1.6c-0.3-0.3-0.7-0.5-1.2-0.5c-0.3,0-0.6,0.1-0.9,0.3l-2.2,1.4c-0.3-0.2-0.7-0.3-1.1-0.4l-0.5-2.5
	c-0.2-0.8-0.8-1.3-1.6-1.3h-2.3c-0.8,0-1.5,0.5-1.6,1.3l-0.5,2.5c-0.4,0.1-0.7,0.3-1.1,0.4l-2.1-1.4c-0.3-0.2-0.6-0.3-0.9-0.3
	c-0.4,0-0.8,0.2-1.2,0.5l-1.6,1.6c-0.5,0.5-0.6,1.4-0.2,2.1l1.4,2.1c-0.2,0.3-0.3,0.7-0.5,1.1l-2.5,0.5c-0.8,0.2-1.3,0.8-1.3,1.6
	v2.2c0,0.8,0.5,1.5,1.3,1.6l2.5,0.5c0.1,0.4,0.3,0.7,0.5,1.1L26,47c-0.4,0.7-0.4,1.5,0.2,2.1l1.6,1.6c0.3,0.3,0.7,0.5,1.2,0.5
	c0.3,0,0.6-0.1,0.9-0.3l2.1-1.4c0.3,0.2,0.7,0.3,1.1,0.5l0.5,2.5c0.2,0.8,0.8,1.3,1.6,1.3h2.3c0.8,0,1.5-0.6,1.6-1.3l0.5-2.5
	c0.4-0.1,0.7-0.3,1.1-0.5l2.2,1.4c0.3,0.2,0.6,0.3,0.9,0.3c0.4,0,0.9-0.2,1.2-0.5l1.6-1.6c0.5-0.5,0.7-1.4,0.2-2.1l-1.4-2.1
	c0.2-0.3,0.3-0.7,0.5-1.1l2.5-0.5c0.8-0.2,1.3-0.8,1.3-1.6v-2.2C49.6,38.7,49,38,48.3,37.8L48.3,37.8L48.3,37.8z"/>
</svg>
