<svg xmlns="http://www.w3.org/2000/svg" viewBox="0 0 72 72">
  <g id="SVG_icons" data-name="SVG icons">
    <path d="M40.83,28.31h-16.38c-1.1,0-2,.9-2,2s.9,2,2,2h11.55l-27.44,27.44c-.78.78-.78,2.05,0,2.83.39.39.9.59,1.41.59s1.02-.2,1.41-.59l27.44-27.44v11.64c0,1.1.9,2,2,2s2-.9,2-2v-16.47c0-1.1-.9-2-2-2Z" fill="#272525"/>
    <path d="M62.48,17.67l-9.38-8.64c-.53-.49-1.21-.75-1.93-.75h-20.55c-1.58,0-2.86,1.28-2.86,2.86v4.38l-.66-.53c-.4-.37-.92-.57-1.47-.57h-14.98c-1.2,0-2.17.97-2.17,2.17v29.36c0,1.2.97,2.17,2.17,2.17h7.28v2.66h2v-25.3c0-.25.2-.45.45-.45h7.38v5.93h2.5V11.13c0-.2.16-.36.36-.36h20.55c.09,0,.18.03.24.09l9.38,8.64c.07.07.12.16.12.26v31.64c0,.2-.16.36-.36.36h-29.72c-.65,0-.57-.56-.57-.56v-6.24l-2.5,2.47v2.96c0,3.63,1.14,3.87,2.86,3.87h17.15v7.47c0,.25-.2.45-.44.45h-26.94c-.25,0-.45-.2-.45-.45v-6.42l-2,2.01v4.41c0,1.35,1.1,2.45,2.45,2.45h26.94c1.35,0,2.44-1.1,2.44-2.45v-7.47h10.79c1.57,0,2.86-1.28,2.86-2.86v-31.64c0-.8-.34-1.56-.92-2.1ZM27.76,23.04h-7.38c-1.35,0-2.45,1.1-2.45,2.45v20.64h-7.28c-.09,0-.17-.08-.17-.17v-29.36c0-.09.08-.17.17-.17h14.98s.08.02.17.09l1.96,1.57v4.96Z" fill="#272525"/>
  </g>
  <g id="Rectangles">
    <rect x=".36" y=".36" width="71.28" height="71.28" fill="none"/>
  </g>
</svg>