<?xml version="1.0" encoding="utf-8"?>
<svg xmlns="http://www.w3.org/2000/svg" viewBox="0 0 72 72">
	<path d="M54.5,63.9h-37c-1.9,0-3.5-1.6-3.5-3.5V10.6c0-1.9,1.6-3.5,3.5-3.5H43c0.9,0,1.7,0.3,2.4,0.9l11.5,10.7
		c0.7,0.7,1.1,1.6,1.1,2.6v39.1C58,62.3,56.5,63.8,54.5,63.9z M17.6,10.2c-0.3,0-0.5,0.2-0.5,0.5v49.7c0,0.3,0.2,0.5,0.5,0.5l0,0h37
		c0.3,0,0.5-0.2,0.5-0.5l0,0V21.3c0-0.1-0.1-0.3-0.2-0.4L43.3,10.3c-0.1-0.1-0.2-0.1-0.3-0.1H17.6z"/>
    <polygon points="34.8,43.4 29.5,38.1 31.4,36.2 34.8,39.7 42,32.5 43.8,34.4 "/>
    <path d="M35.9,53.5c-0.2,0-0.3,0-0.5-0.1c-0.1,0-0.2-0.1-0.4-0.2c-6.4-3.5-9.9-6.3-10.5-8.7c-0.4-1.3-0.6-2.9-0.9-5.3l-1.1-10.4
	    c0-0.4,0.2-0.9,0.7-1L35.6,24c0.2-0.1,0.4-0.1,0.5,0l12.4,3.8c0.4,0.1,0.7,0.5,0.7,1l-1.1,10.4c-0.3,2.4-0.6,4-0.9,5.3
	    c-0.6,2.4-4.1,5.2-10.5,8.7c-0.2,0.1-0.3,0.2-0.4,0.2C36.2,53.4,36.1,53.5,35.9,53.5L35.9,53.5z M24.5,29.3l1,9.6
	    c0.3,2.3,0.5,3.8,0.9,5c0.3,1,1.9,3.4,9.6,7.5c7.7-4.2,9.3-6.5,9.6-7.5c0.3-1.2,0.6-2.8,0.9-5l1-9.6l-11.4-3.5L24.5,29.3L24.5,29.3z
	    "/>
</svg>
