<?xml version="1.0" encoding="utf-8"?>
<svg xmlns="http://www.w3.org/2000/svg" viewBox="0 0 72 72">
	<path d="M54.5,63.9h-37c-1.9,0-3.5-1.6-3.5-3.5V10.6c0-1.9,1.6-3.5,3.5-3.5H43c0.9,0,1.7,0.3,2.4,0.9l11.5,10.7
		c0.7,0.7,1.1,1.6,1.1,2.6v39.1C58,62.3,56.5,63.8,54.5,63.9z M17.6,10.2c-0.3,0-0.5,0.2-0.5,0.5v49.7c0,0.3,0.2,0.5,0.5,0.5l0,0h37
		c0.3,0,0.5-0.2,0.5-0.5l0,0V21.3c0-0.1-0.1-0.3-0.2-0.4L43.3,10.3c-0.1-0.1-0.2-0.1-0.3-0.1H17.6z"/>
    <polygon points="37.4,29.5 34.3,29.5 34.3,36.7 27.1,36.7 27.1,39.8 34.3,39.8 34.3,47.1 37.4,47.1 37.4,39.8 44.7,39.8 44.7,36.7
	    37.4,36.7 "/>
</svg>
