<?xml version="1.0" encoding="UTF-8"?>
<svg id="Layer_1" data-name="Layer 1" xmlns="http://www.w3.org/2000/svg" viewBox="0 0 72 72">
  <path d="M54.5,63.9H17.6c-1.9,0-3.5-1.6-3.5-3.5V10.6c0-1.9,1.6-3.5,3.5-3.5h25.4c.9,0,1.7.3,2.4.9l11.5,10.7c.7.7,1.1,1.6,1.1,2.6v39.1c0,1.9-1.5,3.5-3.5,3.5ZM17.6,10.2c-.3,0-.5.2-.5.5v49.7c0,.3.2.5.5.5h37c.3,0,.5-.2.5-.5h0V21.3c0-.1,0-.3-.2-.4l-11.6-10.7s-.2-.1-.3-.1h-25.4v.1Z"/>
  <g>
    <path d="M24.8,36.9c.5,0,.9-.4.9-.9,0-4.5,2.8-8.5,7-10.1,4.7-1.7,9.9.1,12.6,4.3h-4.2c-.5,0-.9.4-.9.9s.4.9.9.9h6.2c.5,0,.9-.4.9-.9v-6.2c0-.5-.4-.9-.9-.9s-.9.4-.9.9v3.9c-3.2-4.6-9.1-6.5-14.4-4.6-4.9,1.8-8.2,6.5-8.2,11.7,0,.5.4.9.9.9h0l.1.1Z"/>
    <path d="M47.8,35h0c-.5,0-.9.4-.9.9,0,4.5-2.8,8.5-7,10.1-4.7,1.7-9.9-.1-12.6-4.3h4.2c.5,0,.9-.4.9-.9s-.4-.9-.9-.9h-6.3c-.5,0-.9.4-.9.9v6.2c0,.5.4.9.9.9s.9-.4.9-.9v-3.9c2.3,3.3,6.2,5.3,10.2,5.3,6.8,0,12.3-5.5,12.3-12.4h0c0-.5-.4-.9-.9-.9l.1-.1Z"/>
  </g>
</svg>