<?xml version="1.0" encoding="utf-8"?>
<svg xmlns="http://www.w3.org/2000/svg" viewBox="0 0 72 72">
	<path d="M54.5,63.9h-37c-1.9,0-3.5-1.6-3.5-3.5V10.6c0-1.9,1.6-3.5,3.5-3.5H43c0.9,0,1.7,0.3,2.4,0.9l11.5,10.7
		c0.7,0.7,1.1,1.6,1.1,2.6v39.1C58,62.3,56.5,63.8,54.5,63.9z M17.6,10.2c-0.3,0-0.5,0.2-0.5,0.5v49.7c0,0.3,0.2,0.5,0.5,0.5l0,0h37
		c0.3,0,0.5-0.2,0.5-0.5l0,0V21.3c0-0.1-0.1-0.3-0.2-0.4L43.3,10.3c-0.1-0.1-0.2-0.1-0.3-0.1H17.6z"/>
<path d="M35.9,56.5c-0.3,0-0.6-0.2-0.9-0.3L21.8,42.8c-0.3-0.3-0.5-0.9-0.2-1.3c0.2-0.5,0.6-0.7,1.1-0.7h7.5V22.9h2.4V42
	c0,0.6-0.6,1.2-1.2,1.2h-5.8l10.4,10.4l10.4-10.4h-5.7c-0.6,0-1.2-0.6-1.2-1.2V22.9h2.4v17.9h7.4c0.5,0,1,0.3,1.1,0.7
	c0.2,0.4,0.1,1-0.2,1.3L36.8,56.2C36.5,56.4,36.3,56.5,35.9,56.5z"/>
</svg>
