<?xml version="1.0" encoding="utf-8"?>
<svg xmlns="http://www.w3.org/2000/svg" viewBox="0 0 72 72">
    <polygon points="32.7,46.3 30.5,44.2 27.1,47.5 23.7,44.2 21.6,46.3 25,49.7 21.6,53.1 23.7,55.3 27.1,51.9 30.5,55.3 32.7,53.1
	    29.3,49.7 "/>
    <polygon points="43,54.9 37.6,49.5 39.8,47.4 43,50.6 49.8,43.7 52,45.9 "/>
    <path d="M56.9,18.7L45.4,8c-0.7-0.6-1.5-0.9-2.4-0.9H17.5c-1.9,0-3.5,1.6-3.5,3.5v49.8c0,1.9,1.6,3.5,3.5,3.5h37
	    c2-0.1,3.5-1.6,3.5-3.5V21.3C58,20.3,57.6,19.4,56.9,18.7z M17.6,10.2H43c0.1,0,0.2,0,0.3,0.1l11.6,10.6c0.1,0.1,0.2,0.3,0.2,0.4
	    v16.5h-38V10.7C17.1,10.4,17.3,10.2,17.6,10.2z M54.6,60.9h-37c-0.3,0-0.5-0.2-0.5-0.5V39.6h38v20.8C55.1,60.7,54.9,60.9,54.6,60.9z
	    "/>
</svg>
