<svg xmlns="http://www.w3.org/2000/svg" viewBox="0 0 72 72">
  <g id="SVG_icons" data-name="SVG icons">
    <g id="Document">
      <path d="M54.88,63.85H17.93c-1.78,0-3.23-1.45-3.23-3.24V10.89c0-1.78,1.45-3.23,3.23-3.23h25.37c.81,0,1.59.3,2.19.85l11.58,10.67c.66.61,1.04,1.48,1.04,2.38v39.06c0,1.78-1.45,3.24-3.23,3.24ZM17.93,10.16c-.4,0-.73.33-.73.73v49.72c0,.41.33.74.73.74h36.95c.4,0,.73-.33.73-.74V21.56c0-.21-.09-.4-.24-.54l-11.58-10.67c-.14-.12-.31-.19-.5-.19h-25.37Z"/>
    </g>
    <g id="settings">
      <path d="M36,45.16c-3.05,0-5.53-2.47-5.53-5.51s2.48-5.51,5.53-5.51,5.53,2.47,5.53,5.51-2.48,5.51-5.53,5.51ZM36,35.99c-2.04,0-3.69,1.65-3.69,3.67s1.66,3.67,3.69,3.67,3.69-1.65,3.69-3.67-1.66-3.67-3.69-3.67Z" fill="#272525"/>
      <path d="M46.39,41.52c-.66.13-1.2.6-1.42,1.23-.12.35-.27.69-.42,1.01-.3.6-.25,1.32.13,1.87l1.8,2.61-1.83,1.82-2.62-1.79c-.32-.21-.69-.32-1.05-.32-.28,0-.57.06-.83.19-.33.16-.67.3-1.02.42-.63.22-1.11.76-1.24,1.41l-.58,3.14h-2.58l-.58-3.14c-.13-.66-.6-1.19-1.24-1.41-.35-.12-.69-.26-1.02-.42-.26-.13-.55-.19-.83-.19-.37,0-.74.11-1.05.32l-2.61,1.78-1.83-1.82,1.78-2.6c.37-.56.42-1.27.13-1.87-.16-.33-.3-.67-.43-1.02-.22-.63-.76-1.1-1.42-1.23l-3.4-.58v-2.57s3.4-.58,3.4-.58c.66-.13,1.2-.6,1.42-1.23.12-.35.26-.69.42-1.02.29-.6.25-1.32-.13-1.87l-1.83-2.64,1.83-1.82,2.65,1.82c.32.21.69.32,1.05.32.28,0,.57-.06.83-.19.33-.16.67-.3,1.02-.42.64-.22,1.11-.76,1.24-1.41l.58-3.33h2.58s.58,3.33.58,3.33c.13.66.6,1.19,1.24,1.41.35.12.69.26,1.02.42.26.13.55.19.83.19.37,0,.74-.11,1.05-.32l2.67-1.83,1.83,1.82-1.84,2.65c-.37.56-.42,1.27-.13,1.87.16.33.3.67.43,1.02.22.63.76,1.1,1.42,1.23l3.14.58v2.57s-3.14.58-3.14.58ZM49.81,36.49l-2.94-.59c-.15-.42-.32-.83-.52-1.23l1.67-2.49c.51-.76.41-1.77-.24-2.41l-1.85-1.84c-.37-.37-.86-.56-1.36-.56-.37,0-.74.1-1.06.32l-2.5,1.66c-.4-.19-.81-.36-1.24-.51l-.59-2.93c-.18-.89-.97-1.53-1.88-1.53h-2.61c-.91,0-1.7.64-1.88,1.53l-.59,2.93c-.43.15-.84.32-1.24.51l-2.5-1.66c-.33-.22-.7-.32-1.06-.32-.5,0-.99.19-1.36.56l-1.85,1.84c-.65.64-.75,1.65-.24,2.41l1.67,2.49c-.19.4-.37.81-.51,1.23l-2.94.59c-.9.18-1.54.96-1.54,1.87v2.6c0,.91.65,1.69,1.54,1.87l2.94.59c.15.42.32.83.51,1.23l-1.66,2.49c-.51.76-.41,1.77.24,2.41l1.85,1.84c.37.37.86.56,1.36.56.37,0,.74-.11,1.06-.32l2.5-1.66c.4.19.81.37,1.24.51l.59,2.92c.18.89.97,1.54,1.88,1.54h2.61c.91,0,1.7-.64,1.88-1.54l.59-2.92c.43-.15.84-.32,1.24-.51l2.5,1.66c.32.21.7.32,1.06.32.5,0,.99-.19,1.36-.56l1.85-1.84c.65-.64.75-1.65.24-2.41l-1.67-2.49c.19-.4.37-.81.52-1.23l2.94-.59c.9-.18,1.54-.96,1.54-1.87v-2.6c0-.91-.65-1.69-1.54-1.87Z" fill="#272525" fill-rule="evenodd"/>
    </g>
  </g>
  <g id="Rectangles">
    <rect x=".36" y=".36" width="71.28" height="71.28" fill="none"/>
  </g>
</svg>