<?xml version="1.0" encoding="UTF-8"?>
<svg xmlns="http://www.w3.org/2000/svg" viewBox="0 0 72 72">
    <path d="m54.77,56.62H17.35c-4.69,0-8.5-3.81-8.5-8.5v-23.67c0-4.69,3.81-8.5,8.5-8.5h37.42c4.69,0,8.5,3.81,8.5,8.5v23.67c0,4.69-3.81,8.5-8.5,8.5ZM17.35,18.95c-3.03,0-5.5,2.47-5.5,5.5v23.67c0,3.03,2.47,5.5,5.5,5.5h37.42c3.03,0,5.5-2.47,5.5-5.5v-23.67c0-3.03-2.47-5.5-5.5-5.5H17.35Z" stroke-width="0"/>
    <path d="m25.11,28.81h2.42l5.73,15.78h-2.34l-1.6-4.73h-6.24l-1.71,4.73h-2.19l5.94-15.78Zm3.51,9.31l-2.4-6.97-2.55,6.97h4.94Z" stroke-width="0"/>
    <path d="m39.31,42.82l9.7-12.13h-8.99v-1.88h11.75v1.84l-9.76,12.06h9.76v1.88h-12.46v-1.77Z" stroke-width="0"/>
    <rect x=".36" y=".36" width="71.28" height="71.28" fill="none" stroke-width="0"/>
</svg>