<?xml version="1.0" encoding="UTF-8"?>
<svg xmlns="http://www.w3.org/2000/svg" viewBox="0 0 72 72">
    <path d="M56.05,50.61c-.67-.48-1.61-.33-2.09.35-3.43,4.8-8.52,7.96-14.32,8.9-3.23.52-6.45.33-9.56-.57-8.15-2.35-14.29-9.31-15.65-17.72-.28-1.7-.34-3.42-.22-5.12l4.42,4.2c.6.57,1.55.55,2.12-.05.57-.6.55-1.55-.05-2.12l-7.04-6.69c-.6-.57-1.55-.55-2.12.05l-6.56,6.91c-.29.3-.42.69-.41,1.07s.17.76.47,1.05c.6.57,1.55.55,2.12-.05l4.05-4.27c-.11,1.83-.02,3.68.27,5.51,1.54,9.55,8.52,17.45,17.78,20.12,3.55,1.02,7.2,1.24,10.87.65,6.6-1.07,12.39-4.66,16.29-10.12.48-.67.32-1.61-.35-2.09Z"/>
    <path d="M15.48,21.58c.67.48,1.61.33,2.09-.35,3.43-4.8,8.52-7.96,14.32-8.9,3.23-.52,6.45-.33,9.56.57,8.15,2.35,14.29,9.31,15.65,17.72.28,1.7.34,3.42.22,5.12l-4.42-4.2c-.6-.57-1.55-.55-2.12.05-.57.6-.55,1.55.05,2.12l7.04,6.69c.6.57,1.55.55,2.12-.05l6.56-6.91c.29-.3.42-.69.41-1.07s-.17-.76-.47-1.05c-.6-.57-1.55-.55-2.12.05l-4.05,4.27c.11-1.83.02-3.68-.27-5.51-1.54-9.55-8.52-17.45-17.78-20.12-3.55-1.02-7.2-1.24-10.87-.65-6.6,1.07-12.39,4.66-16.29,10.12-.48.67-.32,1.61.35,2.09Z"/>
    <path d="M48.43,28.22c-.27-2.79-6.66-4.55-12.38-4.55s-12.15,1.76-12.38,4.55v16.15c0,2.93,6.57,4.86,12.38,4.86s12.38-1.93,12.38-4.86v-16.16h0ZM46.85,40.42c0,1.62-4.37,3.38-10.8,3.38s-10.8-1.8-10.8-3.38v-1.93c2.07,1.67,6.48,2.52,10.8,2.52s8.78-.86,10.8-2.52v1.93ZM46.85,36.46c0,1.62-4.37,3.38-10.8,3.38s-10.8-1.8-10.8-3.38v-1.98c2.07,1.66,6.48,2.52,10.8,2.52s8.78-.86,10.8-2.52v1.98ZM46.85,32.54c0,1.62-4.37,3.38-10.8,3.38s-10.8-1.8-10.8-3.38v-2.02c2.07,1.67,6.48,2.43,10.8,2.43s8.78-.85,10.8-2.52v2.12ZM36.05,25.12c6.43,0,10.8,1.89,10.8,3.51s-4.37,3.29-10.8,3.29-10.8-1.67-10.8-3.28,4.37-3.51,10.8-3.51ZM36.05,47.53c-6.43,0-10.8-2.02-10.8-3.6v-1.53c2.07,1.67,6.48,2.52,10.8,2.52s8.78-.86,10.8-2.52v1.53c0,1.62-4.36,3.6-10.8,3.6Z"/>
    <rect x=".36" y=".36" width="71.28" height="71.28" fill="none"/>
</svg>