<?xml version="1.0" encoding="UTF-8"?>
<svg xmlns="http://www.w3.org/2000/svg" viewBox="0 0 72 72">
  <path d="m54.33,17.38h-4.03l3.25-5.47-4.95-2.94-5,8.41h-26.69c-4.69,0-8.5,3.81-8.5,8.5v21.17c0,4.69,3.81,8.5,8.5,8.5h4.02l-2.62,4.41,4.95,2.94,4.37-7.35h26.71c4.69,0,8.5-3.81,8.5-8.5v-21.17c0-4.69-3.81-8.5-8.5-8.5ZM16.91,52.56c-3.03,0-5.5-2.47-5.5-5.5v-21.17c0-3.03,2.47-5.5,5.5-5.5h24.91l-11.16,18.78-3.57-9.85h-2.42l-5.94,15.78h2.19l1.71-4.73h6.24l.39,1.15-6.55,11.03h-5.8Zm11.28-13.92h-4.94l2.55-6.97,2.4,6.97Zm31.65,8.42c0,3.03-2.47,5.5-5.5,5.5h-24.93l12.69-21.36h6.48l-9.7,12.13v1.77h12.46v-1.88h-9.76l9.76-12.06v-1.84h-8.12l5.31-8.94h5.82c3.03,0,5.5,2.47,5.5,5.5v21.17Z" stroke-width="0"/>
  <rect x=".36" y=".36" width="71.28" height="71.28" fill="none" stroke-width="0"/>
</svg>