<?xml version="1.0" encoding="UTF-8"?>
<svg xmlns="http://www.w3.org/2000/svg" viewBox="0 0 72 72">
      <path d="m28.23,33.99c.77-.1,1.28-.42,1.54-.96.15-.3.22-.73.22-1.29,0-1.14-.4-1.97-1.21-2.49-.81-.52-1.97-.77-3.47-.77-1.74,0-2.98.47-3.7,1.42-.41.52-.67,1.3-.8,2.33h-3.12c.06-2.46.86-4.17,2.38-5.13,1.53-.96,3.29-1.44,5.31-1.44,2.33,0,4.23.45,5.69,1.34,1.45.89,2.17,2.28,2.17,4.16v11.45c0,.35.07.62.21.83.14.21.44.31.9.31.15,0,.32,0,.5-.03s.38-.05.59-.08v2.47c-.52.15-.92.24-1.19.28-.27.04-.64.06-1.11.06-1.15,0-1.99-.41-2.5-1.22-.27-.43-.46-1.05-.58-1.84-.68.89-1.66,1.66-2.93,2.32-1.27.65-2.68.98-4.21.98-1.84,0-3.35-.56-4.52-1.68-1.17-1.12-1.75-2.52-1.75-4.2,0-1.84.58-3.27,1.73-4.28,1.15-1.01,2.66-1.64,4.53-1.87l5.33-.67Zm-7.03,9.02c.71.56,1.54.83,2.5.83,1.17,0,2.31-.27,3.41-.81,1.86-.9,2.78-2.38,2.78-4.43v-2.69c-.41.26-.93.48-1.57.65-.64.17-1.27.3-1.89.37l-2.02.26c-1.21.16-2.12.41-2.73.76-1.03.58-1.55,1.51-1.55,2.78,0,.96.35,1.72,1.06,2.28Z" stroke-width="0"/>
      <path d="m51.28,26.94c.63.43,1.27,1.06,1.92,1.89v-2.5h3.08v18.07c0,2.52-.37,4.51-1.11,5.97-1.38,2.7-3.99,4.04-7.82,4.04-2.13,0-3.93-.48-5.38-1.44-1.45-.96-2.27-2.46-2.44-4.5h3.4c.16.89.48,1.58.96,2.06.75.74,1.93,1.11,3.54,1.11,2.55,0,4.21-.9,5-2.71.47-1.06.68-2.96.65-5.7-.67,1.01-1.47,1.77-2.4,2.26-.94.5-2.17.74-3.71.74-2.14,0-4.02-.76-5.63-2.29-1.61-1.53-2.41-4.05-2.41-7.58,0-3.33.81-5.92,2.43-7.79,1.62-1.87,3.58-2.8,5.87-2.8,1.55,0,2.91.38,4.07,1.15Zm.41,3.58c-1.01-1.19-2.29-1.78-3.86-1.78-2.34,0-3.94,1.1-4.8,3.3-.46,1.18-.68,2.72-.68,4.62,0,2.24.45,3.94,1.36,5.11.91,1.17,2.12,1.75,3.65,1.75,2.39,0,4.07-1.08,5.04-3.25.54-1.22.81-2.65.81-4.29,0-2.46-.5-4.29-1.51-5.47Z" stroke-width="0"/>
    <rect x=".36" y=".36" width="71.28" height="71.28" fill="none" stroke-width="0"/>
</svg>