<?xml version="1.0" encoding="UTF-8"?>
<svg xmlns="http://www.w3.org/2000/svg" viewBox="0 0 72 72">
    <path d="M55.98,50.61c-.67-.48-1.61-.33-2.09.35-3.43,4.8-8.52,7.96-14.32,8.9-3.23.52-6.45.33-9.56-.57-8.15-2.35-14.29-9.31-15.65-17.72-.28-1.7-.34-3.42-.22-5.12l4.42,4.2c.6.57,1.55.55,2.12-.05.57-.6.55-1.55-.05-2.12l-7.04-6.69c-.6-.57-1.55-.55-2.12.05l-6.56,6.91c-.29.3-.42.69-.41,1.07s.17.76.47,1.05c.6.57,1.55.55,2.12-.05l4.05-4.27c-.11,1.83-.02,3.68.27,5.51,1.54,9.55,8.52,17.45,17.78,20.12,3.55,1.02,7.2,1.24,10.87.65,6.6-1.07,12.39-4.66,16.29-10.12.48-.67.32-1.61-.35-2.09Z"/>
    <path d="M15.41,21.58c.67.48,1.61.33,2.09-.35,3.43-4.8,8.52-7.96,14.32-8.9,3.23-.52,6.45-.33,9.56.57,8.15,2.35,14.29,9.31,15.65,17.72.28,1.7.34,3.42.22,5.12l-4.42-4.2c-.6-.57-1.55-.55-2.12.05-.57.6-.55,1.55.05,2.12l7.04,6.69c.6.57,1.55.55,2.12-.05l6.56-6.91c.29-.3.42-.69.41-1.07s-.17-.76-.47-1.05c-.6-.57-1.55-.55-2.12.05l-4.05,4.27c.11-1.83.02-3.68-.27-5.51-1.54-9.55-8.52-17.45-17.78-20.12-3.55-1.02-7.2-1.24-10.87-.65-6.6,1.07-12.39,4.66-16.29,10.12-.48.67-.32,1.61.35,2.09Z"/>
      <path d="M43.43,46.75h-14.8c-1.66,0-3-1.34-3-3v-14.86c0-1.66,1.34-3,3-3h14.8c1.66,0,3,1.34,3,3v14.84c.01,1.66-1.32,3.01-2.97,3.02,0,0-.02,0-.03,0ZM28.63,27.89c-.55,0-1,.45-1,1v14.84c0,.55.45,1,1,1h14.85c.53-.04.95-.47.96-1v-14.84c0-.55-.45-1-1-1h-14.81Z"/>
      <path d="M36.13,39.78c-.41,0-.75-.34-.75-.75v-6c0-.41.34-.75.75-.75s.75.34.75.75v6c0,.41-.34.75-.75.75Z"/>
    <rect x=".36" y=".36" width="71.28" height="71.28" fill="none"/>
</svg>