<?xml version="1.0" encoding="UTF-8"?>
<svg xmlns="http://www.w3.org/2000/svg" viewBox="0 0 72 72">
    <rect x="24.32" y="42.52" width="2.25" height="2.34" stroke-width="0"/>
    <path d="m53.86,17.38h-3.31l3.25-5.47-4.95-2.94-5,8.41h-27.42v3h25.63l-19.11,32.17h-6.52v3h4.74l-2.62,4.41,4.95,2.94,4.37-7.35h25.98c4.69,0,8.5-3.81,8.5-8.5v-21.17c0-4.69-3.81-8.5-8.5-8.5Zm5.5,29.67c0,3.03-2.47,5.5-5.5,5.5h-24.2l5.12-8.62v.93h2.25v-2.34h-1.41l6.87-11.56h7.17l-9.7,12.13v1.77h12.46v-1.88h-9.76l9.76-12.06v-1.84h-8.82l5.17-8.7h5.09c3.03,0,5.5,2.47,5.5,5.5v21.17Z" stroke-width="0"/>
    <rect x=".36" y=".36" width="71.28" height="71.28" fill="none" stroke-width="0"/>
</svg>