<?xml version="1.0" encoding="UTF-8"?>
<svg xmlns="http://www.w3.org/2000/svg" viewBox="0 0 72 72">
      <path d="m23.58,18.76h4.17l9.89,27.26h-4.04l-2.76-8.16h-10.78l-2.95,8.16h-3.79l10.26-27.26Zm6.07,16.09l-4.14-12.04-4.4,12.04h8.54Z" stroke-width="0"/>
      <path d="m53.13,26.94c.63.43,1.27,1.06,1.92,1.89v-2.5h3.08v18.07c0,2.52-.37,4.51-1.11,5.97-1.38,2.7-3.99,4.04-7.82,4.04-2.13,0-3.93-.48-5.38-1.44-1.45-.96-2.27-2.46-2.44-4.5h3.4c.16.89.48,1.58.96,2.06.75.74,1.93,1.11,3.54,1.11,2.55,0,4.21-.9,5-2.71.47-1.06.68-2.96.65-5.7-.67,1.01-1.47,1.77-2.4,2.26-.94.5-2.17.74-3.71.74-2.14,0-4.02-.76-5.63-2.29-1.61-1.53-2.41-4.05-2.41-7.58,0-3.33.81-5.92,2.43-7.79,1.62-1.87,3.58-2.8,5.87-2.8,1.55,0,2.91.38,4.07,1.15Zm.41,3.58c-1.01-1.19-2.29-1.78-3.86-1.78-2.34,0-3.94,1.1-4.8,3.3-.46,1.18-.68,2.72-.68,4.62,0,2.24.45,3.94,1.36,5.11.91,1.17,2.12,1.75,3.65,1.75,2.39,0,4.07-1.08,5.04-3.25.54-1.22.81-2.65.81-4.29,0-2.46-.5-4.29-1.51-5.47Z" stroke-width="0"/>
    <rect x=".36" y=".36" width="71.28" height="71.28" fill="none" stroke-width="0"/>
</svg>