<?xml version="1.0" encoding="UTF-8"?>
<svg xmlns="http://www.w3.org/2000/svg" viewBox="0 0 72 72">
   <rect x="39.96" y="42.77" width="2.25" height="2.34" stroke-width="0"/>
   <rect x="45.2" y="42.77" width="2.25" height="2.34" stroke-width="0"/>
   <path d="m54.85,20.38v-3h-4.81l3.25-5.47-4.95-2.94-5,8.41h-25.92c-4.69,0-8.5,3.81-8.5,8.5v21.17c0,4.69,3.81,8.5,8.5,8.5h3.24l-2.62,4.41,4.95,2.94,4.37-7.35h27.48v-3h-25.7l5.58-9.4v1.95h2.25v-2.34h-2.02l13.3-22.38h6.59Zm-24.7,19.22l-3.73-10.27h-2.42l-5.94,15.78h2.19l1.71-4.73h6.24l.54,1.59-6.29,10.59h-5.02c-3.03,0-5.5-2.47-5.5-5.5v-21.17c0-3.03,2.47-5.5,5.5-5.5h24.13l-11.41,19.22Zm-2.63-.96h-4.94l2.55-6.97,2.4,6.97Z" stroke-width="0"/>
   <rect x=".36" y=".36" width="71.28" height="71.28" fill="none" stroke-width="0"/>
</svg>