<?xml version="1.0" encoding="UTF-8"?>
<svg xmlns="http://www.w3.org/2000/svg" viewBox="0 0 72 72">
    <path d="M49.55,48.81h-26.2c-.27,0-.53-.11-.72-.3s-.29-.46-.28-.73c.04-1.14.16-4.9.23-5.39l.02-.11c.07-.52.22-1.59,1.59-2.37,1.46-.82,2.86-1.44,3.99-1.93,1.07-.47,1.99-.87,2.53-1.26.28-.45.7-2.26.65-2.83-.09-.36-1.04-1.63-1.35-2.05-.16-.22-.29-.39-.36-.49-.4-.59-.92-1.51-.92-2.6,0-.49.05-.73.11-.98.04-.16.07-.29.07-.74v-.19c0-1,0-1.79.6-4.26.29-1.18,1.23-2.49,2.23-3.13.71-.45,1.12-.45,1.66-.4.39.04,1.05.1,2.83-.3,1.84-.41,3.94.58,5.18,1.55,1.24.98,1.94,2.1,1.96,3.18.03,1.51.26,2.58.45,3.44.13.58.23,1.03.23,1.47,0,1.12-.56,2.39-.92,2.92l-.1.15c-1.33,1.96-1.49,2.52-1.51,2.64-.02.43.36,2.09.62,2.54.58.43,1.62.9,2.82,1.44,1.12.5,2.38,1.08,3.73,1.81,1.36.74,1.53,1.89,1.62,2.44.08.54.21,4.3.24,5.44,0,.27-.09.53-.28.73s-.45.3-.72.3ZM24.38,46.81h24.14c-.07-1.96-.14-3.85-.18-4.12-.07-.47-.12-.76-.6-1.03-1.29-.7-2.52-1.26-3.6-1.75-1.39-.63-2.49-1.12-3.24-1.7h0c-.99-.76-1.39-3.7-1.36-4.23.04-.71.56-1.73,1.85-3.64l.09-.14c.2-.31.59-1.2.59-1.82,0-.22-.08-.6-.18-1.04-.2-.9-.47-2.12-.5-3.83,0-.35-.38-1-1.2-1.64-1.14-.9-2.59-1.38-3.51-1.17-2.09.47-2.95.39-3.46.34-.08,0-.14-.02-.2-.01,0,0-.06.02-.2.11-.57.36-1.19,1.24-1.35,1.92-.55,2.23-.55,2.85-.55,3.77v.19c0,.64-.06.92-.12,1.21-.03.14-.05.23-.05.52,0,.54.31,1.08.59,1.49.06.08.16.23.3.4,1.09,1.45,1.69,2.37,1.75,3.08.07.79-.41,3.8-1.37,4.53-.72.55-1.73.99-3.01,1.55-1.15.5-2.44,1.07-3.81,1.84-.51.29-.54.52-.6.9l-.02.14c-.03.26-.11,2.15-.18,4.11ZM30.69,36.76h0ZM41.98,36.55s0,0,0,0c0,0,0,0,0,0Z"/>
    <path d="M56.45,50.61c-.67-.48-1.61-.33-2.09.35-3.43,4.8-8.52,7.96-14.32,8.9-3.23.52-6.45.33-9.56-.57-8.15-2.35-14.29-9.31-15.65-17.72-.28-1.7-.34-3.42-.22-5.12l4.42,4.2c.6.57,1.55.55,2.12-.05.57-.6.55-1.55-.05-2.12l-7.04-6.69c-.6-.57-1.55-.55-2.12.05l-6.56,6.91c-.29.3-.42.69-.41,1.07s.17.76.47,1.05c.6.57,1.55.55,2.12-.05l4.05-4.27c-.11,1.83-.02,3.68.27,5.51,1.54,9.55,8.52,17.45,17.78,20.12,3.55,1.02,7.2,1.24,10.87.65,6.6-1.07,12.39-4.66,16.29-10.12.48-.67.32-1.61-.35-2.09Z"/>
    <path d="M15.88,21.58c.67.48,1.61.33,2.09-.35,3.43-4.8,8.52-7.96,14.32-8.9,3.23-.52,6.45-.33,9.56.57,8.15,2.35,14.29,9.31,15.65,17.72.28,1.7.34,3.42.22,5.12l-4.42-4.2c-.6-.57-1.55-.55-2.12.05-.57.6-.55,1.55.05,2.12l7.04,6.69c.6.57,1.55.55,2.12-.05l6.56-6.91c.29-.3.42-.69.41-1.07s-.17-.76-.47-1.05c-.6-.57-1.55-.55-2.12.05l-4.05,4.27c.11-1.83.02-3.68-.27-5.51-1.54-9.55-8.52-17.45-17.78-20.12-3.55-1.02-7.2-1.24-10.87-.65-6.6,1.07-12.39,4.66-16.29,10.12-.48.67-.32,1.61.35,2.09Z"/>
    <rect x=".36" y=".36" width="71.28" height="71.28" fill="none"/>
</svg>