<?xml version="1.0" encoding="UTF-8"?>
<svg xmlns="http://www.w3.org/2000/svg" viewBox="0 0 72 72">
    <path d="M55.91,50.61c-.67-.48-1.61-.33-2.09.35-3.43,4.8-8.52,7.96-14.32,8.9-3.23.52-6.45.33-9.56-.57-8.15-2.35-14.29-9.31-15.65-17.72-.28-1.7-.34-3.42-.22-5.12l4.42,4.2c.6.57,1.55.55,2.12-.05.57-.6.55-1.55-.05-2.12l-7.04-6.69c-.6-.57-1.55-.55-2.12.05l-6.56,6.91c-.29.3-.42.69-.41,1.07s.17.76.47,1.05c.6.57,1.55.55,2.12-.05l4.05-4.27c-.11,1.83-.02,3.68.27,5.51,1.54,9.55,8.52,17.45,17.78,20.12,3.55,1.02,7.2,1.24,10.87.65,6.6-1.07,12.39-4.66,16.29-10.12.48-.67.32-1.61-.35-2.09Z"/>
    <path d="M15.34,21.58c.67.48,1.61.33,2.09-.35,3.43-4.8,8.52-7.96,14.32-8.9,3.23-.52,6.45-.33,9.56.57,8.15,2.35,14.29,9.31,15.65,17.72.28,1.7.34,3.42.22,5.12l-4.42-4.2c-.6-.57-1.55-.55-2.12.05-.57.6-.55,1.55.05,2.12l7.04,6.69c.6.57,1.55.55,2.12-.05l6.56-6.91c.29-.3.42-.69.41-1.07s-.17-.76-.47-1.05c-.6-.57-1.55-.55-2.12.05l-4.05,4.27c.11-1.83.02-3.68-.27-5.51-1.54-9.55-8.52-17.45-17.78-20.12-3.55-1.02-7.2-1.24-10.87-.65-6.6,1.07-12.39,4.66-16.29,10.12-.48.67-.32,1.61.35,2.09Z"/>
    <path d="M48.9,26.17h0l-4.69-4.32c-.27-.24-.61-.38-.96-.38h-10.28c-.79,0-1.43.64-1.43,1.43v2.19l-.33-.27c-.2-.18-.46-.29-.74-.29h-7.49c-.6,0-1.08.49-1.08,1.08v14.68c0,.6.48,1.08,1.08,1.08h3.64v6.81c0,.67.55,1.23,1.23,1.23h13.47c.68,0,1.22-.55,1.22-1.23v-3.73h5.39c.79,0,1.43-.64,1.43-1.43v-15.82c0-.4-.17-.78-.46-1.05ZM26.62,30.08v10.32h-3.64s-.08-.04-.08-.08v-14.68s.04-.08.08-.08h7.49s.04.01.09.05l.98.79v2.48h-3.69c-.67,0-1.23.55-1.23,1.23ZM41.54,48.2h0c0,.12-.1.23-.22.23h-13.47c-.12,0-.23-.1-.23-.23v-18.12c0-.12.1-.23.23-.23h3.69v13.18c0,.79.64,1.43,1.43,1.43h8.58v3.73ZM48.11,43.03h0c0,.11-.08.19-.18.19h-14.97c-.1,0-.18-.08-.18-.18v-20.14c0-.1.08-.18.18-.18h10.28s.09.01.12.04l4.69,4.32s.06.08.06.13v15.82Z" fill="#272525"/>
    <rect x=".36" y=".36" width="71.28" height="71.28" fill="none"/>
</svg>