<?xml version="1.0" encoding="UTF-8"?>
<svg xmlns="http://www.w3.org/2000/svg" viewBox="0 0 72 72">
    <path d="M56.12,50.61c-.67-.48-1.61-.33-2.09.35-3.43,4.8-8.52,7.96-14.32,8.9-3.23.52-6.45.33-9.56-.57-8.15-2.35-14.29-9.31-15.65-17.72-.28-1.7-.34-3.42-.22-5.12l4.42,4.2c.6.57,1.55.55,2.12-.05.57-.6.55-1.55-.05-2.12l-7.04-6.69c-.6-.57-1.55-.55-2.12.05l-6.56,6.91c-.29.3-.42.69-.41,1.07s.17.76.47,1.05c.6.57,1.55.55,2.12-.05l4.05-4.27c-.11,1.83-.02,3.68.27,5.51,1.54,9.55,8.52,17.45,17.78,20.12,3.55,1.02,7.2,1.24,10.87.65,6.6-1.07,12.39-4.66,16.29-10.12.48-.67.32-1.61-.35-2.09Z"/>
    <path d="M15.55,21.58c.67.48,1.61.33,2.09-.35,3.43-4.8,8.52-7.96,14.32-8.9,3.23-.52,6.45-.33,9.56.57,8.15,2.35,14.29,9.31,15.65,17.72.28,1.7.34,3.42.22,5.12l-4.42-4.2c-.6-.57-1.55-.55-2.12.05-.57.6-.55,1.55.05,2.12l7.04,6.69c.6.57,1.55.55,2.12-.05l6.56-6.91c.29-.3.42-.69.41-1.07s-.17-.76-.47-1.05c-.6-.57-1.55-.55-2.12.05l-4.05,4.27c.11-1.83.02-3.68-.27-5.51-1.54-9.55-8.52-17.45-17.78-20.12-3.55-1.02-7.2-1.24-10.87-.65-6.6,1.07-12.39,4.66-16.29,10.12-.48.67-.32,1.61.35,2.09Z"/>
    <path d="M52.24,40.12c-.05-.67-.41-1.18-.92-1.48-.77-.41-1.48-.77-2.1-1.08-.61-.26-1.23-.61-1.84-.97-.26-.51-.36-1.08-.41-1.69,0-.1.1-.46.97-1.69l.05-.1c.31-.51.51-1.13.56-1.74,0-.26-.05-.51-.15-.72-.05-.1-.05-.15-.05-.26-.05-.2-.05-.36-.1-.46-.1-.56-.15-1.08-.15-1.64-.1-.77-.51-1.48-1.18-1.89-.77-.56-2.05-1.18-3.12-.97-.56.15-1.18.2-1.79.2-.36-.05-.67.05-.97.26-.67.46-1.13,1.13-1.33,1.89-.26.87-.36,1.74-.36,2.61v.1c0,.15,0,.36-.05.51-.05.2-.05.41-.05.56.05.56.2,1.13.56,1.54l.2.31c.36.41.61.87.87,1.33-.05.61-.15,1.23-.41,1.84-.1.1-.77.41-1.28.72-.77.41-1.64.87-2.2,1.18-.56-.2-1.08-.51-1.54-.82-.31-.72-.46-1.48-.51-2.25,0-.1.1-.56,1.28-2.25l.1-.1c.41-.67.67-1.43.72-2.25,0-.31-.05-.61-.15-.92-.05-.1-.1-.2-.1-.31-.05-.26-.1-.46-.1-.61-.15-.72-.2-1.43-.15-2.1,0-.82-.56-1.69-1.54-2.46-.97-.77-2.61-1.54-4.1-1.23-.77.2-1.59.31-2.36.26-.41-.1-.87,0-1.23.26-.87.56-1.48,1.43-1.74,2.46-.31,1.13-.51,2.25-.46,3.43v.15c0,.2,0,.41-.05.67s-.1.51-.1.77c.05.72.31,1.43.72,2.05.05.05.15.2.31.41.46.56.82,1.13,1.13,1.74-.05.82-.2,1.69-.56,2.46-.67.41-1.38.77-2.15,1.08-1.13.46-2.2.97-3.23,1.54-.72.36-1.18,1.02-1.23,1.79v.1c-.13.49-.23,3.79-.28,4.81,0,.36.26.67.61.67h21.32c.15,0,.36-.05.46-.2.1-.1.2-.31.15-.46-.05-1.02-.1-4.35-.2-4.76-.05-.77-.51-1.48-1.23-1.84-.97-.51-1.89-.97-2.71-1.33.46-.26,1.02-.56,1.54-.82s.97-.51,1.43-.82c.51-.41.87-2.2.82-2.76-.05-.41-.41-.97-1.08-1.84l-.2-.41c-.2-.31-.36-.61-.41-.97,0-.1,0-.26.05-.36.05-.26.1-.46.05-.72v-.1c0-.82.1-1.59.36-2.41.15-.51.46-.97.92-1.28.1-.05.2-.1.31-.05.72.05,1.43,0,2.15-.2.82-.05,1.64.2,2.3.77.41.26.67.67.77,1.13,0,.61.05,1.23.15,1.84,0,.1.05.2.05.41,0,.15.05.36.15.51.05.1.05.2.05.31-.05.41-.15.82-.41,1.18l-.05.1c-.77,1.18-1.13,1.79-1.13,2.2,0,.31.2,2.15.82,2.56.61.41,1.28.82,2,1.13.61.31,1.28.61,2.05,1.02.26.1.41.36.41.67v.05c0,.15.1,1.59.1,2.97h-5.73c-.31,0-.51.2-.51.51s.2.51.51.51h6.3c.15,0,.26-.05.36-.15s.15-.26.15-.36c0-.82-.1-3.38-.1-3.69ZM40.31,41.65c.36.2.56.56.56.97.05.26.1,2.1.15,3.89h-20.02c.05-1.84.1-3.84.15-4.04v-.1c0-.41.26-.72.61-.87,1.02-.56,2.05-1.08,3.12-1.48.87-.31,1.64-.72,2.41-1.23.72-.51,1.08-2.92,1.02-3.53-.05-.51-.51-1.28-1.38-2.41l-.26-.31c-.31-.36-.46-.82-.51-1.33,0-.15,0-.31.05-.46.05-.31.1-.61.1-.92v-.15c0-1.08.15-2.1.46-3.12.2-.67.61-1.28,1.18-1.64.1-.1.26-.15.41-.1.92.05,1.84,0,2.76-.26.82-.2,2.05.2,3.02.97.51.36.87.87,1.02,1.48,0,.82.05,1.59.2,2.36.05.15.05.31.1.51.05.26.1.46.2.67.05.15.05.26.05.41-.05.56-.2,1.08-.51,1.59l-.1.1c-1.02,1.54-1.43,2.36-1.48,2.87,0,.41.31,2.76,1.02,3.33.82.56,1.74,1.02,2.66,1.38.87.41,1.89.87,2.97,1.43Z"/>
    <rect x=".36" y=".36" width="71.28" height="71.28" fill="none"/>
</svg>