<?xml version="1.0" encoding="UTF-8"?>
<svg xmlns="http://www.w3.org/2000/svg" viewBox="0 0 72 72">
  <defs>
    <style>
      .cls-1 {
        fill: none;
      }

      .cls-2 {
        fill: black;
      }
    </style>
  </defs>
  <g id="SVG_icons" data-name="SVG icons">
    <path class="cls-2" d="M49.98,19.2c.59,0,1.07.48,1.07,1.07v30.38l6.7-6.7c.42-.42,1.09-.42,1.51,0,.42.42.42,1.09,0,1.51l-8.52,8.52c-.42.42-1.09.42-1.51,0l-8.52-8.52c-.42-.42-.42-1.09,0-1.51.42-.42,1.09-.42,1.51,0l6.7,6.7v-30.38c0-.59.48-1.07,1.07-1.07Z"/>
    <path d="M35.3,45.76c0-4.57-3.72-8.29-8.29-8.29s-8.29,3.72-8.29,8.29,3.72,8.29,8.29,8.29c.02,0,.04,0,.06,0l-4.87,6.7c-.55.76-.38,1.82.38,2.37.3.22.65.32,1,.32.53,0,1.04-.24,1.38-.7l8.75-12.05c.08-.11.14-.24.2-.36.91-1.36,1.4-2.93,1.4-4.58ZM22.12,45.76c0-2.7,2.19-4.89,4.89-4.89s4.89,2.19,4.89,4.89c0,1.05-.33,2.05-.95,2.89-.93,1.27-2.37,2-3.94,2-2.7,0-4.89-2.19-4.89-4.89Z"/>
    <path d="M27.01,8.41c-4.57,0-8.29,3.72-8.29,8.29v8.38c0,4.57,3.72,8.29,8.29,8.29,2.63,0,5.12-1.27,6.68-3.38,1.05-1.43,1.61-3.13,1.61-4.9v-8.38c0-4.57-3.72-8.29-8.29-8.29ZM27.01,11.81c1.32,0,2.52.53,3.4,1.38l-8.28,11.4v-7.9c0-2.7,2.19-4.89,4.89-4.89ZM30.95,27.97c-.93,1.27-2.37,2-3.94,2-1.37,0-2.61-.57-3.5-1.49l8.39-11.55v8.15c0,1.05-.33,2.05-.95,2.89Z"/>
  </g>
  <g id="Rectangles">
    <rect class="cls-1" x=".36" y=".36" width="71.28" height="71.28"/>
  </g>
</svg>