<?xml version="1.0" encoding="UTF-8"?>
<svg xmlns="http://www.w3.org/2000/svg" viewBox="0 0 72 72">
  <defs>
    <style>
      .cls-1 {
        fill: none;
      }

      .cls-2 {
        fill: black;
      }
    </style>
  </defs>
  <g id="SVG_icons" data-name="SVG icons">
    <path class="cls-2" d="M15.72,23.02c-.45,0-.89-.17-1.23-.51l-4.85-4.85c-.68-.68-.68-1.78,0-2.46.68-.68,1.78-.68,2.46,0l3.62,3.62,7.78-7.78c.68-.68,1.78-.68,2.46,0,.68.68.68,1.78,0,2.46l-9.01,9.01c-.34.34-.79.51-1.23.51Z"/>
    <path class="cls-2" d="M19.61,36.37l3.85-3.85c.68-.68.68-1.78,0-2.46-.68-.68-1.78-.68-2.46,0l-3.85,3.85-3.85-3.85c-.68-.68-1.78-.68-2.46,0-.68.68-.68,1.78,0,2.46l3.85,3.85-3.85,3.85c-.68.68-.68,1.78,0,2.46.34.34.79.51,1.23.51s.89-.17,1.23-.51l3.85-3.85,3.85,3.85c.34.34.79.51,1.23.51s.89-.17,1.23-.51c.68-.68.68-1.78,0-2.46l-3.85-3.85Z"/>
    <path class="cls-2" d="M15.72,60.36c-.45,0-.89-.17-1.23-.51l-4.85-4.85c-.68-.68-.68-1.78,0-2.46.68-.68,1.78-.68,2.46,0l3.62,3.62,7.78-7.78c.68-.68,1.78-.68,2.46,0,.68.68.68,1.78,0,2.46l-9.01,9.01c-.34.34-.79.51-1.23.51Z"/>
    <path class="cls-2" d="M60.71,19.71h-28.11c-1.24,0-2.25-1.01-2.25-2.25s1.01-2.25,2.25-2.25h28.11c1.24,0,2.25,1.01,2.25,2.25s-1.01,2.25-2.25,2.25Z"/>
    <path class="cls-2" d="M60.71,38.25h-28.11c-1.24,0-2.25-1.01-2.25-2.25s1.01-2.25,2.25-2.25h28.11c1.24,0,2.25,1.01,2.25,2.25s-1.01,2.25-2.25,2.25Z"/>
    <path class="cls-2" d="M60.71,57.5h-28.11c-1.24,0-2.25-1.01-2.25-2.25s1.01-2.25,2.25-2.25h28.11c1.24,0,2.25,1.01,2.25,2.25s-1.01,2.25-2.25,2.25Z"/>
  </g>
  <g id="Rectangles">
    <rect class="cls-1" x=".51" y=".36" width="71.28" height="71.28"/>
  </g>
</svg>