<svg xmlns="http://www.w3.org/2000/svg" version="1.1" viewBox="0 0 72 72">
    <path d="M50.8,47.1h-29.9c-.5,0-1-.5-1-1s.5-1,1-1h29.9c.5,0,1,.5,1,1s-.5,1-1,1Z"/>
    <path d="M50.8,51.6h-29.9c-.5,0-1-.5-1-1s.5-1,1-1h29.9c.5,0,1,.5,1,1s-.5,1-1,1Z"/>
    <path d="M50.8,56h-29.9c-.5,0-1-.5-1-1s.5-1,1-1h29.9c.5,0,1,.5,1,1s-.5,1-1,1Z"/>
    <path d="M51.4,12.6h-4.5c-1.8-4.3-6-7.4-11-7.4s-9.2,3.1-11,7.4h-4.6c-5.7,0-9.5,3.8-9.5,9.5v33.1c0,5.7,3.8,9.5,9.5,9.5h31c5.7,0,9.5-3.8,9.5-9.5V22.1c0-5.7-3.8-9.5-9.5-9.5h0ZM36,7.9c5.1,0,9.2,4.1,9.2,9.2s-4.1,9.2-9.2,9.2-9.2-4.1-9.2-9.2,4.1-9.2,9.2-9.2ZM58,55.2c0,4-2.5,6.5-6.5,6.5h-31c-4,0-6.5-2.5-6.5-6.5V22.1c0-4,2.5-6.5,6.5-6.5h3.8c0,.5-.1,1-.1,1.4,0,2.7.9,5.2,2.5,7.2l-6.4,14.3c-.1.3,0,.6.2.8.2.2.6.2.8,0l5.5-3,1.3,6.1c0,.3.3.5.6.5h0c.3,0,.5-.2.6-.4l6.2-13.8c.1,0,.3,0,.4,0h0l6.2,13.8c.1.3.4.4.7.4h0c.3,0,.5-.2.6-.5l1.4-6.1,5.4,3.1c.3.2.6.1.8,0,.2-.2.3-.5.2-.8l-6.2-14c1.7-2,2.7-4.7,2.7-7.5s0-1,0-1.4h3.7c4,0,6.5,2.5,6.5,6.5v33.1h0Z"/>
</svg>