<svg xmlns="http://www.w3.org/2000/svg" version="1.1" viewBox="0 0 72 72">
  <path d="M46.6,57.8l-4.4-9.8c1.1-1.4,1.8-3.1,1.8-5,0-4.4-3.6-8-8-8s-8,3.6-8,8,.6,3.5,1.6,4.8l-4.5,10c0,.2,0,.4.1.6.2,0,.4.2.6,0l3.8-2.1.9,4.2c0,.2.2.4.4.4h0c.2,0,.4,0,.5-.3l4.3-9.7h.2l4.3,9.7c0,.2.2.3.5.3h0c.2,0,.4-.2.4-.4l1-4.2,3.8,2.1h.6c.2,0,.2-.4,0-.6h0ZM36,36.5c3.6,0,6.5,2.9,6.5,6.5s-2.9,6.5-6.5,6.5-6.5-2.9-6.5-6.5,2.9-6.5,6.5-6.5Z"/>
  <path d="M51,65.5h-9.6v-3h9.6c.7,0,1.2-.5,1.2-1.2V10.5c0-.6-.5-1.2-1.2-1.2h-30.4c-.6,0-1.2.5-1.2,1.2v50.8c0,.7.5,1.2,1.2,1.2h9.2v3h-9.2c-2.3,0-4.2-1.9-4.2-4.2V10.5c0-2.3,1.9-4.2,4.2-4.2h30.4c2.3,0,4.2,1.9,4.2,4.2v50.8c0,2.3-1.9,4.2-4.2,4.2h0Z"/>
  <path d="M41,17.7h-10.2c-.5,0-1-.5-1-1s.5-1,1-1h10.2c.5,0,1,.5,1,1s-.5,1-1,1Z"/>
  <path d="M41,24.8h-10.2c-.5,0-1-.5-1-1s.5-1,1-1h10.2c.5,0,1,.5,1,1s-.5,1-1,1Z"/>
</svg>