<svg xmlns="http://www.w3.org/2000/svg" viewBox="0 0 72 72">
  <path d="M63.04,57.51c-.23-.38-.63-.6-1.07-.6h-7.93c-.06-.34-.11-.68-.13-1.04-.18-3.7-.06-12.27.07-20.55.12-8.19.23-15.93.07-19.29-.21-4.25-3-7.57-6.22-7.42H12.8s-.07.02-.1.02c-.11,0-.22-.02-.33-.02-2.55,0-4.6,1.83-5.34,4.77-.09.37,0,.77.23,1.07.24.3.6.48.99.48h7.34c.12,0,.23-.02.34-.05.09.4.15.82.17,1.26.16,3.28.04,11.35-.07,19.15-.12,8.32-.25,16.92-.06,20.7.1,1.98.75,3.83,1.85,5.21,1.13,1.43,2.61,2.2,4.18,2.2.08,0,.16,0,.23,0h35.35c2.14-.11,3.89-1.59,5.51-4.66.2-.39.19-.85-.04-1.23ZM10.11,12.43c.45-.7,1.16-1.33,2.26-1.33.91,0,1.76.5,2.42,1.33h-4.68ZM25.41,57.57c-1.48,2.81-2.51,3.27-3.25,3.33h-.08s-.08,0-.12,0c-.78-.01-1.55-.46-2.19-1.26-.77-.97-1.23-2.31-1.31-3.78-.18-3.7-.06-12.26.06-20.54.12-8.2.23-15.95.07-19.31-.09-1.91-.72-3.62-1.69-4.92h30.98c1.85-.09,3.53,2.22,3.67,5.04.16,3.28.04,11.34-.07,19.14-.12,8.32-.25,16.93-.06,20.71.01.31.06.61.1.92h-25.01c-.46,0-.89.26-1.11.67ZM57.51,60.9h-31.22c.36-.48.68-.99.97-1.49h32.46c-1.12,1.44-1.93,1.48-2.2,1.49Z"/>
  <path d="M32.59,31.04c-.26,0-.51-.1-.71-.29l-6.23-6.23c-.39-.39-.39-1.02,0-1.41s1.02-.39,1.41,0l5.53,5.53,10.88-10.88c.39-.39,1.02-.39,1.41,0s.39,1.02,0,1.41l-11.59,11.59c-.2.2-.45.29-.71.29Z"/>
  <path d="M43.99,37.97h-17.46c-.55,0-1-.45-1-1s.45-1,1-1h17.46c.55,0,1,.45,1,1s-.45,1-1,1Z"/>
  <path d="M43.99,43.46h-17.46c-.55,0-1-.45-1-1s.45-1,1-1h17.46c.55,0,1,.45,1,1s-.45,1-1,1Z"/>
  <path d="M43.99,48.94h-17.46c-.55,0-1-.45-1-1s.45-1,1-1h17.46c.55,0,1,.45,1,1s-.45,1-1,1Z"/>
</svg>