<?xml version="1.0" encoding="UTF-8"?>
<svg id="Layer_1" data-name="Layer 1" xmlns="http://www.w3.org/2000/svg" width="72" height="72" viewBox="0 0 72 72">
  <path d="M36,7.79c-15.56,0-28.21,12.66-28.21,28.21s12.66,28.21,28.21,28.21,28.21-12.66,28.21-28.21S51.56,7.79,36,7.79ZM23.09,36c0-2.4.18-4.73.5-6.95h11.15v14.17h-11.11c-.35-2.3-.54-4.72-.54-7.21ZM37.25,10.41c4.81.97,8.93,7.46,10.71,16.13h-10.71V10.41ZM34.75,10.41v16.13h-10.71c1.78-8.68,5.91-15.16,10.71-16.13ZM34.75,45.71v15.87c-4.76-.96-8.85-7.33-10.66-15.87h10.66ZM37.25,61.58v-15.87h10.66c-1.81,8.55-5.9,14.91-10.66,15.87ZM37.25,43.21v-14.17h11.15c.33,2.22.5,4.55.5,6.95s-.19,4.91-.54,7.21h-11.11ZM50.95,29.05h9.8c.62,2.21.96,4.54.96,6.95s-.37,4.92-1.04,7.21h-9.76c.32-2.3.49-4.71.49-7.21s-.16-4.74-.46-6.95ZM59.9,26.55h-9.36c-1.22-6.45-3.65-11.77-6.83-15.08,7.39,2.33,13.35,7.92,16.19,15.08ZM28.28,11.47c-3.18,3.31-5.62,8.62-6.83,15.08h-9.36c2.84-7.16,8.8-12.75,16.19-15.08ZM11.25,29.05h9.8c-.3,2.22-.46,4.54-.46,6.95s.17,4.92.49,7.21h-9.76c-.67-2.29-1.04-4.71-1.04-7.21s.34-4.74.96-6.95ZM12.2,45.71h9.3c1.23,6.34,3.65,11.55,6.79,14.81-7.3-2.3-13.21-7.78-16.09-14.81ZM43.72,60.53c3.14-3.26,5.55-8.48,6.78-14.81h9.3c-2.88,7.03-8.78,12.51-16.09,14.81Z"/>
</svg>