<?xml version="1.0" encoding="UTF-8"?>
<svg xmlns="http://www.w3.org/2000/svg" viewBox="0 0 72 72">
  <defs>
    <style>
      .cls-1 {
        fill: none;
      }

      .cls-2 {
        fill: black;
      }
    </style>
  </defs>
  <g id="SVG_icons" data-name="SVG icons">
    <path class="cls-2" d="M50.75,47.13h-29.87c-.55,0-1-.45-1-1s.45-1,1-1h29.87c.55,0,1,.45,1,1s-.45,1-1,1Z"/>
    <path class="cls-2" d="M50.75,51.56h-29.87c-.55,0-1-.45-1-1s.45-1,1-1h29.87c.55,0,1,.45,1,1s-.45,1-1,1Z"/>
    <path class="cls-2" d="M50.75,55.99h-29.87c-.55,0-1-.45-1-1s.45-1,1-1h29.87c.55,0,1,.45,1,1s-.45,1-1,1Z"/>
    <path class="cls-2" d="M51.41,12.6h-4.49c-1.76-4.33-6.01-7.39-10.96-7.39s-9.2,3.06-10.96,7.39h-4.56c-5.71,0-9.54,3.82-9.54,9.5v33.05c0,5.68,3.84,9.5,9.54,9.5h30.96c5.71,0,9.54-3.82,9.54-9.5V22.1c0-5.68-3.84-9.5-9.54-9.5ZM35.96,7.86c5.06,0,9.17,4.12,9.17,9.17s-4.12,9.17-9.17,9.17-9.17-4.12-9.17-9.17,4.12-9.17,9.17-9.17ZM57.95,55.15c0,4.01-2.51,6.5-6.54,6.5h-30.96c-4.04,0-6.54-2.49-6.54-6.5V22.1c0-4.01,2.51-6.5,6.54-6.5h3.78c-.06.47-.1.95-.1,1.44,0,2.71.93,5.2,2.46,7.2l-6.42,14.31c-.12.28-.06.6.17.81.22.21.56.25.82.1l5.51-3.05,1.33,6.11c.07.3.31.52.62.55.02,0,.05,0,.07,0,.28,0,.53-.16.65-.42l6.2-13.81c.14,0,.28.02.42.02,0,0,.02,0,.03,0l6.15,13.8c.12.26.37.42.65.42.02,0,.05,0,.07,0,.3-.03.55-.25.62-.55l1.4-6.14,5.44,3.08c.27.15.6.11.83-.09.23-.21.29-.53.17-.81l-6.24-14c1.7-2.05,2.72-4.67,2.72-7.54,0-.49-.04-.97-.1-1.44h3.71c4.04,0,6.54,2.49,6.54,6.5v33.05Z"/>
  </g>
  <g id="Rectangles">
    <rect class="cls-1" x=".35" y=".25" width="71.28" height="71.28"/>
  </g>
</svg>