<?xml version="1.0" encoding="UTF-8"?>
<svg xmlns="http://www.w3.org/2000/svg" viewBox="0 0 72 72">
  <defs>
    <style>
      .cls-1 {
        fill: none;
      }

      .cls-2 {
        fill: black;
      }
    </style>
  </defs>
  <g id="SVG_icons" data-name="SVG icons">
    <path class="cls-2" d="M46.57,57.83l-4.38-9.82c1.11-1.37,1.78-3.12,1.78-5.02,0-4.41-3.58-7.99-7.99-7.99s-7.99,3.58-7.99,7.99c0,1.8.6,3.45,1.61,4.79l-4.5,10.04c-.09.19-.04.42.12.56.16.14.38.17.57.07l3.8-2.1.92,4.21c.04.21.22.36.43.38.02,0,.03,0,.05,0,.19,0,.37-.11.45-.29l4.34-9.68c.05,0,.11,0,.16,0l4.32,9.68c.08.18.25.29.45.29.02,0,.03,0,.05,0,.21-.02.38-.17.43-.38l.97-4.23,3.75,2.13c.18.1.41.08.57-.06.16-.14.2-.37.12-.56ZM35.99,36.49c3.58,0,6.49,2.91,6.49,6.49s-2.91,6.49-6.49,6.49-6.49-2.91-6.49-6.49,2.91-6.49,6.49-6.49Z"/>
    <path class="cls-2" d="M51.05,65.54h-9.57v-3h9.57c.65,0,1.18-.53,1.18-1.19V10.54c0-.65-.53-1.19-1.18-1.19h-30.4c-.65,0-1.18.53-1.18,1.19v50.82c0,.65.53,1.19,1.18,1.19h9.18v3h-9.18c-2.31,0-4.18-1.88-4.18-4.19V10.54c0-2.31,1.88-4.19,4.18-4.19h30.4c2.31,0,4.18,1.88,4.18,4.19v50.82c0,2.31-1.88,4.19-4.18,4.19Z"/>
    <path class="cls-2" d="M40.95,17.72h-10.19c-.55,0-1-.45-1-1s.45-1,1-1h10.19c.55,0,1,.45,1,1s-.45,1-1,1Z"/>
    <path class="cls-2" d="M40.95,24.79h-10.19c-.55,0-1-.45-1-1s.45-1,1-1h10.19c.55,0,1,.45,1,1s-.45,1-1,1Z"/>
  </g>
  <g id="Rectangles">
    <rect class="cls-1" x=".36" y=".36" width="71.28" height="71.28"/>
  </g>
</svg>