<?xml version="1.0" encoding="UTF-8"?>
<svg xmlns="http://www.w3.org/2000/svg" viewBox="0 0 72 72">
  <defs>
    <style>
      .cls-1 {
        fill: none;
      }

      .cls-2 {
        fill: black;
      }
    </style>
  </defs>
  <g id="SVG_icons" data-name="SVG icons">
    <path class="cls-2" d="M64.13,57.36c-.23-.38-.63-.6-1.07-.6h-7.93c-.06-.34-.11-.68-.13-1.04-.18-3.7-.06-12.25.07-20.52.12-8.21.23-15.96.07-19.32-.21-4.25-3-7.56-6.22-7.42H13.88s-.07.02-.1.02c-.11,0-.22-.02-.33-.02-2.55,0-4.6,1.83-5.33,4.77-.09.37,0,.77.23,1.07.24.3.6.48.99.48h7.34c.12,0,.23-.02.34-.05.09.4.15.82.17,1.26.16,3.28.04,11.36-.07,19.16-.12,8.31-.25,16.91-.06,20.68.21,4.21,2.83,7.41,6.02,7.41.08,0,.16,0,.24,0,0,0,0,0,0,0h35.34c2.14-.1,3.89-1.59,5.51-4.66.2-.39.19-.85-.04-1.23ZM11.19,12.28c.45-.7,1.16-1.33,2.26-1.33.91,0,1.76.5,2.42,1.33h-4.68ZM26.49,57.42c-1.48,2.81-2.51,3.27-3.25,3.33h-.08s-.08,0-.12,0c-1.78-.03-3.36-2.29-3.5-5.03-.18-3.7-.06-12.25.07-20.52.12-8.21.23-15.96.07-19.32-.09-1.91-.72-3.62-1.69-4.92h30.98c1.82-.09,3.53,2.22,3.67,5.04.16,3.28.04,11.36-.07,19.16-.12,8.31-.25,16.91-.06,20.68.01.31.06.61.1.91h-25.01c-.46,0-.89.26-1.11.67ZM58.59,60.75h-31.22c.36-.48.68-.99.97-1.49h32.46c-1.12,1.44-1.93,1.48-2.21,1.49Z"/>
    <path class="cls-2" d="M42.66,17.91h-16.8c-.47,0-.85-.38-.85-.85s.38-.85.85-.85h16.8c.47,0,.85.38.85.85s-.38.85-.85.85Z"/>
    <path class="cls-2" d="M46.47,22.86h-20.61c-.47,0-.85-.38-.85-.85s.38-.85.85-.85h20.61c.47,0,.85.38.85.85s-.38.85-.85.85Z"/>
    <path class="cls-2" d="M40.12,27.82h-14.26c-.47,0-.85-.38-.85-.85s.38-.85.85-.85h14.26c.47,0,.85.38.85.85s-.38.85-.85.85Z"/>
    <path class="cls-2" d="M42.66,32.77h-16.8c-.47,0-.85-.38-.85-.85s.38-.85.85-.85h16.8c.47,0,.85.38.85.85s-.38.85-.85.85Z"/>
    <path class="cls-2" d="M40.66,39.26h-14.8c-.47,0-.85-.38-.85-.85s.38-.85.85-.85h14.8c.47,0,.85.38.85.85s-.38.85-.85.85Z"/>
    <path class="cls-2" d="M44.47,44.22h-18.61c-.47,0-.85-.38-.85-.85s.38-.85.85-.85h18.61c.47,0,.85.38.85.85s-.38.85-.85.85Z"/>
    <path class="cls-2" d="M38.12,49.17h-12.26c-.47,0-.85-.38-.85-.85s.38-.85.85-.85h12.26c.47,0,.85.38.85.85s-.38.85-.85.85Z"/>
  </g>
  <g id="Rectangles">
    <rect class="cls-1" x=".36" y=".36" width="71.28" height="71.28"/>
  </g>
</svg>