<svg xmlns="http://www.w3.org/2000/svg" version="1.1" viewBox="0 0 72 72">
  <path d="M50.3,19.2c.6,0,1.1.5,1.1,1.1v30.4l6.7-6.7c.4-.4,1.1-.4,1.5,0s.4,1.1,0,1.5l-8.5,8.5c-.4.4-1.1.4-1.5,0l-8.5-8.5c-.4-.4-.4-1.1,0-1.5s1.1-.4,1.5,0l6.7,6.7v-30.4c0-.6.5-1.1,1.1-1.1h0Z"/>
  <path d="M33.6,8.6c.6,0,1.2.3,1.5.9s.3,1.2,0,1.7l-11.6,17.4h10.2c.9,0,1.7.8,1.7,1.7s-.8,1.7-1.7,1.7h-13.3c-.6,0-1.2-.3-1.5-.9-.3-.5-.3-1.2,0-1.7l11.6-17.4h-10.2c-.9,0-1.7-.8-1.7-1.7s.8-1.7,1.7-1.7c0,0,13.3,0,13.3,0Z"/>
  <path d="M37.6,61.2l-9.1-23.3c-.2-.6-.9-1.1-1.5-1.1s-1.3.4-1.5,1.1l-9.1,23.3c-.3.9,0,1.8.9,2.2s1.8,0,2.2-.9l2.2-5.6h10.8l2.2,5.6c.3.9,1.3,1.3,2.2.9s1.3-1.3.9-2.2h0ZM22.8,53.5l4.1-10.4,4.1,10.4h-8.2Z"/>
</svg>