<svg xmlns="http://www.w3.org/2000/svg" version="1.1" viewBox="0 0 72 72">
  <path d="M49.9,19.2c.6,0,1.1.5,1.1,1.1v30.4l6.7-6.7c.4-.4,1.1-.4,1.5,0s.4,1.1,0,1.5l-8.5,8.5c-.4.4-1.1.4-1.5,0l-8.5-8.5c-.4-.4-.4-1.1,0-1.5s1.1-.4,1.5,0l6.7,6.7v-30.4c0-.6.5-1.1,1.1-1.1h0Z"/>
  <path d="M35,16.8c0-4.6-3.7-8.3-8.3-8.3s-8.3,3.7-8.3,8.3,3.7,8.3,8.3,8.3h0l-4.9,6.7c-.5.8-.4,1.8.4,2.4.3.2.6.3,1,.3.5,0,1-.2,1.4-.7l8.8-12c0-.1.1-.2.2-.4.9-1.4,1.4-2.9,1.4-4.6h0ZM21.8,16.8c0-2.7,2.2-4.9,4.9-4.9s4.9,2.2,4.9,4.9-.3,2-1,2.9c-.9,1.3-2.4,2-3.9,2-2.7,0-4.9-2.2-4.9-4.9Z"/>
  <path d="M26.7,38.9c-4.6,0-8.3,3.7-8.3,8.3v8.4c0,4.6,3.7,8.3,8.3,8.3s5.1-1.3,6.7-3.4c1-1.4,1.6-3.1,1.6-4.9v-8.4c0-4.6-3.7-8.3-8.3-8.3h0ZM26.7,42.3c1.3,0,2.5.5,3.4,1.4l-8.3,11.4v-7.9c0-2.7,2.2-4.9,4.9-4.9h0ZM30.7,58.5c-.9,1.3-2.4,2-3.9,2s-2.6-.6-3.5-1.5l8.4-11.5v8.2c0,1-.3,2-.9,2.9Z"/>
</svg>