<svg xmlns="http://www.w3.org/2000/svg" version="1.1" viewBox="0 0 72 72">
    <path d="M64.1,57.4c-.2-.4-.6-.6-1.1-.6h-7.9c0-.3-.1-.7-.1-1-.2-3.7,0-12.2,0-20.5.1-8.2.2-16,0-19.3-.2-4.2-3-7.6-6.2-7.4H13.9s0,0-.1,0c-.1,0-.2,0-.3,0-2.6,0-4.6,1.8-5.3,4.8,0,.4,0,.8.2,1.1.2.3.6.5,1,.5h7.3c.1,0,.2,0,.3,0,0,.4.1.8.2,1.3.2,3.3,0,11.4,0,19.2-.1,8.3-.2,16.9,0,20.7.2,4.2,2.8,7.4,6,7.4h35.6c2.1,0,3.9-1.6,5.5-4.7.2-.4.2-.8,0-1.2h0ZM11.2,12.3c.4-.7,1.2-1.3,2.3-1.3s1.8.5,2.4,1.3h-4.7ZM26.5,57.4c-1.5,2.8-2.5,3.3-3.2,3.3h-.2c-1.8,0-3.4-2.3-3.5-5-.2-3.7,0-12.2,0-20.5.1-8.2.2-16,0-19.3,0-1.9-.7-3.6-1.7-4.9h31c1.8,0,3.5,2.2,3.7,5,.2,3.3,0,11.4,0,19.2-.1,8.3-.2,16.9,0,20.7,0,.3,0,.6,0,.9h-25c-.5,0-.9.3-1.1.7ZM58.6,60.8h-31.2c.4-.5.7-1,1-1.5h32.5c-1.1,1.4-1.9,1.5-2.2,1.5Z"/>
    <path d="M42.7,17.9h-16.8c-.5,0-.9-.4-.9-.9s.4-.9.9-.9h16.8c.5,0,.8.4.8.9s-.4.9-.8.9Z"/>
    <path d="M46.5,22.9h-20.6c-.5,0-.9-.4-.9-.9s.4-.9.9-.9h20.6c.5,0,.8.4.8.9s-.4.9-.8.9Z"/>
    <path d="M40.1,27.8h-14.3c-.5,0-.9-.4-.9-.9s.4-.9.9-.9h14.3c.5,0,.8.4.8.9s-.4.9-.8.9Z"/>
    <path d="M42.7,32.8h-16.8c-.5,0-.9-.4-.9-.9s.4-.9.9-.9h16.8c.5,0,.8.4.8.9s-.4.9-.8.9Z"/>
    <path d="M40.7,39.3h-14.8c-.5,0-.9-.4-.9-.8s.4-.8.9-.8h14.8c.5,0,.8.4.8.8s-.4.8-.8.8Z"/>
    <path d="M44.5,44.2h-18.6c-.5,0-.9-.4-.9-.8s.4-.8.9-.8h18.6c.5,0,.8.4.8.8s-.4.8-.8.8Z"/>
    <path d="M38.1,49.2h-12.3c-.5,0-.9-.4-.9-.8s.4-.8.9-.8h12.3c.5,0,.8.4.8.8s-.4.8-.8.8Z"/>
</svg>