<?xml version="1.0" encoding="UTF-8"?>
<svg xmlns="http://www.w3.org/2000/svg" viewBox="0 0 72 72">
  <defs>
    <style>
      .cls-1 {
        fill: none;
      }

      .cls-2 {
        fill: black;
      }
    </style>
  </defs>
  <g id="SVG_icons" data-name="SVG icons">
    <path class="cls-2" d="M50.26,19.2c.59,0,1.07.48,1.07,1.07v30.38l6.7-6.7c.42-.42,1.09-.42,1.51,0,.42.42.42,1.09,0,1.51l-8.52,8.52c-.42.42-1.09.42-1.51,0l-8.52-8.52c-.42-.42-.42-1.09,0-1.51.42-.42,1.09-.42,1.51,0l6.7,6.7v-30.38c0-.59.48-1.07,1.07-1.07Z"/>
    <path class="cls-2" d="M33.59,8.61c.61,0,1.18.34,1.47.88.29.54.26,1.2-.08,1.71l-11.59,17.38h10.2c.92,0,1.66.75,1.66,1.66s-.75,1.66-1.66,1.66h-13.31c-.61,0-1.18-.34-1.47-.88-.29-.54-.26-1.2.08-1.71l11.59-17.38h-10.2c-.92,0-1.66-.75-1.66-1.66s.75-1.66,1.66-1.66h13.31Z"/>
    <path class="cls-2" d="M37.63,61.25l-9.15-23.3c-.25-.64-.86-1.06-1.55-1.06s-1.3.42-1.55,1.06l-9.15,23.3c-.34.86.08,1.82.94,2.16.86.34,1.82-.09,2.16-.94l2.2-5.6h10.81l2.2,5.6c.34.86,1.3,1.28,2.16.94.86-.34,1.28-1.3.94-2.16ZM22.84,53.54l4.1-10.43,4.1,10.43h-8.19Z"/>
  </g>
  <g id="Rectangles">
    <rect class="cls-1" x=".36" y=".36" width="71.28" height="71.28"/>
  </g>
</svg>