<svg xmlns="http://www.w3.org/2000/svg" version="1.1" viewBox="0 0 72 72">
    <path d="M15.7,23c-.4,0-.9-.2-1.2-.5l-4.9-4.9c-.7-.7-.7-1.8,0-2.5s1.8-.7,2.5,0l3.6,3.6,7.8-7.8c.7-.7,1.8-.7,2.5,0,.7.7.7,1.8,0,2.5l-9,9c-.3.3-.8.5-1.2.5Z"/>
    <path d="M19.6,36.4l3.9-3.8c.7-.7.7-1.8,0-2.5-.7-.7-1.8-.7-2.5,0l-3.9,3.8-3.9-3.9c-.7-.7-1.8-.7-2.5,0s-.7,1.8,0,2.5l3.8,3.8-3.9,3.8c-.7.7-.7,1.8,0,2.5s.8.5,1.2.5.9-.2,1.2-.5l3.9-3.8,3.9,3.8c.3.3.8.5,1.2.5s.9-.2,1.2-.5c.7-.7.7-1.8,0-2.5,0,0-3.9-3.8-3.8-3.8Z"/>
    <path d="M15.7,60.4c-.4,0-.9-.2-1.2-.5l-4.9-4.8c-.7-.7-.7-1.8,0-2.5s1.8-.7,2.5,0l3.6,3.6,7.8-7.8c.7-.7,1.8-.7,2.5,0,.7.7.7,1.8,0,2.5l-9,9c-.3.3-.8.5-1.2.5Z"/>
    <path d="M60.7,19.7h-28.1c-1.2,0-2.2-1-2.2-2.2s1-2.2,2.2-2.2h28.1c1.2,0,2.2,1,2.2,2.2s-1,2.2-2.2,2.2Z"/>
    <path d="M60.7,38.2h-28.1c-1.2,0-2.2-1-2.2-2.2s1-2.2,2.2-2.2h28.1c1.2,0,2.2,1,2.2,2.2s-1,2.2-2.2,2.2Z"/>
    <path d="M60.7,57.5h-28.1c-1.2,0-2.2-1-2.2-2.2s1-2.2,2.2-2.2h28.1c1.2,0,2.2,1,2.2,2.2s-1,2.2-2.2,2.2Z"/>
</svg>