<svg xmlns="http://www.w3.org/2000/svg" version="1.1" viewBox="0 0 72 72">
    <path d="M47.4,64.6l-4.4-9.8c1.1-1.4,1.8-3.1,1.8-5,0-4.4-3.6-8-8-8s-8,3.6-8,8,1.4,4.1,1.6,4.8l-4.5,10c0,.2,0,.4.1.6.2,0,.4.2.6,0l3.8-2.1.9,4.2c0,.2.2.4.4.4h0c.2,0,.4,0,.4-.3l4.3-9.7h.2l4.3,9.7c0,.2.2.3.5.3h0c.2,0,.4-.2.4-.4l1-4.2,3.8,2.1h.6c.2,0,.4-.3.3-.5h0ZM36.8,43.3c3.6,0,6.5,2.9,6.5,6.5s-2.9,6.5-6.5,6.5-6.5-2.9-6.5-6.5,2.9-6.5,6.5-6.5Z"/>
    <path d="M63,64.2h-11.8v-3h10.3c0-3.9-.3-9-.4-9.6,0-.9-.2-1.6-1.3-2.2-2.7-1.4-5.7-2.6-8.3-3.5-2.8-1-5-1.9-6.3-2.9-1.7-1.3-2.5-6.7-2.4-7.6,0-1.2,1.1-3.1,3.4-6.6l.2-.3c.4-.6,1.2-2.3,1.2-3.6s0-.7,0-.9c-.2-.4-.3-.8-.4-1.5,0-.5,0-.9-.2-1.2-.2-1-.4-1.8-.5-5.5,0-.9-.9-2.2-2.4-3.3-2.2-1.7-5-2.7-6.9-2.3-3.9.9-5.4.7-6.4.6-.3,0-.7,0-1,.2-1.1.7-2.4,2.5-2.7,3.8-1,4.2-1,5.4-1,7.1v.4c0,1.1-.1,1.7-.2,2.2,0,.3-.1.5-.1,1,0,1.1.6,2.2,1.2,3,.1.2.3.5.6.8,2,2.6,3,4.3,3.1,5.5.1,1.5-.8,6.9-2.4,8.2-1.3,1-3.6,1.7-6.5,2.7-3,1-6.5,2.1-9.2,3.7-1.1.6-1.2,1.2-1.3,2v.2c-.1.6-.3,5.1-.4,9.6h10.3v3h-11.9c-.4,0-.8-.2-1.1-.5s-.4-.7-.4-1.1c0-2.5.3-10.6.4-11.5v-.2c.2-1,.4-2.8,2.8-4.2,3-1.7,6.6-2.9,9.8-3.9,2.4-.8,4.6-1.5,5.5-2.1.6-.8,1.4-4.4,1.3-5.6-.1-.7-2-3.2-2.6-4-.3-.4-.6-.8-.7-1-.7-1.1-1.7-2.7-1.7-4.7s0-1.3.2-1.8c0-.3.1-.6.1-1.5v-.4c0-1.8,0-3.3,1.1-7.9.5-2.1,2.2-4.5,4-5.6,1.2-.8,1.9-.8,2.9-.7.8,0,2,.2,5.4-.6,3.3-.7,7.1,1.1,9.4,2.8,2.2,1.8,3.5,3.8,3.5,5.6,0,3.3.2,4,.4,4.9,0,.4.2.8.3,1.4,0,.4,0,.6.2.8.2.5.4,1,.4,2.1,0,1.9-1,4.2-1.7,5.3l-.2.3c-2.6,3.8-2.9,4.9-2.9,5.1,0,1,.8,4.3,1.2,5.1,1,.7,3.2,1.6,5.6,2.4,2.8,1,5.9,2.2,8.7,3.7,2.4,1.3,2.7,3.3,2.8,4.3s.4,9.1.4,11.6.1,1.1-.2,1.4-.7.5-1.1.5h0ZM26.2,40.7h0ZM46.7,40.5h0Z"/>
</svg>