<?xml version="1.0" encoding="UTF-8"?>
<svg id="Layer_3" data-name="Layer 3" xmlns="http://www.w3.org/2000/svg" width="72" height="72" viewBox="0 0 72 72">
  <path d="M64.5,62.1c0-2.5-.3-10.6-.5-11.6v-.4c-.1-1.8-1.1-3.5-2.7-4.3-2.8-1.4-5.7-2.7-8.7-3.7-.6-.2-1.3-.4-1.9-.7l2.9-2.1,4.6,3.4c.3.2.6.1.8-.1.1-.1.1-.3,0-.5l-1.8-5.4,4.5-3.3c.3-.2.3-.5.1-.8-.1-.1-.3-.2-.5-.2h-5.6l-1.8-5.5c0-.2-.3-.4-.5-.4s-.5.2-.5.4l-1.8,5.5h-4.4c.4-.7,1-1.6,1.8-2.8l.2-.3c1-1.6,1.6-3.4,1.7-5.3,0-.7,0-1.5-.4-2.1-.1-.2-.2-.5-.2-.8,0-.6-.2-1-.2-1.4-.3-1.6-.5-3.2-.4-4.9,0-1.9-1.3-3.9-3.5-5.6-2.3-1.8-6.1-3.6-9.4-2.8-1.8.5-3.6.7-5.4.6-1-.2-2,0-2.9.7-1.9,1.4-3.4,3.3-4,5.6-.8,2.6-1.2,5.2-1.2,7.9v.3c0,.5,0,1-.1,1.5-.1.6-.2,1.2-.2,1.8,0,1.7.7,3.3,1.7,4.7.1.2.4.5.7.9.6.8,2.5,3.3,2.6,4,0,1.9-.5,3.8-1.3,5.6-1.8.9-3.6,1.6-5.5,2.1-3.4,1-6.6,2.3-9.8,3.9-1.6.8-2.7,2.4-2.8,4.2v.2c-.1.9-.4,9.1-.4,11.5,0,.4.1.8.4,1.1.3.3.7.5,1.1.5h14.75v-3h-13.25c.1-4.5.3-9.1.4-9.5v-.3c0-.9.5-1.7,1.3-2,2.9-1.5,6-2.7,9.2-3.6,2.9-.9,5.2-1.7,6.5-2.7,1.6-1.2,2.5-6.7,2.4-8.1,0-1.2-1.2-2.9-3.2-5.6-.3-.3-.5-.6-.6-.8-.7-.9-1.1-1.9-1.2-3,0-.4,0-.7.1-1,.2-.7.2-1.4.2-2.2v-.4c0-2.4.3-4.8,1-7.2.5-1.5,1.4-2.9,2.7-3.8.3-.3.6-.4,1-.2,2.1.2,4.3,0,6.4-.6,1.9-.4,4.7.5,6.9,2.3,1.5,1.1,2.4,2.4,2.4,3.4,0,1.8.1,3.6.5,5.4,0,.4.2.8.2,1.2,0,.5.2,1.1.5,1.6.1.3.2.6.1.9,0,1.3-.5,2.5-1.1,3.6l-.2.3c-2.4,3.5-3.3,5.4-3.4,6.6,0,.9.7,6.4,2.4,7.6,2,1.2,4.1,2.2,6.3,2.9,2.9,1,5.6,2.2,8.3,3.5.8.4,1.3,1.2,1.3,2.1,0,.7.2,5.2.4,9.7h-13.11v3h14.71c.8,0,1.5-.7,1.4-1.5ZM48.5,40.4c-.5-.3-1.1-.5-1.6-.8-.7-1.6-1.1-3.3-1.2-5,0,0,0-.3.3-.8l3.8,2.7-1.3,3.9Z"/>
</svg>