<svg xmlns="http://www.w3.org/2000/svg" viewBox="0 0 72 72">
  <g id="SVG_icons" data-name="SVG icons">
    <path d="M56.83,11.58c0-2.13-1.73-3.87-3.86-3.87H16.07c-2.13,0-3.86,1.73-3.86,3.87v48.84c0,2.13,1.73,3.87,3.86,3.87h36.89c2.13,0,3.86-1.73,3.86-3.87V11.58ZM54.33,60.42c0,.75-.61,1.37-1.36,1.37H16.07c-.75,0-1.36-.61-1.36-1.37V11.58c0-.75.61-1.37,1.36-1.37h36.89c.75,0,1.36.61,1.36,1.37v48.84Z" fill="#272525"/>
    <path d="M26.94,59h1.5v-1.72h7.39v1.72h1.5v-1.72h7.39v1.72h1.5v-1.72h5.09v-1.5h-5.09v-4.5h5.09v-1.5h-5.09v-4.5h5.09v-1.5h-5.09v-4.5h5.09v-1.5h-5.09v-4.5h5.09v-1.5h-5.09v-4.5h5.09v-1.5H17.71v1.5h9.23s0,0,0,0v4.5h-9.23v1.5h9.23v4.5h-9.23v1.5h9.23v4.5h-9.23v1.5h9.23v4.5h-9.23v1.5h9.23v4.5h-9.23v1.5h9.23v1.72ZM37.33,27.26h7.39v4.5h-7.39v-4.5ZM37.33,33.26h7.39v4.5h-7.39v-4.5ZM37.33,39.26h7.39v4.5h-7.39v-4.5ZM37.33,45.27h7.39v4.5h-7.39v-4.5ZM37.33,51.27h7.39v4.5h-7.39v-4.5ZM35.83,55.78h-7.39v-4.5h7.39v4.5ZM35.83,49.77h-7.39v-4.5h7.39v4.5ZM35.83,43.77h-7.39v-4.5h7.39v4.5ZM35.83,37.76h-7.39v-4.5h7.39v4.5ZM35.83,27.26v4.5h-7.39v-4.5s0,0,0,0h7.39Z"/>
    <path d="M23.93,17.82l2.84-4.31h-1.91l-1.01,1.59c-.28.44-.52.86-.7,1.26-.07.15-.15.28-.23.43-.08-.14-.16-.28-.23-.43-.21-.4-.44-.82-.71-1.26l-.98-1.59h-1.94l2.81,4.25-2.99,4.48h1.91l1.19-1.86c.27-.43.5-.84.69-1.23.06-.14.14-.26.21-.39.07.13.15.26.22.39.2.39.44.8.71,1.23l1.17,1.86h1.93l-2.98-4.42Z"/>
  </g>
  <g id="Rectangles">
    <rect x=".36" y=".36" width="71.28" height="71.28" fill="none"/>
  </g>
</svg>