<?xml version="1.0" encoding="UTF-8"?>
<svg id="Layer_1" data-name="Layer 1" xmlns="http://www.w3.org/2000/svg" width="72" height="72" viewBox="0 0 72 72">
  <path d="M36.2,49.7c-.3,0-.7-.1-.9.1l-2.6-3.1v-1.3l-1.3.3-2-2-3.2-2.4,2.1,3.4,1.9,2.2-.4,1.4h1.3l2.9,2.8c-.1.3-.2.7-.2,1,0,1.3,1.1,2.4,2.4,2.4s2.4-1.1,2.4-2.4-1.1-2.4-2.4-2.4h0Z"/>
  <path d="M20.56,50.09c-.6,0-.96-.29-.96-.79,0-9,7.3-16.3,16.2-16.3h0c9.1,0,16.5,7.3,16.5,16.3,0,.83-.7.9-1.1.9h-3.9c-.3,0-.5-.2-.5-.5s.2-.6.5-.6h2.9c0-2.1-.6-4.3-1.6-6.2l-2.6,1.5h-.3c-.2,0-.4-.1-.5-.3-.2-.3,0-.6.2-.7l2.6-1.5c-1.1-1.8-2.7-3.4-4.5-4.6l-1.5,2.6c0,.2-.3.3-.5.3h-.3c-.1,0-.2-.2-.3-.3s0-.3,0-.4l1.5-2.6c-1.9-1-4-1.6-6.2-1.7v2.9c0,.3-.2.5-.5.5s-.5-.2-.5-.5v-2.9c-2.2,0-4.3.6-6.2,1.7l1.5,2.6v.4c0,.1-.1.3-.3.3h-.3c-.2,0-.4-.1-.5-.3l-1.5-2.6c-1.8,1.2-3.4,2.8-4.5,4.6l2.5,1.5c.1,0,.2.2.3.3v.4c0,.2-.3.3-.5.3h-.3l-2.5-1.5c-1,1.9-1.5,4-1.5,6.2h2.8c.3,0,.5.2.5.5s-.2.5-.5.5h-3.4c-.2,0-.24-.01-.24-.01Z"/>
  <polygon points="33.9 23.9 27.6 17.6 29.7 15.5 33.9 19.7 42.6 11 44.7 13.1 33.9 23.9"/>
  <path d="M61.7,18c-2.6-1.5-5.5-2.7-8.7-3.7l-3.9-1c-.4,0-.8-.1-1.2-.2v-4.2c0-.4-.3-.8-.8-.8h-22.3c-.4,0-.8.3-.8.8v4.1c-.5,0-.9.2-1.4.3l-3.9,1c-3.1.9-6,2.2-8.6,3.6-.6.3-1,1-1,1.7v35.8c0,.7.4,1.3,1,1.7,6.8,3.9,15.9,6,25.6,6s18.8-2.2,25.7-6.1c.6-.3,1-1,1-1.7V19.7c0-.7-.1-1.3-.7-1.7h0ZM25.7,9.7h20.8v3.1h0v12.9h-20.8v-16ZM59.5,54.8c-6.3,3.4-14.6,5.2-23.5,5.2s-17-1.8-23.4-5.2V20.3c3.4-1.8,7.3-3.1,11.6-4v10.2c0,.4.3.8.8.8h22.3c.4,0,.8-.3.8-.8v-10.2c4.2.9,8.1,2.2,11.5,4v34.5h-.1Z"/>
</svg>