<svg xmlns="http://www.w3.org/2000/svg" viewBox="0 0 72 72">
  <g id="SVG_icons" data-name="SVG icons">
    <path d="M30.76,24.14h-11.16c-.41,0-.75-.34-.75-.75v-7.4c0-.41.34-.75.75-.75h11.16c.41,0,.75.34.75.75v7.4c0,.41-.34.75-.75.75ZM20.35,22.64h9.66v-5.9h-9.66v5.9Z" fill="#272525"/>
    <path d="M47.69,36.52h-11.16c-.41,0-.75-.34-.75-.75v-7.4c0-.41.34-.75.75-.75h11.16c.41,0,.75.34.75.75v7.4c0,.41-.34.75-.75.75ZM37.28,35.02h9.66v-5.9h-9.66v5.9Z" fill="#272525"/>
    <path d="M47.82,17.65h-11.46c-.55,0-1-.45-1-1s.45-1,1-1h11.46c.55,0,1,.45,1,1s-.45,1-1,1Z"/>
    <path d="M47.82,24.14h-11.46c-.55,0-1-.45-1-1s.45-1,1-1h11.46c.55,0,1,.45,1,1s-.45,1-1,1Z"/>
    <path d="M30.58,29.85h-11.46c-.55,0-1-.45-1-1s.45-1,1-1h11.46c.55,0,1,.45,1,1s-.45,1-1,1Z"/>
    <path d="M47.69,55.6h-11.16c-.41,0-.75-.34-.75-.75v-7.4c0-.41.34-.75.75-.75h11.16c.41,0,.75.34.75.75v7.4c0,.41-.34.75-.75.75ZM37.28,54.1h9.66v-5.9h-9.66v5.9Z" fill="#272525"/>
    <path d="M47.82,42.42h-11.46c-.55,0-1-.45-1-1s.45-1,1-1h11.46c.55,0,1,.45,1,1s-.45,1-1,1Z"/>
    <path d="M30.58,48.93h-11.46c-.55,0-1-.45-1-1s.45-1,1-1h11.46c.55,0,1,.45,1,1s-.45,1-1,1Z"/>
    <path d="M30.38,55.53h-11.46c-.55,0-1-.45-1-1s.45-1,1-1h11.46c.55,0,1,.45,1,1s-.45,1-1,1Z"/>
    <path d="M30.58,35.88h-11.46c-.55,0-1-.45-1-1s.45-1,1-1h11.46c.55,0,1,.45,1,1s-.45,1-1,1Z"/>
    <path d="M30.38,42.48h-11.46c-.55,0-1-.45-1-1s.45-1,1-1h11.46c.55,0,1,.45,1,1s-.45,1-1,1Z"/>
    <path d="M55.1,11.58c0-2.13-1.73-3.87-3.86-3.87H14.34c-2.13,0-3.86,1.73-3.86,3.87v48.84c0,2.13,1.73,3.87,3.86,3.87h36.89c2.13,0,3.86-1.73,3.86-3.87V11.58ZM52.6,60.42c0,.75-.61,1.37-1.36,1.37H14.34c-.75,0-1.36-.61-1.36-1.37V11.58c0-.75.61-1.37,1.36-1.37h36.89c.75,0,1.36.61,1.36,1.37v48.84Z" fill="#272525"/>
  </g>
  <g id="Rectangles">
    <rect x=".36" y=".36" width="71.28" height="71.28" fill="none"/>
  </g>
</svg>