<?xml version="1.0" encoding="UTF-8"?>
<svg xmlns="http://www.w3.org/2000/svg" viewBox="0 0 72 72">
    <path d="M58.3,11.6c0-2.1-1.7-3.9-3.9-3.9H17.6c-2.1,0-3.9,1.7-3.9,3.9v48.8c0,2.1,1.7,3.9,3.9,3.9h36.9c2.1,0,3.9-1.7,3.9-3.9V11.6h-.1ZM55.8,60.4c0,.8-.6,1.4-1.4,1.4H17.6c-.8,0-1.4-.6-1.4-1.4V11.6c0-.8.6-1.4,1.4-1.4h36.9c.8,0,1.4.6,1.4,1.4v48.8h-.1Z"/>
    <path d="M51.3,24.3h-30.7c-.4,0-.8.3-.8.8v32c0,.4.3.8.8.8h30.7c.4,0,.8-.3.8-.8V25c0-.4-.3-.8-.8-.8h0v.1ZM32.9,50.3v-3.5h8.6v3.5h-8.6ZM41.5,51.8v4.5h-8.6v-4.5h8.6ZM32.9,40.3v-3.5h8.6v3.5h-8.6ZM41.5,41.8v3.5h-8.6v-3.5h8.6ZM31.9,40.3h-10.5v-3.5h10.5v3.5ZM31.9,41.8v3.5h-10.5v-3.5h10.5ZM42.5,45.3v-3.5h8.1v3.5h-8.1ZM42.5,40.3v-3.5h8.1v3.5h-8.1ZM42.5,35.3v-3.5h8.1v3.5h-8.1ZM41.5,35.3h-8.6v-3.5h8.6v3.5ZM31.9,35.3h-10.5v-3.5h10.5v3.5ZM21.4,46.8h10.5v3.5h-10.5v-3.5ZM42.5,46.8h8.1v3.5h-8.1v-3.5ZM50.6,25.8v4.5h-29.2v-4.5h29.2ZM21.4,51.8h10.5v4.5h-10.5v-4.5ZM42.5,56.3v-4.5h8.1v4.5h-8.1Z"/>
</svg>