<svg xmlns="http://www.w3.org/2000/svg" viewBox="0 0 72 72">
  <g id="SVG_icons" data-name="SVG icons">
    <path d="M56.36,7.71H15.84c-2.13,0-3.86,1.73-3.86,3.87v48.84c0,2.13,1.73,3.87,3.86,3.87h40.52c2.13,0,3.86-1.73,3.86-3.87V11.58c0-2.13-1.73-3.87-3.86-3.87ZM14.47,60.42V11.58c0-.75.61-1.37,1.36-1.37h40.52c.75,0,1.36.61,1.36,1.37v17.9c-2.18-.44-4.42-.67-6.66-.67-5.19,0-10.1,1.18-14.5,3.27.87-1.38,1.38-3.01,1.38-4.77,0-4.97-4.04-9.02-9.02-9.02s-9.02,4.04-9.02,9.02,4.04,9.02,9.02,9.02c.33,0,.65-.02.97-.05-7.51,6.04-12.39,15.21-12.64,25.51h-1.41c-.75,0-1.36-.61-1.36-1.37ZM28.92,34.83c-4.14,0-7.52-3.37-7.52-7.52s3.37-7.52,7.52-7.52,7.52,3.37,7.52,7.52-3.37,7.52-7.52,7.52ZM56.36,61.79H18.75c.46-17.44,14.77-31.48,32.31-31.48,2.25,0,4.48.24,6.66.7v29.41c0,.75-.61,1.37-1.36,1.37Z"/>
    <path d="M52.37,57.19h-15.17c-.41,0-.75-.34-.75-.75v-15.17c0-.41.34-.75.75-.75h15.17c.41,0,.75.34.75.75v15.17c0,.41-.34.75-.75.75ZM37.95,55.69h13.67v-13.67h-13.67v13.67Z"/>
  </g>
  <g id="Rectangles">
    <rect x=".36" y=".36" width="71.28" height="71.28" fill="none"/>
  </g>
</svg>