<?xml version="1.0" encoding="UTF-8"?>
<svg id="Layer_3" data-name="Layer 3" xmlns="http://www.w3.org/2000/svg" width="72" height="72" viewBox="0 0 72 72">
  <path d="M38.25,58.14l3,3h0v-9.41h-9.41l3,2.9-5.41,5.41-2.9-3h0v9.41h9.41l-3-2.9,5.41-5.41s-.1,0-.1,0Z"/>
  <path d="M63.88,49.97c-.1-1.81-1.1-3.5-2.7-4.31-2.81-1.4-5.71-2.7-8.71-3.71-.6-.2-1.31-.4-1.9-.7l2.9-2.1,4.6,3.4c.31.2.6.1.81-.1.1-.1.1-.31,0-.5l-1.81-5.41,4.5-3.31c.31-.2.31-.5.1-.81-.1-.1-.31-.2-.5-.2h-5.6l-1.81-5.5c0-.2-.31-.4-.5-.4s-.5.2-.5.4l-1.81,5.5h-4.4c.4-.7,1-1.6,1.81-2.81l.2-.31c1-1.6,1.6-3.4,1.7-5.31,0-.7,0-1.5-.4-2.1-.1-.2-.2-.5-.2-.81,0-.6-.2-1-.2-1.4-.31-1.6-.5-3.2-.4-4.91,0-1.9-1.31-3.9-3.5-5.6-2.31-1.81-6.1-3.6-9.41-2.81-1.81.5-3.6.7-5.41.6-1-.2-2,0-2.9.7-1.9,1.4-3.4,3.31-4,5.6-.81,2.6-1.2,5.21-1.2,7.91v.31c0,.5,0,1-.1,1.5-.1.6-.2,1.2-.2,1.81,0,1.7.7,3.31,1.7,4.71.1.2.4.5.7.9.6.81,2.5,3.31,2.6,4,0,1.9-.5,3.81-1.31,5.6-1.81.9-3.6,1.6-5.5,2.1-3.4,1-6.6,2.31-9.81,3.9-1.6.81-2.7,2.4-2.81,4.21v.2c-.1.9-.4,9.1-.4,11.51,0,.4.1.81.4,1.1.31.31.7.5,1.1.5h12.76v-3h-11.24c.1-4.5.31-9.1.4-9.51v-.31c0-.9.5-1.7,1.31-2,2.9-1.5,6-2.7,9.21-3.6,2.9-.9,5.21-1.7,6.5-2.7,1.6-1.2,2.5-6.71,2.4-8.1,0-1.2-1.2-2.9-3.2-5.6-.31-.31-.5-.6-.6-.81-.7-.9-1.1-1.9-1.2-3,0-.4,0-.7.1-1,.2-.7.2-1.4.2-2.2v-.4c0-2.4.31-4.81,1-7.21.5-1.5,1.4-2.9,2.7-3.81.31-.31.6-.4,1-.2,2.1.2,4.31,0,6.41-.6,1.9-.4,4.71.5,6.91,2.31,1.5,1.1,2.4,2.4,2.4,3.4,0,1.81.1,3.6.5,5.41,0,.4.2.81.2,1.2,0,.5.2,1.1.5,1.6.1.31.2.6.1.9,0,1.31-.5,2.5-1.1,3.6l-.2.31c-2.4,3.5-3.31,5.41-3.4,6.6,0,.9.7,6.41,2.4,7.6,2,1.2,4.1,2.2,6.31,2.9,2.9,1,5.6,2.2,8.31,3.5.81.4,1.31,1.2,1.31,2.1h0c0,.7.2,5.21.4,9.71h-14.31v-14.41s0-.1-.1-.1h-20.41v7.81l1.1,1.1h0v-7.6h18.12v18.01h-7.6v.1l1.2,1.1h7.71v-3h15.91c.81,0,1.5-.7,1.4-1.5,0-2.5-.31-10.6-.5-11.62v-.4l-.04.02ZM48.36,40.26c-.5-.31-1.1-.5-1.6-.81-.7-1.6-1.1-3.31-1.2-5,0,0,0-.31.31-.81l3.81,2.7-1.31,3.9h-.01Z"/>
</svg>