<svg xmlns="http://www.w3.org/2000/svg" viewBox="0 0 72 72">
  <g id="SVG_icons" data-name="SVG icons">
    <path d="M54.17,64.29H17.27c-2.13,0-3.86-1.73-3.86-3.87V11.58c0-2.13,1.73-3.87,3.86-3.87h36.89c2.13,0,3.86,1.73,3.86,3.87v48.84c0,2.13-1.73,3.87-3.86,3.87ZM17.27,10.21c-.75,0-1.36.61-1.36,1.37v48.84c0,.75.61,1.37,1.36,1.37h36.89c.75,0,1.36-.61,1.36-1.37V11.58c0-.75-.61-1.37-1.36-1.37H17.27Z" fill="#272525"/>
    <path d="M39.22,19.81h-15.46c-.55,0-1-.45-1-1s.45-1,1-1h15.46c.55,0,1,.45,1,1s-.45,1-1,1Z"/>
    <path d="M39.22,28.16h-15.46c-.55,0-1-.45-1-1s.45-1,1-1h15.46c.55,0,1,.45,1,1s-.45,1-1,1Z"/>
    <path d="M49.22,37.5h-15.46c-.55,0-1-.45-1-1s.45-1,1-1h15.46c.55,0,1,.45,1,1s-.45,1-1,1Z"/>
    <path d="M49.22,45.84h-15.46c-.55,0-1-.45-1-1s.45-1,1-1h15.46c.55,0,1,.45,1,1s-.45,1-1,1Z"/>
    <path d="M49.22,54.19h-15.46c-.55,0-1-.45-1-1s.45-1,1-1h15.46c.55,0,1,.45,1,1s-.45,1-1,1Z"/>
  </g>
  <g id="Rectangles">
    <rect x=".36" y=".36" width="71.28" height="71.28" fill="none"/>
  </g>
</svg>