<svg xmlns="http://www.w3.org/2000/svg" viewBox="0 0 72 72">
  <g id="SVG_icons" data-name="SVG icons">
    <path d="M59.55,62.72H10.65c-2.13,0-3.86-1.73-3.86-3.87V14.01c0-2.13,1.73-3.87,3.86-3.87h48.9c2.13,0,3.86,1.73,3.86,3.87v44.84c0,2.13-1.73,3.87-3.86,3.87ZM10.65,12.65c-.75,0-1.36.61-1.36,1.37v44.84c0,.75.61,1.37,1.36,1.37h48.9c.75,0,1.36-.61,1.36-1.37V14.01c0-.75-.61-1.37-1.36-1.37H10.65Z" fill="#272525"/>
    <path d="M54.74,21.8h-15.46c-.55,0-1-.45-1-1s.45-1,1-1h15.46c.55,0,1,.45,1,1s-.45,1-1,1Z"/>
    <path d="M54.74,29.29h-15.46c-.55,0-1-.45-1-1s.45-1,1-1h15.46c.55,0,1,.45,1,1s-.45,1-1,1Z"/>
    <path d="M54.74,36.77h-15.46c-.55,0-1-.45-1-1s.45-1,1-1h15.46c.55,0,1,.45,1,1s-.45,1-1,1Z"/>
    <path d="M54.74,44.69h-15.46c-.55,0-1-.45-1-1s.45-1,1-1h15.46c.55,0,1,.45,1,1s-.45,1-1,1Z"/>
    <path d="M54.74,52.17h-15.46c-.55,0-1-.45-1-1s.45-1,1-1h15.46c.55,0,1,.45,1,1s-.45,1-1,1Z"/>
  </g>
  <g id="Rectangles">
    <rect x=".36" y=".36" width="71.28" height="71.28" fill="none"/>
  </g>
</svg>