<?xml version="1.0" encoding="UTF-8"?>
<svg id="Layer_1" data-name="Layer 1" xmlns="http://www.w3.org/2000/svg" width="72" height="72" viewBox="0 0 72 72">
  <g id="SVG_icons" data-name="SVG icons">
    <path d="M35.93,44.47h-14.16c-.41,0-.75-.34-.75-.75v-8.64c0-.41.34-.75.75-.75h14.16c.41,0,.75.34.75.75v8.64c0,.41-.34.75-.75.75ZM22.51,42.97h12.66v-7.14h-12.66s0,7.14,0,7.14Z" fill="#272525"/>
    <path d="M35.93,57.32h-14.16c-.41,0-.75-.34-.75-.75v-8.64c0-.41.34-.75.75-.75h14.16c.41,0,.75.34.75.75v8.64c0,.41-.34.75-.75.75ZM22.51,55.82h12.66v-7.14h-12.66s0,7.14,0,7.14Z" fill="#272525"/>
  </g>
  <polygon points="43.86 43.85 39.53 39.52 41.3 37.81 43.86 40.37 50.03 34.27 51.73 35.98 43.86 43.85"/>
  <polygon points="43.86 56.79 39.53 52.46 41.3 50.76 43.86 53.32 50.03 47.22 51.73 48.92 43.86 56.79"/>
  <path d="M54.19,16.25h-5.53c-.8-6.43-6.28-11.42-12.92-11.42s-12.12,4.99-12.92,11.42h-5.53c-2.13,0-3.86,1.74-3.86,3.87v40.22c0,2.14,1.73,3.87,3.86,3.87h36.89c2.13,0,3.86-1.74,3.86-3.87V20.12c0-2.14-1.73-3.87-3.86-3.87ZM35.74,6.33c6.36,0,11.53,5.17,11.53,11.53,0,3.24-1.35,6.16-3.5,8.26-.05-.7-.12-1.41-.14-1.59-.05-.31-.15-.97-.92-1.39-.77-.42-1.48-.75-2.12-1.03-.68-.31-1.27-.57-1.6-.82-.15-.26-.36-1.2-.35-1.44.01-.07.1-.39.86-1.5l.06-.09c.2-.3.52-1.02.52-1.66,0-.25-.06-.51-.13-.84-.11-.49-.24-1.1-.26-1.96-.01-.61-.41-1.25-1.11-1.81-.71-.55-1.9-1.11-2.95-.88-1.01.23-1.39.19-1.61.17-.31-.03-.54-.03-.94.23-.57.36-1.1,1.11-1.27,1.78-.34,1.4-.34,1.85-.34,2.42v.11c0,.26-.02.33-.04.42-.03.14-.06.28-.06.56,0,.62.3,1.14.52,1.48.04.06.11.15.2.28.18.24.72.96.77,1.17.03.32-.21,1.35-.37,1.61-.31.22-.83.45-1.44.72-.64.28-1.44.63-2.27,1.1-.78.44-.86,1.05-.9,1.35v.06c-.03.15-.06.88-.09,1.61-2.19-2.1-3.56-5.05-3.56-8.31,0-6.36,5.17-11.53,11.53-11.53ZM34,19.63c-.03-.4-.38-.93-1-1.75-.08-.1-.14-.18-.17-.23-.16-.23-.34-.54-.34-.85,0-.16.01-.22.03-.3.03-.16.07-.32.07-.69v-.11c0-.52,0-.88.31-2.14.09-.39.44-.89.77-1.09.08-.05.11-.06.11-.06.03,0,.07,0,.11,0,.29.03.78.07,1.97-.19.52-.12,1.35.15,2,.67.47.36.68.73.68.93.02.97.17,1.67.28,2.18.06.25.1.47.1.59,0,.35-.22.86-.34,1.04l-.05.08c-.73,1.09-1.03,1.67-1.05,2.07-.02.3.21,1.97.77,2.41.43.33,1.05.61,1.84.97.61.28,1.31.6,2.05,1,.27.15.3.32.34.59.02.12.12,1.26.19,2.3-1.94,1.47-4.34,2.36-6.95,2.36s-4.93-.85-6.85-2.28c.04-1.01.09-2.29.1-2.38v-.08c.05-.22.06-.35.35-.51.78-.44,1.51-.76,2.17-1.05.73-.32,1.3-.57,1.71-.88.55-.42.82-2.13.78-2.58ZM55.55,60.34c0,.76-.61,1.37-1.36,1.37H17.3c-.75,0-1.36-.62-1.36-1.37V20.12c0-.76.61-1.37,1.36-1.37h5.46c.46,6.77,6.1,12.14,12.98,12.14s12.52-5.37,12.98-12.14h5.46c.75,0,1.36.62,1.36,1.37v40.22Z"/>
</svg>