<?xml version="1.0" encoding="UTF-8"?>
<svg xmlns="http://www.w3.org/2000/svg" viewBox="0 0 72 72">
  <path d="M35.9,45.5h-14.2c-.4,0-.8-.3-.8-.8v-8.6c0-.4.3-.8.8-.8h14.2c.4,0,.8.3.8.8v8.6c0,.4-.3.8-.8.8ZM22.5,44h12.7v-7.1h-12.7v7.1Z"/>
  <path d="M35.9,58.3h-14.2c-.4,0-.8-.3-.8-.8v-8.6c0-.4.3-.8.8-.8h14.2c.4,0,.8.3.8.8v8.6c0,.4-.3.8-.8.8ZM22.5,56.8h12.7v-7.1h-12.7v7.1Z"/>
  <polygon points="43.9 44.8 39.5 40.5 41.3 38.8 43.9 41.4 50 35.3 51.7 37 43.9 44.8"/>
  <polygon points="43.9 57.8 39.5 53.5 41.3 51.8 43.9 54.3 50 48.2 51.7 49.9 43.9 57.8"/>
  <path d="M43.5,23.04c-.05-.29-.14-.9-.86-1.3-.72-.39-1.39-.7-1.98-.96-.64-.29-1.19-.54-1.5-.77-.14-.24-.34-1.12-.33-1.35.01-.06.1-.36.8-1.4l.05-.08c.19-.28.49-.96.49-1.55,0-.23-.05-.47-.12-.78-.1-.46-.22-1.03-.24-1.83-.01-.57-.38-1.17-1.04-1.69-.66-.52-1.77-1.04-2.75-.82-.95.21-1.3.18-1.5.16-.29-.03-.5-.03-.88.21-.53.34-1.03,1.04-1.19,1.66-.32,1.31-.32,1.73-.32,2.26v.1c0,.24-.02.31-.04.39-.03.13-.06.26-.06.52,0,.58.28,1.07.49,1.38.04.05.11.14.19.26.16.22.67.9.72,1.09.03.3-.2,1.26-.35,1.5-.29.21-.78.42-1.34.67-.6.26-1.34.59-2.12,1.03-.73.41-.81.98-.85,1.26v.06c-.05.26-.11,2.26-.13,2.86,0,.14.05.29.15.39s.24.16.38.16h13.92c.14,0,.28-.06.38-.16s.15-.24.15-.39c-.02-.61-.09-2.6-.13-2.89ZM29.71,25.42h.01c.04-1.05.08-2.06.1-2.19v-.07c.04-.2.06-.32.33-.48.73-.41,1.41-.71,2.02-.98.68-.3,1.22-.53,1.6-.82.51-.39.77-1.99.73-2.41-.03-.38-.35-.87-.93-1.64-.07-.09-.13-.17-.16-.21-.15-.22-.31-.5-.31-.79,0-.15.01-.2.03-.28.03-.15.06-.3.06-.64v-.1c0-.49,0-.82.29-2,.09-.36.41-.83.72-1.02.07-.05.11-.06.11-.06.03,0,.06,0,.11,0,.27.03.73.07,1.84-.18.49-.11,1.26.14,1.87.62.44.34.64.69.64.87.02.91.16,1.56.27,2.04.05.23.1.44.1.55,0,.33-.21.8-.31.97l-.05.07c-.69,1.02-.96,1.56-.98,1.93-.02.28.2,1.84.72,2.25.4.31.98.57,1.72.9.57.26,1.23.56,1.91.93.26.14.28.3.32.55.02.14.06,1.15.1,2.19h-12.83Z"/>
  <path d="M54.3,16.2h-4.71c-1.41-6.13-6.91-10.73-13.46-10.73s-12.05,4.59-13.46,10.73h-5.26c-2.1,0-3.9,1.7-3.9,3.9v40.2c0,2.1,1.7,3.9,3.9,3.9h36.9c2.1,0,3.9-1.7,3.9-3.9V20.1c0-2.1-1.7-3.9-3.9-3.9ZM36.13,6.97c6.8,0,12.33,5.53,12.33,12.33s-5.53,12.33-12.33,12.33-12.33-5.53-12.33-12.33,5.53-12.33,12.33-12.33ZM55.7,60.3h-.2c0,.8-.6,1.4-1.4,1.4H17.3c-.8,0-1.4-.6-1.4-1.4V20.1c0-.8.6-1.4,1.4-1.4h5.03c0,.2-.03.4-.03.6,0,7.62,6.2,13.83,13.83,13.83s13.83-6.2,13.83-13.83c0-.2-.02-.4-.03-.6h4.37c.8,0,1.4.6,1.4,1.4v40.2Z"/>
</svg>