<?xml version="1.0" encoding="UTF-8"?>
<svg id="Layer_1" data-name="Layer 1" xmlns="http://www.w3.org/2000/svg" width="72" height="72" viewBox="0 0 72 72">
  <path d="M38.9,35.5h15.2c.6,0,1.1-.5,1.1-1.1v-8.6c0-.6-.5-1.1-1.1-1.1h-15.2c-.6,0-1.1.5-1.1,1.1v3.2h-6.2l-8.3-8.3c-.5-.5-1.1-.5-1.6,0l-8.6,8.6c-.4.5-.4,1.1,0,1.6h0l8.1,8.2v7.2c0,.6.5,1.1,1.1,1.1h15.4v3.2c0,.6.5,1.1,1.1,1.1h15.2c.6,0,1.1-.5,1.1-1.1v-8.6c0-.6-.5-1.1-1.1-1.1h-15.1c-.6,0-1.1.5-1.1,1.1v3.2h-14.2v-5.9l8-8h6.3v3.1c0,.6.4,1.1,1.1,1.1h-.1ZM40,43h13v6.4h-13v-6.4ZM22.5,23.1l6.9,6.9v.2h0l-7,7-7-7,7-7,.1-.1ZM40,26.8h13v6.3h-13v-6.3Z"/>
  <path d="M36,66.7c-16.9,0-30.7-13.8-30.7-30.7S19.1,5.3,36,5.3s30.7,13.8,30.7,30.7-13.8,30.7-30.7,30.7ZM36,8.8c-15,0-27.2,12.2-27.2,27.2s12.2,27.2,27.2,27.2,27.2-12.2,27.2-27.2-12.2-27.2-27.2-27.2Z"/>
</svg>