<?xml version="1.0" encoding="UTF-8"?>
<svg id="Layer_1" data-name="Layer 1" xmlns="http://www.w3.org/2000/svg" width="72" height="72" viewBox="0 0 72 72">
  <path d="M47.03,64.1c-10.66,0-19.05-11.94-24.68-19.95l-.23-.33c-6.04-8.59-12.39-20.53-8.36-28.78.1-.24,3.36-7.75,9.2-7.75.51,0,.98.25,1.27.67l9.1,12.94c.48.69.33,1.63-.32,2.14l-4.82,3.71c-.09.08,0,.06-.16.1h0c-.24.37-.33.82-.24,1.25.09.95,1.92,4.43,5.7,9.79,2.85,4.07,5.77,7.47,6.93,8.09h0c.9.49,1.37.25,1.42.23h.06l5.35-2.95c.71-.42,1.63-.22,2.09.47l9.07,12.91c.19.26.29.58.29.9,0,5.16-8.74,6.4-10.45,6.58-.41.01-.82,0-1.22-.02ZM22.2,10.5c-3.3.7-5.56,5.79-5.58,5.84-2.66,5.42.21,14.5,8.06,25.67l.24.34c5.42,7.71,13.58,19.35,22.99,18.58,2.94-.33,6.98-1.56,7.58-3.14l-7.89-11.19-4.07,2.25c-1.44.82-3.21.77-4.6-.11h0c-2.38-1.29-6.4-6.75-8-9.04-2.72-3.88-6.01-8.97-6.27-11.29-.28-1.59.35-3.2,1.64-4.18l3.58-2.77s-7.68-10.96-7.68-10.96Z"/>
  <path d="M39.49,27.82c-.55,0-1-.45-1-1v-11.96c0-.55.45-1,1-1s1,.45,1,1v11.96c0,.55-.45,1-1,1Z"/>
  <path d="M45.32,30.03c-.26,0-.51-.1-.71-.29-.39-.39-.39-1.02,0-1.41l8.46-8.46c.39-.39,1.02-.39,1.41,0s.39,1.02,0,1.41l-8.46,8.46c-.2.2-.45.29-.71.29h0Z"/>
  <path d="M59.84,35.72h-11.96c-.55,0-1-.45-1-1s.45-1,1-1h11.96c.55,0,1,.45,1,1s-.45,1-1,1Z"/>
</svg>