<svg xmlns="http://www.w3.org/2000/svg" viewBox="0 0 72 72">
  <rect x="17.87" y="16.6" width="15.4" height="2.8"/>
  <path d="M62.83,37.55c0-6.56-4.15-12.14-9.95-14.31v-11.64c0-2.4-2-4.4-4.4-4.4H13.57c-2.4,0-4.4,2-4.4,4.4v48.8c0,2.4,2,4.4,4.4,4.4h34.9c2.4,0,4.4-2,4.4-4.4v-8.5c5.81-2.18,9.95-7.77,9.95-14.35ZM49.38,60.3c0,.5-.4.9-.9.9H13.57c-.5,0-.9-.4-.9-.9V11.5c0-.4.4-.8.9-.8h34.9c.5,0,.9.4.9.9v10.78c-.61-.07-1.23-.12-1.87-.12-4.45,0-8.45,1.91-11.25,4.95h-14.19v2.5h12.31c-.93,1.55-1.6,3.26-1.93,5.1h-10.38v2.6h10.13v.17c0,1.61.25,3.17.72,4.63h-10.83v2.6h11.93c2.58,4.81,7.66,8.09,13.5,8.09.63,0,1.25-.05,1.87-.13v7.54h-.01ZM47.51,50.77c-7.28,0-13.19-5.91-13.19-13.19s5.91-13.19,13.19-13.19,13.17,5.89,13.19,13.16v.03c0,7.28-5.91,13.19-13.19,13.19Z"/>
  <path d="M55.77,36.7l-11.62-7.17c-.17-.1-.36-.16-.56-.16-.59,0-1.06.47-1.06,1.06v14.28c0,.38.2.73.53.92.16.09.35.14.53.14.19,0,.39-.05.55-.15l11.62-7.11c.33-.19.53-.53.53-.91s-.21-.72-.53-.9h.01Z"/>
</svg>