<svg xmlns="http://www.w3.org/2000/svg" version="1.1" viewBox="0 0 72 72">
  <path d="M53.1,64.5H18.9c-6.3,0-11.5-5.2-11.5-11.5V18.8c0-6.3,5.2-11.5,11.5-11.5h34.2c6.3,0,11.5,5.2,11.5,11.5v34.2c0,6.3-5.2,11.5-11.5,11.5ZM18.9,10.3c-4.7,0-8.5,3.8-8.5,8.5v34.2c0,4.7,3.8,8.5,8.5,8.5h34.2c4.7,0,8.5-3.8,8.5-8.5V18.8c0-4.7-3.8-8.5-8.5-8.5H18.9Z"/>
  <path d="M36,19.1c-9.5,0-17.1,7.7-17.1,17.1s7.7,17.1,17.1,17.1,17.1-7.7,17.1-17.1c0-9.5-7.7-17.1-17.1-17.1ZM20.7,36.9h6.3c0,2.2.3,4.4.8,6.5h-5.3c-1.1-2-1.7-4.2-1.8-6.5ZM36.9,27.3v-6.2c2,.6,3.7,2.9,4.9,6.2h-4.9ZM42.3,29.1c.5,2,.8,4,.8,6.1h-6.3v-6s5.4,0,5.4,0ZM35.1,21v6.2h-4.9c1.1-3.3,2.9-5.6,4.9-6.2ZM35.1,29.1v6.1h-6.3c0-2,.4-4.1.8-6h5.4ZM27,35.1h-6.3c.2-2.1.7-4.2,1.7-6h5.3c-.5,2-.7,4-.8,6ZM28.8,36.9h6.3v6.5h-5.4c-.5-2.1-.8-4.3-.8-6.5ZM35.1,45.2v6.2c-2-.6-3.7-2.9-4.9-6.2h4.9ZM36.9,51.4v-6.2h4.9c-1.1,3.3-2.9,5.6-4.9,6.2h0ZM36.9,43.4v-6.5h6.3c0,2.2-.3,4.4-.9,6.5h-5.4,0ZM45,36.9h6.3c-.1,2.3-.7,4.5-1.8,6.5h-5.3c.5-2.1.8-4.3.8-6.5ZM45,35.1c0-2-.3-4.1-.8-6h5.3c1,1.9,1.6,3.9,1.7,6h-6.3,0ZM48.4,27.3h-4.7c-.6-2-1.6-3.9-2.9-5.5,3,1,5.7,3,7.6,5.5h0ZM31.1,21.7c-1.3,1.6-2.3,3.5-2.9,5.5h-4.7c1.9-2.6,4.5-4.5,7.6-5.5ZM23.6,45.2h4.7c.6,2,1.6,3.9,2.9,5.5-3-1-5.7-2.9-7.5-5.5ZM40.8,50.8c1.3-1.6,2.3-3.5,2.9-5.5h4.7c-1.9,2.6-4.5,4.5-7.5,5.5Z"/>
</svg>