<?xml version="1.0" encoding="UTF-8"?>
<svg id="Layer_1" xmlns="http://www.w3.org/2000/svg" version="1.1" viewBox="0 0 72 72">
  <!-- Generator: Adobe Illustrator 29.0.1, SVG Export Plug-In . SVG Version: 2.1.0 Build 192)  -->
  <path d="M53.1,64.5H18.9c-6.3,0-11.5-5.2-11.5-11.5V18.8c0-6.3,5.2-11.5,11.5-11.5h34.2c6.3,0,11.5,5.2,11.5,11.5v34.2c0,6.3-5.2,11.5-11.5,11.5ZM18.9,10.3c-4.7,0-8.5,3.8-8.5,8.5v34.2c0,4.7,3.8,8.5,8.5,8.5h34.2c4.7,0,8.5-3.8,8.5-8.5V18.8c0-4.7-3.8-8.5-8.5-8.5H18.9Z"/>
  <path d="M52.6,22.4h-12.6c1-1.5,1.8-2.4,1.8-2.4l-1.3-1.2c-.1.1-1.3,1.5-2.7,3.6h-17.6v27h18.5c.3,1.2.7,2.5,1.2,3.6l1.6-.8c-.4-.9-.7-1.9-1-2.9h12.1v-27ZM21.9,47.6v-23.4h14.8c-2.1,3.5-4.3,8.4-4.3,13.5v.9h5.9c-.2,1.4-.4,2.7-.4,4.1-4,.3-8.1-.6-11.7-2.5l-.8,1.6c3.4,1.8,7.2,2.7,11.1,2.7.5,0,1,0,1.5,0,0,1.1.2,2.1.4,3.2h-16.4ZM50.8,47.6h-10.7c-.2-1.1-.3-2.2-.4-3.4,2.7-.4,5.4-1.2,7.8-2.5l-.8-1.6c-2.2,1.2-4.6,1.9-7,2.3,0-1.5.2-3.1.5-4.6l.2-1.1h-6.3c.3-4.8,2.6-9.4,4.6-12.6h12v23.4Z"/>
  <rect x="41.8" y="27.2" width="1.8" height="3.5"/>
  <rect x="28.5" y="27.2" width="1.8" height="3.5"/>
</svg>