<?xml version="1.0" encoding="UTF-8"?>
<svg xmlns="http://www.w3.org/2000/svg" width="1in" height="1in" viewBox="0 0 72 72">
  <defs>
    <style>
      .cls-1 {
        fill: none;
      }
    </style>
  </defs>
  <g id="SVG_icons" data-name="SVG icons">
    <g id="Layer_7" data-name="Layer 7">
      <path d="M52.99324609,64.5H18.81795312c-6.34130859,0-11.5-5.15869141-11.5-11.5V18.82470703c0-6.34130859,5.15869141-11.5,11.5-11.5h34.17529297c6.34130859,0,11.5,5.15869141,11.5,11.5v34.17529297c0,6.34130859-5.15869141,11.5-11.5,11.5ZM18.81795312,10.32470703c-4.68701172,0-8.5,3.81298828-8.5,8.5v34.17529297c0,4.68701172,3.81298828,8.5,8.5,8.5h34.17529297c4.68701172,0,8.5-3.81298828,8.5-8.5V18.82470703c0-4.68701172-3.81298828-8.5-8.5-8.5H18.81795312Z"/>
      <g>
        <polygon points="20.42816966 35.04814026 20.42816966 25.16189215 32.59691756 23.5118911 32.59691756 35.08939383 20.42816966 35.04814026"/>
        <polygon points="20.42816966 36.97314236 20.42816966 46.680639 32.59691756 48.31689236 32.59691756 36.94564173 20.42816966 36.97314236"/>
        <polygon points="34.45317071 35.04814026 34.45317071 23.31939194 50.34816735 20.99564383 50.34816735 35.08939383 34.45317071 35.04814026"/>
        <polygon points="34.45317071 36.97314236 34.45317071 48.6056411 50.34816735 50.75064299 50.34816735 36.94564173 34.45317071 36.97314236"/>
      </g>
    </g>
  </g>
  <g id="Rectangles">
    <rect class="cls-1" x=".36" y=".36" width="71.28" height="71.28"/>
  </g>
</svg>