<?xml version="1.0" encoding="UTF-8"?>
<svg id="Layer_1" xmlns="http://www.w3.org/2000/svg" version="1.1" viewBox="0 0 72 72">
  <!-- Generator: Adobe Illustrator 29.0.1, SVG Export Plug-In . SVG Version: 2.1.0 Build 192)  -->
  <defs>
    <style>
      .st0 {
        fill-rule: evenodd;
      }
    </style>
  </defs>
  <path class="st0" d="M58.3,41.5l-15.1-15.1c-.4-.4-1.1-.4-1.5,0l-15.2,15.2c-.4.4-.4,1.1,0,1.5l15.1,15.1c.2.2.5.3.7.3s.5-.1.7-.3l15.2-15.2c.2-.2.3-.5.3-.7s-.1-.5-.3-.7ZM42.4,56.6l-14.2-14.2,14.3-14.3,14.2,14.2s-14.3,14.3-14.3,14.3Z"/>
  <path d="M46.9,43.6c-1,1.6-2.1,3-3.3,4s-2.2,1.6-3.1,1.6-1.8-1-1.8-2.9.9-5,2.6-6.9c1.8-2,3.8-2.9,6.2-2.9s1.7.1,2.3.3c0,.2,0,.3,0,.3l-.2.7c-.1.5-.2.8-.2.8l-.8,5.8v.8c-.2.8-.3,1.4-.3,1.7s.1.6.3.6c.7,0,1.5-.8,2.3-2.5.2.1.4.3.4.4,0,.3-.4.9-1.1,1.9-1,1.3-2,1.9-2.9,1.9s-1-.4-1-1.3,0-.6,0-1.1v-1.1c.1,0,.3-1.2.3-1.2,0,0,.1-1,.1-1ZM47.6,38.4c-.8-.4-1.6-.7-2.4-.7-1.2,0-2.3.8-3.1,2.3-.8,1.5-1.3,3.4-1.3,5.6s.3,1.7,1,1.7,1.7-.6,2.8-1.8c1.5-1.6,2.4-3.5,2.7-5.7,0,0,.2-1.4.2-1.4Z"/>
  <path d="M50.5,18l-4.8-4.7c-.4-.4-1-.4-1.4,0l-27.6,27.7c0,0-.2.2-.2.3l-3.4,8.1c-.2.4,0,.8.2,1.1.2.2.4.3.7.3s.3,0,.4,0l8.2-3.4c.1,0,.2-.1.3-.2l1.7-1.7c.4-.4.4-1,0-1.4-.4-.4-1-.4-1.4,0l-1.5,1.6-5.8,2.4,2.4-5.7,23.5-23.6,3.4,3.3-1.3,1.3c-.4.4-.4,1,0,1.4.4.4,1,.4,1.4,0l5.3-5.3c.2-.2.3-.4.3-.7s-.1-.5-.3-.7ZM46.2,20.9l-3.4-3.3,2.2-2.2,3.4,3.3-2.2,2.2Z"/>
  <path d="M53,64.5H18.8c-6.3,0-11.5-5.2-11.5-11.5V18.8c0-6.3,5.2-11.5,11.5-11.5h34.2c6.3,0,11.5,5.2,11.5,11.5v34.2c0,6.3-5.2,11.5-11.5,11.5ZM18.8,10.3c-4.7,0-8.5,3.8-8.5,8.5v34.2c0,4.7,3.8,8.5,8.5,8.5h34.2c4.7,0,8.5-3.8,8.5-8.5V18.8c0-4.7-3.8-8.5-8.5-8.5H18.8Z"/>
</svg>