<?xml version="1.0" encoding="UTF-8"?>
<svg xmlns="http://www.w3.org/2000/svg" viewBox="0 0 72 72">
    <style>
      .cls-1 {
        fill: none;
      }

      .cls-2 {
        fill-rule: evenodd;
      }
    </style>
   <path d="M50.52197266,17.97998047l-4.82714844-4.69677734c-.39355469-.38232422-1.02099609-.37695312-1.40673828.01171875l-27.57519531,27.74267578c-.09082031.09130859-.16308594.19970703-.21289062.31835938l-3.39013672,8.08447266c-.15625.37353516-.07226562.8046875.21289062,1.09179688.19189453.19238281.44824219.29492188.70947266.29492188.12841797,0,.2578125-.02490234.38134766-.07568359l8.21777344-3.38769531c.125-.05126953.23779297-.12695312.33203125-.22314453l2.94482422-2.99511719c.38720703-.39404297.38183594-1.02685547-.01171875-1.4140625-.39453125-.38867188-1.02832031-.3828125-1.4140625.01171875l-2.80175781,2.84960938-5.7890625,2.38623047,2.37744141-5.66992188,23.50518799-23.64770508,3.39154053,3.29827881-3.26245117,3.27764893c-.38916016.39160156-.38769531,1.02490234.00341797,1.41455078.39160156.38867188,1.02392578.38818359,1.41455078-.00341797l7.21240234-7.24609375c.18847656-.18945312.29296875-.44628906.29101562-.71337891-.00195312-.26757812-.11132812-.52246094-.30273438-.70898438ZM46.22399902,20.89648438l-3.39227295-3.29901123,2.17755127-2.19073486,3.39306641,3.30126953-2.17834473,2.18847656Z"/>
   <path d="M53,64.5H18.82470703c-6.34130859,0-11.5-5.15869141-11.5-11.5V18.82470703c0-6.34130859,5.15869141-11.5,11.5-11.5h34.17529297c6.34130859,0,11.5,5.15869141,11.5,11.5v34.17529297c0,6.34130859-5.15869141,11.5-11.5,11.5ZM18.82470703,10.32470703c-4.68701172,0-8.5,3.81298828-8.5,8.5v34.17529297c0,4.68701172,3.81298828,8.5,8.5,8.5h34.17529297c4.68701172,0,8.5-3.81298828,8.5-8.5V18.82470703c0-4.68701172-3.81298828-8.5-8.5-8.5H18.82470703Z"/>
   <path d="M42.76194701,48.49586769c-2.86351109-.02212524-5.16691017-2.36139488-5.14478493-5.22490501.02212429-2.86351109,2.36139393-5.16691017,5.22490501-5.14478493,2.85757065.02207851,5.15857315,2.35206699,5.14488029,5.20969009-.02201271,2.86602402-2.35892487,5.17386436-5.22500038,5.15999985ZM42.76194701,39.80586811c-1.93289948.01933002-3.4841547,1.60192394-3.46482468,3.53482533.01932907,1.93289948,1.6019249,3.48415375,3.53482437,3.46482468,1.91917801-.01919174,3.46490288-1.58037567,3.46500015-3.49964905-.01101494-1.94289589-1.59207916-3.51054382-3.53499985-3.50500107v.00500011Z"/>
   <path class="cls-2" d="M51.97694716,44.965867c-.58372498.11387825-1.06329346.52874184-1.26000023,1.09000015-.10761452.30695152-.23282242.60744858-.375.89999962-.26178551.53398514-.2179184,1.16721344.11499977,1.65999985l1.80500031,2.52000046-1.62000084,1.61000061-2.53999901-1.79999924c-.49449921-.3234787-1.12203979-.3651886-1.65500069-.11000061-.29423332.14223289-.59639931.2674408-.90500069.375-.56052971.19346809-.97699165.66888237-1.09499931,1.25l-.5,3h-2.30999947l-.5-3c-.11800766-.58111763-.53447056-1.05653191-1.09500027-1.25-.31365204-.10712624-.6208334-.23233604-.92000008-.375-.53633881-.25852203-1.16929626-.2148037-1.66499996.11499977l-2.52999973,1.78499985-1.61999989-1.61000061,1.79500008-2.5c.32901382-.49227142.37276745-1.12195587.11499977-1.65500069-.14225864-.2925148-.26746845-.59301567-.375-.89999962-.19757462-.56066704-.67673492-.97517776-1.26000023-1.09000015l-3.23000002-.5v-2.3049984l3.23000002-.5c.5832653-.11482239,1.06242561-.52933311,1.26000023-1.09000015.10727787-.30708027.2324934-.60759735.375-.89999962.25984478-.53264236.21601486-1.163414-.11499977-1.65499973l-1.84000015-2.57000065,1.625-1.625,2.56999969,1.82999992c.49603844.32882118,1.1284647.37250233,1.66499996.11499977.29420662-.14229393.59637451-.26750183.90499973-.375.56052876-.19346905.97699165-.66888332,1.09499931-1.25l.5-3.16499996h2.28999901l.5,3.16499996c.11893272.58231354.53753471,1.05799675,1.10000038,1.25.30870819.10727787.61088943.23249054.90500069.375.53653526.25750351,1.16896248.21382236,1.66500092-.11499977l2.60499954-1.82999992,1.62000084,1.60999966-1.85000038,2.56499958c-.32901382.49227142-.37276649,1.12195492-.11499977,1.65499973.14397812.29239273.27085876.59289837.37999916.89999962.19670677.56125736.67627525.97612095,1.26000023,1.0899992l3,.5v2.27499962l-3.00499916.53500175ZM55.37194762,40.42586704l-2.67500114-.53999901c-.13492393-.38208961-.29185295-.7560482-.46999931-1.11999989l1.5-2.26500034c.46112823-.69010353.36891556-1.61013985-.21999931-2.19499969l-1.68499947-1.67500019c-.5906868-.58940125-1.51470947-.68138552-2.20999908-.21999979l-2.28000069,1.50000048c-.3674202-.17657948-.74471283-.3318367-1.12999916-.46500015l-.5150032-2.6600008c-.16457176-.81598568-.88258743-1.40211964-1.71500015-1.4000001h-2.37999916c-.83172035-.00016975-1.54865646.58508396-1.71500015,1.4000001l-.53499985,2.67000008c-.38528252.13317394-.7625742.28843117-1.13000011.46500015l-2.27999973-1.5c-.69528961-.4613862-1.61931324-.36940193-2.21000004.21999979l-1.68499994,1.67499971c-.58891535.58485985-.6811285,1.50489616-.21999979,2.19499969l1.5,2.26500034c-.1785326.36548615-.33546829.74113178-.47000027,1.125l-2.68499994.53499985c-.80864716.16306114-1.39264011.87010956-1.4000001,1.69500065v2.36499977c.00312042.83019447.59071016,1.54324722,1.40499973,1.70499992l2.68000031.53499985c.14215565.37573814.30575752.74300957.48999977,1.10000038l-1.5,2.26499939c-.48761225.69483757-.400877,1.64046097.2050004,2.23500061l1.68499994,1.67499924c.5906868.58940125,1.51471043.68138504,2.21000004.21999931l2.27999973-1.5c.36717987.1771183.74450397.33238983,1.13000011.46500015l.52999973,2.6400013c.16634464.81491661.8832798,1.40016937,1.71500015,1.39999962h2.37999916c.83172035.00016975,1.54865646-.58508301,1.71500015-1.39999962l.54000092-2.66500092c.3852787-.13318443.76256943-.2884407,1.12999916-.46500015l2.28000069,1.5c.69528961.46138573,1.61931229.36940193,2.20999908-.21999931l1.68000031-1.64999962c.60179138-.58323288.7006855-1.51325607.23500061-2.20999908l-1.5-2.26499939c.1787014-.36540985.33563995-.74106598.46999931-1.125l2.68000031-.53499985c.79243088-.1841507,1.35246849-.89145851,1.35000038-1.70500183v-2.36499977c.00120163-.82594395-.57682228-1.53960514-1.38500023-1.71000004l-.00499916.00499916Z"/>
   <rect class="cls-1" x=".36" y=".36" width="71.28" height="71.28"/>
</svg>