<svg xmlns="http://www.w3.org/2000/svg" version="1.1" viewBox="0 0 72 72">
  <path d="M53,64.5H18.8c-6.3,0-11.5-5.2-11.5-11.5V18.8c0-6.3,5.2-11.5,11.5-11.5h34.2c6.3,0,11.5,5.2,11.5,11.5v34.2c0,6.3-5.2,11.5-11.5,11.5ZM18.8,10.3c-4.7,0-8.5,3.8-8.5,8.5v34.2c0,4.7,3.8,8.5,8.5,8.5h34.2c4.7,0,8.5-3.8,8.5-8.5V18.8c0-4.7-3.8-8.5-8.5-8.5H18.8Z"/>
  <polygon points="20.4 35 20.4 25.2 32.6 23.5 32.6 35.1 20.4 35"/>
  <polygon points="20.4 37 20.4 46.7 32.6 48.3 32.6 36.9 20.4 37"/>
  <polygon points="34.5 35 34.5 23.3 50.3 21 50.3 35.1 34.5 35"/>
  <polygon points="34.5 37 34.5 48.6 50.3 50.8 50.3 36.9 34.5 37"/>
</svg>