<?xml version="1.0" encoding="UTF-8"?>
<svg xmlns="http://www.w3.org/2000/svg" width="1in" height="1in" viewBox="0 0 72 72">
  <defs>
    <style>
      .cls-1 {
        fill: none;
      }

      .cls-2 {
        fill-rule: evenodd;
      }
    </style>
  </defs>
  <g id="SVG_icons" data-name="SVG icons">
    <g id="Layer_7" data-name="Layer 7">
      <path class="cls-2" d="M58.30677924,41.5416598l-15.08469942-15.08469942c-.39607908-.39607908-1.09746913-.39607908-1.49354821,0l-15.18131246,15.18165628c-.41258238.41223856-.41258238,1.08130965,0,1.49354821l15.0843556,15.0843556c.20629119.20629119.47653265.30943678.74677411.30943678s.54048292-.10314559.74677411-.30943678l15.18165628-15.18131246c.19803954-.19803954.30943678-.46656191.30943678-.74677411s-.11139724-.54873456-.30943678-.74677411ZM42.37834885,56.56915866l-14.18376789-14.18376789,14.28072475-14.28106857,14.18411171,14.18411171-14.28106857,14.28072475Z"/>
      <path d="M46.8599912,43.5712376c-.99173934,1.63454771-2.08234245,2.97250411-3.27142163,4.01386918s-2.22269024,1.56204761-3.10044546,1.56204761c-1.20226102,0-1.80358538-.97080348-1.80358538-2.91318585,0-2.67126038.87659212-4.98467267,2.62977636-6.94023687,1.75318424-1.9551765,3.82932348-2.9329586,6.2284177-2.9329586.91381142,0,1.69153977.11398411,2.33318504.34234005-.04419792.15818204-.07056159.2547196-.07909102.2896127l-.15818204.69786193c-.10545469.48268783-.16283445.76377111-.17136387.84247443l-.84363753,5.81978077-.11863653.84247443c-.11437182.833945-.17136387,1.39145914-.17136387,1.67215472,0,.37723314.1093317.56604356.32799511.56604356.73508123,0,1.48722131-.82153857,2.25719563-2.46500341.23610995.14073549.35435878.28147098.35435878.42181876,0,.30783465-.37800854.92738096-1.13363793,1.85863893-1.02818324,1.26545629-1.98192787,1.89818444-2.8604585,1.89818444-.64164527,0-.96227406-.43034819-.96227406-1.29181997,0-.26363673.03101609-.62807573.09266056-1.09409242l.13259377-1.05454691.17213928-1.1600016.1457756-.97545589ZM47.61251898,38.35006728c-.80021501-.44740704-1.60934714-.67111055-2.4270087-.67111055-1.2309509,0-2.26417425.75020157-3.09928236,2.25099242-.83549581,1.50079084-1.25304986,3.36136828-1.25304986,5.58134461,0,1.14100425.33846303,1.71131253,1.01577681,1.71131253.78238076,0,1.72759597-.59667195,2.83525793-1.79040354,1.49497533-1.60585783,2.40025733-3.49279895,2.7170091-5.66004793l.21129708-1.42208753Z"/>
      <path d="M50.52197266,17.97998047l-4.82714844-4.69677734c-.39355469-.38232422-1.02099609-.37695312-1.40673828.01171875l-27.57519531,27.74267578c-.09082031.09130859-.16308594.19970703-.21289062.31835938l-3.39013672,8.08447266c-.15625.37353516-.07226562.8046875.21289062,1.09179688.19189453.19238281.44824219.29492188.70947266.29492188.12841797,0,.2578125-.02490234.38134766-.07568359l8.21777344-3.38769531c.12695312-.05175781.24121094-.12939453.33642578-.22753906l1.66943359-1.71972656c.38476562-.39648438.37548828-1.02978516-.02050781-1.4140625-.39599609-.38525391-1.02978516-.37548828-1.4140625.02099609l-1.52490234,1.57080078-5.78613281,2.38476562,2.37744141-5.66992188,23.50518799-23.64770508,3.3949585,3.30163574-1.33764648,1.34606934c-.38916016.39208984-.38720703,1.02539062.00439453,1.41455078.39257812.38964844,1.02490234.38720703,1.41455078-.00439453l5.28369141-5.31738281c.18798828-.18945312.29296875-.44628906.29052734-.71337891s-.11132812-.52197266-.30273438-.70849609ZM46.2265625,20.89898682l-3.39483643-3.30151367,2.17755127-2.19073486,3.39355469,3.30224609-2.17626953,2.19000244Z"/>
      <path d="M53,64.5H18.82470703c-6.34130859,0-11.5-5.15869141-11.5-11.5V18.82470703c0-6.34130859,5.15869141-11.5,11.5-11.5h34.17529297c6.34130859,0,11.5,5.15869141,11.5,11.5v34.17529297c0,6.34130859-5.15869141,11.5-11.5,11.5ZM18.82470703,10.32470703c-4.68701172,0-8.5,3.81298828-8.5,8.5v34.17529297c0,4.68701172,3.81298828,8.5,8.5,8.5h34.17529297c4.68701172,0,8.5-3.81298828,8.5-8.5V18.82470703c0-4.68701172-3.81298828-8.5-8.5-8.5H18.82470703Z"/>
    </g>
  </g>
  <g id="Rectangles">
    <rect class="cls-1" x=".36" y=".36" width="71.28" height="71.28"/>
  </g>
</svg>