<?xml version="1.0" encoding="UTF-8"?>
<svg xmlns="http://www.w3.org/2000/svg" width="1in" height="1in" viewBox="0 0 72 72">
  <defs>
    <style>
      .cls-1 {
        fill: none;
      }
    </style>
  </defs>
  <g id="SVG_icons" data-name="SVG icons">
    <g id="Layer_7" data-name="Layer 7">
      <path d="M53.17529297,64.5H19c-6.34130859,0-11.5-5.15869141-11.5-11.5V18.82470703c0-6.34130859,5.15869141-11.5,11.5-11.5h34.17529297c6.34130859,0,11.5,5.15869141,11.5,11.5v34.17529297c0,6.34130859-5.15869141,11.5-11.5,11.5ZM19,10.32470703c-4.68701172,0-8.5,3.81298828-8.5,8.5v34.17529297c0,4.68701172,3.81298828,8.5,8.5,8.5h34.17529297c4.68701172,0,8.5-3.81298828,8.5-8.5V18.82470703c0-4.68701172-3.81298828-8.5-8.5-8.5H19Z"/>
      <path d="M22.67103392,47.53183156c-3.91010708-.03787539-7.04917142-3.23834585-7.01129696-7.14845293.03787477-3.91010708,3.23834616-7.04917142,7.14845324-7.01129727.53428604.00003114,1.06680252.06139117,1.58709333.1828742,1.15290226-6.48489737,7.34456184-10.80733283,13.82945921-9.65442995,3.52811675.62723734,6.58719605,2.8076634,8.331071,5.93814835.35273045-.04898114.70848057-.07298898,1.06459445-.07184415,4.64371915,0,8.4383763,3.98406275,8.4383763,8.88250025,0,4.7939376-3.54646895,8.69309465-8.0726254,8.8694362h-4.571875c-.72142129,0-1.30625-.58482871-1.30625-1.30625s.58482871-1.30625,1.30625-1.30625h4.4935007c3.069688-.1175627,5.5123741-2.86721835,5.5123741-6.2569387s-2.6125-6.27653165-5.81934365-6.27653165c-.32237433-.00380199-.64423293.02685186-.96009455.0914371-.90321668.20686087-1.83089715-.2300104-2.2467491-1.05805682-2.33931983-4.5810075-7.94935473-6.39825386-12.53036223-4.05893279-2.76571694,1.41233074-4.64556035,4.11023723-5.01257567,7.19393229-.1237129,1.10407933-1.11903565,1.8988247-2.22311623,1.77511305-.15283824-.01712639-.30320991-.051723-.44816512-.10311215-.45372485-.1569828-.93063785-.2364683-1.4107499-.2351254-2.46726325-.03066008-4.49223005,1.94459558-4.52289075,4.41186007-.03066008,2.46726201,1.9445962,4.49223005,4.41185945,4.52289013h12.86656175c.72142129,0,1.30625.58482871,1.30625,1.30625s-.58482871,1.30625-1.30625,1.30625l-12.85349895.00653015Z"/>
    </g>
  </g>
  <g id="Rectangles">
    <rect class="cls-1" x=".36" y=".36" width="71.28" height="71.28"/>
  </g>
</svg>