<?xml version="1.0" encoding="UTF-8"?>
<svg xmlns="http://www.w3.org/2000/svg" viewBox="0 0 72 72">
    <style>
      .cls-1 {
        fill: none;
      }
    </style>
  <path d="M50.69726562,17.97998047l-4.82714844-4.69677734c-.39355469-.38232422-1.02099609-.37695312-1.40673828.01171875l-27.57470703,27.74267578c-.09082031.09130859-.16308594.19970703-.21289062.31835938l-3.390625,8.08447266c-.15625.37353516-.07226562.80419922.21289062,1.09179688.19189453.19238281.44824219.29492188.70947266.29492188.12841797,0,.2578125-.02441406.38085938-.07568359l8.21875-3.38769531c.12304688-.05029297.23486328-.125.32861328-.21972656l7.65771484-7.70800781c.38916016-.39160156.38720703-1.02490234-.00488281-1.4140625-.390625-.38867188-1.02441406-.38671875-1.4140625.00488281l-7.515625,7.56494141-5.79199219,2.38720703,2.37792969-5.66992188,23.50494385-23.64788818,3.39080811,3.29803467-3.9074707,3.92456055c-.38964844.39160156-.38867188,1.02441406.00292969,1.4140625.39208984.39013672,1.02490234.38818359,1.4140625-.00292969l7.85839844-7.89257812c.18847656-.18945312.29345703-.44628906.29150391-.71337891s-.11132812-.52246094-.30273438-.70898438ZM46.39898682,20.8961792l-3.39172363-3.29888916,2.17730713-2.19055176,3.39306641,3.30126953-2.1786499,2.18817139Z"/>
  <path d="M53.17529297,64.5H19c-6.34130859,0-11.5-5.15869141-11.5-11.5V18.82470703c0-6.34130859,5.15869141-11.5,11.5-11.5h34.17529297c6.34130859,0,11.5,5.15869141,11.5,11.5v34.17529297c0,6.34130859-5.15869141,11.5-11.5,11.5ZM19,10.32470703c-4.68701172,0-8.5,3.81298828-8.5,8.5v34.17529297c0,4.68701172,3.81298828,8.5,8.5,8.5h34.17529297c4.68701172,0,8.5-3.81298828,8.5-8.5V18.82470703c0-4.68701172-3.81298828-8.5-8.5-8.5H19Z"/>
  <polygon points="34.04335277 32.25381043 34.04335277 30.35999966 53.51000023 30.35999966 53.51000023 32.25381043 34.04335277 32.25381043 34.04335277 32.25381043"/>
  <polygon points="34.04335277 37.03586581 34.04335277 35.14205504 53.51000023 35.14205504 53.51000023 37.03586581 34.04335277 37.03586581 34.04335277 37.03586581"/>
  <polygon points="34.04335277 41.8179198 34.04335277 39.92410903 53.51000023 39.92410903 53.51000023 41.8179198 34.04335277 41.8179198 34.04335277 41.8179198"/>
  <polygon points="34.04335277 46.59997518 34.04335277 44.70616441 53.51000023 44.70616441 53.51000023 46.59266161 34.04335277 46.59266161 34.04335277 46.59997518"/>
  <polygon points="34.04335277 51.38203057 34.04335277 49.4882198 53.51000023 49.4882198 53.51000023 51.37471699 34.04335277 51.37471699 34.04335277 51.38203057"/>
  <polygon points="34.04335277 56.15677238 34.04335277 54.27027239 53.51000023 54.27027239 53.51000023 56.15677238 34.04335277 56.15677238 34.04335277 56.15677238"/>
  <rect class="cls-1" x=".36" y=".36" width="71.28" height="71.28"/>
</svg>