<?xml version="1.0" encoding="UTF-8"?>
<svg id="Layer_1" xmlns="http://www.w3.org/2000/svg" version="1.1" viewBox="0 0 72 72">
  <!-- Generator: Adobe Illustrator 29.0.1, SVG Export Plug-In . SVG Version: 2.1.0 Build 192)  -->
  <path d="M50.4,18l-4.8-4.7c-.4-.4-1-.4-1.4,0l-27.6,27.7s-.2.2-.2.3l-3.4,8.1c-.2.4,0,.8.2,1.1.2.2.4.3.7.3h.4l8.2-3.4c.1,0,.2,0,.3-.2l1.7-1.7c.4-.4.4-1,0-1.4s-1-.4-1.4,0l-1.5,1.6-5.8,2.4,2.4-5.7,23.5-23.6,3.4,3.3-1.3,1.3c-.4.4-.4,1,0,1.4s1,.4,1.4,0l5.3-5.3c.2-.2.3-.4.3-.7s0-.5-.3-.7h-.1ZM46.1,20.9l-3.4-3.3,2.2-2.2,3.4,3.3s-2.2,2.2-2.2,2.2Z"/>
  <path d="M52.9,64.5H18.7c-6.3,0-11.5-5.2-11.5-11.5V18.8c0-6.3,5.2-11.5,11.5-11.5h34.2c6.3,0,11.5,5.2,11.5,11.5v34.2c0,6.3-5.2,11.5-11.5,11.5ZM18.7,10.3c-4.7,0-8.5,3.8-8.5,8.5v34.2c0,4.7,3.8,8.5,8.5,8.5h34.2c4.7,0,8.5-3.8,8.5-8.5V18.8c0-4.7-3.8-8.5-8.5-8.5,0,0-34.2,0-34.2,0Z"/>
  <path d="M51.5,35.3c-.2-.2-.5-.2-.7,0l-3.2,3.2-1.2-1.2,3.2-3.2s0-.2,0-.3,0-.2,0-.3l-6.8-6.8c-.2-.2-.5-.2-.7,0l-6.8,6.8c-.2.2-.2.5,0,.7l3.2,3.2-1.2,1.2-3.2-3.2c-.2-.2-.5-.2-.7,0l-6.8,6.8c-.2.2-.2.5,0,.7l6.8,6.8s.2,0,.3,0,.2,0,.3,0l3.4-3.4,1.2,1.2-3.4,3.4c-.2.2-.2.5,0,.7l6.8,6.8s.2,0,.3,0,.2,0,.3,0l7-7s0-.2,0-.3,0-.2,0-.3l-3.3-3.3,1-1,3.3,3.3s.2,0,.3,0,.2,0,.3,0l7.1-7.1s0-.2,0-.3,0-.2,0-.3l-6.8-6.8ZM36.8,33.8l5.8-5.8,5.7,5.7-2.7,2.7-2.1-2.1c0-.2.2-.4.2-.7,0-.7-.5-1.2-1.2-1.2s-1.2.5-1.2,1.2,0,.5.2.7l-2.1,2.1-2.6-2.6ZM41.9,34.7c.1.1.4.2.6.2s.4,0,.6-.2l2.2,2.2-2.7,2.7-2.8-2.8,2.1-2.1h0ZM33.8,48.3l-5.7-5.7,5.8-5.8,2.6,2.6-2,2c-.2,0-.4-.2-.6-.2-.7,0-1.2.5-1.2,1.2s.5,1.2,1.2,1.2.4,0,.6-.2l2.1,2.1s-2.8,2.8-2.8,2.8ZM34.9,41.7l2-2,2.7,2.7-2.6,2.6-2.1-2.1c0-.2.2-.4.2-.6s0-.5-.2-.6ZM48.2,51.2l-5.8,5.8-5.7-5.7,2.8-2.8,1.9,1.9c0,.2-.2.4-.2.6,0,.7.5,1.2,1.2,1.2s1-.5,1.2-1.2,0-.4-.1-.7l1.9-1.9,2.8,2.8ZM43.1,50c-.2,0-.4-.2-.6-.2s-.5,0-.6.2l-1.9-1.9,2.6-2.6,2.5,2.5-2,2h0ZM45.9,47.1l-3.1-3.1c-.2-.2-.5-.2-.7,0l-3.1,3.1-1.2-1.2,3.1-3.1s0-.2,0-.3,0-.2,0-.3l-3.2-3.2,1.2-1.2,3.2,3.2s.2,0,.3,0,.2,0,.3,0l3.3-3.3,1.2,1.2-3.3,3.3c-.2.2-.2.5,0,.7l3.1,3.1-1.1,1.1ZM50.1,42.9l-2.1,2.1-2.6-2.6,2.7-2.7,2,2c0,.2-.2.4-.2.6s0,.4.2.6ZM48.4,45.4l2.1-2.1c.2,0,.4.2.7.2.7,0,1.2-.5,1.2-1.2s-.5-1.2-1.2-1.2-.5,0-.7.2l-2-2,2.7-2.7,5.7,5.7-5.8,5.8-2.7-2.7Z"/>
</svg>