<?xml version="1.0" encoding="UTF-8"?>
<svg xmlns="http://www.w3.org/2000/svg" width="1in" height="1in" viewBox="0 0 72 72">
  <defs>
    <style>
      .cls-1 {
        fill: none;
      }
    </style>
  </defs>
  <g id="SVG_icons" data-name="SVG icons">
    <g id="Layer_7" data-name="Layer 7">
      <path d="M50.37499996,17.97998047l-4.82666016-4.69677734c-.39306641-.38232422-1.02050781-.37695312-1.40673828.01171875l-27.57519531,27.74267578c-.09082031.09130859-.16308594.19970703-.21289062.31835938l-3.39013672,8.08447266c-.15625.37353516-.07226562.8046875.21289062,1.09179688.19189453.19238281.44824219.29492188.70947266.29492188.12841797,0,.2578125-.02490234.38134766-.07568359l8.21826172-3.38769531c.12646484-.05175781.24072266-.12939453.3359375-.22753906l1.66943359-1.71972656c.38476562-.39648438.37548828-1.02978516-.02050781-1.4140625-.39648438-.38525391-1.02978516-.37548828-1.4140625.02099609l-1.52490234,1.57080078-5.78613281,2.38476562,2.37744141-5.66992188,23.50518799-23.64764404,3.39447021,3.30157471-1.33764648,1.34606934c-.38916016.39208984-.38720703,1.02539062.00439453,1.41455078.39257812.38964844,1.02490234.38720703,1.41455078-.00439453l5.28369141-5.31738281c.18798828-.18945312.29296875-.44628906.29052734-.71337891s-.11132812-.52197266-.30273438-.70849609ZM46.0795898,20.89898682l-3.39434814-3.30145264,2.17755127-2.1907959,3.39355469,3.30175781-2.17675781,2.19049072Z"/>
      <path d="M52.85351559,64.5H18.67773434c-6.34130859,0-11.5-5.15869141-11.5-11.5V18.82470703c0-6.34130859,5.15869141-11.5,11.5-11.5h34.17578125c6.34130859,0,11.5,5.15869141,11.5,11.5v34.17529297c0,6.34130859-5.15869141,11.5-11.5,11.5ZM18.67773434,10.32470703c-4.68701172,0-8.5,3.81298828-8.5,8.5v34.17529297c0,4.68701172,3.81298828,8.5,8.5,8.5h34.17578125c4.68701172,0,8.5-3.81298828,8.5-8.5V18.82470703c0-4.68701172-3.81298828-8.5-8.5-8.5H18.67773434Z"/>
      <path d="M58.33776852,42.09008789l-6.77648926-6.77648926c-.17797852-.17791748-.49304199-.17791748-.67095947,0l-3.2512207,3.25128174-1.22668457-1.22668457,3.25128174-3.2512207c.08892822-.08892822.13897705-.20959473.13897705-.33544922s-.05004883-.246521-.13897705-.33544922l-6.77648926-6.77655029c-.17791748-.17791748-.49304199-.17791748-.67095947,0l-6.81988525,6.82006836c-.18536377.18518066-.18536377.48577881,0,.67095947l3.15411377,3.15411377-1.24279785,1.24285889-3.15423584-3.15423584c-.17791748-.17791748-.49304199-.17791748-.67095947,0l-6.81988525,6.82006836c-.18536377.18518066-.18536377.48577881,0,.67095947l6.77636719,6.77630615c.09265137.0927124.21405029.13903809.33544922.13903809s.24279785-.04632568.33544922-.13903809l3.31195068-3.31188965,1.22668457,1.22680664-3.31182861,3.31188965c-.18536377.18518066-.18536377.48571777,0,.67095947l6.77630615,6.77630615c.0927124.0927124.21411133.13903809.33551025.13903809s.24279785-.04632568.33544922-.13903809l6.82006836-6.81988525c.08898926-.08898926.13897705-.20959473.13897705-.33544922,0-.12591553-.04998779-.246521-.13897705-.33551025l-3.3057251-3.3057251,1.24285889-1.24285889,3.30560303,3.30566406c.0927124.0927124.21411133.13903809.33551025.13903809s.24279785-.04632568.33544922-.13903809l6.82006836-6.81988525c.08892822-.08892822.13897705-.20959473.13897705-.33544922,0-.12591553-.05004883-.246521-.13897705-.33551025ZM36.7757568,33.79290771l5.77380371-5.77392578,5.73474121,5.73468018-2.72821045,2.72821045-2.14056396-2.14056396c.14624023-.19958496.24975586-.43304443.24975586-.69940186,0-.66619873-.5401001-1.20629883-1.20629883-1.20629883-.66625977,0-1.20629883.5401001-1.20629883,1.20629883,0,.26409912.10229492.4954834.24627686.69415283l-2.08996582,2.09008789-2.63323975-2.63323975ZM41.89343258,34.68865967c.17095947.09289551.35723877.1595459.56555176.1595459.20599365,0,.39074707-.06494141.56036377-.15600586l2.16314697,2.16314697-2.67211914,2.67211914-2.72784424-2.7277832,2.11090088-2.11102295ZM33.77661129,48.26123047l-5.73461914-5.73455811,5.77380371-5.77398682,2.63342285,2.63342285-1.97174072,1.97180176c-.18286133-.1116333-.38555908-.19317627-.61553955-.19317627-.66619873,0-1.20629883.5401001-1.20629883,1.20629883s.5401001,1.20629883,1.20629883,1.20629883c.22991943,0,.43255615-.08154297.61541748-.19317627l2.08813477,2.08825684-2.78887939,2.78881836ZM34.85571285,41.72680664l1.96704102-1.96716309,2.7277832,2.7277832-2.61151123,2.6114502-2.08337402-2.08349609c.12310791-.18908691.21264648-.40185547.21264648-.64434814,0-.24243164-.08947754-.45513916-.21258545-.64422607ZM48.22460934,51.16149902l-5.77392578,5.77380371-5.73461914-5.73461914,2.78875732-2.78881836,1.93658447,1.93670654c-.11151123.18280029-.19299316.38537598-.19299316.61517334,0,.66625977.5401001,1.20635986,1.20629883,1.20635986s1.20629883-.5401001,1.20629883-1.20635986c0-.2298584-.08148193-.43243408-.1930542-.61529541l1.97180176-1.97180176,2.78485107,2.78485107ZM43.09918209,49.97015381c-.18914795-.12316895-.4019165-.21270752-.64447021-.21270752s-.45544434.08959961-.64459229.21282959l-1.9317627-1.9319458,2.61151123-2.61157227,2.57635498,2.57635498-1.96704102,1.96704102ZM45.92474361,47.14459229l-3.097229-3.097229c-.17791748-.17791748-.49304199-.17791748-.67095947,0l-3.13452148,3.13464355-1.22668457-1.22674561,3.13458252-3.13452148c.08898926-.08892822.13903809-.20959473.13903809-.33544922,0-.12591553-.05004883-.246521-.13903809-.33551025l-3.24871826-3.24871826,1.24279785-1.24285889,3.24865723,3.24871826c.0927124.09265137.21411133.13897705.33551025.13897705s.24279785-.04632568.33544922-.13897705l3.19525146-3.19519043,1.22668457,1.22668457-3.19512939,3.19525146c-.18536377.18518066-.18536377.48577881,0,.67095947l3.09716797,3.09710693-1.24285889,1.24285889ZM50.13702389,42.93231201l-2.11090088,2.11090088-2.57629395-2.57623291,2.67211914-2.67218018,2.01159668,2.01159668c-.09106445.1696167-.15600586.35437012-.15600586.56036377,0,.20825195.06658936.39459229.15948486.56555176ZM51.18438717,48.20153809l-2.784729-2.78479004,2.08996582-2.08996582c.19866943.14398193.43005371.24627686.69421387.24627686.66619873,0,1.20629883-.54003906,1.20629883-1.20629883,0-.66619873-.5401001-1.20629883-1.20629883-1.20629883-.26635742,0-.49981689.10351562-.69940186.24975586l-1.98895264-1.98895264,2.72814941-2.72821045,5.73474121,5.73468018-5.77398682,5.77380371Z"/>
    </g>
  </g>
  <g id="Rectangles">
    <rect class="cls-1" x=".35999996" y=".36" width="71.28" height="71.28"/>
  </g>
</svg>