<?xml version="1.0" encoding="UTF-8"?>
<svg xmlns="http://www.w3.org/2000/svg" width="1in" height="1in" viewBox="0 0 72 72">
  <defs>
    <style>
      .cls-1 {
        fill: none;
      }
    </style>
  </defs>
  <g id="SVG_icons" data-name="SVG icons">
    <g id="Layer_7" data-name="Layer 7">
      <path d="M53.09100145,64.5H18.91570848c-6.34130859,0-11.5-5.15869141-11.5-11.5V18.82470703c0-6.34130859,5.15869141-11.5,11.5-11.5h34.17529297c6.34130859,0,11.5,5.15869141,11.5,11.5v34.17529297c0,6.34130859-5.15869141,11.5-11.5,11.5ZM18.91570848,10.32470703c-4.68701172,0-8.5,3.81298828-8.5,8.5v34.17529297c0,4.68701172,3.81298828,8.5,8.5,8.5h34.17529297c4.68701172,0,8.5-3.81298828,8.5-8.5V18.82470703c0-4.68701172-3.81298828-8.5-8.5-8.5H18.91570848Z"/>
      <path d="M35.97926837,19.11419999c-9.46262544,0-17.1336001,7.67097409-17.1336001,17.13360068,0,9.46262428,7.67097351,17.13359751,17.1336001,17.13359751,9.46262428,0,17.13359982-7.67097322,17.13359982-17.13359751-.0100024-9.45847931-7.67512051-17.12359655-17.13359982-17.13360068ZM20.67881724,36.94960058h6.28595021c.03856487,2.18221098.30828819,4.35418877.80464995,6.47954945h-5.3058497c-1.07064084-1.99974213-1.68044298-4.21363585-1.78475046-6.47954945ZM36.88676837,27.26960058v-6.22545055c1.97835028.55660005,3.73284889,2.89190042,4.88234982,6.20730014h-4.88234982v.01815042ZM42.33176837,29.08460058c.49699066,1.98074702.78093521,4.00892353.84700092,6.05h-6.29200092v-6.05h5.445ZM35.07176837,21.04415003v6.22545055h-4.88235097c1.14949977-3.3154003,2.90399954-5.62045055,4.88235097-6.22545055ZM35.07176837,29.06645017v6.05000115h-6.29200092c.06606571-2.04107647.35001026-4.06925298.84699977-6.05l5.44500115-.00000115ZM26.96476745,35.13460058h-6.26175023c.15230817-2.11614988.74583218-4.17699691,1.74240007-6.05h5.31189984c-.46448747,1.98533396-.72998273,4.0120138-.79254968,6.05ZM28.77976745,36.94960058h6.29200092v6.47954945h-5.445c-.52700595-2.12076567-.81116398-4.29457823-.84700092-6.47954945ZM35.07176837,45.24415003v6.17100046c-1.97230014-.55659889-3.72074977-2.87375-4.87024954-6.17100046h4.87024954ZM36.88676837,51.4090992v-6.16494917h4.87024954c-1.14950092,3.31539972-2.89795055,5.63859982-4.87024954,6.18914972v-.02420055ZM36.88676837,43.42915003v-6.47954945h6.29199862c-.04375532,2.18589899-.33603367,4.35972309-.87119917,6.47954945h-5.445.02420055ZM44.987718,36.94960058h6.29200092c-.11006336,2.27652298-.73034622,4.49920515-1.815,6.50375h-5.27560074c.4959798-2.13347984.76368372-4.31365526.79859982-6.50375ZM44.987718,35.13460058c-.05859507-2.03758001-.32003767-4.06425408-.78045055-6.05h5.31189926c.99656847,1.87300309,1.59009132,3.93385012,1.74240065,6.05h-6.27990065.00605129ZM48.38781736,27.26960058h-4.68875c-.59386211-2.01741827-1.57169281-3.90118422-2.87979898-5.54785005,3.03479008,1.01783973,5.67636154,2.95724837,7.55644871,5.54785005h.01210028ZM31.13926722,21.72174996c-1.30810617,1.64666583-2.28593918,3.53043235-2.87980014,5.54785062h-4.67664972c1.88008832-2.59060167,4.52165978-4.53001089,7.55644986-5.54785062ZM23.60701733,45.24415003h4.66455002c.59351593,2.00412251,1.56711511,3.87532198,2.86769986,5.51155037-3.02107081-1.01255985-5.65306222-2.93845867-7.53224988-5.51155037ZM40.81926837,50.77990095c1.30332422-1.64345209,2.27704918-3.52310999,2.86769871-5.53575092h4.66454945c-1.87556139,2.58207632-4.50794283,4.51671743-7.53224815,5.53575092Z"/>
    </g>
  </g>
  <g id="Rectangles">
    <rect class="cls-1" x=".36" y=".36" width="71.28" height="71.28"/>
  </g>
</svg>