<?xml version="1.0" encoding="UTF-8"?>
<svg xmlns="http://www.w3.org/2000/svg" width="1in" height="1in" viewBox="0 0 72 72">
  <defs>
    <style>
      .cls-1 {
        fill: none;
      }
    </style>
  </defs>
  <g id="SVG_icons" data-name="SVG icons">
    <g id="Layer_7" data-name="Layer 7">
      <path d="M52.92227482,64.5H18.74698185c-6.34130859,0-11.5-5.15869141-11.5-11.5V18.82470703c0-6.34130859,5.15869141-11.5,11.5-11.5h34.17529297c6.34130859,0,11.5,5.15869141,11.5,11.5v34.17529297c0,6.34130859-5.15869141,11.5-11.5,11.5ZM18.74698185,10.32470703c-4.68701172,0-8.5,3.81298828-8.5,8.5v34.17529297c0,4.68701172,3.81298828,8.5,8.5,8.5h34.17529297c4.68701172,0,8.5-3.81298828,8.5-8.5V18.82470703c0-4.68701172-3.81298828-8.5-8.5-8.5H18.74698185Z"/>
      <path d="M43.58043595,56.56986459h-15.14825487c-2.69559665-.00311685-4.88003133-2.18755477-4.88314926-4.88315034v-31.48212268c.00311793-2.69559665,2.18755369-4.88003187,4.88315034-4.8831498h15.14825379c2.69559773.00311793,4.88003133,2.18755315,4.88315034,4.8831498v31.48212268c-.00311685,2.69559773-2.18755262,4.88003349-4.88315034,4.88315034ZM28.43218108,17.01894457c-1.7580926.0031147-3.18253176,1.4275544-3.18564646,3.185647v31.48212268c.00311362,1.75809368,1.42755494,3.18253284,3.18564754,3.18564754h15.14825379c1.75809368-.0031147,3.18253284-1.42755386,3.18564754-3.18564754v-31.48212268c-.0031147-1.7580926-1.42755386-3.18253284-3.18564754-3.185647h-15.14825487Z"/>
      <rect x="33.75207938" y="18.9717724" width="4.50845934" height=".74052033"/>
      <path d="M44.71830905,50.13169107h-17.424c-.20047918,0-.363-.16252082-.363-.363v-27.99455823c0-.20047918.16252082-.363.363-.363h17.424c.20047918,0,.363.16252082.363.363v27.99455823c0,.20047918-.16252082.363-.363.363ZM27.62826839,49.40569107h16.698v-27.29759889h-16.698v27.29759889Z"/>
    </g>
  </g>
  <g id="Rectangles">
    <rect class="cls-1" x=".36" y=".36" width="71.28" height="71.28"/>
  </g>
</svg>