<?xml version="1.0" encoding="UTF-8"?>
<svg id="Layer_1" xmlns="http://www.w3.org/2000/svg" version="1.1" viewBox="0 0 72 72">
  <!-- Generator: Adobe Illustrator 29.0.1, SVG Export Plug-In . SVG Version: 2.1.0 Build 192)  -->
  <defs>
    <style>
      .st0 {
        fill-rule: evenodd;
      }
    </style>
  </defs>
  <path d="M50.5,18l-4.8-4.7c-.4-.4-1-.4-1.4,0l-27.6,27.7c0,0-.2.2-.2.3l-3.4,8.1c-.2.4,0,.8.2,1.1.2.2.4.3.7.3s.3,0,.4,0l8.2-3.4c.1,0,.2-.1.3-.2l2.9-3c.4-.4.4-1,0-1.4-.4-.4-1-.4-1.4,0l-2.8,2.8-5.8,2.4,2.4-5.7,23.5-23.6,3.4,3.3-3.3,3.3c-.4.4-.4,1,0,1.4.4.4,1,.4,1.4,0l7.2-7.2c.2-.2.3-.4.3-.7,0-.3-.1-.5-.3-.7ZM46.2,20.9l-3.4-3.3,2.2-2.2,3.4,3.3-2.2,2.2Z"/>
  <path d="M53,64.5H18.8c-6.3,0-11.5-5.2-11.5-11.5V18.8c0-6.3,5.2-11.5,11.5-11.5h34.2c6.3,0,11.5,5.2,11.5,11.5v34.2c0,6.3-5.2,11.5-11.5,11.5ZM18.8,10.3c-4.7,0-8.5,3.8-8.5,8.5v34.2c0,4.7,3.8,8.5,8.5,8.5h34.2c4.7,0,8.5-3.8,8.5-8.5V18.8c0-4.7-3.8-8.5-8.5-8.5H18.8Z"/>
  <path d="M42.8,48.5c-2.9,0-5.2-2.4-5.1-5.2s2.4-5.2,5.2-5.1c2.9,0,5.2,2.4,5.1,5.2,0,2.9-2.4,5.2-5.2,5.2ZM42.8,39.8c-1.9,0-3.5,1.6-3.5,3.5s1.6,3.5,3.5,3.5c1.9,0,3.5-1.6,3.5-3.5,0-1.9-1.6-3.5-3.5-3.5h0Z"/>
  <path class="st0" d="M52,45c-.6.1-1.1.5-1.3,1.1-.1.3-.2.6-.4.9-.3.5-.2,1.2.1,1.7l1.8,2.5-1.6,1.6-2.5-1.8c-.5-.3-1.1-.4-1.7-.1-.3.1-.6.3-.9.4-.6.2-1,.7-1.1,1.2l-.5,3h-2.3l-.5-3c-.1-.6-.5-1.1-1.1-1.2-.3-.1-.6-.2-.9-.4-.5-.3-1.2-.2-1.7.1l-2.5,1.8-1.6-1.6,1.8-2.5c.3-.5.4-1.1.1-1.7-.1-.3-.3-.6-.4-.9-.2-.6-.7-1-1.3-1.1l-3.2-.5v-2.3l3.2-.5c.6-.1,1.1-.5,1.3-1.1.1-.3.2-.6.4-.9.3-.5.2-1.2-.1-1.7l-1.8-2.6,1.6-1.6,2.6,1.8c.5.3,1.1.4,1.7.1.3-.1.6-.3.9-.4.6-.2,1-.7,1.1-1.2l.5-3.2h2.3l.5,3.2c.1.6.5,1.1,1.1,1.2.3.1.6.2.9.4.5.3,1.2.2,1.7-.1l2.6-1.8,1.6,1.6-1.8,2.6c-.3.5-.4,1.1-.1,1.7.1.3.3.6.4.9.2.6.7,1,1.3,1.1l3,.5v2.3s-3,.5-3,.5ZM55.4,40.4l-2.7-.5c-.1-.4-.3-.8-.5-1.1l1.5-2.3c.5-.7.4-1.6-.2-2.2l-1.7-1.7c-.6-.6-1.5-.7-2.2-.2l-2.3,1.5c-.4-.2-.7-.3-1.1-.5l-.5-2.7c-.2-.8-.9-1.4-1.7-1.4h-2.4c-.8,0-1.5.6-1.7,1.4l-.5,2.7c-.4.1-.8.3-1.1.5l-2.3-1.5c-.7-.5-1.6-.4-2.2.2l-1.7,1.7c-.6.6-.7,1.5-.2,2.2l1.5,2.3c-.2.4-.3.7-.5,1.1l-2.7.5c-.8.2-1.4.9-1.4,1.7v2.4c0,.8.6,1.5,1.4,1.7l2.7.5c.1.4.3.7.5,1.1l-1.5,2.3c-.5.7-.4,1.6.2,2.2l1.7,1.7c.6.6,1.5.7,2.2.2l2.3-1.5c.4.2.7.3,1.1.5l.5,2.6c.2.8.9,1.4,1.7,1.4h2.4c.8,0,1.5-.6,1.7-1.4l.5-2.7c.4-.1.8-.3,1.1-.5l2.3,1.5c.7.5,1.6.4,2.2-.2l1.7-1.7c.6-.6.7-1.5.2-2.2l-1.5-2.3c.2-.4.3-.7.5-1.1l2.7-.5c.8-.2,1.4-.9,1.3-1.7v-2.4c0-.8-.6-1.5-1.4-1.7h0Z"/>
</svg>