<?xml version="1.0" encoding="UTF-8"?>
<svg id="Layer_1" xmlns="http://www.w3.org/2000/svg" version="1.1" viewBox="0 0 72 72">
  <!-- Generator: Adobe Illustrator 29.0.1, SVG Export Plug-In . SVG Version: 2.1.0 Build 192)  -->
  <defs>
    <style>
      .st0 {
        fill-rule: evenodd;
      }
    </style>
  </defs>
  <path d="M53.3,64.5H19.1c-6.3,0-11.5-5.2-11.5-11.5V18.8c0-6.3,5.2-11.5,11.5-11.5h34.2c6.3,0,11.5,5.2,11.5,11.5v34.2c0,6.3-5.2,11.5-11.5,11.5ZM19.1,10.3c-4.7,0-8.5,3.8-8.5,8.5v34.2c0,4.7,3.8,8.5,8.5,8.5h34.2c4.7,0,8.5-3.8,8.5-8.5V18.8c0-4.7-3.8-8.5-8.5-8.5H19.1Z"/>
  <path class="st0" d="M44,36c-.2-.5,0-1.3-.6-1.5.3-1.3.3-2.7-.2-4-.7-2-2.7-4.2-3.3-5.4-.8-1.7-.4-4.5-1-5.5-.7-1.2-1.9-2-3.3-2-1.7,0-4.1.9-3.3,5.7.2.8.2,1.7,0,2.6-.2.6-1.1,1.4-2,2.7-.4.9-.8,1.9-1.2,2.9-.6,1.2-1.3,1.8-.6,2.8l-1.1,1.3c-.6.4-1.3.1-1.7.8l-.2,3.1c.5.9,2.2.6,3.2,1.1,1,.5,2.1.8,3.2.8.6,0,.8-.8,1.7-1,1.6-.3,3.3-.3,4.9,0,1.7,2.9,4-.5,5-.9s2-.8,2-1.5-1.1-.6-1.7-1.8ZM37,20.9c.8.4,1.1,1.3.7,2.1,0,.2-.2.3-.4.5-.2,0-.5-.1-.7-.2.8-.5.7-1.3,0-1.5s-.7.4-.5,1.2h-.4c-.5-.6-.4-1.4.1-1.9.3-.3.8-.4,1.2-.2ZM33.2,21c.4-.2,1.3,0,1.1,1.7h-.3c0-1-.6-1.3-.9-.7-.2.4.1,1,.4,1.2l-.3.3c-.7-.5-.8-1.5-.3-2.2,0,0,.1-.2.2-.2ZM40,34.2c-.4.2-1.1-.3-1,.3,0,.3.2,2.2-.1,2.6-1.8,2-4.7,2.2-5.9,1.5-.4-.2-.6-.5-.7-.9.5,0,1.2-.4,1-1.2s-2.8-1.7-2.9-2.5-.5-1.1.8-4c.4-.8.6-1.8,1-2.6.2-.4.5-.7.7-1.1,0-.4.1-.9,0-1.3h.2c1.2,1.5,2.7,1.1,4.3-.3.4,0,.6,1.2,1.1,2.3.2.5.3,1,.5,1.5.4.6.7,1.3.9,2,.2,1.2.2,2.3,0,3.5Z"/>
  <path d="M19.4,42.2h1.7v8.4h5v1.5h-6.7v-9.9Z"/>
  <path d="M27.2,42.2h1.6v1.5h-1.6v-1.5ZM27.2,44.9h1.6v7.2h-1.6v-7.2Z"/>
  <path d="M30.5,44.9h1.5v1h0c.2-.4.6-.7.9-.9.4-.2.8-.3,1.3-.3.7,0,1.3.2,1.8.6.5.5.8,1.2.7,1.9v4.9h-1.6v-4.5c0-.4-.1-.9-.4-1.2-.3-.3-.6-.4-1-.4-.2,0-.5,0-.7.2-.2,0-.4.2-.5.4-.2.2-.3.4-.3.6,0,.2-.1.5-.1.7v4.2h-1.6s0-7.2,0-7.2Z"/>
  <path d="M44.7,52.1h-1.5v-1h0c-.2.4-.5.7-.9.9-.4.2-.8.3-1.2.3-.7,0-1.5-.2-2-.7-.5-.6-.7-1.4-.6-2.1v-4.5h1.6v4.4c0,.5,0,.9.4,1.3.3.3.6.4,1,.4.3,0,.6,0,.8-.2.2,0,.4-.2.5-.4.1-.2.2-.4.3-.6,0-.3,0-.5,0-.8v-4.2h1.6v7.1Z"/>
  <path d="M48.3,48.3l-2.5-3.4h1.9l1.5,2.2,1.6-2.2h1.8l-2.5,3.3,2.7,3.8h-1.9l-1.8-2.6-1.8,2.6h-1.8l2.7-3.7Z"/>
</svg>