<?xml version="1.0" encoding="UTF-8"?>
<svg id="Layer_1" xmlns="http://www.w3.org/2000/svg" version="1.1" viewBox="0 0 72 72">
  <!-- Generator: Adobe Illustrator 29.0.1, SVG Export Plug-In . SVG Version: 2.1.0 Build 192)  -->
  <path d="M50.7,18l-4.8-4.7c-.4-.4-1-.4-1.4,0l-27.6,27.7c0,0-.2.2-.2.3l-3.4,8.1c-.2.4,0,.8.2,1.1.2.2.4.3.7.3s.3,0,.4,0l8.2-3.4c.1,0,.2-.1.3-.2l7.7-7.7c.4-.4.4-1,0-1.4-.4-.4-1-.4-1.4,0l-7.5,7.6-5.8,2.4,2.4-5.7,23.5-23.6,3.4,3.3-3.9,3.9c-.4.4-.4,1,0,1.4.4.4,1,.4,1.4,0l7.9-7.9c.2-.2.3-.4.3-.7s-.1-.5-.3-.7ZM46.4,20.9l-3.4-3.3,2.2-2.2,3.4,3.3-2.2,2.2Z"/>
  <path d="M53.2,64.5H19c-6.3,0-11.5-5.2-11.5-11.5V18.8c0-6.3,5.2-11.5,11.5-11.5h34.2c6.3,0,11.5,5.2,11.5,11.5v34.2c0,6.3-5.2,11.5-11.5,11.5ZM19,10.3c-4.7,0-8.5,3.8-8.5,8.5v34.2c0,4.7,3.8,8.5,8.5,8.5h34.2c4.7,0,8.5-3.8,8.5-8.5V18.8c0-4.7-3.8-8.5-8.5-8.5H19Z"/>
  <polygon points="34 32.3 34 30.4 53.5 30.4 53.5 32.3 34 32.3 34 32.3"/>
  <polygon points="34 37 34 35.1 53.5 35.1 53.5 37 34 37 34 37"/>
  <polygon points="34 41.8 34 39.9 53.5 39.9 53.5 41.8 34 41.8 34 41.8"/>
  <polygon points="34 46.6 34 44.7 53.5 44.7 53.5 46.6 34 46.6 34 46.6"/>
  <polygon points="34 51.4 34 49.5 53.5 49.5 53.5 51.4 34 51.4 34 51.4"/>
  <polygon points="34 56.2 34 54.3 53.5 54.3 53.5 56.2 34 56.2 34 56.2"/>
</svg>