<svg xmlns="http://www.w3.org/2000/svg" version="1.1" viewBox="0 0 72 72">
  <path d="M52.7,64.5H18.6c-6.3,0-11.5-5.2-11.5-11.5V18.8c0-6.3,5.2-11.5,11.5-11.5h34.2c6.3,0,11.5,5.2,11.5,11.5v34.2c0,6.3-5.2,11.5-11.5,11.5ZM18.6,10.3c-4.7,0-8.5,3.8-8.5,8.5v34.2c0,4.7,3.8,8.5,8.5,8.5h34.2c4.7,0,8.5-3.8,8.5-8.5V18.8c0-4.7-3.8-8.5-8.5-8.5H18.6Z"/>
  <path d="M35.6,27.9c2.4,0,6.4-3.6,10.7,1.5-4.6,3.9-3.3,8.9.7,11.2-.9,5.1-2.9,7.4-5.4,7.4s-3.1-1.1-5.3-1.1-3.1,1.3-4.8,1.3c-2.6,0-7.4-6.2-7.4-12.2s3.4-9.2,6.4-9.2,3.4,1.2,5.2,1.2Z"/>
  <path d="M41.2,19.9c.5,4-3.3,6.9-5.7,6.4,0-3.3,2.4-6.1,5.6-6.4"/>
</svg>