<?xml version="1.0" encoding="UTF-8"?>
<svg xmlns="http://www.w3.org/2000/svg" viewBox="0 0 72 72">
  <defs>
    <style>
      .cls-1 {
        fill: none;
      }
    </style>
  </defs>
    <path d="M52.73032573,64.5H18.55503276c-6.34130859,0-11.5-5.15869141-11.5-11.5V18.82470703c0-6.34130859,5.15869141-11.5,11.5-11.5h34.17529297c6.34130859,0,11.5,5.15869141,11.5,11.5v34.17529297c0,6.34130859-5.15869141,11.5-11.5,11.5ZM18.55503276,10.32470703c-4.68701172,0-8.5,3.81298828-8.5,8.5v34.17529297c0,4.68701172,3.81298828,8.5,8.5,8.5h34.17529297c4.68701172,0,8.5-3.81298828,8.5-8.5V18.82470703c0-4.68701172-3.81298828-8.5-8.5-8.5H18.55503276Z"/>
    <path d="M35.64298775,27.87292357c2.37500072,0,6.42187595-3.6406219,10.65624952,1.45312548-4.56249714,3.87499928-3.26562524,8.8593781.68749785,11.17187738-.85937381,5.078125-2.92187333,7.39062428-5.42187691,7.39062428s-3.125-1.10937357-5.31250238-1.10937357c-2.74999738,0-3.125,1.28124952-4.8124969,1.28124952-2.5781244,0-7.39062428-6.25-7.39062428-12.20312715s3.43750119-9.18750167,6.35937452-9.18750167c3.85937691,0,3.37499976,1.20312572,5.23437858,1.20312572Z"/>
    <path d="M41.22111227,19.88855357c.51562786,4.00000215-3.25000286,6.87500238-5.65624833,6.35937452-.06048083-3.27613354,2.38406062-6.05925322,5.64062595-6.42187595"/>
    <rect class="cls-1" x=".631" y=".36" width="71.28" height="71.28"/>
</svg>