<?xml version="1.0" encoding="UTF-8"?>
<svg xmlns="http://www.w3.org/2000/svg" width="1in" height="1in" viewBox="0 0 72 72">
  <defs>
    <style>
      .cls-1 {
        fill: none;
      }
    </style>
  </defs>
  <g id="SVG_icons" data-name="SVG icons">
    <g id="Layer_7" data-name="Layer 7">
      <path d="M53.08035694,64.5H18.90506397c-6.34130859,0-11.5-5.15869141-11.5-11.5V18.82470703c0-6.34130859,5.15869141-11.5,11.5-11.5h34.17529297c6.34130859,0,11.5,5.15869141,11.5,11.5v34.17529297c0,6.34130859-5.15869141,11.5-11.5,11.5ZM18.90506397,10.32470703c-4.68701172,0-8.5,3.81298828-8.5,8.5v34.17529297c0,4.68701172,3.81298828,8.5,8.5,8.5h34.17529297c4.68701172,0,8.5-3.81298828,8.5-8.5V18.82470703c0-4.68701172-3.81298828-8.5-8.5-8.5H18.90506397Z"/>
      <path d="M52.5881958,22.36309814h-12.61291504c1.03881836-1.48272705,1.81005859-2.3838501,1.83288574-2.40997314l-1.33001709-1.15997314c-.11895752.14129639-1.26324463,1.47167969-2.65252686,3.56994629h-17.63745117v26.95001221h18.51239014c.3114624,1.2366333.71130371,2.4541626,1.20758057,3.64001465l1.58001709-.76000977c-.38464355-.94128418-.69311523-1.90557861-.95562744-2.88000488h12.05566406v-26.95001221ZM21.94818115,47.55310059v-23.42999268h14.77935791c-2.10101318,3.53637695-4.29937744,8.4286499-4.29937744,13.4800415v.88000488h5.90002441c-.24609375,1.3614502-.36877441,2.73431396-.39324951,4.1060791-4.00146484.26361084-8.05780029-.55255127-11.71679688-2.45611572l-.79998779,1.57000732c3.41662598,1.77783203,7.20855713,2.71380615,11.05999756,2.72998047.4967041-.0022583.99224854-.0211792,1.48626709-.05383301.05535889,1.06427002.16949463,2.12451172.35668945,3.17382812h-16.3729248ZM50.82818604,47.55310059h-10.70031738c-.21252441-1.11126709-.34570312-2.23364258-.40185547-3.36236572,2.7154541-.38098145,5.35577393-1.21429443,7.80218506-2.48760986l-.80004883-1.57000732c-2.22796631,1.15911865-4.60449219,1.90673828-7.02508545,2.26226807.03710938-1.54064941.20343018-3.08166504.53509521-4.60223389l.22998047-1.07000732h-6.25994873c.26837158-4.75219727,2.58978271-9.40472412,4.59741211-12.60003662h12.02258301v23.42999268Z"/>
      <rect x="41.80816668" y="27.15314314" width="1.75999832" height="3.52000046"/>
      <rect x="28.47816675" y="27.15314314" width="1.76000023" height="3.52000046"/>
    </g>
  </g>
  <g id="Rectangles">
    <rect class="cls-1" x=".36" y=".36" width="71.28" height="71.28"/>
  </g>
</svg>