<?xml version="1.0" encoding="UTF-8"?>
<svg id="Layer_1" xmlns="http://www.w3.org/2000/svg" version="1.1" viewBox="0 0 72 72">
  <!-- Generator: Adobe Illustrator 29.0.1, SVG Export Plug-In . SVG Version: 2.1.0 Build 192)  -->
  <path d="M53.1,64.5H18.9c-6.3,0-11.5-5.2-11.5-11.5V18.8c0-6.3,5.2-11.5,11.5-11.5h34.2c6.3,0,11.5,5.2,11.5,11.5v34.2c0,6.3-5.2,11.5-11.5,11.5ZM18.9,10.3c-4.7,0-8.5,3.8-8.5,8.5v34.2c0,4.7,3.8,8.5,8.5,8.5h34.2c4.7,0,8.5-3.8,8.5-8.5V18.8c0-4.7-3.8-8.5-8.5-8.5,0,0-34.2,0-34.2,0Z"/>
  <path d="M55.2,41.1c0-.4-.2-1.3-1.3-1.9-.9-.5-1.7-.9-2.4-1.2-.9-.4-1.6-.8-2-1.1-.2-.3-.4-1.4-.4-1.7s.2-.5,1.1-1.8h0c.3-.5.7-1.5.7-2.4s-.4-2.4-.4-3.6-.5-1.7-1.5-2.5c-.9-.7-2.5-1.5-3.9-1.2-1.3.3-1.7.2-2,.2s-.8,0-1.3.3c-.8.5-1.5,1.5-1.7,2.4-.4,1.7-.4,3.1-.4,3.1v1.4c0,.9.4,1.6.7,2,0,0,0,.2.3.4.2.3.8,1.1.9,1.4,0,.4-.2,1.5-.4,1.8-.2,0-.9.5-1.4.7-.9.5-1.9,1-2.5,1.4-.6-.3-1.1-.5-1.4-.8-.2-.4-.6-2-.6-2.4s.2-.6,1.4-2.5h0c.3-.7.9-1.8.9-2.9s0-.9-.2-1.2v-.3c0-.3,0-.5,0-.7,0-.4-.2-.8-.2-2.4s-.7-2.1-1.8-3c-1.2-.9-3.1-1.9-4.9-1.5-1.7.4-2.3.3-2.7.3s-.9,0-1.6.4c-.9.6-1.8,1.8-2.1,2.9-.6,2.3-.6,3.1-.6,4v.9c0,.2-.1.5-.1.9,0,1.1.6,2.1.9,2.5,0,0,.2.3.3.5.3.4,1.2,1.6,1.3,1.9,0,.5-.4,2.2-.6,2.7-.5.4-1.4.7-2.4,1.2-1.1.5-2.4,1-3.8,1.8-1.3.7-1.4,1.7-1.5,2.2h0c0,.6-.2,4.4-.2,5.6s0,.5.3.7c.2.2.4.3.7.3h24.7c.3,0,.5,0,.7-.3s.3-.4.3-.7c0-1.2-.2-5-.2-5.5s-.2-1.6-1.5-2.3c-.9-.5-2.5-1.1-3.3-1.5.4-.2.9-.4,1.3-.6,1-.5,1.5-.8,1.7-1,.8-.6.9-2.7.9-3.3s-.5-1.2-1.3-2.3c0,0-.2-.2-.2-.3,0-.2-.2-.8-.2-1.2v-1.2c0-.8,0-1.2.4-2.8,0-.4.5-1,.9-1.3h0c.4,0,1,0,2.6-.2.6-.1,1.8-.1,2.6.5.6.4,1.2,1.4,1.2,1.5,0,1.3.3,3.1.4,3.3v.2c0,.4,0,1.1-.2,1.3h0c-1,1.5-1.5,2.2-1.6,2.7,0,.2.2,2.6,1.1,3.2h0c.6.4,1.4.8,2.4,1.3.7.3,1.5.7,2.4,1.2.3,0,.3.2.3.5h0c0,.3.2,1.4,0,3.1h-6.3c-.5,0-.9.4-.9.9s.4.9.9.9h6.8c.3,0,.5,0,.7-.3s.3-.4.3-.7c0-1.2-.1-3.8-.1-3.8ZM41.9,43.7c0,.3,0,2.3.2,4.3h-22.8c0-2,.1-4,.2-4.3h0c0-.5,0-.7.6-1,1.3-.7,2.5-1.3,3.6-1.7,1.2-.5,2.2-.9,2.8-1.5.9-.7,1.4-3.5,1.3-4.3,0-.7-.6-1.5-1.6-2.9-.1-.2-.2-.3-.3-.4-.2-.2-.6-.8-.6-1.4s0-.4,0-.5c0-.3.1-.5.1-1.1v-.2c0-.9,0-1.5.5-3.6.2-.6.7-1.5,1.3-1.8.1,0,.2-.1.2-.1h.2c.5,0,1.3.1,3.3-.3.9-.2,2.2.3,3.3,1.1.8.6,1.1,1.2,1.1,1.5,0,1.8,0,2.3.2,2.8,0,.2,0,.3,0,.6,0,.4,0,.6.2.8v.4c0,.6-.4,1.4-.6,1.7h0c-1.2,1.9-1.7,2.9-1.7,3.6s.3,3.2,1.3,4c.7.5,1.7,1,3.1,1.6,1,.5,2.2,1,3.4,1.6.5.2.5.5.6,1h0Z"/>
</svg>