<?xml version="1.0" encoding="UTF-8"?>
<svg xmlns="http://www.w3.org/2000/svg" viewBox="0 0 72 72">
    <style>
      .cls-1 {
        fill: none;
      }
    </style>
    <path d="M53.58197097,64.5H19.406678c-6.34130859,0-11.5-5.15869141-11.5-11.5V18.82470703c0-6.34130859,5.15869141-11.5,11.5-11.5h34.17529297c6.34130859,0,11.5,5.15869141,11.5,11.5v34.17529297c0,6.34130859-5.15869141,11.5-11.5,11.5ZM19.406678,10.32470703c-4.68701172,0-8.5,3.81298828-8.5,8.5v34.17529297c0,4.68701172,3.81298828,8.5,8.5,8.5h34.17529297c4.68701172,0,8.5-3.81298828,8.5-8.5V18.82470703c0-4.68701172-3.81298828-8.5-8.5-8.5H19.406678Z"/>
    <path d="M46.70628616,51.80016994c-.62814026-.01025295-1.12903728-.5277729-1.11878433-1.15591316.0055542-.34035835.16324883-.66034222.42978344-.87208614,4.3150425-3.11587105,6.87287521-8.11307087,6.87700119-13.43549881,0-.62822456.50927544-1.1375,1.1375-1.1375s1.1375.50927544,1.1375,1.1375c-.00930824,6.036693-2.90929203,11.70375156-7.8,15.2425005-.19149094.14303551-.42398624.22053146-.6630003.22099762Z"/>
    <path d="M53.77178546,34.45167083c-.54883175.00247211-1.02022457-.38944359-1.11800079-.9295002-.30534954-1.7659626-.89821568-3.4699029-1.7550005-5.04400015-.26975307-.56736145-.02849255-1.24597673.5388689-1.51572857.52419739-.24922981,1.15196571-.06381254,1.4566309.43022852.97797298,1.78965721,1.65229244,3.72914886,1.99550228,5.73949995.09829941.61252279-.31231461,1.19085627-.92299881,1.30000124l-.19500198.01949921Z"/>
    <path d="M49.05928546,25.03317098c-.2650568.00059385-.5187746-.10747128-.70200119-.2989994-3.13417263-3.25836911-7.46496773-5.09261613-11.98600159-5.07649965-.53847713,0-.975-.43652225-.975-.975s.43652287-.975.975-.975c5.05114498-.01730108,9.88937321,2.03307433,13.38999901,5.6744997.3801899.38066225.3801899.99733706,0,1.37799931-.1871666.18263149-.44061909.28119621-.70199623.27300005Z"/>
    <path d="M26.86178571,22.60217051c-.62806711-.01405349-1.12582254-.53459415-1.11176968-1.16266127.00825443-.36890235.19493876-.71088109.50076933-.91733861,1.79498949-1.15069804,3.77348824-1.98606386,5.85-2.47000012.6074955-.14531422,1.21776934.22935805,1.36308355.83685417.0006484.00271325.00128813.00542836.00191669.00814595.14251232.6116035-.23464012,1.22375064-.8449995,1.37149978-1.8142333.42735906-3.54210005,1.16159258-5.1090004,2.1710001-.195121.11895533-.42185507.17563853-.65.1625Z"/>
    <path d="M19.64028531,31.87117003c-.62822394-.00047607-1.13711381-.51013708-1.13663836-1.1383604.00009174-.12119188.01955004-.24158907.05763845-.3566391.8788981-2.61510172,2.31864882-5.0065527,4.21849985-7.00699921.43437185-.45411654,1.15463371-.47012205,1.60875025-.0357502s.47012205,1.15463371.0357502,1.60875025c-1.6693747,1.75439301-2.93403425,3.85328274-3.70499988,6.14900064-.15055909.46786318-.58752332.78373966-1.07900052.77999802Z"/>
    <path d="M20.48528544,44.89067172c-.37625113-.00006447-.71841459-.21803703-.87750025-.5590004-1.41451941-2.95922775-2.02004955-6.24030399-1.75499988-9.50950069.04307852-.53847713.51452279-.94007797,1.05300055-.89700069.53847775.04307976.94007797.51452465.89699945,1.05300179-.23405991,2.92451897.30622668,5.85910244,1.5664999,8.5085001.23334146.4852932.02909322,1.06786175-.4562006,1.30120258-.13146157.06321125-.27543125.0961174-.42129965.09629841l-.00649953.00649891Z"/>
    <path d="M24.17078487,50.15567073c-.24212589-.00559635-.47363434-.10051365-.65-.2664999-.70674829-.67759991-1.35878215-1.41005249-1.95-2.19049931-.41286545-.34568939-.46732264-.96061859-.12163448-1.37348404.34568815-.41286297.96061735-.4673214,1.3734828-.12163448.10458941.08757286.18963933.19611778.24965196.31861763.53761983.69507828,1.128754,1.3470644,1.76800017,1.95.39140244.36981297.40890436.98690186.03909016,1.37830429-.17950354.18998337-.42777128.29993916-.68909016.30519581h-.01950045Z"/>
    <path d="M24.37228576,41.32217063c-.51108551.00806599-.96405649-.32766552-1.1050005-.81899891-.43031468-1.3402853-.64960079-2.73933105-.65-4.14700069.00717149-7.58535128,6.1621274-13.72867932,13.74747868-13.72150784.00217457.00000186.00434666.00000434.00652122.00000744.62822456,0,1.1375.50927668,1.1375,1.1375s-.50927544,1.1375-1.1375,1.1375c-6.32531672.0038929-11.44984283,5.13472948-11.44595118,11.4600462.00071907,1.16859112.18028212,2.3301899.53245182,3.444454.18722363.59924107-.14346199,1.23740616-.7409996,1.4300005-.11047649.04245987-.22650967.06873074-.34450045.07799931Z"/>
    <path d="M28.51928521,53.32117003c-.08220711.00644684-.16479235.00644684-.24699945,0-.61248312-.13916245-1.00016499-.74383125-.8710001-1.3585001.8710001-4.01050129-.7800005-5.90199871-1.39749975-6.61050129l-.13650064-.12999802c-.42157488-.46576672-.38575029-1.18510246.08001766-1.6066761.46576672-.42157612,1.18510122-.38575153,1.6066761.08001766.01690311.01867352.03318014.03790493.04880629.05765953l.08449945.09750099c2.0085001,2.29449921,2.65199995,5.2,1.91100035,8.5864994-.11350775.50778275-.55881071.87260685-1.0789999.88399792Z"/>
    <path d="M41.46728526,53.25617103h-.1300005c-.62432175-.06161442-1.0808918-.61705914-1.0204998-1.2414999.40299931-4.2965004,2.15150089-5.85,3.55550079-7.0460001.30754642-.25871906.6004982-.53431149.87749901-.8255003.4289875-.45950089,1.14924812-.48423691,1.60875149-.05525188.45950089.4289875.48423691,1.1492506.0552494,1.60875149-.33104267.34563484-.68037701.67327061-1.0465004.98150139-1.3,1.1114994-2.4699995,2.1579998-2.7885006,5.5510006-.05601559.57488194-.53398914,1.01651764-1.1114994,1.02699871Z"/>
    <path d="M48.01928645,42.24516944c-.14716892.00034218-.29295425-.02837353-.4289999-.08450069-.58864346-.22953968-.87975292-.89280777-.65021324-1.48144875.00006943-.00018349.00014133-.00036697.00021324-.00055046.56285114-1.37134418.84998589-2.84015217.8449995-4.32250099.01612453-4.28504982-2.37183647-8.21727161-6.18150139-10.17899742-.56001701-.28718805-.7811882-.97398214-.49400139-1.53399916.28718929-.56001701.97398338-.7811882,1.5340004-.49400015,6.32090435,3.25772877,9.10995541,10.80142231,6.42850208,17.3875-.172929.42940903-.5900816.71008453-1.05299931.70849762Z"/>
    <path d="M40.97978526,43.58417033c-.53847218.00245476-.97697868-.43207455-.97943344-.97054672-.00138855-.30467014.1397253-.59247437.38143463-.77795238,1.31472359-1.00774498,2.20503941-2.47073841,2.4960001-4.10150089.25684948-1.42876816.02802639-2.90239887-.65-4.18599911-.24590473-.48103952-.05528908-1.07034502.42574921-1.31624975.48104076-.24590597,1.07034626-.05529032,1.31625099.42574921,1.87601013,3.69288416.85754852,8.19814806-2.4244997,10.72499876-.16195698.12617702-.36024933.19683189-.56550179.20150089Z"/>
    <path d="M31.58078586,31.62417058c-.29407129-.00004959-.5728363-.13109274-.76050005-.3574995-.33749199-.41959124-.27093706-1.03332901.14865417-1.370821.00028267-.00022688.0005641-.00045376.00084553-.0006794,1.52359743-1.25020685,3.43065405-1.93867464,5.40149965-1.95,1.32058277.00894623,2.62068443.32729359,3.7960001.9295002.49864807.2032465.73811836.77224321.53487186,1.27089128-.2032465.49864683-.77224445.73811712-1.27089252.53487062-.04433441-.01807098-.08727779-.03938274-.12848053-.06376171-2.33231983-1.16236868-5.12906246-.85218401-7.15.79299955-.16276531.13092785-.36327686.2061203-.57199821.21449995Z"/>
    <path d="M32.88728477,54.46517142c-.16310873-.00103645-.32359161-.04116058-.46799955-.1170002-.45737591-.25909843-.6270133-.83413906-.3835001-1.3,1.94999876-3.5489994,1.16349936-7.4619997-.65-9.48999901l-.1364994-.15600109c-1.625-1.8199995-3.46449995-3.9-3.46449995-6.80550079-.00704565-1.14575195.21390982-2.28145924.65-3.3409996.21000576-.49719381.78330574-.7300065,1.28049955-.52000074.49719505.21000576.7300065.7833045.52000074,1.28049955-.34714985.82265377-.52403994,1.70710793-.5199995,2.6,0,2.17749901,1.44299955,3.7960001,2.9704998,5.50550079l.1364994.15600109c2.2034996,2.4699995,3.4255003,7.1954998.9034996,11.7324995-.18114748.28738766-.4988204.4597662-.8385006.4550005Z"/>
    <path d="M37.39828635,54.46517142c-.09451065-.00015869-.18855515-.01328049-.2795002-.03899841-.5150156-.15631351-.80595894-.7003746-.65-1.21549931,2.5284996-8.37200069.2664999-10.89399891-.5914999-11.84299831-.24050674-.2456543-.49439564-.47784214-.76050129-.69550476-1.07250099-.9619997-2.53499975-2.275-2.53499975-4.14049931.04449806-2.03762741,1.65044394-3.69738951,3.68550005-3.8090004.97147655-.11003761,1.94310684.20514956,2.66499901.86450119,1.0074995.93599911,1.51450119,2.5545002,1.50150089,4.81000099v.0715004c0,.53847713-.43652287.975-.975.975s-.975-.43652287-.975-.975v-.07799931c0-2.10600109-.46800079-2.9965004-.87749901-3.3800005-.32302132-.28587761-.75699768-.41225548-1.1829998-.34449921-1.03761368-.00147781-1.89466133.80986176-1.95,1.8460001,0,.99449921,1.0010006,1.8914999,1.88500099,2.68450069.31854572.27401295.62230835.56475544.91000099.8710001,1.6510006,1.83950119,3.5489994,5.2585001,1.0010006,13.7085001-.11506863.39098339-.46403103.66702709-.87100258.68899593Z"/>
    <rect class="cls-1" x=".49599998" y=".36" width="71.28" height="71.28"/>
</svg>