<?xml version="1.0" encoding="UTF-8"?>
<svg xmlns="http://www.w3.org/2000/svg" width="1in" height="1in" viewBox="0 0 72 72">
  <defs>
    <style>
      .cls-1 {
        fill: none;
      }
    </style>
  </defs>
  <g id="SVG_icons" data-name="SVG icons">
    <g id="Layer_7" data-name="Layer 7">
      <path d="M50.69726562,17.97998047l-4.82714844-4.69677734c-.39355469-.38232422-1.02099609-.37695312-1.40673828.01171875l-27.57470703,27.74267578c-.09082031.09130859-.16308594.19970703-.21289062.31835938l-3.390625,8.08447266c-.15625.37353516-.07226562.80419922.21289062,1.09179688.19189453.19238281.44824219.29492188.70947266.29492188.12841797,0,.2578125-.02441406.38085938-.07568359l8.21875-3.38769531c.125-.05126953.23779297-.12744141.33251953-.22363281l2.82128906-2.87207031c.38720703-.39404297.38134766-1.02685547-.01269531-1.4140625-.39453125-.38769531-1.02734375-.38183594-1.4140625.01269531l-2.67822266,2.72607422-5.7890625,2.38623047,2.37792969-5.66992188,23.50494385-23.64788818,3.39080811,3.29803467-3.9074707,3.92456055c-.38964844.39160156-.38867188,1.02441406.00292969,1.4140625.39160156.39013672,1.02441406.38818359,1.4140625-.00292969l7.85839844-7.89257812c.18847656-.18945312.29345703-.44628906.29150391-.71337891s-.11132812-.52246094-.30273438-.70898438ZM46.39898682,20.8961792l-3.39172363-3.29888916,2.17730713-2.19055176,3.39306641,3.30126953-2.1786499,2.18817139Z"/>
      <path d="M53.17529297,64.5H19c-6.34130859,0-11.5-5.15869141-11.5-11.5V18.82470703c0-6.34130859,5.15869141-11.5,11.5-11.5h34.17529297c6.34130859,0,11.5,5.15869141,11.5,11.5v34.17529297c0,6.34130859-5.15869141,11.5-11.5,11.5ZM19,10.32470703c-4.68701172,0-8.5,3.81298828-8.5,8.5v34.17529297c0,4.68701172,3.81298828,8.5,8.5,8.5h34.17529297c4.68701172,0,8.5-3.81298828,8.5-8.5V18.82470703c0-4.68701172-3.81298828-8.5-8.5-8.5H19Z"/>
      <path d="M58.66073175,43.19809273l-7.67499924-12.69500017c-.15803146-.26353168-.4427166-.4248538-.75-.42500019h-13.5c-.30728245.00014639-.59196854.16146851-.75.42500019l-7.6500001,12.69500017c-.168118.27824402-.168118.62675667,0,.90500069l7.6500001,12.72999954c.15803146.26353073.44271755.42485237.75.42499924h6.79000092c.48324966,0,.875-.39175034.875-.875v-4.68499947c2.38999939-.5,3.5-2.29000092,3.5-4.04500008,0-2.5-1.81500053-3.54500008-3.58499908-4.22999954-1.89500046-.73500061-2.22500038-1.22999954-2.22500038-2,0-.65499973.5-1.42000008,1.91499901-1.42000008.76405716-.00405884,1.51696396.1833086,2.19000053.54500008.24203873.13293648.54601479.04449272.67895126-.19754505.01447105-.02634525.02653503-.05394173.03604889-.08245468l.45499992-1.35000038c.07710075-.22662258-.01723862-.47609806-.22500038-.59500027-.87612724-.45309258-1.84865379-.68807602-2.83500099-.68500042v-2.20499992c0-.48324871-.39175034-.875-.875-.875s-.875.39175129-.875.875v2.39000034c-1.88000011.5-3.13500023,1.94000053-3.13500023,3.78499985s1.21500015,3.21500015,3.70000076,4.09499931c1.76000023.67499924,2.09000015,1.25499916,2.09000015,2.07999992,0,1.05500031-.81500053,1.68499947-2.18000031,1.68499947-.95916367-.00913239-1.89837551-.27501106-2.72000027-.76999855-.23526764-.14458084-.54319572-.0710659-.68777752.16420174-.02225971.03622246-.03980827.07513618-.05222225.11579895l-.42000008,1.38500023c-.06363678.21033478.01751614.43756485.19999981.55999947,1.00716972.57313347,2.14142609.88591385,3.29999924.90999985v3.66499901h-5.41499901l-7.13000011-11.85499954,7.125-11.81499958h12.52999973l7.13000107,11.81499958-7.40500069,12.29000092c-.26036835.40710831-.14141273.94820595.26569557,1.2085762.40710831.26036835.94820786.14141273,1.2085762-.26569557.00898361-.01404572.01756287-.02834511.02572823-.04288101l7.67499924-12.73999977c.16411972-.27576256.16411972-.6192379,0-.89500046Z"/>
    </g>
  </g>
  <g id="Rectangles">
    <rect class="cls-1" x=".36" y=".36" width="71.28" height="71.28"/>
  </g>
</svg>