<?xml version="1.0" encoding="UTF-8"?>
<svg id="Layer_1" xmlns="http://www.w3.org/2000/svg" version="1.1" viewBox="0 0 72 72">
  <!-- Generator: Adobe Illustrator 29.0.1, SVG Export Plug-In . SVG Version: 2.1.0 Build 192)  -->
  <path d="M50.7,18l-4.8-4.7c-.4-.4-1-.4-1.4,0l-27.6,27.7c0,0-.2.2-.2.3l-3.4,8.1c-.2.4,0,.8.2,1.1.2.2.4.3.7.3s.3,0,.4,0l8.2-3.4c.1,0,.2-.1.3-.2l2.8-2.9c.4-.4.4-1,0-1.4-.4-.4-1-.4-1.4,0l-2.7,2.7-5.8,2.4,2.4-5.7,23.5-23.6,3.4,3.3-3.9,3.9c-.4.4-.4,1,0,1.4.4.4,1,.4,1.4,0l7.9-7.9c.2-.2.3-.4.3-.7s-.1-.5-.3-.7ZM46.4,20.9l-3.4-3.3,2.2-2.2,3.4,3.3-2.2,2.2Z"/>
  <path d="M53.2,64.5H19c-6.3,0-11.5-5.2-11.5-11.5V18.8c0-6.3,5.2-11.5,11.5-11.5h34.2c6.3,0,11.5,5.2,11.5,11.5v34.2c0,6.3-5.2,11.5-11.5,11.5ZM19,10.3c-4.7,0-8.5,3.8-8.5,8.5v34.2c0,4.7,3.8,8.5,8.5,8.5h34.2c4.7,0,8.5-3.8,8.5-8.5V18.8c0-4.7-3.8-8.5-8.5-8.5H19Z"/>
  <path d="M58.7,43.2l-7.7-12.7c-.2-.3-.4-.4-.8-.4h-13.5c-.3,0-.6.2-.8.4l-7.6,12.7c-.2.3-.2.6,0,.9l7.6,12.7c.2.3.4.4.8.4h6.8c.5,0,.9-.4.9-.9v-4.7c2.4-.5,3.5-2.3,3.5-4,0-2.5-1.8-3.5-3.6-4.2-1.9-.7-2.2-1.2-2.2-2s.5-1.4,1.9-1.4c.8,0,1.5.2,2.2.5.2.1.5,0,.7-.2,0,0,0,0,0,0l.5-1.3c0-.2,0-.5-.2-.6-.9-.5-1.8-.7-2.8-.7v-2.2c0-.5-.4-.9-.9-.9s-.9.4-.9.9v2.4c-1.9.5-3.1,1.9-3.1,3.8s1.2,3.2,3.7,4.1c1.8.7,2.1,1.3,2.1,2.1s-.8,1.7-2.2,1.7c-1,0-1.9-.3-2.7-.8-.2-.1-.5,0-.7.2,0,0,0,0,0,.1l-.4,1.4c0,.2,0,.4.2.6,1,.6,2.1.9,3.3.9v3.7h-5.4l-7.1-11.9,7.1-11.8h12.5l7.1,11.8-7.4,12.3c-.3.4-.1.9.3,1.2.4.3.9.1,1.2-.3,0,0,0,0,0,0l7.7-12.7c.2-.3.2-.6,0-.9Z"/>
</svg>