<?xml version="1.0" encoding="UTF-8"?>
<svg xmlns="http://www.w3.org/2000/svg" width="1in" height="1in" viewBox="0 0 72 72">
  <defs>
    <style>
      .cls-1 {
        fill: none;
      }
    </style>
  </defs>
  <g id="SVG_icons" data-name="SVG icons">
    <g id="Layer_7" data-name="Layer 7">
      <path d="M53.1076586,64.5H18.93236563c-6.34130859,0-11.5-5.15869141-11.5-11.5V18.82470703c0-6.34130859,5.15869141-11.5,11.5-11.5h34.17529297c6.34130859,0,11.5,5.15869141,11.5,11.5v34.17529297c0,6.34130859-5.15869141,11.5-11.5,11.5ZM18.93236563,10.32470703c-4.68701172,0-8.5,3.81298828-8.5,8.5v34.17529297c0,4.68701172,3.81298828,8.5,8.5,8.5h34.17529297c4.68701172,0,8.5-3.81298828,8.5-8.5V18.82470703c0-4.68701172-3.81298828-8.5-8.5-8.5H18.93236563Z"/>
      <path d="M55.24158481,41.11552204c-.057301-.391167-.19061352-1.30681353-1.27523952-1.90028814-.91330771-.49992196-1.72955456-.89342778-2.44932523-1.24132668-.86419257-.41689398-1.55531275-.75017529-1.99267138-1.06533076-.16781006-.34614479-.40870813-1.3959809-.40344579-1.65383538.02455757-.11460199.17541121-.5203866,1.05129787-1.81638311l.08127386-.12074138c.27247208-.40783107.70456837-1.37610096.70456837-2.23853943,0-.51015428-.08887501-.75280645-.1882747-.97587105-.02981991-.06665626-.03975987-.08916737-.05496218-.1955835-.03508224-.24645275-.07016449-.41104694-.10407732-.56716292-.06607156-.30433845-.12278785-.56716292-.14617601-1.81170547-.01578701-.84138912-.54845239-1.71639872-1.49976587-2.46423519-.93377236-.73409593-2.52416735-1.48105534-3.9338888-1.16531516-1.2582831.28065794-1.71084403.23738984-1.97980789.21195522-.40870813-.03800576-.76420818-.03946752-1.33546403.32246428-.7671317.48559671-1.48514827,1.49274942-1.7067511,2.3946554-.42507984,1.72546163-.44495978,2.31396625-.44320566,3.1313825v.13302017c0,.29936847-.01929523.38093468-.04443751.48384259-.04677632.19529115-.08595149.38736643-.08595149.76362348.0005847.85074438.40344579,1.55092747.70515307,2.00231899.05028455.07542682.14676071.20581582.26896386.3686559.20640053.27568796.82267859,1.09836654.93669588,1.40796733.00526234.36748649-.23329691,1.45532836-.4192328,1.82573837-.2461604.14734542-.8677008.46951735-1.37990154.73497298-.88019885.45628842-1.86882375.96940276-2.50637042,1.36773239-.57110967-.27364149-1.05159022-.52853591-1.37869559-.77074956-.24323688-.42391043-.60282987-1.98770139-.58207287-2.39640952.01812583-.11723316.17453416-.6434668,1.42375434-2.4885004l.09852263-.14617601c.33532777-.50518429.86740845-1.700027.86740845-2.7560025,0-.60955396-.09998439-.88407251-.22043342-1.15566754-.0438528-.09793793-.06782567-.1517307-.09355265-.33152719-.04443751-.31193961-.08887501-.52009425-.13214311-.71772421-.08829031-.41046224-.16547124-.76508524-.19587585-2.41716651-.01987994-1.00919918-.67562552-2.07189877-1.84737242-2.99251529-1.16823868-.91769299-3.14950832-1.85321946-4.88724874-1.46380657-1.68307059.37538-2.29934865.31661724-2.6694663.28182735-.50547664-.04706868-.8890425-.04765338-1.56057509.37684176-.94371232.59727518-1.82661543,1.83684775-2.09967222,2.94749308-.57300996,2.3294609-.57125585,3.07232739-.56920939,4.01253149l.00029235.1736571c0,.42478749-.03040461.55166826-.0657792.69872133-.05642394.23622043-.10349262.46893264-.10349262.92646355,0,1.14952815.63206507,2.0967487.87062432,2.45429522.06314804.0944297.18388942.25697743.33649718.46074679.29498319.39350582,1.19250389,1.59127205,1.27874774,1.93449332.04414516.5355889-.35520771,2.2417553-.61686276,2.66508102-.5069384.36602473-1.37960919.74783647-2.38413073,1.1863645-1.06562312.46542442-2.39173188,1.04486612-3.76461698,1.82018368-1.29950473.73380357-1.43720254,1.74709568-1.50327409,2.23415415l-.01432525.1017385c-.07162625.46191619-.18769,4.32271698-.22189518,5.49446388-.0073088.25493096.08887501.50167607.26633269.68410373.17745768.18301237.42127926.28592028.67591787.28592028h24.69672934c.25493096,0,.49875255-.10290791.67591787-.28592028.17775003-.18242766.27364149-.42917277.26604034-.68410373-.03391283-1.1717469-.15085364-5.03137828-.22861928-5.54240962-.07893505-.51863249-.24206747-1.59799615-1.52373873-2.29496337-.94904775-.51538007-1.85036903-.94506445-2.68254906-1.32735126.41809993-.22405128.86327897-.45511901,1.26288764-.66239659.97528634-.50518429,1.49508824-.77765638,1.73247808-.95949933.76479289-.58528875,1.12730939-2.85101691,1.07527073-3.4713879-.04677632-.56950174-.47653379-1.23518729-1.30447472-2.34115499-.09472205-.12600372-.17014888-.22598811-.20990875-.28533557-.1157714-.17336475-.38707408-.57944171-.38765878-.95657581,0-.18213531.01110938-.22861928.03332813-.32129487.05320807-.21984872.09706087-.44145155.09706087-.92529415v-.1371131c-.00175411-.65516088-.00292352-1.08784187.38824348-2.67706746.10758554-.43677392.5209713-1.02177031.88524192-1.25243606.02806579-.01783347.05262336-.03332813.07484212-.04560692.02280346.00204646.04677632.00467763.07367271.0073088.38181174.03683635,1.01972385.09706087,2.56860486-.24908392.59756753-.13477428,1.59214911.20552347,2.3581114.80776863.56657822.44525213.77707167.85249849.77999519,1.01796974.02572698,1.33195581.08829031,1.70967462.18885941,2.17392963.02572698.11986433.05320807.24586805.08010445.43648157.04911514.33795894.12512667.5282801.21517109.72854124,0,.00175411.00935526.04502221.00935526.17570356,0,.39613699-.25551567.99487393-.38824348,1.19338095l-.07367271.11021671c-.95657581,1.41498378-1.34014166,2.18153078-1.36820746,2.73115258-.00993997.19207528.19646056,2.57357484,1.0700084,3.24189156l-.0005847.0005847c.58411934.44612918,1.37873213.82969504,2.38500779,1.3155841.69989074.33737423,1.49333412.72035538,2.36395844,1.19688917.2601933.14208308.2748109.24499099.31515548.51863249l.00877056.0578857c.02455757.20815464.07659623,1.58396325.12337255,3.05332451h-6.32532833c-.5203866,0-.94254292.42215632-.94254292.94254292s.42215632.94254292.94254292.94254292h7.29710645c.25493096,0,.49875255-.10290791.67591787-.28592028.17775003-.18242766.27364149-.42975747.26604034-.68410373-.03332813-1.1565446-.11811022-3.88418895-.18067355-4.29815941ZM41.50103982,43.96536954c.03508224.27598031.10933966,2.2709905.17248769,4.29991353h-22.75434251c.06256333-2.02716891.13682075-4.02042499.17131828-4.29231237l.01929523-.13506663c.04853044-.35725417.07776564-.57300996.56219294-.84606675,1.28927241-.72854124,2.51276562-1.26296073,3.59242164-1.73481689,1.20419797-.52564893,2.15551145-.94137351,2.83347579-1.46000599.90482951-.69228959,1.35329751-3.52664243,1.29161123-4.2738942-.05554688-.67065554-.62241745-1.54011045-1.6488654-2.90977967-.12571137-.16751771-.22628046-.30053788-.27773442-.37742646-.16547124-.24791451-.55283767-.82881798-.55283767-1.40709028,0-.27188738.01929523-.35257654.05145396-.48676612.06431744-.26837916.11781786-.53938948.11781786-1.13841877l-.00029235-.17804238c-.00204646-.8744249-.00321587-1.45211249.51483191-3.55821645.15699304-.63937387.74198943-1.46614539,1.27699363-1.80468903.13565134-.08565914.19002881-.10553908.18769-.10641614.05671629-.00380058.11430964.0067241.18652059.01344819.48004202.04619162,1.28401008.1224955,3.25855563-.31895606.87354784-.19529115,2.23473885.26048565,3.3117637,1.1065524.76976287.60458398,1.12087765,1.21238383,1.12730939,1.54595749.03420519,1.83538599.12892724,2.27303696.23855925,2.77997537.03478989.16137832.0719186.33123484.10817025.5855811.0578857.40578461.14909953.63323448.23709749.83144915.04239104.09501441.05817805.13068135.05817805.38941289,0,.57797995-.35988534,1.42258493-.55196062,1.71172108l-.09004442.13360487c-1.21998498,1.80205786-1.70879756,2.76360366-1.74358745,3.42928921-.01871053.35579241.30813903,3.24218391,1.28108656,3.98183453.71333893.54611358,1.74768038,1.01387681,3.05712508,1.606182,1.02206267.46191619,2.18094608.98581102,3.39654578,1.64652658.45840797.24966863.50109136.53149597.56716292.96651578Z"/>
    </g>
  </g>
  <g id="Rectangles">
    <rect class="cls-1" x=".36" y=".36" width="71.28" height="71.28"/>
  </g>
</svg>