<svg xmlns="http://www.w3.org/2000/svg" version="1.1" viewBox="0 0 72 72">
  <path d="M53.6,64.5H19.4c-6.3,0-11.5-5.2-11.5-11.5V18.8c0-6.3,5.2-11.5,11.5-11.5h34.2c6.3,0,11.5,5.2,11.5,11.5v34.2c0,6.3-5.2,11.5-11.5,11.5ZM19.4,10.3c-4.7,0-8.5,3.8-8.5,8.5v34.2c0,4.7,3.8,8.5,8.5,8.5h34.2c4.7,0,8.5-3.8,8.5-8.5V18.8c0-4.7-3.8-8.5-8.5-8.5H19.4Z"/>
  <path d="M46.7,51.8c-.6,0-1.1-.5-1.1-1.2,0-.3.2-.7.4-.9,4.3-3.1,6.9-8.1,6.9-13.4,0-.6.5-1.1,1.1-1.1s1.1.5,1.1,1.1c0,6-2.9,11.7-7.8,15.2-.2.1-.4.2-.7.2Z"/>
  <path d="M53.8,34.5c-.5,0-1-.4-1.1-.9-.3-1.8-.9-3.5-1.8-5-.3-.6,0-1.2.5-1.5.5-.2,1.2,0,1.5.4,1,1.8,1.7,3.7,2,5.7,0,.6-.3,1.2-.9,1.3,0,0-.2,0-.2,0Z"/>
  <path d="M49.1,25c-.3,0-.5-.1-.7-.3-3.1-3.3-7.5-5.1-12-5.1-.5,0-1-.4-1-1s.4-1,1-1c5.1,0,9.9,2,13.4,5.7.4.4.4,1,0,1.4-.2.2-.4.3-.7.3Z"/>
  <path d="M26.9,22.6c-.6,0-1.1-.5-1.1-1.2,0-.4.2-.7.5-.9,1.8-1.2,3.8-2,5.9-2.5.6-.1,1.2.2,1.4.8,0,0,0,0,0,0,.1.6-.2,1.2-.8,1.4-1.8.4-3.5,1.2-5.1,2.2-.2.1-.4.2-.6.2Z"/>
  <path d="M19.6,31.9c-.6,0-1.1-.5-1.1-1.1,0-.1,0-.2,0-.4.9-2.6,2.3-5,4.2-7,.4-.5,1.2-.5,1.6,0s.5,1.2,0,1.6c-1.7,1.8-2.9,3.9-3.7,6.1-.2.5-.6.8-1.1.8Z"/>
  <path d="M20.5,44.9c-.4,0-.7-.2-.9-.6-1.4-3-2-6.2-1.8-9.5,0-.5.5-.9,1.1-.9.5,0,.9.5.9,1.1-.2,2.9.3,5.9,1.6,8.5.2.5,0,1.1-.5,1.3-.1,0-.3,0-.4,0,0,0,0,0,0,0Z"/>
  <path d="M24.2,50.2c-.2,0-.5-.1-.6-.3-.7-.7-1.4-1.4-2-2.2-.4-.3-.5-1-.1-1.4.3-.4,1-.5,1.4-.1.1,0,.2.2.2.3.5.7,1.1,1.3,1.8,2,.4.4.4,1,0,1.4-.2.2-.4.3-.7.3h0Z"/>
  <path d="M24.4,41.3c-.5,0-1-.3-1.1-.8-.4-1.3-.6-2.7-.6-4.1,0-7.6,6.2-13.7,13.7-13.7,0,0,0,0,0,0,.6,0,1.1.5,1.1,1.1s-.5,1.1-1.1,1.1c-6.3,0-11.4,5.1-11.4,11.5,0,1.2.2,2.3.5,3.4.2.6-.1,1.2-.7,1.4-.1,0-.2,0-.3,0Z"/>
  <path d="M28.5,53.3c0,0-.2,0-.2,0-.6-.1-1-.7-.9-1.4.9-4-.8-5.9-1.4-6.6h-.1c-.4-.6-.4-1.3,0-1.7s1.2-.4,1.6,0c0,0,0,0,0,0h0c2,2.4,2.7,5.3,1.9,8.7-.1.5-.6.9-1.1.9Z"/>
  <path d="M41.5,53.3h-.1c-.6,0-1.1-.6-1-1.2.4-4.3,2.2-5.8,3.6-7,.3-.3.6-.5.9-.8.4-.5,1.1-.5,1.6,0,.5.4.5,1.1,0,1.6-.3.3-.7.7-1,1-1.3,1.1-2.5,2.2-2.8,5.6,0,.6-.5,1-1.1,1Z"/>
  <path d="M48,42.2c-.1,0-.3,0-.4,0-.6-.2-.9-.9-.7-1.5,0,0,0,0,0,0,.6-1.4.8-2.8.8-4.3,0-4.3-2.4-8.2-6.2-10.2-.6-.3-.8-1-.5-1.5.3-.6,1-.8,1.5-.5,6.3,3.3,9.1,10.8,6.4,17.4-.2.4-.6.7-1.1.7Z"/>
  <path d="M41,43.6c-.5,0-1-.4-1-1,0-.3.1-.6.4-.8,1.3-1,2.2-2.5,2.5-4.1.3-1.4,0-2.9-.7-4.2-.2-.5,0-1.1.4-1.3.5-.2,1.1,0,1.3.4,1.9,3.7.9,8.2-2.4,10.7-.2.1-.4.2-.6.2Z"/>
  <path d="M31.6,31.6c-.3,0-.6-.1-.8-.4-.3-.4-.3-1,.1-1.4,0,0,0,0,0,0,1.5-1.3,3.4-1.9,5.4-2,1.3,0,2.6.3,3.8.9.5.2.7.8.5,1.3s-.8.7-1.3.5c0,0,0,0-.1,0-2.3-1.2-5.1-.9-7.2.8-.2.1-.4.2-.6.2Z"/>
  <path d="M32.9,54.5c-.2,0-.3,0-.5-.1-.5-.3-.6-.8-.4-1.3,1.9-3.5,1.2-7.5-.6-9.5v-.2c-1.8-1.8-3.6-3.9-3.6-6.8,0-1.1.2-2.3.6-3.3.2-.5.8-.7,1.3-.5s.7.8.5,1.3c-.3.8-.5,1.7-.5,2.6,0,2.2,1.4,3.8,3,5.5v.2c2.3,2.5,3.6,7.2,1,11.7-.2.3-.5.5-.8.5Z"/>
  <path d="M37.4,54.5c0,0-.2,0-.3,0-.5-.2-.8-.7-.7-1.2,2.5-8.4.3-10.9-.6-11.8-.2-.2-.5-.5-.8-.7-1.1-1-2.5-2.3-2.5-4.1,0-2,1.7-3.7,3.7-3.8,1-.1,1.9.2,2.7.9,1,.9,1.5,2.6,1.5,4.8h0c0,.6-.4,1-1,1s-1-.4-1-1h0c0-2.2-.5-3.1-.9-3.5-.3-.3-.8-.4-1.2-.3-1,0-1.9.8-2,1.8,0,1,1,1.9,1.9,2.7.3.3.6.6.9.9,1.7,1.8,3.5,5.3,1,13.7-.1.4-.5.7-.9.7Z"/>
</svg>