<?xml version="1.0" encoding="UTF-8"?>
<svg xmlns="http://www.w3.org/2000/svg" viewBox="0 0 72 72">
  <defs>
    <style>
      .cls-1 {
        fill: none;
      }
    </style>
  </defs>
  <path d="M53.1674678,64.5H18.99217483c-6.34130859,0-11.5-5.15869141-11.5-11.5V18.82470703c0-6.34130859,5.15869141-11.5,11.5-11.5h34.17529297c6.34130859,0,11.5,5.15869141,11.5,11.5v34.17529297c0,6.34130859-5.15869141,11.5-11.5,11.5ZM18.99217483,10.32470703c-4.68701172,0-8.5,3.81298828-8.5,8.5v34.17529297c0,4.68701172,3.81298828,8.5,8.5,8.5h34.17529297c4.68701172,0,8.5-3.81298828,8.5-8.5V18.82470703c0-4.68701172-3.81298828-8.5-8.5-8.5H18.99217483Z"/>
  <path d="M28.08281873,39.02233814l-3.30000114-.5c-.60000038-.09999847-.89999962-.40000153-.89999962-.79999924-.0112133-.37538528.28400612-.68878555.65939331-.70000076.01353264-.00040436.02707481-.00040436.04060745,0h5.29999924v-2h-5.29999924c-1.54140282-.1803627-2.93717194.92297745-3.11753654,2.46437836-.18036461,1.54140472.92297554,2.93717194,2.46438026,3.11753845.08407021.0098381.16854095.01586914.25315666.01808167l3.29999924.5c.60000038.09999847.89999962.40000153.89999962.79999924.0112133.37538528-.28400612.68878555-.65939331.70000076-.01353264.00040436-.02707481.00040436-.04060745,0h-3.89999962c-.90014839.01165009-1.62041855.75081253-1.60876656,1.65095901.00064278.04978943.00356865.09952164.00876617.14904022v.10000229h5.5c1.49293137.10601807,2.78913879-1.01829529,2.89515686-2.51122665.00209999-.0295639.00371361-.05915833.00484276-.08877182.15052795-1.44468689-.89859772-2.73786545-2.34328461-2.8883934-.05211258-.00542831-.10437393-.00930023-.15671349-.01160812Z"/>
  <path d="M49.38281797,37.7223389v4.09999847c.04347992,1.51182175,1.28759766,2.71150589,2.79999924,2.70000076h5.90000153v-.20000076c.06721497-.92539978-.62848663-1.73007202-1.55388641-1.79728699-.01535797-.00111389-.0307312-.00201797-.04611588-.00271225h-4.29999924c-.37538528.01121521-.68878555-.28400803-.70000076-.65939331-.00040436-.01353073-.00040436-.02707291,0-.04060745-.01768875-.41078949.29049683-.76300049.70000076-.79999924h1.90000153c1.32210159.08160782,2.50815582-.80792999,2.79999924-2.09999847h-4.29999924c-.4529953-.03485107-.88404465.20026779-1.09999847.59999847v-1.79999924c-.01121521-.37538528.28400803-.68878555.65939331-.70000076.01353073-.00040436.02707291-.00040436.04060745,0h4.19999695c.9001503-.0116539,1.62041855-.75081253,1.60876465-1.65096283-.00064468-.04978561-.00357056-.09951782-.00876617-.14903641v-.29999924h-5.79999924c-1.54639816,0-2.79999924,1.25360107-2.79999924,2.79999924Z"/>
  <path d="M46.2828195,39.02233814l-3.20000076-.5c-.59999847-.09999847-.79999924-.40000153-.79999924-.79999924-.01121521-.37538528.28400803-.68878555.65939331-.70000076.01353073-.00040436.02707291-.00040436.04060745,0h5.29999924v-2h-5.30000305c-1.5513916-.04055023-2.84191513,1.18422699-2.88246536,2.73561859-.03798294,1.45317459,1.03863907,2.69543457,2.48246384,2.86437988l3.29999924.5c.59999847.09999847.79999924.40000153.79999924.79999924.01121521.37538528-.28400803.68878555-.65939331.70000076-.01353073.00040436-.02707291.00040436-.04060745,0h-5.29999542v2h5.29999924c1.49293137.10602188,2.78913879-1.01829529,2.89516068-2.51122665.00209808-.02956009.0037117-.05915451.00484085-.08877182.14522934-1.50627518-.95811462-2.84508514-2.4643898-2.99031448-.04511642-.00434875-.09033203-.0075798-.13560867-.00968552Z"/>
  <path d="M37.38281797,40.62233661c-.00547409,1.15752411-.94247437,2.09452438-2.09999847,2.09999847-1.14229584-.04120255-2.05879593-.95770264-2.09999847-2.09999847h0v-5.69999695h-2v5.59999847c0,2.31959534,1.88040543,4.20000076,4.20000076,4.20000076s4.20000076-1.88040543,4.20000076-4.20000076v-5.5h-2.20000458v5.59999847Z"/>
  <path d="M37.48281644,27.92233776c.57989883.08284187,1.11715698-.32010078,1.20000076-.89999962.08283997-.57990074-.32010269-1.11715889-.90000153-1.20000076h-.20000076c-.54951477-.05523491-1.0397644.34545898-1.09499741.89497566-.00350571.03489685-.00517654.06995201-.00500107.10502434-.05523682.54951477.34545898,1.0397644.89497375,1.09499931.03489685.00350761.06995392.00517654.10502625.00500107ZM37.68281721,26.32233737c.29999924,0,.5.10000038.5.29999924s-.20000076.29999924-.5.29999924-.5-.10000038-.5-.29999924.29999924-.29999924.5-.29999924Z"/>
  <path d="M40.08281873,28.32233737s.20000076-.10000038.20000076-.20000076c-.18411255-.8855381-.5226059-1.73177338-1-2.5-.09999847-.10000038-.20000076-.29999924-.40000153-.39999962-1.70499802-.69667435-3.48278809-1.19982147-5.29999924-1.5h0v.80000114c-1.8410244-.62459183-3.75876427-.99468231-5.70000076-1.10000038-3.2512722-.28011894-6.49988747.56734467-9.20000076,2.39999962l-.10000038.10000038c-1.79883575,1.01073837-3.20712948,2.59506989-4,4.5-.36359024.95784569-.43322468,2.00236893-.19999981,3.00000191.14958477.53496933.3860693,1.04172516.69999981,1.5.73710728,1.05577087,1.91496849,1.71831894,3.20000076,1.79999924,1.63698959.27670288,3.22364426-.70959473,3.70000076-2.29999924.41646767-1.29792786-.1238327-2.71101952-1.29999924-3.39999962-.86973953-.57979393-1.99238777-.61850548-2.89999962-.10000038-.55204773.34607697-.89091492.9485054-.89999962,1.59999847.01788712.94853973.75403023,1.72798538,1.70000076,1.79999924.20514679.01576233.4110527-.01855469.60000038-.09999847.07580757-.01056671.14606094-.04569244.20000076-.09999847h0c.2676239-.13161087.37788391-.4552536.24627495-.72287369-.01325226-.02695084-.0287323-.05274963-.04627419-.07712555-.13717079-.19413376-.36239052-.30674362-.60000038-.29999924h-.39999962c-.30164719-.03159714-.52331543-.29759979-.5-.60000038h0c-.01323128-.10992432.02346039-.21999741.10000038-.29999924.24748039-.28937721.62121964-.43887329,1-.39999962.62057495.03513908,1.16549301.424366,1.39999962,1,.28508186.58852768.20731544,1.28840637-.20000458,1.79999542-.51618958.53546524-1.27430153.76289749-2,.59999847-1.52593994-.20262527-2.62524891-1.5657692-2.5-3.10000038.00733757-.3233223.11187744-.63694.30000019-.89999962.74324131-1.29349899,2.24847507-1.94441032,3.69999981-1.59999847,2.11580086.49688339,3.75303078,2.1730938,4.20000076,4.29999924h1.89999962c-.20000076-.70000076-.39999962-2.79999924,1.79999924-2.79999924,2.39999962,0,2.60000038,1.59999847,3.29999924,2.79999924h1.99999809c-.51307678-.65742874-.79434586-1.4660759-.79999924-2.29999924.20000076-1,1-1,2.20000076-.79999924.40000153,0,.79999924.10000038,1.20000076.10000038,1.09500885.00411034,2.18085861-.19948578,3.20000076-.60000038.41367722-.09815788.79350662-.30533791,1.09999847-.60000038.09999847-.10000038.09999847-.20000076.20000076-.29999924v-.10000038c0-.10000038.09999847-.29999924.09999847-.39999962,0-.05522728-.04476929-.10000038-.09999847-.10000038-.62947464.3938942-1.35744476.60188484-2.09999847.60000038-1.18822098-.16814423-2.33846664-.5402813-3.40000153-1.10000038h0l-.40000153-1c1.09124756.81532669,2.35852051,1.36333466,3.70000076,1.60000038.73569107.28880882,1.57339859.08935356,2.10000229-.50000191ZM35.88281797,26.82233737c.02804565-.85558128.74436569-1.52643204,1.59994888-1.49838829.85558319.02804565,1.52643204.7443676,1.49838638,1.59994888-.02802277.85495186-.7433548,1.52557373-1.59833527,1.49843979h0c-.83768845-.06692505-1.48720169-.75973892-1.5-1.60000038Z"/>
  <rect class="cls-1" x=".36" y=".36" width="71.28" height="71.28"/>
</svg>