<?xml version="1.0" encoding="UTF-8"?>
<svg id="Layer_1" xmlns="http://www.w3.org/2000/svg" version="1.1" viewBox="0 0 72 72">
  <!-- Generator: Adobe Illustrator 29.0.1, SVG Export Plug-In . SVG Version: 2.1.0 Build 192)  -->
  <path d="M53.2,64.5H19c-6.3,0-11.5-5.2-11.5-11.5V18.8c0-6.3,5.2-11.5,11.5-11.5h34.2c6.3,0,11.5,5.2,11.5,11.5v34.2c0,6.3-5.2,11.5-11.5,11.5ZM19,10.3c-4.7,0-8.5,3.8-8.5,8.5v34.2c0,4.7,3.8,8.5,8.5,8.5h34.2c4.7,0,8.5-3.8,8.5-8.5V18.8c0-4.7-3.8-8.5-8.5-8.5H19Z"/>
  <path d="M28.1,39l-3.3-.5c-.6,0-.9-.4-.9-.8,0-.4.3-.7.7-.7,0,0,0,0,0,0h5.3v-2h-5.3c-1.5-.2-2.9.9-3.1,2.5-.2,1.5.9,2.9,2.5,3.1,0,0,.2,0,.3,0l3.3.5c.6,0,.9.4.9.8,0,.4-.3.7-.7.7,0,0,0,0,0,0h-3.9c-.9,0-1.6.8-1.6,1.7,0,0,0,0,0,.1h0c0,.1,5.5.1,5.5.1,1.5.1,2.8-1,2.9-2.5,0,0,0,0,0,0,.2-1.4-.9-2.7-2.3-2.9,0,0-.1,0-.2,0Z"/>
  <path d="M49.4,37.7v4.1c0,1.5,1.3,2.7,2.8,2.7h5.9v-.2c0-.9-.6-1.7-1.6-1.8,0,0,0,0,0,0h-4.3c-.4,0-.7-.3-.7-.7,0,0,0,0,0,0,0-.4.3-.8.7-.8h1.9c1.3,0,2.5-.8,2.8-2.1h-4.3c-.5,0-.9.2-1.1.6v-1.8c0-.4.3-.7.7-.7,0,0,0,0,0,0h4.2c.9,0,1.6-.8,1.6-1.7,0,0,0,0,0-.1v-.3h-5.8c-1.5,0-2.8,1.3-2.8,2.8Z"/>
  <path d="M46.3,39l-3.2-.5c-.6,0-.8-.4-.8-.8,0-.4.3-.7.7-.7,0,0,0,0,0,0h5.3v-2h-5.3c-1.6,0-2.8,1.2-2.9,2.7,0,1.5,1,2.7,2.5,2.9l3.3.5c.6,0,.8.4.8.8,0,.4-.3.7-.7.7,0,0,0,0,0,0h-5.3v2h5.3c1.5.1,2.8-1,2.9-2.5,0,0,0,0,0,0,.1-1.5-1-2.8-2.5-3,0,0,0,0-.1,0Z"/>
  <path d="M37.4,40.6c0,1.2-.9,2.1-2.1,2.1-1.1,0-2.1-1-2.1-2.1h0v-5.7h-2v5.6c0,2.3,1.9,4.2,4.2,4.2s4.2-1.9,4.2-4.2v-5.5h-2.2v5.6Z"/>
  <path d="M37.5,27.9c.6,0,1.1-.3,1.2-.9,0-.6-.3-1.1-.9-1.2h-.2c-.5,0-1,.3-1.1.9,0,0,0,0,0,.1,0,.5.3,1,.9,1.1,0,0,0,0,.1,0ZM37.7,26.3c.3,0,.5.1.5.3s-.2.3-.5.3-.5-.1-.5-.3.3-.3.5-.3Z"/>
  <path d="M40.1,28.3s.2-.1.2-.2c-.2-.9-.5-1.7-1-2.5,0-.1-.2-.3-.4-.4-1.7-.7-3.5-1.2-5.3-1.5h0v.8c-1.8-.6-3.8-1-5.7-1.1-3.3-.3-6.5.6-9.2,2.4h-.1c-1.8,1.1-3.2,2.7-4,4.6-.4,1-.4,2-.2,3,.1.5.4,1,.7,1.5.7,1.1,1.9,1.7,3.2,1.8,1.6.3,3.2-.7,3.7-2.3.4-1.3-.1-2.7-1.3-3.4-.9-.6-2-.6-2.9-.1-.6.3-.9.9-.9,1.6,0,.9.8,1.7,1.7,1.8.2,0,.4,0,.6,0,0,0,.1,0,.2,0h0c.3-.1.4-.5.2-.7,0,0,0,0,0,0-.1-.2-.4-.3-.6-.3h-.4c-.3,0-.5-.3-.5-.6h0c0-.1,0-.2.1-.3.2-.3.6-.4,1-.4.6,0,1.2.4,1.4,1,.3.6.2,1.3-.2,1.8-.5.5-1.3.8-2,.6-1.5-.2-2.6-1.6-2.5-3.1,0-.3.1-.6.3-.9.7-1.3,2.2-1.9,3.7-1.6,2.1.5,3.8,2.2,4.2,4.3h1.9c-.2-.7-.4-2.8,1.8-2.8s2.6,1.6,3.3,2.8h2c-.5-.7-.8-1.5-.8-2.3.2-1,1-1,2.2-.8.4,0,.8.1,1.2.1,1.1,0,2.2-.2,3.2-.6.4,0,.8-.3,1.1-.6,0-.1,0-.2.2-.3h0c0-.2,0-.4,0-.5s0-.1,0-.1c-.6.4-1.4.6-2.1.6-1.2-.2-2.3-.5-3.4-1.1h0l-.4-1c1.1.8,2.4,1.4,3.7,1.6.7.3,1.6,0,2.1-.5ZM35.9,26.8c0-.9.7-1.5,1.6-1.5.9,0,1.5.7,1.5,1.6,0,.9-.7,1.5-1.6,1.5h0c-.8,0-1.5-.8-1.5-1.6Z"/>
</svg>