<svg xmlns="http://www.w3.org/2000/svg" version="1.1" viewBox="0 0 72 72">
  <path d="M52.9,64.5H18.7c-6.3,0-11.5-5.2-11.5-11.5V18.8c0-6.3,5.2-11.5,11.5-11.5h34.2c6.3,0,11.5,5.2,11.5,11.5v34.2c0,6.3-5.2,11.5-11.5,11.5ZM18.7,10.3c-4.7,0-8.5,3.8-8.5,8.5v34.2c0,4.7,3.8,8.5,8.5,8.5h34.2c4.7,0,8.5-3.8,8.5-8.5V18.8c0-4.7-3.8-8.5-8.5-8.5H18.7Z"/>
  <path d="M43.6,56.6h-15.1c-2.7,0-4.9-2.2-4.9-4.9v-31.5c0-2.7,2.2-4.9,4.9-4.9h15.1c2.7,0,4.9,2.2,4.9,4.9v31.5c0,2.7-2.2,4.9-4.9,4.9ZM28.4,17c-1.8,0-3.2,1.4-3.2,3.2v31.5c0,1.8,1.4,3.2,3.2,3.2h15.1c1.8,0,3.2-1.4,3.2-3.2v-31.5c0-1.8-1.4-3.2-3.2-3.2h-15.1Z"/>
  <rect x="33.8" y="19" width="4.5" height=".7"/>
  <path d="M44.7,50.1h-17.4c-.2,0-.4-.2-.4-.4v-28c0-.2.2-.4.4-.4h17.4c.2,0,.4.2.4.4v28c0,.2-.2.4-.4.4ZM27.6,49.4h16.7v-27.3h-16.7s0,27.3,0,27.3Z"/>
</svg>