<?xml version="1.0" encoding="UTF-8"?>
<svg xmlns="http://www.w3.org/2000/svg" viewBox="0 0 72 72">
    <style>
      .cls-1 {
        fill: none;
      }
    </style>
    <path d="M52.90613523,64.5H18.73084226c-6.34130859,0-11.5-5.15869141-11.5-11.5V18.82470703c0-6.34130859,5.15869141-11.5,11.5-11.5h34.17529297c6.34130859,0,11.5,5.15869141,11.5,11.5v34.17529297c0,6.34130859-5.15869141,11.5-11.5,11.5ZM18.73084226,10.32470703c-4.68701172,0-8.5,3.81298828-8.5,8.5v34.17529297c0,4.68701172,3.81298828,8.5,8.5,8.5h34.17529297c4.68701172,0,8.5-3.81298828,8.5-8.5V18.82470703c0-4.68701172-3.81298828-8.5-8.5-8.5H18.73084226Z"/>
    <polygon points="52.62343144 52.64216675 19.79315274 52.64216675 19.79315274 19.87040648 22.13399264 19.87040648 22.13399264 50.30132462 52.62343144 50.30132462 52.62343144 52.64216675"/>
    <path d="M41.83801143,37.54959873c-.28727848-.00059382-.56430579-.10682252-.77832811-.2984561l-6.40219632-5.68824055-8.42702453,4.66997422c-.56560393.32320225-1.28612463.12669757-1.60932743-.43890748s-.12669701-1.28612518.43890748-1.60932743l9.18779705-5.06791718c.43541378-.24043048.97522792-.17940785,1.3459825.15215473l6.13885139,5.45415679,9.3633596-10.80882784c.46821665-.44566049,1.20905831-.42737547,1.6547188.04084006.38860707.4082745.43102042,1.03554008.10091113,1.49241056l-10.14168994,11.7041995c-.20435379.23719461-.49522198.38262871-.80759039.40379408h-.06437122v-.00585335Z"/>
    <path d="M26.09586444,47.13533874c-.40400281,0-.73151247-.32750854-.73151247-.73151247v-5.6414238c.05100139-.40077141.41723424-.68431509.81800565-.63331371.33077231.04209188.59122183.30254139.63331482.63331371v5.65897939c-.00937719.39262539-.32711787.7077843-.719808.71395688Z"/>
    <path d="M31.49735224,47.13533874c-.40400281,0-.73151247-.32750854-.73151247-.73151247v-9.46284422c0-.40400392.32750966-.73151247.73151247-.73151247s.73151247.32750854.73151247.73151247v9.46284422c0,.40400392-.32750966.73151247-.73151247.73151247Z"/>
    <path d="M36.76424202,47.13533874c-.40400392,0-.73151247-.32750854-.73151247-.73151247v-6.34367622c0-.40400392.32750854-.73151247.73151247-.73151247s.73151247.32750854.73151247.73151247v6.34367622c0,.40400392-.32750854.73151247-.73151247.73151247Z"/>
    <path d="M42.1247653,47.13533874c-.40400392,0-.73151247-.32750854-.73151247-.73151247v-2.71537393c0-.40400392.32750854-.73151247.73151247-.73151247s.73151247.32750854.73151247.73151247v2.73292951c-.00953458.39713037-.33426602.71407074-.73151247.71395688Z"/>
    <path d="M47.29802156,47.13533874c-.40400392,0-.73151247-.32750854-.73151247-.73151247v-10.53377955c0-.40400392.32750854-.73151247.73151247-.73151247s.73151247.32750854.73151247.73151247v10.53377955c0,.40400392-.32750854.73151247-.73151247.73151247Z"/>
    <rect class="cls-1" x=".36" y=".36" width="71.28" height="71.28"/>
</svg>