<?xml version="1.0" encoding="UTF-8"?>
<svg xmlns="http://www.w3.org/2000/svg" width="1in" height="1in" viewBox="0 0 72 72">
  <defs>
    <style>
      .cls-1 {
        fill: none;
      }

      .cls-2 {
        fill-rule: evenodd;
      }
    </style>
  </defs>
  <g id="SVG_icons" data-name="SVG icons">
    <g id="Layer_7" data-name="Layer 7">
      <path d="M53.25457865,64.5H19.07928568c-6.34130859,0-11.5-5.15869141-11.5-11.5V18.82470703c0-6.34130859,5.15869141-11.5,11.5-11.5h34.17529297c6.34130859,0,11.5,5.15869141,11.5,11.5v34.17529297c0,6.34130859-5.15869141,11.5-11.5,11.5ZM19.07928568,10.32470703c-4.68701172,0-8.5,3.81298828-8.5,8.5v34.17529297c0,4.68701172,3.81298828,8.5,8.5,8.5h34.17529297c4.68701172,0,8.5-3.81298828,8.5-8.5V18.82470703c0-4.68701172-3.81298828-8.5-8.5-8.5H19.07928568Z"/>
      <path class="cls-2" d="M44.02481292,36.03657077c-.24000168-.52000046,0-1.29999924-.56000137-1.52000046.33637238-1.32527161.25606155-2.72201729-.22999954-4-.70999908-2-2.68999863-4.18000031-3.31000137-5.39999962-.84999847-1.68000031-.38000107-4.52000046-1-5.53999901-.66276932-1.21875191-1.93278503-1.98382187-3.31999969-2-1.68999863,0-4.10000038.85000038-3.29000092,5.65999985.20325851.84122849.20325851,1.71877098,0,2.55999947-.24000168.59000015-1.14999962,1.44000053-2,2.65999985-.43526077.94310951-.82242393,1.90768051-1.15999985,2.88999939-.55999756,1.22000122-1.32999802,1.84000206-.55999756,2.84000206l-1.13999939,1.33000183c-.62999916.38000107-1.32999992.11000061-1.70999908.75999832l-.15000153,3.09000015c.46999931.88000107,2.25.63999939,3.22999954,1.13999939,1.00276947.51708221,2.11187172.7943573,3.24000168.81000137.61000061-.06999969.77999878-.81000137,1.72999954-1.04999924,1.60962677-.25928116,3.25037384-.25928116,4.86000061,0,1.72000122,2.86999893,4-.47999954,5-.93999863s2-.84999847,2.04999924-1.45999908-1.11000061-.62000275-1.68000031-1.83000565ZM36.95481323,20.9365723c.75553894.39056778,1.05140686,1.31967163.66083908,2.07520866-.09409714.182024-.22357178.3434391-.3808403.47479057-.18999863,0-.49000168-.12999916-.68000031-.17000008.75-.54999924.68000031-1.27000046,0-1.46999931s-.72000122.37999916-.54999924,1.19000053l-.38000107-.09000015c-.45385361-.52020073-.40006638-1.3098278.12013245-1.7636795.33176422-.2894516.79134369-.38301849,1.20986938-.24632072ZM33.23481201,21.01657222c.40999985-.17000008,1.29999924,0,1.11000061,1.73999977l-.31000137.13999939c0-1.18000031-.58000183-1.43000031-.88999939-.87999916-.18999863.35000038.11000061,1,.43999863,1.21000099l-.27999878.28000069c-.70318222-.53514671-.83940125-1.539011-.30425644-2.24219322.06903458-.09071159.14756775-.17378616.23425674-.24780846ZM40.03481125,34.1865723c-.36000061.20000076-1.08000183-.30999947-1,.27000046.06000137.32999992.20999908,2.25-.11000061,2.59999847-1.81999969,2-4.70999908,2.20999908-5.92000198,1.52999878-.35570145-.16836548-.6113472-.49440765-.68999863-.88000107.54999924,0,1.22999954-.43000031.95000076-1.18000031s-2.75-1.71999931-2.92000008-2.51000023-.46999931-1.07999992.82999992-4c.36000061-.80999947.61999893-1.79999924,1-2.55999947.20000076-.42000008.54000092-.70999908.68000031-1.10000038.08942795-.42733192.10968399-.86624718.06000137-1.29999924l.18999863-.09000015c1.16999817,1.63999939,2.74000168,1.23999977,4.32999802-.18000031.38000107,0,.61000061,1.20000076,1.13999939,2.34000015.22000122.48999977.29000092,1,.54000092,1.54999924.36708832.63439941.66864395,1.30452156.90000153,2,.22891617,1.15817451.23570251,2.34929657.02000046,3.51000404Z"/>
      <path d="M19.41481231,42.1865723h1.72999954v8.38000107h5v1.49000168h-6.72999954v-9.87000275Z"/>
      <path d="M27.16481231,42.1865723h1.57999992v1.49000168h-1.57999992v-1.49000168ZM27.16481231,44.90657352h1.57999992v7.15000153h-1.57999992v-7.15000153Z"/>
      <path d="M30.46481346,44.90657352h1.48999977v1.04999924h0c.2293663-.38471985.552845-.70476151.93999863-.93000031.3914566-.22762299.83720398-.34510422,1.29000092-.34000015.67134857-.03591156,1.33167648.1818161,1.84999847.61000061.51150131.48942566.77274704,1.1848526.7100029,1.88999939v4.90999985h-1.58000183v-4.52999878c.01596451-.435009-.11043167-.8633461-.36000061-1.22000122-.2640686-.26319885-.6277771-.40140915-1-.38000107-.24803925-.00281525-.49372101.04837036-.72000122.15000153-.20692062.09252167-.3911972.22901917-.54000092.40000153-.15311432.17638779-.2718277.37989426-.34999847.59999847-.08207703.23451996-.12268066.48154449-.11999893.72999954v4.22000122h-1.6099987v-7.15999985Z"/>
      <path d="M44.67481445,52.05657123h-1.54000092v-1h0c-.1983757.36312103-.49687958.66162491-.86000061.86000061-.35527802.20721436-.75871658.31755447-1.16999817.31999969-.73532867.05743408-1.46098328-.19654465-2-.70000076-.46369553-.60123062-.6881485-1.35295868-.63000107-2.11000061v-4.51999664h1.58000183v4.38000107c-.04772949.47252655.08044434.946064.36000061,1.33000183.2623291.26686096.62626266.4087944,1,.38999939.2841835.00957108.56714249-.04156876.83000183-.15000153.20967865-.0923996.39466858-.23285294.54000092-.40999985.14494324-.18173218.24744034-.39356232.29999924-.61999893.06169128-.25196457.09192276-.51060104.09000015-.77000046v-4.15000153h1.58000183l-.08000565,7.14999771Z"/>
      <path d="M48.26481079,48.29657291l-2.47000122-3.38999939h1.90000153l1.49000168,2.20000076,1.56000137-2.20000076h1.84999847l-2.45000076,3.27999878,2.74000168,3.84000015h-1.90000153l-1.81000137-2.63999939-1.75999832,2.63999939h-1.81999969l2.66999817-3.72999954Z"/>
    </g>
  </g>
  <g id="Rectangles">
    <rect class="cls-1" x=".36" y=".36" width="71.28" height="71.28"/>
  </g>
</svg>