<?xml version="1.0" encoding="UTF-8"?>
<svg id="Layer_1" xmlns="http://www.w3.org/2000/svg" version="1.1" viewBox="0 0 72 72">
  <!-- Generator: Adobe Illustrator 29.0.1, SVG Export Plug-In . SVG Version: 2.1.0 Build 192)  -->
  <path d="M53.2,64.5H19c-6.3,0-11.5-5.2-11.5-11.5V18.8c0-6.3,5.2-11.5,11.5-11.5h34.2c6.3,0,11.5,5.2,11.5,11.5v34.2c0,6.3-5.2,11.5-11.5,11.5ZM19,10.3c-4.7,0-8.5,3.8-8.5,8.5v34.2c0,4.7,3.8,8.5,8.5,8.5h34.2c4.7,0,8.5-3.8,8.5-8.5V18.8c0-4.7-3.8-8.5-8.5-8.5H19Z"/>
  <path d="M22.7,47.5c-3.9,0-7-3.2-7-7.1,0-3.9,3.2-7,7.1-7,.5,0,1.1,0,1.6.2,1.2-6.5,7.3-10.8,13.8-9.7,3.5.6,6.6,2.8,8.3,5.9.4,0,.7,0,1.1,0,4.6,0,8.4,4,8.4,8.9s-3.5,8.7-8.1,8.9h-4.6c-.7,0-1.3-.6-1.3-1.3s.6-1.3,1.3-1.3h4.5c3.1-.1,5.5-2.9,5.5-6.3s-2.6-6.3-5.8-6.3c-.3,0-.6,0-1,0-.9.2-1.8-.2-2.2-1.1-2.3-4.6-7.9-6.4-12.5-4.1-2.8,1.4-4.6,4.1-5,7.2-.1,1.1-1.1,1.9-2.2,1.8-.2,0-.3,0-.4-.1-.5-.2-.9-.2-1.4-.2-2.5,0-4.5,1.9-4.5,4.4,0,2.5,1.9,4.5,4.4,4.5h12.9c.7,0,1.3.6,1.3,1.3s-.6,1.3-1.3,1.3c0,0-12.9,0-12.9,0Z"/>
</svg>