<svg xmlns="http://www.w3.org/2000/svg" version="1.1" viewBox="0 0 72 72">
  <path d="M52.9,64.5H18.7c-6.3,0-11.5-5.2-11.5-11.5V18.8c0-6.3,5.2-11.5,11.5-11.5h34.2c6.3,0,11.5,5.2,11.5,11.5v34.2c0,6.3-5.2,11.5-11.5,11.5ZM18.7,10.3c-4.7,0-8.5,3.8-8.5,8.5v34.2c0,4.7,3.8,8.5,8.5,8.5h34.2c4.7,0,8.5-3.8,8.5-8.5V18.8c0-4.7-3.8-8.5-8.5-8.5H18.7Z"/>
  <polygon points="52.6 52.6 19.8 52.6 19.8 19.9 22.1 19.9 22.1 50.3 52.6 50.3 52.6 52.6"/>
  <path d="M41.8,37.5c-.3,0-.6-.1-.8-.3l-6.4-5.7-8.4,4.7c-.6.3-1.3.1-1.6-.4s-.1-1.3.4-1.6l9.2-5.1c.4-.2,1-.2,1.3.2l6.1,5.5,9.4-10.8c.5-.4,1.2-.4,1.7,0,.4.4.4,1,.1,1.5l-10.1,11.7c-.2.2-.5.4-.8.4h0s0,0,0,0Z"/>
  <path d="M26.1,47.1c-.4,0-.7-.3-.7-.7v-5.6c0-.4.4-.7.8-.6.3,0,.6.3.6.6v5.7c0,.4-.3.7-.7.7Z"/>
  <path d="M31.5,47.1c-.4,0-.7-.3-.7-.7v-9.5c0-.4.3-.7.7-.7s.7.3.7.7v9.5c0,.4-.3.7-.7.7Z"/>
  <path d="M36.8,47.1c-.4,0-.7-.3-.7-.7v-6.3c0-.4.3-.7.7-.7s.7.3.7.7v6.3c0,.4-.3.7-.7.7Z"/>
  <path d="M42.1,47.1c-.4,0-.7-.3-.7-.7v-2.7c0-.4.3-.7.7-.7s.7.3.7.7v2.7c0,.4-.3.7-.7.7Z"/>
  <path d="M47.3,47.1c-.4,0-.7-.3-.7-.7v-10.5c0-.4.3-.7.7-.7s.7.3.7.7v10.5c0,.4-.3.7-.7.7Z"/>
</svg>