<?xml version="1.0" encoding="UTF-8"?>
<svg xmlns="http://www.w3.org/2000/svg" viewBox="0 0 72 72">
  <g id="SVG_icons" data-name="SVG icons">
    <g id="Document">
      <path d="M54.09,64.21H17.14c-1.78,0-3.23-1.45-3.23-3.24V11.25c0-1.78,1.45-3.23,3.23-3.23h25.37c.81,0,1.59.3,2.19.85l11.58,10.67c.66.61,1.04,1.48,1.04,2.38v39.06c0,1.78-1.45,3.24-3.23,3.24h0ZM17.14,10.52c-.4,0-.73.33-.73.73v49.72c0,.41.33.74.73.74h36.96c.4,0,.73-.33.73-.74V21.92c0-.21-.09-.4-.24-.54l-11.58-10.67c-.14-.12-.31-.19-.5-.19,0,0-25.37,0-25.37,0Z"/>
    </g>
  </g>
  <g id="Rectangles">
    <rect x=".36" y=".36" width="71.28" height="71.28" fill="none"/>
  </g>
  <path d="M25.41,32.72c-2.98,0-5.4-2.42-5.4-5.4s2.42-5.4,5.4-5.4,5.4,2.42,5.4,5.4-2.42,5.4-5.4,5.4ZM25.41,23.47c-2.13,0-3.85,1.73-3.85,3.85s1.73,3.85,3.85,3.85,3.85-1.73,3.85-3.85-1.73-3.85-3.85-3.85Z"/>
  <path d="M25.41,44.87c-2.98,0-5.4-2.42-5.4-5.4s2.42-5.4,5.4-5.4,5.4,2.42,5.4,5.4-2.42,5.4-5.4,5.4ZM25.41,35.62c-2.13,0-3.85,1.73-3.85,3.85s1.73,3.85,3.85,3.85,3.85-1.73,3.85-3.85-1.73-3.85-3.85-3.85Z"/>
  <circle cx="25.41" cy="39.47" r="2.73"/>
  <path d="M50.01,28.48h-14.92c-.64,0-1.16-.52-1.16-1.16s.52-1.16,1.16-1.16h14.92c.64,0,1.16.52,1.16,1.16s-.52,1.16-1.16,1.16Z"/>
  <path d="M50.01,40.63h-14.92c-.64,0-1.16-.52-1.16-1.16s.52-1.16,1.16-1.16h14.92c.64,0,1.16.52,1.16,1.16s-.52,1.16-1.16,1.16Z"/>
  <path d="M25.41,56.93c-2.98,0-5.4-2.42-5.4-5.4s2.42-5.4,5.4-5.4,5.4,2.42,5.4,5.4-2.42,5.4-5.4,5.4ZM25.41,47.67c-2.13,0-3.85,1.73-3.85,3.85s1.73,3.85,3.85,3.85,3.85-1.73,3.85-3.85-1.73-3.85-3.85-3.85Z"/>
  <path d="M50.01,52.69h-14.92c-.64,0-1.16-.52-1.16-1.16s.52-1.16,1.16-1.16h14.92c.64,0,1.16.52,1.16,1.16s-.52,1.16-1.16,1.16Z"/>
</svg>