<svg xmlns="http://www.w3.org/2000/svg" viewBox="0 0 72 72">
  <g id="SVG_icons" data-name="SVG icons">
    <g id="Document">
      <path d="M54.59,64.21H17.64c-1.78,0-3.23-1.45-3.23-3.24V11.25c0-1.78,1.45-3.23,3.23-3.23h25.37c.81,0,1.59.3,2.19.85l11.58,10.67c.66.61,1.04,1.48,1.04,2.38v39.06c0,1.78-1.45,3.24-3.23,3.24ZM17.64,10.52c-.4,0-.73.33-.73.73v49.72c0,.41.33.74.73.74h36.96c.4,0,.73-.33.73-.74V21.92c0-.21-.09-.4-.24-.54l-11.58-10.67c-.14-.12-.31-.19-.5-.19h-25.37Z"/>
    </g>
    <path d="M49.62,38.74h-9.15c.08-.51.13-1.03.13-1.57,0-1.36-.28-2.66-.77-3.85h6.95c.27,0,.51-.14.65-.37.13-.23.14-.51,0-.75l-8.87-15.83c-.13-.24-.38-.38-.65-.38s-.52.15-.65.38l-6.03,10.76c-.24-.02-.47-.04-.71-.04-5.56,0-10.08,4.52-10.08,10.08s4.52,10.08,10.08,10.08c.66,0,1.3-.07,1.92-.19v8.84c0,.41.34.75.75.75h16.42c.41,0,.75-.34.75-.75v-16.42c0-.41-.34-.75-.75-.75ZM37.92,18.28l7.59,13.55h-6.46c-1.39-2.21-3.61-3.84-6.22-4.45l5.1-9.1ZM32.06,28.75c2.08.38,3.89,1.5,5.16,3.08h-6.88l1.72-3.08ZM30.53,45.76c-4.73,0-8.58-3.85-8.58-8.58s3.79-8.51,8.47-8.57l-2.02,3.6c-.13.23-.13.52,0,.75.13.23.38.37.65.37h9.13c.59,1.16.92,2.47.92,3.85,0,.54-.06,1.06-.15,1.57h-5.75c-.41,0-.75.34-.75.75v6.04c-.62.14-1.26.23-1.92.23ZM38.53,40.24c-.82,2.14-2.48,3.88-4.58,4.79v-4.79h4.58ZM48.87,55.16h-14.92v-8.52c2.92-1.06,5.22-3.43,6.17-6.4h8.74v14.92Z"/>
  </g>
  <g id="Rectangles">
    <rect x=".36" y=".36" width="71.28" height="71.28" fill="none"/>
  </g>
</svg>