<svg xmlns="http://www.w3.org/2000/svg" viewBox="0 0 72 72">
  <g id="SVG_icons" data-name="SVG icons">
    <path d="M49.72,38.66h-27c-.28,0-.5-.22-.5-.5v-5.03c0-.28.22-.5.5-.5h27c.28,0,.5.22.5.5v5.03c0,.28-.22.5-.5.5ZM23.22,37.66h26v-4.03h-26v4.03Z" fill="#272525"/>
    <path d="M33.93,28.38h-11.16c-.41,0-.75-.34-.75-.75v-10.64c0-.41.34-.75.75-.75h11.16c.41,0,.75.34.75.75v10.64c0,.41-.34.75-.75.75ZM23.51,26.88h9.66v-9.14h-9.66v9.14Z" fill="#272525"/>
    <path d="M49.65,55.45h-11.16c-.41,0-.75-.34-.75-.75v-10.64c0-.41.34-.75.75-.75h11.16c.41,0,.75.34.75.75v10.64c0,.41-.34.75-.75.75ZM39.24,53.95h9.66v-9.14h-9.66v9.14Z" fill="#272525"/>
    <polygon points="40.72 27.45 40.72 24.86 49.62 24.86 49.62 27.45 40.72 27.45 40.72 27.45" fill="#272525"/>
    <polygon points="40.72 19.79 40.72 17.2 49.62 17.2 49.62 19.78 40.72 19.78 40.72 19.79" fill="#272525"/>
    <polygon points="22.85 54.48 22.85 51.89 31.76 51.89 31.76 54.48 22.85 54.48 22.85 54.48" fill="#272525"/>
    <polygon points="22.85 46.82 22.85 44.23 31.76 44.23 31.76 46.81 22.85 46.81 22.85 46.82" fill="#272525"/>
    <path d="M54.4,64.29H17.51c-2.13,0-3.86-1.73-3.86-3.87V11.58c0-2.13,1.73-3.87,3.86-3.87h36.89c2.13,0,3.86,1.73,3.86,3.87v48.84c0,2.13-1.73,3.87-3.86,3.87ZM17.51,10.21c-.75,0-1.36.61-1.36,1.37v48.84c0,.75.61,1.37,1.36,1.37h36.89c.75,0,1.36-.61,1.36-1.37V11.58c0-.75-.61-1.37-1.36-1.37H17.51Z" fill="#272525"/>
  </g>
  <g id="Rectangles">
    <rect x=".36" y=".36" width="71.28" height="71.28" fill="none"/>
  </g>
</svg>