<svg xmlns="http://www.w3.org/2000/svg" viewBox="0 0 72 72">
  <g id="SVG_icons" data-name="SVG icons">
    <g id="Document">
      <path d="M54.49,64.21H17.54c-1.78,0-3.23-1.45-3.23-3.24V11.25c0-1.78,1.45-3.23,3.23-3.23h25.37c.81,0,1.59.3,2.19.85l11.58,10.67c.66.61,1.04,1.48,1.04,2.38v39.06c0,1.78-1.45,3.24-3.23,3.24ZM17.54,10.52c-.4,0-.73.33-.73.73v49.72c0,.41.33.74.73.74h36.96c.4,0,.73-.33.73-.74V21.92c0-.21-.09-.4-.24-.54l-11.58-10.67c-.14-.12-.31-.19-.5-.19h-25.37Z"/>
    </g>
    <path d="M49.64,28.58c-.29-2.96-7.06-4.81-13.11-4.81s-12.87,1.86-13.11,4.81v16.11c0,3.1,6.96,5.15,13.11,5.15s13.11-2.05,13.11-5.15v-16.11h0ZM47.97,39.5c0,1.72-4.62,3.58-11.44,3.58s-11.44-1.91-11.44-3.58v-3.05c2.19,1.76,6.86,2.67,11.44,2.67s9.3-.91,11.44-2.67v3.05ZM47.97,34.3c0,1.72-4.62,3.58-11.44,3.58s-11.44-1.91-11.44-3.58v-3.29c2.19,1.76,6.86,2.57,11.44,2.57s9.3-.91,11.44-2.67v3.39ZM36.53,25.29c6.82,0,11.44,2,11.44,3.72s-4.62,3.48-11.44,3.48-11.44-1.76-11.44-3.48,4.62-3.72,11.44-3.72ZM36.53,48.03c-6.82,0-11.44-2.15-11.44-3.81v-2.62c2.19,1.76,6.86,2.67,11.44,2.67s9.3-.91,11.44-2.67v2.62c0,1.72-4.62,3.81-11.44,3.81Z"/>
  </g>
  <g id="Rectangles">
    <rect x=".36" y=".36" width="71.28" height="71.28" fill="none"/>
  </g>
</svg>