<svg xmlns="http://www.w3.org/2000/svg" viewBox="0 0 72 72">
  <g id="SVG_icons" data-name="SVG icons">
    <g id="Document">
      <path d="M55.37,63.85H18.41c-1.78,0-3.23-1.45-3.23-3.24V10.89c0-1.78,1.45-3.23,3.23-3.23h25.37c.81,0,1.59.3,2.19.85l11.58,10.67c.66.61,1.04,1.48,1.04,2.38v39.06c0,1.78-1.45,3.24-3.23,3.24ZM18.41,10.16c-.4,0-.73.33-.73.73v49.72c0,.41.33.74.73.74h36.96c.4,0,.73-.33.73-.74V21.56c0-.21-.09-.4-.24-.54l-11.58-10.67c-.14-.12-.31-.19-.5-.19h-25.37Z"/>
    </g>
    <path d="M36.99,24.38s-.02,0-.03,0c0,0,0,0,0,0-.27,0-.54.02-.81.04-8.01.44-14.39,7.08-14.39,15.2s6.81,15.21,15.19,15.24c0,0,0,0,.01,0,0,0,.01,0,.02,0,0,0,.01,0,.02,0,8.4,0,15.24-6.84,15.24-15.24s-6.84-15.24-15.24-15.24ZM23.25,39.62c0-5.38,3.12-10.04,7.63-12.29-1.08,1.36-1.73,3.09-1.73,4.96,0,4.82,3.06,7.94,7.81,7.94,3.95,0,6.31,2.41,6.31,6.44,0,3.62-2.88,6.68-6.29,6.69-7.57-.01-13.72-6.17-13.72-13.74ZM42.74,52.09c1.24-1.46,2.02-3.36,2.02-5.42,0-4.82-3.06-7.94-7.81-7.94s-6.31-3.33-6.31-6.44c0-3.31,2.48-6.04,5.65-6.38.23-.01.46-.04.7-.04,7.58,0,13.74,6.17,13.74,13.74,0,5.52-3.28,10.28-7.99,12.46Z" fill="#272525"/>
    <circle cx="36.95" cy="32.33" r="1.38" fill="#272525"/>
    <circle cx="36.95" cy="46.92" r="1.38" fill="#272525"/>
  </g>
  <g id="Rectangles">
    <rect x=".36" y=".36" width="71.28" height="71.28" fill="none"/>
  </g>
</svg>