<?xml version="1.0" encoding="UTF-8"?>
<svg id="Layer_1" data-name="Layer 1" xmlns="http://www.w3.org/2000/svg" width="72" height="72" viewBox="0 0 72 72">
  <g id="Rectangles">
    <rect x=".36" y=".36" width="71.28" height="71.28" fill="none"/>
  </g>
  <rect x="19.51" y="55.29" width="7.92" height="3.24"/>
  <rect x="19.51" y="46.83" width="7.92" height="3.24"/>
  <rect x="19.51" y="38.38" width="7.92" height="3.24"/>
  <rect x="19.51" y="29.92" width="7.92" height="3.24"/>
  <rect x="19.51" y="21.46" width="7.92" height="3.24"/>
  <rect x="19.51" y="13.01" width="7.92" height="3.24"/>
  <rect x="43.89" y="55.29" width="7.92" height="3.24"/>
  <rect x="43.89" y="46.83" width="7.92" height="3.24"/>
  <rect x="43.89" y="38.38" width="7.92" height="3.24"/>
  <rect x="43.89" y="29.92" width="7.92" height="3.24"/>
  <rect x="43.89" y="21.46" width="7.92" height="3.24"/>
  <path d="M56.28,19.54l-11.58-10.67c-.6-.55-1.38-.85-2.19-.85h-25.37c-1.78,0-3.23,1.45-3.23,3.23v49.72c0,1.79,1.45,3.24,3.23,3.24h36.95c1.78,0,3.23-1.45,3.23-3.23V21.92c0-.9-.38-1.77-1.04-2.38ZM54.83,60.97c0,.41-.33.74-.73.74H17.14c-.4,0-.73-.33-.73-.74V11.25c0-.4.33-.73.73-.73h25.37c.19,0,.36.07.5.19l2.49,2.3h-1.61v3.24h5.13l5.56,5.13c.15.14.24.33.24.54v39.05Z"/>
</svg>