<svg xmlns="http://www.w3.org/2000/svg" viewBox="0 0 72 72">
  <rect width="71.28" height="71.28" fill="none"/>
  <path d="M65.57,19.29l-8.93-8.21c-.54-.51-1.26-.78-2-.77h-17.39c-1.6,0-2.9,1.3-2.9,2.9v4.77l-7.5-6.9c-.54-.51-1.26-.78-2-.77H7.95c-1.6,0-2.9,1.3-2.9,2.9v43.79c0,1.6,1.3,2.9,2.9,2.91h25.86c.62,0,1.22-.21,1.72-.58.49.38,1.1.58,1.72.58h26.39c1.6,0,2.9-1.31,2.9-2.91V21.43c0-.82-.36-1.59-.97-2.14ZM33.81,57.16H7.95c-.08,0-.15-.08-.15-.16V13.21c0-.08.07-.15.15-.15h16.94s.07,0,.1,0l8.92,8.21s.01.08,0,.12l.03,22.51h-13.16l6.15-6.15-2.34-2.36-10.13,10.16,10.08,10.09,2.34-2.34-6.1-6.1h13.17v9.8c.01.08-.05.15-.14.16ZM63.66,57.16h-26.41c-.08,0-.15-.08-.15-.16V13.21c0-.08.07-.15.15-.15h17.44s.07,0,.1,0l8.92,8.21s.05.07.05.12l.05,35.61c0,.08-.07.15-.15.16Z"/>
</svg>