<svg xmlns="http://www.w3.org/2000/svg" viewBox="0 0 72 72">
  <g id="SVG_icons" data-name="SVG icons">
    <g id="Document">
      <path d="M54.29,64.21H17.34c-1.78,0-3.23-1.45-3.23-3.24V11.25c0-1.78,1.45-3.23,3.23-3.23h25.37c.81,0,1.59.3,2.19.85l11.58,10.67c.66.61,1.04,1.48,1.04,2.38v39.06c0,1.78-1.45,3.24-3.23,3.24ZM17.34,10.52c-.4,0-.73.33-.73.73v49.72c0,.41.33.74.73.74h36.96c.4,0,.73-.33.73-.74V21.92c0-.21-.09-.4-.24-.54l-11.58-10.67c-.14-.12-.31-.19-.5-.19h-25.37Z"/>
    </g>
    <path d="M45.47,35.53l.41-2.59h-3.15l.95-5.83h-2.58l-.96,5.83h-5.09l.95-5.83h-2.58l-.95,5.83h-3.13l-.44,2.59h3.15l-.82,5h-3.16l-.44,2.58h3.18l-.95,5.83h2.58l.95-5.83h5.08l-.96,5.83h2.61l.95-5.83h3.13l.42-2.58h-3.13l.82-5h3.17ZM38.89,40.53h-5.08l.82-5h5.09l-.82,5Z"/>
  </g>
  <g id="Rectangles">
    <rect x=".36" y=".36" width="71.28" height="71.28" fill="none"/>
  </g>
</svg>