<?xml version="1.0" encoding="UTF-8"?>
<svg id="Layer_1" data-name="Layer 1" xmlns="http://www.w3.org/2000/svg" width="72" height="72" viewBox="0 0 72 72">
  <g id="SVG_icons" data-name="SVG icons">
    <g id="Document">
      <path d="M54,64.21H17.05c-1.78,0-3.23-1.45-3.23-3.24V11.25c0-1.78,1.45-3.23,3.23-3.23h25.37c.81,0,1.59.3,2.19.85l11.58,10.67c.66.61,1.04,1.48,1.04,2.38v39.06c0,1.78-1.45,3.24-3.23,3.24h0ZM17.05,10.52c-.4,0-.73.33-.73.73v49.72c0,.41.33.74.73.74h36.96c.4,0,.73-.33.73-.74V21.92c0-.21-.09-.4-.24-.54l-11.58-10.67c-.14-.12-.31-.19-.5-.19,0,0-25.37,0-25.37,0Z"/>
    </g>
    <path d="M47.01,23.6h-25.39c-.55,0-1-.45-1-1s.45-1,1-1h25.39c.55,0,1,.45,1,1s-.45,1-1,1Z"/>
    <path d="M44.77,31.27h-23.15c-.55,0-1-.45-1-1s.45-1,1-1h23.15c.55,0,1,.45,1,1s-.45,1-1,1Z"/>
    <path d="M48.44,38.94h-26.82c-.55,0-1-.45-1-1s.45-1,1-1h26.82c.55,0,1,.45,1,1s-.45,1-1,1Z"/>
    <path d="M42.5,46.61h-20.88c-.55,0-1-.45-1-1s.45-1,1-1h20.88c.55,0,1,.45,1,1s-.45,1-1,1Z"/>
    <path d="M36,54.28h-14.38c-.55,0-1-.45-1-1s.45-1,1-1h14.38c.55,0,1,.45,1,1s-.45,1-1,1Z"/>
  </g>
  <g id="Rectangles">
    <rect x=".36" y=".36" width="71.28" height="71.28" fill="none"/>
  </g>
</svg>