<svg xmlns="http://www.w3.org/2000/svg" viewBox="0 0 72 72">
  <g id="SVG_icons" data-name="SVG icons">
    <path d="M49.49,57.43h-15.17c-.41,0-.75-.34-.75-.75v-15.17c0-.41.34-.75.75-.75h15.17c.41,0,.75.34.75.75v15.17c0,.41-.34.75-.75.75ZM35.07,55.93h13.67v-13.67h-13.67v13.67Z"/>
    <path d="M57.43,21.92c0-.9-.38-1.77-1.04-2.38l-11.58-10.67c-.6-.55-1.38-.85-2.19-.85h-25.37c-1.78,0-3.23,1.45-3.23,3.23v49.72c0,1.78,1.45,3.24,3.23,3.24h36.96c1.78,0,3.23-1.45,3.23-3.24V21.92ZM16.51,60.98V11.25c0-.41.33-.73.73-.73h25.37c.18,0,.36.07.5.19l11.58,10.67c.15.14.24.34.24.54v7.17c-.58-.03-1.17-.05-1.75-.05-5.19,0-10.1,1.18-14.5,3.27.87-1.38,1.38-3.01,1.38-4.77,0-4.97-4.04-9.02-9.02-9.02s-9.02,4.04-9.02,9.02,4.04,9.02,9.02,9.02c.33,0,.65-.02.97-.05-7.43,5.98-12.28,15.03-12.63,25.2h-2.14c-.4,0-.73-.33-.73-.74ZM38.55,27.55c0,4.14-3.37,7.52-7.52,7.52s-7.52-3.37-7.52-7.52,3.37-7.52,7.52-7.52,7.52,3.37,7.52,7.52ZM54.93,60.98c0,.41-.33.74-.73.74H20.88c.62-17.29,14.86-31.17,32.3-31.17.58,0,1.17.02,1.75.05v30.38Z"/>
  </g>
  <g id="Rectangles">
    <rect x=".36" y=".36" width="71.28" height="71.28" fill="none"/>
  </g>
</svg>