<svg xmlns="http://www.w3.org/2000/svg" viewBox="0 0 72 72">
  <g id="SVG_icons" data-name="SVG icons">
    <g id="Document">
      <path d="M53.89,64.21H16.93c-1.78,0-3.23-1.45-3.23-3.24V11.25c0-1.78,1.45-3.23,3.23-3.23h25.37c.81,0,1.59.3,2.19.85l11.58,10.67c.66.61,1.04,1.48,1.04,2.38v39.06c0,1.78-1.45,3.24-3.23,3.24ZM16.93,10.52c-.4,0-.73.33-.73.73v49.72c0,.41.33.74.73.74h36.96c.4,0,.73-.33.73-.74V21.92c0-.21-.09-.4-.24-.54l-11.58-10.67c-.14-.12-.31-.19-.5-.19h-25.37Z"/>
    </g>
    <g>
      <path d="M34.73,38.31c.05.05.13.05.18,0,.04-.05.04-.13,0-.18,0-.04-3.04-3.92-2.49-5.89.31-1.11,1.38-2.05,2.63-3.12,1.41-1.1,2.63-2.43,3.59-3.94.99-1.59.98-3.62-.03-5.2,0-.05-.05-.08-.06-.11,0-.01,0-.03,0-.04-.02-.06-.09-.1-.15-.08-.06.02-.09.06-.1.12,0,.03,0,.06,0,.09.1.32.74,2.65-1.57,5.21-.97,1.02-2.02,1.94-3.16,2.76-1.66,1.31-3.13,2.44-3.13,3.99,0,3.28,4.12,6.26,4.3,6.39Z"/>
      <path d="M34.94,32.5c-.15,1.12.24,2.25,1.06,3.03.4.4.69.89.86,1.43.19.94-.1,1.92-.77,2.6-.04.05-.04.13,0,.18.03.04.07.06.12.06h.06c.11-.06,2.66-1.36,2.71-3.62-.03-.75-.36-1.46-.91-1.97-.62-.74-1.22-1.43-.69-2.97s4.46-3.76,4.98-4.06c.12-.04.13-.08.13-.15,0-.05-.02-.09-.07-.12-.04-.02-.09-.02-.13,0h-.06l-.36.11c-1.6.44-6.5,1.75-6.93,5.5Z"/>
      <path d="M25.34,40.55c.87.49,3.61.8,6.7.8,3.73,0,7.96-.45,10.02-1.58.06-.03.09-.11.07-.17-.03-.06-.09-.1-.16-.09-5.59,1.14-13.93.97-14.16.35,0-.45,1.87-1.17,3.21-1.54.07-.02.11-.09.09-.17-.01-.07-.08-.12-.15-.11-5.69.75-5.93,1.89-5.93,2.11s.12.28.32.39Z"/>
      <path d="M40.98,43.6c0-.13-.11-.2-.6-.45-.19-.09-.38-.2-.55-.32,0-.02,0-.03,0-.05-.03-.05-.09-.07-.15-.05-3.38.91-10.14.69-10.38.08-.17-.39.41-.71.41-.71.06-.03.09-.11.07-.17-.03-.06-.09-.1-.16-.09-.06,0-1.32.29-1.73.99-.25.39-.14.9.25,1.15.06.04.12.07.18.09.87.43,2.88.71,5.2.71,2.49.04,4.98-.31,7.36-1.05.06-.02.1-.07.11-.13Z"/>
      <path d="M30.55,45.6c.07-.03.1-.1.09-.17-.02-.07-.08-.12-.15-.11-.04,0-1.15.14-1.54.76-.15.24-.18.53-.08.79.11.25.3.45.55.55.84.43,2.67.72,4.78.72,2.03.02,4.06-.27,6-.86.06-.02.1-.07.11-.13,0-.13-.06-.18-.83-.55-.29-.14-.57-.29-.83-.46,0-.01,0-.03,0-.04-.04-.05-.1-.06-.15-.04-2.08.8-7.85.55-8.22,0-.04-.04-.05-.09-.03-.14.01-.18.21-.29.33-.33Z"/>
      <path d="M42.23,50.04c1.33-.27,3.64-.97,3.87-1.93.05-.35-.14-.7-.46-.86-.05-.04-.12-.04-.17,0-.05.04-.06.1-.04.15.06.16.05.34-.04.49-.34.55-1.69,1.03-3.7,1.29-5.97.79-15.93.31-16.94-.55-.02-.02-.04-.05-.05-.08,0-.4,1.62-.93,3.13-1.21.07-.01.12-.08.11-.15,0-.07-.07-.13-.14-.12-.49.03-4.77.34-5.41,1.47-.12.2-.12.44,0,.64.52,1.01,5.43,1.6,10.66,1.6,3.08.03,6.15-.22,9.18-.76Z"/>
      <path d="M47.31,49.11s-.1-.02-.14,0c-4.69,3.83-19.81,2.07-19.96,2.06-.07-.01-.14.04-.15.11-.02.07.02.13.08.16,1.79.74,4.76,1.06,7.89,1.06,4.86,0,10.08-.79,11.79-2.15.38-.24.59-.66.55-1.11,0-.05-.03-.1-.07-.12Z"/>
      <path d="M42.96,38.47c1.07-.13,1.87.03,2.37.48.38.36.6.86.59,1.38v.14c0,.69.04,1.84-3.67,3.96-.07.04-.09.12-.06.19.03.05.08.08.13.07h.03c.23-.06,5.63-1.51,5.14-4.71-.07-.56-.39-1.07-.86-1.39-1.32-.91-3.62-.43-3.72-.4-.07.02-.12.09-.11.16,0,.07.06.13.14.13,0,0,0,0,.01,0Z"/>
    </g>
  </g>
  <g id="Rectangles">
    <rect x=".36" y=".36" width="71.28" height="71.28" fill="none"/>
  </g>
</svg>