<svg xmlns="http://www.w3.org/2000/svg" viewBox="0 0 72 72">
  <g id="SVG_icons" data-name="SVG icons">
    <g id="Document">
      <path d="M54.23,64.21H17.28c-1.78,0-3.23-1.45-3.23-3.24V11.25c0-1.78,1.45-3.23,3.23-3.23h25.37c.81,0,1.59.3,2.19.85l11.58,10.67c.66.61,1.04,1.48,1.04,2.38v39.06c0,1.78-1.45,3.24-3.23,3.24ZM17.28,10.52c-.4,0-.73.33-.73.73v49.72c0,.41.33.74.73.74h36.96c.4,0,.73-.33.73-.74V21.92c0-.21-.09-.4-.24-.54l-11.58-10.67c-.14-.12-.31-.19-.5-.19h-25.37Z"/>
    </g>
    <path d="M52.87,55.21h-1.89c-.04-1.37-.13-4.62-.2-5.05-.05-.83-.52-1.58-1.26-1.98-1.29-.66-2.63-1.23-4-1.71-.89-.28-1.74-.66-2.55-1.12-.32-.73-.51-1.5-.57-2.29.01-.11.14-.59,1.33-2.34l.08-.13c.46-.72.72-1.56.76-2.41.02-.34-.04-.67-.18-.98-.05-.11-.09-.23-.1-.35-.04-.28-.08-.46-.11-.64-.15-.73-.21-1.48-.18-2.23-.02-.86-.58-1.78-1.61-2.59s-2.78-1.64-4.3-1.3c-.81.23-1.64.32-2.48.26-.46-.08-.94.04-1.32.32-.89.62-1.54,1.53-1.83,2.58-.37,1.17-.55,2.39-.55,3.62v.16c0,.23-.01.45-.06.67-.07.26-.1.53-.09.8.04.77.31,1.51.77,2.14.05.09.17.23.3.42.28.36,1.13,1.5,1.19,1.83-.04.88-.24,1.75-.6,2.56-.81.42-1.66.75-2.54.98-.19.05-.36.13-.55.19-.07-.36-.2-.81-.38-1.37-.15-.47-.37-1.18-.36-1.4.02-.06.02-.13.02-.2.34.12.57.02.68-.07.46-.37.26-1.07-.18-2.48-.1-.33-.23-.76-.31-1.07,0,0,0,0,0,0,.48-.33.35-1.04.04-2.49-.11-.48-.26-1.21-.24-1.43.03-.08.05-.17.05-.26.1-.03.18-.07.23-.11.46-.37.26-1.07-.18-2.48-.15-.47-.37-1.18-.36-1.4.06-.17.05-.41-.04-.55-.02-.02-.03-.05-.06-.08.07-.03.14-.06.18-.09.42-.34.29-.95-.07-2.14,2.35-4.62,6.83-3.03,8.85-5.73-3.67-.9-6.09.31-7.96,1.52,2.73-3.64,6.91-2.93,8.77-5.88-5.18-.84-8.62,2.31-10.85,4.07.42-3.54,4.65-3.39,5.57-5.8-3.25.13-4.86,1.8-6.07,3.23.4-3.78,2.73-3.54,2.66-5.88-2.79,1.3-3.69,3.3-4.26,5.02-.79-1.34-2-2.68-4.34-3.41.22,2.18,2.7,3.1,3.49,5.57-1.4-1.27-3.21-2.79-6.53-2.5.82,1.53,2.57,2.19,4.04,3.51-2.11-1.3-4.81-2.45-8.78-1.48,2.33,3.11,7.46,1.32,10.2,6.53-1.49-1.08-3.42-2.25-6.52-1.64,1.54,2.26,5.25,1.11,6.96,5.02.39.9.62,1.23.73,1.21.08,1.08.12,2.39-.03,2.77-.14.37.02.6.1.69.05.05.1.08.16.11,0,1.13-.07,2.69-.26,3.1-.17.35-.03.6.04.69.09.13.23.19.38.23.1,1.12.15,2.6,0,3.02-.05.14-.05.25-.04.35-.11.1-.17.25-.16.41.21,1.83.33,4.06.18,4.47-.1.28-.04.46.04.58-.32.37-.54.83-.58,1.34v.09c-.05.38-.15,3.63-.19,5h-5.27c-.28,0-.5.22-.5.5s.22.5.5.5h33.22c.28,0,.5-.22.5-.5s-.22-.5-.5-.5ZM29.49,42.54c-.72-.17-1.61.03-2.35.2-.13.03-.28.06-.41.09.11-.83.03-2.14-.03-2.89.57-.07,1.15-.13,1.6-.14.19,0,.35.04.48.09.04.36.18.83.39,1.5.1.33.25.8.33,1.15ZM26.53,44.1c.79-.1,1.62-.16,2.06-.15.03.36.18.86.4,1.59.1.33.25.81.33,1.17-.83-.14-1.82.45-2.61.94.04-1.06-.1-2.62-.19-3.55ZM26.32,38.98c.18-.82.21-2.13.21-2.88.8-.03,1.64-.02,2.07.03,0,.37.1.88.26,1.62.07.31.16.74.21,1.08-.2-.03-.47-.04-.83-.03-.51-.01-1.04.05-1.51.12-.13.02-.28.04-.42.06ZM28.76,33.54c.1.33.25.8.33,1.15-.72-.17-1.61.03-2.35.2-.13.03-.28.06-.41.09.11-.83.03-2.14-.03-2.89.8-.1,1.63-.17,2.07-.15.03.36.18.86.4,1.59ZM28.3,28.93s.03.09.04.13c-.06.37-.11.71-.12.97-.63-.04-1.34.11-1.94.25-.13.03-.28.06-.41.09.11-.83.03-2.14-.03-2.89.8-.1,1.63-.17,2.07-.15.03.36.18.86.4,1.59ZM25.65,26.51c.04-.4.05-.9.05-1.42.17-.28.4-.83.61-1.42.57,1.2,1.3,1.81,1.36.05.13.67.27,1.21.36,1.24,0,.48.02.97.07,1.39-.45-.04-1.19-.02-2.45.15ZM26.49,50.46v-.12c0-.4.23-.76.6-.92,1.35-.69,2.76-1.25,4.22-1.67,1.34-.44,2.39-.77,2.98-1.22.73-.56,1.16-3.07,1.1-3.74-.05-.57-.55-1.34-1.46-2.56-.12-.16-.21-.28-.26-.35-.31-.4-.49-.88-.53-1.38,0-.16.01-.32.06-.48.08-.33.11-.66.1-.99v-.17c-.01-1.11.14-2.21.46-3.28.21-.7.64-1.31,1.24-1.74.12-.12.3-.16.46-.11.98.08,1.97-.02,2.91-.29.86-.18,2.14.24,3.15,1.04.66.52,1.09,1.11,1.09,1.54-.02.84.05,1.67.21,2.49.04.18.08.36.1.55.03.25.1.49.21.72.06.13.08.28.06.42-.05.58-.22,1.13-.52,1.63l-.08.12c-1.1,1.59-1.53,2.47-1.56,3.03-.02.43.31,2.92,1.11,3.49.91.56,1.89,1,2.91,1.31,1.31.45,2.58.99,3.81,1.62.36.18.6.55.6.96v.05c.03.24.17,2.76.23,4.8h-23.43c.06-2.03.19-4.55.23-4.75Z"/>
  </g>
  <g id="Rectangles">
    <rect x=".36" y=".36" width="71.28" height="71.28" fill="none"/>
  </g>
</svg>