<svg xmlns="http://www.w3.org/2000/svg" viewBox="0 0 72 72">
  <g id="SVG_icons" data-name="SVG icons">
    <path d="M25.36,23.11h-7.38c-1.35,0-2.45,1.1-2.45,2.45v8.17c-2.44.48-4.28,2.62-4.28,5.2s1.84,4.72,4.28,5.2v17.68c0,1.35,1.1,2.45,2.45,2.45h26.94c1.35,0,2.45-1.1,2.45-2.45v-7.47h10.79c1.57,0,2.86-1.28,2.86-2.86v-31.64c0-.8-.34-1.56-.92-2.1h-.02l-9.38-8.64c-.53-.49-1.21-.75-1.93-.75h-20.55c-1.58,0-2.86,1.28-2.86,2.86v11.9ZM27.86,38.95c2.63-1.25,4.86-3.19,6.46-5.6v14.76c-1.77.53-3.14,1.94-3.61,3.73h-2.49c-.2,0-.36-.16-.36-.36,0,0,0-12.53,0-12.53ZM35.82,50.87c1.27,0,2.3,1.03,2.3,2.3s-1.03,2.3-2.3,2.3-2.3-1.03-2.3-2.3,1.03-2.3,2.3-2.3ZM33.52,21.13c0-1.27,1.03-2.3,2.3-2.3s2.3,1.03,2.3,2.3-1.03,2.3-2.3,2.3-2.3-1.03-2.3-2.3ZM17.98,25.11h7.38v11.63c-1.18.42-2.43.67-3.73.73-.55-1.91-2.12-3.38-4.09-3.75v-8.17c0-.25.2-.45.45-.45h-.01ZM14.25,38.93c0-1.27,1.03-2.3,2.3-2.3s2.3,1.03,2.3,2.3-1.03,2.3-2.3,2.3-2.3-1.03-2.3-2.3ZM45.36,61.81c0,.25-.2.45-.45.45h-26.94c-.25,0-.45-.2-.45-.45v-17.68c1.94-.36,3.48-1.79,4.06-3.64,1.3-.05,2.56-.25,3.77-.59v11.59c0,1.58,1.28,2.86,2.86,2.86h2.44c.54,2.36,2.64,4.13,5.16,4.13s4.62-1.77,5.16-4.13h4.38v7.47h.01ZM58.51,51.48c0,.2-.16.36-.36.36h-17.22c-.47-1.79-1.84-3.2-3.61-3.73v-21.92c2.19-.65,3.8-2.66,3.8-5.06,0-2.92-2.38-5.3-5.3-5.3s-5.3,2.38-5.3,5.3c0,2.24,1.4,4.14,3.36,4.92-.46,4-2.75,7.45-6.02,9.49V11.2c0-.2.16-.36.36-.36h20.55c.09,0,.17.03.24.09l9.38,8.64c.07.07.11.16.11.26v31.64h0Z" fill="#272525"/>
  </g>
  <g id="Rectangles">
    <rect width="71.28" height="71.28" fill="none"/>
  </g>
</svg>