<?xml version="1.0" encoding="UTF-8"?>
<svg id="Layer_1" data-name="Layer 1" xmlns="http://www.w3.org/2000/svg" width="72" height="72" viewBox="0 0 72 72">
  <g id="SVG_icons" data-name="SVG icons">
    <g id="folder">
      <path d="M61.3,59.1H10.5c-1.7,0-3.1-1.4-3.1-3.2V16.1c0-1.7,1.4-3.1,3.1-3.1h15.2c1,0,1.9.5,2.5,1.3l2.3,3.2c.1.1.3.2.5.2h30.3c1.7,0,3.1,1.4,3.1,3.1v35c0,1.7-1.4,3.2-3.1,3.2h0v.1ZM10.5,15.5c-.3,0-.6.3-.6.6v39.8c0,.4.3.7.6.7h50.8c.3,0,.6-.3.6-.7V20.9c0-.4-.3-.6-.6-.6h-30.3c-1,0-1.9-.5-2.5-1.3l-2.3-3.2c-.1-.2-.3-.2-.5-.2h-15.2v-.1Z"/>
    </g>
  </g>
  <g id="circle">
    <path d="M45.1,24.6c.1,0,.3,0,.4.2.7.5,1.3,1,1.9,1.6.3.3.4.9,0,1.2s-.9.4-1.2,0c-.5-.5-1.1-1-1.7-1.4-.4-.3-.5-.8-.2-1.2.2-.3.5-.4.8-.4h0ZM49.3,29.2c.3,0,.5.2.7.4.4.7.8,1.4,1.1,2.2.2.4,0,.9-.5,1.1-.4.2-.9,0-1.1-.5-.3-.7-.6-1.3-1-1.9-.2-.4-.1-.9.3-1.2.2-.1.3-.1.5-.1h0ZM51.4,35.1c.4,0,.7.3.8.7.1.8.2,1.6.1,2.4,0,.5-.4.9-.9.8-.5,0-.9-.4-.8-.9,0-.7,0-1.5-.1-2.2,0-.5.3-.9.7-1h.2v.2ZM50.9,41.4h.2c.5.1.7.6.6,1.1-.2.8-.5,1.5-.8,2.3-.2.4-.7.6-1.1.4s-.6-.7-.4-1.1c.3-.7.6-1.3.8-2,.1-.4.5-.7.9-.6l-.2-.1ZM48,47c.2,0,.3,0,.5.2.4.3.4.8.1,1.2-.5.6-1.1,1.2-1.7,1.8-.4.3-.9.3-1.2,0-.3-.4-.3-.9,0-1.2.5-.5,1-1,1.5-1.6.2-.2.5-.3.8-.3h0v-.1Z"/>
  </g>
  <path d="M36.1,54.3c3.9,0,8.4-3.7,8.4-8.5,0-5.2-3.2-8.4-8.4-8.4-4.2,0-6.7-2.5-6.7-6.7s3.1-7.3,6.6-7.3,2,.1,3,.3c.2,0,.3,0,.5.1.2,0,.3,0,.5.1.5.1.9,0,1.1-.5s0-.9-.5-1.1c-.2,0-.4-.1-.6-.2-.2,0-.3,0-.5-.1h0c-1.1-.2-2.3-.3-3.3-.3-9,0-16.3,7.3-16.3,16.3s7.3,16.3,16.4,16.3h-.2ZM29.8,24.8c-1.3,1.6-2.1,3.7-2.1,5.9,0,5.2,3.2,8.4,8.4,8.4,4.2,0,6.7,2.5,6.7,6.7s-3.7,6.7-6.7,6.7c-8.1,0-14.6-6.5-14.6-14.5s3.4-10.9,8.4-13.2h-.1Z"/>
  <circle cx="36.1" cy="45.8" r="1.4"/>
</svg>