<svg xmlns="http://www.w3.org/2000/svg" viewBox="0 0 72 72">
  <g id="circle">
    <path d="M49.7,60.66c-.53.03-1.07-.24-1.36-.73-.43-.71-.19-1.63.52-2.06.54-.32,1.07-.67,1.59-1.03.68-.48,1.61-.32,2.09.36.48.68.31,1.61-.36,2.09-.57.4-1.17.79-1.77,1.15-.22.13-.46.2-.7.21Z"/>
    <path d="M56.49,54.87c-.36.02-.74-.1-1.04-.35-.63-.53-.72-1.48-.18-2.11.8-.95,1.54-1.98,2.2-3.04.43-.71,1.36-.92,2.06-.49.71.43.93,1.36.49,2.06-.73,1.19-1.56,2.34-2.46,3.4-.28.33-.67.51-1.08.53ZM61.65,45.31c-.17,0-.33-.01-.5-.06-.79-.24-1.24-1.07-1.01-1.87.36-1.19.63-2.43.8-3.66.12-.82.87-1.39,1.7-1.27.82.12,1.39.88,1.27,1.7-.2,1.38-.5,2.76-.9,4.1-.19.63-.75,1.04-1.36,1.07ZM62.59,34.49c-.78.04-1.47-.54-1.56-1.32-.15-1.25-.38-2.48-.71-3.68-.22-.8.26-1.62,1.05-1.84.81-.22,1.62.26,1.84,1.05.36,1.34.63,2.73.79,4.12.1.82-.49,1.57-1.32,1.66-.03,0-.07,0-.1,0ZM59.17,24.18c-.54.03-1.08-.24-1.37-.75-.63-1.08-1.34-2.12-2.12-3.1-.52-.65-.41-1.59.24-2.11.65-.52,1.59-.41,2.11.24.87,1.09,1.67,2.26,2.37,3.46.42.72.17,1.63-.54,2.05-.21.12-.45.19-.68.2ZM51.93,16.08c-.33.02-.68-.08-.97-.29-1-.74-2.07-1.42-3.17-2.01-.73-.39-1.01-1.3-.62-2.03.39-.73,1.3-1.01,2.03-.62,1.23.66,2.42,1.41,3.55,2.25.67.49.8,1.43.31,2.1-.28.38-.7.58-1.13.6Z"/>
  </g>
  <path d="M35.9,35.01c-7.24,0-11.56-4.34-11.56-11.6,0-6.7,5.37-12.57,11.49-12.57,1.72,0,3.44.17,5.1.51,0,0,0,0,0,0,.61.12,1.22.27,1.83.45.14.04.27.06.41.06.65,0,1.25-.43,1.44-1.09.23-.8-.24-1.63-1.03-1.85-.68-.19-1.37-.36-2.05-.5,0,0,0,0,0,0-1.87-.38-3.79-.58-5.71-.58-15.62,0-28.32,12.7-28.32,28.32s12.72,28.16,28.36,28.16c8.05,0,14.59-6.6,14.59-14.71,0-8.87-5.71-14.6-14.56-14.6ZM35.9,52.21c-1.41,0-2.55-1.14-2.55-2.55s1.14-2.55,2.55-2.55,2.55,1.14,2.55,2.55-1.14,2.55-2.55,2.55Z"/>
</svg>