<?xml version="1.0" encoding="UTF-8"?>
<svg id="Layer_1" xmlns="http://www.w3.org/2000/svg" version="1.1" viewBox="0 0 72 72">
  <!-- Generator: Adobe Illustrator 29.0.1, SVG Export Plug-In . SVG Version: 2.1.0 Build 192)  -->
  <circle cx="35.8" cy="22.5" r="2.8"/>
  <path d="M64.1,36c0-15.6-12.7-28.2-28.4-28.2h0c-15.6,0-28.3,12.7-28.3,28.4s9.6,24.8,22.4,27.5c0,0,.7.1.9.2,1.6.3,3.3.5,5,.5s.3,0,.5,0c15.4-.2,27.9-12.8,27.9-28.3h0ZM35.8,52.7c-1.7,0-3.1-1.4-3.1-3.1s1.4-3.1,3.1-3.1,3.1,1.4,3.1,3.1-1.4,3.1-3.1,3.1ZM47.3,58.5c1.9-2.5,3-5.5,3-8.9,0-8.9-5.7-14.6-14.6-14.6h0c-7.2,0-11.6-4.3-11.6-11.6s5.4-12.6,11.5-12.6,3.4.2,5.1.5c.6.1,1.2.3,1.8.4,0,0,.2,0,.3,0,10.5,3.1,18.2,12.7,18.2,24.2s-5.6,18.3-13.8,22.5h0Z"/>
</svg>