<?xml version="1.0" encoding="UTF-8"?>
<svg xmlns="http://www.w3.org/2000/svg" viewBox="0 0 72 72">
  <g id="SVG_icons" data-name="SVG icons">
    <path d="M50.52,25.85h-15.31c-.28,0-.5-.22-.5-.5s.22-.5.5-.5h15.31c.28,0,.5.22.5.5s-.22.5-.5.5Z"/>
    <path d="M64.01,24.71c-.05-.29-.18-.56-.43-.76l-15.58-12.82c-.22-.18-.5-.28-.79-.28H9.24c-.69,0-1.25.56-1.25,1.25v34.88c0,.31.12.61.32.84l13.01,14.39s.01,0,.02.01c.19.44.63.76,1.15.76h40.47c.69,0,1.25-.56,1.25-1.25V25.35c0-.24-.08-.45-.2-.64ZM59.83,24.1h-6.11c-.14,0-.26.04-.39.08l-13.16-10.83h6.6l13.07,10.75ZM33.74,24.21l-12.69-12.25h15.23l16.01,13.32v13.76h-18.33v-14.29c0-.2-.08-.4-.23-.54ZM22.79,24.1l-10.83-10.75h8.45l11.06,10.75h-8.69ZM10.49,15.41l10.75,10.67v32.31l-10.75-11.89V15.41ZM61.71,60.48H23.74V26.6h8.69s.02,0,.03,0v13.19c0,.41.34.75.75.75h19.83c.41,0,.75-.34.75-.75v-13.18h7.92v33.88Z"/>
  </g>
  <g id="Rectangles">
    <rect x=".36" y=".36" width="71.28" height="71.28" fill="none"/>
  </g>
</svg>