<?xml version="1.0" encoding="UTF-8"?>
<svg xmlns="http://www.w3.org/2000/svg" viewBox="0 0 72 72">
  <g id="SVG_icons" data-name="SVG icons">
    <g>
      <path d="M58.76,46.21l-2.87-3.58c.32-.46.33-1.08-.05-1.52l-5.77-6.75c1.39-1.85,3.18-4.99,4.85-10.19.2-.61-.11-1.28-.7-1.53-.16-.07-.33-.1-.49-.1-.44,0-.87.24-1.1.65-.02.04-2.01,3.63-5.72,7.48l-5.92-6.92c.87-1.69,1.17-3.63.86-5.54-.53-3.21-2.88-5.95-5.99-6.97-.92-.3-1.86-.45-2.8-.45-.54,0-1.09.05-1.63.15,0,0-.06.01-.16.04,0-.02,0-.03-.01-.05l-2.1-4.28c-.17-.35-.53-.56-.9-.56-.14,0-.29.03-.43.1l-2.13,1c-.24.11-.43.32-.52.57-.09.25-.07.53.05.77l2.1,4.28s.02.02.03.04c-2.02,1.66-3.2,4.11-3.22,6.78-.03,3.55,2.04,6.74,5.23,8.18l.73,12.12c-1.15.17-2.32.25-3.48.25-1.48,0-2.99-.14-4.49-.4-.07-.01-.15-.02-.22-.02-.54,0-1.03.35-1.2.89-.18.61.12,1.26.7,1.51.15.06,3.61,1.54,8.66,1.54.09,0,.17,0,.26,0l.98,16.27c.04.59.49,1.05,1.06,1.14l.63,5.97c.01.13.12.22.25.22h0c.13,0,.23-.1.25-.22l.67-5.96c.57-.08,1.03-.54,1.07-1.13l1.11-17.07c3.73-.96,7.23-2.77,10.41-5.4l6.61,5.97c.24.21.54.32.84.32.25,0,.49-.09.7-.24l3.48,3.02s.11.06.16.06c.06,0,.12-.02.17-.07.09-.09.1-.24.02-.34ZM26.14,8.08l2.13-1,2.05,4.16c-.36.12-.75.26-1.11.43-.43.2-.76.39-1.03.55l-2.04-4.15ZM46.48,36.09c-3.85,3.33-7.77,5.02-11.31,5.79l-1.03,15.89h-.59v-30.45c0-.14-.11-.25-.25-.25s-.25.11-.25.25v30.45h-.61l-.93-15.38c-.49.03-.97.04-1.43.04-4.85,0-8.16-1.44-8.16-1.44,1.63.29,3.2.42,4.71.42,1.67,0,3.27-.16,4.8-.45l-.85-14.03c-3.03-1.04-5.21-3.92-5.18-7.31.02-2.8,1.55-5.22,3.79-6.54l1.34-.62c.79-.28,1.64-.44,2.53-.44.78,0,1.58.12,2.41.39,2.67.88,4.69,3.21,5.15,5.99.33,2.04-.15,3.95-1.15,5.48l7.37,8.63c4.51-4.38,6.88-8.72,6.88-8.72-1.86,5.82-3.86,8.95-5.28,10.6l5.55,6.49-.23.23-15.18-15.78c-.1-.1-.25-.1-.35,0-.1.1-.1.25,0,.35l15.19,15.79-.17.17-6.38-5.76c-.23.16-.36.22-.36.22Z"/>
      <path d="M36.16,26.68l-.86,13.23c3.79-1.35,7.02-3.46,9.68-5.72l-8.49-7.66c-.11.06-.22.11-.33.16ZM37.27,28.91l5.79,5.23c-2.05,1.61-4.19,2.91-6.39,3.88l.59-9.11Z"/>
      <path d="M38.09,19.58c.02-2.76-2.2-5.01-4.96-5.04-.01,0-.03,0-.04,0-2.74,0-4.97,2.21-5,4.96-.02,2.76,2.2,5.01,4.96,5.04.01,0,.03,0,.04,0,2.74,0,4.97-2.21,5-4.96ZM33.09,23.29h-.03c-2.07-.02-3.73-1.71-3.72-3.78.02-2.05,1.7-3.72,3.75-3.72,2.1.02,3.76,1.71,3.75,3.78-.02,2.05-1.7,3.72-3.75,3.72Z"/>
    </g>
  </g>
  <g id="Rectangles">
    <rect x=".36" y=".36" width="71.28" height="71.28" fill="none"/>
  </g>
</svg>