<?xml version="1.0" encoding="UTF-8"?>
<svg id="Layer_1" data-name="Layer 1" xmlns="http://www.w3.org/2000/svg" width="72" height="72" viewBox="0 0 72 72">
  <g id="circle">
    <path d="M50.33,12.04c.26.02.52.09.75.23,1.18.76,2.31,1.61,3.37,2.54.62.55.69,1.49.14,2.12s-1.49.69-2.12.14c-.94-.83-1.96-1.59-3.02-2.27-.7-.45-.89-1.38-.45-2.08.3-.47.81-.71,1.33-.69h0ZM58.12,19.69c.46.02.9.25,1.18.67.78,1.17,1.48,2.4,2.08,3.67.36.75.03,1.65-.71,1.99-.75.36-1.65.03-1.99-.71-.54-1.13-1.16-2.24-1.87-3.28-.46-.68-.28-1.62.41-2.09.27-.19.59-.27.9-.26h0ZM62.25,29.81c.68.03,1.28.53,1.41,1.23.25,1.38.4,2.79.44,4.2.02.82-.63,1.52-1.45,1.54-.83.03-1.52-.63-1.54-1.45-.04-1.26-.17-2.52-.39-3.75-.15-.81.39-1.6,1.21-1.75.11-.02.22-.02.33-.03h0ZM61.97,40.72c.09,0,.19.01.28.04.81.19,1.3,1,1.11,1.8-.32,1.37-.75,2.72-1.27,4.02-.31.77-1.17,1.14-1.94.83s-1.15-1.18-.83-1.94c.46-1.17.84-2.38,1.13-3.6.17-.71.82-1.18,1.53-1.15h0ZM57.36,50.62c.29.02.57.11.83.3.67.5.8,1.43.31,2.1-.83,1.12-1.76,2.2-2.75,3.19-.58.59-1.54.58-2.13,0s-.58-1.54,0-2.13c.89-.89,1.72-1.85,2.47-2.85.31-.42.79-.63,1.28-.6h0Z"/>
  </g>
  <path d="M35.96,64.3c6.75,0,14.6-6.42,14.6-14.7,0-9.01-5.59-14.6-14.6-14.6-7.26,0-11.6-4.34-11.6-11.6,0-6.71,5.37-12.6,11.5-12.6,1.5,0,3.45.18,5.12.47.29.09.59.17.89.24.28.06.56.12.81.21.79.26,1.64-.16,1.9-.95s-.16-1.64-.95-1.9c-.34-.11-.72-.2-1.09-.29-.28-.06-.56-.12-.81-.21h-.05s-.11-.04-.16-.05c-1.86-.33-3.97-.52-5.66-.52-15.6,0-28.3,12.7-28.3,28.3s12.74,28.2,28.4,28.2ZM25.07,13.22c-2.29,2.78-3.71,6.37-3.71,10.18,0,9.01,5.59,14.6,14.6,14.6,7.26,0,11.6,4.34,11.6,11.6,0,6.48-6.35,11.7-11.6,11.7-14,0-25.4-11.3-25.4-25.2,0-10.09,5.94-18.83,14.51-22.88Z"/>
  <circle cx="35.86" cy="49.6" r="2.5"/>
</svg>