<?xml version="1.0" encoding="UTF-8"?>
<svg xmlns="http://www.w3.org/2000/svg" viewBox="0 0 72 72">
  <circle cx="35.8" cy="22.5" r="2.5"/>
  <path d="M64.1,36c0-15.6-12.74-28.2-28.4-28.2v.04h0c-15.62,0-28.32,12.7-28.32,28.32,0,13.59,9.63,24.84,22.43,27.54.04,0,.71.14.9.17,1.63.29,3.31.45,5.03.45.17,0,.34-.02.51-.03,15.4-.23,27.87-12.83,27.87-28.29h-.02ZM35.77,52.2c-1.41,0-2.55-1.14-2.55-2.55s1.14-2.55,2.55-2.55,2.55,1.14,2.55,2.55-1.14,2.55-2.55,2.55ZM47.32,58.51c1.87-2.47,3-5.55,3-8.9,0-8.87-5.71-14.6-14.56-14.6h0c-7.24,0-11.56-4.34-11.56-11.6,0-6.7,5.37-12.57,11.49-12.57,1.72,0,3.44.17,5.1.51.61.12,1.22.27,1.83.45.09.02.17.03.26.04,10.52,3.08,18.22,12.74,18.22,24.17,0,9.8-5.61,18.31-13.78,22.51h0Z"/>
</svg>