<?xml version="1.0" encoding="UTF-8"?>
<svg xmlns="http://www.w3.org/2000/svg" viewBox="0 0 72 72">
  <g id="SVG_icons" data-name="SVG icons">
    <g id="folder">
      <path d="M61.02,59.09H10.17c-1.7,0-3.08-1.41-3.08-3.15V16.15c0-1.74,1.38-3.15,3.08-3.15h15.24c.98,0,1.9.48,2.48,1.28l2.34,3.24c.11.15.28.24.46.24h30.33c1.7,0,3.09,1.41,3.09,3.15v35.02c0,1.74-1.38,3.15-3.09,3.15ZM10.17,15.49c-.32,0-.58.29-.58.65v39.79c0,.36.26.65.58.65h50.85c.32,0,.59-.29.59-.65V20.91c0-.36-.26-.65-.59-.65h-30.33c-.98,0-1.91-.48-2.48-1.28l-2.34-3.24c-.11-.16-.28-.25-.46-.25h-15.24Z"/>
    </g>
    <g>
      <path d="M36.62,21.9c-9,0-16.3,7.3-16.3,16.3s7.3,16.3,16.3,16.3,16.3-7.3,16.3-16.3c0-9-7.3-16.29-16.3-16.3ZM22.05,38.19c0-5.77,3.41-10.99,8.68-13.33-1.44,1.5-2.25,3.51-2.24,5.59,0,4.93,3.17,8.11,8.06,8.11,4.34,0,6.94,2.6,6.94,6.96,0,3.92-3.18,7.23-6.94,7.23h0c-8.01-.05-14.49-6.55-14.5-14.57ZM41.9,51.77c1.75-1.6,2.76-3.86,2.77-6.24,0-5.01-3.1-8.11-8.09-8.11s-6.91-3.6-6.91-6.96c0-3.19,2.18-5.96,5.28-6.73.57-.07,1.15-.1,1.73-.1,8.04.02,14.55,6.56,14.53,14.6-.02,6-3.71,11.38-9.3,13.54Z"/>
      <circle cx="36.57" cy="30.43" r="1.47"/>
      <circle cx="36.57" cy="45.96" r="1.47"/>
    </g>
  </g>
  <g id="Rectangles">
    <rect x=".36" y=".36" width="71.28" height="71.28" fill="none"/>
  </g>
</svg>