<?xml version="1.0" encoding="UTF-8"?>
<svg id="Layer_1" data-name="Layer 1" xmlns="http://www.w3.org/2000/svg" width="72" height="72" viewBox="0 0 72 72">
  <g id="SVG_icons" data-name="SVG icons">
    <g>
      <path d="M58.94,44.57c.38-.55.39-1.29-.06-1.81l-6.88-8.04c1.66-2.21,3.79-5.94,5.78-12.14.24-.72-.13-1.52-.83-1.83-.19-.08-.39-.12-.59-.12-.53,0-1.04.28-1.31.78-.02.05-2.39,4.33-6.81,8.91l-7.06-8.24c1.04-2.02,1.4-4.33,1.03-6.6-.63-3.82-3.43-7.09-7.14-8.31-1.09-.36-2.22-.54-3.34-.54-.64,0-1.3.06-1.94.18,0,0-.07.01-.19.05,0-.02,0-.03-.01-.06l-2.5-5.1c-.2-.42-.63-.67-1.07-.67-.17,0-.35.03-.51.12l-2.54,1.19c-.28.13-.51.38-.62.68s-.08.63.06.91l2.5,5.1s.02.02.03.05c-2.4,1.97-3.81,4.89-3.83,8.07-.03,4.23,2.43,8.03,6.23,9.74l.87,14.44c-1.36.2-2.76.29-4.15.29-1.76,0-3.56-.17-5.34-.47-.08-.01-.18-.02-.26-.02-.64,0-1.23.42-1.43,1.06-.21.72.15,1.5.83,1.8.18.07,4.31,1.84,10.32,1.84h.3l1.17,18.33c.05.7.59,1.25,1.26,1.35l.75,5.01c.01.16.15.26.29.26h0c.16,0,.27-.12.29-.26l.8-5c.68-.09,1.23-.64,1.27-1.34l1.32-19.29c4.44-1.14,8.61-3.3,12.4-6.44l7.88,7.11c.28.25.64.38,1,.38.29,0,.59-.1.83-.28l2.6,2.02s.13.07.19.07c.07,0,.15-.02.2-.08.1-.1.12-.28.02-.41l-1.79-2.7ZM23.5,3.41l2.54-1.19,2.45,4.96c-.43.15-.89.3-1.32.51-.51.24-.9.46-1.23.65l-2.43-4.95h-.01ZM47.72,36.78c-4.59,3.97-9.26,5.99-13.47,6.9l-1.23,17.88h-2.02s-1.11-17.27-1.11-17.27c-.59.03-1.16.05-1.7.05-5.77,0-9.72-1.71-9.72-1.71,1.94.35,3.81.5,5.61.5,1.98,0,3.9-.19,5.72-.54l-1.01-16.72c-3.61-1.24-6.21-4.67-6.17-8.7.02-3.34,1.85-6.22,4.51-7.79l1.6-.73c.94-.34,1.95-.52,3.01-.52.92,0,1.88.15,2.87.46,3.18,1.05,5.59,3.82,6.13,7.14.39,2.43-.18,4.7-1.36,6.53l8.78,10.28c5.38-5.22,8.2-10.38,8.2-10.38-2.22,6.93-4.6,10.66-6.29,12.63l6.61,7.73-.88.91-7.6-6.87c-.27.19-.43.26-.43.26h-.03v-.04Z"/>
      <path d="M35.44,25.58l-1.03,15.76c4.51-1.61,8.36-4.13,11.53-6.81l-10.11-9.12c-.13.07-.26.13-.39.19h0ZM36.76,28.23l6.9,6.23c-2.45,1.92-4.99,3.46-7.61,4.62l.7-10.86h.01Z"/>
      <path d="M37.74,17.11c.02-3.29-2.63-5.96-5.91-6.01h-.05c-3.27,0-5.92,2.64-5.95,5.91-.02,3.29,2.62,5.96,5.91,6.01h.05c3.27,0,5.92-2.64,5.95-5.91ZM31.78,21.53h-.03c-2.47-.02-4.44-2.04-4.43-4.5.02-2.45,2.03-4.43,4.46-4.43,2.5.02,4.48,2.04,4.46,4.5-.02,2.45-2.03,4.43-4.46,4.43Z"/>
    </g>
  </g>
</svg>