<svg xmlns="http://www.w3.org/2000/svg" viewBox="0 0 72 72">
  <polygon points="32.6 33.1 23.4 23.9 26.2 21 32.6 27.4 45.7 14.3 48.5 17.2 32.6 33.1"/>
  <path d="M51.3,7.7h-31c-5.7,0-9.5,3.8-9.5,9.5v38c0,5.7,3.8,9.5,9.5,9.5h31c5.7,0,9.5-3.8,9.5-9.5V17.2c0-5.7-3.8-9.5-9.5-9.5ZM13.8,55.1V17.1c0-4,2.5-6.5,6.5-6.5v.1h31c4,0,6.5,2.5,6.5,6.5v20.6H21.9v3h13.16v3.8h-13.16v3h13.16v3.9h-13.16v3h13.16v7.1h-14.76c-4,0-6.5-2.5-6.5-6.5Z"/>
  <path d="M40.82,57.6v-14.55h2.64l3.58,9.18c.08.21.18.48.29.81s.22.67.34,1.05.24.75.35,1.13.21.72.29,1.04h-.41c.09-.3.19-.63.3-1s.23-.74.35-1.12.24-.74.35-1.07.21-.61.29-.83l3.54-9.18h2.65v14.55h-1.83v-8.31c0-.3,0-.64,0-1.03s0-.79.02-1.21.02-.85.03-1.29.02-.86.02-1.27h.16c-.14.45-.28.91-.43,1.37s-.3.92-.45,1.35-.29.83-.42,1.19-.24.65-.33.89l-3.25,8.31h-1.61l-3.3-8.31c-.09-.23-.2-.52-.32-.86s-.26-.74-.41-1.16-.3-.88-.45-1.35-.32-.95-.48-1.42h.18c.01.36.02.76.03,1.18s.02.85.02,1.28.01.85.02,1.25,0,.76,0,1.08v8.31h-1.77Z" fill="#fff"/>
</svg>