<svg xmlns="http://www.w3.org/2000/svg" viewBox="0 0 72 72">
  <polygon points="32.6 33.1 23.4 23.9 26.2 21 32.6 27.4 45.7 14.3 48.5 17.2 32.6 33.1"/>
  <path d="M51.3,7.7h-31c-5.7,0-9.5,3.8-9.5,9.5v38c0,5.7,3.8,9.5,9.5,9.5h31c5.7,0,9.5-3.8,9.5-9.5V17.2c0-5.7-3.8-9.5-9.5-9.5ZM13.8,55.1V17.1c0-4,2.5-6.5,6.5-6.5v.1h31c4,0,6.5,2.5,6.5,6.5v20.6H21.9v3h13.16v3.8h-13.16v3h13.16v3.9h-13.16v3h13.16v7.1h-14.76c-4,0-6.5-2.5-6.5-6.5Z"/>
  <path d="M46.98,59.22c-1.26,0-2.35-.2-3.28-.61s-1.65-.97-2.17-1.71-.82-1.58-.89-2.56h2.29c.06.66.29,1.2.67,1.62s.87.74,1.47.95,1.24.31,1.92.31c.79,0,1.5-.13,2.13-.39s1.13-.62,1.49-1.09.55-1.01.55-1.63c0-.56-.16-1.02-.47-1.37s-.74-.64-1.26-.87-1.1-.43-1.72-.6l-2.11-.6c-1.41-.4-2.5-.97-3.28-1.71s-1.17-1.69-1.17-2.85c0-.98.27-1.85.8-2.58s1.25-1.31,2.16-1.72,1.92-.61,3.05-.61,2.16.2,3.05.61,1.58.96,2.09,1.66.78,1.49.81,2.37h-2.18c-.1-.85-.51-1.51-1.22-1.97s-1.59-.7-2.62-.7c-.75,0-1.41.12-1.97.37s-1.01.58-1.32,1.01-.47.91-.47,1.46c0,.61.19,1.1.57,1.47s.83.66,1.35.87.99.37,1.41.49l1.75.48c.47.12.99.3,1.55.52s1.11.51,1.62.87.94.82,1.27,1.38.5,1.24.5,2.06c0,.95-.25,1.81-.74,2.58s-1.22,1.37-2.16,1.82-2.09.67-3.43.67Z" fill="#fff"/>
</svg>