<?xml version="1.0" encoding="UTF-8"?>
<svg xmlns="http://www.w3.org/2000/svg" viewBox="0 0 72 72">
  <g id="SVG_icons" data-name="SVG icons">
    <g id="folder">
      <path d="M61.35,59.09H10.5c-1.7,0-3.08-1.41-3.08-3.15V16.15c0-1.74,1.38-3.15,3.08-3.15h15.24c.98,0,1.9.48,2.48,1.28l2.34,3.24c.11.15.28.24.46.24h30.33c1.7,0,3.09,1.41,3.09,3.15v35.02c0,1.74-1.38,3.15-3.09,3.15ZM10.5,15.49c-.32,0-.58.29-.58.65v39.79c0,.36.26.65.58.65h50.85c.32,0,.59-.29.59-.65V20.91c0-.36-.26-.65-.59-.65h-30.33c-.98,0-1.91-.48-2.48-1.28l-2.34-3.24c-.11-.16-.28-.25-.46-.25h-15.24Z"/>
    </g>
    <g id="circle">
      <path d="M44.22,51.79c-.29.02-.59-.13-.76-.41-.24-.39-.11-.91.29-1.14.3-.18.59-.37.88-.57.38-.27.89-.18,1.16.2s.17.89-.2,1.16c-.32.22-.65.44-.98.64-.12.07-.26.11-.39.12h0Z"/>
      <path d="M47.99,48.58c-.2.01-.41-.06-.58-.19-.35-.29-.4-.82-.1-1.17.44-.53.86-1.1,1.22-1.69.24-.39.76-.51,1.14-.27.39.24.52.76.27,1.14-.41.66-.87,1.3-1.37,1.89-.16.18-.37.28-.6.29h0ZM50.85,43.27c-.09,0-.18,0-.28-.03-.44-.13-.69-.59-.56-1.04.2-.66.35-1.35.44-2.03.07-.46.48-.77.94-.71.46.07.77.49.71.94-.11.77-.28,1.53-.5,2.28-.11.35-.42.58-.76.59h0ZM51.38,37.25c-.43.02-.82-.3-.87-.73-.08-.69-.21-1.38-.39-2.04-.12-.44.14-.9.58-1.02.45-.12.9.14,1.02.58.2.74.35,1.52.44,2.29.06.46-.27.87-.73.92h-.06,0ZM49.48,31.53c-.3.02-.6-.13-.76-.42-.35-.6-.74-1.18-1.18-1.72-.29-.36-.23-.88.13-1.17s.88-.23,1.17.13c.48.61.93,1.26,1.32,1.92.23.4.09.91-.3,1.14-.12.07-.25.11-.38.11h0ZM45.45,27.03c-.18.01-.38-.04-.54-.16-.56-.41-1.15-.79-1.76-1.12-.41-.22-.56-.72-.34-1.13s.72-.56,1.13-.34c.68.37,1.34.78,1.97,1.25.37.27.44.79.17,1.17-.16.21-.39.32-.63.33Z"/>
    </g>
    <path d="M36.55,37.54c-4.02,0-6.42-2.41-6.42-6.44,0-3.72,2.98-6.98,6.38-6.98.96,0,1.91.09,2.83.28h0c.34.07.68.15,1.02.25.08.02.15.03.23.03.36,0,.69-.24.8-.61.13-.44-.13-.91-.57-1.03-.38-.11-.76-.2-1.14-.28h0c-1.04-.21-2.11-.32-3.17-.32-8.68,0-15.73,7.06-15.73,15.73s7.07,15.64,15.76,15.64c4.47,0,8.11-3.67,8.11-8.17,0-4.93-3.17-8.11-8.09-8.11h0ZM36.55,47.1c-.78,0-1.42-.63-1.42-1.42s.63-1.42,1.42-1.42,1.42.63,1.42,1.42-.63,1.42-1.42,1.42Z"/>
  </g>
  <g id="Rectangles">
    <rect x=".36" y=".36" width="71.28" height="71.28" fill="none"/>
  </g>
</svg>