<svg xmlns="http://www.w3.org/2000/svg" viewBox="0 0 72 72">
  <g id="circle">
    <g>
      <path d="M20.34,15.58c-.51.03-1.02-.21-1.32-.66-.46-.69-.28-1.62.41-2.08l.4-.28c.4-.28.86-.6,1.34-.87.72-.41,1.64-.16,2.05.56s.16,1.64-.56,2.05c-.36.21-.74.47-1.11.73l-.44.3c-.23.16-.5.24-.76.25Z"/>
      <path d="M23,61.02c-.26,0-.52-.05-.76-.18-1.23-.67-2.42-1.44-3.54-2.29-.66-.5-.79-1.44-.29-2.1.5-.66,1.44-.79,2.1-.29,1,.76,2.07,1.45,3.17,2.05.73.4.99,1.31.6,2.04-.27.49-.76.77-1.28.78ZM14.68,53.95c-.46.01-.92-.19-1.22-.58-.86-1.11-1.65-2.29-2.34-3.51-.41-.72-.15-1.64.57-2.04.72-.41,1.64-.15,2.04.57.62,1.09,1.32,2.15,2.1,3.14.51.65.39,1.6-.26,2.11-.26.21-.57.31-.88.32ZM9.85,44.15c-.68.02-1.31-.44-1.49-1.13-.35-1.36-.6-2.75-.74-4.16-.08-.82.52-1.56,1.34-1.64.83-.09,1.56.52,1.64,1.34.13,1.25.35,2.5.66,3.71.21.8-.28,1.62-1.08,1.83-.11.03-.22.04-.33.05ZM9.35,33.24c-.09,0-.19,0-.28-.02-.82-.13-1.37-.9-1.24-1.72.22-1.39.55-2.77.98-4.1.25-.79,1.09-1.22,1.88-.97.79.25,1.23,1.1.97,1.88-.38,1.2-.67,2.43-.87,3.67-.12.72-.73,1.24-1.44,1.26ZM13.24,23.04c-.29,0-.58-.07-.85-.24-.7-.45-.9-1.37-.46-2.07.75-1.18,1.6-2.32,2.52-3.38.54-.63,1.49-.69,2.12-.15.63.54.69,1.49.15,2.12-.82.95-1.58,1.97-2.26,3.02-.28.44-.74.68-1.23.69Z"/>
    </g>
  </g>
  <path d="M35.7,7.8c-6.75,0-14.6,6.42-14.6,14.7,0,9.01,5.59,14.6,14.6,14.6,7.26,0,11.6,4.34,11.6,11.6,0,6.71-5.37,12.6-11.5,12.6-1.5,0-3.45-.18-5.12-.47-.29-.09-.59-.17-.89-.24-.28-.06-.56-.12-.81-.21-.79-.26-1.64.16-1.9.95-.26.79.16,1.64.95,1.9.34.11.72.2,1.09.29.28.06.56.12.81.21.02,0,.03,0,.05,0,.05.02.11.04.16.05,1.86.33,3.97.52,5.66.52,15.6,0,28.3-12.7,28.3-28.3S51.36,7.8,35.7,7.8ZM46.59,58.88c2.29-2.78,3.71-6.37,3.71-10.18,0-9.01-5.59-14.6-14.6-14.6-7.26,0-11.6-4.34-11.6-11.6,0-6.48,6.35-11.7,11.6-11.7,14,0,25.4,11.3,25.4,25.2,0,10.09-5.94,18.83-14.51,22.88Z"/>
  <circle cx="35.8" cy="22.5" r="2.5"/>
</svg>