<?xml version="1.0" encoding="UTF-8"?>
<svg xmlns="http://www.w3.org/2000/svg" viewBox="0 0 72 72">
  <g id="SVG_icons" data-name="SVG icons">
    <g id="folder">
      <path d="M61.69,59.09H10.83c-1.7,0-3.08-1.41-3.08-3.15V16.15c0-1.74,1.38-3.15,3.08-3.15h15.24c.98,0,1.9.48,2.48,1.28l2.34,3.24c.11.15.28.24.46.24h30.33c1.7,0,3.09,1.41,3.09,3.15v35.02c0,1.74-1.38,3.15-3.09,3.15ZM10.83,15.49c-.32,0-.58.29-.58.65v39.79c0,.36.26.65.58.65h50.85c.32,0,.59-.29.59-.65V20.91c0-.36-.26-.65-.59-.65h-30.33c-.98,0-1.91-.48-2.48-1.28l-2.34-3.24c-.11-.16-.28-.25-.46-.25h-15.24Z"/>
    </g>
    <g id="circle">
      <g>
        <path d="M27.66,27.07c-.28.02-.57-.12-.73-.37-.26-.38-.16-.9.23-1.16l.22-.16c.22-.16.48-.33.74-.48.4-.23.91-.09,1.14.31s.09.91-.31,1.14c-.2.12-.41.26-.62.41l-.24.17c-.13.09-.28.13-.42.14h0Z"/>
        <path d="M29.13,52.31c-.14,0-.29-.03-.42-.1-.68-.37-1.34-.8-1.97-1.27-.37-.28-.44-.8-.16-1.17s.8-.44,1.17-.16c.56.42,1.15.81,1.76,1.14.41.22.55.73.33,1.13-.15.27-.42.43-.71.43h0ZM24.51,48.39c-.26,0-.51-.11-.68-.32-.48-.62-.92-1.27-1.3-1.95-.23-.4-.08-.91.32-1.13.4-.23.91-.08,1.13.32.34.61.73,1.19,1.17,1.74.28.36.22.89-.14,1.17-.14.12-.32.17-.49.18h0ZM21.83,42.94c-.38.01-.73-.24-.83-.63-.19-.76-.33-1.53-.41-2.31-.04-.46.29-.87.74-.91.46-.05.87.29.91.74.07.69.19,1.39.37,2.06.12.44-.16.9-.6,1.02-.06.02-.12.02-.18.03ZM21.55,36.88s-.11,0-.16-.01c-.46-.07-.76-.5-.69-.96.12-.77.31-1.54.54-2.28.14-.44.61-.68,1.04-.54s.68.61.54,1.04c-.21.67-.37,1.35-.48,2.04-.07.4-.41.69-.8.7ZM23.71,31.21c-.16,0-.32-.04-.47-.13-.39-.25-.5-.76-.26-1.15.42-.66.89-1.29,1.4-1.88.3-.35.83-.38,1.18-.08.35.3.38.83.08,1.18-.46.53-.88,1.09-1.26,1.68-.16.24-.41.38-.68.38h0Z"/>
      </g>
    </g>
    <path d="M36.19,22.75c-3.75,0-8.11,3.57-8.11,8.17,0,5.01,3.11,8.11,8.11,8.11,4.03,0,6.44,2.41,6.44,6.44,0,3.73-2.98,7-6.39,7-.83,0-1.92-.1-2.84-.26-.16-.05-.33-.09-.49-.13-.16-.03-.31-.07-.45-.12-.44-.14-.91.09-1.06.53s.09.91.53,1.06c.19.06.4.11.61.16.16.03.31.07.45.12h.03s.06.02.09.03c1.03.18,2.21.29,3.14.29,8.67,0,15.72-7.06,15.72-15.72s-7.08-15.67-15.78-15.67ZM42.24,51.12c1.27-1.54,2.06-3.54,2.06-5.66,0-5.01-3.11-8.11-8.11-8.11-4.03,0-6.44-2.41-6.44-6.44,0-3.6,3.53-6.5,6.44-6.5,7.78,0,14.11,6.28,14.11,14,0,5.61-3.3,10.46-8.06,12.71Z"/>
    <circle cx="36.24" cy="30.91" r="1.39"/>
  </g>
  <g id="Rectangles">
    <rect x=".36" y=".36" width="71.28" height="71.28" fill="none"/>
  </g>
</svg>