<?xml version="1.0" encoding="UTF-8"?>
<svg xmlns="http://www.w3.org/2000/svg" viewBox="0 0 72 72">
  <path d="M28.07,67.52c-.83,0-1.5-.67-1.5-1.5v-9.59h-14.35c-2.84,0-5.15-2.3-5.16-5.14h0V12.83c-.06-2.83,2.17-5.18,5-5.26h47.36c2.89.02,5.22,2.37,5.21,5.26v38.34c.01,2.89-2.32,5.24-5.21,5.26h-16.08l-14.34,10.79c-.27.2-.6.31-.93.3ZM12.22,10.58c-1.2.01-2.17,1-2.16,2.2,0,0,0,0,0,0v38.39c-.04,1.2.89,2.21,2.1,2.26,0,0,0,0,0,0h15.84c1.5,0,1.51,1,1.51,3.23v6.34l12.37-9.29c.26-.19.58-.3.9-.3h16.64c1.22,0,2.21-.99,2.21-2.21V12.83c.03-1.22-.94-2.23-2.16-2.26,0,0,0,0,0,0H12.22Z"/>
</svg>