<?xml version="1.0" encoding="UTF-8"?>
<svg xmlns="http://www.w3.org/2000/svg" viewBox="0 0 72 72">
  <g id="SVG_icons" data-name="SVG icons">
    <path d="M41.37,38.47c1.3,1,4.06,1.9,7.16,3.59,1.02.56,1.11,1.38,1.19,1.88.08.5.24,6.08.24,6.08h-27.94s.16-5.59.24-6.08c.08-.5.08-1.25,1.19-1.88,3.07-1.74,5.84-2.54,7.15-3.53.52-.4,1.12-3.03,1.05-3.9-.06-.76-1.7-2.76-2-3.21-.31-.46-.8-1.26-.8-2.18s.19-.69.19-1.84-.04-1.81.61-4.48c.24-.99,1.08-2.16,1.91-2.69,1.12-.71.67.24,4.45-.61,2.45-.55,6.28,1.99,6.32,4.02.05,2.75.22,2.54.38,3.68.11.8.34.61.34,1.53s-.5,2.07-.8,2.53c-.31.46-1.85,2.67-1.9,3.49-.04.75.55,3.34,1.03,3.6Z" fill="none" stroke="#000" stroke-linejoin="round" stroke-width="2"/>
    <path d="M58.67,8.94H13.01c-2.13,0-3.86,1.73-3.86,3.87v44.17c0,2.13,1.73,3.87,3.86,3.87h2.76v1.6c0,.69.56,1.25,1.25,1.25h5.75c.69,0,1.25-.56,1.25-1.25v-1.6h23.79v1.6c0,.69.56,1.25,1.25,1.25h5.76c.69,0,1.25-.56,1.25-1.25v-1.6h2.6c2.13,0,3.86-1.73,3.86-3.87V12.8c0-2.13-1.73-3.87-3.86-3.87ZM13.72,44.61h-2.07v-20.08h2.07v20.08ZM60.04,56.97c0,.75-.61,1.37-1.36,1.37H13.01c-.75,0-1.36-.61-1.36-1.37v-5.94h2.07v4.13c0,.65.53,1.17,1.17,1.17h41.96c.65,0,1.17-.53,1.17-1.17V14.6c0-.65-.53-1.17-1.17-1.17H14.89c-.65,0-1.17.53-1.17,1.17v3.51h-2.07v-5.3c0-.75.61-1.37,1.36-1.37h45.66c.75,0,1.36.61,1.36,1.37v44.17ZM14.22,55.16V14.6c0-.37.3-.67.67-.67h41.96c.37,0,.67.3.67.67v40.57c0,.37-.3.67-.67.67H14.89c-.37,0-.67-.3-.67-.67Z"/>
  </g>
  <g id="Rectangles">
    <rect x=".36" y=".36" width="71.28" height="71.28" fill="none"/>
  </g>
</svg>