<svg xmlns="http://www.w3.org/2000/svg" viewBox="0 0 72 72">
  <g id="SVG_icons" data-name="SVG icons">
    <path d="M33.59,30.27c-.26,0-.51-.1-.71-.29l-6.23-6.23c-.39-.39-.39-1.02,0-1.41s1.02-.39,1.41,0l5.53,5.53,10.88-10.88c.39-.39,1.02-.39,1.41,0s.39,1.02,0,1.41l-11.59,11.59c-.2.2-.45.29-.71.29h0Z"/>
    <path d="M44.99,38.2h-17.46c-.55,0-1-.45-1-1s.45-1,1-1h17.46c.55,0,1,.45,1,1s-.45,1-1,1Z"/>
    <path d="M44.99,45.69h-17.46c-.55,0-1-.45-1-1s.45-1,1-1h17.46c.55,0,1,.45,1,1s-.45,1-1,1Z"/>
    <path d="M44.99,53.17h-17.46c-.55,0-1-.45-1-1s.45-1,1-1h17.46c.55,0,1,.45,1,1s-.45,1-1,1Z"/>
    <path d="M49.58,64.22h-27.4c-4,0-7.25-3.25-7.25-7.25V15.08c0-4,3.25-7.25,7.25-7.25h27.4c4,0,7.25,3.25,7.25,7.25v41.88c0,4-3.25,7.25-7.25,7.25ZM22.18,10.33c-2.62,0-4.75,2.13-4.75,4.75v41.88c0,2.62,2.13,4.75,4.75,4.75h27.4c2.62,0,4.75-2.13,4.75-4.75V15.08c0-2.62-2.13-4.75-4.75-4.75h-27.4Z"/>
  </g>
  <g id="Rectangles">
    <rect x=".36" y=".36" width="71.28" height="71.28" fill="none"/>
  </g>
</svg>