<?xml version="1.0" encoding="UTF-8"?>
<svg id="Layer_1" data-name="Layer 1" xmlns="http://www.w3.org/2000/svg" width="72" height="72" viewBox="0 0 72 72">
  <path d="M49.96,51.02h-27.94c-.27,0-.53-.11-.72-.3-.19-.19-.29-.46-.28-.73.05-1.7.17-5.71.25-6.21l.02-.12c.08-.58.23-1.65,1.67-2.47,1.56-.89,3.07-1.55,4.29-2.08,1.13-.49,2.12-.92,2.69-1.34.3-.47.77-2.44.72-3.07-.09-.4-1.12-1.77-1.46-2.22-.17-.23-.31-.41-.38-.52-.41-.61-.97-1.57-.97-2.73,0-.51.05-.77.11-1.03.04-.17.08-.32.08-.81v-.19c0-1.1,0-1.89.64-4.53.3-1.23,1.29-2.62,2.34-3.3.74-.47,1.16-.47,1.72-.42.42.04,1.13.11,3.05-.32,1.94-.44,4.16.61,5.47,1.64,1.31,1.03,2.05,2.22,2.07,3.34.03,1.87.12,2.28.22,2.75.05.22.1.46.15.81.03.21.06.28.11.39.13.3.24.6.24,1.28,0,1.17-.59,2.51-.96,3.08l-.09.14c-1.45,2.14-1.63,2.74-1.65,2.88-.03.48.39,2.29.67,2.76.02,0,.03.03.05.04.63.46,1.71.95,2.96,1.51,1.19.54,2.54,1.15,3.99,1.94,1.41.78,1.6,1.97,1.69,2.54.09.58.22,4.94.26,6.27,0,.27-.09.53-.28.73-.19.19-.45.3-.72.3h-.01ZM23.05,49.02h25.88c-.07-2.32-.16-4.61-.2-4.93-.08-.5-.13-.85-.68-1.16-1.38-.75-2.69-1.34-3.85-1.87-1.47-.67-2.64-1.19-3.44-1.81-.06-.04-.11-.1-.16-.15-.95-1-1.27-3.92-1.25-4.3.05-.74.62-1.86,1.99-3.88l.08-.12c.22-.34.63-1.3.63-1.97,0-.31-.02-.36-.07-.47-.08-.17-.19-.44-.26-.92-.04-.29-.08-.48-.12-.67-.12-.57-.23-1.06-.27-3.13,0-.36-.35-1.06-1.31-1.8-1.23-.97-2.79-1.48-3.79-1.26-2.23.5-3.13.42-3.67.36-.09,0-.16-.02-.22-.02h0s-.06.02-.24.13c-.62.4-1.3,1.35-1.47,2.08-.58,2.4-.58,3.06-.58,4.05v.19c0,.67-.06.97-.13,1.27-.04.15-.06.25-.06.57,0,.62.36,1.22.63,1.62.06.09.17.24.32.43,1.15,1.54,1.79,2.51,1.85,3.26.07.83-.43,4-1.44,4.77-.76.58-1.82,1.04-3.17,1.63-1.23.54-2.63,1.15-4.1,1.98-.58.33-.61.58-.67,1l-.02.17c-.04.31-.13,2.6-.2,4.92v.03ZM29.91,37.81h0ZM41.86,37.59h0Z"/>
  <path d="M58.67,8.94H13.01c-2.13,0-3.86,1.73-3.86,3.87v44.17c0,2.13,1.73,3.87,3.86,3.87h2.76v1.6c0,.69.56,1.25,1.25,1.25h5.75c.69,0,1.25-.56,1.25-1.25v-1.6h23.79v1.6c0,.69.56,1.25,1.25,1.25h5.76c.69,0,1.25-.56,1.25-1.25v-1.6h2.6c2.13,0,3.86-1.73,3.86-3.87V12.8c0-2.13-1.73-3.87-3.86-3.87h0ZM11.65,12.81c0-.75.61-1.37,1.36-1.37h45.66c.75,0,1.36.61,1.36,1.37v44.17h.01c0,.74-.61,1.36-1.36,1.36H13.01c-.75,0-1.36-.61-1.36-1.37V12.81Z"/>
</svg>