<?xml version="1.0" encoding="UTF-8"?>
<svg xmlns="http://www.w3.org/2000/svg" viewBox="0 0 72 72">
  <path d="M62.18,48.55l-3.22-3.99h-.02c.38-.54.39-1.28-.06-1.8l-6.88-8.04c1.66-2.21,3.79-5.94,5.78-12.14.24-.72-.13-1.52-.83-1.83-.19-.08-.39-.12-.59-.12-.53,0-1.04.28-1.31.78-.02.05-2.39,4.33-6.81,8.91l-7.06-8.24c1.04-2.02,1.4-4.33,1.03-6.6-.63-3.82-3.43-7.09-7.14-8.31-1.09-.36-2.22-.54-3.34-.54-.64,0-1.3.06-1.94.18,0,0-.07.01-.19.05,0-.02,0-.03-.01-.06l-2.5-5.1c-.2-.42-.63-.67-1.07-.67-.17,0-.35.03-.51.12l-2.54,1.19c-.28.13-.51.38-.62.68-.11.3-.08.63.06.91l2.5,5.1s.02.02.03.05c-2.4,1.97-3.81,4.89-3.83,8.07-.03,4.23,2.43,8.03,6.23,9.74l.87,14.44c-1.36.2-2.76.29-4.15.29-1.76,0-3.56-.17-5.34-.47-.08-.01-.18-.02-.26-.02-.64,0-1.23.42-1.43,1.06-.21.72.15,1.5.83,1.8.18.07,4.31,1.84,10.32,1.84h.3l1.17,18.33c.05.7.59,1.25,1.26,1.35l.75,5.01c.01.16.15.26.29.26.16,0,.27-.12.29-.26l.8-5c.68-.09,1.23-.64,1.27-1.34l1.32-19.29c4.44-1.14,8.61-3.3,12.4-6.44l7.88,7.11c.28.25.64.38,1,.38.29,0,.59-.1.83-.28l4.03,3.31s.13.07.19.07c.07,0,.15-.02.2-.08.1-.1.12-.28.02-.41ZM31.78,12.6c2.5.02,4.48,2.04,4.46,4.5-.02,2.45-2.03,4.43-4.46,4.43h-.03c-2.47-.02-4.44-2.04-4.43-4.5.02-2.45,2.03-4.43,4.46-4.43ZM43.66,34.46c-2.45,1.92-4.99,3.46-7.61,4.62l.7-10.86h.01s6.9,6.24,6.9,6.24Z"/>
</svg>