<?xml version="1.0" encoding="UTF-8"?>
<svg id="Layer_1" data-name="Layer 1" xmlns="http://www.w3.org/2000/svg" width="72" height="72" viewBox="0 0 72 72">
  <g id="SVG_icons" data-name="SVG icons">
    <g>
      <path d="M61.2,46.61l-3.26-4.06c.36-.52.37-1.23-.06-1.72l-6.55-7.66c1.58-2.1,3.61-5.66,5.5-11.56.23-.69-.12-1.45-.79-1.74-.18-.08-.37-.11-.56-.11-.5,0-.99.27-1.25.74-.02.05-2.28,4.12-6.49,8.49l-6.72-7.85c.99-1.92,1.33-4.12.98-6.29-.6-3.64-3.27-6.75-6.8-7.91-1.04-.34-2.11-.51-3.18-.51-.61,0-1.24.06-1.85.17,0,0-.07.01-.18.05,0-.02,0-.03-.01-.06l-2.38-4.86c-.19-.4-.6-.64-1.02-.64-.16,0-.33.03-.49.11l-2.42,1.13c-.27.12-.49.36-.59.65s-.08.6.06.87l2.38,4.86s.02.02.03.05c-2.29,1.88-3.63,4.66-3.65,7.69-.03,4.03,2.31,7.65,5.93,9.28l.83,13.75c-1.3.19-2.63.28-3.95.28-1.68,0-3.39-.16-5.09-.45-.08-.01-.17-.02-.25-.02-.61,0-1.17.4-1.36,1.01-.2.69.14,1.43.79,1.71.17.07,4.1,1.75,9.83,1.75h.29l1.11,18.46c.05.67.56,1.19,1.2,1.29l.71,6.77c.01.15.14.25.28.25h0c.15,0,.26-.11.28-.25l.76-6.76c.65-.09,1.17-.61,1.21-1.28l1.26-19.37c4.23-1.09,8.2-3.14,11.81-6.13l7.5,6.77c.27.24.61.36.95.36.28,0,.56-.1.79-.27l3.95,3.43s.12.07.18.07c.07,0,.14-.02.19-.08.1-.1.11-.27.02-.39l.02-.03ZM24.19,3.35l2.42-1.13,2.33,4.72c-.41.14-.85.29-1.26.49-.49.23-.86.44-1.17.62l-2.31-4.71h0ZM47.26,35.13c-4.37,3.78-8.82,5.7-12.83,6.57l-1.17,18.03h-.67V25.18c0-.16-.12-.28-.28-.28s-.28.12-.28.28v34.55h-.69l-1.06-17.45c-.56.03-1.1.05-1.62.05-5.5,0-9.26-1.63-9.26-1.63,1.85.33,3.63.48,5.34.48,1.89,0,3.71-.18,5.45-.51l-.96-15.92c-3.44-1.18-5.91-4.45-5.88-8.29.02-3.18,1.76-5.92,4.3-7.42l1.52-.7c.9-.32,1.86-.5,2.87-.5.88,0,1.79.14,2.73.44,3.03,1,5.32,3.64,5.84,6.8.37,2.31-.17,4.48-1.3,6.22l8.36,9.79c5.12-4.97,7.81-9.89,7.81-9.89-2.11,6.6-4.38,10.15-5.99,12.03l6.3,7.36-.26.26-17.22-17.9c-.11-.11-.28-.11-.4,0s-.11.28,0,.4l17.23,17.92-.19.19-7.24-6.54c-.26.18-.41.25-.41.25h-.03Z"/>
      <path d="M35.56,24.46l-.98,15.01c4.3-1.53,7.96-3.93,10.98-6.49l-9.63-8.69c-.12.07-.25.12-.37.18h0ZM36.82,26.99l6.57,5.93c-2.33,1.83-4.75,3.3-7.25,4.4l.67-10.34h.01Z"/>
      <path d="M37.75,16.4c.02-3.13-2.5-5.68-5.63-5.72h-.05c-3.11,0-5.64,2.51-5.67,5.63-.02,3.13,2.5,5.68,5.63,5.72h.05c3.11,0,5.64-2.51,5.67-5.63ZM32.07,20.61h-.03c-2.35-.02-4.23-1.94-4.22-4.29.02-2.33,1.93-4.22,4.25-4.22,2.38.02,4.27,1.94,4.25,4.29-.02,2.33-1.93,4.22-4.25,4.22Z"/>
    </g>
  </g>
  <g id="Rectangles">
    <rect x=".36" y=".36" width="71.28" height="71.28" fill="none"/>
  </g>
</svg>