<svg xmlns="http://www.w3.org/2000/svg" viewBox="0 0 72 72">
  <rect width="71.28" height="71.28" fill="none"/>
  <path d="M42.16,42.46h11.98c.83,0,1.5-.67,1.5-1.5v-11.98c0-.83-.67-1.5-1.5-1.5h-11.98c-.83,0-1.5.67-1.5,1.5v4.49h-20.67v-10.71h4.49c.83,0,1.5-.67,1.5-1.5v-11.98c0-.83-.67-1.5-1.5-1.5h-11.98c-.83,0-1.5.67-1.5,1.5v11.98c0,.83.67,1.5,1.5,1.5h4.49v32.68c0,.83.67,1.5,1.5,1.5h22.17v4.49c0,.83.67,1.5,1.5,1.5h11.98c.83,0,1.5-.67,1.5-1.5v-11.98c0-.83-.67-1.5-1.5-1.5h-11.98c-.83,0-1.5.67-1.5,1.5v4.49h-20.67v-17.47h20.67v4.49c0,.83.67,1.5,1.5,1.5ZM14,10.77h8.98v8.98h-8.98v-8.98ZM43.66,50.95h8.98v8.98h-8.98v-8.98ZM43.66,30.48h8.98v8.98h-8.98v-8.98Z"/>
  <path d="M54.84,16.77h-23.67c-.83,0-1.5-.67-1.5-1.5s.67-1.5,1.5-1.5h23.67c.83,0,1.5.67,1.5,1.5s-.67,1.5-1.5,1.5Z"/>
</svg>