<svg xmlns="http://www.w3.org/2000/svg" viewBox="0 0 72 72">
  <g id="SVG_icons" data-name="SVG icons">
    <path d="M48.72,35.5H11.24c-.55,0-1-.45-1-1s.45-1,1-1h37.48c.55,0,1,.45,1,1s-.45,1-1,1Z"/>
    <path d="M40.71,44.99H11.24c-.55,0-1-.45-1-1s.45-1,1-1h29.47c.55,0,1,.45,1,1s-.45,1-1,1Z"/>
    <path d="M51.72,54.47H11.24c-.55,0-1-.45-1-1s.45-1,1-1h40.48c.55,0,1,.45,1,1s-.45,1-1,1Z"/>
    <path d="M62.88,25.14H9.49c-.55,0-1-.45-1-1v-9.43c0-.55.45-1,1-1h53.39c.55,0,1,.45,1,1v9.43c0,.55-.45,1-1,1ZM10.49,23.14h51.39v-7.43H10.49v7.43Z" fill="#272525"/>
  </g>
  <g id="Rectangles">
    <rect x=".36" y=".36" width="71.28" height="71.28" fill="none"/>
  </g>
</svg>