<svg xmlns="http://www.w3.org/2000/svg" viewBox="0 0 72 72">
  <g id="SVG_icons" data-name="SVG icons">
    <path d="M54.18,7.94H17.23c-1.78,0-3.23,1.45-3.23,3.24v49.72c0,1.78,1.45,3.23,3.23,3.23h25.37c.81,0,1.59-.3,2.19-.85l11.58-10.67c.66-.61,1.04-1.48,1.04-2.38V11.17c0-1.78-1.45-3.24-3.23-3.24ZM16.49,60.9V11.17c0-.41.33-.74.73-.74h36.96c.4,0,.73.33.73.74v38.8h-9.67c-1.78,0-3.23,1.45-3.23,3.24v8.43h-24.79c-.4,0-.73-.33-.73-.73ZM44.52,60.13v-6.92c0-.41.33-.74.73-.74h7.58l-8.32,7.66Z"/>
    <path d="M45.98,44.24h-20.27c-1.72.02-3.31-.9-4.17-2.39-.78-1.37-.75-3.06.08-4.41l10.12-17.3c1.43-2.26,4.42-2.93,6.68-1.5.61.38,1.12.9,1.5,1.5l10.14,17.31c.83,1.34.86,3.03.08,4.4-.85,1.49-2.44,2.4-4.16,2.39ZM35.84,19.85c-.97-.02-1.89.48-2.41,1.3l-10.12,17.29h0c-.45.75-.45,1.68,0,2.43.5.88,1.44,1.41,2.45,1.39h20.22c1.01.02,1.96-.51,2.46-1.39.46-.75.46-1.68,0-2.43l-10.2-17.31c-.52-.81-1.43-1.3-2.4-1.28Z"/>
    <rect x="34.8" y="24.44" width="1.97" height="11.04"/>
    <rect x="34.8" y="37.6" width="1.97" height="2.39"/>
  </g>
  <g id="Rectangles">
    <rect x=".36" y=".36" width="71.28" height="71.28" fill="none"/>
  </g>
</svg>