<svg xmlns="http://www.w3.org/2000/svg" viewBox="0 0 72 72">
  <polygon points="33.31 34.82 26.06 27.57 28.73 24.9 33.31 29.49 44.39 18.41 47.06 21.08 33.31 34.82"/>
  <polygon points="33.31 54.84 26.06 47.59 28.73 44.92 33.31 49.5 44.39 38.43 47.06 41.09 33.31 54.84"/>
  <path d="M43.75,7.9h-3.76c-.54-2.1-2.69-3.36-4.79-2.82-1.38.36-2.46,1.44-2.82,2.82h-3.76c-.59,0-1.07.49-1.07,1.08v2.47c0,.59.47,1.07,1.06,1.08h15.14c.6,0,1.08-.48,1.08-1.08h0v-2.47c0-.6-.48-1.08-1.08-1.08h0Z"/>
  <path d="M56.03,8.94h-7.07v2.5h7.07c.75,0,1.36.61,1.36,1.37v47.84c0,.75-.61,1.37-1.36,1.37H16.14c-.75,0-1.36-.61-1.36-1.37V12.81c0-.75.61-1.37,1.36-1.37h7.32v-2.5h-7.32c-2.13,0-3.86,1.73-3.86,3.87v47.84c0,2.13,1.73,3.87,3.86,3.87h39.89c2.13,0,3.86-1.73,3.86-3.87V12.81c0-2.13-1.73-3.87-3.86-3.87Z" fill="#272525"/>
</svg>