<svg xmlns="http://www.w3.org/2000/svg" viewBox="0 0 72 72">
  <rect width="71.28" height="71.28" fill="none"/>
  <rect x="19.13" y="16.3" width="2.59" height="3"/>
  <rect x="23.87" y="16.3" width="13.04" height="3"/>
  <rect x="23.87" y="22.52" width="2.59" height="3"/>
  <rect x="28.61" y="22.52" width="13.04" height="3"/>
  <rect x="23.87" y="28.82" width="2.59" height="3"/>
  <rect x="28.61" y="28.82" width="13.04" height="3"/>
  <rect x="23.87" y="54" width="2.59" height="3"/>
  <rect x="28.61" y="54" width="13.04" height="3"/>
  <rect x="28.65" y="35.11" width="2.59" height="3"/>
  <rect x="33.4" y="35.11" width="13.04" height="3"/>
  <rect x="33.32" y="41.41" width="2.59" height="3"/>
  <rect x="38.06" y="41.41" width="13.04" height="3"/>
  <rect x="28.92" y="47.71" width="2.59" height="3"/>
  <rect x="33.66" y="47.71" width="13.04" height="3"/>
  <path d="M55.48,65.66s-.1,0-.15,0h-.1s-39.84,0-39.84,0c-1.93,0-3.5-1.57-3.5-3.5V11.58c0-1.93,1.57-3.5,3.5-3.5h40.1c1.93,0,3.5,1.57,3.5,3.5v50.58c0,1.93-1.57,3.5-3.5,3.5ZM15.38,11.08c-.28,0-.5.22-.5.5v50.58c0,.28.22.5.5.5l39.92-.02h0s.1,0,.15,0h.07c.25-.02.45-.23.45-.49V11.58c0-.28-.22-.5-.5-.5H15.38Z"/>
</svg>