<?xml version="1.0" encoding="UTF-8"?>
<svg id="Layer_1" data-name="Layer 1" xmlns="http://www.w3.org/2000/svg" width="72" height="72" viewBox="0 0 72 72">
  <rect x=".36" y=".36" width="71.28" height="71.28" fill="none"/>
  <path d="M44.7,50.11h-15.22c-.55,0-1-.45-1-1s.45-1,1-1h15.22c.55,0,1,.45,1,1s-.45,1-1,1Z"/>
  <path d="M45.7,55.33h-15.22c-.55,0-1-.45-1-1s.45-1,1-1h15.22c.55,0,1,.45,1,1s-.45,1-1,1Z"/>
  <path d="M60.72,62.39v.02c-5.84-5.85-6.4-17.22-6.14-28.63l.31-9.83c.2-7.68-.11-12.59-2.24-15-.24-.27-.57-.42-.93-.42H16.09c-.3,0-.6.11-.83.32-.52.46-.56,1.25-.1,1.76.98,1.45,1.58,3.12,1.79,4.84-1.96,1.06-3.29,3.14-3.29,5.52,0,.25.02.51.05.77.15,1.06-.24,2.12-1.06,2.84-1.29,1.19-2.03,2.87-2.03,4.62s.74,3.43,2.05,4.63c.8.71,1.2,1.77,1.05,2.85-.03.24-.05.5-.05.76,0,2.22,1.16,4.17,2.91,5.29.47,9.65,2.13,16.77,6.75,21.4.24.23.56.36.89.36h35.62c.51,0,.97-.3,1.16-.77.17-.46.07-.97-.27-1.32ZM15.44,37.43c0-.18.01-.37.03-.53.23-1.65-.38-3.29-1.62-4.39-.93-.85-1.46-2.06-1.46-3.31s.53-2.46,1.45-3.3c1.25-1.11,1.86-2.75,1.63-4.39-.02-.18-.03-.36-.03-.54,0-2.49,2.02-4.51,4.51-4.51.18,0,.35,0,.49.02,1.62.24,3.31-.35,4.41-1.56.84-.8,1.94-1.23,3.09-1.23,1.25,0,2.46.53,3.3,1.45,1.1,1.25,2.75,1.86,4.38,1.63.18-.02.36-.03.54-.03,2.49,0,4.51,2.02,4.51,4.51,0,.18,0,.35-.02.49-.24,1.62.35,3.31,1.56,4.41.81.85,1.23,1.91,1.23,3.05s-.43,2.2-1.23,3.05c-1.2,1.1-1.8,2.79-1.56,4.38.02.17.03.35.03.52,0,2.49-2.02,4.51-4.51,4.51-.18,0-.37-.01-.53-.03-1.65-.23-3.29.38-4.39,1.62-.86.93-2.06,1.46-3.31,1.46-1.15,0-2.25-.44-3.09-1.23h0c-1.1-1.21-2.79-1.81-4.38-1.56-.17.02-.35.03-.52.03-2.49,0-4.51-2.02-4.51-4.51ZM24.75,61.96v.04c-3.68-3.96-5.13-10.09-5.62-18.34.26.03.53.06.81.06.23,0,.47-.02.75-.05,1.06-.16,2.14.23,2.85,1.02l.05.05c1.18,1.13,2.72,1.75,4.34,1.75h0c1.56.01,3.06-.58,4.22-1.63.06.01.12.04.18.04h12.15c.55,0,1-.45,1-1s-.45-1-1-1h-5.73c2.17-.99,3.69-3.17,3.69-5.71,0-.24-.02-.48-.05-.75-.16-1.05.23-2.14,1.02-2.85l.05-.05c1.13-1.18,1.75-2.7,1.75-4.3s-.62-3.13-1.75-4.3l-.05-.05c-.79-.71-1.18-1.8-1.01-2.88.03-.24.04-.48.04-.72,0-3.46-2.82-6.28-6.28-6.28-.25,0-.51.02-.77.05-1.06.15-2.12-.24-2.84-1.06-1.19-1.29-2.88-2.03-4.62-2.03-1.62,0-3.17.62-4.34,1.75l-.05.05c-.7.79-1.8,1.17-2.88,1.01-.24-.03-.48-.04-.72-.04-.2,0-.4.01-.6.03-.2-1.29-.55-2.56-1.07-3.77h32.81c1.37,2.21,1.44,7.45,1.3,12.85l-.31,9.83c-.25,10.76.24,21.53,5.08,28.32H24.75Z"/>
  <polygon points="25.97 34.91 20.3 29.24 22.5 27.04 25.97 30.52 34.05 22.45 36.24 24.65 25.97 34.91"/>
</svg>