<?xml version="1.0" encoding="UTF-8"?>
<svg xmlns="http://www.w3.org/2000/svg" viewBox="0 0 72 72">
  <path d="M47.58,8.88c0-.55-.45-1-1-1h-14.85c-.55,0-1,.45-1,1v5.12h-15.14c-.55,0-1,.45-1,1v15.2h-6.36c-.55,0-1,.45-1,1v12c0,.55.45,1,1,1h6.41v2.09h-2.87v1.64h7.7v-1.64h-2.83v-2.09h6.44c.55,0,1-.45,1-1v-4.67h6.92v16.59c0,.83.67,1.5,1.5,1.5h13.33v3.31h-6.2v3h15.37v-3h-6.17v-3.31h13.39c.83,0,1.5-.67,1.5-1.5v-24c0-.83-.67-1.5-1.5-1.5h-29.7c-.83,0-1.5.67-1.5,1.5v5.41h-6.94v-5.33c0-.55-.45-1-1-1h-6.49v-14.2h14.14v4.89c0,.55.45,1,1,1h6.4v2.11h-2.87v1.64h7.68v-1.64h-2.81v-2.12h6.45c.55,0,1-.45,1-1v-12ZM34,32.62h26.7v21h-26.7v-21ZM22.08,42.2h-12.85v-10h12.85v10ZM45.58,19.91h-12.85v-10h12.85v10Z"/>
  <path d="M53.28,50.6l-3.52-6.46c.2-.07.4-.15.58-.24.79-.4,1.37-.97,1.76-1.68s.57-1.54.57-2.48-.19-1.77-.57-2.5-.97-1.31-1.76-1.72-1.8-.63-3.02-.63h-5.38v15.71h2v-6.1h3.39c.13,0,.24-.01.36-.02l3.28,6.11h2.32ZM43.94,36.64h3.27c.84,0,1.51.13,2.01.38s.88.62,1.11,1.08.35,1,.35,1.63-.12,1.14-.35,1.59-.6.79-1.1,1.03-1.17.36-2,.36h-3.29v-6.07Z"/>
</svg>