<svg xmlns="http://www.w3.org/2000/svg" viewBox="0 0 72 72">
  <rect x=".36" y=".36" width="71.28" height="71.28" fill="none"/>
  <path d="M60.73,62.41c-5.85-5.85-6.41-17.22-6.15-28.63l.31-9.83c.2-7.68-.11-12.59-2.24-15-.24-.27-.57-.42-.93-.42H16.09c-.3,0-.6.11-.83.32-.52.46-.56,1.25-.1,1.76,1.02,1.52,1.65,3.27,1.83,5.08-1.84.6-3.18,2.3-3.18,4.33,0,.19.01.37.03.56.11.77-.18,1.55-.77,2.07-.94.87-1.48,2.09-1.48,3.37s.54,2.5,1.49,3.37c.59.52.87,1.29.76,2.07-.02.18-.03.37-.03.55,0,1.81,1.07,3.37,2.6,4.11.05,13.08,1.29,22.37,6.91,28,.24.23.56.36.89.36h35.62c.51,0,.97-.3,1.16-.77.17-.46.07-.97-.27-1.32ZM15.11,32.03c0-.13,0-.27.02-.38.17-1.2-.28-2.4-1.18-3.2-.68-.62-1.07-1.5-1.07-2.41s.39-1.79,1.05-2.41c.91-.81,1.36-2.01,1.19-3.2-.01-.13-.02-.26-.02-.4,0-1.81,1.47-3.28,3.28-3.28.13,0,.26,0,.36.02,1.18.18,2.41-.26,3.21-1.14.61-.58,1.41-.9,2.25-.9.91,0,1.79.39,2.41,1.05.8.91,2,1.36,3.19,1.19.13-.01.26-.02.4-.02,1.81,0,3.28,1.47,3.28,3.28,0,.13,0,.26-.02.36-.18,1.18.26,2.41,1.14,3.21.59.62.9,1.39.9,2.23s-.31,1.61-.9,2.23c-.88.8-1.31,2.03-1.14,3.19.01.12.02.25.02.38,0,1.81-1.47,3.28-3.28,3.28-.13,0-.27,0-.38-.02-1.2-.17-2.4.28-3.2,1.18-.62.68-1.5,1.07-2.41,1.07-.84,0-1.64-.32-2.25-.9h0c-.77-.85-1.94-1.28-3.05-1.15,0-.02,0-.04,0-.07h-1.28c-1.44-.35-2.52-1.64-2.52-3.18ZM24.75,62c-4.66-5.02-5.76-13.51-5.83-25.43,0,0,.01,0,.02,0,.77-.12,1.56.17,2.08.74l.03.03c.86.82,1.98,1.27,3.16,1.27h0c1.27,0,2.5-.53,3.37-1.49.52-.59,1.29-.87,2.07-.76.18.02.37.03.55.03,2.52,0,4.58-2.05,4.58-4.58,0-.17-.01-.35-.03-.55-.12-.77.17-1.56.74-2.08l.03-.03c.82-.86,1.27-1.97,1.27-3.14s-.45-2.28-1.27-3.14l-.03-.03c-.57-.52-.86-1.31-.74-2.1.02-.18.03-.35.03-.53,0-2.52-2.05-4.58-4.58-4.58-.18,0-.37.01-.56.03-.77.11-1.55-.18-2.07-.77-.87-.94-2.1-1.48-3.37-1.48-1.18,0-2.31.45-3.16,1.27l-.03.03c-.39.44-.96.7-1.56.75-.17-1.55-.56-3.06-1.18-4.5h32.81c1.37,2.21,1.44,7.45,1.3,12.85l-.31,9.83c-.25,10.76.24,21.53,5.08,28.32H24.75Z"/>
  <polygon points="22.79 30.19 18.65 26.06 20.26 24.45 22.79 26.99 28.68 21.1 30.28 22.71 22.79 30.19"/>
  <path d="M45.98,43.09h-15.22c-.55,0-1-.45-1-1s.45-1,1-1h15.22c.55,0,1,.45,1,1s-.45,1-1,1Z"/>
  <path d="M46.21,48.32h-15.22c-.55,0-1-.45-1-1s.45-1,1-1h15.22c.55,0,1,.45,1,1s-.45,1-1,1Z"/>
  <path d="M47.21,53.54h-15.22c-.55,0-1-.45-1-1s.45-1,1-1h15.22c.55,0,1,.45,1,1s-.45,1-1,1Z"/>
</svg>