<svg xmlns="http://www.w3.org/2000/svg" viewBox="0 0 72 72">
  <path d="M53.28,64.53H18.72c-5.71,0-9.54-3.82-9.54-9.5V16.97c0-5.68,3.84-9.5,9.54-9.5h34.56c5.71,0,9.54,3.82,9.54,9.5v38.05c0,5.68-3.84,9.5-9.54,9.5ZM18.72,10.47c-4.04,0-6.54,2.49-6.54,6.5v38.05c0,4.01,2.51,6.5,6.54,6.5h34.56c4.04,0,6.54-2.49,6.54-6.5V16.97c0-4.01-2.51-6.5-6.54-6.5H18.72Z"/>
  <path d="M24.21,27.24c-3.85,0-6.98-3.13-6.98-6.98s3.13-6.98,6.98-6.98,6.98,3.13,6.98,6.98-3.13,6.98-6.98,6.98ZM24.21,15.28c-2.75,0-4.98,2.23-4.98,4.98s2.23,4.98,4.98,4.98,4.98-2.23,4.98-4.98-2.23-4.98-4.98-4.98Z"/>
  <path d="M24.21,42.94c-3.85,0-6.98-3.13-6.98-6.98s3.13-6.98,6.98-6.98,6.98,3.13,6.98,6.98-3.13,6.98-6.98,6.98ZM24.21,30.98c-2.75,0-4.98,2.23-4.98,4.98s2.23,4.98,4.98,4.98,4.98-2.23,4.98-4.98-2.23-4.98-4.98-4.98Z"/>
  <circle cx="24.21" cy="35.96" r="3.53"/>
  <path d="M54.71,21.76h-19.28c-.83,0-1.5-.67-1.5-1.5s.67-1.5,1.5-1.5h19.28c.83,0,1.5.67,1.5,1.5s-.67,1.5-1.5,1.5Z"/>
  <path d="M54.71,37.46h-19.28c-.83,0-1.5-.67-1.5-1.5s.67-1.5,1.5-1.5h19.28c.83,0,1.5.67,1.5,1.5s-.67,1.5-1.5,1.5Z"/>
  <path d="M24.21,58.52c-3.85,0-6.98-3.13-6.98-6.98s3.13-6.98,6.98-6.98,6.98,3.13,6.98,6.98-3.13,6.98-6.98,6.98ZM24.21,46.56c-2.75,0-4.98,2.23-4.98,4.98s2.23,4.98,4.98,4.98,4.98-2.23,4.98-4.98-2.23-4.98-4.98-4.98Z"/>
  <path d="M54.71,53.04h-19.28c-.83,0-1.5-.67-1.5-1.5s.67-1.5,1.5-1.5h19.28c.83,0,1.5.67,1.5,1.5s-.67,1.5-1.5,1.5Z"/>
</svg>