<?xml version="1.0" encoding="UTF-8"?>
<svg xmlns="http://www.w3.org/2000/svg" viewBox="0 0 72 72">
  <path d="M46.5,63.7h-21.1v-3h9.1v-4.9H9.1c-.8,0-1.5-.7-1.5-1.5V10.7c0-.8.7-1.5,1.5-1.5h54c.8,0,1.5.7,1.5,1.5v43.6c0,.8-.7,1.5-1.5,1.5h-25.6v4.9h9v3ZM36,52.8h25.6V12.2H10.6v40.6h25.4Z"/>
  <g>
    <circle cx="42.4" cy="20" r="1.8"/>
    <circle cx="48.4" cy="20" r="1.8"/>
    <circle cx="54.3" cy="20" r="1.8"/>
    <circle cx="42.4" cy="25.9" r="1.8"/>
    <circle cx="48.4" cy="25.9" r="1.8"/>
    <circle cx="54.3" cy="25.9" r="1.8"/>
    <circle cx="42.4" cy="31.9" r="1.8"/>
    <circle cx="48.4" cy="31.9" r="1.8"/>
    <circle cx="54.3" cy="31.9" r="1.8"/>
  </g>
  <path d="M44.2,47.2c-4.9,0-8.6-5.5-11.2-9h0c-2.8-3.9-5.7-9.4-3.8-13.1.1-.3,1.6-3.6,4.3-3.6.25,0,.6.2.8.4l4,5.7c.3.4.2,1-.2,1.4l-2.1,1.6h0v.3c0,.3.7,1.7,2.5,4.2,1.4,2,2.6,3.3,3,3.5h.3l2.4-1.3c.4-.2,1,0,1.3.3l4,5.7c0,.2.2.4.2.6,0,2.5-4.1,3.1-4.9,3.2-.2,0-.6.1-.6.1ZM33.1,23.6c-1,.4-1.8,1.8-2.1,2.3-1.1,2.3.1,6.3,3.5,11.1h0c2.4,3.2,5.8,8.2,9.6,8.2h.4c1.4-.2,2.7-.7,3-1l-3.2-4.6-1.5.8c-.5.3-1.4.5-2.3,0-1.1-.6-2.9-3.1-3.6-4.1-1.8-2.5-2.7-4.3-2.8-5.1,0-1.1.4-1.8.9-2.1l1.3-1-3.1-4.4h-.1v-.1ZM35.9,30.7h0ZM35.9,30.7h0ZM36,30.7h0Z"/>
</svg>