<svg xmlns="http://www.w3.org/2000/svg" viewBox="0 0 72 72">
    <path d="M24.51,26.18h-7.37c-.41,0-.75-.34-.75-.75s.34-.75.75-.75h7.37c.41,0,.75.34.75.75s-.34.75-.75.75Z"/>
    <path d="M40.64,18.43h-9.12c-.41,0-.75-.34-.75-.75s.34-.75.75-.75h9.12c.41,0,.75.34.75.75s-.34.75-.75.75Z"/>
    <path d="M40.64,21.19h-9.12c-.41,0-.75-.34-.75-.75s.34-.75.75-.75h9.12c.41,0,.75.34.75.75s-.34.75-.75.75Z"/>
    <path d="M40.64,24h-9.12c-.41,0-.75-.34-.75-.75s.34-.75.75-.75h9.12c.41,0,.75.34.75.75s-.34.75-.75.75Z"/>
    <path d="M40.64,54.08h-9.12c-.41,0-.75-.34-.75-.75s.34-.75.75-.75h9.12c.41,0,.75.34.75.75s-.34.75-.75.75Z"/>
    <path d="M47.88,20.84c-.41.02-.77-.3-.78-.72s.3-.77.72-.78l4.35-.34c.41-.04.78.27.82.68s-.27.78-.68.82l-4.3.34h-.12Z"/>
    <path d="M48.17,24.13c-.39,0-.71-.29-.74-.68-.04-.41.26-.78.67-.82,0,0,0,0,0,0l4.35-.39c.41-.04.78.27.81.68.04.41-.27.78-.68.82l-4.35.39h-.07Z"/>
    <path d="M50.89,54.48c-.41-.05-.71-.42-.66-.83.04-.32.28-.58.6-.65l4.35-.39c.41-.07.79.21.86.62.07.41-.21.79-.62.86-.04,0-.08,0-.11,0l-4.31.38h-.11Z"/>
    <path d="M55.39,11.05c-.05-.55-.53-.96-1.08-.91,0,0,0,0,0,0l-9.75.86v-2c0-.55-.45-1-1-1h-14.95c-.55,0-1,.45-1,1v7.09c-.05,0-.11,0-.16,0h-13.2c-.55,0-1,.45-1,1v45c0,.55.45,1,1,1h13.2c.2,0,.4-.07.56-.19.16.13.37.21.58.21h14.97c.55,0,1-.45,1-1V26.82l3.17,35.38c.05.52.48.91,1,.91h.09l10.19-.91c.26-.03.5-.16.67-.36.17-.2.25-.47.23-.73l-4.51-50.06ZM26.43,61.11h-11.2V18.11h11.2v43ZM42.55,61.11h-12.95V10h12.95v51.11ZM49.62,61l-4.3-48,8.16-.74,4.31,48.07-8.17.67Z"/>
  </g>
  <rect x=".36" y=".36" width="71.28" height="71.28" fill="none"/>
</svg>