<?xml version="1.0" encoding="UTF-8"?>
<svg id="Layer_1" xmlns="http://www.w3.org/2000/svg" version="1.1" viewBox="0 0 72 72">
  <!-- Generator: Adobe Illustrator 29.0.1, SVG Export Plug-In . SVG Version: 2.1.0 Build 192)  -->
  <defs>
    <style>
      .st0 {
        fill: none;
      }
    </style>
  </defs>
  <g>
    <path d="M19.4,27v-5.6c0-.6.5-1.1,1.1-1.1h22.3v-4.1c0-.6.5-1.1,1.1-1.1.3,0,.5.1.8.3l8,8c.4.4.4,1.1,0,1.6h0l-8,8c-.4.4-1.1.4-1.6,0-.2-.2-.3-.5-.3-.8v-4.1h-22.3c-.6,0-1.1-.5-1.1-1.1ZM21.6,22.5v3.4h22.3c.6,0,1.1.5,1.1,1.1v2.6l5.4-5.4-5.4-5.4v2.6c0,.6-.5,1.1-1.1,1.1h-22.3Z"/>
    <path d="M54.9,64.5H17.3c-5.7,0-9.5-3.8-9.5-9.5V16.9c0-5.7,3.8-9.5,9.5-9.5h37.6c5.7,0,9.5,3.8,9.5,9.5v38.1c0,5.7-3.8,9.5-9.5,9.5ZM17.3,10.4c-4,0-6.5,2.5-6.5,6.5v38.1c0,4,2.5,6.5,6.5,6.5h37.6c4,0,6.5-2.5,6.5-6.5V16.9c0-4-2.5-6.5-6.5-6.5H17.3Z"/>
  </g>
  <rect class="st0" x="0" y=".4" width="71.3" height="71.3"/>
  <path d="M19.4,50.2v-5.6c0-.6.5-1.1,1.1-1.1h22.3v-4.1c0-.6.5-1.1,1.1-1.1.3,0,.5.1.8.3l8,8c.4.4.4,1.1,0,1.6h0l-8,8c-.4.4-1.1.4-1.6,0-.2-.2-.3-.5-.3-.8v-4.2h-22.3c-.6,0-1.1-.5-1.1-1.1ZM21.6,45.7v3.4h22.3c.6,0,1.1.5,1.1,1.1v2.6l5.4-5.4-5.4-5.4v2.6c0,.6-.5,1.1-1.1,1.1h-22.3Z"/>
</svg>