<svg xmlns="http://www.w3.org/2000/svg" viewBox="0 0 72 72">
  <g>
    <path d="M33.11,26.69c-.08-.19-.26-.31-.46-.31h-4.23v-7.76c0-.28-.22-.5-.5-.5h-5.07c-.28,0-.5.22-.5.5v7.76h-4.26c-.2,0-.38.12-.46.31-.07.19-.03.4.11.54l7.26,7.3c.09.09.22.15.35.15.13,0,.26-.06.36-.15l7.29-7.3c.15-.14.19-.36.11-.54Z"/>
    <path d="M33.11,47.42c-.08-.19-.26-.31-.46-.31h-4.23v-7.77c0-.27-.23-.49-.5-.5h-5.07c-.27,0-.49.23-.5.5v7.77h-4.26c-.2,0-.38.12-.46.31-.07.19-.03.4.11.54l7.26,7.3c.09.09.22.14.35.14.13,0,.26-.05.36-.14l7.29-7.26c.17-.15.21-.38.11-.58Z"/>
  </g>
  <rect x="-.05" y=".36" width="71.28" height="71.28" fill="none"/>
  <path d="M45.69,47.72c-.22,0-.44-.06-.64-.17-.4-.23-.64-.65-.64-1.11v-17.11c0-.7.57-1.27,1.27-1.27.24,0,.47.07.67.19l13.92,8.59c.39.22.63.63.64,1.08,0,.45-.25.86-.64,1.09l-13.92,8.52c-.2.12-.43.18-.66.18Z"/>
  <path d="M68.71,37.86c0-4.47-1.61-8.56-4.27-11.74v-9.19c0-5.68-3.83-9.5-9.54-9.5H17.33c-5.7,0-9.54,3.82-9.54,9.5v38.06c0,5.68,3.84,9.5,9.54,9.5h37.57c5.71,0,9.54-3.82,9.54-9.49v-5.36c2.67-3.19,4.28-7.29,4.27-11.78ZM66.17,37.9c0,8.73-7.07,15.8-15.8,15.8-8.73,0-15.8-7.07-15.8-15.8,0-8.73,7.07-15.8,15.8-15.8,8.71,0,15.78,7.06,15.8,15.77,0,.01,0,.02,0,.03ZM54.9,61.5H17.33c-4.03,0-6.54-2.5-6.54-6.5V16.93c0-4.01,2.54-6.5,6.54-6.5h37.57c4.03,0,6.54,2.5,6.54,6.5v6.35c-3.08-2.34-6.91-3.74-11.07-3.74-10.13,0-18.35,8.21-18.35,18.35s8.21,18.35,18.35,18.35c4.17,0,7.99-1.41,11.07-3.75v2.52c0,4.01-2.54,6.5-6.54,6.5Z"/>
</svg>