<?xml version="1.0" encoding="UTF-8"?>
<svg id="Layer_1" data-name="Layer 1" xmlns="http://www.w3.org/2000/svg" viewBox="0 0 72 72">
  <path d="M58.17,57.78V21.62c0-.73-.59-1.32-1.32-1.32h-4.43v-5.78c0-.73-.59-1.32-1.32-1.32h-20.32c-.73,0-1.32.59-1.32,1.32v18.63h-3.03v-9.99c0-.73-.59-1.32-1.32-1.32h-11.86c-.73,0-1.32.59-1.32,1.32v34.62h-2.84v1.15h54.08v-1.15h-5.01ZM55.51,22.94l.03,34.85h-7.8V22.94h7.77ZM49.79,15.83v4.47h-3.35c-.73,0-1.32.59-1.32,1.32v36.17h-12.98V15.83h17.64ZM29.47,35.78v22h-6.52v-22h6.52ZM14.6,24.48h9.21v8.67h-2.17c-.73,0-1.32.59-1.32,1.32v23.32h-5.72V24.48Z"/>
</svg>