<?xml version="1.0" encoding="UTF-8"?>
<svg id="Layer_1" data-name="Layer 1" xmlns="http://www.w3.org/2000/svg" width="72" height="72" viewBox="0 0 72 72">
  <path d="M46.5,63.7h-21.1v-3h9.1v-4.9H9.1c-.8,0-1.5-.7-1.5-1.5V10.7c0-.8.7-1.5,1.5-1.5h54c.8,0,1.5.7,1.5,1.5v43.6c0,.8-.7,1.5-1.5,1.5h-25.6v4.9h9v3ZM36,52.8h25.6V12.2H10.6v40.6h25.4Z"/>
  <path d="M43.15,17.33c0-.32-.27-.59-.59-.59h-8.77c-.32,0-.59.27-.59.59v3.02h-8.94c-.32,0-.59.27-.59.59v8.98h-3.76c-.32,0-.59.27-.59.59v7.09c0,.32.27.59.59.59h3.79v1.23h-1.69v.97h4.55v-.97h-1.67v-1.23h3.8c.32,0,.59-.27.59-.59v-2.76h4.09v9.8c0,.49.4.89.89.89h7.87v1.95h-3.66v1.77h9.08v-1.77h-3.64v-1.95h7.91c.49,0,.89-.4.89-.89v-14.17c0-.49-.4-.89-.89-.89h-17.54c-.49,0-.89.4-.89.89v3.19h-4.1v-3.15c0-.32-.27-.59-.59-.59h-3.83v-8.38h8.35v2.89c0,.32.27.59.59.59h3.78v1.25h-1.69v.97h4.53v-.97h-1.66v-1.25h3.81c.32,0,.59-.27.59-.59v-7.09ZM35.13,31.35h15.77v12.4h-15.77v-12.4ZM28.09,37.01h-7.59v-5.9h7.59v5.9ZM41.97,23.85h-7.59v-5.9h7.59v5.9Z"/>
  <path d="M46.51,41.97l-2.08-3.81c.12-.04.24-.09.34-.14.47-.24.81-.57,1.04-.99s.34-.91.34-1.46-.11-1.05-.34-1.48-.57-.77-1.04-1.02-1.06-.37-1.78-.37h-3.18v9.28h1.18v-3.6h2c.08,0,.14,0,.21-.01l1.94,3.61h1.37,0ZM41,33.73h1.93c.5,0,.89.08,1.19.22s.52.37.66.64.21.59.21.96-.07.67-.21.94-.35.47-.65.61-.69.21-1.18.21h-1.94v-3.58Z"/>
</svg>