<svg xmlns="http://www.w3.org/2000/svg" viewBox="0 0 72 72">
  <g>
    <path d="M43.25,10.1h-3.76c-.54-2.1-2.69-3.36-4.79-2.82-1.38.36-2.46,1.44-2.82,2.82h-3.76c-.59,0-1.07.49-1.07,1.08v2.47c0,.59.47,1.07,1.06,1.08h15.14c.6,0,1.08-.48,1.08-1.08h0v-2.47c0-.6-.48-1.08-1.08-1.08h0Z"/>
    <polygon points="31.67 46.82 21.72 36.87 25.38 33.21 31.67 39.5 46.87 24.31 50.53 27.96 31.67 46.82"/>
  </g>
  <rect x=".36" y=".36" width="71.28" height="71.28" fill="none"/>
  <path d="M55.53,11.14h-7.07v2.5h7.07c.75,0,1.36.61,1.36,1.37v42.84c0,.75-.61,1.37-1.36,1.37H15.64c-.75,0-1.36-.61-1.36-1.37V15c0-.75.61-1.37,1.36-1.37h7.32v-2.5h-7.32c-2.13,0-3.86,1.73-3.86,3.87v42.84c0,2.13,1.73,3.87,3.86,3.87h39.89c2.13,0,3.86-1.73,3.86-3.87V15c0-2.13-1.73-3.87-3.86-3.87Z" fill="#272525"/>
</svg>