<svg xmlns="http://www.w3.org/2000/svg" viewBox="0 0 72 72">
  <g>
    <path d="M24.95,28.01v-5.58c0-.61.49-1.1,1.1-1.1h12.43s0-4.12,0-4.12c0-.61.51-1.1,1.12-1.09.28,0,.55.12.76.32l8.05,8.02c.43.43.44,1.13,0,1.56,0,0,0,0,0,0l-8.05,8.03c-.43.43-1.13.42-1.56-.02-.2-.2-.31-.48-.32-.77v-4.15s-12.43,0-12.43,0c-.61,0-1.1-.49-1.1-1.1ZM27.16,23.53v3.37s12.43,0,12.43,0c.61,0,1.1.49,1.1,1.1v2.6s5.41-5.38,5.41-5.38l-5.38-5.37v2.57c0,.61-.49,1.1-1.1,1.1h-12.46Z"/>
    <path d="M54.9,64.49H17.33c-5.7,0-9.54-3.82-9.54-9.5V16.93c0-5.68,3.84-9.5,9.54-9.5h37.57c5.71,0,9.54,3.82,9.54,9.5v38.07c0,5.67-3.83,9.49-9.54,9.49ZM17.33,10.43c-4,0-6.54,2.49-6.54,6.5v38.07c0,4,2.51,6.5,6.54,6.5h37.57c4,0,6.54-2.49,6.54-6.5V16.93c0-4-2.51-6.5-6.54-6.5H17.33Z"/>
  </g>
  <rect x="-.05" y=".36" width="71.28" height="71.28" fill="none"/>
  <rect x="14.59" y="21.48" width="7.32" height="7.32" rx="2" ry="2"/>
  <rect x="50.75" y="21.48" width="7.32" height="7.32" rx="2" ry="2"/>
  <path d="M24.95,49.19v-5.58c0-.61.49-1.1,1.1-1.1h12.43s0-4.12,0-4.12c0-.61.51-1.1,1.12-1.09.28,0,.55.12.76.32l8.05,8.02c.43.43.44,1.13,0,1.56,0,0,0,0,0,0l-8.05,8.03c-.43.43-1.13.42-1.56-.02-.2-.2-.31-.48-.32-.77v-4.15s-12.43,0-12.43,0c-.61,0-1.1-.49-1.1-1.1ZM27.16,44.72v3.37s12.43,0,12.43,0c.61,0,1.1.49,1.1,1.1v2.6s5.41-5.38,5.41-5.38l-5.38-5.37v2.57c0,.61-.49,1.1-1.1,1.1h-12.46Z"/>
  <rect x="14.59" y="42.67" width="7.32" height="7.32" rx="2" ry="2"/>
  <rect x="50.75" y="42.67" width="7.32" height="7.32" rx="2" ry="2"/>
</svg>