<svg xmlns="http://www.w3.org/2000/svg" viewBox="0 0 72 72">
  <g id="SVG_icons" data-name="SVG icons">
    <path d="M61.37,16.44l-11.58-10.67c-.6-.55-1.38-.85-2.19-.85h-24.37c-1.78,0-3.23,1.45-3.23,3.23v2.28h-4.29c-1.78,0-3.23,1.45-3.23,3.23v47.72c0,1.78,1.45,3.24,3.23,3.24h35.95c1.78,0,3.23-1.45,3.23-3.24v-2.28h4.29c1.78,0,3.23-1.45,3.23-3.24V18.82c0-.9-.38-1.77-1.04-2.38ZM52.39,61.4c0,.41-.33.74-.73.74H15.71c-.4,0-.73-.33-.73-.74V13.67c0-.4.33-.73.73-.73h24.37c.18,0,.36.07.5.19l11.58,10.67c.15.14.24.34.24.54v37.06ZM59.91,55.88c0,.41-.33.74-.73.74h-4.29V24.34c0-.9-.38-1.77-1.04-2.38l-11.58-10.67c-.6-.55-1.38-.85-2.19-.85h-17.58v-2.28c0-.4.33-.73.73-.73h24.37c.18,0,.36.07.5.19l11.58,10.66c.15.14.24.34.24.54v37.06Z"/>
  </g>
  <g id="Rectangles">
    <rect x=".36" y=".36" width="71.28" height="71.28" fill="none"/>
  </g>
</svg>