<svg xmlns="http://www.w3.org/2000/svg" viewBox="0 0 72 72">
  <g id="SVG_icons" data-name="SVG icons">
    <path d="M61.4,17.74l-9.38-8.64c-.53-.49-1.21-.75-1.93-.75h-20.55c-1.58,0-2.86,1.28-2.86,2.86v4.38l-.66-.53c-.4-.37-.92-.57-1.47-.57h-14.98c-1.2,0-2.17.97-2.17,2.17v29.36c0,1.2.97,2.17,2.17,2.17h7.19v-2h-7.19c-.09,0-.17-.08-.17-.17v-29.36c0-.09.08-.17.17-.17h14.98s.08.02.17.09l1.96,1.57v4.96h-7.38c-1.35,0-2.45,1.1-2.45,2.45v36.25c0,1.35,1.1,2.45,2.45,2.45h26.94c1.35,0,2.44-1.1,2.44-2.45v-7.47h10.79c1.57,0,2.86-1.28,2.86-2.86v-31.64c0-.8-.34-1.56-.92-2.1ZM46.68,61.81c0,.25-.2.45-.44.45h-26.94c-.25,0-.45-.2-.45-.45V25.56c0-.25.2-.45.45-.45h7.38v26.37c0,1.58,1.28,2.86,2.86,2.86h17.15v7.47ZM59.83,51.48c0,.2-.16.36-.36.36h-29.93c-.2,0-.36-.16-.36-.36V11.2c0-.2.16-.36.36-.36h20.55c.09,0,.18.03.24.09l9.38,8.64c.07.07.12.16.12.26v31.64Z" fill="#272525"/>
  </g>
  <g id="Rectangles">
    <rect x="71.91" width="71.28" height="71.28" fill="none"/>
    <rect x=".16" y=".36" width="71.28" height="71.28" fill="none"/>
  </g>
</svg>