<?xml version="1.0" encoding="UTF-8"?>
<svg xmlns="http://www.w3.org/2000/svg" viewBox="0 0 72 72">
  <g id="SVG_icons" data-name="SVG icons">
    <path d="M61.43,17.76h-30.33c-.18,0-.35-.09-.46-.24l-2.34-3.24c-.58-.8-1.51-1.28-2.48-1.28h-15.24c-1.7,0-3.09,1.41-3.09,3.15v39.79c0,1.74,1.38,3.15,3.09,3.15h50.85c1.7,0,3.09-1.41,3.09-3.15V20.91c0-1.74-1.38-3.15-3.09-3.15ZM10.58,15.49h15.24c.17,0,.35.09.46.25l2.34,3.24c.58.8,1.51,1.28,2.48,1.28h30.33c.32,0,.59.29.59.65v4.32H9.99v-9.09c0-.36.26-.65.59-.65ZM61.43,56.59H10.58c-.32,0-.59-.29-.59-.65v-29.2h52.02v29.2c0,.36-.26.65-.59.65Z"/>
  </g>
  <g id="Rectangles">
    <rect x=".36" y=".36" width="71.28" height="71.28" fill="none"/>
  </g>
</svg>