<?xml version="1.0" encoding="UTF-8"?>
<svg xmlns="http://www.w3.org/2000/svg" viewBox="0 0 72 72">
    <path d="M30.21,65.34c-.17,0-.34-.03-.51-.09l-7.52-2.74c-.66-.24-1.07-.91-.97-1.61l.57-4.26-3.52-2.92-4.15,1.32c-.67.21-1.4-.07-1.75-.68l-4-6.93c-.35-.61-.23-1.38.28-1.85l3.17-2.91-.78-4.49-4.04-1.65c-.65-.27-1.03-.95-.91-1.65l1.39-7.88c.12-.69.71-1.21,1.41-1.24l4.36-.2,2.26-3.87-2.07-3.92c-.33-.62-.18-1.4.36-1.85l6.13-5.14c.54-.45,1.32-.47,1.88-.04l3.54,2.72,4.13-1.5.96-4.42c.15-.69.76-1.18,1.47-1.18h8c.71,0,1.32.49,1.47,1.18l.96,4.42,4.06,1.47,3.65-2.81c.56-.43,1.34-.41,1.88.04l6.13,5.14c.54.46.69,1.23.36,1.85l-2.14,4.01,2.2,3.71,4.61.2c.7.03,1.29.55,1.41,1.24l1.39,7.88c.12.7-.26,1.39-.92,1.65l-4.18,1.67-.7,4.31,3.37,3.09c.52.48.64,1.25.28,1.85l-4,6.93c-.35.61-1.09.9-1.77.68l-4.2-1.38-3.37,2.91.58,4.45c.09.7-.31,1.36-.97,1.6l-7.52,2.74c-.67.24-1.41-.01-1.78-.61l-2.31-3.68-4.53.05-2.36,3.71c-.28.44-.76.69-1.27.69ZM24.33,60.11l5.25,1.91,2.15-3.38c.27-.43.74-.69,1.25-.69l6.19-.06c.52-.02,1.01.26,1.29.7l2.11,3.36,5.25-1.91-.53-4.06c-.07-.5.13-1,.51-1.33l4.62-3.99c.4-.34.95-.45,1.45-.29l3.85,1.26,2.79-4.84-3.07-2.83c-.37-.34-.55-.85-.47-1.34l.96-5.94c.08-.52.43-.96.92-1.15l3.84-1.54-.97-5.5-4.22-.18c-.51-.02-.97-.3-1.23-.73l-3.04-5.14c-.27-.45-.28-1.01-.03-1.47l1.96-3.68-4.27-3.59-3.34,2.58c-.41.31-.95.4-1.43.22l-5.62-2.04c-.49-.18-.85-.59-.96-1.09l-.88-4.05h-5.58l-.88,4.05c-.11.5-.47.92-.95,1.09l-5.68,2.06c-.48.18-1.02.09-1.43-.22l-3.24-2.49-4.28,3.59,1.9,3.59c.24.46.23,1.01-.03,1.46l-3.09,5.3c-.26.44-.72.72-1.23.74l-3.98.18-.97,5.51,3.69,1.51c.48.2.82.62.91,1.13l1.06,6.12c.09.5-.09,1.01-.46,1.36l-2.88,2.65,2.8,4.84,3.78-1.21c.49-.15,1.02-.05,1.41.28l4.79,3.98c.4.33.6.84.53,1.35l-.52,3.89Z"/>
    <path d="M48.11,23.46l.53-.53c-7.06-7.06-18.56-7.07-25.63,0-7.07,7.07-7.07,18.56,0,25.63l.53-.53c3.28,3.28,7.64,5.09,12.28,5.09s9-1.81,12.28-5.09,5.09-7.64,5.09-12.28-1.81-9-5.09-12.28ZM47.41,47.32c-6.38,6.38-16.77,6.38-23.15,0l.53-.53c-6.09-6.09-6.09-16,0-22.09s16-6.09,22.09,0l.53-.53c6.38,6.38,6.38,16.77,0,23.15Z"/>
    <path d="M32.19,39.18l-2.24,6.77h-2.88l7.32-21.53h3.35l7.35,21.53h-2.97l-2.3-6.77h-7.64ZM39.25,37.01l-2.11-6.2c-.48-1.41-.8-2.68-1.12-3.93h-.06c-.32,1.28-.67,2.59-1.09,3.9l-2.11,6.23h6.49Z"/>
    <rect x=".36" y=".36" width="71.28" height="71.28" fill="none"/>
</svg>