<svg xmlns="http://www.w3.org/2000/svg" viewBox="0 0 72 72">
  <g id="SVG_icons" data-name="SVG icons">
    <path d="M62.43,18.61l-10.43-9.6c-.56-.52-1.29-.8-2.05-.8h-20.83c-1.67,0-3.04,1.36-3.04,3.04v1.8h-6.82c-1.35,0-2.45,1.1-2.45,2.45v2.86h-6.91c-1.13,0-2.05.92-2.05,2.05v31.43c0,1.13.92,2.06,2.05,2.06h6.91v2.86c0,1.35,1.1,2.45,2.45,2.45h6.82v1.8c0,1.67,1.36,3.04,3.04,3.04h31.26c1.67,0,3.03-1.36,3.03-3.04V20.84c0-.85-.36-1.66-.98-2.24ZM9.85,51.83l.05-31.48h6.91v31.53l-6.97-.05ZM19.27,57.19c-.25,0-.45-.2-.45-.45V15.49c0-.25.2-.45.45-.45h6.82v42.15h-6.82ZM60.91,61c0,.3-.24.54-.53.54h-31.26c-.29,0-.54-.24-.54-.54V11.24c0-.3.24-.54.54-.54h20.83c.13,0,.26.05.36.14l10.42,9.6c.11.1.17.25.17.4v40.16Z" fill="#272525"/>
  </g>
  <g id="Rectangles">
    <rect x=".14" y=".36" width="71.28" height="71.28" fill="none"/>
  </g>
</svg>