<?xml version="1.0" encoding="UTF-8"?>
<svg xmlns="http://www.w3.org/2000/svg" viewBox="0 0 72 72">
    <path d="M49.21,49.54h-26.2c-.27,0-.53-.11-.72-.3s-.29-.46-.28-.73c.04-1.14.16-4.9.23-5.39l.02-.11c.07-.52.22-1.59,1.59-2.37,1.46-.82,2.86-1.44,3.99-1.93,1.07-.47,1.99-.87,2.53-1.26.28-.45.7-2.26.65-2.83-.09-.36-1.04-1.63-1.35-2.05-.16-.22-.29-.39-.36-.49-.4-.59-.92-1.51-.92-2.6,0-.49.05-.73.11-.98.04-.16.07-.29.07-.74v-.19c0-1,0-1.79.6-4.26.29-1.18,1.23-2.49,2.23-3.13.71-.45,1.12-.45,1.66-.4.39.04,1.05.1,2.83-.3,1.84-.41,3.94.58,5.18,1.55,1.24.98,1.94,2.1,1.96,3.18.03,1.51.26,2.58.45,3.44.13.58.23,1.03.23,1.47,0,1.12-.56,2.39-.92,2.92l-.1.15c-1.33,1.96-1.49,2.52-1.51,2.64-.02.43.36,2.09.62,2.54.58.43,1.62.9,2.82,1.44,1.12.5,2.38,1.08,3.73,1.81,1.36.74,1.53,1.89,1.62,2.44.08.54.21,4.3.24,5.44,0,.27-.09.53-.28.73s-.45.3-.72.3ZM24.04,47.54h24.14c-.07-1.96-.14-3.85-.18-4.12-.07-.47-.12-.76-.6-1.03-1.29-.7-2.52-1.26-3.6-1.75-1.39-.63-2.49-1.12-3.24-1.7h0c-.99-.76-1.39-3.7-1.36-4.23.04-.71.56-1.73,1.85-3.64l.09-.14c.2-.31.59-1.2.59-1.82,0-.22-.08-.6-.18-1.04-.2-.9-.47-2.12-.5-3.83,0-.35-.38-1-1.2-1.64-1.14-.9-2.59-1.38-3.51-1.17-2.09.47-2.95.39-3.46.34-.08,0-.14-.02-.2-.01,0,0-.06.02-.2.11-.57.36-1.19,1.24-1.35,1.92-.55,2.23-.55,2.85-.55,3.77v.19c0,.64-.06.92-.12,1.21-.03.14-.05.23-.05.52,0,.54.31,1.08.59,1.49.06.08.16.23.3.4,1.09,1.45,1.69,2.37,1.75,3.08.07.79-.41,3.8-1.37,4.53-.72.55-1.73.99-3.01,1.55-1.15.5-2.44,1.07-3.81,1.84-.51.29-.54.52-.6.9l-.02.14c-.03.26-.11,2.15-.18,4.11ZM30.36,37.49h0ZM41.65,37.27s0,0,0,0c0,0,0,0,0,0Z"/>
    <path d="M30.1,65.34c-.17,0-.34-.03-.51-.09l-7.52-2.74c-.66-.24-1.07-.91-.97-1.61l.57-4.26-3.52-2.92-4.15,1.32c-.67.21-1.4-.07-1.75-.68l-4-6.93c-.35-.61-.23-1.38.28-1.85l3.17-2.91-.78-4.49-4.04-1.65c-.65-.27-1.03-.95-.91-1.65l1.39-7.88c.12-.69.71-1.21,1.41-1.24l4.36-.2,2.26-3.87-2.07-3.92c-.33-.62-.18-1.4.36-1.85l6.13-5.14c.54-.45,1.32-.47,1.88-.04l3.54,2.72,4.13-1.5.96-4.42c.15-.69.76-1.18,1.47-1.18h8c.71,0,1.32.49,1.47,1.18l.96,4.42,4.06,1.47,3.65-2.81c.56-.43,1.34-.41,1.88.04l6.13,5.14c.54.46.69,1.23.36,1.85l-2.14,4.01,2.2,3.71,4.61.2c.7.03,1.29.55,1.41,1.24l1.39,7.88c.12.7-.26,1.39-.92,1.65l-4.18,1.67-.7,4.31,3.37,3.09c.52.48.64,1.25.28,1.85l-4,6.93c-.35.61-1.09.9-1.77.68l-4.2-1.38-3.37,2.91.58,4.45c.09.7-.31,1.36-.97,1.6l-7.52,2.74c-.67.24-1.41-.01-1.78-.61l-2.31-3.68-4.53.05-2.36,3.71c-.28.44-.76.69-1.27.69ZM24.22,60.11l5.25,1.91,2.15-3.38c.27-.43.74-.69,1.25-.69l6.19-.06c.51-.02,1.01.26,1.29.7l2.11,3.36,5.25-1.91-.53-4.06c-.07-.5.13-1,.51-1.33l4.62-3.99c.4-.34.95-.45,1.45-.29l3.85,1.26,2.79-4.84-3.08-2.83c-.37-.34-.55-.85-.47-1.34l.96-5.94c.08-.52.43-.96.92-1.15l3.84-1.54-.97-5.5-4.22-.18c-.51-.02-.97-.3-1.23-.73l-3.04-5.14c-.27-.45-.28-1.01-.03-1.47l1.96-3.68-4.27-3.59-3.34,2.58c-.41.31-.94.4-1.43.22l-5.62-2.04c-.49-.18-.85-.59-.96-1.09l-.88-4.05h-5.58l-.88,4.05c-.11.5-.47.92-.95,1.09l-5.68,2.06c-.48.18-1.02.09-1.43-.22l-3.24-2.49-4.28,3.59,1.9,3.59c.24.46.23,1.01-.03,1.46l-3.09,5.3c-.26.44-.72.72-1.23.74l-3.98.18-.97,5.51,3.69,1.51c.48.2.82.62.91,1.13l1.06,6.12c.09.5-.09,1.01-.46,1.36l-2.88,2.65,2.8,4.84,3.78-1.21c.49-.15,1.02-.05,1.41.28l4.79,3.98c.4.33.6.84.53,1.35l-.52,3.89Z"/>
    <rect x=".36" y=".36" width="71.28" height="71.28" fill="none"/>
</svg>