<?xml version="1.0" encoding="UTF-8"?>
<svg id="Layer_1" data-name="Layer 1" xmlns="http://www.w3.org/2000/svg" width="72" height="72" viewBox="0 0 72 72">
  <path d="M30.1,65.3h-.5l-7.5-2.7c-.7-.2-1.1-.9-1-1.6l.6-4.3-3.5-2.9-4.1,1.3c-.7.2-1.4,0-1.8-.7l-4-6.9c-.3-.6-.2-1.4.3-1.8l3.2-2.9-.8-4.5-4-1.7c-.7-.3-1-1-.9-1.7l1.4-7.9c.1-.7.7-1.2,1.4-1.2l4.4-.2,2.3-3.9-2.1-3.9c-.3-.6-.2-1.4.4-1.9l6.1-5.1c.5-.4,1.3-.5,1.9,0l3.5,2.7,4.1-1.5,1-4.4c.1-.7.8-1.2,1.5-1.2h8c.7,0,1.3.5,1.5,1.2l1,4.4,4.1,1.5,3.7-2.8c.6-.4,1.3-.4,1.9,0l6.1,5.1c.5.5.7,1.2.4,1.9l-2.1,4,2.2,3.7,4.6.2c.7,0,1.3.5,1.4,1.2l1.4,7.9c.1.7-.3,1.4-.9,1.7l-4.2,1.7-.7,4.3,3.4,3.1c.5.5.6,1.2.3,1.8l-4,6.9c-.3.6-1.1.9-1.8.7l-4.2-1.4-3.4,2.9.6,4.5c0,.7-.3,1.4-1,1.6l-7.5,2.7c-.7.2-1.4,0-1.8-.6l-2.3-3.7h-4.5l-2.4,3.8c-.3.4-.8.7-1.3.7h0l-.4-.1ZM24.3,60.1l5.2,1.9,2.1-3.4c.3-.4.7-.7,1.2-.7h6.2c.5,0,1,.2,1.3.6l2.1,3.4,5.2-1.9-.5-4.1c0-.5.1-1,.5-1.3l4.6-4c.4-.3,1-.5,1.5-.3l3.8,1.3,2.8-4.8-3.1-2.8c-.4-.3-.5-.8-.5-1.3l1-5.9c0-.5.4-1,.9-1.2l3.8-1.5-1-5.5-4.2-.2c-.5,0-1-.3-1.2-.7l-3-5.1c-.3-.5-.3-1,0-1.5l2-3.7-4.3-3.6-3.3,2.6c-.4.3-.9.4-1.4.2l-5.6-2c-.5-.2-.8-.6-1-1.1l-.9-4.1h-5.6l-.9,4.1c-.1.5-.5.9-1,1.1l-5.7,2.1c-.5.2-1,0-1.4-.2l-3.2-2.5-4.3,3.6,1.9,3.6c.2.5.2,1,0,1.5l-3.1,5.3c-.3.4-.7.7-1.2.7l-4,.2-1,5.5,3.7,1.5c.5.2.8.6.9,1.1l1.1,6.1c0,.5,0,1-.5,1.4l-2.9,2.7,2.8,4.8,3.8-1.2c.5-.2,1,0,1.4.3l4.8,4c.4.3.6.8.5,1.3l-.5,3.9h0l.2-.2Z"/>
  <path d="M47.9,24.8h-23.5c-1.5,0-2.6,1.2-2.6,2.6v16.8c0,1.5,1.2,2.7,2.6,2.7h23.6c1.5,0,2.7-1.2,2.7-2.7v-16.8c0-1.5-1.3-2.5-2.8-2.6h0ZM24.3,26.8h23.6c.3,0,.7.3.7.6v.9l-12.5,10.7-12.5-10.5v-1c0-.4.3-.6.7-.7ZM47.9,44.8h-23.5c-.4,0-.6-.3-.6-.7v-13.2l11.8,10c.2.2.4.2.7.2s.5,0,.7-.2l11.8-10.1v13.3c0,.3-.3.7-.7.7h-.2Z"/>
</svg>