<?xml version="1.0" encoding="UTF-8"?>
<svg id="Layer_1" xmlns="http://www.w3.org/2000/svg" version="1.1" viewBox="0 0 72 72">
  <!-- Generator: Adobe Illustrator 29.0.1, SVG Export Plug-In . SVG Version: 2.1.0 Build 192)  -->
  <path d="M52.6,64.2H18.5c-6.3,0-11.5-5.2-11.5-11.5V18.5c0-6.3,5.2-11.5,11.5-11.5h34.2c6.3,0,11.5,5.2,11.5,11.5v34.2c0,6.3-5.2,11.5-11.5,11.5h0ZM18.5,10c-4.7,0-8.5,3.8-8.5,8.5v34.2c0,4.7,3.8,8.5,8.5,8.5h34.2c4.7,0,8.5-3.8,8.5-8.5V18.5c0-4.7-3.8-8.5-8.5-8.5H18.5Z"/>
  <path d="M51,26c-.3-3.4-8.1-5.5-15-5.5s-14.7,2.1-15,5.5v19.5c0,3.5,8,5.9,15,5.9s15-2.3,15-5.9v-19.5h0ZM49.1,40.8c0,2-5.3,4.1-13.1,4.1s-13.1-2.2-13.1-4.1v-2.3c2.5,2,7.8,3,13.1,3s10.6-1,13.1-3v2.3ZM49.1,36c0,2-5.3,4.1-13.1,4.1s-13.1-2.2-13.1-4.1v-2.4c2.5,2,7.8,3,13.1,3s10.6-1,13.1-3v2.4ZM49.1,31.3c0,2-5.3,4.1-13.1,4.1s-13.1-2.2-13.1-4.1v-2.4c2.5,2,7.8,2.9,13.1,2.9s10.6-1,13.1-3v2.6h0ZM36,22.3c7.8,0,13.1,2.3,13.1,4.2s-5.3,4-13.1,4-13.1-2-13.1-4,5.3-4.2,13.1-4.2h0ZM36,49.4c-7.8,0-13.1-2.4-13.1-4.4v-1.8c2.5,2,7.8,3,13.1,3s10.6-1,13.1-3v1.8c0,2-5.3,4.4-13.1,4.4Z"/>
</svg>