<?xml version="1.0" encoding="UTF-8"?>
<svg id="Layer_1" data-name="Layer 1" xmlns="http://www.w3.org/2000/svg" viewBox="0 0 72 72">
  <path d="M52.6,64.2H18.5c-6.3,0-11.5-5.2-11.5-11.5V18.5c0-6.3,5.2-11.5,11.5-11.5h34.2c6.3,0,11.5,5.2,11.5,11.5v34.2c0,6.3-5.2,11.5-11.5,11.5h-.1ZM18.5,10c-4.7,0-8.5,3.8-8.5,8.5v34.2c0,4.7,3.8,8.5,8.5,8.5h34.2c4.7,0,8.5-3.8,8.5-8.5V18.5c0-4.7-3.8-8.5-8.5-8.5H18.5Z"/>
  <path d="M40.97,50.67h-10.05c-.74,0-1.33-.6-1.33-1.33s.6-1.33,1.33-1.33h3.71v-2.48h-10.73c-.74,0-1.33-.6-1.33-1.33v-19.54c0-.74.6-1.33,1.33-1.33h24.18c.74,0,1.33.6,1.33,1.33v19.54c0,.74-.6,1.33-1.33,1.33h-10.79v2.48h3.67c.74,0,1.33.6,1.33,1.33s-.6,1.33-1.33,1.33ZM35.97,42.87h10.79v-16.88h-21.52v16.88h10.73Z"/>
</svg>