<?xml version="1.0" encoding="UTF-8"?>
<svg id="Layer_1" data-name="Layer 1" xmlns="http://www.w3.org/2000/svg" viewBox="0 0 72 72">
  <path d="M52.6,64.2H18.5c-6.3,0-11.5-5.2-11.5-11.5V18.5c0-6.3,5.2-11.5,11.5-11.5h34.2c6.3,0,11.5,5.2,11.5,11.5v34.2c0,6.3-5.2,11.5-11.5,11.5h-.1ZM18.5,10c-4.7,0-8.5,3.8-8.5,8.5v34.2c0,4.7,3.8,8.5,8.5,8.5h34.2c4.7,0,8.5-3.8,8.5-8.5V18.5c0-4.7-3.8-8.5-8.5-8.5H18.5Z"/>
  <g id="SVG_icons" data-name="SVG icons">
    <path d="M52.84,53.91v-1.5h-5.09v-4.5h5.09v-1.5h-5.09v-4.5h5.09v-1.5h-5.09v-4.5h5.09v-1.5h-5.09v-4.5h5.09v-1.5H19.24v1.5h9.23v4.5h-9.23v1.5h9.23v4.5h-9.23v1.5h9.23v4.5h-9.23v1.5h9.23v4.5h-9.23v1.5h33.6ZM38.86,29.89h7.39v4.5h-7.39v-4.5ZM38.86,35.89h7.39v4.5h-7.39v-4.5ZM38.86,41.89h7.39v4.5h-7.39v-4.5ZM38.86,47.9h7.39v4.5h-7.39v-4.5ZM37.36,52.4h-7.39v-4.5h7.39v4.5ZM37.36,46.4h-7.39v-4.5h7.39v4.5ZM37.36,40.39h-7.39v-4.5h7.39v4.5ZM37.36,29.89v4.5h-7.39v-4.5h7.39Z"/>
    <path d="M25.46,20.45l2.84-4.31h-1.91l-1.01,1.59c-.28.44-.52.86-.7,1.26-.07.15-.15.28-.23.43-.08-.14-.16-.28-.23-.43-.21-.4-.44-.82-.71-1.26l-.98-1.59h-1.94l2.81,4.25-2.99,4.48h1.91l1.19-1.86c.27-.43.5-.84.69-1.23.06-.14.14-.26.21-.39.07.13.15.26.22.39.2.39.44.8.71,1.23l1.17,1.86h1.93l-2.98-4.42Z"/>
  </g>
</svg>