<?xml version="1.0" encoding="UTF-8"?>
<svg id="Layer_1" data-name="Layer 1" xmlns="http://www.w3.org/2000/svg" viewBox="0 0 72 72">
  <path d="M52.6,64.2H18.5c-6.3,0-11.5-5.2-11.5-11.5V18.5c0-6.3,5.2-11.5,11.5-11.5h34.2c6.3,0,11.5,5.2,11.5,11.5v34.2c0,6.3-5.2,11.5-11.5,11.5h-.1ZM18.5,10c-4.7,0-8.5,3.8-8.5,8.5v34.2c0,4.7,3.8,8.5,8.5,8.5h34.2c4.7,0,8.5-3.8,8.5-8.5V18.5c0-4.7-3.8-8.5-8.5-8.5H18.5Z"/>
  <path d="M35.73,17.27c-10.26,0-18.58,8.32-18.58,18.58s8.32,18.58,18.58,18.58,18.58-8.32,18.58-18.58h0c-.01-10.26-8.32-18.57-18.58-18.58ZM52.3,34.68h-8.82c0-.88.06-1.88.09-2.07,0-.14.08-.28.22-.33.66-.34,1.35-.61,2.06-.81.53-.14,1.05-.36,1.52-.66.43-.33.66-1.63.61-1.97-.03-.23-.14-.44-.31-.6-.1-.1-.14-.14-.14-.28-.02-.22-.14-.41-.31-.54-.04-.03-.07-.06-.1-.09-.13-.17-.21-.38-.24-.6-.01-.07-.01-.14,0-.2.04-.17.06-.35.05-.53v-.08c0-.54.07-1.07.23-1.58.04-.14.1-.26.18-.38,2.92,2.84,4.69,6.65,4.98,10.71ZM52.34,35.85c0,1.36-.17,2.72-.5,4.04-.16-.25-.36-.47-.59-.66-.63-.52-1.45-.76-2.26-.66-.38.11-.78.15-1.18.12-.26-.04-.53.02-.74.18-.47.33-.82.81-.98,1.36-.18.59-.26,1.21-.26,1.82v.08c.01.1.01.2,0,.3-.03.14-.05.29-.05.43.01.41.15.82.39,1.15.08.11.17.21.27.29.04.29.18.56.39.76l.04.04c-.03.38-.12.75-.26,1.1-.38.19-.78.34-1.19.45-.77.22-1.52.52-2.24.89-.42.21-.69.63-.72,1.1,0,.19-.07,1.6-.09,2.41-1.23.54-2.53.93-3.85,1.15.04-.04.08-.09.11-.14.24-.33.38-.73.4-1.14,0-.15-.01-.29-.05-.43-.01-.1-.01-.2,0-.3v-.08c0-.62-.08-1.23-.26-1.82-.16-.55-.5-1.04-.97-1.36-.22-.16-.5-.23-.77-.18-.4.03-.8-.01-1.18-.12-.81-.1-1.63.13-2.26.66-.48.32-.79.83-.86,1.4.01.36-.02.72-.09,1.08,0,.09-.04.18-.06.33,0,.05-.02.09-.04.13-.08.17-.11.36-.1.54.02.45.16.89.4,1.28.03.05.06.09.08.14-1.32-.23-2.61-.61-3.84-1.15,0-.81-.07-2.21-.1-2.44-.04-.45-.31-.85-.71-1.06-.71-.37-1.46-.67-2.24-.89-.41-.11-.81-.27-1.19-.45-.14-.35-.23-.72-.26-1.1l.04-.04c.22-.2.37-.47.41-.77.1-.08.19-.18.27-.29.24-.33.38-.73.4-1.14,0-.15-.01-.29-.05-.43-.01-.1-.01-.2,0-.3v-.08c0-.62-.08-1.23-.26-1.82-.16-.55-.5-1.04-.98-1.36-.21-.15-.48-.22-.74-.18-.4.03-.8-.01-1.18-.12-.81-.1-1.63.13-2.26.66-.22.17-.42.38-.58.62-.33-1.32-.49-2.67-.49-4.02v-.18h9.61c.27,0,.49-.22.49-.49,0,0,0,0,0-.01,0-.72-.07-2.43-.1-2.68-.04-.45-.31-.85-.71-1.06-.71-.37-1.46-.67-2.24-.89-.41-.11-.81-.26-1.19-.45-.14-.35-.23-.72-.26-1.1l.04-.04c.21-.2.35-.46.4-.75.1-.08.19-.18.27-.29.24-.33.37-.73.39-1.14.02-.14.02-.29,0-.43-.01-.1-.01-.2,0-.3v-.08c0-.62-.08-1.23-.26-1.82-.1-.35-.28-.67-.52-.94,1.29-1.09,2.74-1.97,4.3-2.62,0,.08,0,.14-.03.21,0,.2-.08,1.91-.1,2.62,0,.27.21.5.48.51,0,0,0,0,.01,0h12.17c.27,0,.49-.22.49-.49,0,0,0,0,0-.01,0-.72-.07-2.43-.1-2.62v-.14c1.58.68,3.05,1.6,4.34,2.73-.2.23-.35.49-.45.78-.18.59-.26,1.2-.26,1.82v.08c.01.1.01.2,0,.3-.03.14-.05.29-.05.43.02.41.16.81.4,1.14.08.11.17.21.27.29.05.3.19.57.41.77l.04.04c-.03.38-.12.75-.26,1.1-.38.18-.78.33-1.19.45-.77.22-1.52.52-2.24.89-.42.21-.69.63-.72,1.1,0,.2-.08,1.91-.1,2.62,0,.27.21.5.48.51,0,0,0,0,.01,0h9.34c0,.08,0,.14,0,.2ZM38.72,19.5l.51.19c.64.22,1.27.49,1.87.79.18.1.19.2.22.38s.05,1.06.08,2.01h-11.23c0-.88.06-1.88.09-2.07,0-.14.08-.28.22-.33.66-.34,1.35-.61,2.06-.81.29-.09.54-.18.77-.26,1.79-.26,3.62-.23,5.4.1h0ZM24.28,23.81c.13.15.23.33.29.52.16.51.23,1.05.23,1.59v.08c0,.18.01.36.05.53.01.07.01.14,0,.2-.02.22-.1.42-.24.6-.03.04-.06.07-.1.1-.18.12-.29.32-.31.54,0,.14-.04.17-.14.28-.18.15-.29.37-.31.6,0,.35.18,1.65.61,1.97.47.29.98.51,1.52.66.71.21,1.4.48,2.06.81.19.1.2.17.23.39s.05,1.06.08,2.01h-9.07c.29-4.13,2.12-8,5.12-10.85v-.02ZM20.23,41.8c.06-.38.09-.76.09-1.15.07-.27.24-.5.48-.66.4-.34.91-.52,1.43-.49.48.14.99.19,1.49.14h.05l.07.04c.27.2.46.48.55.79.16.51.23,1.05.23,1.59v.08c0,.18.01.36.05.53,0,.07,0,.14,0,.2-.02.22-.1.42-.24.6-.03.03-.06.06-.1.09-.18.12-.29.32-.31.54.01.12-.05.24-.15.31-.18.15-.29.37-.31.6,0,.35.18,1.65.61,1.97.47.29.98.51,1.52.66.71.21,1.4.48,2.06.81.19.1.2.17.23.39s.05.91.07,1.77c-3.59-1.89-6.36-5.03-7.81-8.82ZM33.97,52.37v-.07c-.06-.28-.17-.56-.33-.8-.13-.22-.21-.48-.24-.73-.01-.05-.01-.1,0-.15.06-.12.1-.26.11-.39,0-.11,0-.19.05-.26.1-.4.15-.82.15-1.23.07-.27.24-.5.48-.66.4-.34.91-.52,1.43-.49.48.14.99.18,1.49.14h.05l.07.04c.26.19.45.46.54.77.16.51.23,1.05.23,1.59v.08c0,.18.01.36.05.53.01.07.01.14,0,.2-.02.22-.1.42-.24.6-.03.03-.06.06-.1.09-.18.12-.29.32-.31.54,0,.08-.02.15-.08.21-.52.05-1.06.08-1.6.08-.59,0-1.18-.03-1.76-.09ZM43.38,50.6c0-.81.06-1.67.08-1.84,0-.14.08-.28.22-.33.66-.34,1.35-.61,2.06-.81.53-.14,1.05-.36,1.52-.66.43-.33.66-1.63.61-1.97-.03-.23-.14-.44-.31-.6-.1-.1-.14-.14-.14-.28-.02-.22-.14-.41-.31-.54-.04-.03-.07-.06-.1-.1-.13-.17-.21-.38-.24-.6,0-.07,0-.14,0-.2.04-.17.06-.35.05-.53v-.08c0-.54.09-1.07.25-1.58.09-.31.29-.58.54-.77l.06-.04h.07c.5.04,1.01,0,1.49-.14.52-.03,1.04.14,1.43.49.24.15.41.39.48.66,0,.4.02.79.09,1.18-1.47,3.76-4.25,6.86-7.83,8.73Z"/>
  <path d="M43.29,40.07c-.05-.27-.13-.84-.81-1.22-.68-.37-1.31-.66-1.87-.9-.6-.27-1.12-.51-1.41-.72-.13-.23-.32-1.05-.31-1.27.01-.06.1-.34.75-1.32l.05-.07c.18-.27.46-.9.46-1.46,0-.22-.05-.44-.11-.73-.1-.43-.21-.97-.23-1.72-.01-.54-.36-1.1-.98-1.59s-1.67-.98-2.59-.77c-.89.2-1.22.17-1.41.15-.27-.03-.47-.03-.83.2-.5.32-.97.98-1.12,1.56-.3,1.23-.3,1.63-.3,2.13v.1c0,.23-.02.29-.04.37-.03.12-.06.24-.06.49,0,.55.27,1.01.46,1.3.04.05.1.13.18.24.15.21.63.84.68,1.03.03.28-.19,1.19-.33,1.41-.27.2-.73.39-1.26.63-.56.24-1.26.56-2,.97-.69.39-.76.92-.8,1.19v.06c-.05.24-.1,2.13-.12,2.69,0,.13.05.27.14.37s.23.15.36.15h13.11c.13,0,.27-.06.36-.15s.14-.23.14-.37c-.02-.57-.09-2.45-.12-2.72h.01s0,0,0,0ZM30.31,42.31h.01c.04-.99.07-1.94.1-2.06v-.06c.04-.19.06-.3.31-.45.69-.39,1.33-.67,1.9-.92.64-.28,1.15-.5,1.5-.77.48-.37.72-1.88.69-2.27-.03-.36-.33-.82-.88-1.55-.06-.09-.12-.16-.15-.2-.14-.21-.29-.47-.29-.74,0-.14.01-.19.03-.27.03-.14.06-.28.06-.6v-.1c0-.46,0-.77.27-1.88.09-.34.39-.78.68-.96.06-.05.1-.06.1-.06h.1c.26.03.69.06,1.73-.17.46-.1,1.19.13,1.76.58.41.32.6.65.6.82.02.86.15,1.47.26,1.92.05.22.1.41.1.52,0,.31-.2.75-.29.91l-.05.06c-.65.96-.9,1.47-.92,1.82-.02.27.19,1.73.68,2.12.38.29.92.54,1.62.84.54.24,1.16.53,1.8.88.24.13.27.28.3.52.02.13.06,1.08.1,2.06h-12.11,0Z"/>
</svg>