<?xml version="1.0" encoding="UTF-8"?>
<svg xmlns="http://www.w3.org/2000/svg" viewBox="0 0 72 72">
  <path d="M16.41,63.05c.25-.04.46-.17.6-.38s.29-.46.43-.74l5.44-11.44c.14-.25.26-.49.37-.71.11-.22.16-.4.16-.56,0-.2-.07-.33-.21-.41-.14-.08-.28-.14-.44-.18v-.53h4.97v.53c-.14.04-.27.09-.41.16s-.21.21-.21.43c0,.16.03.31.1.47s.17.36.31.62l6.12,11.97c.1.22.23.37.4.47.17.1.36.2.57.29v.53h-5.17v-.53c.08,0,.18-.03.29-.09.12-.06.18-.15.18-.26,0-.2-.08-.45-.24-.76l-1.12-2.18h-7.17l-1.06,2.09c-.2.41-.29.71-.29.88,0,.22.19.32.56.32v.53h-4.18v-.53ZM27.5,57.58l-2.47-5.47-2.76,5.47h5.23Z"/>
  <path d="M36.75,63.05c.51,0,.76-.18.76-.53v-13.35c0-.35-.25-.53-.76-.53v-.53h4.88v.53c-.51,0-.76.18-.76.53v13.35c0,.35.25.53.76.53v.53h-4.88v-.53Z"/>
  <path d="M54.27,9.2H18c-3.4,0-6.17,2.77-6.17,6.17v35.11c0,3.4,2.77,6.17,6.17,6.17h-.02s1.17-2.54,1.17-2.54h-1.15c-2,0-3.62-1.62-3.62-3.62v-9.47h4.51c.58,2.45,2.78,4.29,5.41,4.29,3.07,0,5.56-2.49,5.56-5.56s-2.49-5.56-5.56-5.56c-2.63,0-4.83,1.84-5.41,4.29h-4.51v-6.17h14.85c.34,0,.66-.14.9-.37l5.65-5.65c.88.58,1.92.91,3.04.91,3.07,0,5.56-2.49,5.56-5.56s-2.49-5.56-5.56-5.56-5.56,2.49-5.56,5.56c0,1.02.28,1.97.76,2.8l-5.32,5.32h-14.31v-14.38c0-2,1.62-3.62,3.62-3.62h14.52l-5.37,5.37c-.84-.51-1.83-.82-2.88-.82-3.07,0-5.56,2.49-5.56,5.56s2.49,5.56,5.56,5.56,5.56-2.49,5.56-5.56c0-1.09-.31-2.1-.86-2.96l7.15-7.15h18.15c2,0,3.62,1.62,3.62,3.62v12.35h-11.85c-.34,0-.66.14-.9.37l-3.32,3.32c-.87-.56-1.91-.89-3.01-.89-3.07,0-5.56,2.49-5.56,5.56s2.49,5.56,5.56,5.56,5.56-2.49,5.56-5.56c0-1.03-.29-2-.78-2.82l2.98-2.98h11.32v2.55h-8.69c-.71,0-1.28.57-1.28,1.28v6.11c-2.45.58-4.29,2.78-4.29,5.41,0,3.07,2.49,5.56,5.56,5.56s5.56-2.49,5.56-5.56c0-2.63-1.84-4.83-4.29-5.41v-4.83h7.42v15.1c0,1.98-1.59,3.59-3.56,3.62h0s-.36-.04-.36-.04h-10.59v2.56h10.39s.37.02.37.02h.13c3.4,0,6.17-2.77,6.17-6.17V15.38c0-3.4-2.77-6.17-6.17-6.17ZM24.29,36.73c1.66,0,3.01,1.35,3.01,3.01s-1.35,3.01-3.01,3.01-3.01-1.35-3.01-3.01,1.35-3.01,3.01-3.01ZM38.82,18.63c1.66,0,3.01,1.35,3.01,3.01s-1.35,3.01-3.01,3.01-3.01-1.35-3.01-3.01,1.35-3.01,3.01-3.01ZM24.27,24.88c-1.66,0-3.01-1.35-3.01-3.01s1.35-3.01,3.01-3.01,3.01,1.35,3.01,3.01-1.35,3.01-3.01,3.01ZM38.81,39.1c-1.66,0-3.01-1.35-3.01-3.01s1.35-3.01,3.01-3.01c.82,0,1.57.33,2.12.88.03.03.03.08.07.1.02.02.03.02.04.03.48.54.78,1.23.78,2.01,0,1.66-1.35,3.01-3.01,3.01ZM52.21,45.62c0,1.66-1.35,3.01-3.01,3.01s-3.01-1.35-3.01-3.01,1.35-3.01,3.01-3.01,3.01,1.35,3.01,3.01Z"/>
</svg>