<?xml version="1.0" encoding="UTF-8"?>
<svg id="Layer_1" data-name="Layer 1" xmlns="http://www.w3.org/2000/svg" viewBox="0 0 72 72">
  <path d="M52.6,64.2H18.5c-6.3,0-11.5-5.2-11.5-11.5V18.5c0-6.3,5.2-11.5,11.5-11.5h34.2c6.3,0,11.5,5.2,11.5,11.5v34.2c0,6.3-5.2,11.5-11.5,11.5h-.1ZM18.5,10c-4.7,0-8.5,3.8-8.5,8.5v34.2c0,4.7,3.8,8.5,8.5,8.5h34.2c4.7,0,8.5-3.8,8.5-8.5V18.5c0-4.7-3.8-8.5-8.5-8.5H18.5Z"/>
  <path d="M51.37,19.75h-8.77c-.33,0-.59.26-.59.59v3.02h-3.02v-3.02c0-.33-.26-.59-.59-.59h-8.77c-.33,0-.59.26-.59.59v3.02h-7.2c-.33,0-.59.26-.59.59v8.8h-3.76c-.33,0-.59.26-.59.59v7.09c0,.33.26.59.59.59h3.79v1.23h-1.69v.97h4.55v-.97h-1.67v-1.23h3.8c.33,0,.59-.26.59-.59v-2.76h4.09v9.97c0,.49.4.89.89.89h7.87v1.95h-3.66v1.77h9.08v-1.77h-3.64v-1.95h7.91c.49,0,.89-.4.89-.89v-14.17c0-.49-.4-.89-.89-.89h-17.54c-.49,0-.89.4-.89.89v3.02h-4.1v-3.15c0-.33-.26-.59-.59-.59h-3.83v-8.21h6.61v2.89c0,.33.26.59.59.59h3.78v1.25h-1.69v.97h4.53v-.97h-1.66v-1.25h3.81c.33,0,.59-.26.59-.59v-2.88h3.02v2.89c0,.33.26.59.59.59h3.78v1.25h-1.69v.97h4.56v-.97h-1.68v-1.25h3.81c.33,0,.59-.26.59-.59v-7.09c0-.33-.26-.59-.59-.59ZM32.71,34.36h15.77v12.4h-15.77v-12.4ZM25.67,39.84h-7.59v-5.9h7.59v5.9ZM37.81,26.85h-7.59v-5.9h7.59v5.9ZM50.8,26.85h-7.61v-5.9h7.59l.02,5.9Z"/>
</svg>