<?xml version="1.0" encoding="UTF-8"?>
<svg id="Layer_1" data-name="Layer 1" xmlns="http://www.w3.org/2000/svg" width="72" height="72" viewBox="0 0 72 72">
  <path d="M52.6,64.2H18.5c-6.3,0-11.5-5.2-11.5-11.5V18.5c0-6.3,5.2-11.5,11.5-11.5h34.2c6.3,0,11.5,5.2,11.5,11.5v34.2c0,6.3-5.2,11.5-11.5,11.5h-.1ZM18.5,10c-4.7,0-8.5,3.8-8.5,8.5v34.2c0,4.7,3.8,8.5,8.5,8.5h34.2c4.7,0,8.5-3.8,8.5-8.5V18.5c0-4.7-3.8-8.5-8.5-8.5H18.5Z"/>
  <path d="M36,17.35c-10.29,0-18.65,8.37-18.65,18.65s8.37,18.65,18.65,18.65,18.65-8.37,18.65-18.65-8.37-18.65-18.65-18.65ZM52.65,34.92h-7.65c.03-.89.07-1.92.08-2.05v-.07c.03-.18.04-.26.26-.39.62-.35,1.22-.62,1.75-.84.59-.26,1.06-.46,1.38-.72.45-.34.67-1.74.64-2.11-.03-.33-.3-.75-.81-1.43-.06-.08-.11-.14-.14-.18-.08-.12-.26-.39-.26-.67,0-.13,0-.16.03-.23.03-.13.06-.27.06-.56v-.09c0-.31,0-.55.1-1.06,2.61,2.75,4.29,6.38,4.55,10.39h0ZM52.68,36c0,1.4-.18,2.76-.5,4.06-.58-.36-1.36-.64-2.07-.49-.81.18-1.11.15-1.29.14-.25-.03-.45-.03-.78.19-.47.3-.91.91-1.04,1.46-.28,1.14-.28,1.5-.28,1.96v.09c0,.2-.01.26-.03.33-.03.12-.05.23-.05.46,0,.51.24.94.43,1.21.03.05.09.12.16.22.14.19.57.76.62.93.02.26-.18,1.12-.26,1.25-.24.18-.68.37-1.18.6-.52.23-1.17.51-1.84.89-.65.37-.72.87-.75,1.16,0,.03-.01.08-.03.3-1.33.7-2.76,1.23-4.27,1.56,0-.26-.05-.39-.1-.51-.02-.05-.03-.07-.05-.15-.02-.15-.05-.26-.07-.35-.05-.2-.08-.37-.09-1.17,0-.5-.33-1.03-.91-1.48s-1.55-.91-2.41-.72c-.81.18-1.11.16-1.29.14-.25-.03-.45-.03-.78.19-.47.3-.9.91-1.04,1.46-.28,1.14-.28,1.5-.28,1.96v.09c0,.2-.01.26-.03.33-.01.07-.03.14-.04.22-1.31-.29-2.56-.72-3.73-1.3-.04-1.09-.05-1.2-.07-1.27-.03-.24-.12-.79-.76-1.14-.62-.34-1.21-.6-1.72-.83-.54-.24-1.01-.46-1.28-.66-.12-.21-.29-.95-.28-1.14.01-.06.09-.31.69-1.2l.05-.07c.16-.25.43-.84.43-1.36,0-.3-.05-.44-.11-.58-.02-.05-.03-.07-.05-.15-.02-.15-.05-.26-.07-.35-.05-.2-.08-.37-.09-1.17,0-.5-.33-1.03-.91-1.48s-1.55-.91-2.41-.72c-.81.18-1.11.15-1.29.14-.25-.03-.45-.03-.78.19-.13.09-.26.19-.37.31-.24-1.14-.37-2.32-.37-3.52,0-.16,0-.32.01-.49h9.25c.13,0,.26-.05.35-.15s.14-.22.14-.35c-.02-.73-.07-2.46-.11-2.7-.03-.24-.12-.79-.76-1.14-.62-.34-1.21-.6-1.72-.83-.54-.24-1.01-.46-1.28-.65-.12-.21-.29-.95-.28-1.14.01-.06.09-.31.69-1.2l.05-.07c.16-.25.43-.84.43-1.36,0-.3-.05-.44-.11-.58-.02-.05-.03-.07-.05-.15-.02-.15-.05-.26-.07-.35-.05-.2-.08-.37-.09-1.17,0-.22-.07-.45-.2-.68,1.21-.97,2.56-1.78,4.02-2.39-.03.31-.09,1.93-.1,2.64,0,.13.05.26.14.35s.22.15.35.15h12.03c.13,0,.26-.05.35-.15s.14-.22.14-.35c-.02-.7-.07-2.26-.1-2.64,1.8.75,3.45,1.81,4.87,3.12-.26,1.07-.26,1.43-.26,1.88v.09c0,.2-.01.26-.03.33-.03.12-.05.23-.05.46,0,.57.31,1.04.43,1.21.03.05.09.12.16.23.14.19.57.76.62.93.02.26-.18,1.12-.26,1.25-.24.18-.68.37-1.18.6-.52.23-1.17.51-1.84.89-.65.37-.72.87-.75,1.16-.03.22-.09,1.95-.11,2.68,0,.13.05.26.14.35s.22.15.35.15h8.19v.1h.01ZM27.69,50.46c-1.23-.71-2.36-1.56-3.36-2.55.35.24.82.47,1.42.73.5.22,1.06.48,1.65.8.21.11.23.24.26.45,0,.02.01.12.03.56h0ZM40.61,19.96c.18.09.37.18.56.28.21.11.23.24.26.45.02.14.05,1.16.09,2.05h-11.01c.03-.89.07-1.92.08-2.05v-.07c.03-.18.04-.26.26-.39.18-.1.35-.18.53-.28,1.47-.43,3.02-.66,4.63-.66s3.14.23,4.61.65h0ZM24.79,23.65v.02c.02.9.07,1.11.12,1.36.02.08.03.16.05.28.03.2.07.31.12.41.02.04.03.06.03.18,0,.28-.17.68-.26.81l-.05.07c-.6.89-.84,1.36-.85,1.69,0,.18.14,1.59.64,1.97.35.27.85.5,1.5.79.5.22,1.06.48,1.65.8.21.11.23.24.26.45.02.14.05,1.16.09,2.06h-8.69c.38-4.3,2.39-8.14,5.41-10.88h0ZM20.02,40.8c.1-.29.34-.62.57-.77.05-.03.08-.05.08-.05.03-.01.05,0,.09,0,.24.02.63.06,1.59-.16.41-.09,1.08.13,1.59.53.37.29.53.57.54.73.02.9.07,1.12.12,1.36.02.08.03.16.05.28.03.2.07.31.12.41.02.05.03.06.03.18,0,.28-.17.68-.26.81l-.05.07c-.6.89-.84,1.36-.85,1.69,0,.16.1,1.23.45,1.76-1.86-1.9-3.27-4.24-4.06-6.86h0ZM33.41,52.48c0-.08,0-.13.02-.18.03-.13.06-.27.06-.56v-.09c0-.43,0-.7.25-1.73.07-.3.35-.7.61-.86.05-.03.08-.05.08-.05h.09c.24.03.63.06,1.59-.16.41-.09,1.08.13,1.59.53.37.29.53.57.54.73.02.9.07,1.12.12,1.36.02.08.03.16.05.28.03.2.07.31.12.41.02.05.03.06.03.18,0,.04,0,.09-.01.12-.83.12-1.67.19-2.53.19s-1.75-.07-2.59-.2h-.01ZM48.83,46.65v-.18c-.03-.33-.3-.75-.81-1.44-.06-.08-.11-.14-.13-.18-.08-.12-.26-.39-.26-.67,0-.13,0-.16.03-.23.03-.13.06-.27.06-.56v-.09c0-.43,0-.7.25-1.73.07-.3.35-.7.61-.86.05-.03.08-.05.08-.05.03-.02.05,0,.09,0,.24.02.63.06,1.59-.16.41-.09,1.07.13,1.57.52-.66,2.07-1.71,3.96-3.06,5.6h-.01Z"/>
  <path d="M43.15,38.78c-.77-.42-1.49-.74-2.12-1.03-.66-.3-1.24-.56-1.56-.79-.14-.26-.34-1.15-.33-1.36.01-.07.11-.38.84-1.46l.06-.09c.21-.31.54-1.05.54-1.71,0-.38-.07-.56-.14-.73-.03-.05-.03-.08-.05-.18-.03-.19-.05-.31-.08-.44-.05-.24-.1-.45-.12-1.44-.01-.64-.42-1.3-1.14-1.87-.72-.56-1.94-1.14-3.01-.9-1,.22-1.36.19-1.57.17-.31-.03-.57-.03-1,.24-.58.37-1.14,1.14-1.3,1.82-.35,1.41-.35,1.86-.35,2.43v.1c0,.24-.01.31-.04.4-.03.15-.07.3-.07.58,0,.64.31,1.18.54,1.52.04.06.11.16.2.28.17.23.7.93.75,1.12.03.3-.2,1.27-.35,1.54-.3.21-.81.43-1.4.7-.64.28-1.44.63-2.27,1.1-.82.47-.91,1.1-.96,1.47-.04.28-.11,2.41-.14,3.31,0,.18.06.35.18.48.12.12.3.2.47.2h14.85c.18,0,.35-.07.47-.2.12-.12.19-.3.18-.48-.03-.91-.09-3.04-.14-3.35-.05-.3-.15-1-.96-1.44h0ZM29.43,42.92c.04-1.19.08-2.32.1-2.48v-.09c.04-.21.05-.3.31-.45.77-.43,1.5-.75,2.15-1.04.73-.32,1.31-.57,1.72-.89.58-.44.85-2.17.81-2.65-.03-.43-.37-.94-1.01-1.8-.07-.1-.13-.18-.16-.22-.1-.14-.31-.48-.31-.79,0-.15.01-.2.03-.27.04-.16.07-.33.07-.71v-.1c0-.52,0-.86.31-2.12.09-.36.43-.84.73-1.03.05-.03.08-.05.08-.05.03,0,.05,0,.09,0,.3.03.79.07,1.99-.19.49-.11,1.3.16,1.92.65.44.34.64.69.64.86.02,1.04.07,1.33.14,1.69.02.1.05.2.07.35.04.26.09.4.16.56,0,0,0,.03,0,.16,0,.33-.21.81-.31.98l-.05.08c-.74,1.1-1.04,1.69-1.06,2.11-.01.23.18,1.99.81,2.47.44.33,1.06.62,1.86.98.61.28,1.31.59,2.03.98.24.13.26.26.3.51.02.18.07,1.4.1,2.49h-13.5,0Z"/>
</svg>