<?xml version="1.0" encoding="UTF-8"?>
<svg id="Layer_1" data-name="Layer 1" xmlns="http://www.w3.org/2000/svg" viewBox="0 0 72 72">
  <path d="M52.6,64.2H18.5c-6.3,0-11.5-5.2-11.5-11.5V18.5c0-6.3,5.2-11.5,11.5-11.5h34.2c6.3,0,11.5,5.2,11.5,11.5v34.2c0,6.3-5.2,11.5-11.5,11.5h-.1ZM18.5,10c-4.7,0-8.5,3.8-8.5,8.5v34.2c0,4.7,3.8,8.5,8.5,8.5h34.2c4.7,0,8.5-3.8,8.5-8.5V18.5c0-4.7-3.8-8.5-8.5-8.5H18.5Z"/>
  <path d="M51.19,49.9v-24.7c0-.5-.4-.9-.9-.9h-3.02v-3.95c0-.5-.4-.9-.9-.9h-13.88c-.5,0-.9.4-.9.9v12.73h-2.07v-6.82c0-.5-.4-.9-.9-.9h-8.1c-.5,0-.9.4-.9.9v23.65h-1.94v.79h36.94v-.79h-3.42ZM49.37,26.1l.02,23.8h-5.33v-23.8h5.31ZM45.47,21.25v3.05h-2.29c-.5,0-.9.4-.9.9v24.7h-8.86v-28.65h12.05ZM31.59,34.87v15.03h-4.46v-15.03h4.46ZM21.43,27.15h6.29v5.92h-1.48c-.5,0-.9.4-.9.9v15.93h-3.91v-22.75Z"/>
</svg>