<?xml version="1.0" encoding="UTF-8"?>
<svg id="Layer_1" data-name="Layer 1" xmlns="http://www.w3.org/2000/svg" viewBox="0 0 72 72">
  <path d="M52.6,64.2H18.5c-6.3,0-11.5-5.2-11.5-11.5V18.5c0-6.3,5.2-11.5,11.5-11.5h34.2c6.3,0,11.5,5.2,11.5,11.5v34.2c0,6.3-5.2,11.5-11.5,11.5h-.1ZM18.5,10c-4.7,0-8.5,3.8-8.5,8.5v34.2c0,4.7,3.8,8.5,8.5,8.5h34.2c4.7,0,8.5-3.8,8.5-8.5V18.5c0-4.7-3.8-8.5-8.5-8.5H18.5Z"/>
  <g>
    <path d="M44.03,53.46h-5.65v-1.77h5.65c.38,0,.69-.3.7-.68v-30.03c0-.38-.32-.68-.7-.68h-17.95c-.38,0-.7.31-.7.7h0v30.01c0,.38.31.7.69.7,0,0,0,0,0,0h5.43v1.77h-5.43c-1.36,0-2.47-1.11-2.47-2.47v-30.03c.01-1.35,1.11-2.45,2.47-2.45h17.95c1.36,0,2.47,1.11,2.47,2.47h0v30.01c0,1.36-1.11,2.45-2.47,2.46Z"/>
    <path d="M38.07,25.21h-6.01c-.33,0-.59-.26-.59-.59s.26-.59.59-.59h6.01c.33,0,.59.26.59.59s-.26.59-.59.59Z"/>
    <path d="M38.07,29.39h-6.01c-.33,0-.59-.26-.59-.59s.26-.59.59-.59h6.01c.33,0,.59.26.59.59s-.26.59-.59.59Z"/>
  </g>
</svg>