<?xml version="1.0" encoding="UTF-8"?>
<svg xmlns="http://www.w3.org/2000/svg" viewBox="0 0 72 72">
  <path d="M64.75,28.16l-4.61-4.31c.38-.64.61-1.39.61-2.19,0-2.39-1.94-4.33-4.33-4.33s-4.33,1.94-4.33,4.33,1.94,4.33,4.33,4.33c.86,0,1.67-.26,2.34-.7l4.31,4.02v16.91h-6.56c-.04-.98-.09-1.74-.12-1.98-.02-.15-.05-.33-.1-.53h3.86c.55,0,1-.45,1-1v-11.21c0-.55-.45-1-1-1h-4.1c-.45-1.91-2.16-3.33-4.21-3.33-2.39,0-4.33,1.94-4.33,4.33s1.94,4.33,4.33,4.33c2.04,0,3.75-1.43,4.21-3.33h3.1v9.21h-3.86c-.3-.33-.68-.64-1.19-.91-1.92-1.04-3.72-1.86-5.3-2.57-1.7-.77-3.17-1.43-4-2.05-.37-.64-.91-3-.88-3.62.03-.18.26-.97,2.15-3.76l.15-.22c.5-.76,1.3-2.55,1.3-4.14,0-.91-.15-1.33-.33-1.73-.07-.15-.1-.23-.14-.5-.07-.47-.13-.78-.2-1.08-.12-.56-.23-1.07-.28-3.01l3.01-3.01c.69.46,1.51.73,2.39.73,2.39,0,4.33-1.94,4.33-4.33s-1.94-4.33-4.33-4.33-4.33,1.94-4.33,4.33c0,.78.22,1.5.59,2.14l-2.11,2.11c-.45-.95-1.24-1.89-2.34-2.75-1.76-1.38-4.73-2.79-7.34-2.2-2.54.57-3.47.48-4.03.42-.76-.07-1.33-.07-2.34.56-1.27.8-2.46,2.37-2.99,3.89l-7.06-.07c-.32,0-.53.1-.72.29l-4.91,4.91c-.51-.21-1.07-.33-1.66-.33-2.39,0-4.33,1.94-4.33,4.33s1.94,4.33,4.33,4.33,4.33-1.94,4.33-4.33c0-1.07-.4-2.04-1.05-2.8l4.4-4.4,6.16.07c-.23,1.08-.36,1.88-.43,2.53l-5.25-.05h0c-.55,0-.99.44-1,.99l-.1,7.33c-1.98.4-3.48,2.15-3.48,4.25,0,2.39,1.94,4.33,4.33,4.33s4.33-1.94,4.33-4.33c0-1.99-1.36-3.66-3.19-4.16l.09-6.39,4.18.04s0,.03,0,.05v.26c0,.64-.05.83-.1,1.06-.08.35-.16.7-.16,1.39,0,1.72.95,3.15,1.31,3.68.1.14.28.39.51.69.45.59,1.8,2.4,1.93,2.92.07.81-.54,3.39-.93,4.03-.76.55-2.08,1.13-3.6,1.79-1.6.7-3.6,1.57-5.67,2.74-1.95,1.1-2.16,2.62-2.25,3.35l-.02.15c-.04.25-.08,1.14-.13,2.27l-4.64-.09.04-3.42c1.9-.46,3.32-2.16,3.32-4.2,0-2.39-1.94-4.33-4.33-4.33s-4.33,1.94-4.33,4.33c0,2.05,1.43,3.76,3.35,4.21l-.05,4.38c0,.55.43,1,.98,1.01l5.6.1c-.06,1.6-.1,3.21-.13,4.01-.01.38.13.74.4,1.02.26.27.63.42,1,.42h13.13l-2.23,2.23c-.67-.42-1.46-.68-2.31-.68-2.39,0-4.33,1.94-4.33,4.33s1.94,4.33,4.33,4.33,4.33-1.94,4.33-4.33c0-.82-.24-1.57-.63-2.22l3.66-3.66h12.38l-.07,4.81-3.01-.03c-.49-1.85-2.17-3.23-4.17-3.23-2.39,0-4.33,1.94-4.33,4.33s1.94,4.33,4.33,4.33c2.08,0,3.82-1.48,4.24-3.44l3.91.04h.01c.54,0,.99-.44,1-.98l.09-5.84h6.85c.38,0,.74-.15,1-.42s.41-.64.4-1.02c-.02-.85-.08-2.65-.14-4.36h7.48c.55,0,1-.45,1-1v-18.34c0-.28-.11-.54-.32-.73ZM54.08,21.67c0-1.29,1.05-2.33,2.33-2.33s2.33,1.05,2.33,2.33-1.05,2.33-2.33,2.33-2.33-1.05-2.33-2.33ZM51.84,33.84c-1.29,0-2.33-1.05-2.33-2.33s1.05-2.33,2.33-2.33,2.33,1.05,2.33,2.33-1.05,2.33-2.33,2.33ZM12.74,27.14c-1.29,0-2.33-1.05-2.33-2.33s1.05-2.33,2.33-2.33,2.33,1.05,2.33,2.33-1.05,2.33-2.33,2.33ZM22.99,32.72c0,1.29-1.05,2.33-2.33,2.33s-2.33-1.05-2.33-2.33,1.05-2.33,2.33-2.33,2.33,1.05,2.33,2.33ZM9,38.88c0-1.29,1.05-2.33,2.33-2.33s2.33,1.05,2.33,2.33-1.05,2.33-2.33,2.33-2.33-1.05-2.33-2.33ZM26.74,62.25c-1.29,0-2.33-1.05-2.33-2.33s1.05-2.33,2.33-2.33,2.33,1.05,2.33,2.33-1.05,2.33-2.33,2.33ZM39.23,62.25c-1.29,0-2.33-1.05-2.33-2.33s1.05-2.33,2.33-2.33,2.33,1.05,2.33,2.33-1.05,2.33-2.33,2.33ZM51.97,9.16c1.29,0,2.33,1.05,2.33,2.33s-1.05,2.33-2.33,2.33-2.33-1.05-2.33-2.33,1.05-2.33,2.33-2.33ZM19.59,51.23c.09-3.06.21-6.08.26-6.49l.03-.2c.07-.54.12-.87.86-1.29,1.94-1.1,3.78-1.9,5.41-2.61,1.81-.79,3.24-1.42,4.26-2.2,1.36-1.04,2.03-5.3,1.94-6.42-.08-1-.94-2.31-2.48-4.37-.19-.25-.34-.45-.42-.57-.25-.38-.84-1.25-.84-2.13,0-.41.03-.53.08-.74.1-.4.18-.81.18-1.71v-.27c0-1.32,0-2.19.77-5.36.24-.97,1.12-2.22,1.93-2.73.21-.13.29-.16.29-.16.09,0,.17,0,.29.02.72.07,1.93.18,4.9-.48,1.32-.29,3.38.39,5,1.67,1.24.98,1.7,1.87,1.7,2.34.05,2.76.19,3.42.36,4.18.05.24.11.5.16.88.09.61.22.95.36,1.25.06.15.09.2.09.59,0,.88-.54,2.15-.83,2.59l-.14.2c-1.83,2.71-2.57,4.16-2.62,5.15-.04.75.52,4.91,1.92,5.98h0c1.07.82,2.63,1.52,4.6,2.42,1.54.7,3.28,1.49,5.12,2.48.7.38.77.83.86,1.47.05.42.17,3.43.26,6.5H19.59Z"/>
  <rect x=".36" y=".36" width="71.28" height="71.28" fill="none"/>
</svg>