<?xml version="1.0" encoding="UTF-8"?>
<svg xmlns="http://www.w3.org/2000/svg" viewBox="0 0 72 72">
  <path d="M59.79,14.49l-23.38-7.13c-.29-.09-.59-.09-.88,0l-23.38,7.13c-.68.21-1.12.87-1.06,1.58l2.04,21.52c.54,4.46,1.07,7.53,1.72,9.95,1.18,4.38,7.59,9.68,19.61,16.21.34.19.6.33.77.42.23.13.48.2.74.2s.51-.06.74-.2c.16-.09.42-.23.76-.42,12.02-6.53,18.43-11.83,19.61-16.21.65-2.42,1.18-5.49,1.73-9.99l2.04-21.48c.07-.71-.37-1.37-1.06-1.58ZM33.69,49.78c0-1.33,1.08-2.41,2.41-2.41s2.41,1.08,2.41,2.41-1.08,2.41-2.41,2.41-2.41-1.08-2.41-2.41ZM54.19,46.76c-.63,2.34-4.13,6.61-17.07,13.76v-6.43c1.96-.46,3.43-2.22,3.43-4.33,0-2.46-1.99-4.45-4.45-4.45s-4.45,1.99-4.45,4.45c0,2.1,1.47,3.86,3.43,4.33v6.57c-13.15-7.24-16.7-11.56-17.33-13.91-.24-.9-.47-1.9-.68-3.04h5.46c.46,1.96,2.22,3.43,4.33,3.43,2.46,0,4.45-1.99,4.45-4.45s-1.99-4.45-4.45-4.45c-2.1,0-3.86,1.47-4.33,3.43h-5.81c-.2-1.3-.4-2.76-.61-4.42l-.47-4.96h15.16c.27,0,.53-.11.72-.3l5.87-5.87c.7.46,1.54.73,2.43.73,2.46,0,4.45-1.99,4.45-4.45s-1.99-4.45-4.45-4.45-4.45,1.99-4.45,4.45c0,.82.22,1.58.61,2.24l-5.61,5.61h-14.93l-1.26-13.27,21.78-6.64.18.05-5.76,5.76c-.67-.41-1.46-.66-2.3-.66-2.46,0-4.45,1.99-4.45,4.45s1.99,4.45,4.45,4.45,4.45-1.99,4.45-4.45c0-.87-.25-1.68-.69-2.37l6.51-6.51,19.39,5.91-1.1,11.64h-12.38c-.27,0-.53.11-.72.3l-4.29,4.29c-.7-.45-1.53-.71-2.41-.71-2.46,0-4.45,1.99-4.45,4.45s1.99,4.45,4.45,4.45,4.45-1.99,4.45-4.45c0-.82-.23-1.6-.62-2.26l4.02-4.02h11.76l-.29,3.04h-10.05c-.57,0-1.02.46-1.02,1.02v4.89c-1.96.46-3.43,2.22-3.43,4.33,0,2.46,1.99,4.45,4.45,4.45s4.45-1.99,4.45-4.45c0-2.1-1.47-3.86-3.43-4.33v-3.86h8.84l-.14,1.45c-.52,4.31-1.03,7.25-1.64,9.53ZM24.45,42.69c0-1.33,1.08-2.41,2.41-2.41s2.41,1.08,2.41,2.41-1.08,2.41-2.41,2.41-2.41-1.08-2.41-2.41ZM37.42,22.42c0-1.33,1.08-2.41,2.41-2.41s2.41,1.08,2.41,2.41-1.08,2.41-2.41,2.41-2.41-1.08-2.41-2.41ZM30.49,19.97c0,1.33-1.08,2.41-2.41,2.41s-2.41-1.08-2.41-2.41,1.08-2.41,2.41-2.41,2.41,1.08,2.41,2.41ZM34.43,36.96c0-1.33,1.08-2.41,2.41-2.41.66,0,1.26.26,1.7.7.02.02.02.06.06.08.02.02.02.02.03.02.38.43.62.98.62,1.61,0,1.33-1.08,2.41-2.41,2.41h0c-1.33,0-2.41-1.09-2.41-2.42ZM48.51,43.96c0,1.33-1.08,2.41-2.41,2.41s-2.41-1.08-2.41-2.41,1.08-2.41,2.41-2.41,2.41,1.08,2.41,2.41Z"/>
  <rect x=".36" y=".36" width="71.28" height="71.28" fill="none"/>
</svg>