<?xml version="1.0" encoding="UTF-8"?>
<svg id="Layer_1" xmlns="http://www.w3.org/2000/svg" version="1.1" viewBox="0 0 72 72">
  <!-- Generator: Adobe Illustrator 29.0.1, SVG Export Plug-In . SVG Version: 2.1.0 Build 192)  -->
  <path d="M52.6,64.2H18.5c-6.3,0-11.5-5.2-11.5-11.5V18.5c0-6.3,5.2-11.5,11.5-11.5h34.2c6.3,0,11.5,5.2,11.5,11.5v34.2c0,6.3-5.2,11.5-11.5,11.5h-.1ZM18.5,10c-4.7,0-8.5,3.8-8.5,8.5v34.2c0,4.7,3.8,8.5,8.5,8.5h34.2c4.7,0,8.5-3.8,8.5-8.5V18.5c0-4.7-3.8-8.5-8.5-8.5H18.5Z"/>
  <path d="M15.3,46.9c.4,0,.7-.3.9-.6s.4-.7.7-1.2l8.4-17.8c.2-.4.4-.8.6-1.1s.2-.6.2-.9-.1-.5-.3-.6c-.2-.1-.4-.2-.7-.3v-.8h7.7v.8c-.2,0-.4.1-.6.2s-.3.3-.3.7,0,.5.2.7.3.6.5,1l9.5,18.6c.2.3.4.6.6.7s.6.3.9.5v.8h-8v-.8c.1,0,.3,0,.5-.1.2,0,.3-.2.3-.4,0-.3-.1-.7-.4-1.2l-1.7-3.4h-11.1l-1.6,3.2c-.3.6-.4,1.1-.4,1.4s.3.5.9.5v.8h-6.5v-.8h0s0,0,0,0ZM32.5,38.4l-3.8-8.5-4.3,8.5h8.1Z"/>
  <path d="M44.9,46.9c.8,0,1.2-.3,1.2-.8v-20.7c0-.5-.4-.8-1.2-.8v-.8h7.6v.8c-.8,0-1.2.3-1.2.8v20.7c0,.5.4.8,1.2.8v.8h-7.6v-.8Z"/>
</svg>