<?xml version="1.0" encoding="UTF-8"?>
<svg id="Layer_1" data-name="Layer 1" xmlns="http://www.w3.org/2000/svg" viewBox="0 0 72 72">
  <path d="M52.6,64.2H18.5c-6.3,0-11.5-5.2-11.5-11.5V18.5c0-6.3,5.2-11.5,11.5-11.5h34.2c6.3,0,11.5,5.2,11.5,11.5v34.2c0,6.3-5.2,11.5-11.5,11.5h-.1ZM18.5,10c-4.7,0-8.5,3.8-8.5,8.5v34.2c0,4.7,3.8,8.5,8.5,8.5h34.2c4.7,0,8.5-3.8,8.5-8.5V18.5c0-4.7-3.8-8.5-8.5-8.5H18.5Z"/>
  <path d="M50.98,26.04c-.33-3.38-8.06-5.51-14.98-5.51s-14.7,2.13-14.98,5.51v19.54c0,3.55,7.95,5.88,14.98,5.88s14.98-2.34,14.98-5.88v-19.55h0ZM49.07,40.8c0,1.96-5.29,4.09-13.07,4.09s-13.07-2.18-13.07-4.09v-2.34c2.5,2.02,7.84,3.05,13.07,3.05s10.62-1.04,13.07-3.05v2.34ZM49.07,36.01c0,1.96-5.29,4.09-13.07,4.09s-13.07-2.18-13.07-4.09v-2.4c2.5,2.01,7.84,3.05,13.07,3.05s10.62-1.04,13.07-3.05v2.4ZM49.07,31.27c0,1.96-5.29,4.09-13.07,4.09s-13.07-2.18-13.07-4.09v-2.44c2.5,2.02,7.84,2.94,13.07,2.94s10.62-1.03,13.07-3.05v2.57h0ZM36,22.29c7.78,0,13.07,2.29,13.07,4.25s-5.29,3.98-13.07,3.98-13.07-2.02-13.07-3.97,5.29-4.25,13.07-4.25h0ZM36,49.41c-7.78,0-13.07-2.44-13.07-4.36v-1.85c2.5,2.02,7.84,3.05,13.07,3.05s10.62-1.04,13.07-3.05v1.85c0,1.96-5.28,4.36-13.07,4.36Z"/>
</svg>