<?xml version="1.0" encoding="UTF-8"?>
<svg xmlns="http://www.w3.org/2000/svg" width="72" height="72" viewBox="0 0 72 72">
  <g id="SVG_icons" data-name="SVG icons">
    <path d="M63.96,16.82H9.29c-.83,0-1.5.67-1.5,1.5v36.78c0,.83.67,1.5,1.5,1.5h54.67c.83,0,1.5-.67,1.5-1.5V18.32c0-.83-.67-1.5-1.5-1.5ZM62.46,53.6H10.79V19.82h4.3v11.98c0,.55.45,1,1,1s1-.45,1-1v-11.98h4.83v11.98c0,.55.45,1,1,1s1-.45,1-1v-11.98h4.58v22.52c0,.83.67,1.5,1.5,1.5s1.5-.67,1.5-1.5v-22.52h4.55v11.98c0,.55.45,1,1,1s1-.45,1-1v-11.98h4.83v11.98c0,.55.45,1,1,1s1-.45,1-1v-11.98h4.58v22.52c0,.83.67,1.5,1.5,1.5s1.5-.67,1.5-1.5v-22.52h4.3v11.98c0,.55.45,1,1,1s1-.45,1-1v-11.98h3.71v33.78Z"/>
  </g>
  <g id="Rectangles">
    <rect x=".36" y=".36" width="71.28" height="71.28" fill="none"/>
  </g>
</svg>