<?xml version="1.0" encoding="UTF-8"?>
<svg id="Layer_1" data-name="Layer 1" xmlns="http://www.w3.org/2000/svg" viewBox="0 0 72 72">
  <path d="M53.18,64.2H19.08c-6.3,0-11.5-5.2-11.5-11.5V18.5c0-6.3,5.2-11.5,11.5-11.5h34.2c6.3,0,11.5,5.2,11.5,11.5v34.2c0,6.3-5.2,11.5-11.5,11.5h-.1ZM19.08,10c-4.7,0-8.5,3.8-8.5,8.5v34.2c0,4.7,3.8,8.5,8.5,8.5h34.2c4.7,0,8.5-3.8,8.5-8.5V18.5c0-4.7-3.8-8.5-8.5-8.5H19.08Z"/>
  <polygon points="34.12 41.07 28.19 35.14 30.37 32.96 34.12 36.71 42.11 28.85 44.16 30.9 34.12 41.07"/>
  <path d="M36.17,52.68h-.6l-.48-.24c-7.26-3.87-11.01-7.14-11.74-9.8-.36-1.45-.73-3.27-1.09-5.93l-1.21-11.62c0-.6.24-1.09.85-1.33l13.91-4.23h.73l13.92,4.23c.6,0,.97.73.85,1.33l-1.21,11.5c-.36,2.66-.6,4.48-.97,5.93-.73,2.66-4.6,5.93-11.74,9.8l-.48.24h-.6l-.12.12ZM23.58,25.7l1.09,10.53c.24,2.54.6,4.24.97,5.57.24,1.09,2.06,3.63,10.53,8.23,8.47-4.6,10.16-7.14,10.53-8.23.36-1.33.6-3.02.97-5.57l1.09-10.53-12.58-3.87-12.58,3.87h0Z"/>
</svg>