<?xml version="1.0" encoding="UTF-8"?>
<svg xmlns="http://www.w3.org/2000/svg" viewBox="0 0 72 72">
    <path d="M36.1,64.36c-.26,0-.51-.06-.74-.2-.16-.09-.42-.23-.77-.42-12.02-6.53-18.43-11.83-19.61-16.21-.65-2.42-1.18-5.49-1.72-9.95l-2.04-21.52c-.07-.71.37-1.37,1.06-1.58l23.38-7.13c.29-.09.59-.09.88,0l23.38,7.13c.68.21,1.12.87,1.06,1.58l-2.04,21.48c-.54,4.5-1.07,7.57-1.73,9.99-1.18,4.38-7.59,9.68-19.61,16.21-.34.19-.6.33-.76.42-.23.13-.48.2-.74.2ZM14.32,17l1.92,20.27c.52,4.28,1.02,7.21,1.64,9.49.65,2.4,4.32,6.84,18.14,14.36.02.01.05.03.07.04.02-.01.05-.03.07-.04,13.83-7.51,17.5-11.95,18.15-14.36.61-2.28,1.12-5.22,1.64-9.53l1.92-20.23-21.78-6.64-21.78,6.64Z"/>
    <path d="M22.21,39.72c.25-.04.47-.17.61-.39s.3-.47.44-.75l5.54-11.64c.14-.25.26-.5.38-.72.11-.22.16-.41.16-.57,0-.2-.07-.34-.21-.42-.14-.08-.28-.14-.45-.18v-.54h5.06v.54c-.14.04-.27.09-.42.16s-.21.21-.21.44c0,.16.03.32.1.48s.17.37.32.63l6.23,12.18c.1.22.23.38.41.48.17.1.37.2.58.3v.54h-5.26v-.54c.08,0,.18-.03.3-.09.12-.06.18-.15.18-.26,0-.2-.08-.46-.24-.77l-1.14-2.22h-7.3l-1.08,2.13c-.2.42-.3.72-.3.9,0,.22.19.33.57.33v.54h-4.25v-.54h0ZM33.5,34.15l-2.51-5.57-2.81,5.57h5.32Z"/>
    <path d="M42.5,39.72c.52,0,.77-.18.77-.54v-13.59c0-.36-.25-.54-.77-.54v-.54h4.97v.54c-.52,0-.77.18-.77.54v13.59c0,.36.25.54.77.54v.54h-4.97v-.54Z"/>
    <rect x=".36" y=".36" width="71.28" height="71.28" fill="none"/>
</svg>