<?xml version="1.0" encoding="UTF-8"?>
<svg xmlns="http://www.w3.org/2000/svg" viewBox="0 0 72 72">
  <path d="M54,64.21H17.05c-1.78,0-3.23-1.45-3.23-3.24V11.25c0-1.78,1.45-3.23,3.23-3.23h25.37c.81,0,1.59.3,2.19.85l11.58,10.67c.66.61,1.04,1.48,1.04,2.38v39.06c0,1.78-1.45,3.24-3.23,3.24h0ZM17.05,10.52c-.4,0-.73.33-.73.73v49.72c0,.41.33.74.73.74h36.96c.4,0,.73-.33.73-.74V21.92c0-.21-.09-.4-.24-.54l-11.58-10.67c-.14-.12-.31-.19-.5-.19,0,0-25.37,0-25.37,0Z"/>
  <rect x=".36" y=".36" width="71.28" height="71.28" fill="none"/>
  <path d="M34.88,54.88s0-.01,0-.02l.02.02h-.02ZM37.57,45.28h.01s0-.01,0-.01h-.01Z"/>
  <path d="M47.39,31.17s.02,0,.03.01h.07-.1Z"/>
  <path d="M42.78,37.36h-.27v-1.97c0-3.81-3.09-6.9-6.9-6.9s-6.9,3.09-6.9,6.9v1.97h-.27c-1.96,0-3.56,1.6-3.56,3.56v8.95c0,1.96,1.6,3.56,3.56,3.56h14.33c1.96,0,3.56-1.6,3.56-3.56v-8.95c0-1.96-1.6-3.56-3.56-3.56ZM30.76,35.22c0-2.61,2.24-4.73,4.86-4.73s4.73,2.12,4.73,4.73v2.09h-9.59v-2.09ZM44.46,49.5c0,1.05-.85,1.9-1.9,1.9h-13.89c-1.05,0-1.9-.85-1.9-1.9v-8.2c0-1.05.85-1.9,1.9-1.9h13.89c1.05,0,1.9.85,1.9,1.9v8.2Z"/>
  <rect x="34.79" y="41.59" width="1.64" height="6.76"/>
</svg>