<?xml version="1.0" encoding="UTF-8"?>
<svg xmlns="http://www.w3.org/2000/svg" viewBox="0 0 72 72">
  <path d="M54,64.21H17.05c-1.78,0-3.23-1.45-3.23-3.24V11.25c0-1.78,1.45-3.23,3.23-3.23h25.37c.81,0,1.59.3,2.19.85l11.58,10.67c.66.61,1.04,1.48,1.04,2.38v39.06c0,1.78-1.45,3.24-3.23,3.24h0ZM17.05,10.52c-.4,0-.73.33-.73.73v49.72c0,.41.33.74.73.74h36.96c.4,0,.73-.33.73-.74V21.92c0-.21-.09-.4-.24-.54l-11.58-10.67c-.14-.12-.31-.19-.5-.19,0,0-25.37,0-25.37,0Z"/>
  <rect x=".36" y=".36" width="71.28" height="71.28" fill="none"/>
  <path d="M41.08,37.65h-10.74c-.06-.01-.12.03-.14.09,0,.01,0,.02,0,.03-.02-.01-.05-.01-.08,0-.02.03-.02.06,0,.09l.74.71,2.64,2.64-6.07,6.06-3.3-3.3s-.08-.02-.11,0h-.05c-.06.02-.1.08-.1.14v10.78c0,.09.07.15.15.15h10.8c.06,0,.12-.04.14-.1.03-.05.03-.11,0-.17l-3.35-3.3,6.06-6.07,3.3,3.3s.03,0,.04,0c.02,0,.04,0,.05,0,0,0,0,0,.01,0h.07c.06-.02.09-.08.09-.14v-10.76c0-.09-.07-.15-.15-.15ZM34.88,54.88s0-.01,0-.02l.02.02h-.02ZM37.57,45.28h.01s0-.01,0-.01h-.01Z"/>
  <path d="M47.57,31.3c-.03-.06-.09-.11-.16-.12h-23.36c-.13,0-.23.1-.23.23v8.8c0,.06.02.12.07.16l1.19,1.25s.1.07.16.07h.09c.09-.04.14-.12.14-.22v-8.67h20.58v20.58h-8.64c-.1,0-.2.05-.24.14-.05.08-.05.18,0,.25l1.24,1.24s.1.07.16.07h8.8c.09,0,.15-.06.19-.14.04-.02.07-.05.07-.09v-23.46s-.03-.08-.08-.1Z"/>
  <path d="M47.39,31.17s.02,0,.03.01h.07-.1Z"/>
</svg>