<?xml version="1.0" encoding="UTF-8"?>
<svg xmlns="http://www.w3.org/2000/svg" viewBox="0 0 72 72">
  <path d="M54,64.21H17.05c-1.78,0-3.23-1.45-3.23-3.24V11.25c0-1.78,1.45-3.23,3.23-3.23h25.37c.81,0,1.59.3,2.19.85l11.58,10.67c.66.61,1.04,1.48,1.04,2.38v39.06c0,1.78-1.45,3.24-3.23,3.24h0ZM17.05,10.52c-.4,0-.73.33-.73.73v49.72c0,.41.33.74.73.74h36.96c.4,0,.73-.33.73-.74V21.92c0-.21-.09-.4-.24-.54l-11.58-10.67c-.14-.12-.31-.19-.5-.19,0,0-25.37,0-25.37,0Z"/>
  <rect x=".36" y=".36" width="71.28" height="71.28" fill="none"/>
  <path d="M34.88,54.88s0-.01,0-.02l.02.02h-.02ZM37.57,45.28h.01s0-.01,0-.01h-.01Z"/>
  <path d="M47.39,31.17s.02,0,.03.01h.07-.1Z"/>
  <path d="M50.19,40.1l-7.34-12.14c-.15-.25-.42-.41-.72-.41h-12.91c-.29,0-.57.15-.72.41l-7.32,12.14c-.16.27-.16.6,0,.87l7.32,12.18c.15.25.42.41.72.41h6.5c.46,0,.84-.37.84-.84v-4.48c2.29-.48,3.35-2.19,3.35-3.87,0-2.39-1.74-3.39-3.43-4.05-1.81-.7-2.13-1.18-2.13-1.91,0-.63.48-1.36,1.83-1.36.73,0,1.45.18,2.09.52.23.13.52.04.65-.19.01-.03.03-.05.03-.08l.44-1.29c.07-.22-.02-.46-.22-.57-.84-.43-1.77-.66-2.71-.66v-2.11c0-.46-.37-.84-.84-.84s-.84.37-.84.84v2.29c-1.8.48-3,1.86-3,3.62s1.16,3.08,3.54,3.92c1.68.65,2,1.2,2,1.99,0,1.01-.78,1.61-2.09,1.61-.92,0-1.82-.26-2.6-.74-.23-.14-.52-.07-.66.16-.02.03-.04.07-.05.11l-.4,1.32c-.06.2.02.42.19.54.96.55,2.05.85,3.16.87v3.51h-5.18l-6.82-11.34,6.82-11.3h11.99l6.82,11.3-7.08,11.76c-.25.39-.14.91.25,1.16.39.25.91.14,1.16-.25,0-.01.02-.03.02-.04l7.34-12.19c.16-.26.16-.59,0-.86Z"/>
</svg>