<?xml version="1.0" encoding="UTF-8"?>
<svg xmlns="http://www.w3.org/2000/svg" viewBox="0 0 72 72">
  <path d="M54,64.21H17.05c-1.78,0-3.23-1.45-3.23-3.24V11.25c0-1.78,1.45-3.23,3.23-3.23h25.37c.81,0,1.59.3,2.19.85l11.58,10.67c.66.61,1.04,1.48,1.04,2.38v39.06c0,1.78-1.45,3.24-3.23,3.24h0ZM17.05,10.52c-.4,0-.73.33-.73.73v49.72c0,.41.33.74.73.74h36.96c.4,0,.73-.33.73-.74V21.92c0-.21-.09-.4-.24-.54l-11.58-10.67c-.14-.12-.31-.19-.5-.19,0,0-25.37,0-25.37,0Z"/>
  <rect x=".36" y=".36" width="71.28" height="71.28" fill="none"/>
  <path d="M35.76,51.76c-1.46,0-2.85-.56-3.91-1.57l-.04-.04c-.64-.71-1.62-1.06-2.57-.91-.25.03-.47.04-.67.04-3.11,0-5.65-2.53-5.65-5.65,0-.23.02-.46.04-.68.14-.97-.22-1.92-.94-2.56-1.17-1.08-1.84-2.59-1.84-4.17s.67-3.09,1.83-4.16c.74-.65,1.09-1.6.96-2.56-.03-.23-.04-.47-.04-.7,0-3.11,2.53-5.65,5.65-5.65.21,0,.43.01.65.04.98.14,1.96-.2,2.59-.91l.04-.04c1.06-1.02,2.44-1.57,3.91-1.57,1.57,0,3.08.67,4.16,1.83.65.74,1.6,1.09,2.56.96.24-.03.47-.04.7-.04,3.11,0,5.65,2.53,5.65,5.65,0,.21-.01.43-.04.65-.15.97.2,1.96.91,2.59l.04.04c1.02,1.06,1.57,2.43,1.57,3.87s-.56,2.82-1.57,3.87l-.04.04c-.71.64-1.06,1.62-.91,2.57.03.24.04.46.04.67,0,3.11-2.53,5.65-5.65,5.65-.22,0-.46-.02-.68-.04-.97-.14-1.92.22-2.56.94-1.08,1.17-2.59,1.84-4.17,1.84h0ZM32.98,49.05c.75.72,1.74,1.11,2.78,1.11,1.13,0,2.21-.48,2.98-1.32.98-1.12,2.47-1.66,3.95-1.46.14.02.31.03.47.03,2.24,0,4.05-1.82,4.05-4.05,0-.15-.01-.31-.03-.47-.22-1.43.32-2.95,1.4-3.94.73-.77,1.11-1.72,1.11-2.75s-.38-1.98-1.11-2.75c-1.08-.99-1.62-2.51-1.4-3.96.02-.12.02-.28.02-.44,0-2.24-1.82-4.05-4.05-4.05-.16,0-.33.01-.49.03-1.47.21-2.95-.34-3.94-1.47-.76-.82-1.84-1.3-2.97-1.3-1.04,0-2.02.39-2.78,1.11-.99,1.08-2.51,1.62-3.96,1.4-.12-.02-.28-.02-.44-.02-2.24,0-4.05,1.82-4.05,4.05,0,.16.01.33.03.49.21,1.47-.34,2.95-1.47,3.95-.82.76-1.3,1.84-1.3,2.97s.48,2.22,1.32,2.98c1.12.98,1.66,2.47,1.46,3.95-.02.14-.03.31-.03.47,0,2.24,1.82,4.05,4.05,4.05.15,0,.31-.01.47-.03,1.43-.22,2.95.32,3.94,1.4h0Z"/>
  <polygon points="34 41.35 28.89 36.25 30.87 34.27 34 37.4 41.26 30.14 43.24 32.11 34 41.35"/>
</svg>