<?xml version="1.0" encoding="UTF-8"?>
<svg xmlns="http://www.w3.org/2000/svg" viewBox="0 0 72 72">
  <path d="M54,64.21H17.05c-1.78,0-3.23-1.45-3.23-3.24V11.25c0-1.78,1.45-3.23,3.23-3.23h25.37c.81,0,1.59.3,2.19.85l11.58,10.67c.66.61,1.04,1.48,1.04,2.38v39.06c0,1.78-1.45,3.24-3.23,3.24h0ZM17.05,10.52c-.4,0-.73.33-.73.73v49.72c0,.41.33.74.73.74h36.96c.4,0,.73-.33.73-.74V21.92c0-.21-.09-.4-.24-.54l-11.58-10.67c-.14-.12-.31-.19-.5-.19,0,0-25.37,0-25.37,0Z"/>
  <rect x=".36" y=".36" width="71.28" height="71.28" fill="none"/>
  <path d="M34.88,54.88s0-.01,0-.02l.02.02h-.02Z"/>
  <path d="M44.17,40.01c2.68-.02,4.83-2.21,4.81-4.89-.02-2.68-2.21-4.83-4.89-4.81-2.66.02-4.81,2.19-4.81,4.85,0,.3.03.59.09.88l-9.06,3.61c-1.49-2.25-4.53-2.86-6.78-1.37-2.25,1.49-2.86,4.53-1.37,6.78,1.49,2.25,4.53,2.86,6.78,1.37.3-.2.57-.43.82-.68l7.43,4.78c-1,2.52.24,5.36,2.75,6.36s5.36-.24,6.36-2.75c1-2.52-.24-5.36-2.75-6.36-1.84-.73-3.94-.28-5.32,1.14l-7.43-4.78c.34-.86.43-1.79.25-2.7l9.04-3.6c.91,1.36,2.45,2.17,4.08,2.17ZM41.72,49.38c1.64,0,2.98,1.33,2.98,2.98s-1.33,2.98-2.98,2.98-2.98-1.33-2.98-2.98,1.33-2.98,2.98-2.98h0ZM26.25,45.34c-1.64,0-2.98-1.33-2.98-2.97,0-1.64,1.33-2.98,2.97-2.98,1.64,0,2.98,1.33,2.98,2.97,0,0,0,0,0,0,0,1.64-1.33,2.97-2.97,2.98ZM44.17,32.22c1.62.02,2.92,1.35,2.9,2.97-.02,1.62-1.35,2.92-2.97,2.9-1.61-.02-2.9-1.33-2.9-2.94.01-1.63,1.34-2.95,2.97-2.94,0,0,0,0,0,0Z"/>
</svg>