<?xml version="1.0" encoding="UTF-8"?>
<svg xmlns="http://www.w3.org/2000/svg" viewBox="0 0 72 72">
  <path d="M53.64,63.85H16.69c-1.78,0-3.23-1.45-3.23-3.24V10.89c0-1.78,1.45-3.23,3.23-3.23h25.37c.81,0,1.59.3,2.19.85l11.58,10.67c.66.61,1.04,1.48,1.04,2.38v39.06c0,1.78-1.45,3.24-3.23,3.24h0ZM16.69,10.16c-.4,0-.73.33-.73.73v49.72c0,.41.33.74.73.74h36.96c.4,0,.73-.33.73-.74V21.56c0-.21-.09-.4-.24-.54l-11.58-10.67c-.14-.12-.31-.19-.5-.19,0,0-25.37,0-25.37,0Z"/>
  <rect width="71.28" height="71.28" fill="none"/>
  <path d="M34.52,54.52s0-.01,0-.02l.02.02h-.02ZM37.21,44.92h.01s0-.01,0-.01h-.01Z"/>
  <path d="M47.03,30.81s.02,0,.03.01h.07-.1Z"/>
  <path d="M47.77,40.86c-1.29-3.11-3.83-5.98-7.08-8.08-1.05-.67-2.2-1.29-3.4-1.72l4.64-1.67c.48-.19.72-.77.53-1.24s-.72-.72-1.2-.57l-6.89,2.53c-.48.19-.77.72-.57,1.24h0l2.58,6.98c.19.48.72.77,1.24.57.48-.19.77-.72.57-1.24h0l-1.82-4.97s.1.05.14.1c1.1.43,2.15.96,3.16,1.63,2.97,1.87,5.21,4.45,6.36,7.17,1.05,2.63,1.05,5.17-.19,7.03-2.58,4.02-9.52,4.21-15.54.38-6.03-3.83-8.8-10.24-6.27-14.25.29-.43.14-1.05-.29-1.34-.43-.29-.96-.14-1.29.24h0c-3.16,4.97-.1,12.58,6.79,16.93,2.92,1.91,6.27,2.97,9.76,3.01,3.59,0,6.74-1.34,8.42-4.02,1.53-2.44,1.67-5.55.33-8.8v.1Z"/>
</svg>