<?xml version="1.0" encoding="UTF-8"?>
<svg xmlns="http://www.w3.org/2000/svg" viewBox="0 0 72 72">
  <path d="M54,64.21H17.05c-1.78,0-3.23-1.45-3.23-3.24V11.25c0-1.78,1.45-3.23,3.23-3.23h25.37c.81,0,1.59.3,2.19.85l11.58,10.67c.66.61,1.04,1.48,1.04,2.38v39.06c0,1.78-1.45,3.24-3.23,3.24h0ZM17.05,10.52c-.4,0-.73.33-.73.73v49.72c0,.41.33.74.73.74h36.96c.4,0,.73-.33.73-.74V21.92c0-.21-.09-.4-.24-.54l-11.58-10.67c-.14-.12-.31-.19-.5-.19,0,0-25.37,0-25.37,0Z"/>
  <rect x=".36" y=".36" width="71.28" height="71.28" fill="none"/>
  <path d="M34.88,54.88s0-.01,0-.02l.02.02h-.02ZM37.57,45.28h.01s0-.01,0-.01h-.01Z"/>
  <path d="M47.39,31.17s.02,0,.03.01h.07-.1Z"/>
  <path d="M35.68,26.91c-7.6,0-13.77,6.17-13.77,13.77s6.17,13.77,13.77,13.77,13.77-6.17,13.77-13.77h0c0-7.6-6.17-13.77-13.77-13.77ZM35.68,28.82c2.68,0,5.26.91,7.32,2.53l-16.64,16.69c-4.07-5.12-3.2-12.58,1.96-16.64,2.1-1.67,4.69-2.53,7.37-2.53v-.05ZM35.68,52.59c-2.97,0-5.84-1.1-8.04-3.11l16.74-16.79c4.4,4.83,4.07,12.34-.77,16.74-2.2,2.01-5.02,3.11-7.99,3.11l.05.05Z"/>
</svg>