<?xml version="1.0" encoding="UTF-8"?>
<svg xmlns="http://www.w3.org/2000/svg" viewBox="0 0 72 72">
  <rect x=".36" y=".36" width="71.28" height="71.28" fill="none"/>
  <path d="M49.62,38.73h-13.92c-.64,0-1.16-.52-1.16-1.16s.52-1.16,1.16-1.16h13.92c.64,0,1.16.52,1.16,1.16s-.52,1.16-1.16,1.16Z"/>
  <path d="M49.62,44.88h-13.92c-.64,0-1.16-.52-1.16-1.16s.52-1.16,1.16-1.16h13.92c.64,0,1.16.52,1.16,1.16s-.52,1.16-1.16,1.16Z"/>
  <path d="M49.62,50.93h-13.92c-.64,0-1.16-.52-1.16-1.16s.52-1.16,1.16-1.16h13.92c.64,0,1.16.52,1.16,1.16s-.52,1.16-1.16,1.16Z"/>
  <path d="M49.62,56.94h-13.92c-.64,0-1.16-.52-1.16-1.16s.52-1.16,1.16-1.16h13.92c.64,0,1.16.52,1.16,1.16s-.52,1.16-1.16,1.16Z"/>
  <path d="M28.99,38.73h-6.91c-.64,0-1.16-.52-1.16-1.16s.52-1.16,1.16-1.16h6.91c.64,0,1.16.52,1.16,1.16s-.52,1.16-1.16,1.16Z"/>
  <path d="M28.99,44.88h-6.91c-.64,0-1.16-.52-1.16-1.16s.52-1.16,1.16-1.16h6.91c.64,0,1.16.52,1.16,1.16s-.52,1.16-1.16,1.16Z"/>
  <path d="M56.28,19.54l-11.58-10.67c-.6-.55-1.38-.85-2.19-.85h-25.37c-1.78,0-3.23,1.45-3.23,3.23v49.72c0,1.79,1.45,3.24,3.23,3.24h36.95c1.78,0,3.23-1.45,3.23-3.23V21.92c0-.9-.38-1.77-1.04-2.38ZM17.14,10.52h25.37c.19,0,.36.07.5.19l11.58,10.67c.15.14.24.33.24.54v8.07H16.41V11.25c0-.4.33-.73.73-.73ZM54.1,61.71H17.14c-.4,0-.73-.33-.73-.74v-30.14h38.42v30.14c0,.41-.33.74-.73.74Z"/>
</svg>