<?xml version="1.0" encoding="UTF-8"?>
<svg xmlns="http://www.w3.org/2000/svg" viewBox="0 0 72 72">
  <path d="M54,64.21H17.05c-1.78,0-3.23-1.45-3.23-3.24V11.25c0-1.78,1.45-3.23,3.23-3.23h25.37c.81,0,1.59.3,2.19.85l11.58,10.67c.66.61,1.04,1.48,1.04,2.38v39.06c0,1.78-1.45,3.24-3.23,3.24h0ZM17.05,10.52c-.4,0-.73.33-.73.73v49.72c0,.41.33.74.73.74h36.96c.4,0,.73-.33.73-.74V21.92c0-.21-.09-.4-.24-.54l-11.58-10.67c-.14-.12-.31-.19-.5-.19,0,0-25.37,0-25.37,0Z"/>
  <rect x=".36" y=".36" width="71.28" height="71.28" fill="none"/>
  <path d="M34.88,54.88s0-.01,0-.02l.02.02h-.02ZM37.57,45.28h.01s0-.01,0-.01h-.01Z"/>
  <path d="M45.69,31.17s.02,0,.03.01h.07-.1Z"/>
  <path d="M50.95,46.44c0-.32-.16-1.05-1.05-1.54-.73-.4-1.38-.73-1.94-.97-.73-.32-1.3-.65-1.62-.89-.16-.24-.32-1.13-.32-1.38s.16-.4.89-1.46h0c.24-.41.57-1.22.57-1.94s-.32-1.94-.32-2.92-.41-1.38-1.22-2.02c-.73-.57-2.02-1.22-3.16-.97-1.05.24-1.38.16-1.62.16s-.65,0-1.05.24c-.65.41-1.22,1.22-1.38,1.94-.32,1.38-.32,2.51-.32,2.51v1.13c0,.73.32,1.3.57,1.62,0,0,0,.16.24.32.16.24.65.89.73,1.13,0,.32-.16,1.22-.32,1.46-.16,0-.73.4-1.13.57-.73.4-1.54.81-2.02,1.13-.49-.24-.89-.4-1.13-.65-.16-.32-.49-1.62-.49-1.94s.16-.49,1.13-2.02h0c.24-.57.73-1.46.73-2.35s0-.73-.16-.97v-.81c0-.32-.16-.65-.16-1.94s-.57-1.7-1.46-2.43c-.97-.73-2.51-1.54-3.97-1.22-1.38.32-1.86.24-2.19.24s-.73,0-1.3.32c-.73.49-1.46,1.46-1.7,2.35-.49,1.86-.49,2.51-.49,3.24v.73c0,.16-.08.41-.08.73,0,.89.49,1.7.73,2.02,0,0,.16.24.24.41.24.32.97,1.3,1.05,1.54,0,.41-.32,1.78-.49,2.19-.41.32-1.13.57-1.94.97-.89.4-1.94.81-3.08,1.46-1.05.57-1.13,1.38-1.22,1.78h0c0,.49-.16,3.56-.16,4.54s0,.41.24.57c.16.16.32.24.57.24h20.01c.24,0,.41,0,.57-.24s.24-.32.24-.57c0-.97-.16-4.05-.16-4.46s-.16-1.3-1.22-1.86c-.73-.4-2.02-.89-2.67-1.22.32-.16.73-.32,1.05-.49.81-.41,1.22-.65,1.38-.81.65-.49.73-2.19.73-2.67s-.41-.97-1.05-1.86c0,0-.16-.16-.16-.24,0-.16-.16-.65-.16-.97v-.97c0-.65,0-.97.32-2.27,0-.32.4-.81.73-1.05h0c.32,0,.81,0,2.11-.16.49-.08,1.46-.08,2.11.41.49.32.97,1.13.97,1.22,0,1.05.24,2.51.32,2.67v.16c0,.32,0,.89-.16,1.05h0c-.81,1.22-1.22,1.78-1.3,2.19,0,.16.16,2.11.89,2.59h0c.49.32,1.13.65,1.94,1.05.57.24,1.22.57,1.94.97.24,0,.24.16.24.41h0c0,.24.16,1.13,0,2.51h-5.1c-.41,0-.73.32-.73.73s.32.73.73.73h5.51c.24,0,.41,0,.57-.24s.24-.32.24-.57c0-.97-.08-3.08-.08-3.08v-.08ZM40.17,48.54c0,.24,0,1.86.16,3.48h-18.47c0-1.62.08-3.24.16-3.48h0c0-.4,0-.57.49-.81,1.05-.57,2.02-1.05,2.92-1.38.97-.41,1.78-.73,2.27-1.22.73-.57,1.13-2.84,1.05-3.48,0-.57-.49-1.22-1.3-2.35-.08-.16-.16-.24-.24-.32-.16-.16-.49-.65-.49-1.13s0-.32,0-.41c0-.24.08-.4.08-.89v-.16c0-.73,0-1.22.41-2.92.16-.49.57-1.22,1.05-1.46.08,0,.16-.08.16-.08h.16c.4,0,1.05.08,2.67-.24.73-.16,1.78.24,2.67.89.65.49.89.97.89,1.22,0,1.46,0,1.86.16,2.27v.49c0,.32,0,.49.16.65v.32c0,.49-.32,1.13-.49,1.38h0c-.97,1.54-1.38,2.35-1.38,2.92s.24,2.59,1.05,3.24c.57.41,1.38.81,2.51,1.3.81.4,1.78.81,2.75,1.3.41.16.41.4.49.81h0l.08.08Z"/>
</svg>